<?xml version="1.0" encoding="UTF-8" standalone="no"?>
<!DOCTYPE svg PUBLIC "-//W3C//DTD SVG 1.1//EN"
 "http://www.w3.org/Graphics/SVG/1.1/DTD/svg11.dtd">
<!-- Generated by graphviz version 2.48.0 (20210717.1556)
 -->
<!-- Title: Controllers.Froggy.Froggy_AttackState Pages: 1 -->
<!--zoomable 1583 -->
<svg id="main" version="1.1" xmlns="http://www.w3.org/2000/svg" xmlns:xlink="http://www.w3.org/1999/xlink" xml:space="preserve" onload="init(evt)">
<style type="text/css"><![CDATA[
.edge:hover path { stroke: red; }
.edge:hover polygon { stroke: red; fill: red; }
]]></style>
<script type="text/javascript"><![CDATA[
var edges = document.getElementsByTagName('g');
if (edges && edges.length) {
  for (var i=0;i<edges.length;i++) {
    if (edges[i].id.substr(0,4)=='edge') {
      edges[i].setAttribute('class','edge');
    }
  }
}
]]></script>
        <defs>
                <circle id="rim" cx="0" cy="0" r="7"/>
                <circle id="rim2" cx="0" cy="0" r="3.5"/>
                <g id="zoomPlus">
                        <use xlink:href="#rim" fill="#404040">
                                <set attributeName="fill" to="#808080" begin="zoomplus.mouseover" end="zoomplus.mouseout"/>
                        </use>
                        <path d="M-4,0h8M0,-4v8" fill="none" stroke="white" stroke-width="1.5" pointer-events="none"/>
                </g>
                <g id="zoomMin">
                        <use xlink:href="#rim" fill="#404040">
                                <set attributeName="fill" to="#808080" begin="zoomminus.mouseover" end="zoomminus.mouseout"/>
                        </use>
                        <path d="M-4,0h8" fill="none" stroke="white" stroke-width="1.5" pointer-events="none"/>
                </g>
                <g id="dirArrow">
                        <path fill="none" stroke="white" stroke-width="1.5" d="M0,-3.0v7 M-2.5,-0.5L0,-3.0L2.5,-0.5"/>
                </g>
               <g id="resetDef">
                       <use xlink:href="#rim2" fill="#404040">
                               <set attributeName="fill" to="#808080" begin="reset.mouseover" end="reset.mouseout"/>
                       </use>
               </g>
        </defs>

<script type="text/javascript">
var viewWidth = 1537;
var viewHeight = 1583;
var sectionId = 'dynsection-1';
</script>
<script xlink:href="svgpan.js"/>
<svg id="graph" class="graph">
<g id="viewport">
<title>Controllers.Froggy.Froggy_AttackState</title>
<!-- Node1 -->
<g id="node1" class="node">
<title>Node1</title>
<g id="a_node1"><a xlink:title=" ">
<polygon fill="#bfbfbf" stroke="black" points="1252,-0.5 1252,-145.5 1466,-145.5 1466,-0.5 1252,-0.5"/>
<text text-anchor="start" x="1260" y="-133.5" font-family="Helvetica,sans-Serif" font-size="10.00">Controllers.Froggy.Froggy</text>
<text text-anchor="middle" x="1359" y="-122.5" font-family="Helvetica,sans-Serif" font-size="10.00">_AttackState</text>
<polyline fill="none" stroke="black" points="1252,-115.5 1466,-115.5 "/>
<text text-anchor="middle" x="1359" y="-103.5" font-family="Helvetica,sans-Serif" font-size="10.00"> </text>
<polyline fill="none" stroke="black" points="1252,-96.5 1466,-96.5 "/>
<text text-anchor="start" x="1260" y="-84.5" font-family="Helvetica,sans-Serif" font-size="10.00">+ Froggy_AttackState</text>
<text text-anchor="start" x="1260" y="-73.5" font-family="Helvetica,sans-Serif" font-size="10.00">(BaseController controller,</text>
<text text-anchor="start" x="1260" y="-62.5" font-family="Helvetica,sans-Serif" font-size="10.00"> ControllerStateMachine</text>
<text text-anchor="start" x="1260" y="-51.5" font-family="Helvetica,sans-Serif" font-size="10.00"> stateMachine, string animBoolName,</text>
<text text-anchor="start" x="1260" y="-40.5" font-family="Helvetica,sans-Serif" font-size="10.00"> AttackStateData stateData, FroggyController</text>
<text text-anchor="start" x="1260" y="-29.5" font-family="Helvetica,sans-Serif" font-size="10.00"> froggyController)</text>
<text text-anchor="start" x="1260" y="-18.5" font-family="Helvetica,sans-Serif" font-size="10.00">+ override void Enter()</text>
<text text-anchor="start" x="1260" y="-7.5" font-family="Helvetica,sans-Serif" font-size="10.00">+ override void UpdateState()</text>
</a>
</g>
</g>
<!-- Node2 -->
<g id="node2" class="node">
<title>Node2</title>
<g id="a_node2"><a xlink:href="class_controllers_1_1_state_machine_1_1_states_1_1_attack_state.html" target="_top" xlink:title=" ">
<polygon fill="none" stroke="black" points="1269,-183.5 1269,-317.5 1449,-317.5 1449,-183.5 1269,-183.5"/>
<text text-anchor="middle" x="1359" y="-305.5" font-family="Helvetica,sans-Serif" font-size="10.00">AttackState</text>
<polyline fill="none" stroke="black" points="1269,-298.5 1449,-298.5 "/>
<text text-anchor="middle" x="1359" y="-286.5" font-family="Helvetica,sans-Serif" font-size="10.00"> </text>
<polyline fill="none" stroke="black" points="1269,-279.5 1449,-279.5 "/>
<text text-anchor="start" x="1277" y="-267.5" font-family="Helvetica,sans-Serif" font-size="10.00">+ AttackState(BaseController</text>
<text text-anchor="start" x="1277" y="-256.5" font-family="Helvetica,sans-Serif" font-size="10.00"> controller, ControllerStateMachine</text>
<text text-anchor="start" x="1277" y="-245.5" font-family="Helvetica,sans-Serif" font-size="10.00"> stateMachine, string animBoolName,</text>
<text text-anchor="start" x="1277" y="-234.5" font-family="Helvetica,sans-Serif" font-size="10.00"> AttackStateData stateData)</text>
<text text-anchor="start" x="1277" y="-223.5" font-family="Helvetica,sans-Serif" font-size="10.00">+ override void Enter()</text>
<text text-anchor="start" x="1277" y="-212.5" font-family="Helvetica,sans-Serif" font-size="10.00">+ override void Exit()</text>
<text text-anchor="start" x="1277" y="-201.5" font-family="Helvetica,sans-Serif" font-size="10.00">+ override void UpdateState()</text>
<text text-anchor="start" x="1277" y="-190.5" font-family="Helvetica,sans-Serif" font-size="10.00">+ override void UpdatePhysics()</text>
</a>
</g>
</g>
<!-- Node2&#45;&gt;Node1 -->
<g id="edge1" class="edge">
<title>Node2&#45;&gt;Node1</title>
<path fill="none" stroke="midnightblue" d="M1359,-173.01C1359,-163.94 1359,-154.71 1359,-145.72"/>
<polygon fill="none" stroke="midnightblue" points="1355.5,-173.15 1359,-183.15 1362.5,-173.15 1355.5,-173.15"/>
</g>
<!-- Node3 -->
<g id="node3" class="node">
<title>Node3</title>
<g id="a_node3"><a xlink:href="class_controllers_1_1_state_machine_1_1_state.html" target="_top" xlink:title="Clase base para los estados de cada personaje. Controla el ciclo de vida de cada estado (Enter,...">
<polygon fill="none" stroke="black" points="1189.5,-355.5 1189.5,-489.5 1334.5,-489.5 1334.5,-355.5 1189.5,-355.5"/>
<text text-anchor="middle" x="1262" y="-477.5" font-family="Helvetica,sans-Serif" font-size="10.00">State</text>
<polyline fill="none" stroke="black" points="1189.5,-470.5 1334.5,-470.5 "/>
<text text-anchor="middle" x="1262" y="-458.5" font-family="Helvetica,sans-Serif" font-size="10.00"> </text>
<polyline fill="none" stroke="black" points="1189.5,-451.5 1334.5,-451.5 "/>
<text text-anchor="start" x="1197.5" y="-439.5" font-family="Helvetica,sans-Serif" font-size="10.00">+ State(BaseController</text>
<text text-anchor="start" x="1197.5" y="-428.5" font-family="Helvetica,sans-Serif" font-size="10.00"> controller, ControllerState</text>
<text text-anchor="start" x="1197.5" y="-417.5" font-family="Helvetica,sans-Serif" font-size="10.00">Machine stateMachine, string</text>
<text text-anchor="start" x="1197.5" y="-406.5" font-family="Helvetica,sans-Serif" font-size="10.00"> animBoolName)</text>
<text text-anchor="start" x="1197.5" y="-395.5" font-family="Helvetica,sans-Serif" font-size="10.00">+ virtual void Enter()</text>
<text text-anchor="start" x="1197.5" y="-384.5" font-family="Helvetica,sans-Serif" font-size="10.00">+ virtual void Exit()</text>
<text text-anchor="start" x="1197.5" y="-373.5" font-family="Helvetica,sans-Serif" font-size="10.00">+ virtual void UpdateState()</text>
<text text-anchor="start" x="1197.5" y="-362.5" font-family="Helvetica,sans-Serif" font-size="10.00">+ virtual void UpdatePhysics()</text>
</a>
</g>
</g>
<!-- Node3&#45;&gt;Node2 -->
<g id="edge2" class="edge">
<title>Node3&#45;&gt;Node2</title>
<path fill="none" stroke="midnightblue" d="M1304.8,-346.49C1310.3,-336.84 1315.91,-327.02 1321.32,-317.53"/>
<polygon fill="none" stroke="midnightblue" points="1301.7,-344.87 1299.78,-355.29 1307.78,-348.34 1301.7,-344.87"/>
</g>
<!-- Node4 -->
<g id="node4" class="node">
<title>Node4</title>
<g id="a_node4"><a xlink:title=" ">
<polygon fill="none" stroke="#bfbfbf" points="622.5,-785 622.5,-842 663.5,-842 663.5,-785 622.5,-785"/>
<text text-anchor="middle" x="643" y="-830" font-family="Helvetica,sans-Serif" font-size="10.00">string</text>
<polyline fill="none" stroke="#bfbfbf" points="622.5,-823 663.5,-823 "/>
<text text-anchor="middle" x="643" y="-811" font-family="Helvetica,sans-Serif" font-size="10.00"> </text>
<polyline fill="none" stroke="#bfbfbf" points="622.5,-804 663.5,-804 "/>
<text text-anchor="middle" x="643" y="-792" font-family="Helvetica,sans-Serif" font-size="10.00"> </text>
</a>
</g>
</g>
<!-- Node4&#45;&gt;Node3 -->
<g id="edge3" class="edge">
<title>Node4&#45;&gt;Node3</title>
<path fill="none" stroke="#404040" d="M636.47,-784.78C625.3,-729.73 609.43,-606 673,-537 739.92,-464.37 1030.99,-437.06 1177.34,-427.78"/>
<polygon fill="none" stroke="#404040" points="1177.35,-427.78 1183.09,-423.42 1189.33,-427.04 1183.59,-431.4 1177.35,-427.78"/>
<text text-anchor="middle" x="748.5" y="-511" font-family="Helvetica,sans-Serif" font-size="10.00"> #animBoolName</text>
</g>
<!-- Node5 -->
<g id="node5" class="node">
<title>Node5</title>
<g id="a_node5"><a xlink:href="class_controllers_1_1_base_controller.html" target="_top" xlink:title=" ">
<polygon fill="none" stroke="black" points="681.5,-537.5 681.5,-1089.5 854.5,-1089.5 854.5,-537.5 681.5,-537.5"/>
<text text-anchor="middle" x="768" y="-1077.5" font-family="Helvetica,sans-Serif" font-size="10.00">Controllers.BaseController</text>
<polyline fill="none" stroke="black" points="681.5,-1070.5 854.5,-1070.5 "/>
<text text-anchor="start" x="689.5" y="-1058.5" font-family="Helvetica,sans-Serif" font-size="10.00">+ int FacingDirection</text>
<text text-anchor="start" x="689.5" y="-1047.5" font-family="Helvetica,sans-Serif" font-size="10.00">+ bool IsReadyToAttack</text>
<text text-anchor="start" x="689.5" y="-1036.5" font-family="Helvetica,sans-Serif" font-size="10.00">+ bool wallDetected</text>
<text text-anchor="start" x="689.5" y="-1025.5" font-family="Helvetica,sans-Serif" font-size="10.00">+ bool groundDetected</text>
<text text-anchor="start" x="689.5" y="-1014.5" font-family="Helvetica,sans-Serif" font-size="10.00">+ bool topDetected</text>
<polyline fill="none" stroke="black" points="681.5,-1007.5 854.5,-1007.5 "/>
<text text-anchor="start" x="689.5" y="-995.5" font-family="Helvetica,sans-Serif" font-size="10.00">+ void Flip()</text>
<text text-anchor="start" x="689.5" y="-984.5" font-family="Helvetica,sans-Serif" font-size="10.00">+ void SetVelocity(float</text>
<text text-anchor="start" x="689.5" y="-973.5" font-family="Helvetica,sans-Serif" font-size="10.00"> velocity)</text>
<text text-anchor="start" x="689.5" y="-962.5" font-family="Helvetica,sans-Serif" font-size="10.00">+ void AddForce(Vector2</text>
<text text-anchor="start" x="689.5" y="-951.5" font-family="Helvetica,sans-Serif" font-size="10.00"> newForce, bool isImpulse)</text>
<text text-anchor="start" x="689.5" y="-940.5" font-family="Helvetica,sans-Serif" font-size="10.00">+ void AddTorque(float</text>
<text text-anchor="start" x="689.5" y="-929.5" font-family="Helvetica,sans-Serif" font-size="10.00"> newTorque, bool isImpulse)</text>
<text text-anchor="start" x="689.5" y="-918.5" font-family="Helvetica,sans-Serif" font-size="10.00">+ T GetMovementController</text>
<text text-anchor="start" x="689.5" y="-907.5" font-family="Helvetica,sans-Serif" font-size="10.00">&lt; T &gt;()</text>
<text text-anchor="start" x="689.5" y="-896.5" font-family="Helvetica,sans-Serif" font-size="10.00">+ Animator GetAnimator()</text>
<text text-anchor="start" x="689.5" y="-885.5" font-family="Helvetica,sans-Serif" font-size="10.00">+ Transform GetTransfrom()</text>
<text text-anchor="start" x="689.5" y="-874.5" font-family="Helvetica,sans-Serif" font-size="10.00">+ GameObject GetDialogueBubble()</text>
<text text-anchor="start" x="689.5" y="-863.5" font-family="Helvetica,sans-Serif" font-size="10.00">+ bool CheckWall()</text>
<text text-anchor="start" x="689.5" y="-852.5" font-family="Helvetica,sans-Serif" font-size="10.00">+ bool CheckLedge()</text>
<text text-anchor="start" x="689.5" y="-841.5" font-family="Helvetica,sans-Serif" font-size="10.00">+ bool CheckGround()</text>
<text text-anchor="start" x="689.5" y="-830.5" font-family="Helvetica,sans-Serif" font-size="10.00">+ bool CheckPlayerInRange()</text>
<text text-anchor="start" x="689.5" y="-819.5" font-family="Helvetica,sans-Serif" font-size="10.00">+ void SwitchStates(ECharacter</text>
<text text-anchor="start" x="689.5" y="-808.5" font-family="Helvetica,sans-Serif" font-size="10.00">State nextState)</text>
<text text-anchor="start" x="689.5" y="-797.5" font-family="Helvetica,sans-Serif" font-size="10.00">+ void Anim_PreparingAttack</text>
<text text-anchor="start" x="689.5" y="-786.5" font-family="Helvetica,sans-Serif" font-size="10.00">Finished()</text>
<text text-anchor="start" x="689.5" y="-775.5" font-family="Helvetica,sans-Serif" font-size="10.00">+ virtual void Damage</text>
<text text-anchor="start" x="689.5" y="-764.5" font-family="Helvetica,sans-Serif" font-size="10.00">(float amount, int attackN)</text>
<text text-anchor="start" x="689.5" y="-753.5" font-family="Helvetica,sans-Serif" font-size="10.00">+ void Damage(BaseController</text>
<text text-anchor="start" x="689.5" y="-742.5" font-family="Helvetica,sans-Serif" font-size="10.00"> controller, DamageInfo</text>
<text text-anchor="start" x="689.5" y="-731.5" font-family="Helvetica,sans-Serif" font-size="10.00"> damageInfo)</text>
<text text-anchor="start" x="689.5" y="-720.5" font-family="Helvetica,sans-Serif" font-size="10.00">+ void Kill()</text>
<text text-anchor="start" x="689.5" y="-709.5" font-family="Helvetica,sans-Serif" font-size="10.00">+ bool Interact(BaseController</text>
<text text-anchor="start" x="689.5" y="-698.5" font-family="Helvetica,sans-Serif" font-size="10.00"> controller, EInteractionKind</text>
<text text-anchor="start" x="689.5" y="-687.5" font-family="Helvetica,sans-Serif" font-size="10.00"> interactionKind)</text>
<text text-anchor="start" x="689.5" y="-676.5" font-family="Helvetica,sans-Serif" font-size="10.00">+ bool Interact(PlayerController</text>
<text text-anchor="start" x="689.5" y="-665.5" font-family="Helvetica,sans-Serif" font-size="10.00"> controller, EInteractionKind</text>
<text text-anchor="start" x="689.5" y="-654.5" font-family="Helvetica,sans-Serif" font-size="10.00"> interactionKind)</text>
<text text-anchor="start" x="689.5" y="-643.5" font-family="Helvetica,sans-Serif" font-size="10.00">+ void ReadyToInteract</text>
<text text-anchor="start" x="689.5" y="-632.5" font-family="Helvetica,sans-Serif" font-size="10.00">(PlayerController controller,</text>
<text text-anchor="start" x="689.5" y="-621.5" font-family="Helvetica,sans-Serif" font-size="10.00"> bool isReady)</text>
<text text-anchor="start" x="689.5" y="-610.5" font-family="Helvetica,sans-Serif" font-size="10.00">+ void ReadyToInteract</text>
<text text-anchor="start" x="689.5" y="-599.5" font-family="Helvetica,sans-Serif" font-size="10.00">(BaseController controller,</text>
<text text-anchor="start" x="689.5" y="-588.5" font-family="Helvetica,sans-Serif" font-size="10.00"> bool isReady)</text>
<text text-anchor="start" x="689.5" y="-577.5" font-family="Helvetica,sans-Serif" font-size="10.00"># virtual void Start()</text>
<text text-anchor="start" x="689.5" y="-566.5" font-family="Helvetica,sans-Serif" font-size="10.00"># virtual void OnDrawGizmos()</text>
<text text-anchor="start" x="689.5" y="-555.5" font-family="Helvetica,sans-Serif" font-size="10.00"># virtual void OnEnterDead</text>
<text text-anchor="start" x="689.5" y="-544.5" font-family="Helvetica,sans-Serif" font-size="10.00">StateStart()</text>
</a>
</g>
</g>
<!-- Node5&#45;&gt;Node3 -->
<g id="edge4" class="edge">
<title>Node5&#45;&gt;Node3</title>
<path fill="none" stroke="#404040" d="M854.61,-744.3C946.19,-672.18 1089.59,-559.27 1179.55,-488.42"/>
<polygon fill="none" stroke="#404040" points="1179.74,-488.28 1181.98,-481.42 1189.17,-480.85 1186.93,-487.71 1179.74,-488.28"/>
<text text-anchor="middle" x="1166.5" y="-511" font-family="Helvetica,sans-Serif" font-size="10.00"> #controller</text>
</g>
<!-- Node6 -->
<g id="node6" class="node">
<title>Node6</title>
<g id="a_node6"><a xlink:href="interface_controllers_1_1_i_damageable.html" target="_top" xlink:title="Interfaz para todos los NPCs/Enemigos/Objetos que pueden ser daniados.">
<polygon fill="none" stroke="black" points="284,-1462.5 284,-1574.5 432,-1574.5 432,-1462.5 284,-1462.5"/>
<text text-anchor="middle" x="358" y="-1562.5" font-family="Helvetica,sans-Serif" font-size="10.00">IDamageable</text>
<polyline fill="none" stroke="black" points="284,-1555.5 432,-1555.5 "/>
<text text-anchor="middle" x="358" y="-1543.5" font-family="Helvetica,sans-Serif" font-size="10.00"> </text>
<polyline fill="none" stroke="black" points="284,-1536.5 432,-1536.5 "/>
<text text-anchor="start" x="292" y="-1524.5" font-family="Helvetica,sans-Serif" font-size="10.00">+ void Damage(float amount,</text>
<text text-anchor="start" x="292" y="-1513.5" font-family="Helvetica,sans-Serif" font-size="10.00"> int attackN)</text>
<text text-anchor="start" x="292" y="-1502.5" font-family="Helvetica,sans-Serif" font-size="10.00">+ void Damage(BaseController</text>
<text text-anchor="start" x="292" y="-1491.5" font-family="Helvetica,sans-Serif" font-size="10.00"> controller, DamageInfo</text>
<text text-anchor="start" x="292" y="-1480.5" font-family="Helvetica,sans-Serif" font-size="10.00"> damageInfo)</text>
<text text-anchor="start" x="292" y="-1469.5" font-family="Helvetica,sans-Serif" font-size="10.00">+ void Kill()</text>
</a>
</g>
</g>
<!-- Node6&#45;&gt;Node5 -->
<g id="edge5" class="edge">
<title>Node6&#45;&gt;Node5</title>
<path fill="none" stroke="midnightblue" d="M277.52,-1455.22C253.35,-1431.73 229.86,-1402.9 217,-1371 178.12,-1274.54 152.02,-1218.2 217,-1137 253.71,-1091.12 287.79,-1116.09 346,-1108 382.04,-1102.99 643.96,-1111.93 673,-1090 675.83,-1087.87 678.57,-1085.64 681.23,-1083.34"/>
<polygon fill="none" stroke="midnightblue" points="275.36,-1458 285.03,-1462.33 280.17,-1452.92 275.36,-1458"/>
</g>
<!-- Node19 -->
<g id="node19" class="node">
<title>Node19</title>
<g id="a_node19"><a xlink:href="class_player_1_1_player_controller.html" target="_top" xlink:title=" ">
<polygon fill="none" stroke="black" points="498,-1137.5 498,-1370.5 646,-1370.5 646,-1137.5 498,-1137.5"/>
<text text-anchor="middle" x="572" y="-1358.5" font-family="Helvetica,sans-Serif" font-size="10.00">Player.PlayerController</text>
<polyline fill="none" stroke="black" points="498,-1351.5 646,-1351.5 "/>
<text text-anchor="middle" x="572" y="-1339.5" font-family="Helvetica,sans-Serif" font-size="10.00"> </text>
<polyline fill="none" stroke="black" points="498,-1332.5 646,-1332.5 "/>
<text text-anchor="start" x="506" y="-1320.5" font-family="Helvetica,sans-Serif" font-size="10.00">+ void Damage(float amount,</text>
<text text-anchor="start" x="506" y="-1309.5" font-family="Helvetica,sans-Serif" font-size="10.00"> int attackN)</text>
<text text-anchor="start" x="506" y="-1298.5" font-family="Helvetica,sans-Serif" font-size="10.00">+ void Damage(BaseController</text>
<text text-anchor="start" x="506" y="-1287.5" font-family="Helvetica,sans-Serif" font-size="10.00"> controller, DamageInfo</text>
<text text-anchor="start" x="506" y="-1276.5" font-family="Helvetica,sans-Serif" font-size="10.00"> damageInfo)</text>
<text text-anchor="start" x="506" y="-1265.5" font-family="Helvetica,sans-Serif" font-size="10.00">+ void Kill()</text>
<text text-anchor="start" x="506" y="-1254.5" font-family="Helvetica,sans-Serif" font-size="10.00">+ void EnterInteractionMode()</text>
<text text-anchor="start" x="506" y="-1243.5" font-family="Helvetica,sans-Serif" font-size="10.00">+ int GetFacingDirection()</text>
<text text-anchor="start" x="506" y="-1232.5" font-family="Helvetica,sans-Serif" font-size="10.00">+ void LandEvt()</text>
<text text-anchor="start" x="506" y="-1221.5" font-family="Helvetica,sans-Serif" font-size="10.00">+ void OnAirEvt()</text>
<text text-anchor="start" x="506" y="-1210.5" font-family="Helvetica,sans-Serif" font-size="10.00">+ bool IsFacingRight()</text>
<text text-anchor="start" x="506" y="-1199.5" font-family="Helvetica,sans-Serif" font-size="10.00">+ void AnimStartPrayingEvt()</text>
<text text-anchor="start" x="506" y="-1188.5" font-family="Helvetica,sans-Serif" font-size="10.00">+ void AnimRollEndEvt()</text>
<text text-anchor="start" x="506" y="-1177.5" font-family="Helvetica,sans-Serif" font-size="10.00">+ void AnimFootStep1Evt()</text>
<text text-anchor="start" x="506" y="-1166.5" font-family="Helvetica,sans-Serif" font-size="10.00">+ void AnimFootStep2Evt()</text>
<text text-anchor="start" x="506" y="-1155.5" font-family="Helvetica,sans-Serif" font-size="10.00">~ void OnEnable()</text>
<text text-anchor="start" x="506" y="-1144.5" font-family="Helvetica,sans-Serif" font-size="10.00">~ void OnDisable()</text>
</a>
</g>
</g>
<!-- Node6&#45;&gt;Node19 -->
<g id="edge19" class="edge">
<title>Node6&#45;&gt;Node19</title>
<path fill="none" stroke="midnightblue" d="M416.61,-1454.98C439.8,-1429.47 466.29,-1399.36 489,-1371 491.94,-1367.33 494.9,-1363.56 497.87,-1359.74"/>
<polygon fill="none" stroke="midnightblue" points="414.01,-1452.64 409.85,-1462.39 419.18,-1457.36 414.01,-1452.64"/>
</g>
<!-- Node7 -->
<g id="node7" class="node">
<title>Node7</title>
<g id="a_node7"><a xlink:href="interface_interactions_1_1_interfaces_1_1_i_interactive.html" target="_top" xlink:title=" ">
<polygon fill="none" stroke="black" points="328.5,-1165 328.5,-1343 479.5,-1343 479.5,-1165 328.5,-1165"/>
<text text-anchor="middle" x="404" y="-1331" font-family="Helvetica,sans-Serif" font-size="10.00">IInteractive</text>
<polyline fill="none" stroke="black" points="328.5,-1324 479.5,-1324 "/>
<text text-anchor="middle" x="404" y="-1312" font-family="Helvetica,sans-Serif" font-size="10.00"> </text>
<polyline fill="none" stroke="black" points="328.5,-1305 479.5,-1305 "/>
<text text-anchor="start" x="336.5" y="-1293" font-family="Helvetica,sans-Serif" font-size="10.00">+ bool Interact(BaseController</text>
<text text-anchor="start" x="336.5" y="-1282" font-family="Helvetica,sans-Serif" font-size="10.00"> controller, EInteractionKind</text>
<text text-anchor="start" x="336.5" y="-1271" font-family="Helvetica,sans-Serif" font-size="10.00"> interactionKind)</text>
<text text-anchor="start" x="336.5" y="-1260" font-family="Helvetica,sans-Serif" font-size="10.00">+ bool Interact(PlayerController</text>
<text text-anchor="start" x="336.5" y="-1249" font-family="Helvetica,sans-Serif" font-size="10.00"> controller, EInteractionKind</text>
<text text-anchor="start" x="336.5" y="-1238" font-family="Helvetica,sans-Serif" font-size="10.00"> interactionKind)</text>
<text text-anchor="start" x="336.5" y="-1227" font-family="Helvetica,sans-Serif" font-size="10.00">+ void ReadyToInteract</text>
<text text-anchor="start" x="336.5" y="-1216" font-family="Helvetica,sans-Serif" font-size="10.00">(PlayerController controller,</text>
<text text-anchor="start" x="336.5" y="-1205" font-family="Helvetica,sans-Serif" font-size="10.00"> bool isReady)</text>
<text text-anchor="start" x="336.5" y="-1194" font-family="Helvetica,sans-Serif" font-size="10.00">+ void ReadyToInteract</text>
<text text-anchor="start" x="336.5" y="-1183" font-family="Helvetica,sans-Serif" font-size="10.00">(BaseController controller,</text>
<text text-anchor="start" x="336.5" y="-1172" font-family="Helvetica,sans-Serif" font-size="10.00"> bool isReady)</text>
</a>
</g>
</g>
<!-- Node7&#45;&gt;Node5 -->
<g id="edge6" class="edge">
<title>Node7&#45;&gt;Node5</title>
<path fill="none" stroke="midnightblue" d="M465.08,-1157.24C472.48,-1149.69 480.47,-1142.77 489,-1137 497.74,-1131.09 665.24,-1097.15 673,-1090 675.88,-1087.34 678.68,-1084.6 681.39,-1081.76"/>
<polygon fill="none" stroke="midnightblue" points="462.12,-1155.28 457.87,-1164.98 467.25,-1160.04 462.12,-1155.28"/>
</g>
<!-- Node8 -->
<g id="node8" class="node">
<title>Node8</title>
<g id="a_node8"><a xlink:title=" ">
<polygon fill="none" stroke="#bfbfbf" points="664.5,-1225.5 664.5,-1282.5 735.5,-1282.5 735.5,-1225.5 664.5,-1225.5"/>
<text text-anchor="middle" x="700" y="-1270.5" font-family="Helvetica,sans-Serif" font-size="10.00">Rigidbody2D</text>
<polyline fill="none" stroke="#bfbfbf" points="664.5,-1263.5 735.5,-1263.5 "/>
<text text-anchor="middle" x="700" y="-1251.5" font-family="Helvetica,sans-Serif" font-size="10.00"> </text>
<polyline fill="none" stroke="#bfbfbf" points="664.5,-1244.5 735.5,-1244.5 "/>
<text text-anchor="middle" x="700" y="-1232.5" font-family="Helvetica,sans-Serif" font-size="10.00"> </text>
</a>
</g>
</g>
<!-- Node8&#45;&gt;Node5 -->
<g id="edge7" class="edge">
<title>Node8&#45;&gt;Node5</title>
<path fill="none" stroke="#404040" d="M699.23,-1225.36C698.78,-1196.1 699.05,-1148.62 704,-1108 704.25,-1105.91 704.52,-1103.81 704.79,-1101.71"/>
<polygon fill="none" stroke="#404040" points="704.82,-1101.48 701.65,-1095 706.41,-1089.59 709.58,-1096.07 704.82,-1101.48"/>
<text text-anchor="middle" x="734" y="-1111" font-family="Helvetica,sans-Serif" font-size="10.00"> #rigidbody2D</text>
</g>
<!-- Node9 -->
<g id="node9" class="node">
<title>Node9</title>
<g id="a_node9"><a xlink:title=" ">
<polygon fill="none" stroke="#bfbfbf" points="754,-1225.5 754,-1282.5 810,-1282.5 810,-1225.5 754,-1225.5"/>
<text text-anchor="middle" x="782" y="-1270.5" font-family="Helvetica,sans-Serif" font-size="10.00">Animator</text>
<polyline fill="none" stroke="#bfbfbf" points="754,-1263.5 810,-1263.5 "/>
<text text-anchor="middle" x="782" y="-1251.5" font-family="Helvetica,sans-Serif" font-size="10.00"> </text>
<polyline fill="none" stroke="#bfbfbf" points="754,-1244.5 810,-1244.5 "/>
<text text-anchor="middle" x="782" y="-1232.5" font-family="Helvetica,sans-Serif" font-size="10.00"> </text>
</a>
</g>
</g>
<!-- Node9&#45;&gt;Node5 -->
<g id="edge8" class="edge">
<title>Node9&#45;&gt;Node5</title>
<path fill="none" stroke="#404040" d="M778.55,-1225.34C775.37,-1198.28 770.85,-1155.88 769,-1119 768.71,-1113.28 768.45,-1107.5 768.21,-1101.67"/>
<polygon fill="none" stroke="#404040" points="768.21,-1101.64 763.97,-1095.8 767.74,-1089.65 771.97,-1095.48 768.21,-1101.64"/>
<text text-anchor="middle" x="813" y="-1111" font-family="Helvetica,sans-Serif" font-size="10.00"> #characterAnimator</text>
</g>
<!-- Node10 -->
<g id="node10" class="node">
<title>Node10</title>
<g id="a_node10"><a xlink:href="class_controllers_1_1_state_machine_1_1_states_1_1_data_1_1_controller_data.html" target="_top" xlink:title=" ">
<polygon fill="none" stroke="black" points="1048.5,-1220 1048.5,-1288 1181.5,-1288 1181.5,-1220 1048.5,-1220"/>
<text text-anchor="start" x="1056.5" y="-1276" font-family="Helvetica,sans-Serif" font-size="10.00">Controllers.StateMachine.</text>
<text text-anchor="middle" x="1115" y="-1265" font-family="Helvetica,sans-Serif" font-size="10.00">States.Data.ControllerData</text>
<polyline fill="none" stroke="black" points="1048.5,-1258 1181.5,-1258 "/>
<text text-anchor="middle" x="1115" y="-1246" font-family="Helvetica,sans-Serif" font-size="10.00"> </text>
<polyline fill="none" stroke="black" points="1048.5,-1239 1181.5,-1239 "/>
<text text-anchor="middle" x="1115" y="-1227" font-family="Helvetica,sans-Serif" font-size="10.00"> </text>
</a>
</g>
</g>
<!-- Node10&#45;&gt;Node5 -->
<g id="edge9" class="edge">
<title>Node10&#45;&gt;Node5</title>
<path fill="none" stroke="#404040" d="M1095.06,-1219.75C1080.54,-1196.15 1059.98,-1163.98 1040,-1137 984.45,-1061.97 916.79,-981.71 862.85,-920.02"/>
<polygon fill="none" stroke="#404040" points="862.56,-919.7 855.6,-917.82 854.65,-910.68 861.62,-912.55 862.56,-919.7"/>
<text text-anchor="middle" x="1047.5" y="-1111" font-family="Helvetica,sans-Serif" font-size="10.00"> +ctrlData</text>
</g>
<!-- Node11 -->
<g id="node11" class="node">
<title>Node11</title>
<g id="a_node11"><a xlink:href="class_scriptable_object.html" target="_top" xlink:title=" ">
<polygon fill="none" stroke="black" points="1416.5,-1490 1416.5,-1547 1505.5,-1547 1505.5,-1490 1416.5,-1490"/>
<text text-anchor="middle" x="1461" y="-1535" font-family="Helvetica,sans-Serif" font-size="10.00">ScriptableObject</text>
<polyline fill="none" stroke="black" points="1416.5,-1528 1505.5,-1528 "/>
<text text-anchor="middle" x="1461" y="-1516" font-family="Helvetica,sans-Serif" font-size="10.00"> </text>
<polyline fill="none" stroke="black" points="1416.5,-1509 1505.5,-1509 "/>
<text text-anchor="middle" x="1461" y="-1497" font-family="Helvetica,sans-Serif" font-size="10.00"> </text>
</a>
</g>
</g>
<!-- Node11&#45;&gt;Node10 -->
<g id="edge10" class="edge">
<title>Node11&#45;&gt;Node10</title>
<path fill="none" stroke="midnightblue" d="M1464.53,-1479.45C1464.95,-1450.18 1460.09,-1411.12 1435,-1389 1394.21,-1353.05 1237.85,-1398.59 1191,-1371 1159.67,-1352.55 1138.86,-1315.51 1127.06,-1288.22"/>
<polygon fill="none" stroke="midnightblue" points="1461.02,-1479.63 1464.16,-1489.75 1468.01,-1479.88 1461.02,-1479.63"/>
</g>
<!-- Node20 -->
<g id="node20" class="node">
<title>Node20</title>
<g id="a_node20"><a xlink:href="class_controllers_1_1_state_machine_1_1_states_1_1_data_1_1_attack_state_data.html" target="_top" xlink:title=" ">
<polygon fill="none" stroke="black" points="1385.5,-1220 1385.5,-1288 1528.5,-1288 1528.5,-1220 1385.5,-1220"/>
<text text-anchor="start" x="1393.5" y="-1276" font-family="Helvetica,sans-Serif" font-size="10.00">Controllers.StateMachine.</text>
<text text-anchor="middle" x="1457" y="-1265" font-family="Helvetica,sans-Serif" font-size="10.00">States.Data.AttackStateData</text>
<polyline fill="none" stroke="black" points="1385.5,-1258 1528.5,-1258 "/>
<text text-anchor="middle" x="1457" y="-1246" font-family="Helvetica,sans-Serif" font-size="10.00"> </text>
<polyline fill="none" stroke="black" points="1385.5,-1239 1528.5,-1239 "/>
<text text-anchor="middle" x="1457" y="-1227" font-family="Helvetica,sans-Serif" font-size="10.00"> </text>
</a>
</g>
</g>
<!-- Node11&#45;&gt;Node20 -->
<g id="edge25" class="edge">
<title>Node11&#45;&gt;Node20</title>
<path fill="none" stroke="midnightblue" d="M1460.85,-1479.89C1460.72,-1454.27 1460.46,-1419.59 1460,-1389 1459.48,-1354.56 1458.56,-1315.16 1457.87,-1288.04"/>
<polygon fill="none" stroke="midnightblue" points="1457.35,-1479.94 1460.9,-1489.93 1464.35,-1479.91 1457.35,-1479.94"/>
</g>
<!-- Node12 -->
<g id="node12" class="node">
<title>Node12</title>
<g id="a_node12"><a xlink:title=" ">
<polygon fill="none" stroke="#bfbfbf" points="1275.5,-1490 1275.5,-1547 1310.5,-1547 1310.5,-1490 1275.5,-1490"/>
<text text-anchor="middle" x="1293" y="-1535" font-family="Helvetica,sans-Serif" font-size="10.00">float</text>
<polyline fill="none" stroke="#bfbfbf" points="1275.5,-1528 1310.5,-1528 "/>
<text text-anchor="middle" x="1293" y="-1516" font-family="Helvetica,sans-Serif" font-size="10.00"> </text>
<polyline fill="none" stroke="#bfbfbf" points="1275.5,-1509 1310.5,-1509 "/>
<text text-anchor="middle" x="1293" y="-1497" font-family="Helvetica,sans-Serif" font-size="10.00"> </text>
</a>
</g>
</g>
<!-- Node12&#45;&gt;Node3 -->
<g id="edge22" class="edge">
<title>Node12&#45;&gt;Node3</title>
<path fill="none" stroke="#404040" d="M1310.58,-1498.62C1322.28,-1484.7 1336.64,-1464.65 1343,-1444 1350.19,-1420.64 1343.13,-1413.44 1343,-1389 1341,-1010.32 1441.54,-900.1 1334,-537 1330.3,-524.49 1324.78,-512.04 1318.41,-500.21"/>
<polygon fill="none" stroke="#404040" points="1318.28,-499.97 1311.84,-496.73 1312.36,-489.54 1318.8,-492.78 1318.28,-499.97"/>
<text text-anchor="middle" x="1383.5" y="-1111" font-family="Helvetica,sans-Serif" font-size="10.00"> #startTime</text>
</g>
<!-- Node12&#45;&gt;Node10 -->
<g id="edge11" class="edge">
<title>Node12&#45;&gt;Node10</title>
<path fill="none" stroke="#404040" d="M1275.26,-1499.68C1261.83,-1485.49 1243.62,-1464.66 1231,-1444 1217.19,-1421.39 1222.44,-1411.21 1208,-1389 1202,-1379.77 1197.82,-1379.64 1191,-1371 1172.84,-1348 1154.76,-1320.65 1140.8,-1298.28"/>
<polygon fill="none" stroke="#404040" points="1140.8,-1298.28 1134.24,-1295.27 1134.49,-1288.07 1141.05,-1291.07 1140.8,-1298.28"/>
<text text-anchor="middle" x="1287" y="-1436" font-family="Helvetica,sans-Serif" font-size="10.00"> +groundCheckDistance</text>
<text text-anchor="middle" x="1287" y="-1425" font-family="Helvetica,sans-Serif" font-size="10.00">+ledgeCheckDistacne</text>
<text text-anchor="middle" x="1287" y="-1414" font-family="Helvetica,sans-Serif" font-size="10.00">+playerDetectionDistance</text>
<text text-anchor="middle" x="1287" y="-1403" font-family="Helvetica,sans-Serif" font-size="10.00">+topCheckDistance</text>
<text text-anchor="middle" x="1287" y="-1392" font-family="Helvetica,sans-Serif" font-size="10.00">+wallCheckDistance</text>
</g>
<!-- Node12&#45;&gt;Node19 -->
<g id="edge20" class="edge">
<title>Node12&#45;&gt;Node19</title>
<path fill="none" stroke="#404040" d="M1275.34,-1514.85C1240.67,-1508.72 1163.3,-1490.41 1120,-1444 1102.36,-1425.09 1121.75,-1404.43 1101,-1389 1063.46,-1361.09 738.21,-1390.76 657.56,-1369.23"/>
<polygon fill="none" stroke="#404040" points="657.36,-1369.15 650.34,-1370.8 646.12,-1364.95 653.14,-1363.31 657.36,-1369.15"/>
<text text-anchor="middle" x="1162" y="-1414" font-family="Helvetica,sans-Serif" font-size="10.00"> #interactionRadius</text>
</g>
<!-- Node12&#45;&gt;Node20 -->
<g id="edge26" class="edge">
<title>Node12&#45;&gt;Node20</title>
<path fill="none" stroke="#404040" d="M1310.54,-1503.49C1326.97,-1489.69 1351.42,-1467.33 1368,-1444 1400.24,-1398.62 1425.82,-1339.72 1441.13,-1299.82"/>
<polygon fill="none" stroke="#404040" points="1441.22,-1299.57 1439.59,-1292.54 1445.45,-1288.34 1447.08,-1295.36 1441.22,-1299.57"/>
<text text-anchor="middle" x="1422" y="-1419.5" font-family="Helvetica,sans-Serif" font-size="10.00"> +damage</text>
<text text-anchor="middle" x="1422" y="-1408.5" font-family="Helvetica,sans-Serif" font-size="10.00">+duration</text>
</g>
<!-- Node13 -->
<g id="node13" class="node">
<title>Node13</title>
<g id="a_node13"><a xlink:title=" ">
<polygon fill="none" stroke="#bfbfbf" points="998.5,-1490 998.5,-1547 1063.5,-1547 1063.5,-1490 998.5,-1490"/>
<text text-anchor="middle" x="1031" y="-1535" font-family="Helvetica,sans-Serif" font-size="10.00">LayerMask</text>
<polyline fill="none" stroke="#bfbfbf" points="998.5,-1528 1063.5,-1528 "/>
<text text-anchor="middle" x="1031" y="-1516" font-family="Helvetica,sans-Serif" font-size="10.00"> </text>
<polyline fill="none" stroke="#bfbfbf" points="998.5,-1509 1063.5,-1509 "/>
<text text-anchor="middle" x="1031" y="-1497" font-family="Helvetica,sans-Serif" font-size="10.00"> </text>
</a>
</g>
</g>
<!-- Node13&#45;&gt;Node10 -->
<g id="edge12" class="edge">
<title>Node13&#45;&gt;Node10</title>
<path fill="none" stroke="#404040" d="M1026.97,-1489.81C1024.11,-1463.36 1022.28,-1422.65 1032,-1389 1034.89,-1378.98 1063.78,-1333.37 1086.67,-1298.12"/>
<polygon fill="none" stroke="#404040" points="1086.69,-1298.08 1086.61,-1290.87 1093.24,-1288.02 1093.32,-1295.23 1086.69,-1298.08"/>
<text text-anchor="middle" x="1066.5" y="-1414" font-family="Helvetica,sans-Serif" font-size="10.00"> +whatIsGround</text>
</g>
<!-- Node14 -->
<g id="node14" class="node">
<title>Node14</title>
<g id="a_node14"><a xlink:title=" ">
<polygon fill="none" stroke="#bfbfbf" points="967.5,-1225.5 967.5,-1282.5 1030.5,-1282.5 1030.5,-1225.5 967.5,-1225.5"/>
<text text-anchor="middle" x="999" y="-1270.5" font-family="Helvetica,sans-Serif" font-size="10.00">UnityEvent</text>
<polyline fill="none" stroke="#bfbfbf" points="967.5,-1263.5 1030.5,-1263.5 "/>
<text text-anchor="middle" x="999" y="-1251.5" font-family="Helvetica,sans-Serif" font-size="10.00"> </text>
<polyline fill="none" stroke="#bfbfbf" points="967.5,-1244.5 1030.5,-1244.5 "/>
<text text-anchor="middle" x="999" y="-1232.5" font-family="Helvetica,sans-Serif" font-size="10.00"> </text>
</a>
</g>
</g>
<!-- Node14&#45;&gt;Node5 -->
<g id="edge13" class="edge">
<title>Node14&#45;&gt;Node5</title>
<path fill="none" stroke="#404040" d="M989.3,-1225.34C980.66,-1201.53 967.2,-1166.47 953,-1137 925.48,-1079.9 891.85,-1019.15 860.84,-965.95"/>
<polygon fill="none" stroke="#404040" points="860.74,-965.78 854.26,-962.62 854.68,-955.42 861.16,-958.58 860.74,-965.78"/>
<text text-anchor="middle" x="972.5" y="-1111" font-family="Helvetica,sans-Serif" font-size="10.00"> +OnLandEvent</text>
</g>
<!-- Node15 -->
<g id="node15" class="node">
<title>Node15</title>
<g id="a_node15"><a xlink:href="class_controllers_1_1_movement_1_1_base_movement_controller.html" target="_top" xlink:title=" ">
<polygon fill="none" stroke="black" points="0,-1220 0,-1288 136,-1288 136,-1220 0,-1220"/>
<text text-anchor="start" x="8" y="-1276" font-family="Helvetica,sans-Serif" font-size="10.00">Controllers.Movement.Base</text>
<text text-anchor="middle" x="68" y="-1265" font-family="Helvetica,sans-Serif" font-size="10.00">MovementController</text>
<polyline fill="none" stroke="black" points="0,-1258 136,-1258 "/>
<text text-anchor="middle" x="68" y="-1246" font-family="Helvetica,sans-Serif" font-size="10.00"> </text>
<polyline fill="none" stroke="black" points="0,-1239 136,-1239 "/>
<text text-anchor="middle" x="68" y="-1227" font-family="Helvetica,sans-Serif" font-size="10.00"> </text>
</a>
</g>
</g>
<!-- Node15&#45;&gt;Node5 -->
<g id="edge14" class="edge">
<title>Node15&#45;&gt;Node5</title>
<path fill="none" stroke="#404040" d="M56.61,-1219.89C47.58,-1186.86 40.67,-1136.99 69,-1108 113.87,-1062.09 575.59,-1123.88 670.6,-1088.89"/>
<polygon fill="none" stroke="#404040" points="670.62,-1088.89 674.14,-1082.6 681.31,-1083.44 677.78,-1089.73 670.62,-1088.89"/>
<text text-anchor="middle" x="126.5" y="-1111" font-family="Helvetica,sans-Serif" font-size="10.00"> #baseMovementController</text>
</g>
<!-- Node16 -->
<g id="node16" class="node">
<title>Node16</title>
<g id="a_node16"><a xlink:href="class_controllers_1_1_state_machine_1_1_controller_state_machine.html" target="_top" xlink:title="Controla el estado de un enemigo o NPC, desde que spawnea hasta que muere. Casi todos los metodos son...">
<polygon fill="none" stroke="black" points="1199.5,-1203.5 1199.5,-1304.5 1328.5,-1304.5 1328.5,-1203.5 1199.5,-1203.5"/>
<text text-anchor="start" x="1207.5" y="-1292.5" font-family="Helvetica,sans-Serif" font-size="10.00">Controllers.StateMachine.</text>
<text text-anchor="middle" x="1264" y="-1281.5" font-family="Helvetica,sans-Serif" font-size="10.00">ControllerStateMachine</text>
<polyline fill="none" stroke="black" points="1199.5,-1274.5 1328.5,-1274.5 "/>
<text text-anchor="start" x="1207.5" y="-1262.5" font-family="Helvetica,sans-Serif" font-size="10.00">+ State CurrentState</text>
<polyline fill="none" stroke="black" points="1199.5,-1255.5 1328.5,-1255.5 "/>
<text text-anchor="start" x="1207.5" y="-1243.5" font-family="Helvetica,sans-Serif" font-size="10.00">+ void Initialize(State</text>
<text text-anchor="start" x="1207.5" y="-1232.5" font-family="Helvetica,sans-Serif" font-size="10.00"> startState)</text>
<text text-anchor="start" x="1207.5" y="-1221.5" font-family="Helvetica,sans-Serif" font-size="10.00">+ void ChangeState(State</text>
<text text-anchor="start" x="1207.5" y="-1210.5" font-family="Helvetica,sans-Serif" font-size="10.00"> nextState)</text>
</a>
</g>
</g>
<!-- Node16&#45;&gt;Node3 -->
<g id="edge23" class="edge">
<title>Node16&#45;&gt;Node3</title>
<path fill="none" stroke="#404040" d="M1263.88,-1203.29C1263.54,-1064.25 1262.6,-670.55 1262.19,-501.83"/>
<polygon fill="none" stroke="#404040" points="1262.19,-501.6 1258.17,-495.6 1262.16,-489.6 1266.17,-495.59 1262.19,-501.6"/>
<text text-anchor="middle" x="1296.5" y="-811" font-family="Helvetica,sans-Serif" font-size="10.00"> #stateMachine</text>
</g>
<!-- Node16&#45;&gt;Node5 -->
<g id="edge15" class="edge">
<title>Node16&#45;&gt;Node5</title>
<path fill="none" stroke="#404040" d="M1238.1,-1203.43C1225.49,-1181.77 1209.14,-1156.85 1191,-1137 1093.21,-1030.02 956.33,-933 865.05,-873.93"/>
<polygon fill="none" stroke="#404040" points="864.8,-873.77 857.59,-873.88 854.71,-867.27 861.92,-867.16 864.8,-873.77"/>
<text text-anchor="middle" x="1206" y="-1111" font-family="Helvetica,sans-Serif" font-size="10.00"> +StateMachine</text>
</g>
<!-- Node17 -->
<g id="node17" class="node">
<title>Node17</title>
<g id="a_node17"><a xlink:title=" ">
<polygon fill="none" stroke="#bfbfbf" points="226,-1225.5 226,-1282.5 310,-1282.5 310,-1225.5 226,-1225.5"/>
<text text-anchor="middle" x="268" y="-1270.5" font-family="Helvetica,sans-Serif" font-size="10.00">EControllerKind</text>
<polyline fill="none" stroke="#bfbfbf" points="226,-1263.5 310,-1263.5 "/>
<text text-anchor="middle" x="268" y="-1251.5" font-family="Helvetica,sans-Serif" font-size="10.00"> </text>
<polyline fill="none" stroke="#bfbfbf" points="226,-1244.5 310,-1244.5 "/>
<text text-anchor="middle" x="268" y="-1232.5" font-family="Helvetica,sans-Serif" font-size="10.00"> </text>
</a>
</g>
</g>
<!-- Node17&#45;&gt;Node5 -->
<g id="edge16" class="edge">
<title>Node17&#45;&gt;Node5</title>
<path fill="none" stroke="#404040" d="M272.69,-1225.43C278.77,-1198.55 292.11,-1158.65 320,-1137 379.85,-1090.53 412.91,-1118.12 488,-1108 525.9,-1102.89 624.39,-1113.74 671.18,-1089.46"/>
<polygon fill="none" stroke="#404040" points="671.28,-1089.39 674.17,-1082.79 681.38,-1082.92 678.49,-1089.52 671.28,-1089.39"/>
<text text-anchor="middle" x="522" y="-1111" font-family="Helvetica,sans-Serif" font-size="10.00"> #controllerKind</text>
</g>
<!-- Node18 -->
<g id="node18" class="node">
<title>Node18</title>
<g id="a_node18"><a xlink:title=" ">
<polygon fill="none" stroke="#bfbfbf" points="691.5,-1490 691.5,-1547 726.5,-1547 726.5,-1490 691.5,-1490"/>
<text text-anchor="middle" x="709" y="-1535" font-family="Helvetica,sans-Serif" font-size="10.00">bool</text>
<polyline fill="none" stroke="#bfbfbf" points="691.5,-1528 726.5,-1528 "/>
<text text-anchor="middle" x="709" y="-1516" font-family="Helvetica,sans-Serif" font-size="10.00"> </text>
<polyline fill="none" stroke="#bfbfbf" points="691.5,-1509 726.5,-1509 "/>
<text text-anchor="middle" x="709" y="-1497" font-family="Helvetica,sans-Serif" font-size="10.00"> </text>
</a>
</g>
</g>
<!-- Node18&#45;&gt;Node5 -->
<g id="edge17" class="edge">
<title>Node18&#45;&gt;Node5</title>
<path fill="none" stroke="#404040" d="M726.78,-1500.52C752.16,-1475.06 798.03,-1424.27 819,-1371 860.5,-1265.61 848.53,-1231.95 857,-1119 857.37,-1114.12 857.72,-1112.84 857,-1108 856.69,-1105.92 856.37,-1103.83 856.04,-1101.74"/>
<polygon fill="none" stroke="#404040" points="856.01,-1101.54 851.07,-1096.28 854.02,-1089.7 858.96,-1094.96 856.01,-1101.54"/>
<text text-anchor="middle" x="906.5" y="-1251.5" font-family="Helvetica,sans-Serif" font-size="10.00"> #playerFacingDirection</text>
</g>
<!-- Node18&#45;&gt;Node19 -->
<g id="edge21" class="edge">
<title>Node18&#45;&gt;Node19</title>
<path fill="none" stroke="#404040" d="M694.6,-1489.9C680.88,-1463.63 659.23,-1422.13 637.91,-1381.28"/>
<polygon fill="none" stroke="#404040" points="637.9,-1381.27 631.58,-1377.81 632.35,-1370.64 638.67,-1374.1 637.9,-1381.27"/>
<text text-anchor="middle" x="716.5" y="-1436" font-family="Helvetica,sans-Serif" font-size="10.00"> +isEnrolledInDialogue</text>
<text text-anchor="middle" x="716.5" y="-1425" font-family="Helvetica,sans-Serif" font-size="10.00">~moveOnDamaged</text>
<text text-anchor="middle" x="716.5" y="-1414" font-family="Helvetica,sans-Serif" font-size="10.00">~praying</text>
<text text-anchor="middle" x="716.5" y="-1403" font-family="Helvetica,sans-Serif" font-size="10.00">~respawning</text>
<text text-anchor="middle" x="716.5" y="-1392" font-family="Helvetica,sans-Serif" font-size="10.00">~roll</text>
</g>
<!-- Node19&#45;&gt;Node5 -->
<g id="edge18" class="edge">
<title>Node19&#45;&gt;Node5</title>
<path fill="none" stroke="#404040" d="M601.58,-1137.23C607.48,-1126.53 614.54,-1116.52 623,-1108 639.64,-1091.24 656.41,-1106.81 673,-1090 673.09,-1089.91 673.18,-1089.82 673.27,-1089.73"/>
<polygon fill="none" stroke="#404040" points="673.11,-1089.89 674.26,-1082.78 681.28,-1081.1 680.13,-1088.22 673.11,-1089.89"/>
<text text-anchor="middle" x="661" y="-1111" font-family="Helvetica,sans-Serif" font-size="10.00"> #playerController</text>
</g>
<!-- Node20&#45;&gt;Node2 -->
<g id="edge24" class="edge">
<title>Node20&#45;&gt;Node2</title>
<path fill="none" stroke="#404040" d="M1453.77,-1219.96C1440.08,-1080.08 1386.68,-534.33 1366.65,-329.63"/>
<polygon fill="none" stroke="#404040" points="1366.63,-329.46 1362.06,-323.88 1365.46,-317.52 1370.03,-323.1 1366.63,-329.46"/>
<text text-anchor="middle" x="1410.5" y="-511" font-family="Helvetica,sans-Serif" font-size="10.00"> #stateData</text>
</g>
</g>
</svg>
        <g id="navigator" transform="translate(0 0)" fill="#404254">
                <rect fill="#f2f5e9" fill-opacity="0.5" stroke="#606060" stroke-width=".5" x="0" y="0" width="60" height="60"/>
                <use id="zoomplus" xlink:href="#zoomPlus" x="17" y="9" onmousedown="handleZoom(evt,'in')"/>
                <use id="zoomminus" xlink:href="#zoomMin" x="42" y="9" onmousedown="handleZoom(evt,'out')"/>
                <use id="reset" xlink:href="#resetDef" x="30" y="36" onmousedown="handleReset()"/>
                <g id="arrowUp" xlink:href="#dirArrow" transform="translate(30 24)" onmousedown="handlePan(0,-1)">
                  <use xlink:href="#rim" fill="#404040">
                        <set attributeName="fill" to="#808080" begin="arrowUp.mouseover" end="arrowUp.mouseout"/>
                  </use>
                  <path fill="none" stroke="white" stroke-width="1.5" d="M0,-3.0v7 M-2.5,-0.5L0,-3.0L2.5,-0.5"/>
                </g>
                <g id="arrowRight" xlink:href="#dirArrow" transform="rotate(90) translate(36 -43)" onmousedown="handlePan(1,0)">
                  <use xlink:href="#rim" fill="#404040">
                        <set attributeName="fill" to="#808080" begin="arrowRight.mouseover" end="arrowRight.mouseout"/>
                  </use>
                  <path fill="none" stroke="white" stroke-width="1.5" d="M0,-3.0v7 M-2.5,-0.5L0,-3.0L2.5,-0.5"/>
                </g>
                <g id="arrowDown" xlink:href="#dirArrow" transform="rotate(180) translate(-30 -48)" onmousedown="handlePan(0,1)">
                  <use xlink:href="#rim" fill="#404040">
                        <set attributeName="fill" to="#808080" begin="arrowDown.mouseover" end="arrowDown.mouseout"/>
                  </use>
                  <path fill="none" stroke="white" stroke-width="1.5" d="M0,-3.0v7 M-2.5,-0.5L0,-3.0L2.5,-0.5"/>
                </g>
                <g id="arrowLeft" xlink:href="#dirArrow" transform="rotate(270) translate(-36 17)" onmousedown="handlePan(-1,0)">
                  <use xlink:href="#rim" fill="#404040">
                        <set attributeName="fill" to="#808080" begin="arrowLeft.mouseover" end="arrowLeft.mouseout"/>
                  </use>
                  <path fill="none" stroke="white" stroke-width="1.5" d="M0,-3.0v7 M-2.5,-0.5L0,-3.0L2.5,-0.5"/>
                </g>
        </g>
        <svg viewBox="0 0 15 15" width="100%" height="30px" preserveAspectRatio="xMaxYMin meet">
         <g id="arrow_out" transform="scale(0.3 0.3)">
          <a xlink:href="class_controllers_1_1_froggy_1_1_froggy___attack_state__coll__graph_org.svg" target="_base">
           <rect id="button" ry="5" rx="5" y="6" x="6" height="38" width="38"
                fill="#f2f5e9" fill-opacity="0.5" stroke="#606060" stroke-width="1.0"/>
           <path id="arrow"
             d="M 11.500037,31.436501 C 11.940474,20.09759 22.043105,11.32322 32.158766,21.979434 L 37.068811,17.246167 C 37.068811,17.246167 37.088388,32 37.088388,32 L 22.160133,31.978069 C 22.160133,31.978069 26.997745,27.140456 26.997745,27.140456 C 18.528582,18.264221 13.291696,25.230495 11.500037,31.436501 z"
             style="fill:#404040;"/>
          </a>
         </g>
        </svg>
</svg>
