<?xml version="1.0" encoding="UTF-8" standalone="no"?>
<!DOCTYPE svg PUBLIC "-//W3C//DTD SVG 1.1//EN"
 "http://www.w3.org/Graphics/SVG/1.1/DTD/svg11.dtd">
<!-- Generated by graphviz version 2.48.0 (20210717.1556)
 -->
<!-- Title: Player.PlayerMovementController Pages: 1 -->
<svg width="659pt" height="420pt"
 viewBox="0.00 0.00 658.50 420.00" xmlns="http://www.w3.org/2000/svg" xmlns:xlink="http://www.w3.org/1999/xlink">
<g id="graph0" class="graph" transform="scale(1 1) rotate(0) translate(4 416)">
<title>Player.PlayerMovementController</title>
<!-- Node1 -->
<g id="node1" class="node">
<title>Node1</title>
<g id="a_node1"><a xlink:title=" ">
<polygon fill="#bfbfbf" stroke="black" points="268,-0.5 268,-167.5 429,-167.5 429,-0.5 268,-0.5"/>
<text text-anchor="middle" x="348.5" y="-155.5" font-family="Helvetica,sans-Serif" font-size="10.00">Player.PlayerMovementController</text>
<polyline fill="none" stroke="black" points="268,-148.5 429,-148.5 "/>
<text text-anchor="middle" x="348.5" y="-136.5" font-family="Helvetica,sans-Serif" font-size="10.00"> </text>
<polyline fill="none" stroke="black" points="268,-129.5 429,-129.5 "/>
<text text-anchor="start" x="276" y="-117.5" font-family="Helvetica,sans-Serif" font-size="10.00">+ void Move(float moveH,</text>
<text text-anchor="start" x="276" y="-106.5" font-family="Helvetica,sans-Serif" font-size="10.00"> float moveV, bool crouch,</text>
<text text-anchor="start" x="276" y="-95.5" font-family="Helvetica,sans-Serif" font-size="10.00"> bool jump, bool roll, bool</text>
<text text-anchor="start" x="276" y="-84.5" font-family="Helvetica,sans-Serif" font-size="10.00"> attacking)</text>
<text text-anchor="start" x="276" y="-73.5" font-family="Helvetica,sans-Serif" font-size="10.00">+ bool IsFacingRight()</text>
<text text-anchor="start" x="276" y="-62.5" font-family="Helvetica,sans-Serif" font-size="10.00">+ void EnableFlip()</text>
<text text-anchor="start" x="276" y="-51.5" font-family="Helvetica,sans-Serif" font-size="10.00">+ void DisableFlip()</text>
<text text-anchor="start" x="276" y="-40.5" font-family="Helvetica,sans-Serif" font-size="10.00">~ void AttackMovement</text>
<text text-anchor="start" x="276" y="-29.5" font-family="Helvetica,sans-Serif" font-size="10.00">(int power)</text>
<text text-anchor="start" x="276" y="-18.5" font-family="Helvetica,sans-Serif" font-size="10.00">~ void PrepareRespawn</text>
<text text-anchor="start" x="276" y="-7.5" font-family="Helvetica,sans-Serif" font-size="10.00">(Transform SpawnPoint)</text>
</a>
</g>
</g>
<!-- Node2 -->
<g id="node2" class="node">
<title>Node2</title>
<g id="a_node2"><a xlink:title=" ">
<polygon fill="none" stroke="#bfbfbf" points="0,-254 0,-311 83,-311 83,-254 0,-254"/>
<text text-anchor="middle" x="41.5" y="-299" font-family="Helvetica,sans-Serif" font-size="10.00">MonoBehaviour</text>
<polyline fill="none" stroke="#bfbfbf" points="0,-292 83,-292 "/>
<text text-anchor="middle" x="41.5" y="-280" font-family="Helvetica,sans-Serif" font-size="10.00"> </text>
<polyline fill="none" stroke="#bfbfbf" points="0,-273 83,-273 "/>
<text text-anchor="middle" x="41.5" y="-261" font-family="Helvetica,sans-Serif" font-size="10.00"> </text>
</a>
</g>
</g>
<!-- Node2&#45;&gt;Node1 -->
<g id="edge1" class="edge">
<title>Node2&#45;&gt;Node1</title>
<path fill="none" stroke="midnightblue" d="M91.65,-248.55C91.93,-248.37 92.22,-248.18 92.5,-248 151.01,-210.16 217.39,-167.91 267.89,-135.91"/>
<polygon fill="none" stroke="midnightblue" points="89.7,-245.65 83.22,-254.03 93.51,-251.52 89.7,-245.65"/>
</g>
<!-- Node3 -->
<g id="node3" class="node">
<title>Node3</title>
<g id="a_node3"><a xlink:href="class_player_1_1_player_movement_controller_1_1_bool_event.html" target="_top" xlink:title=" ">
<polygon fill="none" stroke="black" points="101.5,-248.5 101.5,-316.5 265.5,-316.5 265.5,-248.5 101.5,-248.5"/>
<text text-anchor="start" x="109.5" y="-304.5" font-family="Helvetica,sans-Serif" font-size="10.00">Player.PlayerMovementController.</text>
<text text-anchor="middle" x="183.5" y="-293.5" font-family="Helvetica,sans-Serif" font-size="10.00">BoolEvent</text>
<polyline fill="none" stroke="black" points="101.5,-286.5 265.5,-286.5 "/>
<text text-anchor="middle" x="183.5" y="-274.5" font-family="Helvetica,sans-Serif" font-size="10.00"> </text>
<polyline fill="none" stroke="black" points="101.5,-267.5 265.5,-267.5 "/>
<text text-anchor="middle" x="183.5" y="-255.5" font-family="Helvetica,sans-Serif" font-size="10.00"> </text>
</a>
</g>
</g>
<!-- Node3&#45;&gt;Node1 -->
<g id="edge2" class="edge">
<title>Node3&#45;&gt;Node1</title>
<path fill="none" stroke="#404040" d="M192.42,-248.43C198.73,-228.99 208.57,-204.65 222.5,-186 232.79,-172.22 245.38,-159.24 258.59,-147.48"/>
<polygon fill="none" stroke="#404040" points="258.71,-147.37 260.65,-140.42 267.8,-139.53 265.87,-146.48 258.71,-147.37"/>
<text text-anchor="middle" x="261" y="-205.5" font-family="Helvetica,sans-Serif" font-size="10.00"> +OnCrouchEvent</text>
</g>
<!-- Node4 -->
<g id="node4" class="node">
<title>Node4</title>
<g id="a_node4"><a xlink:title=" ">
<polygon fill="none" stroke="#bfbfbf" points="134,-354.5 134,-411.5 233,-411.5 233,-354.5 134,-354.5"/>
<text text-anchor="middle" x="183.5" y="-399.5" font-family="Helvetica,sans-Serif" font-size="10.00">UnityEvent&lt; bool &gt;</text>
<polyline fill="none" stroke="#bfbfbf" points="134,-392.5 233,-392.5 "/>
<text text-anchor="middle" x="183.5" y="-380.5" font-family="Helvetica,sans-Serif" font-size="10.00"> </text>
<polyline fill="none" stroke="#bfbfbf" points="134,-373.5 233,-373.5 "/>
<text text-anchor="middle" x="183.5" y="-361.5" font-family="Helvetica,sans-Serif" font-size="10.00"> </text>
</a>
</g>
</g>
<!-- Node4&#45;&gt;Node3 -->
<g id="edge3" class="edge">
<title>Node4&#45;&gt;Node3</title>
<path fill="none" stroke="midnightblue" d="M183.5,-344.01C183.5,-334.96 183.5,-325.38 183.5,-316.58"/>
<polygon fill="none" stroke="midnightblue" points="180,-344.3 183.5,-354.3 187,-344.3 180,-344.3"/>
</g>
<!-- Node5 -->
<g id="node5" class="node">
<title>Node5</title>
<g id="a_node5"><a xlink:title=" ">
<polygon fill="none" stroke="#bfbfbf" points="284,-254 284,-311 347,-311 347,-254 284,-254"/>
<text text-anchor="middle" x="315.5" y="-299" font-family="Helvetica,sans-Serif" font-size="10.00">UnityEvent</text>
<polyline fill="none" stroke="#bfbfbf" points="284,-292 347,-292 "/>
<text text-anchor="middle" x="315.5" y="-280" font-family="Helvetica,sans-Serif" font-size="10.00"> </text>
<polyline fill="none" stroke="#bfbfbf" points="284,-273 347,-273 "/>
<text text-anchor="middle" x="315.5" y="-261" font-family="Helvetica,sans-Serif" font-size="10.00"> </text>
</a>
</g>
</g>
<!-- Node5&#45;&gt;Node1 -->
<g id="edge4" class="edge">
<title>Node5&#45;&gt;Node1</title>
<path fill="none" stroke="#404040" d="M308.66,-253.7C304.97,-234.53 302,-208.54 306.5,-186 306.93,-183.82 307.42,-181.64 307.94,-179.45"/>
<polygon fill="none" stroke="#404040" points="307.99,-179.27 305.69,-172.44 311.12,-167.69 313.42,-174.53 307.99,-179.27"/>
<text text-anchor="middle" x="338.5" y="-211" font-family="Helvetica,sans-Serif" font-size="10.00"> +OnAirEvent</text>
<text text-anchor="middle" x="338.5" y="-200" font-family="Helvetica,sans-Serif" font-size="10.00">+OnLandEvent</text>
</g>
<!-- Node6 -->
<g id="node6" class="node">
<title>Node6</title>
<g id="a_node6"><a xlink:title=" ">
<polygon fill="none" stroke="#bfbfbf" points="375,-254 375,-311 410,-311 410,-254 375,-254"/>
<text text-anchor="middle" x="392.5" y="-299" font-family="Helvetica,sans-Serif" font-size="10.00">float</text>
<polyline fill="none" stroke="#bfbfbf" points="375,-292 410,-292 "/>
<text text-anchor="middle" x="392.5" y="-280" font-family="Helvetica,sans-Serif" font-size="10.00"> </text>
<polyline fill="none" stroke="#bfbfbf" points="375,-273 410,-273 "/>
<text text-anchor="middle" x="392.5" y="-261" font-family="Helvetica,sans-Serif" font-size="10.00"> </text>
</a>
</g>
</g>
<!-- Node6&#45;&gt;Node1 -->
<g id="edge5" class="edge">
<title>Node6&#45;&gt;Node1</title>
<path fill="none" stroke="#404040" d="M386.29,-253.76C381.91,-234.23 375.78,-206.83 369.72,-179.78"/>
<polygon fill="none" stroke="#404040" points="369.67,-179.53 364.45,-174.55 367.05,-167.82 372.26,-172.8 369.67,-179.53"/>
<text text-anchor="middle" x="429" y="-222" font-family="Helvetica,sans-Serif" font-size="10.00"> +LedgeClimbXOffset1</text>
<text text-anchor="middle" x="429" y="-211" font-family="Helvetica,sans-Serif" font-size="10.00">+LedgeClimbXOffset2</text>
<text text-anchor="middle" x="429" y="-200" font-family="Helvetica,sans-Serif" font-size="10.00">+LedgeClimbYOffset1</text>
<text text-anchor="middle" x="429" y="-189" font-family="Helvetica,sans-Serif" font-size="10.00">+LedgeClimbYOffset2</text>
</g>
<!-- Node7 -->
<g id="node7" class="node">
<title>Node7</title>
<g id="a_node7"><a xlink:title=" ">
<polygon fill="none" stroke="#bfbfbf" points="487.5,-254 487.5,-311 537.5,-311 537.5,-254 487.5,-254"/>
<text text-anchor="middle" x="512.5" y="-299" font-family="Helvetica,sans-Serif" font-size="10.00">Vector3</text>
<polyline fill="none" stroke="#bfbfbf" points="487.5,-292 537.5,-292 "/>
<text text-anchor="middle" x="512.5" y="-280" font-family="Helvetica,sans-Serif" font-size="10.00"> </text>
<polyline fill="none" stroke="#bfbfbf" points="487.5,-273 537.5,-273 "/>
<text text-anchor="middle" x="512.5" y="-261" font-family="Helvetica,sans-Serif" font-size="10.00"> </text>
</a>
</g>
</g>
<!-- Node7&#45;&gt;Node1 -->
<g id="edge6" class="edge">
<title>Node7&#45;&gt;Node1</title>
<path fill="none" stroke="#404040" d="M508.15,-253.98C503.92,-233.74 495.93,-206.32 481.5,-186 469.78,-169.5 454.56,-154.49 438.63,-141.38"/>
<polygon fill="none" stroke="#404040" points="438.59,-141.35 431.4,-140.75 429.19,-133.89 436.37,-134.49 438.59,-141.35"/>
<text text-anchor="middle" x="523" y="-205.5" font-family="Helvetica,sans-Serif" font-size="10.00"> ~Velocity</text>
</g>
<!-- Node8 -->
<g id="node8" class="node">
<title>Node8</title>
<g id="a_node8"><a xlink:title=" ">
<polygon fill="none" stroke="#bfbfbf" points="563,-254 563,-311 598,-311 598,-254 563,-254"/>
<text text-anchor="middle" x="580.5" y="-299" font-family="Helvetica,sans-Serif" font-size="10.00">bool</text>
<polyline fill="none" stroke="#bfbfbf" points="563,-292 598,-292 "/>
<text text-anchor="middle" x="580.5" y="-280" font-family="Helvetica,sans-Serif" font-size="10.00"> </text>
<polyline fill="none" stroke="#bfbfbf" points="563,-273 598,-273 "/>
<text text-anchor="middle" x="580.5" y="-261" font-family="Helvetica,sans-Serif" font-size="10.00"> </text>
</a>
</g>
</g>
<!-- Node8&#45;&gt;Node1 -->
<g id="edge7" class="edge">
<title>Node8&#45;&gt;Node1</title>
<path fill="none" stroke="#404040" d="M577.28,-253.59C573.62,-232.88 565.85,-205.04 549.5,-186 520.9,-152.7 478.67,-129.17 440.28,-113.25"/>
<polygon fill="none" stroke="#404040" points="440.19,-113.21 433.13,-114.7 429.05,-108.75 436.1,-107.27 440.19,-113.21"/>
<text text-anchor="middle" x="611" y="-216.5" font-family="Helvetica,sans-Serif" font-size="10.00"> ~Grounded</text>
<text text-anchor="middle" x="611" y="-205.5" font-family="Helvetica,sans-Serif" font-size="10.00">~IsTouchingLedge</text>
<text text-anchor="middle" x="611" y="-194.5" font-family="Helvetica,sans-Serif" font-size="10.00">~IsTouchingWall</text>
</g>
</g>
</svg>
