<?xml version="1.0" encoding="UTF-8" standalone="no"?>
<!DOCTYPE svg PUBLIC "-//W3C//DTD SVG 1.1//EN"
 "http://www.w3.org/Graphics/SVG/1.1/DTD/svg11.dtd">
<!-- Generated by graphviz version 2.48.0 (20210717.1556)
 -->
<!-- Title: Controllers.BaseController Pages: 1 -->
<svg width="1338pt" height="817pt"
 viewBox="0.00 0.00 1338.00 817.00" xmlns="http://www.w3.org/2000/svg" xmlns:xlink="http://www.w3.org/1999/xlink">
<g id="graph0" class="graph" transform="scale(1 1) rotate(0) translate(4 813)">
<title>Controllers.BaseController</title>
<!-- Node1 -->
<g id="node1" class="node">
<title>Node1</title>
<g id="a_node1"><a xlink:title=" ">
<polygon fill="#bfbfbf" stroke="black" points="577,-0.5 577,-123.5 723,-123.5 723,-0.5 577,-0.5"/>
<text text-anchor="middle" x="650" y="-111.5" font-family="Helvetica,sans-Serif" font-size="10.00">Controllers.BaseController</text>
<polyline fill="none" stroke="black" points="577,-104.5 723,-104.5 "/>
<text text-anchor="middle" x="650" y="-92.5" font-family="Helvetica,sans-Serif" font-size="10.00"> </text>
<polyline fill="none" stroke="black" points="577,-85.5 723,-85.5 "/>
<text text-anchor="start" x="585" y="-73.5" font-family="Helvetica,sans-Serif" font-size="10.00">+ T GetMovementController</text>
<text text-anchor="start" x="585" y="-62.5" font-family="Helvetica,sans-Serif" font-size="10.00">&lt; T &gt;()</text>
<text text-anchor="start" x="585" y="-51.5" font-family="Helvetica,sans-Serif" font-size="10.00">+ virtual void Damage</text>
<text text-anchor="start" x="585" y="-40.5" font-family="Helvetica,sans-Serif" font-size="10.00">(float amount, int attackN)</text>
<text text-anchor="start" x="585" y="-29.5" font-family="Helvetica,sans-Serif" font-size="10.00"># virtual void OnStart()</text>
<text text-anchor="start" x="585" y="-18.5" font-family="Helvetica,sans-Serif" font-size="10.00"># virtual void OnUpdate()</text>
<text text-anchor="start" x="585" y="-7.5" font-family="Helvetica,sans-Serif" font-size="10.00"># virtual void OnFixedUpdate()</text>
</a>
</g>
</g>
<!-- Node2 -->
<g id="node2" class="node">
<title>Node2</title>
<g id="a_node2"><a xlink:href="interface_controllers_1_1_i_damageable.html" target="_top" xlink:title="Interfaz para todos los NPCs/Enemigos/Objetos que pueden ser daniados.">
<polygon fill="none" stroke="black" points="0,-221 0,-289 140,-289 140,-221 0,-221"/>
<text text-anchor="middle" x="70" y="-277" font-family="Helvetica,sans-Serif" font-size="10.00">IDamageable</text>
<polyline fill="none" stroke="black" points="0,-270 140,-270 "/>
<text text-anchor="middle" x="70" y="-258" font-family="Helvetica,sans-Serif" font-size="10.00"> </text>
<polyline fill="none" stroke="black" points="0,-251 140,-251 "/>
<text text-anchor="start" x="8" y="-239" font-family="Helvetica,sans-Serif" font-size="10.00">+ void Damage(float amount,</text>
<text text-anchor="start" x="8" y="-228" font-family="Helvetica,sans-Serif" font-size="10.00"> int attackN)</text>
</a>
</g>
</g>
<!-- Node2&#45;&gt;Node1 -->
<g id="edge1" class="edge">
<title>Node2&#45;&gt;Node1</title>
<path fill="none" stroke="midnightblue" d="M110.23,-213.71C122.19,-202.76 135.67,-191.35 149,-182 180.25,-160.08 188.94,-154.52 225,-142 344.46,-100.53 490.79,-79.43 576.86,-69.84"/>
<polygon fill="none" stroke="midnightblue" points="107.54,-211.43 102.61,-220.81 112.32,-216.55 107.54,-211.43"/>
</g>
<!-- Node3 -->
<g id="node3" class="node">
<title>Node3</title>
<g id="a_node3"><a xlink:title=" ">
<polygon fill="none" stroke="#bfbfbf" points="158.5,-226.5 158.5,-283.5 243.5,-283.5 243.5,-226.5 158.5,-226.5"/>
<text text-anchor="middle" x="201" y="-271.5" font-family="Helvetica,sans-Serif" font-size="10.00">ECharacterKind</text>
<polyline fill="none" stroke="#bfbfbf" points="158.5,-264.5 243.5,-264.5 "/>
<text text-anchor="middle" x="201" y="-252.5" font-family="Helvetica,sans-Serif" font-size="10.00"> </text>
<polyline fill="none" stroke="#bfbfbf" points="158.5,-245.5 243.5,-245.5 "/>
<text text-anchor="middle" x="201" y="-233.5" font-family="Helvetica,sans-Serif" font-size="10.00"> </text>
</a>
</g>
</g>
<!-- Node3&#45;&gt;Node1 -->
<g id="edge2" class="edge">
<title>Node3&#45;&gt;Node1</title>
<path fill="none" stroke="#404040" d="M205.4,-226.08C210.98,-200.28 223.18,-162.89 249,-142 296.51,-103.56 461.63,-81.09 564.58,-70.49"/>
<polygon fill="none" stroke="#404040" points="564.87,-70.46 570.44,-65.88 576.81,-69.26 571.25,-73.84 564.87,-70.46"/>
<text text-anchor="middle" x="283.5" y="-150.5" font-family="Helvetica,sans-Serif" font-size="10.00"> #characterKind</text>
</g>
<!-- Node4 -->
<g id="node4" class="node">
<title>Node4</title>
<g id="a_node4"><a xlink:title=" ">
<polygon fill="none" stroke="#bfbfbf" points="261.5,-226.5 261.5,-283.5 332.5,-283.5 332.5,-226.5 261.5,-226.5"/>
<text text-anchor="middle" x="297" y="-271.5" font-family="Helvetica,sans-Serif" font-size="10.00">Rigidbody2D</text>
<polyline fill="none" stroke="#bfbfbf" points="261.5,-264.5 332.5,-264.5 "/>
<text text-anchor="middle" x="297" y="-252.5" font-family="Helvetica,sans-Serif" font-size="10.00"> </text>
<polyline fill="none" stroke="#bfbfbf" points="261.5,-245.5 332.5,-245.5 "/>
<text text-anchor="middle" x="297" y="-233.5" font-family="Helvetica,sans-Serif" font-size="10.00"> </text>
</a>
</g>
</g>
<!-- Node4&#45;&gt;Node1 -->
<g id="edge3" class="edge">
<title>Node4&#45;&gt;Node1</title>
<path fill="none" stroke="#404040" d="M300.09,-226.46C304.42,-200.95 314.71,-163.75 339,-142 372.06,-112.39 484.42,-89.04 564.58,-75.62"/>
<polygon fill="none" stroke="#404040" points="564.81,-75.59 570.09,-70.66 576.66,-73.64 571.38,-78.56 564.81,-75.59"/>
<text text-anchor="middle" x="363" y="-150.5" font-family="Helvetica,sans-Serif" font-size="10.00"> #RigidBdy</text>
</g>
<!-- Node5 -->
<g id="node5" class="node">
<title>Node5</title>
<g id="a_node5"><a xlink:title=" ">
<polygon fill="none" stroke="#bfbfbf" points="351,-226.5 351,-283.5 407,-283.5 407,-226.5 351,-226.5"/>
<text text-anchor="middle" x="379" y="-271.5" font-family="Helvetica,sans-Serif" font-size="10.00">Animator</text>
<polyline fill="none" stroke="#bfbfbf" points="351,-264.5 407,-264.5 "/>
<text text-anchor="middle" x="379" y="-252.5" font-family="Helvetica,sans-Serif" font-size="10.00"> </text>
<polyline fill="none" stroke="#bfbfbf" points="351,-245.5 407,-245.5 "/>
<text text-anchor="middle" x="379" y="-233.5" font-family="Helvetica,sans-Serif" font-size="10.00"> </text>
</a>
</g>
</g>
<!-- Node5&#45;&gt;Node1 -->
<g id="edge4" class="edge">
<title>Node5&#45;&gt;Node1</title>
<path fill="none" stroke="#404040" d="M378.17,-226.09C378.94,-201.03 384.06,-164.78 405,-142 445.76,-97.67 511.5,-78.12 564.62,-69.54"/>
<polygon fill="none" stroke="#404040" points="564.91,-69.5 570.26,-64.66 576.78,-67.73 571.44,-72.57 564.91,-69.5"/>
<text text-anchor="middle" x="449" y="-150.5" font-family="Helvetica,sans-Serif" font-size="10.00"> #characterAnimator</text>
</g>
<!-- Node6 -->
<g id="node6" class="node">
<title>Node6</title>
<g id="a_node6"><a xlink:title=" ">
<polygon fill="none" stroke="#bfbfbf" points="425.5,-226.5 425.5,-283.5 496.5,-283.5 496.5,-226.5 425.5,-226.5"/>
<text text-anchor="middle" x="461" y="-271.5" font-family="Helvetica,sans-Serif" font-size="10.00">GameObject</text>
<polyline fill="none" stroke="#bfbfbf" points="425.5,-264.5 496.5,-264.5 "/>
<text text-anchor="middle" x="461" y="-252.5" font-family="Helvetica,sans-Serif" font-size="10.00"> </text>
<polyline fill="none" stroke="#bfbfbf" points="425.5,-245.5 496.5,-245.5 "/>
<text text-anchor="middle" x="461" y="-233.5" font-family="Helvetica,sans-Serif" font-size="10.00"> </text>
</a>
</g>
</g>
<!-- Node6&#45;&gt;Node1 -->
<g id="edge5" class="edge">
<title>Node6&#45;&gt;Node1</title>
<path fill="none" stroke="#404040" d="M468.86,-226.44C476.96,-201.97 491.58,-166.39 514,-142 528.73,-125.97 547.48,-112.26 566.32,-100.98"/>
<polygon fill="none" stroke="#404040" points="566.36,-100.96 569.57,-94.5 576.76,-94.97 573.56,-101.43 566.36,-100.96"/>
<text text-anchor="middle" x="543" y="-150.5" font-family="Helvetica,sans-Serif" font-size="10.00"> #hitParticles</text>
</g>
<!-- Node7 -->
<g id="node7" class="node">
<title>Node7</title>
<g id="a_node7"><a xlink:href="class_controllers_1_1_movement_1_1_base_movement_controller.html" target="_top" xlink:title=" ">
<polygon fill="none" stroke="black" points="515,-221 515,-289 651,-289 651,-221 515,-221"/>
<text text-anchor="start" x="523" y="-277" font-family="Helvetica,sans-Serif" font-size="10.00">Controllers.Movement.Base</text>
<text text-anchor="middle" x="583" y="-266" font-family="Helvetica,sans-Serif" font-size="10.00">MovementController</text>
<polyline fill="none" stroke="black" points="515,-259 651,-259 "/>
<text text-anchor="middle" x="583" y="-247" font-family="Helvetica,sans-Serif" font-size="10.00"> </text>
<polyline fill="none" stroke="black" points="515,-240 651,-240 "/>
<text text-anchor="middle" x="583" y="-228" font-family="Helvetica,sans-Serif" font-size="10.00"> </text>
</a>
</g>
</g>
<!-- Node7&#45;&gt;Node1 -->
<g id="edge6" class="edge">
<title>Node7&#45;&gt;Node1</title>
<path fill="none" stroke="#404040" d="M576.61,-220.58C573.68,-197.74 572.66,-167.16 582,-142 582.95,-139.45 584.02,-136.93 585.19,-134.44"/>
<polygon fill="none" stroke="#404040" points="585.26,-134.3 584.59,-127.12 590.97,-123.74 591.63,-130.92 585.26,-134.3"/>
<text text-anchor="middle" x="639.5" y="-150.5" font-family="Helvetica,sans-Serif" font-size="10.00"> #baseMovementController</text>
</g>
<!-- Node8 -->
<g id="node8" class="node">
<title>Node8</title>
<g id="a_node8"><a xlink:title=" ">
<polygon fill="none" stroke="#bfbfbf" points="879.5,-651 879.5,-708 914.5,-708 914.5,-651 879.5,-651"/>
<text text-anchor="middle" x="897" y="-696" font-family="Helvetica,sans-Serif" font-size="10.00">float</text>
<polyline fill="none" stroke="#bfbfbf" points="879.5,-689 914.5,-689 "/>
<text text-anchor="middle" x="897" y="-677" font-family="Helvetica,sans-Serif" font-size="10.00"> </text>
<polyline fill="none" stroke="#bfbfbf" points="879.5,-670 914.5,-670 "/>
<text text-anchor="middle" x="897" y="-658" font-family="Helvetica,sans-Serif" font-size="10.00"> </text>
</a>
</g>
</g>
<!-- Node8&#45;&gt;Node1 -->
<g id="edge7" class="edge">
<title>Node8&#45;&gt;Node1</title>
<path fill="none" stroke="#404040" d="M914.55,-676.35C940.61,-672.11 988.77,-660 1010,-627 1018.86,-613.23 1083.57,-247.28 997,-142 964.28,-102.21 826.94,-80.74 735.17,-70.6"/>
<polygon fill="none" stroke="#404040" points="735.03,-70.59 728.64,-73.92 723.1,-69.3 729.49,-65.97 735.03,-70.59"/>
<text text-anchor="middle" x="1068.5" y="-360" font-family="Helvetica,sans-Serif" font-size="10.00"> #maxHealth</text>
</g>
<!-- Node13 -->
<g id="node13" class="node">
<title>Node13</title>
<g id="a_node13"><a xlink:href="class_player_1_1_player_controller.html" target="_top" xlink:title=" ">
<polygon fill="none" stroke="black" points="669.5,-182.5 669.5,-327.5 810.5,-327.5 810.5,-182.5 669.5,-182.5"/>
<text text-anchor="middle" x="740" y="-315.5" font-family="Helvetica,sans-Serif" font-size="10.00">Player.PlayerController</text>
<polyline fill="none" stroke="black" points="669.5,-308.5 810.5,-308.5 "/>
<text text-anchor="middle" x="740" y="-296.5" font-family="Helvetica,sans-Serif" font-size="10.00"> </text>
<polyline fill="none" stroke="black" points="669.5,-289.5 810.5,-289.5 "/>
<text text-anchor="start" x="677.5" y="-277.5" font-family="Helvetica,sans-Serif" font-size="10.00">+ void LandEvt()</text>
<text text-anchor="start" x="677.5" y="-266.5" font-family="Helvetica,sans-Serif" font-size="10.00">+ void OnAirEvt()</text>
<text text-anchor="start" x="677.5" y="-255.5" font-family="Helvetica,sans-Serif" font-size="10.00">+ bool IsFacingRight()</text>
<text text-anchor="start" x="677.5" y="-244.5" font-family="Helvetica,sans-Serif" font-size="10.00">+ void AnimStartPrayingEvt()</text>
<text text-anchor="start" x="677.5" y="-233.5" font-family="Helvetica,sans-Serif" font-size="10.00">+ void AnimRollEndEvt()</text>
<text text-anchor="start" x="677.5" y="-222.5" font-family="Helvetica,sans-Serif" font-size="10.00">+ void AnimFootStep1Evt()</text>
<text text-anchor="start" x="677.5" y="-211.5" font-family="Helvetica,sans-Serif" font-size="10.00">+ void AnimFootStep2Evt()</text>
<text text-anchor="start" x="677.5" y="-200.5" font-family="Helvetica,sans-Serif" font-size="10.00">~ void OnEnable()</text>
<text text-anchor="start" x="677.5" y="-189.5" font-family="Helvetica,sans-Serif" font-size="10.00">~ void OnDisable()</text>
</a>
</g>
</g>
<!-- Node8&#45;&gt;Node13 -->
<g id="edge22" class="edge">
<title>Node8&#45;&gt;Node13</title>
<path fill="none" stroke="#404040" d="M896.61,-650.8C894.69,-591.29 884.08,-448.38 828,-346 825.03,-340.57 821.63,-335.24 817.95,-330.05"/>
<polygon fill="none" stroke="#404040" points="817.78,-329.83 810.97,-327.46 810.54,-320.26 817.35,-322.63 817.78,-329.83"/>
<text text-anchor="middle" x="938" y="-478.5" font-family="Helvetica,sans-Serif" font-size="10.00"> +NextAttackMaxTime</text>
</g>
<!-- Node15 -->
<g id="node15" class="node">
<title>Node15</title>
<g id="a_node15"><a xlink:href="class_player_1_1_player_movement_controller.html" target="_top" xlink:title=" ">
<polygon fill="none" stroke="black" points="636.5,-397.5 636.5,-564.5 797.5,-564.5 797.5,-397.5 636.5,-397.5"/>
<text text-anchor="middle" x="717" y="-552.5" font-family="Helvetica,sans-Serif" font-size="10.00">Player.PlayerMovementController</text>
<polyline fill="none" stroke="black" points="636.5,-545.5 797.5,-545.5 "/>
<text text-anchor="middle" x="717" y="-533.5" font-family="Helvetica,sans-Serif" font-size="10.00"> </text>
<polyline fill="none" stroke="black" points="636.5,-526.5 797.5,-526.5 "/>
<text text-anchor="start" x="644.5" y="-514.5" font-family="Helvetica,sans-Serif" font-size="10.00">+ void Move(float moveH,</text>
<text text-anchor="start" x="644.5" y="-503.5" font-family="Helvetica,sans-Serif" font-size="10.00"> float moveV, bool crouch,</text>
<text text-anchor="start" x="644.5" y="-492.5" font-family="Helvetica,sans-Serif" font-size="10.00"> bool jump, bool roll, bool</text>
<text text-anchor="start" x="644.5" y="-481.5" font-family="Helvetica,sans-Serif" font-size="10.00"> attacking)</text>
<text text-anchor="start" x="644.5" y="-470.5" font-family="Helvetica,sans-Serif" font-size="10.00">+ bool IsFacingRight()</text>
<text text-anchor="start" x="644.5" y="-459.5" font-family="Helvetica,sans-Serif" font-size="10.00">+ void EnableFlip()</text>
<text text-anchor="start" x="644.5" y="-448.5" font-family="Helvetica,sans-Serif" font-size="10.00">+ void DisableFlip()</text>
<text text-anchor="start" x="644.5" y="-437.5" font-family="Helvetica,sans-Serif" font-size="10.00">~ void AttackMovement</text>
<text text-anchor="start" x="644.5" y="-426.5" font-family="Helvetica,sans-Serif" font-size="10.00">(int power)</text>
<text text-anchor="start" x="644.5" y="-415.5" font-family="Helvetica,sans-Serif" font-size="10.00">~ void PrepareRespawn</text>
<text text-anchor="start" x="644.5" y="-404.5" font-family="Helvetica,sans-Serif" font-size="10.00">(Transform SpawnPoint)</text>
</a>
</g>
</g>
<!-- Node8&#45;&gt;Node15 -->
<g id="edge19" class="edge">
<title>Node8&#45;&gt;Node15</title>
<path fill="none" stroke="#404040" d="M879.45,-674.37C855.55,-667.95 812.72,-653.46 786,-627 783.54,-624.56 772.6,-602.2 760.14,-575.73"/>
<polygon fill="none" stroke="#404040" points="760.01,-575.46 753.84,-571.72 754.92,-564.59 761.09,-568.33 760.01,-575.46"/>
<text text-anchor="middle" x="834.5" y="-619" font-family="Helvetica,sans-Serif" font-size="10.00"> +LedgeClimbXOffset1</text>
<text text-anchor="middle" x="834.5" y="-608" font-family="Helvetica,sans-Serif" font-size="10.00">+LedgeClimbXOffset2</text>
<text text-anchor="middle" x="834.5" y="-597" font-family="Helvetica,sans-Serif" font-size="10.00">+LedgeClimbYOffset1</text>
<text text-anchor="middle" x="834.5" y="-586" font-family="Helvetica,sans-Serif" font-size="10.00">+LedgeClimbYOffset2</text>
</g>
<!-- Node9 -->
<g id="node9" class="node">
<title>Node9</title>
<g id="a_node9"><a xlink:title=" ">
<polygon fill="none" stroke="#bfbfbf" points="829,-226.5 829,-283.5 879,-283.5 879,-226.5 829,-226.5"/>
<text text-anchor="middle" x="854" y="-271.5" font-family="Helvetica,sans-Serif" font-size="10.00">Vector2</text>
<polyline fill="none" stroke="#bfbfbf" points="829,-264.5 879,-264.5 "/>
<text text-anchor="middle" x="854" y="-252.5" font-family="Helvetica,sans-Serif" font-size="10.00"> </text>
<polyline fill="none" stroke="#bfbfbf" points="829,-245.5 879,-245.5 "/>
<text text-anchor="middle" x="854" y="-233.5" font-family="Helvetica,sans-Serif" font-size="10.00"> </text>
</a>
</g>
</g>
<!-- Node9&#45;&gt;Node1 -->
<g id="edge8" class="edge">
<title>Node9&#45;&gt;Node1</title>
<path fill="none" stroke="#404040" d="M843.02,-226.43C837.02,-212.63 828.99,-195.94 820,-182 807.35,-162.39 803.9,-156.96 786,-142 770.15,-128.75 751.79,-116.43 733.79,-105.65"/>
<polygon fill="none" stroke="#404040" points="733.61,-105.55 726.41,-105.97 723.26,-99.49 730.45,-99.07 733.61,-105.55"/>
<text text-anchor="middle" x="857" y="-150.5" font-family="Helvetica,sans-Serif" font-size="10.00"> #moveOnAttackSpeed</text>
</g>
<!-- Node10 -->
<g id="node10" class="node">
<title>Node10</title>
<g id="a_node10"><a xlink:title=" ">
<polygon fill="none" stroke="#bfbfbf" points="899,-226.5 899,-283.5 983,-283.5 983,-226.5 899,-226.5"/>
<text text-anchor="middle" x="941" y="-271.5" font-family="Helvetica,sans-Serif" font-size="10.00">EControllerKind</text>
<polyline fill="none" stroke="#bfbfbf" points="899,-264.5 983,-264.5 "/>
<text text-anchor="middle" x="941" y="-252.5" font-family="Helvetica,sans-Serif" font-size="10.00"> </text>
<polyline fill="none" stroke="#bfbfbf" points="899,-245.5 983,-245.5 "/>
<text text-anchor="middle" x="941" y="-233.5" font-family="Helvetica,sans-Serif" font-size="10.00"> </text>
</a>
</g>
</g>
<!-- Node10&#45;&gt;Node1 -->
<g id="edge9" class="edge">
<title>Node10&#45;&gt;Node1</title>
<path fill="none" stroke="#404040" d="M940.84,-226.41C939.21,-201.21 932.84,-164.56 911,-142 865.27,-94.77 792.34,-75.53 735.19,-67.82"/>
<polygon fill="none" stroke="#404040" points="735.16,-67.81 728.71,-71.05 723.25,-66.34 729.7,-63.11 735.16,-67.81"/>
<text text-anchor="middle" x="959" y="-150.5" font-family="Helvetica,sans-Serif" font-size="10.00"> #controllerKind</text>
</g>
<!-- Node11 -->
<g id="node11" class="node">
<title>Node11</title>
<g id="a_node11"><a xlink:title=" ">
<polygon fill="none" stroke="#bfbfbf" points="1076.5,-651 1076.5,-708 1111.5,-708 1111.5,-651 1076.5,-651"/>
<text text-anchor="middle" x="1094" y="-696" font-family="Helvetica,sans-Serif" font-size="10.00">bool</text>
<polyline fill="none" stroke="#bfbfbf" points="1076.5,-689 1111.5,-689 "/>
<text text-anchor="middle" x="1094" y="-677" font-family="Helvetica,sans-Serif" font-size="10.00"> </text>
<polyline fill="none" stroke="#bfbfbf" points="1076.5,-670 1111.5,-670 "/>
<text text-anchor="middle" x="1094" y="-658" font-family="Helvetica,sans-Serif" font-size="10.00"> </text>
</a>
</g>
</g>
<!-- Node11&#45;&gt;Node1 -->
<g id="edge10" class="edge">
<title>Node11&#45;&gt;Node1</title>
<path fill="none" stroke="#404040" d="M1111.52,-662.92C1132.73,-642.78 1167.28,-605.44 1181,-565 1241.79,-385.77 1267.64,-273.98 1132,-142 1076.99,-88.47 858.74,-71.15 735.64,-65.59"/>
<polygon fill="none" stroke="#404040" points="735.29,-65.57 729.13,-69.31 723.31,-65.05 729.47,-61.32 735.29,-65.57"/>
<text text-anchor="middle" x="1280" y="-371" font-family="Helvetica,sans-Serif" font-size="10.00"> #isInvencible</text>
<text text-anchor="middle" x="1280" y="-360" font-family="Helvetica,sans-Serif" font-size="10.00">#playerFacingDirection</text>
<text text-anchor="middle" x="1280" y="-349" font-family="Helvetica,sans-Serif" font-size="10.00">#playerOnLeft</text>
</g>
<!-- Node11&#45;&gt;Node13 -->
<g id="edge23" class="edge">
<title>Node11&#45;&gt;Node13</title>
<path fill="none" stroke="#404040" d="M1097.3,-650.81C1105.2,-578.88 1121.61,-388.75 1080,-346 1061.42,-326.91 879.56,-337.27 822.47,-326.71"/>
<polygon fill="none" stroke="#404040" points="822.16,-326.62 815.31,-328.89 810.59,-323.44 817.44,-321.18 822.16,-326.62"/>
<text text-anchor="middle" x="1143.5" y="-495" font-family="Helvetica,sans-Serif" font-size="10.00"> ~awaitingAttack</text>
<text text-anchor="middle" x="1143.5" y="-484" font-family="Helvetica,sans-Serif" font-size="10.00">~praying</text>
<text text-anchor="middle" x="1143.5" y="-473" font-family="Helvetica,sans-Serif" font-size="10.00">~respawning</text>
<text text-anchor="middle" x="1143.5" y="-462" font-family="Helvetica,sans-Serif" font-size="10.00">~roll</text>
</g>
<!-- Node11&#45;&gt;Node15 -->
<g id="edge21" class="edge">
<title>Node11&#45;&gt;Node15</title>
<path fill="none" stroke="#404040" d="M1076.38,-669.41C1039.16,-650.2 949.79,-604.03 875,-565 853.5,-553.78 830.37,-541.66 808.63,-530.24"/>
<polygon fill="none" stroke="#404040" points="808.36,-530.1 801.19,-530.86 797.74,-524.52 804.91,-523.77 808.36,-530.1"/>
<text text-anchor="middle" x="1033.5" y="-613.5" font-family="Helvetica,sans-Serif" font-size="10.00"> ~Grounded</text>
<text text-anchor="middle" x="1033.5" y="-602.5" font-family="Helvetica,sans-Serif" font-size="10.00">~IsTouchingLedge</text>
<text text-anchor="middle" x="1033.5" y="-591.5" font-family="Helvetica,sans-Serif" font-size="10.00">~IsTouchingWall</text>
</g>
<!-- Node12 -->
<g id="node12" class="node">
<title>Node12</title>
<g id="a_node12"><a xlink:title=" ">
<polygon fill="none" stroke="#bfbfbf" points="1052,-226.5 1052,-283.5 1124,-283.5 1124,-226.5 1052,-226.5"/>
<text text-anchor="middle" x="1088" y="-271.5" font-family="Helvetica,sans-Serif" font-size="10.00">AudioSource</text>
<polyline fill="none" stroke="#bfbfbf" points="1052,-264.5 1124,-264.5 "/>
<text text-anchor="middle" x="1088" y="-252.5" font-family="Helvetica,sans-Serif" font-size="10.00"> </text>
<polyline fill="none" stroke="#bfbfbf" points="1052,-245.5 1124,-245.5 "/>
<text text-anchor="middle" x="1088" y="-233.5" font-family="Helvetica,sans-Serif" font-size="10.00"> </text>
</a>
</g>
</g>
<!-- Node12&#45;&gt;Node1 -->
<g id="edge11" class="edge">
<title>Node12&#45;&gt;Node1</title>
<path fill="none" stroke="#404040" d="M1083.05,-226.09C1076.98,-200.3 1064.08,-162.91 1038,-142 992.24,-105.31 835.11,-82.43 735.4,-71.26"/>
<polygon fill="none" stroke="#404040" points="735.16,-71.23 728.76,-74.55 723.23,-69.92 729.63,-66.6 735.16,-71.23"/>
<text text-anchor="middle" x="1092.5" y="-156" font-family="Helvetica,sans-Serif" font-size="10.00"> #hitAttackSFX1</text>
<text text-anchor="middle" x="1092.5" y="-145" font-family="Helvetica,sans-Serif" font-size="10.00">#hitAttackSFX2</text>
</g>
<!-- Node13&#45;&gt;Node1 -->
<g id="edge12" class="edge">
<title>Node13&#45;&gt;Node1</title>
<path fill="none" stroke="#404040" d="M714.61,-182.42C709.2,-168.82 703.23,-154.84 697,-142 695.77,-139.46 694.48,-136.89 693.15,-134.3"/>
<polygon fill="none" stroke="#404040" points="693.13,-134.27 686.78,-130.85 687.49,-123.68 693.84,-127.09 693.13,-134.27"/>
<text text-anchor="middle" x="744" y="-150.5" font-family="Helvetica,sans-Serif" font-size="10.00"> #playerController</text>
</g>
<!-- Node14 -->
<g id="node14" class="node">
<title>Node14</title>
<g id="a_node14"><a xlink:title=" ">
<polygon fill="none" stroke="#bfbfbf" points="326.5,-651 326.5,-708 409.5,-708 409.5,-651 326.5,-651"/>
<text text-anchor="middle" x="368" y="-696" font-family="Helvetica,sans-Serif" font-size="10.00">MonoBehaviour</text>
<polyline fill="none" stroke="#bfbfbf" points="326.5,-689 409.5,-689 "/>
<text text-anchor="middle" x="368" y="-677" font-family="Helvetica,sans-Serif" font-size="10.00"> </text>
<polyline fill="none" stroke="#bfbfbf" points="326.5,-670 409.5,-670 "/>
<text text-anchor="middle" x="368" y="-658" font-family="Helvetica,sans-Serif" font-size="10.00"> </text>
</a>
</g>
</g>
<!-- Node14&#45;&gt;Node13 -->
<g id="edge13" class="edge">
<title>Node14&#45;&gt;Node13</title>
<path fill="none" stroke="midnightblue" d="M396.62,-642.65C411.2,-624.59 429.33,-602.45 446,-583 522.63,-493.59 613.65,-393.21 673.9,-327.54"/>
<polygon fill="none" stroke="midnightblue" points="393.73,-640.65 390.19,-650.63 399.18,-645.04 393.73,-640.65"/>
</g>
<!-- Node14&#45;&gt;Node15 -->
<g id="edge15" class="edge">
<title>Node14&#45;&gt;Node15</title>
<path fill="none" stroke="midnightblue" d="M418.14,-645.53C418.42,-645.36 418.71,-645.18 419,-645 490.88,-600.62 575.62,-554.87 636.33,-523.18"/>
<polygon fill="none" stroke="midnightblue" points="416.23,-642.6 409.63,-650.88 419.95,-648.53 416.23,-642.6"/>
</g>
<!-- Node15&#45;&gt;Node13 -->
<g id="edge14" class="edge">
<title>Node15&#45;&gt;Node13</title>
<path fill="none" stroke="#404040" d="M725.5,-397.23C727.42,-378.52 729.46,-358.64 731.39,-339.89"/>
<polygon fill="none" stroke="#404040" points="731.41,-339.68 728.04,-333.31 732.63,-327.75 736,-334.12 731.41,-339.68"/>
<text text-anchor="middle" x="777" y="-360" font-family="Helvetica,sans-Serif" font-size="10.00"> #playerMovementCtrl</text>
</g>
<!-- Node16 -->
<g id="node16" class="node">
<title>Node16</title>
<g id="a_node16"><a xlink:href="class_player_1_1_player_movement_controller_1_1_bool_event.html" target="_top" xlink:title=" ">
<polygon fill="none" stroke="black" points="428,-645.5 428,-713.5 592,-713.5 592,-645.5 428,-645.5"/>
<text text-anchor="start" x="436" y="-701.5" font-family="Helvetica,sans-Serif" font-size="10.00">Player.PlayerMovementController.</text>
<text text-anchor="middle" x="510" y="-690.5" font-family="Helvetica,sans-Serif" font-size="10.00">BoolEvent</text>
<polyline fill="none" stroke="black" points="428,-683.5 592,-683.5 "/>
<text text-anchor="middle" x="510" y="-671.5" font-family="Helvetica,sans-Serif" font-size="10.00"> </text>
<polyline fill="none" stroke="black" points="428,-664.5 592,-664.5 "/>
<text text-anchor="middle" x="510" y="-652.5" font-family="Helvetica,sans-Serif" font-size="10.00"> </text>
</a>
</g>
</g>
<!-- Node16&#45;&gt;Node15 -->
<g id="edge16" class="edge">
<title>Node16&#45;&gt;Node15</title>
<path fill="none" stroke="#404040" d="M521.89,-645.35C530.13,-625.64 542.57,-601.06 559,-583 577.99,-562.12 602.23,-543.81 625.99,-528.71"/>
<polygon fill="none" stroke="#404040" points="626.28,-528.53 629.28,-521.97 636.49,-522.22 633.49,-528.78 626.28,-528.53"/>
<text text-anchor="middle" x="597.5" y="-602.5" font-family="Helvetica,sans-Serif" font-size="10.00"> +OnCrouchEvent</text>
</g>
<!-- Node17 -->
<g id="node17" class="node">
<title>Node17</title>
<g id="a_node17"><a xlink:title=" ">
<polygon fill="none" stroke="#bfbfbf" points="460.5,-751.5 460.5,-808.5 559.5,-808.5 559.5,-751.5 460.5,-751.5"/>
<text text-anchor="middle" x="510" y="-796.5" font-family="Helvetica,sans-Serif" font-size="10.00">UnityEvent&lt; bool &gt;</text>
<polyline fill="none" stroke="#bfbfbf" points="460.5,-789.5 559.5,-789.5 "/>
<text text-anchor="middle" x="510" y="-777.5" font-family="Helvetica,sans-Serif" font-size="10.00"> </text>
<polyline fill="none" stroke="#bfbfbf" points="460.5,-770.5 559.5,-770.5 "/>
<text text-anchor="middle" x="510" y="-758.5" font-family="Helvetica,sans-Serif" font-size="10.00"> </text>
</a>
</g>
</g>
<!-- Node17&#45;&gt;Node16 -->
<g id="edge17" class="edge">
<title>Node17&#45;&gt;Node16</title>
<path fill="none" stroke="midnightblue" d="M510,-741.01C510,-731.96 510,-722.38 510,-713.58"/>
<polygon fill="none" stroke="midnightblue" points="506.5,-741.3 510,-751.3 513.5,-741.3 506.5,-741.3"/>
</g>
<!-- Node18 -->
<g id="node18" class="node">
<title>Node18</title>
<g id="a_node18"><a xlink:title=" ">
<polygon fill="none" stroke="#bfbfbf" points="610.5,-651 610.5,-708 673.5,-708 673.5,-651 610.5,-651"/>
<text text-anchor="middle" x="642" y="-696" font-family="Helvetica,sans-Serif" font-size="10.00">UnityEvent</text>
<polyline fill="none" stroke="#bfbfbf" points="610.5,-689 673.5,-689 "/>
<text text-anchor="middle" x="642" y="-677" font-family="Helvetica,sans-Serif" font-size="10.00"> </text>
<polyline fill="none" stroke="#bfbfbf" points="610.5,-670 673.5,-670 "/>
<text text-anchor="middle" x="642" y="-658" font-family="Helvetica,sans-Serif" font-size="10.00"> </text>
</a>
</g>
</g>
<!-- Node18&#45;&gt;Node15 -->
<g id="edge18" class="edge">
<title>Node18&#45;&gt;Node15</title>
<path fill="none" stroke="#404040" d="M640.32,-650.99C640.01,-631.5 641.4,-605 649,-583 649.84,-580.58 650.75,-578.16 651.72,-575.76"/>
<polygon fill="none" stroke="#404040" points="651.82,-575.52 650.61,-568.41 656.71,-564.56 657.92,-571.67 651.82,-575.52"/>
<text text-anchor="middle" x="681" y="-608" font-family="Helvetica,sans-Serif" font-size="10.00"> +OnAirEvent</text>
<text text-anchor="middle" x="681" y="-597" font-family="Helvetica,sans-Serif" font-size="10.00">+OnLandEvent</text>
</g>
<!-- Node19 -->
<g id="node19" class="node">
<title>Node19</title>
<g id="a_node19"><a xlink:title=" ">
<polygon fill="none" stroke="#bfbfbf" points="692,-651 692,-708 742,-708 742,-651 692,-651"/>
<text text-anchor="middle" x="717" y="-696" font-family="Helvetica,sans-Serif" font-size="10.00">Vector3</text>
<polyline fill="none" stroke="#bfbfbf" points="692,-689 742,-689 "/>
<text text-anchor="middle" x="717" y="-677" font-family="Helvetica,sans-Serif" font-size="10.00"> </text>
<polyline fill="none" stroke="#bfbfbf" points="692,-670 742,-670 "/>
<text text-anchor="middle" x="717" y="-658" font-family="Helvetica,sans-Serif" font-size="10.00"> </text>
</a>
</g>
</g>
<!-- Node19&#45;&gt;Node15 -->
<g id="edge20" class="edge">
<title>Node19&#45;&gt;Node15</title>
<path fill="none" stroke="#404040" d="M717,-650.76C717,-631.31 717,-604.07 717,-577.14"/>
<polygon fill="none" stroke="#404040" points="717,-576.82 713,-570.82 717,-564.82 721,-570.82 717,-576.82"/>
<text text-anchor="middle" x="739.5" y="-602.5" font-family="Helvetica,sans-Serif" font-size="10.00"> ~Velocity</text>
</g>
</g>
</svg>
