<?xml version="1.0" encoding="UTF-8" standalone="no"?>
<!DOCTYPE svg PUBLIC "-//W3C//DTD SVG 1.1//EN"
 "http://www.w3.org/Graphics/SVG/1.1/DTD/svg11.dtd">
<!-- Generated by graphviz version 2.48.0 (20210717.1556)
 -->
<!-- Title: Controllers.Froggy.FroggyController Pages: 1 -->
<svg width="1114pt" height="1220pt"
 viewBox="0.00 0.00 1114.00 1220.00" xmlns="http://www.w3.org/2000/svg" xmlns:xlink="http://www.w3.org/1999/xlink">
<g id="graph0" class="graph" transform="scale(1 1) rotate(0) translate(4 1216)">
<title>Controllers.Froggy.FroggyController</title>
<!-- Node1 -->
<g id="node1" class="node">
<title>Node1</title>
<g id="a_node1"><a xlink:title=" ">
<polygon fill="#bfbfbf" stroke="black" points="419.5,-0.5 419.5,-112.5 580.5,-112.5 580.5,-0.5 419.5,-0.5"/>
<text text-anchor="start" x="427.5" y="-100.5" font-family="Helvetica,sans-Serif" font-size="10.00">Controllers.Froggy.Froggy</text>
<text text-anchor="middle" x="500" y="-89.5" font-family="Helvetica,sans-Serif" font-size="10.00">Controller</text>
<polyline fill="none" stroke="black" points="419.5,-82.5 580.5,-82.5 "/>
<text text-anchor="middle" x="500" y="-70.5" font-family="Helvetica,sans-Serif" font-size="10.00"> </text>
<polyline fill="none" stroke="black" points="419.5,-63.5 580.5,-63.5 "/>
<text text-anchor="start" x="427.5" y="-51.5" font-family="Helvetica,sans-Serif" font-size="10.00"># override void OnStart()</text>
<text text-anchor="start" x="427.5" y="-40.5" font-family="Helvetica,sans-Serif" font-size="10.00"># override bool OnUpdateJumping</text>
<text text-anchor="start" x="427.5" y="-29.5" font-family="Helvetica,sans-Serif" font-size="10.00">StateStart()</text>
<text text-anchor="start" x="427.5" y="-18.5" font-family="Helvetica,sans-Serif" font-size="10.00"># override void OnUpdateJumping</text>
<text text-anchor="start" x="427.5" y="-7.5" font-family="Helvetica,sans-Serif" font-size="10.00">StateEnd()</text>
</a>
</g>
</g>
<!-- Node2 -->
<g id="node2" class="node">
<title>Node2</title>
<g id="a_node2"><a xlink:href="class_controllers_1_1_base_controller.html" target="_top" xlink:title=" ">
<polygon fill="none" stroke="black" points="413.5,-150.5 413.5,-515.5 586.5,-515.5 586.5,-150.5 413.5,-150.5"/>
<text text-anchor="middle" x="500" y="-503.5" font-family="Helvetica,sans-Serif" font-size="10.00">BaseController</text>
<polyline fill="none" stroke="black" points="413.5,-496.5 586.5,-496.5 "/>
<text text-anchor="middle" x="500" y="-484.5" font-family="Helvetica,sans-Serif" font-size="10.00"> </text>
<polyline fill="none" stroke="black" points="413.5,-477.5 586.5,-477.5 "/>
<text text-anchor="start" x="421.5" y="-465.5" font-family="Helvetica,sans-Serif" font-size="10.00">+ void SwitchStates(ECharacter</text>
<text text-anchor="start" x="421.5" y="-454.5" font-family="Helvetica,sans-Serif" font-size="10.00">State nextState)</text>
<text text-anchor="start" x="421.5" y="-443.5" font-family="Helvetica,sans-Serif" font-size="10.00">+ T GetMovementController</text>
<text text-anchor="start" x="421.5" y="-432.5" font-family="Helvetica,sans-Serif" font-size="10.00">&lt; T &gt;()</text>
<text text-anchor="start" x="421.5" y="-421.5" font-family="Helvetica,sans-Serif" font-size="10.00">+ Animator GetAnimator()</text>
<text text-anchor="start" x="421.5" y="-410.5" font-family="Helvetica,sans-Serif" font-size="10.00">+ GameObject GetDialogueBubble()</text>
<text text-anchor="start" x="421.5" y="-399.5" font-family="Helvetica,sans-Serif" font-size="10.00">+ virtual void Damage</text>
<text text-anchor="start" x="421.5" y="-388.5" font-family="Helvetica,sans-Serif" font-size="10.00">(float amount, int attackN)</text>
<text text-anchor="start" x="421.5" y="-377.5" font-family="Helvetica,sans-Serif" font-size="10.00">+ void Kill()</text>
<text text-anchor="start" x="421.5" y="-366.5" font-family="Helvetica,sans-Serif" font-size="10.00">+ bool Interact(BaseController</text>
<text text-anchor="start" x="421.5" y="-355.5" font-family="Helvetica,sans-Serif" font-size="10.00"> controller, EInteractionKind</text>
<text text-anchor="start" x="421.5" y="-344.5" font-family="Helvetica,sans-Serif" font-size="10.00"> interactionKind)</text>
<text text-anchor="start" x="421.5" y="-333.5" font-family="Helvetica,sans-Serif" font-size="10.00">+ bool Interact(PlayerController</text>
<text text-anchor="start" x="421.5" y="-322.5" font-family="Helvetica,sans-Serif" font-size="10.00"> controller, EInteractionKind</text>
<text text-anchor="start" x="421.5" y="-311.5" font-family="Helvetica,sans-Serif" font-size="10.00"> interactionKind)</text>
<text text-anchor="start" x="421.5" y="-300.5" font-family="Helvetica,sans-Serif" font-size="10.00">+ void ReadyToInteract</text>
<text text-anchor="start" x="421.5" y="-289.5" font-family="Helvetica,sans-Serif" font-size="10.00">(PlayerController controller,</text>
<text text-anchor="start" x="421.5" y="-278.5" font-family="Helvetica,sans-Serif" font-size="10.00"> bool isReady)</text>
<text text-anchor="start" x="421.5" y="-267.5" font-family="Helvetica,sans-Serif" font-size="10.00">+ void ReadyToInteract</text>
<text text-anchor="start" x="421.5" y="-256.5" font-family="Helvetica,sans-Serif" font-size="10.00">(BaseController controller,</text>
<text text-anchor="start" x="421.5" y="-245.5" font-family="Helvetica,sans-Serif" font-size="10.00"> bool isReady)</text>
<text text-anchor="start" x="421.5" y="-234.5" font-family="Helvetica,sans-Serif" font-size="10.00"># virtual void OnStart()</text>
<text text-anchor="start" x="421.5" y="-223.5" font-family="Helvetica,sans-Serif" font-size="10.00"># virtual void OnUpdate()</text>
<text text-anchor="start" x="421.5" y="-212.5" font-family="Helvetica,sans-Serif" font-size="10.00"># virtual void OnFixedUpdate()</text>
<text text-anchor="start" x="421.5" y="-201.5" font-family="Helvetica,sans-Serif" font-size="10.00"># virtual void DrawGizmos()</text>
<text text-anchor="start" x="421.5" y="-190.5" font-family="Helvetica,sans-Serif" font-size="10.00"># virtual bool OnUpdateJumping</text>
<text text-anchor="start" x="421.5" y="-179.5" font-family="Helvetica,sans-Serif" font-size="10.00">StateStart()</text>
<text text-anchor="start" x="421.5" y="-168.5" font-family="Helvetica,sans-Serif" font-size="10.00"># virtual void OnUpdateJumping</text>
<text text-anchor="start" x="421.5" y="-157.5" font-family="Helvetica,sans-Serif" font-size="10.00">StateEnd()</text>
</a>
</g>
</g>
<!-- Node2&#45;&gt;Node1 -->
<g id="edge1" class="edge">
<title>Node2&#45;&gt;Node1</title>
<path fill="none" stroke="midnightblue" d="M500,-140.16C500,-130.44 500,-121.16 500,-112.56"/>
<polygon fill="none" stroke="midnightblue" points="496.5,-140.43 500,-150.43 503.5,-140.43 496.5,-140.43"/>
</g>
<!-- Node3 -->
<g id="node3" class="node">
<title>Node3</title>
<g id="a_node3"><a xlink:href="interface_controllers_1_1_i_damageable.html" target="_top" xlink:title="Interfaz para todos los NPCs/Enemigos/Objetos que pueden ser daniados.">
<polygon fill="none" stroke="black" points="0,-613 0,-692 140,-692 140,-613 0,-613"/>
<text text-anchor="middle" x="70" y="-680" font-family="Helvetica,sans-Serif" font-size="10.00">IDamageable</text>
<polyline fill="none" stroke="black" points="0,-673 140,-673 "/>
<text text-anchor="middle" x="70" y="-661" font-family="Helvetica,sans-Serif" font-size="10.00"> </text>
<polyline fill="none" stroke="black" points="0,-654 140,-654 "/>
<text text-anchor="start" x="8" y="-642" font-family="Helvetica,sans-Serif" font-size="10.00">+ void Damage(float amount,</text>
<text text-anchor="start" x="8" y="-631" font-family="Helvetica,sans-Serif" font-size="10.00"> int attackN)</text>
<text text-anchor="start" x="8" y="-620" font-family="Helvetica,sans-Serif" font-size="10.00">+ void Kill()</text>
</a>
</g>
</g>
<!-- Node3&#45;&gt;Node2 -->
<g id="edge2" class="edge">
<title>Node3&#45;&gt;Node2</title>
<path fill="none" stroke="midnightblue" d="M107.37,-605.04C119.87,-590.79 134.37,-575.57 149,-563 232.31,-491.38 339.46,-424.58 413.34,-381.82"/>
<polygon fill="none" stroke="midnightblue" points="104.53,-602.97 100.64,-612.83 109.82,-607.55 104.53,-602.97"/>
</g>
<!-- Node4 -->
<g id="node4" class="node">
<title>Node4</title>
<g id="a_node4"><a xlink:href="interface_interactions_1_1_interfaces_1_1_i_interactive.html" target="_top" xlink:title=" ">
<polygon fill="none" stroke="black" points="158.5,-563.5 158.5,-741.5 309.5,-741.5 309.5,-563.5 158.5,-563.5"/>
<text text-anchor="middle" x="234" y="-729.5" font-family="Helvetica,sans-Serif" font-size="10.00">IInteractive</text>
<polyline fill="none" stroke="black" points="158.5,-722.5 309.5,-722.5 "/>
<text text-anchor="middle" x="234" y="-710.5" font-family="Helvetica,sans-Serif" font-size="10.00"> </text>
<polyline fill="none" stroke="black" points="158.5,-703.5 309.5,-703.5 "/>
<text text-anchor="start" x="166.5" y="-691.5" font-family="Helvetica,sans-Serif" font-size="10.00">+ bool Interact(BaseController</text>
<text text-anchor="start" x="166.5" y="-680.5" font-family="Helvetica,sans-Serif" font-size="10.00"> controller, EInteractionKind</text>
<text text-anchor="start" x="166.5" y="-669.5" font-family="Helvetica,sans-Serif" font-size="10.00"> interactionKind)</text>
<text text-anchor="start" x="166.5" y="-658.5" font-family="Helvetica,sans-Serif" font-size="10.00">+ bool Interact(PlayerController</text>
<text text-anchor="start" x="166.5" y="-647.5" font-family="Helvetica,sans-Serif" font-size="10.00"> controller, EInteractionKind</text>
<text text-anchor="start" x="166.5" y="-636.5" font-family="Helvetica,sans-Serif" font-size="10.00"> interactionKind)</text>
<text text-anchor="start" x="166.5" y="-625.5" font-family="Helvetica,sans-Serif" font-size="10.00">+ void ReadyToInteract</text>
<text text-anchor="start" x="166.5" y="-614.5" font-family="Helvetica,sans-Serif" font-size="10.00">(PlayerController controller,</text>
<text text-anchor="start" x="166.5" y="-603.5" font-family="Helvetica,sans-Serif" font-size="10.00"> bool isReady)</text>
<text text-anchor="start" x="166.5" y="-592.5" font-family="Helvetica,sans-Serif" font-size="10.00">+ void ReadyToInteract</text>
<text text-anchor="start" x="166.5" y="-581.5" font-family="Helvetica,sans-Serif" font-size="10.00">(BaseController controller,</text>
<text text-anchor="start" x="166.5" y="-570.5" font-family="Helvetica,sans-Serif" font-size="10.00"> bool isReady)</text>
</a>
</g>
</g>
<!-- Node4&#45;&gt;Node2 -->
<g id="edge3" class="edge">
<title>Node4&#45;&gt;Node2</title>
<path fill="none" stroke="midnightblue" d="M314.34,-555.6C345.62,-518.27 381.53,-475.4 413.39,-437.38"/>
<polygon fill="none" stroke="midnightblue" points="311.48,-553.57 307.74,-563.48 316.85,-558.06 311.48,-553.57"/>
</g>
<!-- Node5 -->
<g id="node5" class="node">
<title>Node5</title>
<g id="a_node5"><a xlink:title=" ">
<polygon fill="none" stroke="#bfbfbf" points="327.5,-624 327.5,-681 398.5,-681 398.5,-624 327.5,-624"/>
<text text-anchor="middle" x="363" y="-669" font-family="Helvetica,sans-Serif" font-size="10.00">Rigidbody2D</text>
<polyline fill="none" stroke="#bfbfbf" points="327.5,-662 398.5,-662 "/>
<text text-anchor="middle" x="363" y="-650" font-family="Helvetica,sans-Serif" font-size="10.00"> </text>
<polyline fill="none" stroke="#bfbfbf" points="327.5,-643 398.5,-643 "/>
<text text-anchor="middle" x="363" y="-631" font-family="Helvetica,sans-Serif" font-size="10.00"> </text>
</a>
</g>
</g>
<!-- Node5&#45;&gt;Node2 -->
<g id="edge4" class="edge">
<title>Node5&#45;&gt;Node2</title>
<path fill="none" stroke="#404040" d="M363.93,-623.69C365.47,-599.4 369.49,-563.51 380,-534 387.37,-513.31 397,-492.4 407.61,-472.3"/>
<polygon fill="none" stroke="#404040" points="407.72,-472.11 407.05,-464.93 413.42,-461.55 414.09,-468.73 407.72,-472.11"/>
<text text-anchor="middle" x="410" y="-537" font-family="Helvetica,sans-Serif" font-size="10.00"> #rigidbody2D</text>
</g>
<!-- Node6 -->
<g id="node6" class="node">
<title>Node6</title>
<g id="a_node6"><a xlink:title=" ">
<polygon fill="none" stroke="#bfbfbf" points="417,-624 417,-681 473,-681 473,-624 417,-624"/>
<text text-anchor="middle" x="445" y="-669" font-family="Helvetica,sans-Serif" font-size="10.00">Animator</text>
<polyline fill="none" stroke="#bfbfbf" points="417,-662 473,-662 "/>
<text text-anchor="middle" x="445" y="-650" font-family="Helvetica,sans-Serif" font-size="10.00"> </text>
<polyline fill="none" stroke="#bfbfbf" points="417,-643 473,-643 "/>
<text text-anchor="middle" x="445" y="-631" font-family="Helvetica,sans-Serif" font-size="10.00"> </text>
</a>
</g>
</g>
<!-- Node6&#45;&gt;Node2 -->
<g id="edge5" class="edge">
<title>Node6&#45;&gt;Node2</title>
<path fill="none" stroke="#404040" d="M443.26,-623.82C442.22,-599.92 441.82,-564.52 446,-534 446.29,-531.92 446.59,-529.83 446.9,-527.73"/>
<polygon fill="none" stroke="#404040" points="446.94,-527.48 443.95,-520.92 448.85,-515.63 451.85,-522.19 446.94,-527.48"/>
<text text-anchor="middle" x="490" y="-537" font-family="Helvetica,sans-Serif" font-size="10.00"> #characterAnimator</text>
</g>
<!-- Node7 -->
<g id="node7" class="node">
<title>Node7</title>
<g id="a_node7"><a xlink:href="class_controllers_1_1_movement_1_1_base_movement_controller.html" target="_top" xlink:title=" ">
<polygon fill="none" stroke="black" points="491,-618.5 491,-686.5 627,-686.5 627,-618.5 491,-618.5"/>
<text text-anchor="start" x="499" y="-674.5" font-family="Helvetica,sans-Serif" font-size="10.00">Controllers.Movement.Base</text>
<text text-anchor="middle" x="559" y="-663.5" font-family="Helvetica,sans-Serif" font-size="10.00">MovementController</text>
<polyline fill="none" stroke="black" points="491,-656.5 627,-656.5 "/>
<text text-anchor="middle" x="559" y="-644.5" font-family="Helvetica,sans-Serif" font-size="10.00"> </text>
<polyline fill="none" stroke="black" points="491,-637.5 627,-637.5 "/>
<text text-anchor="middle" x="559" y="-625.5" font-family="Helvetica,sans-Serif" font-size="10.00"> </text>
</a>
</g>
</g>
<!-- Node7&#45;&gt;Node2 -->
<g id="edge6" class="edge">
<title>Node7&#45;&gt;Node2</title>
<path fill="none" stroke="#404040" d="M552.85,-618.42C548.58,-595.45 542.51,-562.75 535.99,-527.66"/>
<polygon fill="none" stroke="#404040" points="535.95,-527.48 530.93,-522.31 533.76,-515.68 538.79,-520.85 535.95,-527.48"/>
<text text-anchor="middle" x="595.5" y="-537" font-family="Helvetica,sans-Serif" font-size="10.00"> #baseMovementController</text>
</g>
<!-- Node8 -->
<g id="node8" class="node">
<title>Node8</title>
<g id="a_node8"><a xlink:title=" ">
<polygon fill="none" stroke="#bfbfbf" points="648,-624 648,-681 732,-681 732,-624 648,-624"/>
<text text-anchor="middle" x="690" y="-669" font-family="Helvetica,sans-Serif" font-size="10.00">EControllerKind</text>
<polyline fill="none" stroke="#bfbfbf" points="648,-662 732,-662 "/>
<text text-anchor="middle" x="690" y="-650" font-family="Helvetica,sans-Serif" font-size="10.00"> </text>
<polyline fill="none" stroke="#bfbfbf" points="648,-643 732,-643 "/>
<text text-anchor="middle" x="690" y="-631" font-family="Helvetica,sans-Serif" font-size="10.00"> </text>
</a>
</g>
</g>
<!-- Node8&#45;&gt;Node2 -->
<g id="edge7" class="edge">
<title>Node8&#45;&gt;Node2</title>
<path fill="none" stroke="#404040" d="M685.4,-623.78C680.59,-599.23 671.67,-562.91 657,-534 640.1,-500.7 617.22,-467.57 594.17,-438.13"/>
<polygon fill="none" stroke="#404040" points="594.15,-438.11 587.28,-435.89 586.68,-428.71 593.55,-430.92 594.15,-438.11"/>
<text text-anchor="middle" x="695" y="-537" font-family="Helvetica,sans-Serif" font-size="10.00"> #controllerKind</text>
</g>
<!-- Node9 -->
<g id="node9" class="node">
<title>Node9</title>
<g id="a_node9"><a xlink:title=" ">
<polygon fill="none" stroke="#bfbfbf" points="867.5,-1054 867.5,-1111 902.5,-1111 902.5,-1054 867.5,-1054"/>
<text text-anchor="middle" x="885" y="-1099" font-family="Helvetica,sans-Serif" font-size="10.00">bool</text>
<polyline fill="none" stroke="#bfbfbf" points="867.5,-1092 902.5,-1092 "/>
<text text-anchor="middle" x="885" y="-1080" font-family="Helvetica,sans-Serif" font-size="10.00"> </text>
<polyline fill="none" stroke="#bfbfbf" points="867.5,-1073 902.5,-1073 "/>
<text text-anchor="middle" x="885" y="-1061" font-family="Helvetica,sans-Serif" font-size="10.00"> </text>
</a>
</g>
</g>
<!-- Node9&#45;&gt;Node2 -->
<g id="edge8" class="edge">
<title>Node9&#45;&gt;Node2</title>
<path fill="none" stroke="#404040" d="M902.86,-1065.12C923.63,-1044.73 956.78,-1007.71 970,-968 1027.63,-794.9 1015.55,-706.59 903,-563 824.73,-463.14 690,-399.42 598.04,-365.2"/>
<polygon fill="none" stroke="#404040" points="598.04,-365.2 591.03,-366.89 586.77,-361.07 593.78,-359.38 598.04,-365.2"/>
<text text-anchor="middle" x="1054.5" y="-774" font-family="Helvetica,sans-Serif" font-size="10.00"> #playerFacingDirection</text>
<text text-anchor="middle" x="1054.5" y="-763" font-family="Helvetica,sans-Serif" font-size="10.00">#playerOnLeft</text>
</g>
<!-- Node10 -->
<g id="node10" class="node">
<title>Node10</title>
<g id="a_node10"><a xlink:href="class_player_1_1_player_controller.html" target="_top" xlink:title=" ">
<polygon fill="none" stroke="black" points="750.5,-574.5 750.5,-730.5 893.5,-730.5 893.5,-574.5 750.5,-574.5"/>
<text text-anchor="middle" x="822" y="-718.5" font-family="Helvetica,sans-Serif" font-size="10.00">Player.PlayerController</text>
<polyline fill="none" stroke="black" points="750.5,-711.5 893.5,-711.5 "/>
<text text-anchor="middle" x="822" y="-699.5" font-family="Helvetica,sans-Serif" font-size="10.00"> </text>
<polyline fill="none" stroke="black" points="750.5,-692.5 893.5,-692.5 "/>
<text text-anchor="start" x="758.5" y="-680.5" font-family="Helvetica,sans-Serif" font-size="10.00">+ void EnterInteractionMode()</text>
<text text-anchor="start" x="758.5" y="-669.5" font-family="Helvetica,sans-Serif" font-size="10.00">+ void LandEvt()</text>
<text text-anchor="start" x="758.5" y="-658.5" font-family="Helvetica,sans-Serif" font-size="10.00">+ void OnAirEvt()</text>
<text text-anchor="start" x="758.5" y="-647.5" font-family="Helvetica,sans-Serif" font-size="10.00">+ bool IsFacingRight()</text>
<text text-anchor="start" x="758.5" y="-636.5" font-family="Helvetica,sans-Serif" font-size="10.00">+ void AnimStartPrayingEvt()</text>
<text text-anchor="start" x="758.5" y="-625.5" font-family="Helvetica,sans-Serif" font-size="10.00">+ void AnimRollEndEvt()</text>
<text text-anchor="start" x="758.5" y="-614.5" font-family="Helvetica,sans-Serif" font-size="10.00">+ void AnimFootStep1Evt()</text>
<text text-anchor="start" x="758.5" y="-603.5" font-family="Helvetica,sans-Serif" font-size="10.00">+ void AnimFootStep2Evt()</text>
<text text-anchor="start" x="758.5" y="-592.5" font-family="Helvetica,sans-Serif" font-size="10.00">~ void OnEnable()</text>
<text text-anchor="start" x="758.5" y="-581.5" font-family="Helvetica,sans-Serif" font-size="10.00">~ void OnDisable()</text>
</a>
</g>
</g>
<!-- Node9&#45;&gt;Node10 -->
<g id="edge19" class="edge">
<title>Node9&#45;&gt;Node10</title>
<path fill="none" stroke="#404040" d="M881.41,-1053.9C874.78,-1003.44 860.05,-892.93 846,-800 843.19,-781.41 840.03,-761.52 836.95,-742.58"/>
<polygon fill="none" stroke="#404040" points="836.93,-742.46 832.02,-737.18 835,-730.62 839.91,-735.89 836.93,-742.46"/>
<text text-anchor="middle" x="917.5" y="-903.5" font-family="Helvetica,sans-Serif" font-size="10.00"> +isEnrolledInDialogue</text>
<text text-anchor="middle" x="917.5" y="-892.5" font-family="Helvetica,sans-Serif" font-size="10.00">~awaitingAttack</text>
<text text-anchor="middle" x="917.5" y="-881.5" font-family="Helvetica,sans-Serif" font-size="10.00">~praying</text>
<text text-anchor="middle" x="917.5" y="-870.5" font-family="Helvetica,sans-Serif" font-size="10.00">~respawning</text>
<text text-anchor="middle" x="917.5" y="-859.5" font-family="Helvetica,sans-Serif" font-size="10.00">~roll</text>
</g>
<!-- Node11 -->
<g id="node11" class="node">
<title>Node11</title>
<g id="a_node11"><a xlink:href="class_player_1_1_player_movement_controller.html" target="_top" xlink:title=" ">
<polygon fill="none" stroke="black" points="532.5,-800.5 532.5,-967.5 693.5,-967.5 693.5,-800.5 532.5,-800.5"/>
<text text-anchor="middle" x="613" y="-955.5" font-family="Helvetica,sans-Serif" font-size="10.00">Player.PlayerMovementController</text>
<polyline fill="none" stroke="black" points="532.5,-948.5 693.5,-948.5 "/>
<text text-anchor="middle" x="613" y="-936.5" font-family="Helvetica,sans-Serif" font-size="10.00"> </text>
<polyline fill="none" stroke="black" points="532.5,-929.5 693.5,-929.5 "/>
<text text-anchor="start" x="540.5" y="-917.5" font-family="Helvetica,sans-Serif" font-size="10.00">+ void Move(float moveH,</text>
<text text-anchor="start" x="540.5" y="-906.5" font-family="Helvetica,sans-Serif" font-size="10.00"> float moveV, bool crouch,</text>
<text text-anchor="start" x="540.5" y="-895.5" font-family="Helvetica,sans-Serif" font-size="10.00"> bool jump, bool roll, bool</text>
<text text-anchor="start" x="540.5" y="-884.5" font-family="Helvetica,sans-Serif" font-size="10.00"> attacking)</text>
<text text-anchor="start" x="540.5" y="-873.5" font-family="Helvetica,sans-Serif" font-size="10.00">+ bool IsFacingRight()</text>
<text text-anchor="start" x="540.5" y="-862.5" font-family="Helvetica,sans-Serif" font-size="10.00">+ void EnableFlip()</text>
<text text-anchor="start" x="540.5" y="-851.5" font-family="Helvetica,sans-Serif" font-size="10.00">+ void DisableFlip()</text>
<text text-anchor="start" x="540.5" y="-840.5" font-family="Helvetica,sans-Serif" font-size="10.00">~ void AttackMovement</text>
<text text-anchor="start" x="540.5" y="-829.5" font-family="Helvetica,sans-Serif" font-size="10.00">(int power)</text>
<text text-anchor="start" x="540.5" y="-818.5" font-family="Helvetica,sans-Serif" font-size="10.00">~ void PrepareRespawn</text>
<text text-anchor="start" x="540.5" y="-807.5" font-family="Helvetica,sans-Serif" font-size="10.00">(Transform SpawnPoint)</text>
</a>
</g>
</g>
<!-- Node9&#45;&gt;Node11 -->
<g id="edge17" class="edge">
<title>Node9&#45;&gt;Node11</title>
<path fill="none" stroke="#404040" d="M867.32,-1073.55C847.93,-1064.42 816.32,-1048.32 792,-1030 769.91,-1013.36 768.9,-1004.11 748,-986 734.03,-973.89 718.73,-961.61 703.61,-949.98"/>
<polygon fill="none" stroke="#404040" points="703.26,-949.72 696.07,-949.26 693.72,-942.44 700.92,-942.9 703.26,-949.72"/>
<text text-anchor="middle" x="831.5" y="-1016.5" font-family="Helvetica,sans-Serif" font-size="10.00"> ~Grounded</text>
<text text-anchor="middle" x="831.5" y="-1005.5" font-family="Helvetica,sans-Serif" font-size="10.00">~IsTouchingLedge</text>
<text text-anchor="middle" x="831.5" y="-994.5" font-family="Helvetica,sans-Serif" font-size="10.00">~IsTouchingWall</text>
</g>
<!-- Node10&#45;&gt;Node2 -->
<g id="edge9" class="edge">
<title>Node10&#45;&gt;Node2</title>
<path fill="none" stroke="#404040" d="M767.31,-574.35C756.44,-560.49 744.75,-546.49 733,-534 691.06,-489.41 639.87,-444.59 596.16,-408.71"/>
<polygon fill="none" stroke="#404040" points="595.96,-408.55 588.78,-407.85 586.66,-400.96 593.84,-401.65 595.96,-408.55"/>
<text text-anchor="middle" x="779" y="-537" font-family="Helvetica,sans-Serif" font-size="10.00"> #playerController</text>
</g>
<!-- Node11&#45;&gt;Node10 -->
<g id="edge10" class="edge">
<title>Node11&#45;&gt;Node10</title>
<path fill="none" stroke="#404040" d="M624.44,-800.44C629.98,-785.24 638.11,-770.79 650,-760 680.53,-732.29 705.07,-762.21 741,-742 743.36,-740.67 745.69,-739.25 747.98,-737.75"/>
<polygon fill="none" stroke="#404040" points="748.07,-737.69 750.62,-730.94 757.82,-730.69 755.28,-737.44 748.07,-737.69"/>
<text text-anchor="middle" x="697" y="-768.5" font-family="Helvetica,sans-Serif" font-size="10.00"> #playerMovementCtrl</text>
</g>
<!-- Node12 -->
<g id="node12" class="node">
<title>Node12</title>
<g id="a_node12"><a xlink:title=" ">
<polygon fill="none" stroke="#bfbfbf" points="621.5,-1054 621.5,-1111 704.5,-1111 704.5,-1054 621.5,-1054"/>
<text text-anchor="middle" x="663" y="-1099" font-family="Helvetica,sans-Serif" font-size="10.00">MonoBehaviour</text>
<polyline fill="none" stroke="#bfbfbf" points="621.5,-1092 704.5,-1092 "/>
<text text-anchor="middle" x="663" y="-1080" font-family="Helvetica,sans-Serif" font-size="10.00"> </text>
<polyline fill="none" stroke="#bfbfbf" points="621.5,-1073 704.5,-1073 "/>
<text text-anchor="middle" x="663" y="-1061" font-family="Helvetica,sans-Serif" font-size="10.00"> </text>
</a>
</g>
</g>
<!-- Node12&#45;&gt;Node11 -->
<g id="edge11" class="edge">
<title>Node12&#45;&gt;Node11</title>
<path fill="none" stroke="midnightblue" d="M634.35,-1045.25C631.47,-1040.33 628.91,-1035.18 627,-1030 619.78,-1010.42 615.76,-988.4 613.63,-967.55"/>
<polygon fill="none" stroke="midnightblue" points="631.49,-1047.27 639.82,-1053.83 637.4,-1043.51 631.49,-1047.27"/>
</g>
<!-- Node13 -->
<g id="node13" class="node">
<title>Node13</title>
<g id="a_node13"><a xlink:href="class_player_1_1_player_movement_controller_1_1_bool_event.html" target="_top" xlink:title=" ">
<polygon fill="none" stroke="black" points="439,-1048.5 439,-1116.5 603,-1116.5 603,-1048.5 439,-1048.5"/>
<text text-anchor="start" x="447" y="-1104.5" font-family="Helvetica,sans-Serif" font-size="10.00">Player.PlayerMovementController.</text>
<text text-anchor="middle" x="521" y="-1093.5" font-family="Helvetica,sans-Serif" font-size="10.00">BoolEvent</text>
<polyline fill="none" stroke="black" points="439,-1086.5 603,-1086.5 "/>
<text text-anchor="middle" x="521" y="-1074.5" font-family="Helvetica,sans-Serif" font-size="10.00"> </text>
<polyline fill="none" stroke="black" points="439,-1067.5 603,-1067.5 "/>
<text text-anchor="middle" x="521" y="-1055.5" font-family="Helvetica,sans-Serif" font-size="10.00"> </text>
</a>
</g>
</g>
<!-- Node13&#45;&gt;Node11 -->
<g id="edge12" class="edge">
<title>Node13&#45;&gt;Node11</title>
<path fill="none" stroke="#404040" d="M521.75,-1048.11C523.17,-1029.24 526.68,-1005.59 535,-986 536.07,-983.47 537.22,-980.95 538.45,-978.45"/>
<polygon fill="none" stroke="#404040" points="538.59,-978.17 537.86,-971 544.21,-967.56 544.94,-974.74 538.59,-978.17"/>
<text text-anchor="middle" x="573.5" y="-1005.5" font-family="Helvetica,sans-Serif" font-size="10.00"> +OnCrouchEvent</text>
</g>
<!-- Node14 -->
<g id="node14" class="node">
<title>Node14</title>
<g id="a_node14"><a xlink:title=" ">
<polygon fill="none" stroke="#bfbfbf" points="471.5,-1154.5 471.5,-1211.5 570.5,-1211.5 570.5,-1154.5 471.5,-1154.5"/>
<text text-anchor="middle" x="521" y="-1199.5" font-family="Helvetica,sans-Serif" font-size="10.00">UnityEvent&lt; bool &gt;</text>
<polyline fill="none" stroke="#bfbfbf" points="471.5,-1192.5 570.5,-1192.5 "/>
<text text-anchor="middle" x="521" y="-1180.5" font-family="Helvetica,sans-Serif" font-size="10.00"> </text>
<polyline fill="none" stroke="#bfbfbf" points="471.5,-1173.5 570.5,-1173.5 "/>
<text text-anchor="middle" x="521" y="-1161.5" font-family="Helvetica,sans-Serif" font-size="10.00"> </text>
</a>
</g>
</g>
<!-- Node14&#45;&gt;Node13 -->
<g id="edge13" class="edge">
<title>Node14&#45;&gt;Node13</title>
<path fill="none" stroke="midnightblue" d="M521,-1144.01C521,-1134.96 521,-1125.38 521,-1116.58"/>
<polygon fill="none" stroke="midnightblue" points="517.5,-1144.3 521,-1154.3 524.5,-1144.3 517.5,-1144.3"/>
</g>
<!-- Node15 -->
<g id="node15" class="node">
<title>Node15</title>
<g id="a_node15"><a xlink:title=" ">
<polygon fill="none" stroke="#bfbfbf" points="283.5,-1054 283.5,-1111 346.5,-1111 346.5,-1054 283.5,-1054"/>
<text text-anchor="middle" x="315" y="-1099" font-family="Helvetica,sans-Serif" font-size="10.00">UnityEvent</text>
<polyline fill="none" stroke="#bfbfbf" points="283.5,-1092 346.5,-1092 "/>
<text text-anchor="middle" x="315" y="-1080" font-family="Helvetica,sans-Serif" font-size="10.00"> </text>
<polyline fill="none" stroke="#bfbfbf" points="283.5,-1073 346.5,-1073 "/>
<text text-anchor="middle" x="315" y="-1061" font-family="Helvetica,sans-Serif" font-size="10.00"> </text>
</a>
</g>
</g>
<!-- Node15&#45;&gt;Node11 -->
<g id="edge14" class="edge">
<title>Node15&#45;&gt;Node11</title>
<path fill="none" stroke="#404040" d="M324.18,-1053.95C332.45,-1032.87 346.48,-1004.4 367,-986 410.37,-947.12 470.75,-922.03 520.83,-906.58"/>
<polygon fill="none" stroke="#404040" points="520.84,-906.58 525.44,-901.03 532.33,-903.14 527.73,-908.69 520.84,-906.58"/>
<text text-anchor="middle" x="399" y="-1011" font-family="Helvetica,sans-Serif" font-size="10.00"> +OnAirEvent</text>
<text text-anchor="middle" x="399" y="-1000" font-family="Helvetica,sans-Serif" font-size="10.00">+OnLandEvent</text>
</g>
<!-- Node16 -->
<g id="node16" class="node">
<title>Node16</title>
<g id="a_node16"><a xlink:title=" ">
<polygon fill="none" stroke="#bfbfbf" points="731.5,-1054 731.5,-1111 766.5,-1111 766.5,-1054 731.5,-1054"/>
<text text-anchor="middle" x="749" y="-1099" font-family="Helvetica,sans-Serif" font-size="10.00">float</text>
<polyline fill="none" stroke="#bfbfbf" points="731.5,-1092 766.5,-1092 "/>
<text text-anchor="middle" x="749" y="-1080" font-family="Helvetica,sans-Serif" font-size="10.00"> </text>
<polyline fill="none" stroke="#bfbfbf" points="731.5,-1073 766.5,-1073 "/>
<text text-anchor="middle" x="749" y="-1061" font-family="Helvetica,sans-Serif" font-size="10.00"> </text>
</a>
</g>
</g>
<!-- Node16&#45;&gt;Node10 -->
<g id="edge18" class="edge">
<title>Node16&#45;&gt;Node10</title>
<path fill="none" stroke="#404040" d="M748.56,-1053.83C747.8,-992.68 747.24,-847.7 758,-800 762.37,-780.63 769.3,-760.64 777.01,-741.89"/>
<polygon fill="none" stroke="#404040" points="777.07,-741.75 775.74,-734.66 781.77,-730.71 783.1,-737.79 777.07,-741.75"/>
<text text-anchor="middle" x="800" y="-881.5" font-family="Helvetica,sans-Serif" font-size="10.00"> #interactionRadius</text>
</g>
<!-- Node16&#45;&gt;Node11 -->
<g id="edge15" class="edge">
<title>Node16&#45;&gt;Node11</title>
<path fill="none" stroke="#404040" d="M731.17,-1061.15C726.04,-1056.27 720.16,-1051.47 714,-1048 687.14,-1032.87 668.45,-1052.15 647,-1030 639.07,-1021.81 632.57,-1002.08 627.46,-979.71"/>
<polygon fill="none" stroke="#404040" points="627.43,-979.56 622.26,-974.53 624.91,-967.83 630.08,-972.86 627.43,-979.56"/>
<text text-anchor="middle" x="695.5" y="-1022" font-family="Helvetica,sans-Serif" font-size="10.00"> +LedgeClimbXOffset1</text>
<text text-anchor="middle" x="695.5" y="-1011" font-family="Helvetica,sans-Serif" font-size="10.00">+LedgeClimbXOffset2</text>
<text text-anchor="middle" x="695.5" y="-1000" font-family="Helvetica,sans-Serif" font-size="10.00">+LedgeClimbYOffset1</text>
<text text-anchor="middle" x="695.5" y="-989" font-family="Helvetica,sans-Serif" font-size="10.00">+LedgeClimbYOffset2</text>
</g>
<!-- Node17 -->
<g id="node17" class="node">
<title>Node17</title>
<g id="a_node17"><a xlink:title=" ">
<polygon fill="none" stroke="#bfbfbf" points="371,-1054 371,-1111 421,-1111 421,-1054 371,-1054"/>
<text text-anchor="middle" x="396" y="-1099" font-family="Helvetica,sans-Serif" font-size="10.00">Vector3</text>
<polyline fill="none" stroke="#bfbfbf" points="371,-1092 421,-1092 "/>
<text text-anchor="middle" x="396" y="-1080" font-family="Helvetica,sans-Serif" font-size="10.00"> </text>
<polyline fill="none" stroke="#bfbfbf" points="371,-1073 421,-1073 "/>
<text text-anchor="middle" x="396" y="-1061" font-family="Helvetica,sans-Serif" font-size="10.00"> </text>
</a>
</g>
</g>
<!-- Node17&#45;&gt;Node11 -->
<g id="edge16" class="edge">
<title>Node17&#45;&gt;Node11</title>
<path fill="none" stroke="#404040" d="M415.48,-1053.97C430.32,-1033.98 451.91,-1006.88 474,-986 488.86,-971.96 505.73,-958.19 522.46,-945.56"/>
<polygon fill="none" stroke="#404040" points="522.65,-945.42 525.09,-938.63 532.29,-938.27 529.86,-945.06 522.65,-945.42"/>
<text text-anchor="middle" x="496.5" y="-1005.5" font-family="Helvetica,sans-Serif" font-size="10.00"> ~Velocity</text>
</g>
</g>
</svg>
