<?xml version="1.0" encoding="UTF-8" standalone="no"?>
<!DOCTYPE svg PUBLIC "-//W3C//DTD SVG 1.1//EN"
 "http://www.w3.org/Graphics/SVG/1.1/DTD/svg11.dtd">
<!-- Generated by graphviz version 2.48.0 (20210717.1556)
 -->
<!-- Title: Controllers.StateMachine.States.AttackState Pages: 1 -->
<svg width="1537pt" height="1411pt"
 viewBox="0.00 0.00 1536.50 1411.00" xmlns="http://www.w3.org/2000/svg" xmlns:xlink="http://www.w3.org/1999/xlink">
<g id="graph0" class="graph" transform="scale(1 1) rotate(0) translate(4 1407)">
<title>Controllers.StateMachine.States.AttackState</title>
<!-- Node1 -->
<g id="node1" class="node">
<title>Node1</title>
<g id="a_node1"><a xlink:title=" ">
<polygon fill="#bfbfbf" stroke="black" points="1269,-0.5 1269,-145.5 1449,-145.5 1449,-0.5 1269,-0.5"/>
<text text-anchor="start" x="1277" y="-133.5" font-family="Helvetica,sans-Serif" font-size="10.00">Controllers.StateMachine.</text>
<text text-anchor="middle" x="1359" y="-122.5" font-family="Helvetica,sans-Serif" font-size="10.00">States.AttackState</text>
<polyline fill="none" stroke="black" points="1269,-115.5 1449,-115.5 "/>
<text text-anchor="middle" x="1359" y="-103.5" font-family="Helvetica,sans-Serif" font-size="10.00"> </text>
<polyline fill="none" stroke="black" points="1269,-96.5 1449,-96.5 "/>
<text text-anchor="start" x="1277" y="-84.5" font-family="Helvetica,sans-Serif" font-size="10.00">+ AttackState(BaseController</text>
<text text-anchor="start" x="1277" y="-73.5" font-family="Helvetica,sans-Serif" font-size="10.00"> controller, ControllerStateMachine</text>
<text text-anchor="start" x="1277" y="-62.5" font-family="Helvetica,sans-Serif" font-size="10.00"> stateMachine, string animBoolName,</text>
<text text-anchor="start" x="1277" y="-51.5" font-family="Helvetica,sans-Serif" font-size="10.00"> AttackStateData stateData)</text>
<text text-anchor="start" x="1277" y="-40.5" font-family="Helvetica,sans-Serif" font-size="10.00">+ override void Enter()</text>
<text text-anchor="start" x="1277" y="-29.5" font-family="Helvetica,sans-Serif" font-size="10.00">+ override void Exit()</text>
<text text-anchor="start" x="1277" y="-18.5" font-family="Helvetica,sans-Serif" font-size="10.00">+ override void UpdateState()</text>
<text text-anchor="start" x="1277" y="-7.5" font-family="Helvetica,sans-Serif" font-size="10.00">+ override void UpdatePhysics()</text>
</a>
</g>
</g>
<!-- Node2 -->
<g id="node2" class="node">
<title>Node2</title>
<g id="a_node2"><a xlink:href="class_controllers_1_1_state_machine_1_1_state.html" target="_top" xlink:title="Clase base para los estados de cada personaje. Controla el ciclo de vida de cada estado (Enter,...">
<polygon fill="none" stroke="black" points="1189.5,-183.5 1189.5,-317.5 1334.5,-317.5 1334.5,-183.5 1189.5,-183.5"/>
<text text-anchor="middle" x="1262" y="-305.5" font-family="Helvetica,sans-Serif" font-size="10.00">State</text>
<polyline fill="none" stroke="black" points="1189.5,-298.5 1334.5,-298.5 "/>
<text text-anchor="middle" x="1262" y="-286.5" font-family="Helvetica,sans-Serif" font-size="10.00"> </text>
<polyline fill="none" stroke="black" points="1189.5,-279.5 1334.5,-279.5 "/>
<text text-anchor="start" x="1197.5" y="-267.5" font-family="Helvetica,sans-Serif" font-size="10.00">+ State(BaseController</text>
<text text-anchor="start" x="1197.5" y="-256.5" font-family="Helvetica,sans-Serif" font-size="10.00"> controller, ControllerState</text>
<text text-anchor="start" x="1197.5" y="-245.5" font-family="Helvetica,sans-Serif" font-size="10.00">Machine stateMachine, string</text>
<text text-anchor="start" x="1197.5" y="-234.5" font-family="Helvetica,sans-Serif" font-size="10.00"> animBoolName)</text>
<text text-anchor="start" x="1197.5" y="-223.5" font-family="Helvetica,sans-Serif" font-size="10.00">+ virtual void Enter()</text>
<text text-anchor="start" x="1197.5" y="-212.5" font-family="Helvetica,sans-Serif" font-size="10.00">+ virtual void Exit()</text>
<text text-anchor="start" x="1197.5" y="-201.5" font-family="Helvetica,sans-Serif" font-size="10.00">+ virtual void UpdateState()</text>
<text text-anchor="start" x="1197.5" y="-190.5" font-family="Helvetica,sans-Serif" font-size="10.00">+ virtual void UpdatePhysics()</text>
</a>
</g>
</g>
<!-- Node2&#45;&gt;Node1 -->
<g id="edge1" class="edge">
<title>Node2&#45;&gt;Node1</title>
<path fill="none" stroke="midnightblue" d="M1303.63,-174.18C1308.85,-164.74 1314.18,-155.1 1319.36,-145.72"/>
<polygon fill="none" stroke="midnightblue" points="1300.45,-172.71 1298.67,-183.15 1306.57,-176.09 1300.45,-172.71"/>
</g>
<!-- Node3 -->
<g id="node3" class="node">
<title>Node3</title>
<g id="a_node3"><a xlink:title=" ">
<polygon fill="none" stroke="#bfbfbf" points="622.5,-613 622.5,-670 663.5,-670 663.5,-613 622.5,-613"/>
<text text-anchor="middle" x="643" y="-658" font-family="Helvetica,sans-Serif" font-size="10.00">string</text>
<polyline fill="none" stroke="#bfbfbf" points="622.5,-651 663.5,-651 "/>
<text text-anchor="middle" x="643" y="-639" font-family="Helvetica,sans-Serif" font-size="10.00"> </text>
<polyline fill="none" stroke="#bfbfbf" points="622.5,-632 663.5,-632 "/>
<text text-anchor="middle" x="643" y="-620" font-family="Helvetica,sans-Serif" font-size="10.00"> </text>
</a>
</g>
</g>
<!-- Node3&#45;&gt;Node2 -->
<g id="edge2" class="edge">
<title>Node3&#45;&gt;Node2</title>
<path fill="none" stroke="#404040" d="M636.47,-612.78C625.3,-557.73 609.43,-434 673,-365 739.92,-292.37 1030.99,-265.06 1177.34,-255.78"/>
<polygon fill="none" stroke="#404040" points="1177.35,-255.78 1183.09,-251.42 1189.33,-255.04 1183.59,-259.4 1177.35,-255.78"/>
<text text-anchor="middle" x="748.5" y="-339" font-family="Helvetica,sans-Serif" font-size="10.00"> #animBoolName</text>
</g>
<!-- Node4 -->
<g id="node4" class="node">
<title>Node4</title>
<g id="a_node4"><a xlink:href="class_controllers_1_1_base_controller.html" target="_top" xlink:title=" ">
<polygon fill="none" stroke="black" points="681.5,-365.5 681.5,-917.5 854.5,-917.5 854.5,-365.5 681.5,-365.5"/>
<text text-anchor="middle" x="768" y="-905.5" font-family="Helvetica,sans-Serif" font-size="10.00">Controllers.BaseController</text>
<polyline fill="none" stroke="black" points="681.5,-898.5 854.5,-898.5 "/>
<text text-anchor="start" x="689.5" y="-886.5" font-family="Helvetica,sans-Serif" font-size="10.00">+ int FacingDirection</text>
<text text-anchor="start" x="689.5" y="-875.5" font-family="Helvetica,sans-Serif" font-size="10.00">+ bool IsReadyToAttack</text>
<text text-anchor="start" x="689.5" y="-864.5" font-family="Helvetica,sans-Serif" font-size="10.00">+ bool wallDetected</text>
<text text-anchor="start" x="689.5" y="-853.5" font-family="Helvetica,sans-Serif" font-size="10.00">+ bool groundDetected</text>
<text text-anchor="start" x="689.5" y="-842.5" font-family="Helvetica,sans-Serif" font-size="10.00">+ bool topDetected</text>
<polyline fill="none" stroke="black" points="681.5,-835.5 854.5,-835.5 "/>
<text text-anchor="start" x="689.5" y="-823.5" font-family="Helvetica,sans-Serif" font-size="10.00">+ void Flip()</text>
<text text-anchor="start" x="689.5" y="-812.5" font-family="Helvetica,sans-Serif" font-size="10.00">+ void SetVelocity(float</text>
<text text-anchor="start" x="689.5" y="-801.5" font-family="Helvetica,sans-Serif" font-size="10.00"> velocity)</text>
<text text-anchor="start" x="689.5" y="-790.5" font-family="Helvetica,sans-Serif" font-size="10.00">+ void AddForce(Vector2</text>
<text text-anchor="start" x="689.5" y="-779.5" font-family="Helvetica,sans-Serif" font-size="10.00"> newForce, bool isImpulse)</text>
<text text-anchor="start" x="689.5" y="-768.5" font-family="Helvetica,sans-Serif" font-size="10.00">+ void AddTorque(float</text>
<text text-anchor="start" x="689.5" y="-757.5" font-family="Helvetica,sans-Serif" font-size="10.00"> newTorque, bool isImpulse)</text>
<text text-anchor="start" x="689.5" y="-746.5" font-family="Helvetica,sans-Serif" font-size="10.00">+ T GetMovementController</text>
<text text-anchor="start" x="689.5" y="-735.5" font-family="Helvetica,sans-Serif" font-size="10.00">&lt; T &gt;()</text>
<text text-anchor="start" x="689.5" y="-724.5" font-family="Helvetica,sans-Serif" font-size="10.00">+ Animator GetAnimator()</text>
<text text-anchor="start" x="689.5" y="-713.5" font-family="Helvetica,sans-Serif" font-size="10.00">+ Transform GetTransfrom()</text>
<text text-anchor="start" x="689.5" y="-702.5" font-family="Helvetica,sans-Serif" font-size="10.00">+ GameObject GetDialogueBubble()</text>
<text text-anchor="start" x="689.5" y="-691.5" font-family="Helvetica,sans-Serif" font-size="10.00">+ bool CheckWall()</text>
<text text-anchor="start" x="689.5" y="-680.5" font-family="Helvetica,sans-Serif" font-size="10.00">+ bool CheckLedge()</text>
<text text-anchor="start" x="689.5" y="-669.5" font-family="Helvetica,sans-Serif" font-size="10.00">+ bool CheckGround()</text>
<text text-anchor="start" x="689.5" y="-658.5" font-family="Helvetica,sans-Serif" font-size="10.00">+ bool CheckPlayerInRange()</text>
<text text-anchor="start" x="689.5" y="-647.5" font-family="Helvetica,sans-Serif" font-size="10.00">+ void SwitchStates(ECharacter</text>
<text text-anchor="start" x="689.5" y="-636.5" font-family="Helvetica,sans-Serif" font-size="10.00">State nextState)</text>
<text text-anchor="start" x="689.5" y="-625.5" font-family="Helvetica,sans-Serif" font-size="10.00">+ void Anim_PreparingAttack</text>
<text text-anchor="start" x="689.5" y="-614.5" font-family="Helvetica,sans-Serif" font-size="10.00">Finished()</text>
<text text-anchor="start" x="689.5" y="-603.5" font-family="Helvetica,sans-Serif" font-size="10.00">+ virtual void Damage</text>
<text text-anchor="start" x="689.5" y="-592.5" font-family="Helvetica,sans-Serif" font-size="10.00">(float amount, int attackN)</text>
<text text-anchor="start" x="689.5" y="-581.5" font-family="Helvetica,sans-Serif" font-size="10.00">+ void Damage(BaseController</text>
<text text-anchor="start" x="689.5" y="-570.5" font-family="Helvetica,sans-Serif" font-size="10.00"> controller, DamageInfo</text>
<text text-anchor="start" x="689.5" y="-559.5" font-family="Helvetica,sans-Serif" font-size="10.00"> damageInfo)</text>
<text text-anchor="start" x="689.5" y="-548.5" font-family="Helvetica,sans-Serif" font-size="10.00">+ void Kill()</text>
<text text-anchor="start" x="689.5" y="-537.5" font-family="Helvetica,sans-Serif" font-size="10.00">+ bool Interact(BaseController</text>
<text text-anchor="start" x="689.5" y="-526.5" font-family="Helvetica,sans-Serif" font-size="10.00"> controller, EInteractionKind</text>
<text text-anchor="start" x="689.5" y="-515.5" font-family="Helvetica,sans-Serif" font-size="10.00"> interactionKind)</text>
<text text-anchor="start" x="689.5" y="-504.5" font-family="Helvetica,sans-Serif" font-size="10.00">+ bool Interact(PlayerController</text>
<text text-anchor="start" x="689.5" y="-493.5" font-family="Helvetica,sans-Serif" font-size="10.00"> controller, EInteractionKind</text>
<text text-anchor="start" x="689.5" y="-482.5" font-family="Helvetica,sans-Serif" font-size="10.00"> interactionKind)</text>
<text text-anchor="start" x="689.5" y="-471.5" font-family="Helvetica,sans-Serif" font-size="10.00">+ void ReadyToInteract</text>
<text text-anchor="start" x="689.5" y="-460.5" font-family="Helvetica,sans-Serif" font-size="10.00">(PlayerController controller,</text>
<text text-anchor="start" x="689.5" y="-449.5" font-family="Helvetica,sans-Serif" font-size="10.00"> bool isReady)</text>
<text text-anchor="start" x="689.5" y="-438.5" font-family="Helvetica,sans-Serif" font-size="10.00">+ void ReadyToInteract</text>
<text text-anchor="start" x="689.5" y="-427.5" font-family="Helvetica,sans-Serif" font-size="10.00">(BaseController controller,</text>
<text text-anchor="start" x="689.5" y="-416.5" font-family="Helvetica,sans-Serif" font-size="10.00"> bool isReady)</text>
<text text-anchor="start" x="689.5" y="-405.5" font-family="Helvetica,sans-Serif" font-size="10.00"># virtual void Start()</text>
<text text-anchor="start" x="689.5" y="-394.5" font-family="Helvetica,sans-Serif" font-size="10.00"># virtual void OnDrawGizmos()</text>
<text text-anchor="start" x="689.5" y="-383.5" font-family="Helvetica,sans-Serif" font-size="10.00"># virtual void OnEnterDead</text>
<text text-anchor="start" x="689.5" y="-372.5" font-family="Helvetica,sans-Serif" font-size="10.00">StateStart()</text>
</a>
</g>
</g>
<!-- Node4&#45;&gt;Node2 -->
<g id="edge3" class="edge">
<title>Node4&#45;&gt;Node2</title>
<path fill="none" stroke="#404040" d="M854.61,-572.3C946.19,-500.18 1089.59,-387.27 1179.55,-316.42"/>
<polygon fill="none" stroke="#404040" points="1179.74,-316.28 1181.98,-309.42 1189.17,-308.85 1186.93,-315.71 1179.74,-316.28"/>
<text text-anchor="middle" x="1166.5" y="-339" font-family="Helvetica,sans-Serif" font-size="10.00"> #controller</text>
</g>
<!-- Node5 -->
<g id="node5" class="node">
<title>Node5</title>
<g id="a_node5"><a xlink:href="interface_controllers_1_1_i_damageable.html" target="_top" xlink:title="Interfaz para todos los NPCs/Enemigos/Objetos que pueden ser daniados.">
<polygon fill="none" stroke="black" points="284,-1290.5 284,-1402.5 432,-1402.5 432,-1290.5 284,-1290.5"/>
<text text-anchor="middle" x="358" y="-1390.5" font-family="Helvetica,sans-Serif" font-size="10.00">IDamageable</text>
<polyline fill="none" stroke="black" points="284,-1383.5 432,-1383.5 "/>
<text text-anchor="middle" x="358" y="-1371.5" font-family="Helvetica,sans-Serif" font-size="10.00"> </text>
<polyline fill="none" stroke="black" points="284,-1364.5 432,-1364.5 "/>
<text text-anchor="start" x="292" y="-1352.5" font-family="Helvetica,sans-Serif" font-size="10.00">+ void Damage(float amount,</text>
<text text-anchor="start" x="292" y="-1341.5" font-family="Helvetica,sans-Serif" font-size="10.00"> int attackN)</text>
<text text-anchor="start" x="292" y="-1330.5" font-family="Helvetica,sans-Serif" font-size="10.00">+ void Damage(BaseController</text>
<text text-anchor="start" x="292" y="-1319.5" font-family="Helvetica,sans-Serif" font-size="10.00"> controller, DamageInfo</text>
<text text-anchor="start" x="292" y="-1308.5" font-family="Helvetica,sans-Serif" font-size="10.00"> damageInfo)</text>
<text text-anchor="start" x="292" y="-1297.5" font-family="Helvetica,sans-Serif" font-size="10.00">+ void Kill()</text>
</a>
</g>
</g>
<!-- Node5&#45;&gt;Node4 -->
<g id="edge4" class="edge">
<title>Node5&#45;&gt;Node4</title>
<path fill="none" stroke="midnightblue" d="M277.52,-1283.22C253.35,-1259.73 229.86,-1230.9 217,-1199 178.12,-1102.54 152.02,-1046.2 217,-965 253.71,-919.12 287.79,-944.09 346,-936 382.04,-930.99 643.96,-939.93 673,-918 675.83,-915.87 678.57,-913.64 681.23,-911.34"/>
<polygon fill="none" stroke="midnightblue" points="275.36,-1286 285.03,-1290.33 280.17,-1280.92 275.36,-1286"/>
</g>
<!-- Node18 -->
<g id="node18" class="node">
<title>Node18</title>
<g id="a_node18"><a xlink:href="class_player_1_1_player_controller.html" target="_top" xlink:title=" ">
<polygon fill="none" stroke="black" points="498,-965.5 498,-1198.5 646,-1198.5 646,-965.5 498,-965.5"/>
<text text-anchor="middle" x="572" y="-1186.5" font-family="Helvetica,sans-Serif" font-size="10.00">Player.PlayerController</text>
<polyline fill="none" stroke="black" points="498,-1179.5 646,-1179.5 "/>
<text text-anchor="middle" x="572" y="-1167.5" font-family="Helvetica,sans-Serif" font-size="10.00"> </text>
<polyline fill="none" stroke="black" points="498,-1160.5 646,-1160.5 "/>
<text text-anchor="start" x="506" y="-1148.5" font-family="Helvetica,sans-Serif" font-size="10.00">+ void Damage(float amount,</text>
<text text-anchor="start" x="506" y="-1137.5" font-family="Helvetica,sans-Serif" font-size="10.00"> int attackN)</text>
<text text-anchor="start" x="506" y="-1126.5" font-family="Helvetica,sans-Serif" font-size="10.00">+ void Damage(BaseController</text>
<text text-anchor="start" x="506" y="-1115.5" font-family="Helvetica,sans-Serif" font-size="10.00"> controller, DamageInfo</text>
<text text-anchor="start" x="506" y="-1104.5" font-family="Helvetica,sans-Serif" font-size="10.00"> damageInfo)</text>
<text text-anchor="start" x="506" y="-1093.5" font-family="Helvetica,sans-Serif" font-size="10.00">+ void Kill()</text>
<text text-anchor="start" x="506" y="-1082.5" font-family="Helvetica,sans-Serif" font-size="10.00">+ void EnterInteractionMode()</text>
<text text-anchor="start" x="506" y="-1071.5" font-family="Helvetica,sans-Serif" font-size="10.00">+ int GetFacingDirection()</text>
<text text-anchor="start" x="506" y="-1060.5" font-family="Helvetica,sans-Serif" font-size="10.00">+ void LandEvt()</text>
<text text-anchor="start" x="506" y="-1049.5" font-family="Helvetica,sans-Serif" font-size="10.00">+ void OnAirEvt()</text>
<text text-anchor="start" x="506" y="-1038.5" font-family="Helvetica,sans-Serif" font-size="10.00">+ bool IsFacingRight()</text>
<text text-anchor="start" x="506" y="-1027.5" font-family="Helvetica,sans-Serif" font-size="10.00">+ void AnimStartPrayingEvt()</text>
<text text-anchor="start" x="506" y="-1016.5" font-family="Helvetica,sans-Serif" font-size="10.00">+ void AnimRollEndEvt()</text>
<text text-anchor="start" x="506" y="-1005.5" font-family="Helvetica,sans-Serif" font-size="10.00">+ void AnimFootStep1Evt()</text>
<text text-anchor="start" x="506" y="-994.5" font-family="Helvetica,sans-Serif" font-size="10.00">+ void AnimFootStep2Evt()</text>
<text text-anchor="start" x="506" y="-983.5" font-family="Helvetica,sans-Serif" font-size="10.00">~ void OnEnable()</text>
<text text-anchor="start" x="506" y="-972.5" font-family="Helvetica,sans-Serif" font-size="10.00">~ void OnDisable()</text>
</a>
</g>
</g>
<!-- Node5&#45;&gt;Node18 -->
<g id="edge18" class="edge">
<title>Node5&#45;&gt;Node18</title>
<path fill="none" stroke="midnightblue" d="M416.61,-1282.98C439.8,-1257.47 466.29,-1227.36 489,-1199 491.94,-1195.33 494.9,-1191.56 497.87,-1187.74"/>
<polygon fill="none" stroke="midnightblue" points="414.01,-1280.64 409.85,-1290.39 419.18,-1285.36 414.01,-1280.64"/>
</g>
<!-- Node6 -->
<g id="node6" class="node">
<title>Node6</title>
<g id="a_node6"><a xlink:href="interface_interactions_1_1_interfaces_1_1_i_interactive.html" target="_top" xlink:title=" ">
<polygon fill="none" stroke="black" points="328.5,-993 328.5,-1171 479.5,-1171 479.5,-993 328.5,-993"/>
<text text-anchor="middle" x="404" y="-1159" font-family="Helvetica,sans-Serif" font-size="10.00">IInteractive</text>
<polyline fill="none" stroke="black" points="328.5,-1152 479.5,-1152 "/>
<text text-anchor="middle" x="404" y="-1140" font-family="Helvetica,sans-Serif" font-size="10.00"> </text>
<polyline fill="none" stroke="black" points="328.5,-1133 479.5,-1133 "/>
<text text-anchor="start" x="336.5" y="-1121" font-family="Helvetica,sans-Serif" font-size="10.00">+ bool Interact(BaseController</text>
<text text-anchor="start" x="336.5" y="-1110" font-family="Helvetica,sans-Serif" font-size="10.00"> controller, EInteractionKind</text>
<text text-anchor="start" x="336.5" y="-1099" font-family="Helvetica,sans-Serif" font-size="10.00"> interactionKind)</text>
<text text-anchor="start" x="336.5" y="-1088" font-family="Helvetica,sans-Serif" font-size="10.00">+ bool Interact(PlayerController</text>
<text text-anchor="start" x="336.5" y="-1077" font-family="Helvetica,sans-Serif" font-size="10.00"> controller, EInteractionKind</text>
<text text-anchor="start" x="336.5" y="-1066" font-family="Helvetica,sans-Serif" font-size="10.00"> interactionKind)</text>
<text text-anchor="start" x="336.5" y="-1055" font-family="Helvetica,sans-Serif" font-size="10.00">+ void ReadyToInteract</text>
<text text-anchor="start" x="336.5" y="-1044" font-family="Helvetica,sans-Serif" font-size="10.00">(PlayerController controller,</text>
<text text-anchor="start" x="336.5" y="-1033" font-family="Helvetica,sans-Serif" font-size="10.00"> bool isReady)</text>
<text text-anchor="start" x="336.5" y="-1022" font-family="Helvetica,sans-Serif" font-size="10.00">+ void ReadyToInteract</text>
<text text-anchor="start" x="336.5" y="-1011" font-family="Helvetica,sans-Serif" font-size="10.00">(BaseController controller,</text>
<text text-anchor="start" x="336.5" y="-1000" font-family="Helvetica,sans-Serif" font-size="10.00"> bool isReady)</text>
</a>
</g>
</g>
<!-- Node6&#45;&gt;Node4 -->
<g id="edge5" class="edge">
<title>Node6&#45;&gt;Node4</title>
<path fill="none" stroke="midnightblue" d="M465.08,-985.24C472.48,-977.69 480.47,-970.77 489,-965 497.74,-959.09 665.24,-925.15 673,-918 675.88,-915.34 678.68,-912.6 681.39,-909.76"/>
<polygon fill="none" stroke="midnightblue" points="462.12,-983.28 457.87,-992.98 467.25,-988.04 462.12,-983.28"/>
</g>
<!-- Node7 -->
<g id="node7" class="node">
<title>Node7</title>
<g id="a_node7"><a xlink:title=" ">
<polygon fill="none" stroke="#bfbfbf" points="664.5,-1053.5 664.5,-1110.5 735.5,-1110.5 735.5,-1053.5 664.5,-1053.5"/>
<text text-anchor="middle" x="700" y="-1098.5" font-family="Helvetica,sans-Serif" font-size="10.00">Rigidbody2D</text>
<polyline fill="none" stroke="#bfbfbf" points="664.5,-1091.5 735.5,-1091.5 "/>
<text text-anchor="middle" x="700" y="-1079.5" font-family="Helvetica,sans-Serif" font-size="10.00"> </text>
<polyline fill="none" stroke="#bfbfbf" points="664.5,-1072.5 735.5,-1072.5 "/>
<text text-anchor="middle" x="700" y="-1060.5" font-family="Helvetica,sans-Serif" font-size="10.00"> </text>
</a>
</g>
</g>
<!-- Node7&#45;&gt;Node4 -->
<g id="edge6" class="edge">
<title>Node7&#45;&gt;Node4</title>
<path fill="none" stroke="#404040" d="M699.23,-1053.36C698.78,-1024.1 699.05,-976.62 704,-936 704.25,-933.91 704.52,-931.81 704.79,-929.71"/>
<polygon fill="none" stroke="#404040" points="704.82,-929.48 701.65,-923 706.41,-917.59 709.58,-924.07 704.82,-929.48"/>
<text text-anchor="middle" x="734" y="-939" font-family="Helvetica,sans-Serif" font-size="10.00"> #rigidbody2D</text>
</g>
<!-- Node8 -->
<g id="node8" class="node">
<title>Node8</title>
<g id="a_node8"><a xlink:title=" ">
<polygon fill="none" stroke="#bfbfbf" points="754,-1053.5 754,-1110.5 810,-1110.5 810,-1053.5 754,-1053.5"/>
<text text-anchor="middle" x="782" y="-1098.5" font-family="Helvetica,sans-Serif" font-size="10.00">Animator</text>
<polyline fill="none" stroke="#bfbfbf" points="754,-1091.5 810,-1091.5 "/>
<text text-anchor="middle" x="782" y="-1079.5" font-family="Helvetica,sans-Serif" font-size="10.00"> </text>
<polyline fill="none" stroke="#bfbfbf" points="754,-1072.5 810,-1072.5 "/>
<text text-anchor="middle" x="782" y="-1060.5" font-family="Helvetica,sans-Serif" font-size="10.00"> </text>
</a>
</g>
</g>
<!-- Node8&#45;&gt;Node4 -->
<g id="edge7" class="edge">
<title>Node8&#45;&gt;Node4</title>
<path fill="none" stroke="#404040" d="M778.55,-1053.34C775.37,-1026.28 770.85,-983.88 769,-947 768.71,-941.28 768.45,-935.5 768.21,-929.67"/>
<polygon fill="none" stroke="#404040" points="768.21,-929.64 763.97,-923.8 767.74,-917.65 771.97,-923.48 768.21,-929.64"/>
<text text-anchor="middle" x="813" y="-939" font-family="Helvetica,sans-Serif" font-size="10.00"> #characterAnimator</text>
</g>
<!-- Node9 -->
<g id="node9" class="node">
<title>Node9</title>
<g id="a_node9"><a xlink:href="class_controllers_1_1_state_machine_1_1_states_1_1_data_1_1_controller_data.html" target="_top" xlink:title=" ">
<polygon fill="none" stroke="black" points="1048.5,-1048 1048.5,-1116 1181.5,-1116 1181.5,-1048 1048.5,-1048"/>
<text text-anchor="start" x="1056.5" y="-1104" font-family="Helvetica,sans-Serif" font-size="10.00">Controllers.StateMachine.</text>
<text text-anchor="middle" x="1115" y="-1093" font-family="Helvetica,sans-Serif" font-size="10.00">States.Data.ControllerData</text>
<polyline fill="none" stroke="black" points="1048.5,-1086 1181.5,-1086 "/>
<text text-anchor="middle" x="1115" y="-1074" font-family="Helvetica,sans-Serif" font-size="10.00"> </text>
<polyline fill="none" stroke="black" points="1048.5,-1067 1181.5,-1067 "/>
<text text-anchor="middle" x="1115" y="-1055" font-family="Helvetica,sans-Serif" font-size="10.00"> </text>
</a>
</g>
</g>
<!-- Node9&#45;&gt;Node4 -->
<g id="edge8" class="edge">
<title>Node9&#45;&gt;Node4</title>
<path fill="none" stroke="#404040" d="M1095.06,-1047.75C1080.54,-1024.15 1059.98,-991.98 1040,-965 984.45,-889.97 916.79,-809.71 862.85,-748.02"/>
<polygon fill="none" stroke="#404040" points="862.56,-747.7 855.6,-745.82 854.65,-738.68 861.62,-740.55 862.56,-747.7"/>
<text text-anchor="middle" x="1047.5" y="-939" font-family="Helvetica,sans-Serif" font-size="10.00"> +ctrlData</text>
</g>
<!-- Node10 -->
<g id="node10" class="node">
<title>Node10</title>
<g id="a_node10"><a xlink:href="class_scriptable_object.html" target="_top" xlink:title=" ">
<polygon fill="none" stroke="black" points="1416.5,-1318 1416.5,-1375 1505.5,-1375 1505.5,-1318 1416.5,-1318"/>
<text text-anchor="middle" x="1461" y="-1363" font-family="Helvetica,sans-Serif" font-size="10.00">ScriptableObject</text>
<polyline fill="none" stroke="black" points="1416.5,-1356 1505.5,-1356 "/>
<text text-anchor="middle" x="1461" y="-1344" font-family="Helvetica,sans-Serif" font-size="10.00"> </text>
<polyline fill="none" stroke="black" points="1416.5,-1337 1505.5,-1337 "/>
<text text-anchor="middle" x="1461" y="-1325" font-family="Helvetica,sans-Serif" font-size="10.00"> </text>
</a>
</g>
</g>
<!-- Node10&#45;&gt;Node9 -->
<g id="edge9" class="edge">
<title>Node10&#45;&gt;Node9</title>
<path fill="none" stroke="midnightblue" d="M1464.53,-1307.45C1464.95,-1278.18 1460.09,-1239.12 1435,-1217 1394.21,-1181.05 1237.85,-1226.59 1191,-1199 1159.67,-1180.55 1138.86,-1143.51 1127.06,-1116.22"/>
<polygon fill="none" stroke="midnightblue" points="1461.02,-1307.63 1464.16,-1317.75 1468.01,-1307.88 1461.02,-1307.63"/>
</g>
<!-- Node19 -->
<g id="node19" class="node">
<title>Node19</title>
<g id="a_node19"><a xlink:href="class_controllers_1_1_state_machine_1_1_states_1_1_data_1_1_attack_state_data.html" target="_top" xlink:title=" ">
<polygon fill="none" stroke="black" points="1385.5,-1048 1385.5,-1116 1528.5,-1116 1528.5,-1048 1385.5,-1048"/>
<text text-anchor="start" x="1393.5" y="-1104" font-family="Helvetica,sans-Serif" font-size="10.00">Controllers.StateMachine.</text>
<text text-anchor="middle" x="1457" y="-1093" font-family="Helvetica,sans-Serif" font-size="10.00">States.Data.AttackStateData</text>
<polyline fill="none" stroke="black" points="1385.5,-1086 1528.5,-1086 "/>
<text text-anchor="middle" x="1457" y="-1074" font-family="Helvetica,sans-Serif" font-size="10.00"> </text>
<polyline fill="none" stroke="black" points="1385.5,-1067 1528.5,-1067 "/>
<text text-anchor="middle" x="1457" y="-1055" font-family="Helvetica,sans-Serif" font-size="10.00"> </text>
</a>
</g>
</g>
<!-- Node10&#45;&gt;Node19 -->
<g id="edge24" class="edge">
<title>Node10&#45;&gt;Node19</title>
<path fill="none" stroke="midnightblue" d="M1460.85,-1307.89C1460.72,-1282.27 1460.46,-1247.59 1460,-1217 1459.48,-1182.56 1458.56,-1143.16 1457.87,-1116.04"/>
<polygon fill="none" stroke="midnightblue" points="1457.35,-1307.94 1460.9,-1317.93 1464.35,-1307.91 1457.35,-1307.94"/>
</g>
<!-- Node11 -->
<g id="node11" class="node">
<title>Node11</title>
<g id="a_node11"><a xlink:title=" ">
<polygon fill="none" stroke="#bfbfbf" points="1275.5,-1318 1275.5,-1375 1310.5,-1375 1310.5,-1318 1275.5,-1318"/>
<text text-anchor="middle" x="1293" y="-1363" font-family="Helvetica,sans-Serif" font-size="10.00">float</text>
<polyline fill="none" stroke="#bfbfbf" points="1275.5,-1356 1310.5,-1356 "/>
<text text-anchor="middle" x="1293" y="-1344" font-family="Helvetica,sans-Serif" font-size="10.00"> </text>
<polyline fill="none" stroke="#bfbfbf" points="1275.5,-1337 1310.5,-1337 "/>
<text text-anchor="middle" x="1293" y="-1325" font-family="Helvetica,sans-Serif" font-size="10.00"> </text>
</a>
</g>
</g>
<!-- Node11&#45;&gt;Node2 -->
<g id="edge21" class="edge">
<title>Node11&#45;&gt;Node2</title>
<path fill="none" stroke="#404040" d="M1310.58,-1326.62C1322.28,-1312.7 1336.64,-1292.65 1343,-1272 1350.19,-1248.64 1343.13,-1241.44 1343,-1217 1341,-838.32 1441.54,-728.1 1334,-365 1330.3,-352.49 1324.78,-340.04 1318.41,-328.21"/>
<polygon fill="none" stroke="#404040" points="1318.28,-327.97 1311.84,-324.73 1312.36,-317.54 1318.8,-320.78 1318.28,-327.97"/>
<text text-anchor="middle" x="1383.5" y="-939" font-family="Helvetica,sans-Serif" font-size="10.00"> #startTime</text>
</g>
<!-- Node11&#45;&gt;Node9 -->
<g id="edge10" class="edge">
<title>Node11&#45;&gt;Node9</title>
<path fill="none" stroke="#404040" d="M1275.26,-1327.68C1261.83,-1313.49 1243.62,-1292.66 1231,-1272 1217.19,-1249.39 1222.44,-1239.21 1208,-1217 1202,-1207.77 1197.82,-1207.64 1191,-1199 1172.84,-1176 1154.76,-1148.65 1140.8,-1126.28"/>
<polygon fill="none" stroke="#404040" points="1140.8,-1126.28 1134.24,-1123.27 1134.49,-1116.07 1141.05,-1119.07 1140.8,-1126.28"/>
<text text-anchor="middle" x="1287" y="-1264" font-family="Helvetica,sans-Serif" font-size="10.00"> +groundCheckDistance</text>
<text text-anchor="middle" x="1287" y="-1253" font-family="Helvetica,sans-Serif" font-size="10.00">+ledgeCheckDistacne</text>
<text text-anchor="middle" x="1287" y="-1242" font-family="Helvetica,sans-Serif" font-size="10.00">+playerDetectionDistance</text>
<text text-anchor="middle" x="1287" y="-1231" font-family="Helvetica,sans-Serif" font-size="10.00">+topCheckDistance</text>
<text text-anchor="middle" x="1287" y="-1220" font-family="Helvetica,sans-Serif" font-size="10.00">+wallCheckDistance</text>
</g>
<!-- Node11&#45;&gt;Node18 -->
<g id="edge19" class="edge">
<title>Node11&#45;&gt;Node18</title>
<path fill="none" stroke="#404040" d="M1275.34,-1342.85C1240.67,-1336.72 1163.3,-1318.41 1120,-1272 1102.36,-1253.09 1121.75,-1232.43 1101,-1217 1063.46,-1189.09 738.21,-1218.76 657.56,-1197.23"/>
<polygon fill="none" stroke="#404040" points="657.36,-1197.15 650.34,-1198.8 646.12,-1192.95 653.14,-1191.31 657.36,-1197.15"/>
<text text-anchor="middle" x="1162" y="-1242" font-family="Helvetica,sans-Serif" font-size="10.00"> #interactionRadius</text>
</g>
<!-- Node11&#45;&gt;Node19 -->
<g id="edge25" class="edge">
<title>Node11&#45;&gt;Node19</title>
<path fill="none" stroke="#404040" d="M1310.54,-1331.49C1326.97,-1317.69 1351.42,-1295.33 1368,-1272 1400.24,-1226.62 1425.82,-1167.72 1441.13,-1127.82"/>
<polygon fill="none" stroke="#404040" points="1441.22,-1127.57 1439.59,-1120.54 1445.45,-1116.34 1447.08,-1123.36 1441.22,-1127.57"/>
<text text-anchor="middle" x="1422" y="-1247.5" font-family="Helvetica,sans-Serif" font-size="10.00"> +damage</text>
<text text-anchor="middle" x="1422" y="-1236.5" font-family="Helvetica,sans-Serif" font-size="10.00">+duration</text>
</g>
<!-- Node12 -->
<g id="node12" class="node">
<title>Node12</title>
<g id="a_node12"><a xlink:title=" ">
<polygon fill="none" stroke="#bfbfbf" points="998.5,-1318 998.5,-1375 1063.5,-1375 1063.5,-1318 998.5,-1318"/>
<text text-anchor="middle" x="1031" y="-1363" font-family="Helvetica,sans-Serif" font-size="10.00">LayerMask</text>
<polyline fill="none" stroke="#bfbfbf" points="998.5,-1356 1063.5,-1356 "/>
<text text-anchor="middle" x="1031" y="-1344" font-family="Helvetica,sans-Serif" font-size="10.00"> </text>
<polyline fill="none" stroke="#bfbfbf" points="998.5,-1337 1063.5,-1337 "/>
<text text-anchor="middle" x="1031" y="-1325" font-family="Helvetica,sans-Serif" font-size="10.00"> </text>
</a>
</g>
</g>
<!-- Node12&#45;&gt;Node9 -->
<g id="edge11" class="edge">
<title>Node12&#45;&gt;Node9</title>
<path fill="none" stroke="#404040" d="M1026.97,-1317.81C1024.11,-1291.36 1022.28,-1250.65 1032,-1217 1034.89,-1206.98 1063.78,-1161.37 1086.67,-1126.12"/>
<polygon fill="none" stroke="#404040" points="1086.69,-1126.08 1086.61,-1118.87 1093.24,-1116.02 1093.32,-1123.23 1086.69,-1126.08"/>
<text text-anchor="middle" x="1066.5" y="-1242" font-family="Helvetica,sans-Serif" font-size="10.00"> +whatIsGround</text>
</g>
<!-- Node13 -->
<g id="node13" class="node">
<title>Node13</title>
<g id="a_node13"><a xlink:title=" ">
<polygon fill="none" stroke="#bfbfbf" points="967.5,-1053.5 967.5,-1110.5 1030.5,-1110.5 1030.5,-1053.5 967.5,-1053.5"/>
<text text-anchor="middle" x="999" y="-1098.5" font-family="Helvetica,sans-Serif" font-size="10.00">UnityEvent</text>
<polyline fill="none" stroke="#bfbfbf" points="967.5,-1091.5 1030.5,-1091.5 "/>
<text text-anchor="middle" x="999" y="-1079.5" font-family="Helvetica,sans-Serif" font-size="10.00"> </text>
<polyline fill="none" stroke="#bfbfbf" points="967.5,-1072.5 1030.5,-1072.5 "/>
<text text-anchor="middle" x="999" y="-1060.5" font-family="Helvetica,sans-Serif" font-size="10.00"> </text>
</a>
</g>
</g>
<!-- Node13&#45;&gt;Node4 -->
<g id="edge12" class="edge">
<title>Node13&#45;&gt;Node4</title>
<path fill="none" stroke="#404040" d="M989.3,-1053.34C980.66,-1029.53 967.2,-994.47 953,-965 925.48,-907.9 891.85,-847.15 860.84,-793.95"/>
<polygon fill="none" stroke="#404040" points="860.74,-793.78 854.26,-790.62 854.68,-783.42 861.16,-786.58 860.74,-793.78"/>
<text text-anchor="middle" x="972.5" y="-939" font-family="Helvetica,sans-Serif" font-size="10.00"> +OnLandEvent</text>
</g>
<!-- Node14 -->
<g id="node14" class="node">
<title>Node14</title>
<g id="a_node14"><a xlink:href="class_controllers_1_1_movement_1_1_base_movement_controller.html" target="_top" xlink:title=" ">
<polygon fill="none" stroke="black" points="0,-1048 0,-1116 136,-1116 136,-1048 0,-1048"/>
<text text-anchor="start" x="8" y="-1104" font-family="Helvetica,sans-Serif" font-size="10.00">Controllers.Movement.Base</text>
<text text-anchor="middle" x="68" y="-1093" font-family="Helvetica,sans-Serif" font-size="10.00">MovementController</text>
<polyline fill="none" stroke="black" points="0,-1086 136,-1086 "/>
<text text-anchor="middle" x="68" y="-1074" font-family="Helvetica,sans-Serif" font-size="10.00"> </text>
<polyline fill="none" stroke="black" points="0,-1067 136,-1067 "/>
<text text-anchor="middle" x="68" y="-1055" font-family="Helvetica,sans-Serif" font-size="10.00"> </text>
</a>
</g>
</g>
<!-- Node14&#45;&gt;Node4 -->
<g id="edge13" class="edge">
<title>Node14&#45;&gt;Node4</title>
<path fill="none" stroke="#404040" d="M56.61,-1047.89C47.58,-1014.86 40.67,-964.99 69,-936 113.87,-890.09 575.59,-951.88 670.6,-916.89"/>
<polygon fill="none" stroke="#404040" points="670.62,-916.89 674.14,-910.6 681.31,-911.44 677.78,-917.73 670.62,-916.89"/>
<text text-anchor="middle" x="126.5" y="-939" font-family="Helvetica,sans-Serif" font-size="10.00"> #baseMovementController</text>
</g>
<!-- Node15 -->
<g id="node15" class="node">
<title>Node15</title>
<g id="a_node15"><a xlink:href="class_controllers_1_1_state_machine_1_1_controller_state_machine.html" target="_top" xlink:title="Controla el estado de un enemigo o NPC, desde que spawnea hasta que muere. Casi todos los metodos son...">
<polygon fill="none" stroke="black" points="1199.5,-1031.5 1199.5,-1132.5 1328.5,-1132.5 1328.5,-1031.5 1199.5,-1031.5"/>
<text text-anchor="start" x="1207.5" y="-1120.5" font-family="Helvetica,sans-Serif" font-size="10.00">Controllers.StateMachine.</text>
<text text-anchor="middle" x="1264" y="-1109.5" font-family="Helvetica,sans-Serif" font-size="10.00">ControllerStateMachine</text>
<polyline fill="none" stroke="black" points="1199.5,-1102.5 1328.5,-1102.5 "/>
<text text-anchor="start" x="1207.5" y="-1090.5" font-family="Helvetica,sans-Serif" font-size="10.00">+ State CurrentState</text>
<polyline fill="none" stroke="black" points="1199.5,-1083.5 1328.5,-1083.5 "/>
<text text-anchor="start" x="1207.5" y="-1071.5" font-family="Helvetica,sans-Serif" font-size="10.00">+ void Initialize(State</text>
<text text-anchor="start" x="1207.5" y="-1060.5" font-family="Helvetica,sans-Serif" font-size="10.00"> startState)</text>
<text text-anchor="start" x="1207.5" y="-1049.5" font-family="Helvetica,sans-Serif" font-size="10.00">+ void ChangeState(State</text>
<text text-anchor="start" x="1207.5" y="-1038.5" font-family="Helvetica,sans-Serif" font-size="10.00"> nextState)</text>
</a>
</g>
</g>
<!-- Node15&#45;&gt;Node2 -->
<g id="edge22" class="edge">
<title>Node15&#45;&gt;Node2</title>
<path fill="none" stroke="#404040" d="M1263.88,-1031.29C1263.54,-892.25 1262.6,-498.55 1262.19,-329.83"/>
<polygon fill="none" stroke="#404040" points="1262.19,-329.6 1258.17,-323.6 1262.16,-317.6 1266.17,-323.59 1262.19,-329.6"/>
<text text-anchor="middle" x="1296.5" y="-639" font-family="Helvetica,sans-Serif" font-size="10.00"> #stateMachine</text>
</g>
<!-- Node15&#45;&gt;Node4 -->
<g id="edge14" class="edge">
<title>Node15&#45;&gt;Node4</title>
<path fill="none" stroke="#404040" d="M1238.1,-1031.43C1225.49,-1009.77 1209.14,-984.85 1191,-965 1093.21,-858.02 956.33,-761 865.05,-701.93"/>
<polygon fill="none" stroke="#404040" points="864.8,-701.77 857.59,-701.88 854.71,-695.27 861.92,-695.16 864.8,-701.77"/>
<text text-anchor="middle" x="1206" y="-939" font-family="Helvetica,sans-Serif" font-size="10.00"> +StateMachine</text>
</g>
<!-- Node16 -->
<g id="node16" class="node">
<title>Node16</title>
<g id="a_node16"><a xlink:title=" ">
<polygon fill="none" stroke="#bfbfbf" points="226,-1053.5 226,-1110.5 310,-1110.5 310,-1053.5 226,-1053.5"/>
<text text-anchor="middle" x="268" y="-1098.5" font-family="Helvetica,sans-Serif" font-size="10.00">EControllerKind</text>
<polyline fill="none" stroke="#bfbfbf" points="226,-1091.5 310,-1091.5 "/>
<text text-anchor="middle" x="268" y="-1079.5" font-family="Helvetica,sans-Serif" font-size="10.00"> </text>
<polyline fill="none" stroke="#bfbfbf" points="226,-1072.5 310,-1072.5 "/>
<text text-anchor="middle" x="268" y="-1060.5" font-family="Helvetica,sans-Serif" font-size="10.00"> </text>
</a>
</g>
</g>
<!-- Node16&#45;&gt;Node4 -->
<g id="edge15" class="edge">
<title>Node16&#45;&gt;Node4</title>
<path fill="none" stroke="#404040" d="M272.69,-1053.43C278.77,-1026.55 292.11,-986.65 320,-965 379.85,-918.53 412.91,-946.12 488,-936 525.9,-930.89 624.39,-941.74 671.18,-917.46"/>
<polygon fill="none" stroke="#404040" points="671.28,-917.39 674.17,-910.79 681.38,-910.92 678.49,-917.52 671.28,-917.39"/>
<text text-anchor="middle" x="522" y="-939" font-family="Helvetica,sans-Serif" font-size="10.00"> #controllerKind</text>
</g>
<!-- Node17 -->
<g id="node17" class="node">
<title>Node17</title>
<g id="a_node17"><a xlink:title=" ">
<polygon fill="none" stroke="#bfbfbf" points="691.5,-1318 691.5,-1375 726.5,-1375 726.5,-1318 691.5,-1318"/>
<text text-anchor="middle" x="709" y="-1363" font-family="Helvetica,sans-Serif" font-size="10.00">bool</text>
<polyline fill="none" stroke="#bfbfbf" points="691.5,-1356 726.5,-1356 "/>
<text text-anchor="middle" x="709" y="-1344" font-family="Helvetica,sans-Serif" font-size="10.00"> </text>
<polyline fill="none" stroke="#bfbfbf" points="691.5,-1337 726.5,-1337 "/>
<text text-anchor="middle" x="709" y="-1325" font-family="Helvetica,sans-Serif" font-size="10.00"> </text>
</a>
</g>
</g>
<!-- Node17&#45;&gt;Node4 -->
<g id="edge16" class="edge">
<title>Node17&#45;&gt;Node4</title>
<path fill="none" stroke="#404040" d="M726.78,-1328.52C752.16,-1303.06 798.03,-1252.27 819,-1199 860.5,-1093.61 848.53,-1059.95 857,-947 857.37,-942.12 857.72,-940.84 857,-936 856.69,-933.92 856.37,-931.83 856.04,-929.74"/>
<polygon fill="none" stroke="#404040" points="856.01,-929.54 851.07,-924.28 854.02,-917.7 858.96,-922.96 856.01,-929.54"/>
<text text-anchor="middle" x="906.5" y="-1079.5" font-family="Helvetica,sans-Serif" font-size="10.00"> #playerFacingDirection</text>
</g>
<!-- Node17&#45;&gt;Node18 -->
<g id="edge20" class="edge">
<title>Node17&#45;&gt;Node18</title>
<path fill="none" stroke="#404040" d="M694.6,-1317.9C680.88,-1291.63 659.23,-1250.13 637.91,-1209.28"/>
<polygon fill="none" stroke="#404040" points="637.9,-1209.27 631.58,-1205.81 632.35,-1198.64 638.67,-1202.1 637.9,-1209.27"/>
<text text-anchor="middle" x="716.5" y="-1264" font-family="Helvetica,sans-Serif" font-size="10.00"> +isEnrolledInDialogue</text>
<text text-anchor="middle" x="716.5" y="-1253" font-family="Helvetica,sans-Serif" font-size="10.00">~moveOnDamaged</text>
<text text-anchor="middle" x="716.5" y="-1242" font-family="Helvetica,sans-Serif" font-size="10.00">~praying</text>
<text text-anchor="middle" x="716.5" y="-1231" font-family="Helvetica,sans-Serif" font-size="10.00">~respawning</text>
<text text-anchor="middle" x="716.5" y="-1220" font-family="Helvetica,sans-Serif" font-size="10.00">~roll</text>
</g>
<!-- Node18&#45;&gt;Node4 -->
<g id="edge17" class="edge">
<title>Node18&#45;&gt;Node4</title>
<path fill="none" stroke="#404040" d="M601.58,-965.23C607.48,-954.53 614.54,-944.52 623,-936 639.64,-919.24 656.41,-934.81 673,-918 673.09,-917.91 673.18,-917.82 673.27,-917.73"/>
<polygon fill="none" stroke="#404040" points="673.11,-917.89 674.26,-910.78 681.28,-909.1 680.13,-916.22 673.11,-917.89"/>
<text text-anchor="middle" x="661" y="-939" font-family="Helvetica,sans-Serif" font-size="10.00"> #playerController</text>
</g>
<!-- Node19&#45;&gt;Node1 -->
<g id="edge23" class="edge">
<title>Node19&#45;&gt;Node1</title>
<path fill="none" stroke="#404040" d="M1453.77,-1047.78C1440.19,-908.31 1387.57,-367.57 1367.16,-157.82"/>
<polygon fill="none" stroke="#404040" points="1367.14,-157.62 1362.58,-152.04 1365.98,-145.68 1370.54,-151.27 1367.14,-157.62"/>
<text text-anchor="middle" x="1410.5" y="-339" font-family="Helvetica,sans-Serif" font-size="10.00"> #stateData</text>
</g>
</g>
</svg>
