<?xml version="1.0" encoding="UTF-8" standalone="no"?>
<!DOCTYPE svg PUBLIC "-//W3C//DTD SVG 1.1//EN"
 "http://www.w3.org/Graphics/SVG/1.1/DTD/svg11.dtd">
<!-- Generated by graphviz version 2.48.0 (20210717.1556)
 -->
<!-- Title: Controllers.StateMachine.States.JumpState Pages: 1 -->
<!--zoomable 1411 -->
<svg id="main" version="1.1" xmlns="http://www.w3.org/2000/svg" xmlns:xlink="http://www.w3.org/1999/xlink" xml:space="preserve" onload="init(evt)">
<style type="text/css"><![CDATA[
.edge:hover path { stroke: red; }
.edge:hover polygon { stroke: red; fill: red; }
]]></style>
<script type="text/javascript"><![CDATA[
var edges = document.getElementsByTagName('g');
if (edges && edges.length) {
  for (var i=0;i<edges.length;i++) {
    if (edges[i].id.substr(0,4)=='edge') {
      edges[i].setAttribute('class','edge');
    }
  }
}
]]></script>
        <defs>
                <circle id="rim" cx="0" cy="0" r="7"/>
                <circle id="rim2" cx="0" cy="0" r="3.5"/>
                <g id="zoomPlus">
                        <use xlink:href="#rim" fill="#404040">
                                <set attributeName="fill" to="#808080" begin="zoomplus.mouseover" end="zoomplus.mouseout"/>
                        </use>
                        <path d="M-4,0h8M0,-4v8" fill="none" stroke="white" stroke-width="1.5" pointer-events="none"/>
                </g>
                <g id="zoomMin">
                        <use xlink:href="#rim" fill="#404040">
                                <set attributeName="fill" to="#808080" begin="zoomminus.mouseover" end="zoomminus.mouseout"/>
                        </use>
                        <path d="M-4,0h8" fill="none" stroke="white" stroke-width="1.5" pointer-events="none"/>
                </g>
                <g id="dirArrow">
                        <path fill="none" stroke="white" stroke-width="1.5" d="M0,-3.0v7 M-2.5,-0.5L0,-3.0L2.5,-0.5"/>
                </g>
               <g id="resetDef">
                       <use xlink:href="#rim2" fill="#404040">
                               <set attributeName="fill" to="#808080" begin="reset.mouseover" end="reset.mouseout"/>
                       </use>
               </g>
        </defs>

<script type="text/javascript">
var viewWidth = 1664;
var viewHeight = 1411;
var sectionId = 'dynsection-1';
</script>
<script xlink:href="svgpan.js"/>
<svg id="graph" class="graph">
<g id="viewport">
<title>Controllers.StateMachine.States.JumpState</title>
<!-- Node1 -->
<g id="node1" class="node">
<title>Node1</title>
<g id="a_node1"><a xlink:title=" ">
<polygon fill="#bfbfbf" stroke="black" points="129.5,-0.5 129.5,-145.5 338.5,-145.5 338.5,-0.5 129.5,-0.5"/>
<text text-anchor="start" x="137.5" y="-133.5" font-family="Helvetica,sans-Serif" font-size="10.00">Controllers.StateMachine.</text>
<text text-anchor="middle" x="234" y="-122.5" font-family="Helvetica,sans-Serif" font-size="10.00">States.JumpState</text>
<polyline fill="none" stroke="black" points="129.5,-115.5 338.5,-115.5 "/>
<text text-anchor="middle" x="234" y="-103.5" font-family="Helvetica,sans-Serif" font-size="10.00"> </text>
<polyline fill="none" stroke="black" points="129.5,-96.5 338.5,-96.5 "/>
<text text-anchor="start" x="137.5" y="-84.5" font-family="Helvetica,sans-Serif" font-size="10.00">+ JumpState(BaseController</text>
<text text-anchor="start" x="137.5" y="-73.5" font-family="Helvetica,sans-Serif" font-size="10.00"> controller, ControllerStateMachine</text>
<text text-anchor="start" x="137.5" y="-62.5" font-family="Helvetica,sans-Serif" font-size="10.00"> stateMachine, string animBoolName,</text>
<text text-anchor="start" x="137.5" y="-51.5" font-family="Helvetica,sans-Serif" font-size="10.00"> JumpStateData stateData, FroggyController</text>
<text text-anchor="start" x="137.5" y="-40.5" font-family="Helvetica,sans-Serif" font-size="10.00"> froggyController)</text>
<text text-anchor="start" x="137.5" y="-29.5" font-family="Helvetica,sans-Serif" font-size="10.00">+ override void Enter()</text>
<text text-anchor="start" x="137.5" y="-18.5" font-family="Helvetica,sans-Serif" font-size="10.00">+ override void Exit()</text>
<text text-anchor="start" x="137.5" y="-7.5" font-family="Helvetica,sans-Serif" font-size="10.00">+ override void UpdateState()</text>
</a>
</g>
</g>
<!-- Node2 -->
<g id="node2" class="node">
<title>Node2</title>
<g id="a_node2"><a xlink:href="class_controllers_1_1_state_machine_1_1_state.html" target="_top" xlink:title="Clase base para los estados de cada personaje. Controla el ciclo de vida de cada estado (Enter,...">
<polygon fill="none" stroke="black" points="161.5,-183.5 161.5,-317.5 306.5,-317.5 306.5,-183.5 161.5,-183.5"/>
<text text-anchor="middle" x="234" y="-305.5" font-family="Helvetica,sans-Serif" font-size="10.00">State</text>
<polyline fill="none" stroke="black" points="161.5,-298.5 306.5,-298.5 "/>
<text text-anchor="middle" x="234" y="-286.5" font-family="Helvetica,sans-Serif" font-size="10.00"> </text>
<polyline fill="none" stroke="black" points="161.5,-279.5 306.5,-279.5 "/>
<text text-anchor="start" x="169.5" y="-267.5" font-family="Helvetica,sans-Serif" font-size="10.00">+ State(BaseController</text>
<text text-anchor="start" x="169.5" y="-256.5" font-family="Helvetica,sans-Serif" font-size="10.00"> controller, ControllerState</text>
<text text-anchor="start" x="169.5" y="-245.5" font-family="Helvetica,sans-Serif" font-size="10.00">Machine stateMachine, string</text>
<text text-anchor="start" x="169.5" y="-234.5" font-family="Helvetica,sans-Serif" font-size="10.00"> animBoolName)</text>
<text text-anchor="start" x="169.5" y="-223.5" font-family="Helvetica,sans-Serif" font-size="10.00">+ virtual void Enter()</text>
<text text-anchor="start" x="169.5" y="-212.5" font-family="Helvetica,sans-Serif" font-size="10.00">+ virtual void Exit()</text>
<text text-anchor="start" x="169.5" y="-201.5" font-family="Helvetica,sans-Serif" font-size="10.00">+ virtual void UpdateState()</text>
<text text-anchor="start" x="169.5" y="-190.5" font-family="Helvetica,sans-Serif" font-size="10.00">+ virtual void UpdatePhysics()</text>
</a>
</g>
</g>
<!-- Node2&#45;&gt;Node1 -->
<g id="edge1" class="edge">
<title>Node2&#45;&gt;Node1</title>
<path fill="none" stroke="midnightblue" d="M234,-173.01C234,-163.94 234,-154.71 234,-145.72"/>
<polygon fill="none" stroke="midnightblue" points="230.5,-173.15 234,-183.15 237.5,-173.15 230.5,-173.15"/>
</g>
<!-- Node3 -->
<g id="node3" class="node">
<title>Node3</title>
<g id="a_node3"><a xlink:title=" ">
<polygon fill="none" stroke="#bfbfbf" points="266.5,-613 266.5,-670 307.5,-670 307.5,-613 266.5,-613"/>
<text text-anchor="middle" x="287" y="-658" font-family="Helvetica,sans-Serif" font-size="10.00">string</text>
<polyline fill="none" stroke="#bfbfbf" points="266.5,-651 307.5,-651 "/>
<text text-anchor="middle" x="287" y="-639" font-family="Helvetica,sans-Serif" font-size="10.00"> </text>
<polyline fill="none" stroke="#bfbfbf" points="266.5,-632 307.5,-632 "/>
<text text-anchor="middle" x="287" y="-620" font-family="Helvetica,sans-Serif" font-size="10.00"> </text>
</a>
</g>
</g>
<!-- Node3&#45;&gt;Node2 -->
<g id="edge2" class="edge">
<title>Node3&#45;&gt;Node2</title>
<path fill="none" stroke="#404040" d="M283.76,-612.7C277.89,-562.95 264.91,-455.45 252,-365 250.38,-353.64 248.58,-341.65 246.76,-329.9"/>
<polygon fill="none" stroke="#404040" points="246.71,-329.62 241.84,-324.31 244.86,-317.77 249.74,-323.08 246.71,-329.62"/>
<text text-anchor="middle" x="287.5" y="-339" font-family="Helvetica,sans-Serif" font-size="10.00"> #animBoolName</text>
</g>
<!-- Node4 -->
<g id="node4" class="node">
<title>Node4</title>
<g id="a_node4"><a xlink:href="class_controllers_1_1_base_controller.html" target="_top" xlink:title=" ">
<polygon fill="none" stroke="black" points="688.5,-365.5 688.5,-917.5 861.5,-917.5 861.5,-365.5 688.5,-365.5"/>
<text text-anchor="middle" x="775" y="-905.5" font-family="Helvetica,sans-Serif" font-size="10.00">Controllers.BaseController</text>
<polyline fill="none" stroke="black" points="688.5,-898.5 861.5,-898.5 "/>
<text text-anchor="start" x="696.5" y="-886.5" font-family="Helvetica,sans-Serif" font-size="10.00">+ int FacingDirection</text>
<text text-anchor="start" x="696.5" y="-875.5" font-family="Helvetica,sans-Serif" font-size="10.00">+ bool IsReadyToAttack</text>
<text text-anchor="start" x="696.5" y="-864.5" font-family="Helvetica,sans-Serif" font-size="10.00">+ bool wallDetected</text>
<text text-anchor="start" x="696.5" y="-853.5" font-family="Helvetica,sans-Serif" font-size="10.00">+ bool groundDetected</text>
<text text-anchor="start" x="696.5" y="-842.5" font-family="Helvetica,sans-Serif" font-size="10.00">+ bool topDetected</text>
<polyline fill="none" stroke="black" points="688.5,-835.5 861.5,-835.5 "/>
<text text-anchor="start" x="696.5" y="-823.5" font-family="Helvetica,sans-Serif" font-size="10.00">+ void Flip()</text>
<text text-anchor="start" x="696.5" y="-812.5" font-family="Helvetica,sans-Serif" font-size="10.00">+ void SetVelocity(float</text>
<text text-anchor="start" x="696.5" y="-801.5" font-family="Helvetica,sans-Serif" font-size="10.00"> velocity)</text>
<text text-anchor="start" x="696.5" y="-790.5" font-family="Helvetica,sans-Serif" font-size="10.00">+ void AddForce(Vector2</text>
<text text-anchor="start" x="696.5" y="-779.5" font-family="Helvetica,sans-Serif" font-size="10.00"> newForce, bool isImpulse)</text>
<text text-anchor="start" x="696.5" y="-768.5" font-family="Helvetica,sans-Serif" font-size="10.00">+ void AddTorque(float</text>
<text text-anchor="start" x="696.5" y="-757.5" font-family="Helvetica,sans-Serif" font-size="10.00"> newTorque, bool isImpulse)</text>
<text text-anchor="start" x="696.5" y="-746.5" font-family="Helvetica,sans-Serif" font-size="10.00">+ T GetMovementController</text>
<text text-anchor="start" x="696.5" y="-735.5" font-family="Helvetica,sans-Serif" font-size="10.00">&lt; T &gt;()</text>
<text text-anchor="start" x="696.5" y="-724.5" font-family="Helvetica,sans-Serif" font-size="10.00">+ Animator GetAnimator()</text>
<text text-anchor="start" x="696.5" y="-713.5" font-family="Helvetica,sans-Serif" font-size="10.00">+ Transform GetTransfrom()</text>
<text text-anchor="start" x="696.5" y="-702.5" font-family="Helvetica,sans-Serif" font-size="10.00">+ GameObject GetDialogueBubble()</text>
<text text-anchor="start" x="696.5" y="-691.5" font-family="Helvetica,sans-Serif" font-size="10.00">+ bool CheckWall()</text>
<text text-anchor="start" x="696.5" y="-680.5" font-family="Helvetica,sans-Serif" font-size="10.00">+ bool CheckLedge()</text>
<text text-anchor="start" x="696.5" y="-669.5" font-family="Helvetica,sans-Serif" font-size="10.00">+ bool CheckGround()</text>
<text text-anchor="start" x="696.5" y="-658.5" font-family="Helvetica,sans-Serif" font-size="10.00">+ bool CheckPlayerInRange()</text>
<text text-anchor="start" x="696.5" y="-647.5" font-family="Helvetica,sans-Serif" font-size="10.00">+ void SwitchStates(ECharacter</text>
<text text-anchor="start" x="696.5" y="-636.5" font-family="Helvetica,sans-Serif" font-size="10.00">State nextState)</text>
<text text-anchor="start" x="696.5" y="-625.5" font-family="Helvetica,sans-Serif" font-size="10.00">+ void Anim_PreparingAttack</text>
<text text-anchor="start" x="696.5" y="-614.5" font-family="Helvetica,sans-Serif" font-size="10.00">Finished()</text>
<text text-anchor="start" x="696.5" y="-603.5" font-family="Helvetica,sans-Serif" font-size="10.00">+ virtual void Damage</text>
<text text-anchor="start" x="696.5" y="-592.5" font-family="Helvetica,sans-Serif" font-size="10.00">(float amount, int attackN)</text>
<text text-anchor="start" x="696.5" y="-581.5" font-family="Helvetica,sans-Serif" font-size="10.00">+ void Damage(BaseController</text>
<text text-anchor="start" x="696.5" y="-570.5" font-family="Helvetica,sans-Serif" font-size="10.00"> controller, DamageInfo</text>
<text text-anchor="start" x="696.5" y="-559.5" font-family="Helvetica,sans-Serif" font-size="10.00"> damageInfo)</text>
<text text-anchor="start" x="696.5" y="-548.5" font-family="Helvetica,sans-Serif" font-size="10.00">+ void Kill()</text>
<text text-anchor="start" x="696.5" y="-537.5" font-family="Helvetica,sans-Serif" font-size="10.00">+ bool Interact(BaseController</text>
<text text-anchor="start" x="696.5" y="-526.5" font-family="Helvetica,sans-Serif" font-size="10.00"> controller, EInteractionKind</text>
<text text-anchor="start" x="696.5" y="-515.5" font-family="Helvetica,sans-Serif" font-size="10.00"> interactionKind)</text>
<text text-anchor="start" x="696.5" y="-504.5" font-family="Helvetica,sans-Serif" font-size="10.00">+ bool Interact(PlayerController</text>
<text text-anchor="start" x="696.5" y="-493.5" font-family="Helvetica,sans-Serif" font-size="10.00"> controller, EInteractionKind</text>
<text text-anchor="start" x="696.5" y="-482.5" font-family="Helvetica,sans-Serif" font-size="10.00"> interactionKind)</text>
<text text-anchor="start" x="696.5" y="-471.5" font-family="Helvetica,sans-Serif" font-size="10.00">+ void ReadyToInteract</text>
<text text-anchor="start" x="696.5" y="-460.5" font-family="Helvetica,sans-Serif" font-size="10.00">(PlayerController controller,</text>
<text text-anchor="start" x="696.5" y="-449.5" font-family="Helvetica,sans-Serif" font-size="10.00"> bool isReady)</text>
<text text-anchor="start" x="696.5" y="-438.5" font-family="Helvetica,sans-Serif" font-size="10.00">+ void ReadyToInteract</text>
<text text-anchor="start" x="696.5" y="-427.5" font-family="Helvetica,sans-Serif" font-size="10.00">(BaseController controller,</text>
<text text-anchor="start" x="696.5" y="-416.5" font-family="Helvetica,sans-Serif" font-size="10.00"> bool isReady)</text>
<text text-anchor="start" x="696.5" y="-405.5" font-family="Helvetica,sans-Serif" font-size="10.00"># virtual void Start()</text>
<text text-anchor="start" x="696.5" y="-394.5" font-family="Helvetica,sans-Serif" font-size="10.00"># virtual void OnDrawGizmos()</text>
<text text-anchor="start" x="696.5" y="-383.5" font-family="Helvetica,sans-Serif" font-size="10.00"># virtual void OnEnterDead</text>
<text text-anchor="start" x="696.5" y="-372.5" font-family="Helvetica,sans-Serif" font-size="10.00">StateStart()</text>
</a>
</g>
</g>
<!-- Node4&#45;&gt;Node2 -->
<g id="edge3" class="edge">
<title>Node4&#45;&gt;Node2</title>
<path fill="none" stroke="#404040" d="M688.38,-578.22C586.11,-504.68 417.27,-383.28 316.73,-310.98"/>
<polygon fill="none" stroke="#404040" points="316.66,-310.94 309.45,-310.68 306.92,-303.93 314.12,-304.19 316.66,-310.94"/>
<text text-anchor="middle" x="389.5" y="-339" font-family="Helvetica,sans-Serif" font-size="10.00"> #controller</text>
</g>
<!-- Node5 -->
<g id="node5" class="node">
<title>Node5</title>
<g id="a_node5"><a xlink:href="interface_controllers_1_1_i_damageable.html" target="_top" xlink:title="Interfaz para todos los NPCs/Enemigos/Objetos que pueden ser daniados.">
<polygon fill="none" stroke="black" points="749,-1290.5 749,-1402.5 897,-1402.5 897,-1290.5 749,-1290.5"/>
<text text-anchor="middle" x="823" y="-1390.5" font-family="Helvetica,sans-Serif" font-size="10.00">IDamageable</text>
<polyline fill="none" stroke="black" points="749,-1383.5 897,-1383.5 "/>
<text text-anchor="middle" x="823" y="-1371.5" font-family="Helvetica,sans-Serif" font-size="10.00"> </text>
<polyline fill="none" stroke="black" points="749,-1364.5 897,-1364.5 "/>
<text text-anchor="start" x="757" y="-1352.5" font-family="Helvetica,sans-Serif" font-size="10.00">+ void Damage(float amount,</text>
<text text-anchor="start" x="757" y="-1341.5" font-family="Helvetica,sans-Serif" font-size="10.00"> int attackN)</text>
<text text-anchor="start" x="757" y="-1330.5" font-family="Helvetica,sans-Serif" font-size="10.00">+ void Damage(BaseController</text>
<text text-anchor="start" x="757" y="-1319.5" font-family="Helvetica,sans-Serif" font-size="10.00"> controller, DamageInfo</text>
<text text-anchor="start" x="757" y="-1308.5" font-family="Helvetica,sans-Serif" font-size="10.00"> damageInfo)</text>
<text text-anchor="start" x="757" y="-1297.5" font-family="Helvetica,sans-Serif" font-size="10.00">+ void Kill()</text>
</a>
</g>
</g>
<!-- Node5&#45;&gt;Node4 -->
<g id="edge4" class="edge">
<title>Node5&#45;&gt;Node4</title>
<path fill="none" stroke="midnightblue" d="M904.91,-1299.31C913.36,-1291.29 920.75,-1282.2 926,-1272 934.93,-1254.66 958.34,-1130.04 921,-965 908.35,-909.1 885.55,-851.13 861.66,-800.02"/>
<polygon fill="none" stroke="midnightblue" points="902.43,-1296.83 897.25,-1306.08 907.06,-1302.08 902.43,-1296.83"/>
</g>
<!-- Node18 -->
<g id="node18" class="node">
<title>Node18</title>
<g id="a_node18"><a xlink:href="class_player_1_1_player_controller.html" target="_top" xlink:title=" ">
<polygon fill="none" stroke="black" points="764,-965.5 764,-1198.5 912,-1198.5 912,-965.5 764,-965.5"/>
<text text-anchor="middle" x="838" y="-1186.5" font-family="Helvetica,sans-Serif" font-size="10.00">Player.PlayerController</text>
<polyline fill="none" stroke="black" points="764,-1179.5 912,-1179.5 "/>
<text text-anchor="middle" x="838" y="-1167.5" font-family="Helvetica,sans-Serif" font-size="10.00"> </text>
<polyline fill="none" stroke="black" points="764,-1160.5 912,-1160.5 "/>
<text text-anchor="start" x="772" y="-1148.5" font-family="Helvetica,sans-Serif" font-size="10.00">+ void Damage(float amount,</text>
<text text-anchor="start" x="772" y="-1137.5" font-family="Helvetica,sans-Serif" font-size="10.00"> int attackN)</text>
<text text-anchor="start" x="772" y="-1126.5" font-family="Helvetica,sans-Serif" font-size="10.00">+ void Damage(BaseController</text>
<text text-anchor="start" x="772" y="-1115.5" font-family="Helvetica,sans-Serif" font-size="10.00"> controller, DamageInfo</text>
<text text-anchor="start" x="772" y="-1104.5" font-family="Helvetica,sans-Serif" font-size="10.00"> damageInfo)</text>
<text text-anchor="start" x="772" y="-1093.5" font-family="Helvetica,sans-Serif" font-size="10.00">+ void Kill()</text>
<text text-anchor="start" x="772" y="-1082.5" font-family="Helvetica,sans-Serif" font-size="10.00">+ void EnterInteractionMode()</text>
<text text-anchor="start" x="772" y="-1071.5" font-family="Helvetica,sans-Serif" font-size="10.00">+ int GetFacingDirection()</text>
<text text-anchor="start" x="772" y="-1060.5" font-family="Helvetica,sans-Serif" font-size="10.00">+ void LandEvt()</text>
<text text-anchor="start" x="772" y="-1049.5" font-family="Helvetica,sans-Serif" font-size="10.00">+ void OnAirEvt()</text>
<text text-anchor="start" x="772" y="-1038.5" font-family="Helvetica,sans-Serif" font-size="10.00">+ bool IsFacingRight()</text>
<text text-anchor="start" x="772" y="-1027.5" font-family="Helvetica,sans-Serif" font-size="10.00">+ void AnimStartPrayingEvt()</text>
<text text-anchor="start" x="772" y="-1016.5" font-family="Helvetica,sans-Serif" font-size="10.00">+ void AnimRollEndEvt()</text>
<text text-anchor="start" x="772" y="-1005.5" font-family="Helvetica,sans-Serif" font-size="10.00">+ void AnimFootStep1Evt()</text>
<text text-anchor="start" x="772" y="-994.5" font-family="Helvetica,sans-Serif" font-size="10.00">+ void AnimFootStep2Evt()</text>
<text text-anchor="start" x="772" y="-983.5" font-family="Helvetica,sans-Serif" font-size="10.00">~ void OnEnable()</text>
<text text-anchor="start" x="772" y="-972.5" font-family="Helvetica,sans-Serif" font-size="10.00">~ void OnDisable()</text>
</a>
</g>
</g>
<!-- Node5&#45;&gt;Node18 -->
<g id="edge18" class="edge">
<title>Node5&#45;&gt;Node18</title>
<path fill="none" stroke="midnightblue" d="M822.06,-1280.12C822.04,-1277.37 822.02,-1274.66 822,-1272 821.83,-1247.56 820.55,-1241.4 822,-1217 822.35,-1211.04 822.8,-1204.93 823.31,-1198.77"/>
<polygon fill="none" stroke="midnightblue" points="818.56,-1280.15 822.17,-1290.12 825.56,-1280.08 818.56,-1280.15"/>
</g>
<!-- Node6 -->
<g id="node6" class="node">
<title>Node6</title>
<g id="a_node6"><a xlink:href="interface_interactions_1_1_interfaces_1_1_i_interactive.html" target="_top" xlink:title=" ">
<polygon fill="none" stroke="black" points="431.5,-993 431.5,-1171 582.5,-1171 582.5,-993 431.5,-993"/>
<text text-anchor="middle" x="507" y="-1159" font-family="Helvetica,sans-Serif" font-size="10.00">IInteractive</text>
<polyline fill="none" stroke="black" points="431.5,-1152 582.5,-1152 "/>
<text text-anchor="middle" x="507" y="-1140" font-family="Helvetica,sans-Serif" font-size="10.00"> </text>
<polyline fill="none" stroke="black" points="431.5,-1133 582.5,-1133 "/>
<text text-anchor="start" x="439.5" y="-1121" font-family="Helvetica,sans-Serif" font-size="10.00">+ bool Interact(BaseController</text>
<text text-anchor="start" x="439.5" y="-1110" font-family="Helvetica,sans-Serif" font-size="10.00"> controller, EInteractionKind</text>
<text text-anchor="start" x="439.5" y="-1099" font-family="Helvetica,sans-Serif" font-size="10.00"> interactionKind)</text>
<text text-anchor="start" x="439.5" y="-1088" font-family="Helvetica,sans-Serif" font-size="10.00">+ bool Interact(PlayerController</text>
<text text-anchor="start" x="439.5" y="-1077" font-family="Helvetica,sans-Serif" font-size="10.00"> controller, EInteractionKind</text>
<text text-anchor="start" x="439.5" y="-1066" font-family="Helvetica,sans-Serif" font-size="10.00"> interactionKind)</text>
<text text-anchor="start" x="439.5" y="-1055" font-family="Helvetica,sans-Serif" font-size="10.00">+ void ReadyToInteract</text>
<text text-anchor="start" x="439.5" y="-1044" font-family="Helvetica,sans-Serif" font-size="10.00">(PlayerController controller,</text>
<text text-anchor="start" x="439.5" y="-1033" font-family="Helvetica,sans-Serif" font-size="10.00"> bool isReady)</text>
<text text-anchor="start" x="439.5" y="-1022" font-family="Helvetica,sans-Serif" font-size="10.00">+ void ReadyToInteract</text>
<text text-anchor="start" x="439.5" y="-1011" font-family="Helvetica,sans-Serif" font-size="10.00">(BaseController controller,</text>
<text text-anchor="start" x="439.5" y="-1000" font-family="Helvetica,sans-Serif" font-size="10.00"> bool isReady)</text>
</a>
</g>
</g>
<!-- Node6&#45;&gt;Node4 -->
<g id="edge5" class="edge">
<title>Node6&#45;&gt;Node4</title>
<path fill="none" stroke="midnightblue" d="M566.13,-984.25C602.03,-925.52 648.49,-849.5 688.47,-784.08"/>
<polygon fill="none" stroke="midnightblue" points="563.14,-982.43 560.91,-992.79 569.11,-986.08 563.14,-982.43"/>
</g>
<!-- Node7 -->
<g id="node7" class="node">
<title>Node7</title>
<g id="a_node7"><a xlink:title=" ">
<polygon fill="none" stroke="#bfbfbf" points="600.5,-1053.5 600.5,-1110.5 671.5,-1110.5 671.5,-1053.5 600.5,-1053.5"/>
<text text-anchor="middle" x="636" y="-1098.5" font-family="Helvetica,sans-Serif" font-size="10.00">Rigidbody2D</text>
<polyline fill="none" stroke="#bfbfbf" points="600.5,-1091.5 671.5,-1091.5 "/>
<text text-anchor="middle" x="636" y="-1079.5" font-family="Helvetica,sans-Serif" font-size="10.00"> </text>
<polyline fill="none" stroke="#bfbfbf" points="600.5,-1072.5 671.5,-1072.5 "/>
<text text-anchor="middle" x="636" y="-1060.5" font-family="Helvetica,sans-Serif" font-size="10.00"> </text>
</a>
</g>
</g>
<!-- Node7&#45;&gt;Node4 -->
<g id="edge6" class="edge">
<title>Node7&#45;&gt;Node4</title>
<path fill="none" stroke="#404040" d="M638.83,-1053.37C642.25,-1023.92 648.96,-976.1 660,-936 666.96,-910.72 675.35,-884.62 684.38,-858.9"/>
<polygon fill="none" stroke="#404040" points="684.4,-858.82 682.65,-851.82 688.42,-847.51 690.18,-854.5 684.4,-858.82"/>
<text text-anchor="middle" x="690" y="-939" font-family="Helvetica,sans-Serif" font-size="10.00"> #rigidbody2D</text>
</g>
<!-- Node8 -->
<g id="node8" class="node">
<title>Node8</title>
<g id="a_node8"><a xlink:title=" ">
<polygon fill="none" stroke="#bfbfbf" points="690,-1053.5 690,-1110.5 746,-1110.5 746,-1053.5 690,-1053.5"/>
<text text-anchor="middle" x="718" y="-1098.5" font-family="Helvetica,sans-Serif" font-size="10.00">Animator</text>
<polyline fill="none" stroke="#bfbfbf" points="690,-1091.5 746,-1091.5 "/>
<text text-anchor="middle" x="718" y="-1079.5" font-family="Helvetica,sans-Serif" font-size="10.00"> </text>
<polyline fill="none" stroke="#bfbfbf" points="690,-1072.5 746,-1072.5 "/>
<text text-anchor="middle" x="718" y="-1060.5" font-family="Helvetica,sans-Serif" font-size="10.00"> </text>
</a>
</g>
</g>
<!-- Node8&#45;&gt;Node4 -->
<g id="edge7" class="edge">
<title>Node8&#45;&gt;Node4</title>
<path fill="none" stroke="#404040" d="M718.07,-1053.39C718.4,-1024.16 719.64,-976.71 724,-936 724.22,-933.92 724.45,-931.84 724.68,-929.75"/>
<polygon fill="none" stroke="#404040" points="724.7,-929.62 721.42,-923.2 726.08,-917.7 729.36,-924.12 724.7,-929.62"/>
<text text-anchor="middle" x="768" y="-939" font-family="Helvetica,sans-Serif" font-size="10.00"> #characterAnimator</text>
</g>
<!-- Node9 -->
<g id="node9" class="node">
<title>Node9</title>
<g id="a_node9"><a xlink:href="class_controllers_1_1_state_machine_1_1_states_1_1_data_1_1_controller_data.html" target="_top" xlink:title=" ">
<polygon fill="none" stroke="black" points="1306.5,-1048 1306.5,-1116 1439.5,-1116 1439.5,-1048 1306.5,-1048"/>
<text text-anchor="start" x="1314.5" y="-1104" font-family="Helvetica,sans-Serif" font-size="10.00">Controllers.StateMachine.</text>
<text text-anchor="middle" x="1373" y="-1093" font-family="Helvetica,sans-Serif" font-size="10.00">States.Data.ControllerData</text>
<polyline fill="none" stroke="black" points="1306.5,-1086 1439.5,-1086 "/>
<text text-anchor="middle" x="1373" y="-1074" font-family="Helvetica,sans-Serif" font-size="10.00"> </text>
<polyline fill="none" stroke="black" points="1306.5,-1067 1439.5,-1067 "/>
<text text-anchor="middle" x="1373" y="-1055" font-family="Helvetica,sans-Serif" font-size="10.00"> </text>
</a>
</g>
</g>
<!-- Node9&#45;&gt;Node4 -->
<g id="edge8" class="edge">
<title>Node9&#45;&gt;Node4</title>
<path fill="none" stroke="#404040" d="M1356.49,-1047.97C1342.93,-1023.1 1321.93,-989.27 1297,-965 1169.04,-840.39 984.78,-740.67 872.85,-686.69"/>
<polygon fill="none" stroke="#404040" points="872.74,-686.63 865.6,-687.65 861.92,-681.45 869.06,-680.43 872.74,-686.63"/>
<text text-anchor="middle" x="1293.5" y="-939" font-family="Helvetica,sans-Serif" font-size="10.00"> +ctrlData</text>
</g>
<!-- Node10 -->
<g id="node10" class="node">
<title>Node10</title>
<g id="a_node10"><a xlink:href="class_scriptable_object.html" target="_top" xlink:title=" ">
<polygon fill="none" stroke="black" points="1390.5,-1318 1390.5,-1375 1479.5,-1375 1479.5,-1318 1390.5,-1318"/>
<text text-anchor="middle" x="1435" y="-1363" font-family="Helvetica,sans-Serif" font-size="10.00">ScriptableObject</text>
<polyline fill="none" stroke="black" points="1390.5,-1356 1479.5,-1356 "/>
<text text-anchor="middle" x="1435" y="-1344" font-family="Helvetica,sans-Serif" font-size="10.00"> </text>
<polyline fill="none" stroke="black" points="1390.5,-1337 1479.5,-1337 "/>
<text text-anchor="middle" x="1435" y="-1325" font-family="Helvetica,sans-Serif" font-size="10.00"> </text>
</a>
</g>
</g>
<!-- Node10&#45;&gt;Node9 -->
<g id="edge9" class="edge">
<title>Node10&#45;&gt;Node9</title>
<path fill="none" stroke="midnightblue" d="M1433.21,-1307.5C1431.43,-1281.71 1427.9,-1246.98 1421,-1217 1412.88,-1181.72 1398.33,-1142.94 1387.38,-1116.21"/>
<polygon fill="none" stroke="midnightblue" points="1429.73,-1307.86 1433.86,-1317.61 1436.71,-1307.41 1429.73,-1307.86"/>
</g>
<!-- Node19 -->
<g id="node19" class="node">
<title>Node19</title>
<g id="a_node19"><a xlink:href="class_controllers_1_1_state_machine_1_1_states_1_1_data_1_1_jump_state_data.html" target="_top" xlink:title=" ">
<polygon fill="none" stroke="black" points="1458,-1048 1458,-1116 1596,-1116 1596,-1048 1458,-1048"/>
<text text-anchor="start" x="1466" y="-1104" font-family="Helvetica,sans-Serif" font-size="10.00">Controllers.StateMachine.</text>
<text text-anchor="middle" x="1527" y="-1093" font-family="Helvetica,sans-Serif" font-size="10.00">States.Data.JumpStateData</text>
<polyline fill="none" stroke="black" points="1458,-1086 1596,-1086 "/>
<text text-anchor="middle" x="1527" y="-1074" font-family="Helvetica,sans-Serif" font-size="10.00"> </text>
<polyline fill="none" stroke="black" points="1458,-1067 1596,-1067 "/>
<text text-anchor="middle" x="1527" y="-1055" font-family="Helvetica,sans-Serif" font-size="10.00"> </text>
</a>
</g>
</g>
<!-- Node10&#45;&gt;Node19 -->
<g id="edge25" class="edge">
<title>Node10&#45;&gt;Node19</title>
<path fill="none" stroke="midnightblue" d="M1448.07,-1308.21C1466.04,-1256.95 1498.09,-1165.49 1515.3,-1116.37"/>
<polygon fill="none" stroke="midnightblue" points="1444.68,-1307.31 1444.67,-1317.9 1451.28,-1309.62 1444.68,-1307.31"/>
</g>
<!-- Node11 -->
<g id="node11" class="node">
<title>Node11</title>
<g id="a_node11"><a xlink:title=" ">
<polygon fill="none" stroke="#bfbfbf" points="930.5,-1318 930.5,-1375 965.5,-1375 965.5,-1318 930.5,-1318"/>
<text text-anchor="middle" x="948" y="-1363" font-family="Helvetica,sans-Serif" font-size="10.00">float</text>
<polyline fill="none" stroke="#bfbfbf" points="930.5,-1356 965.5,-1356 "/>
<text text-anchor="middle" x="948" y="-1344" font-family="Helvetica,sans-Serif" font-size="10.00"> </text>
<polyline fill="none" stroke="#bfbfbf" points="930.5,-1337 965.5,-1337 "/>
<text text-anchor="middle" x="948" y="-1325" font-family="Helvetica,sans-Serif" font-size="10.00"> </text>
</a>
</g>
</g>
<!-- Node11&#45;&gt;Node2 -->
<g id="edge21" class="edge">
<title>Node11&#45;&gt;Node2</title>
<path fill="none" stroke="#404040" d="M933.47,-1317.81C926.56,-1307.39 917.32,-1296.49 906,-1290 668.4,-1153.69 566.14,-1248.26 294,-1217 257.8,-1212.84 155.31,-1226.15 131,-1199 98.28,-1162.47 87.38,-561.98 154,-365 158.3,-352.28 164.52,-339.73 171.61,-327.87"/>
<polygon fill="none" stroke="#404040" points="171.66,-327.79 171.46,-320.58 178.04,-317.63 178.24,-324.84 171.66,-327.79"/>
<text text-anchor="middle" x="130.5" y="-939" font-family="Helvetica,sans-Serif" font-size="10.00"> #startTime</text>
</g>
<!-- Node11&#45;&gt;Node9 -->
<g id="edge10" class="edge">
<title>Node11&#45;&gt;Node9</title>
<path fill="none" stroke="#404040" d="M958.92,-1317.82C972.6,-1287.24 999.2,-1239.37 1039,-1217 1089.1,-1188.84 1247.42,-1228.07 1297,-1199 1324.32,-1182.98 1343.63,-1152.8 1355.95,-1127.24"/>
<polygon fill="none" stroke="#404040" points="1355.98,-1127.17 1354.83,-1120.05 1360.96,-1116.26 1362.11,-1123.38 1355.98,-1127.17"/>
<text text-anchor="middle" x="1095" y="-1264" font-family="Helvetica,sans-Serif" font-size="10.00"> +groundCheckDistance</text>
<text text-anchor="middle" x="1095" y="-1253" font-family="Helvetica,sans-Serif" font-size="10.00">+ledgeCheckDistacne</text>
<text text-anchor="middle" x="1095" y="-1242" font-family="Helvetica,sans-Serif" font-size="10.00">+playerDetectionDistance</text>
<text text-anchor="middle" x="1095" y="-1231" font-family="Helvetica,sans-Serif" font-size="10.00">+topCheckDistance</text>
<text text-anchor="middle" x="1095" y="-1220" font-family="Helvetica,sans-Serif" font-size="10.00">+wallCheckDistance</text>
</g>
<!-- Node11&#45;&gt;Node18 -->
<g id="edge19" class="edge">
<title>Node11&#45;&gt;Node18</title>
<path fill="none" stroke="#404040" d="M930.31,-1321.21C920.73,-1307.3 909.22,-1289.22 901,-1272 891.7,-1252.51 883.19,-1231.29 875.63,-1210.33"/>
<polygon fill="none" stroke="#404040" points="875.53,-1210.04 869.76,-1205.72 871.53,-1198.73 877.3,-1203.05 875.53,-1210.04"/>
<text text-anchor="middle" x="943" y="-1242" font-family="Helvetica,sans-Serif" font-size="10.00"> #interactionRadius</text>
</g>
<!-- Node11&#45;&gt;Node19 -->
<g id="edge27" class="edge">
<title>Node11&#45;&gt;Node19</title>
<path fill="none" stroke="#404040" d="M965.61,-1339.26C997.85,-1328.02 1068.7,-1304.25 1130,-1290 1178.68,-1278.69 1196.03,-1293.8 1241,-1272 1273.55,-1256.22 1268.14,-1232.13 1301,-1217 1361.19,-1189.29 1392.51,-1233.63 1449,-1199 1476.12,-1182.37 1495.92,-1152.35 1508.79,-1127.02"/>
<polygon fill="none" stroke="#404040" points="1508.82,-1126.94 1507.83,-1119.8 1514.04,-1116.14 1515.03,-1123.28 1508.82,-1126.94"/>
<text text-anchor="start" x="1301" y="-1253" font-family="Helvetica,sans-Serif" font-size="10.00"> +jumpingCooldownRandomRange</text>
<text text-anchor="middle" x="1379.5" y="-1242" font-family="Helvetica,sans-Serif" font-size="10.00">From</text>
<text text-anchor="middle" x="1379.5" y="-1231" font-family="Helvetica,sans-Serif" font-size="10.00">+jumpingCooldownRandomRangeTo</text>
</g>
<!-- Node12 -->
<g id="node12" class="node">
<title>Node12</title>
<g id="a_node12"><a xlink:title=" ">
<polygon fill="none" stroke="#bfbfbf" points="1138.5,-1318 1138.5,-1375 1203.5,-1375 1203.5,-1318 1138.5,-1318"/>
<text text-anchor="middle" x="1171" y="-1363" font-family="Helvetica,sans-Serif" font-size="10.00">LayerMask</text>
<polyline fill="none" stroke="#bfbfbf" points="1138.5,-1356 1203.5,-1356 "/>
<text text-anchor="middle" x="1171" y="-1344" font-family="Helvetica,sans-Serif" font-size="10.00"> </text>
<polyline fill="none" stroke="#bfbfbf" points="1138.5,-1337 1203.5,-1337 "/>
<text text-anchor="middle" x="1171" y="-1325" font-family="Helvetica,sans-Serif" font-size="10.00"> </text>
</a>
</g>
</g>
<!-- Node12&#45;&gt;Node9 -->
<g id="edge11" class="edge">
<title>Node12&#45;&gt;Node9</title>
<path fill="none" stroke="#404040" d="M1161.83,-1317.79C1154.22,-1289 1148.08,-1244.39 1172,-1217 1208.92,-1174.72 1249.65,-1229.14 1297,-1199 1323.42,-1182.18 1342.61,-1152.51 1355.1,-1127.38"/>
<polygon fill="none" stroke="#404040" points="1355.25,-1127.07 1354.19,-1119.94 1360.37,-1116.22 1361.43,-1123.35 1355.25,-1127.07"/>
<text text-anchor="middle" x="1206.5" y="-1242" font-family="Helvetica,sans-Serif" font-size="10.00"> +whatIsGround</text>
</g>
<!-- Node13 -->
<g id="node13" class="node">
<title>Node13</title>
<g id="a_node13"><a xlink:title=" ">
<polygon fill="none" stroke="#bfbfbf" points="968.5,-1053.5 968.5,-1110.5 1031.5,-1110.5 1031.5,-1053.5 968.5,-1053.5"/>
<text text-anchor="middle" x="1000" y="-1098.5" font-family="Helvetica,sans-Serif" font-size="10.00">UnityEvent</text>
<polyline fill="none" stroke="#bfbfbf" points="968.5,-1091.5 1031.5,-1091.5 "/>
<text text-anchor="middle" x="1000" y="-1079.5" font-family="Helvetica,sans-Serif" font-size="10.00"> </text>
<polyline fill="none" stroke="#bfbfbf" points="968.5,-1072.5 1031.5,-1072.5 "/>
<text text-anchor="middle" x="1000" y="-1060.5" font-family="Helvetica,sans-Serif" font-size="10.00"> </text>
</a>
</g>
</g>
<!-- Node13&#45;&gt;Node4 -->
<g id="edge12" class="edge">
<title>Node13&#45;&gt;Node4</title>
<path fill="none" stroke="#404040" d="M993.33,-1053.28C985.7,-1023.54 971.9,-975.3 954,-936 929.91,-883.12 898.26,-828.01 868.28,-780.02"/>
<polygon fill="none" stroke="#404040" points="868.09,-779.73 861.51,-776.78 861.71,-769.58 868.29,-772.52 868.09,-779.73"/>
<text text-anchor="middle" x="990.5" y="-939" font-family="Helvetica,sans-Serif" font-size="10.00"> +OnLandEvent</text>
</g>
<!-- Node14 -->
<g id="node14" class="node">
<title>Node14</title>
<g id="a_node14"><a xlink:href="class_controllers_1_1_movement_1_1_base_movement_controller.html" target="_top" xlink:title=" ">
<polygon fill="none" stroke="black" points="1050,-1048 1050,-1116 1186,-1116 1186,-1048 1050,-1048"/>
<text text-anchor="start" x="1058" y="-1104" font-family="Helvetica,sans-Serif" font-size="10.00">Controllers.Movement.Base</text>
<text text-anchor="middle" x="1118" y="-1093" font-family="Helvetica,sans-Serif" font-size="10.00">MovementController</text>
<polyline fill="none" stroke="black" points="1050,-1086 1186,-1086 "/>
<text text-anchor="middle" x="1118" y="-1074" font-family="Helvetica,sans-Serif" font-size="10.00"> </text>
<polyline fill="none" stroke="black" points="1050,-1067 1186,-1067 "/>
<text text-anchor="middle" x="1118" y="-1055" font-family="Helvetica,sans-Serif" font-size="10.00"> </text>
</a>
</g>
</g>
<!-- Node14&#45;&gt;Node4 -->
<g id="edge13" class="edge">
<title>Node14&#45;&gt;Node4</title>
<path fill="none" stroke="#404040" d="M1099.39,-1047.8C1082.09,-1017.78 1055.01,-972.78 1028,-936 979.15,-869.49 919.02,-799.32 869.64,-744.28"/>
<polygon fill="none" stroke="#404040" points="869.53,-744.16 862.54,-742.37 861.5,-735.24 868.49,-737.02 869.53,-744.16"/>
<text text-anchor="middle" x="1090.5" y="-939" font-family="Helvetica,sans-Serif" font-size="10.00"> #baseMovementController</text>
</g>
<!-- Node15 -->
<g id="node15" class="node">
<title>Node15</title>
<g id="a_node15"><a xlink:href="class_controllers_1_1_state_machine_1_1_controller_state_machine.html" target="_top" xlink:title="Controla el estado de un enemigo o NPC, desde que spawnea hasta que muere. Casi todos los metodos son...">
<polygon fill="none" stroke="black" points="284.5,-1031.5 284.5,-1132.5 413.5,-1132.5 413.5,-1031.5 284.5,-1031.5"/>
<text text-anchor="start" x="292.5" y="-1120.5" font-family="Helvetica,sans-Serif" font-size="10.00">Controllers.StateMachine.</text>
<text text-anchor="middle" x="349" y="-1109.5" font-family="Helvetica,sans-Serif" font-size="10.00">ControllerStateMachine</text>
<polyline fill="none" stroke="black" points="284.5,-1102.5 413.5,-1102.5 "/>
<text text-anchor="start" x="292.5" y="-1090.5" font-family="Helvetica,sans-Serif" font-size="10.00">+ State CurrentState</text>
<polyline fill="none" stroke="black" points="284.5,-1083.5 413.5,-1083.5 "/>
<text text-anchor="start" x="292.5" y="-1071.5" font-family="Helvetica,sans-Serif" font-size="10.00">+ void Initialize(State</text>
<text text-anchor="start" x="292.5" y="-1060.5" font-family="Helvetica,sans-Serif" font-size="10.00"> startState)</text>
<text text-anchor="start" x="292.5" y="-1049.5" font-family="Helvetica,sans-Serif" font-size="10.00">+ void ChangeState(State</text>
<text text-anchor="start" x="292.5" y="-1038.5" font-family="Helvetica,sans-Serif" font-size="10.00"> nextState)</text>
</a>
</g>
</g>
<!-- Node15&#45;&gt;Node2 -->
<g id="edge22" class="edge">
<title>Node15&#45;&gt;Node2</title>
<path fill="none" stroke="#404040" d="M321.95,-1031.33C308.33,-1009.27 290.37,-984.06 270,-965 239.88,-936.83 210.48,-953.79 190,-918 128.96,-811.34 167.41,-485.79 190,-365 192.21,-353.16 195.62,-340.96 199.59,-329.16"/>
<polygon fill="none" stroke="#404040" points="199.71,-328.83 197.94,-321.83 203.71,-317.51 205.48,-324.5 199.71,-328.83"/>
<text text-anchor="middle" x="223.5" y="-639" font-family="Helvetica,sans-Serif" font-size="10.00"> #stateMachine</text>
</g>
<!-- Node15&#45;&gt;Node4 -->
<g id="edge14" class="edge">
<title>Node15&#45;&gt;Node4</title>
<path fill="none" stroke="#404040" d="M376.26,-1031.31C388.95,-1009.99 404.99,-985.36 422,-965 499.84,-871.85 603.95,-779.88 678.91,-718.14"/>
<polygon fill="none" stroke="#404040" points="679.08,-718 681.19,-711.1 688.36,-710.39 686.26,-717.28 679.08,-718"/>
<text text-anchor="middle" x="474" y="-939" font-family="Helvetica,sans-Serif" font-size="10.00"> +StateMachine</text>
</g>
<!-- Node16 -->
<g id="node16" class="node">
<title>Node16</title>
<g id="a_node16"><a xlink:title=" ">
<polygon fill="none" stroke="#bfbfbf" points="1204,-1053.5 1204,-1110.5 1288,-1110.5 1288,-1053.5 1204,-1053.5"/>
<text text-anchor="middle" x="1246" y="-1098.5" font-family="Helvetica,sans-Serif" font-size="10.00">EControllerKind</text>
<polyline fill="none" stroke="#bfbfbf" points="1204,-1091.5 1288,-1091.5 "/>
<text text-anchor="middle" x="1246" y="-1079.5" font-family="Helvetica,sans-Serif" font-size="10.00"> </text>
<polyline fill="none" stroke="#bfbfbf" points="1204,-1072.5 1288,-1072.5 "/>
<text text-anchor="middle" x="1246" y="-1060.5" font-family="Helvetica,sans-Serif" font-size="10.00"> </text>
</a>
</g>
</g>
<!-- Node16&#45;&gt;Node4 -->
<g id="edge15" class="edge">
<title>Node16&#45;&gt;Node4</title>
<path fill="none" stroke="#404040" d="M1238.12,-1053.12C1230.12,-1028.22 1215.91,-991.66 1195,-965 1105.04,-850.3 965.4,-753.97 872.13,-697.25"/>
<polygon fill="none" stroke="#404040" points="872.12,-697.24 864.91,-697.57 861.84,-691.04 869.05,-690.72 872.12,-697.24"/>
<text text-anchor="middle" x="1210" y="-939" font-family="Helvetica,sans-Serif" font-size="10.00"> #controllerKind</text>
</g>
<!-- Node17 -->
<g id="node17" class="node">
<title>Node17</title>
<g id="a_node17"><a xlink:title=" ">
<polygon fill="none" stroke="#bfbfbf" points="145.5,-1318 145.5,-1375 180.5,-1375 180.5,-1318 145.5,-1318"/>
<text text-anchor="middle" x="163" y="-1363" font-family="Helvetica,sans-Serif" font-size="10.00">bool</text>
<polyline fill="none" stroke="#bfbfbf" points="145.5,-1356 180.5,-1356 "/>
<text text-anchor="middle" x="163" y="-1344" font-family="Helvetica,sans-Serif" font-size="10.00"> </text>
<polyline fill="none" stroke="#bfbfbf" points="145.5,-1337 180.5,-1337 "/>
<text text-anchor="middle" x="163" y="-1325" font-family="Helvetica,sans-Serif" font-size="10.00"> </text>
</a>
</g>
</g>
<!-- Node17&#45;&gt;Node1 -->
<g id="edge23" class="edge">
<title>Node17&#45;&gt;Node1</title>
<path fill="none" stroke="#404040" d="M145.25,-1330.68C103,-1293.65 0,-1192.17 0,-1083 0,-1083 0,-1083 0,-249.5 0,-184.01 59.39,-139.96 118.33,-112.37"/>
<polygon fill="none" stroke="#404040" points="118.38,-112.35 122.2,-106.24 129.32,-107.41 125.5,-113.53 118.38,-112.35"/>
<text text-anchor="middle" x="44.5" y="-650" font-family="Helvetica,sans-Serif" font-size="10.00"> #isDetectingGround</text>
<text text-anchor="middle" x="44.5" y="-639" font-family="Helvetica,sans-Serif" font-size="10.00">#isDetectingLedge</text>
<text text-anchor="middle" x="44.5" y="-628" font-family="Helvetica,sans-Serif" font-size="10.00">#isDetectingWall</text>
</g>
<!-- Node17&#45;&gt;Node4 -->
<g id="edge16" class="edge">
<title>Node17&#45;&gt;Node4</title>
<path fill="none" stroke="#404040" d="M153.93,-1317.92C133.5,-1250.13 91.65,-1073.03 172,-965 212.18,-910.98 254.75,-945.94 316,-918 446.88,-858.29 587.29,-770.07 677.86,-709.64"/>
<polygon fill="none" stroke="#404040" points="678.14,-709.46 680.9,-702.8 688.11,-702.78 685.35,-709.44 678.14,-709.46"/>
<text text-anchor="middle" x="223.5" y="-1079.5" font-family="Helvetica,sans-Serif" font-size="10.00"> #playerFacingDirection</text>
</g>
<!-- Node17&#45;&gt;Node18 -->
<g id="edge20" class="edge">
<title>Node17&#45;&gt;Node18</title>
<path fill="none" stroke="#404040" d="M180.6,-1341.9C269.19,-1323.71 665.3,-1241.19 753.32,-1198.33"/>
<polygon fill="none" stroke="#404040" points="753.54,-1198.2 756.8,-1191.77 763.99,-1192.31 760.73,-1198.74 753.54,-1198.2"/>
<text text-anchor="middle" x="755.5" y="-1264" font-family="Helvetica,sans-Serif" font-size="10.00"> +isEnrolledInDialogue</text>
<text text-anchor="middle" x="755.5" y="-1253" font-family="Helvetica,sans-Serif" font-size="10.00">~moveOnDamaged</text>
<text text-anchor="middle" x="755.5" y="-1242" font-family="Helvetica,sans-Serif" font-size="10.00">~praying</text>
<text text-anchor="middle" x="755.5" y="-1231" font-family="Helvetica,sans-Serif" font-size="10.00">~respawning</text>
<text text-anchor="middle" x="755.5" y="-1220" font-family="Helvetica,sans-Serif" font-size="10.00">~roll</text>
</g>
<!-- Node18&#45;&gt;Node4 -->
<g id="edge17" class="edge">
<title>Node18&#45;&gt;Node4</title>
<path fill="none" stroke="#404040" d="M821.37,-965.22C819.74,-953.89 818.04,-942.09 816.3,-929.98"/>
<polygon fill="none" stroke="#404040" points="816.26,-929.65 811.44,-924.28 814.55,-917.78 819.36,-923.15 816.26,-929.65"/>
<text text-anchor="middle" x="856" y="-939" font-family="Helvetica,sans-Serif" font-size="10.00"> #playerController</text>
</g>
<!-- Node19&#45;&gt;Node1 -->
<g id="edge24" class="edge">
<title>Node19&#45;&gt;Node1</title>
<path fill="none" stroke="#404040" d="M1506.94,-1047.92C1491.98,-1024.11 1470.5,-991.62 1449,-965 1216.36,-676.93 1173.15,-579.02 871,-365 704.82,-247.29 483.41,-159.04 350.18,-112.09"/>
<polygon fill="none" stroke="#404040" points="350.09,-112.06 343.1,-113.85 338.76,-108.09 345.75,-106.3 350.09,-112.06"/>
<text text-anchor="middle" x="866.5" y="-339" font-family="Helvetica,sans-Serif" font-size="10.00"> #stateData</text>
</g>
<!-- Node20 -->
<g id="node20" class="node">
<title>Node20</title>
<g id="a_node20"><a xlink:title=" ">
<polygon fill="none" stroke="#bfbfbf" points="1498,-1318 1498,-1375 1556,-1375 1556,-1318 1498,-1318"/>
<text text-anchor="middle" x="1527" y="-1363" font-family="Helvetica,sans-Serif" font-size="10.00">AudioClip</text>
<polyline fill="none" stroke="#bfbfbf" points="1498,-1356 1556,-1356 "/>
<text text-anchor="middle" x="1527" y="-1344" font-family="Helvetica,sans-Serif" font-size="10.00"> </text>
<polyline fill="none" stroke="#bfbfbf" points="1498,-1337 1556,-1337 "/>
<text text-anchor="middle" x="1527" y="-1325" font-family="Helvetica,sans-Serif" font-size="10.00"> </text>
</a>
</g>
</g>
<!-- Node20&#45;&gt;Node19 -->
<g id="edge26" class="edge">
<title>Node20&#45;&gt;Node19</title>
<path fill="none" stroke="#404040" d="M1527,-1317.9C1527,-1272.84 1527,-1183.02 1527,-1128.44"/>
<polygon fill="none" stroke="#404040" points="1527,-1128.37 1523,-1122.37 1527,-1116.37 1531,-1122.37 1527,-1128.37"/>
<text text-anchor="middle" x="1551.5" y="-1247.5" font-family="Helvetica,sans-Serif" font-size="10.00"> +jumpSFX</text>
<text text-anchor="middle" x="1551.5" y="-1236.5" font-family="Helvetica,sans-Serif" font-size="10.00">+landSFX</text>
</g>
<!-- Node21 -->
<g id="node21" class="node">
<title>Node21</title>
<g id="a_node21"><a xlink:title=" ">
<polygon fill="none" stroke="#bfbfbf" points="1574,-1318 1574,-1375 1624,-1375 1624,-1318 1574,-1318"/>
<text text-anchor="middle" x="1599" y="-1363" font-family="Helvetica,sans-Serif" font-size="10.00">Vector2</text>
<polyline fill="none" stroke="#bfbfbf" points="1574,-1356 1624,-1356 "/>
<text text-anchor="middle" x="1599" y="-1344" font-family="Helvetica,sans-Serif" font-size="10.00"> </text>
<polyline fill="none" stroke="#bfbfbf" points="1574,-1337 1624,-1337 "/>
<text text-anchor="middle" x="1599" y="-1325" font-family="Helvetica,sans-Serif" font-size="10.00"> </text>
</a>
</g>
</g>
<!-- Node21&#45;&gt;Node19 -->
<g id="edge28" class="edge">
<title>Node21&#45;&gt;Node19</title>
<path fill="none" stroke="#404040" d="M1595.76,-1317.6C1592.35,-1291.35 1586.19,-1251.09 1577,-1217 1568.76,-1186.44 1556.33,-1153.09 1545.92,-1127.3"/>
<polygon fill="none" stroke="#404040" points="1545.85,-1127.13 1539.88,-1123.09 1541.31,-1116.02 1547.28,-1120.06 1545.85,-1127.13"/>
<text text-anchor="middle" x="1622" y="-1242" font-family="Helvetica,sans-Serif" font-size="10.00"> +jumpingForce</text>
</g>
</g>
</svg>
        <g id="navigator" transform="translate(0 0)" fill="#404254">
                <rect fill="#f2f5e9" fill-opacity="0.5" stroke="#606060" stroke-width=".5" x="0" y="0" width="60" height="60"/>
                <use id="zoomplus" xlink:href="#zoomPlus" x="17" y="9" onmousedown="handleZoom(evt,'in')"/>
                <use id="zoomminus" xlink:href="#zoomMin" x="42" y="9" onmousedown="handleZoom(evt,'out')"/>
                <use id="reset" xlink:href="#resetDef" x="30" y="36" onmousedown="handleReset()"/>
                <g id="arrowUp" xlink:href="#dirArrow" transform="translate(30 24)" onmousedown="handlePan(0,-1)">
                  <use xlink:href="#rim" fill="#404040">
                        <set attributeName="fill" to="#808080" begin="arrowUp.mouseover" end="arrowUp.mouseout"/>
                  </use>
                  <path fill="none" stroke="white" stroke-width="1.5" d="M0,-3.0v7 M-2.5,-0.5L0,-3.0L2.5,-0.5"/>
                </g>
                <g id="arrowRight" xlink:href="#dirArrow" transform="rotate(90) translate(36 -43)" onmousedown="handlePan(1,0)">
                  <use xlink:href="#rim" fill="#404040">
                        <set attributeName="fill" to="#808080" begin="arrowRight.mouseover" end="arrowRight.mouseout"/>
                  </use>
                  <path fill="none" stroke="white" stroke-width="1.5" d="M0,-3.0v7 M-2.5,-0.5L0,-3.0L2.5,-0.5"/>
                </g>
                <g id="arrowDown" xlink:href="#dirArrow" transform="rotate(180) translate(-30 -48)" onmousedown="handlePan(0,1)">
                  <use xlink:href="#rim" fill="#404040">
                        <set attributeName="fill" to="#808080" begin="arrowDown.mouseover" end="arrowDown.mouseout"/>
                  </use>
                  <path fill="none" stroke="white" stroke-width="1.5" d="M0,-3.0v7 M-2.5,-0.5L0,-3.0L2.5,-0.5"/>
                </g>
                <g id="arrowLeft" xlink:href="#dirArrow" transform="rotate(270) translate(-36 17)" onmousedown="handlePan(-1,0)">
                  <use xlink:href="#rim" fill="#404040">
                        <set attributeName="fill" to="#808080" begin="arrowLeft.mouseover" end="arrowLeft.mouseout"/>
                  </use>
                  <path fill="none" stroke="white" stroke-width="1.5" d="M0,-3.0v7 M-2.5,-0.5L0,-3.0L2.5,-0.5"/>
                </g>
        </g>
        <svg viewBox="0 0 15 15" width="100%" height="30px" preserveAspectRatio="xMaxYMin meet">
         <g id="arrow_out" transform="scale(0.3 0.3)">
          <a xlink:href="class_controllers_1_1_state_machine_1_1_states_1_1_jump_state__coll__graph_org.svg" target="_base">
           <rect id="button" ry="5" rx="5" y="6" x="6" height="38" width="38"
                fill="#f2f5e9" fill-opacity="0.5" stroke="#606060" stroke-width="1.0"/>
           <path id="arrow"
             d="M 11.500037,31.436501 C 11.940474,20.09759 22.043105,11.32322 32.158766,21.979434 L 37.068811,17.246167 C 37.068811,17.246167 37.088388,32 37.088388,32 L 22.160133,31.978069 C 22.160133,31.978069 26.997745,27.140456 26.997745,27.140456 C 18.528582,18.264221 13.291696,25.230495 11.500037,31.436501 z"
             style="fill:#404040;"/>
          </a>
         </g>
        </svg>
</svg>
