<?xml version="1.0" encoding="UTF-8" standalone="no"?>
<!DOCTYPE svg PUBLIC "-//W3C//DTD SVG 1.1//EN"
 "http://www.w3.org/Graphics/SVG/1.1/DTD/svg11.dtd">
<!-- Generated by graphviz version 2.48.0 (20210717.1556)
 -->
<!-- Title: Controllers.BaseController Pages: 1 -->
<!--zoomable 1070 -->
<svg id="main" version="1.1" xmlns="http://www.w3.org/2000/svg" xmlns:xlink="http://www.w3.org/1999/xlink" xml:space="preserve" onload="init(evt)">
<style type="text/css"><![CDATA[
.edge:hover path { stroke: red; }
.edge:hover polygon { stroke: red; fill: red; }
]]></style>
<script type="text/javascript"><![CDATA[
var edges = document.getElementsByTagName('g');
if (edges && edges.length) {
  for (var i=0;i<edges.length;i++) {
    if (edges[i].id.substr(0,4)=='edge') {
      edges[i].setAttribute('class','edge');
    }
  }
}
]]></script>
        <defs>
                <circle id="rim" cx="0" cy="0" r="7"/>
                <circle id="rim2" cx="0" cy="0" r="3.5"/>
                <g id="zoomPlus">
                        <use xlink:href="#rim" fill="#404040">
                                <set attributeName="fill" to="#808080" begin="zoomplus.mouseover" end="zoomplus.mouseout"/>
                        </use>
                        <path d="M-4,0h8M0,-4v8" fill="none" stroke="white" stroke-width="1.5" pointer-events="none"/>
                </g>
                <g id="zoomMin">
                        <use xlink:href="#rim" fill="#404040">
                                <set attributeName="fill" to="#808080" begin="zoomminus.mouseover" end="zoomminus.mouseout"/>
                        </use>
                        <path d="M-4,0h8" fill="none" stroke="white" stroke-width="1.5" pointer-events="none"/>
                </g>
                <g id="dirArrow">
                        <path fill="none" stroke="white" stroke-width="1.5" d="M0,-3.0v7 M-2.5,-0.5L0,-3.0L2.5,-0.5"/>
                </g>
               <g id="resetDef">
                       <use xlink:href="#rim2" fill="#404040">
                               <set attributeName="fill" to="#808080" begin="reset.mouseover" end="reset.mouseout"/>
                       </use>
               </g>
        </defs>

<script type="text/javascript">
var viewWidth = 1114;
var viewHeight = 1070;
var sectionId = 'dynsection-1';
</script>
<script xlink:href="svgpan.js"/>
<svg id="graph" class="graph">
<g id="viewport">
<title>Controllers.BaseController</title>
<!-- Node1 -->
<g id="node1" class="node">
<title>Node1</title>
<g id="a_node1"><a xlink:title=" ">
<polygon fill="#bfbfbf" stroke="black" points="413.5,-0.5 413.5,-365.5 586.5,-365.5 586.5,-0.5 413.5,-0.5"/>
<text text-anchor="middle" x="500" y="-353.5" font-family="Helvetica,sans-Serif" font-size="10.00">Controllers.BaseController</text>
<polyline fill="none" stroke="black" points="413.5,-346.5 586.5,-346.5 "/>
<text text-anchor="middle" x="500" y="-334.5" font-family="Helvetica,sans-Serif" font-size="10.00"> </text>
<polyline fill="none" stroke="black" points="413.5,-327.5 586.5,-327.5 "/>
<text text-anchor="start" x="421.5" y="-315.5" font-family="Helvetica,sans-Serif" font-size="10.00">+ void SwitchStates(ECharacter</text>
<text text-anchor="start" x="421.5" y="-304.5" font-family="Helvetica,sans-Serif" font-size="10.00">State nextState)</text>
<text text-anchor="start" x="421.5" y="-293.5" font-family="Helvetica,sans-Serif" font-size="10.00">+ T GetMovementController</text>
<text text-anchor="start" x="421.5" y="-282.5" font-family="Helvetica,sans-Serif" font-size="10.00">&lt; T &gt;()</text>
<text text-anchor="start" x="421.5" y="-271.5" font-family="Helvetica,sans-Serif" font-size="10.00">+ Animator GetAnimator()</text>
<text text-anchor="start" x="421.5" y="-260.5" font-family="Helvetica,sans-Serif" font-size="10.00">+ GameObject GetDialogueBubble()</text>
<text text-anchor="start" x="421.5" y="-249.5" font-family="Helvetica,sans-Serif" font-size="10.00">+ virtual void Damage</text>
<text text-anchor="start" x="421.5" y="-238.5" font-family="Helvetica,sans-Serif" font-size="10.00">(float amount, int attackN)</text>
<text text-anchor="start" x="421.5" y="-227.5" font-family="Helvetica,sans-Serif" font-size="10.00">+ void Kill()</text>
<text text-anchor="start" x="421.5" y="-216.5" font-family="Helvetica,sans-Serif" font-size="10.00">+ bool Interact(BaseController</text>
<text text-anchor="start" x="421.5" y="-205.5" font-family="Helvetica,sans-Serif" font-size="10.00"> controller, EInteractionKind</text>
<text text-anchor="start" x="421.5" y="-194.5" font-family="Helvetica,sans-Serif" font-size="10.00"> interactionKind)</text>
<text text-anchor="start" x="421.5" y="-183.5" font-family="Helvetica,sans-Serif" font-size="10.00">+ bool Interact(PlayerController</text>
<text text-anchor="start" x="421.5" y="-172.5" font-family="Helvetica,sans-Serif" font-size="10.00"> controller, EInteractionKind</text>
<text text-anchor="start" x="421.5" y="-161.5" font-family="Helvetica,sans-Serif" font-size="10.00"> interactionKind)</text>
<text text-anchor="start" x="421.5" y="-150.5" font-family="Helvetica,sans-Serif" font-size="10.00">+ void ReadyToInteract</text>
<text text-anchor="start" x="421.5" y="-139.5" font-family="Helvetica,sans-Serif" font-size="10.00">(PlayerController controller,</text>
<text text-anchor="start" x="421.5" y="-128.5" font-family="Helvetica,sans-Serif" font-size="10.00"> bool isReady)</text>
<text text-anchor="start" x="421.5" y="-117.5" font-family="Helvetica,sans-Serif" font-size="10.00">+ void ReadyToInteract</text>
<text text-anchor="start" x="421.5" y="-106.5" font-family="Helvetica,sans-Serif" font-size="10.00">(BaseController controller,</text>
<text text-anchor="start" x="421.5" y="-95.5" font-family="Helvetica,sans-Serif" font-size="10.00"> bool isReady)</text>
<text text-anchor="start" x="421.5" y="-84.5" font-family="Helvetica,sans-Serif" font-size="10.00"># virtual void OnStart()</text>
<text text-anchor="start" x="421.5" y="-73.5" font-family="Helvetica,sans-Serif" font-size="10.00"># virtual void OnUpdate()</text>
<text text-anchor="start" x="421.5" y="-62.5" font-family="Helvetica,sans-Serif" font-size="10.00"># virtual void OnFixedUpdate()</text>
<text text-anchor="start" x="421.5" y="-51.5" font-family="Helvetica,sans-Serif" font-size="10.00"># virtual void DrawGizmos()</text>
<text text-anchor="start" x="421.5" y="-40.5" font-family="Helvetica,sans-Serif" font-size="10.00"># virtual bool OnUpdateJumping</text>
<text text-anchor="start" x="421.5" y="-29.5" font-family="Helvetica,sans-Serif" font-size="10.00">StateStart()</text>
<text text-anchor="start" x="421.5" y="-18.5" font-family="Helvetica,sans-Serif" font-size="10.00"># virtual void OnUpdateJumping</text>
<text text-anchor="start" x="421.5" y="-7.5" font-family="Helvetica,sans-Serif" font-size="10.00">StateEnd()</text>
</a>
</g>
</g>
<!-- Node2 -->
<g id="node2" class="node">
<title>Node2</title>
<g id="a_node2"><a xlink:href="interface_controllers_1_1_i_damageable.html" target="_top" xlink:title="Interfaz para todos los NPCs/Enemigos/Objetos que pueden ser daniados.">
<polygon fill="none" stroke="black" points="0,-463 0,-542 140,-542 140,-463 0,-463"/>
<text text-anchor="middle" x="70" y="-530" font-family="Helvetica,sans-Serif" font-size="10.00">IDamageable</text>
<polyline fill="none" stroke="black" points="0,-523 140,-523 "/>
<text text-anchor="middle" x="70" y="-511" font-family="Helvetica,sans-Serif" font-size="10.00"> </text>
<polyline fill="none" stroke="black" points="0,-504 140,-504 "/>
<text text-anchor="start" x="8" y="-492" font-family="Helvetica,sans-Serif" font-size="10.00">+ void Damage(float amount,</text>
<text text-anchor="start" x="8" y="-481" font-family="Helvetica,sans-Serif" font-size="10.00"> int attackN)</text>
<text text-anchor="start" x="8" y="-470" font-family="Helvetica,sans-Serif" font-size="10.00">+ void Kill()</text>
</a>
</g>
</g>
<!-- Node2&#45;&gt;Node1 -->
<g id="edge1" class="edge">
<title>Node2&#45;&gt;Node1</title>
<path fill="none" stroke="midnightblue" d="M107.37,-455.04C119.87,-440.79 134.37,-425.57 149,-413 232.31,-341.38 339.46,-274.58 413.34,-231.82"/>
<polygon fill="none" stroke="midnightblue" points="104.53,-452.97 100.64,-462.83 109.82,-457.55 104.53,-452.97"/>
</g>
<!-- Node3 -->
<g id="node3" class="node">
<title>Node3</title>
<g id="a_node3"><a xlink:href="interface_interactions_1_1_interfaces_1_1_i_interactive.html" target="_top" xlink:title=" ">
<polygon fill="none" stroke="black" points="158.5,-413.5 158.5,-591.5 309.5,-591.5 309.5,-413.5 158.5,-413.5"/>
<text text-anchor="middle" x="234" y="-579.5" font-family="Helvetica,sans-Serif" font-size="10.00">IInteractive</text>
<polyline fill="none" stroke="black" points="158.5,-572.5 309.5,-572.5 "/>
<text text-anchor="middle" x="234" y="-560.5" font-family="Helvetica,sans-Serif" font-size="10.00"> </text>
<polyline fill="none" stroke="black" points="158.5,-553.5 309.5,-553.5 "/>
<text text-anchor="start" x="166.5" y="-541.5" font-family="Helvetica,sans-Serif" font-size="10.00">+ bool Interact(BaseController</text>
<text text-anchor="start" x="166.5" y="-530.5" font-family="Helvetica,sans-Serif" font-size="10.00"> controller, EInteractionKind</text>
<text text-anchor="start" x="166.5" y="-519.5" font-family="Helvetica,sans-Serif" font-size="10.00"> interactionKind)</text>
<text text-anchor="start" x="166.5" y="-508.5" font-family="Helvetica,sans-Serif" font-size="10.00">+ bool Interact(PlayerController</text>
<text text-anchor="start" x="166.5" y="-497.5" font-family="Helvetica,sans-Serif" font-size="10.00"> controller, EInteractionKind</text>
<text text-anchor="start" x="166.5" y="-486.5" font-family="Helvetica,sans-Serif" font-size="10.00"> interactionKind)</text>
<text text-anchor="start" x="166.5" y="-475.5" font-family="Helvetica,sans-Serif" font-size="10.00">+ void ReadyToInteract</text>
<text text-anchor="start" x="166.5" y="-464.5" font-family="Helvetica,sans-Serif" font-size="10.00">(PlayerController controller,</text>
<text text-anchor="start" x="166.5" y="-453.5" font-family="Helvetica,sans-Serif" font-size="10.00"> bool isReady)</text>
<text text-anchor="start" x="166.5" y="-442.5" font-family="Helvetica,sans-Serif" font-size="10.00">+ void ReadyToInteract</text>
<text text-anchor="start" x="166.5" y="-431.5" font-family="Helvetica,sans-Serif" font-size="10.00">(BaseController controller,</text>
<text text-anchor="start" x="166.5" y="-420.5" font-family="Helvetica,sans-Serif" font-size="10.00"> bool isReady)</text>
</a>
</g>
</g>
<!-- Node3&#45;&gt;Node1 -->
<g id="edge2" class="edge">
<title>Node3&#45;&gt;Node1</title>
<path fill="none" stroke="midnightblue" d="M314.34,-405.6C345.62,-368.27 381.53,-325.4 413.39,-287.38"/>
<polygon fill="none" stroke="midnightblue" points="311.48,-403.57 307.74,-413.48 316.85,-408.06 311.48,-403.57"/>
</g>
<!-- Node4 -->
<g id="node4" class="node">
<title>Node4</title>
<g id="a_node4"><a xlink:title=" ">
<polygon fill="none" stroke="#bfbfbf" points="327.5,-474 327.5,-531 398.5,-531 398.5,-474 327.5,-474"/>
<text text-anchor="middle" x="363" y="-519" font-family="Helvetica,sans-Serif" font-size="10.00">Rigidbody2D</text>
<polyline fill="none" stroke="#bfbfbf" points="327.5,-512 398.5,-512 "/>
<text text-anchor="middle" x="363" y="-500" font-family="Helvetica,sans-Serif" font-size="10.00"> </text>
<polyline fill="none" stroke="#bfbfbf" points="327.5,-493 398.5,-493 "/>
<text text-anchor="middle" x="363" y="-481" font-family="Helvetica,sans-Serif" font-size="10.00"> </text>
</a>
</g>
</g>
<!-- Node4&#45;&gt;Node1 -->
<g id="edge3" class="edge">
<title>Node4&#45;&gt;Node1</title>
<path fill="none" stroke="#404040" d="M363.93,-473.69C365.47,-449.4 369.49,-413.51 380,-384 387.37,-363.31 397,-342.4 407.61,-322.3"/>
<polygon fill="none" stroke="#404040" points="407.72,-322.11 407.05,-314.93 413.42,-311.55 414.09,-318.73 407.72,-322.11"/>
<text text-anchor="middle" x="410" y="-387" font-family="Helvetica,sans-Serif" font-size="10.00"> #rigidbody2D</text>
</g>
<!-- Node5 -->
<g id="node5" class="node">
<title>Node5</title>
<g id="a_node5"><a xlink:title=" ">
<polygon fill="none" stroke="#bfbfbf" points="417,-474 417,-531 473,-531 473,-474 417,-474"/>
<text text-anchor="middle" x="445" y="-519" font-family="Helvetica,sans-Serif" font-size="10.00">Animator</text>
<polyline fill="none" stroke="#bfbfbf" points="417,-512 473,-512 "/>
<text text-anchor="middle" x="445" y="-500" font-family="Helvetica,sans-Serif" font-size="10.00"> </text>
<polyline fill="none" stroke="#bfbfbf" points="417,-493 473,-493 "/>
<text text-anchor="middle" x="445" y="-481" font-family="Helvetica,sans-Serif" font-size="10.00"> </text>
</a>
</g>
</g>
<!-- Node5&#45;&gt;Node1 -->
<g id="edge4" class="edge">
<title>Node5&#45;&gt;Node1</title>
<path fill="none" stroke="#404040" d="M443.26,-473.82C442.22,-449.92 441.82,-414.52 446,-384 446.29,-381.92 446.59,-379.83 446.9,-377.73"/>
<polygon fill="none" stroke="#404040" points="446.94,-377.48 443.95,-370.92 448.85,-365.63 451.85,-372.19 446.94,-377.48"/>
<text text-anchor="middle" x="490" y="-387" font-family="Helvetica,sans-Serif" font-size="10.00"> #characterAnimator</text>
</g>
<!-- Node6 -->
<g id="node6" class="node">
<title>Node6</title>
<g id="a_node6"><a xlink:href="class_controllers_1_1_movement_1_1_base_movement_controller.html" target="_top" xlink:title=" ">
<polygon fill="none" stroke="black" points="491,-468.5 491,-536.5 627,-536.5 627,-468.5 491,-468.5"/>
<text text-anchor="start" x="499" y="-524.5" font-family="Helvetica,sans-Serif" font-size="10.00">Controllers.Movement.Base</text>
<text text-anchor="middle" x="559" y="-513.5" font-family="Helvetica,sans-Serif" font-size="10.00">MovementController</text>
<polyline fill="none" stroke="black" points="491,-506.5 627,-506.5 "/>
<text text-anchor="middle" x="559" y="-494.5" font-family="Helvetica,sans-Serif" font-size="10.00"> </text>
<polyline fill="none" stroke="black" points="491,-487.5 627,-487.5 "/>
<text text-anchor="middle" x="559" y="-475.5" font-family="Helvetica,sans-Serif" font-size="10.00"> </text>
</a>
</g>
</g>
<!-- Node6&#45;&gt;Node1 -->
<g id="edge5" class="edge">
<title>Node6&#45;&gt;Node1</title>
<path fill="none" stroke="#404040" d="M552.85,-468.42C548.58,-445.45 542.51,-412.75 535.99,-377.66"/>
<polygon fill="none" stroke="#404040" points="535.95,-377.48 530.93,-372.31 533.76,-365.68 538.79,-370.85 535.95,-377.48"/>
<text text-anchor="middle" x="595.5" y="-387" font-family="Helvetica,sans-Serif" font-size="10.00"> #baseMovementController</text>
</g>
<!-- Node7 -->
<g id="node7" class="node">
<title>Node7</title>
<g id="a_node7"><a xlink:title=" ">
<polygon fill="none" stroke="#bfbfbf" points="648,-474 648,-531 732,-531 732,-474 648,-474"/>
<text text-anchor="middle" x="690" y="-519" font-family="Helvetica,sans-Serif" font-size="10.00">EControllerKind</text>
<polyline fill="none" stroke="#bfbfbf" points="648,-512 732,-512 "/>
<text text-anchor="middle" x="690" y="-500" font-family="Helvetica,sans-Serif" font-size="10.00"> </text>
<polyline fill="none" stroke="#bfbfbf" points="648,-493 732,-493 "/>
<text text-anchor="middle" x="690" y="-481" font-family="Helvetica,sans-Serif" font-size="10.00"> </text>
</a>
</g>
</g>
<!-- Node7&#45;&gt;Node1 -->
<g id="edge6" class="edge">
<title>Node7&#45;&gt;Node1</title>
<path fill="none" stroke="#404040" d="M685.4,-473.78C680.59,-449.23 671.67,-412.91 657,-384 640.1,-350.7 617.22,-317.57 594.17,-288.13"/>
<polygon fill="none" stroke="#404040" points="594.15,-288.11 587.28,-285.89 586.68,-278.71 593.55,-280.92 594.15,-288.11"/>
<text text-anchor="middle" x="695" y="-387" font-family="Helvetica,sans-Serif" font-size="10.00"> #controllerKind</text>
</g>
<!-- Node8 -->
<g id="node8" class="node">
<title>Node8</title>
<g id="a_node8"><a xlink:title=" ">
<polygon fill="none" stroke="#bfbfbf" points="867.5,-904 867.5,-961 902.5,-961 902.5,-904 867.5,-904"/>
<text text-anchor="middle" x="885" y="-949" font-family="Helvetica,sans-Serif" font-size="10.00">bool</text>
<polyline fill="none" stroke="#bfbfbf" points="867.5,-942 902.5,-942 "/>
<text text-anchor="middle" x="885" y="-930" font-family="Helvetica,sans-Serif" font-size="10.00"> </text>
<polyline fill="none" stroke="#bfbfbf" points="867.5,-923 902.5,-923 "/>
<text text-anchor="middle" x="885" y="-911" font-family="Helvetica,sans-Serif" font-size="10.00"> </text>
</a>
</g>
</g>
<!-- Node8&#45;&gt;Node1 -->
<g id="edge7" class="edge">
<title>Node8&#45;&gt;Node1</title>
<path fill="none" stroke="#404040" d="M902.86,-915.12C923.63,-894.73 956.78,-857.71 970,-818 1027.63,-644.9 1015.55,-556.59 903,-413 824.73,-313.14 690,-249.42 598.04,-215.2"/>
<polygon fill="none" stroke="#404040" points="598.04,-215.2 591.03,-216.89 586.77,-211.07 593.78,-209.38 598.04,-215.2"/>
<text text-anchor="middle" x="1054.5" y="-624" font-family="Helvetica,sans-Serif" font-size="10.00"> #playerFacingDirection</text>
<text text-anchor="middle" x="1054.5" y="-613" font-family="Helvetica,sans-Serif" font-size="10.00">#playerOnLeft</text>
</g>
<!-- Node9 -->
<g id="node9" class="node">
<title>Node9</title>
<g id="a_node9"><a xlink:href="class_player_1_1_player_controller.html" target="_top" xlink:title=" ">
<polygon fill="none" stroke="black" points="750.5,-424.5 750.5,-580.5 893.5,-580.5 893.5,-424.5 750.5,-424.5"/>
<text text-anchor="middle" x="822" y="-568.5" font-family="Helvetica,sans-Serif" font-size="10.00">Player.PlayerController</text>
<polyline fill="none" stroke="black" points="750.5,-561.5 893.5,-561.5 "/>
<text text-anchor="middle" x="822" y="-549.5" font-family="Helvetica,sans-Serif" font-size="10.00"> </text>
<polyline fill="none" stroke="black" points="750.5,-542.5 893.5,-542.5 "/>
<text text-anchor="start" x="758.5" y="-530.5" font-family="Helvetica,sans-Serif" font-size="10.00">+ void EnterInteractionMode()</text>
<text text-anchor="start" x="758.5" y="-519.5" font-family="Helvetica,sans-Serif" font-size="10.00">+ void LandEvt()</text>
<text text-anchor="start" x="758.5" y="-508.5" font-family="Helvetica,sans-Serif" font-size="10.00">+ void OnAirEvt()</text>
<text text-anchor="start" x="758.5" y="-497.5" font-family="Helvetica,sans-Serif" font-size="10.00">+ bool IsFacingRight()</text>
<text text-anchor="start" x="758.5" y="-486.5" font-family="Helvetica,sans-Serif" font-size="10.00">+ void AnimStartPrayingEvt()</text>
<text text-anchor="start" x="758.5" y="-475.5" font-family="Helvetica,sans-Serif" font-size="10.00">+ void AnimRollEndEvt()</text>
<text text-anchor="start" x="758.5" y="-464.5" font-family="Helvetica,sans-Serif" font-size="10.00">+ void AnimFootStep1Evt()</text>
<text text-anchor="start" x="758.5" y="-453.5" font-family="Helvetica,sans-Serif" font-size="10.00">+ void AnimFootStep2Evt()</text>
<text text-anchor="start" x="758.5" y="-442.5" font-family="Helvetica,sans-Serif" font-size="10.00">~ void OnEnable()</text>
<text text-anchor="start" x="758.5" y="-431.5" font-family="Helvetica,sans-Serif" font-size="10.00">~ void OnDisable()</text>
</a>
</g>
</g>
<!-- Node8&#45;&gt;Node9 -->
<g id="edge18" class="edge">
<title>Node8&#45;&gt;Node9</title>
<path fill="none" stroke="#404040" d="M881.41,-903.9C874.78,-853.44 860.05,-742.93 846,-650 843.19,-631.41 840.03,-611.52 836.95,-592.58"/>
<polygon fill="none" stroke="#404040" points="836.93,-592.46 832.02,-587.18 835,-580.62 839.91,-585.89 836.93,-592.46"/>
<text text-anchor="middle" x="917.5" y="-753.5" font-family="Helvetica,sans-Serif" font-size="10.00"> +isEnrolledInDialogue</text>
<text text-anchor="middle" x="917.5" y="-742.5" font-family="Helvetica,sans-Serif" font-size="10.00">~awaitingAttack</text>
<text text-anchor="middle" x="917.5" y="-731.5" font-family="Helvetica,sans-Serif" font-size="10.00">~praying</text>
<text text-anchor="middle" x="917.5" y="-720.5" font-family="Helvetica,sans-Serif" font-size="10.00">~respawning</text>
<text text-anchor="middle" x="917.5" y="-709.5" font-family="Helvetica,sans-Serif" font-size="10.00">~roll</text>
</g>
<!-- Node10 -->
<g id="node10" class="node">
<title>Node10</title>
<g id="a_node10"><a xlink:href="class_player_1_1_player_movement_controller.html" target="_top" xlink:title=" ">
<polygon fill="none" stroke="black" points="532.5,-650.5 532.5,-817.5 693.5,-817.5 693.5,-650.5 532.5,-650.5"/>
<text text-anchor="middle" x="613" y="-805.5" font-family="Helvetica,sans-Serif" font-size="10.00">Player.PlayerMovementController</text>
<polyline fill="none" stroke="black" points="532.5,-798.5 693.5,-798.5 "/>
<text text-anchor="middle" x="613" y="-786.5" font-family="Helvetica,sans-Serif" font-size="10.00"> </text>
<polyline fill="none" stroke="black" points="532.5,-779.5 693.5,-779.5 "/>
<text text-anchor="start" x="540.5" y="-767.5" font-family="Helvetica,sans-Serif" font-size="10.00">+ void Move(float moveH,</text>
<text text-anchor="start" x="540.5" y="-756.5" font-family="Helvetica,sans-Serif" font-size="10.00"> float moveV, bool crouch,</text>
<text text-anchor="start" x="540.5" y="-745.5" font-family="Helvetica,sans-Serif" font-size="10.00"> bool jump, bool roll, bool</text>
<text text-anchor="start" x="540.5" y="-734.5" font-family="Helvetica,sans-Serif" font-size="10.00"> attacking)</text>
<text text-anchor="start" x="540.5" y="-723.5" font-family="Helvetica,sans-Serif" font-size="10.00">+ bool IsFacingRight()</text>
<text text-anchor="start" x="540.5" y="-712.5" font-family="Helvetica,sans-Serif" font-size="10.00">+ void EnableFlip()</text>
<text text-anchor="start" x="540.5" y="-701.5" font-family="Helvetica,sans-Serif" font-size="10.00">+ void DisableFlip()</text>
<text text-anchor="start" x="540.5" y="-690.5" font-family="Helvetica,sans-Serif" font-size="10.00">~ void AttackMovement</text>
<text text-anchor="start" x="540.5" y="-679.5" font-family="Helvetica,sans-Serif" font-size="10.00">(int power)</text>
<text text-anchor="start" x="540.5" y="-668.5" font-family="Helvetica,sans-Serif" font-size="10.00">~ void PrepareRespawn</text>
<text text-anchor="start" x="540.5" y="-657.5" font-family="Helvetica,sans-Serif" font-size="10.00">(Transform SpawnPoint)</text>
</a>
</g>
</g>
<!-- Node8&#45;&gt;Node10 -->
<g id="edge16" class="edge">
<title>Node8&#45;&gt;Node10</title>
<path fill="none" stroke="#404040" d="M867.32,-923.55C847.93,-914.42 816.32,-898.32 792,-880 769.91,-863.36 768.9,-854.11 748,-836 734.03,-823.89 718.73,-811.61 703.61,-799.98"/>
<polygon fill="none" stroke="#404040" points="703.26,-799.72 696.07,-799.26 693.72,-792.44 700.92,-792.9 703.26,-799.72"/>
<text text-anchor="middle" x="831.5" y="-866.5" font-family="Helvetica,sans-Serif" font-size="10.00"> ~Grounded</text>
<text text-anchor="middle" x="831.5" y="-855.5" font-family="Helvetica,sans-Serif" font-size="10.00">~IsTouchingLedge</text>
<text text-anchor="middle" x="831.5" y="-844.5" font-family="Helvetica,sans-Serif" font-size="10.00">~IsTouchingWall</text>
</g>
<!-- Node9&#45;&gt;Node1 -->
<g id="edge8" class="edge">
<title>Node9&#45;&gt;Node1</title>
<path fill="none" stroke="#404040" d="M767.31,-424.35C756.44,-410.49 744.75,-396.49 733,-384 691.06,-339.41 639.87,-294.59 596.16,-258.71"/>
<polygon fill="none" stroke="#404040" points="595.96,-258.55 588.78,-257.85 586.66,-250.96 593.84,-251.65 595.96,-258.55"/>
<text text-anchor="middle" x="779" y="-387" font-family="Helvetica,sans-Serif" font-size="10.00"> #playerController</text>
</g>
<!-- Node10&#45;&gt;Node9 -->
<g id="edge9" class="edge">
<title>Node10&#45;&gt;Node9</title>
<path fill="none" stroke="#404040" d="M624.44,-650.44C629.98,-635.24 638.11,-620.79 650,-610 680.53,-582.29 705.07,-612.21 741,-592 743.36,-590.67 745.69,-589.25 747.98,-587.75"/>
<polygon fill="none" stroke="#404040" points="748.07,-587.69 750.62,-580.94 757.82,-580.69 755.28,-587.44 748.07,-587.69"/>
<text text-anchor="middle" x="697" y="-618.5" font-family="Helvetica,sans-Serif" font-size="10.00"> #playerMovementCtrl</text>
</g>
<!-- Node11 -->
<g id="node11" class="node">
<title>Node11</title>
<g id="a_node11"><a xlink:title=" ">
<polygon fill="none" stroke="#bfbfbf" points="621.5,-904 621.5,-961 704.5,-961 704.5,-904 621.5,-904"/>
<text text-anchor="middle" x="663" y="-949" font-family="Helvetica,sans-Serif" font-size="10.00">MonoBehaviour</text>
<polyline fill="none" stroke="#bfbfbf" points="621.5,-942 704.5,-942 "/>
<text text-anchor="middle" x="663" y="-930" font-family="Helvetica,sans-Serif" font-size="10.00"> </text>
<polyline fill="none" stroke="#bfbfbf" points="621.5,-923 704.5,-923 "/>
<text text-anchor="middle" x="663" y="-911" font-family="Helvetica,sans-Serif" font-size="10.00"> </text>
</a>
</g>
</g>
<!-- Node11&#45;&gt;Node10 -->
<g id="edge10" class="edge">
<title>Node11&#45;&gt;Node10</title>
<path fill="none" stroke="midnightblue" d="M634.35,-895.25C631.47,-890.33 628.91,-885.18 627,-880 619.78,-860.42 615.76,-838.4 613.63,-817.55"/>
<polygon fill="none" stroke="midnightblue" points="631.49,-897.27 639.82,-903.83 637.4,-893.51 631.49,-897.27"/>
</g>
<!-- Node12 -->
<g id="node12" class="node">
<title>Node12</title>
<g id="a_node12"><a xlink:href="class_player_1_1_player_movement_controller_1_1_bool_event.html" target="_top" xlink:title=" ">
<polygon fill="none" stroke="black" points="439,-898.5 439,-966.5 603,-966.5 603,-898.5 439,-898.5"/>
<text text-anchor="start" x="447" y="-954.5" font-family="Helvetica,sans-Serif" font-size="10.00">Player.PlayerMovementController.</text>
<text text-anchor="middle" x="521" y="-943.5" font-family="Helvetica,sans-Serif" font-size="10.00">BoolEvent</text>
<polyline fill="none" stroke="black" points="439,-936.5 603,-936.5 "/>
<text text-anchor="middle" x="521" y="-924.5" font-family="Helvetica,sans-Serif" font-size="10.00"> </text>
<polyline fill="none" stroke="black" points="439,-917.5 603,-917.5 "/>
<text text-anchor="middle" x="521" y="-905.5" font-family="Helvetica,sans-Serif" font-size="10.00"> </text>
</a>
</g>
</g>
<!-- Node12&#45;&gt;Node10 -->
<g id="edge11" class="edge">
<title>Node12&#45;&gt;Node10</title>
<path fill="none" stroke="#404040" d="M521.75,-898.11C523.17,-879.24 526.68,-855.59 535,-836 536.07,-833.47 537.22,-830.95 538.45,-828.45"/>
<polygon fill="none" stroke="#404040" points="538.59,-828.17 537.86,-821 544.21,-817.56 544.94,-824.74 538.59,-828.17"/>
<text text-anchor="middle" x="573.5" y="-855.5" font-family="Helvetica,sans-Serif" font-size="10.00"> +OnCrouchEvent</text>
</g>
<!-- Node13 -->
<g id="node13" class="node">
<title>Node13</title>
<g id="a_node13"><a xlink:title=" ">
<polygon fill="none" stroke="#bfbfbf" points="471.5,-1004.5 471.5,-1061.5 570.5,-1061.5 570.5,-1004.5 471.5,-1004.5"/>
<text text-anchor="middle" x="521" y="-1049.5" font-family="Helvetica,sans-Serif" font-size="10.00">UnityEvent&lt; bool &gt;</text>
<polyline fill="none" stroke="#bfbfbf" points="471.5,-1042.5 570.5,-1042.5 "/>
<text text-anchor="middle" x="521" y="-1030.5" font-family="Helvetica,sans-Serif" font-size="10.00"> </text>
<polyline fill="none" stroke="#bfbfbf" points="471.5,-1023.5 570.5,-1023.5 "/>
<text text-anchor="middle" x="521" y="-1011.5" font-family="Helvetica,sans-Serif" font-size="10.00"> </text>
</a>
</g>
</g>
<!-- Node13&#45;&gt;Node12 -->
<g id="edge12" class="edge">
<title>Node13&#45;&gt;Node12</title>
<path fill="none" stroke="midnightblue" d="M521,-994.01C521,-984.96 521,-975.38 521,-966.58"/>
<polygon fill="none" stroke="midnightblue" points="517.5,-994.3 521,-1004.3 524.5,-994.3 517.5,-994.3"/>
</g>
<!-- Node14 -->
<g id="node14" class="node">
<title>Node14</title>
<g id="a_node14"><a xlink:title=" ">
<polygon fill="none" stroke="#bfbfbf" points="283.5,-904 283.5,-961 346.5,-961 346.5,-904 283.5,-904"/>
<text text-anchor="middle" x="315" y="-949" font-family="Helvetica,sans-Serif" font-size="10.00">UnityEvent</text>
<polyline fill="none" stroke="#bfbfbf" points="283.5,-942 346.5,-942 "/>
<text text-anchor="middle" x="315" y="-930" font-family="Helvetica,sans-Serif" font-size="10.00"> </text>
<polyline fill="none" stroke="#bfbfbf" points="283.5,-923 346.5,-923 "/>
<text text-anchor="middle" x="315" y="-911" font-family="Helvetica,sans-Serif" font-size="10.00"> </text>
</a>
</g>
</g>
<!-- Node14&#45;&gt;Node10 -->
<g id="edge13" class="edge">
<title>Node14&#45;&gt;Node10</title>
<path fill="none" stroke="#404040" d="M324.18,-903.95C332.45,-882.87 346.48,-854.4 367,-836 410.37,-797.12 470.75,-772.03 520.83,-756.58"/>
<polygon fill="none" stroke="#404040" points="520.84,-756.58 525.44,-751.03 532.33,-753.14 527.73,-758.69 520.84,-756.58"/>
<text text-anchor="middle" x="399" y="-861" font-family="Helvetica,sans-Serif" font-size="10.00"> +OnAirEvent</text>
<text text-anchor="middle" x="399" y="-850" font-family="Helvetica,sans-Serif" font-size="10.00">+OnLandEvent</text>
</g>
<!-- Node15 -->
<g id="node15" class="node">
<title>Node15</title>
<g id="a_node15"><a xlink:title=" ">
<polygon fill="none" stroke="#bfbfbf" points="731.5,-904 731.5,-961 766.5,-961 766.5,-904 731.5,-904"/>
<text text-anchor="middle" x="749" y="-949" font-family="Helvetica,sans-Serif" font-size="10.00">float</text>
<polyline fill="none" stroke="#bfbfbf" points="731.5,-942 766.5,-942 "/>
<text text-anchor="middle" x="749" y="-930" font-family="Helvetica,sans-Serif" font-size="10.00"> </text>
<polyline fill="none" stroke="#bfbfbf" points="731.5,-923 766.5,-923 "/>
<text text-anchor="middle" x="749" y="-911" font-family="Helvetica,sans-Serif" font-size="10.00"> </text>
</a>
</g>
</g>
<!-- Node15&#45;&gt;Node9 -->
<g id="edge17" class="edge">
<title>Node15&#45;&gt;Node9</title>
<path fill="none" stroke="#404040" d="M748.56,-903.83C747.8,-842.68 747.24,-697.7 758,-650 762.37,-630.63 769.3,-610.64 777.01,-591.89"/>
<polygon fill="none" stroke="#404040" points="777.07,-591.75 775.74,-584.66 781.77,-580.71 783.1,-587.79 777.07,-591.75"/>
<text text-anchor="middle" x="800" y="-731.5" font-family="Helvetica,sans-Serif" font-size="10.00"> #interactionRadius</text>
</g>
<!-- Node15&#45;&gt;Node10 -->
<g id="edge14" class="edge">
<title>Node15&#45;&gt;Node10</title>
<path fill="none" stroke="#404040" d="M731.17,-911.15C726.04,-906.27 720.16,-901.47 714,-898 687.14,-882.87 668.45,-902.15 647,-880 639.07,-871.81 632.57,-852.08 627.46,-829.71"/>
<polygon fill="none" stroke="#404040" points="627.43,-829.56 622.26,-824.53 624.91,-817.83 630.08,-822.86 627.43,-829.56"/>
<text text-anchor="middle" x="695.5" y="-872" font-family="Helvetica,sans-Serif" font-size="10.00"> +LedgeClimbXOffset1</text>
<text text-anchor="middle" x="695.5" y="-861" font-family="Helvetica,sans-Serif" font-size="10.00">+LedgeClimbXOffset2</text>
<text text-anchor="middle" x="695.5" y="-850" font-family="Helvetica,sans-Serif" font-size="10.00">+LedgeClimbYOffset1</text>
<text text-anchor="middle" x="695.5" y="-839" font-family="Helvetica,sans-Serif" font-size="10.00">+LedgeClimbYOffset2</text>
</g>
<!-- Node16 -->
<g id="node16" class="node">
<title>Node16</title>
<g id="a_node16"><a xlink:title=" ">
<polygon fill="none" stroke="#bfbfbf" points="371,-904 371,-961 421,-961 421,-904 371,-904"/>
<text text-anchor="middle" x="396" y="-949" font-family="Helvetica,sans-Serif" font-size="10.00">Vector3</text>
<polyline fill="none" stroke="#bfbfbf" points="371,-942 421,-942 "/>
<text text-anchor="middle" x="396" y="-930" font-family="Helvetica,sans-Serif" font-size="10.00"> </text>
<polyline fill="none" stroke="#bfbfbf" points="371,-923 421,-923 "/>
<text text-anchor="middle" x="396" y="-911" font-family="Helvetica,sans-Serif" font-size="10.00"> </text>
</a>
</g>
</g>
<!-- Node16&#45;&gt;Node10 -->
<g id="edge15" class="edge">
<title>Node16&#45;&gt;Node10</title>
<path fill="none" stroke="#404040" d="M415.48,-903.97C430.32,-883.98 451.91,-856.88 474,-836 488.86,-821.96 505.73,-808.19 522.46,-795.56"/>
<polygon fill="none" stroke="#404040" points="522.65,-795.42 525.09,-788.63 532.29,-788.27 529.86,-795.06 522.65,-795.42"/>
<text text-anchor="middle" x="496.5" y="-855.5" font-family="Helvetica,sans-Serif" font-size="10.00"> ~Velocity</text>
</g>
</g>
</svg>
        <g id="navigator" transform="translate(0 0)" fill="#404254">
                <rect fill="#f2f5e9" fill-opacity="0.5" stroke="#606060" stroke-width=".5" x="0" y="0" width="60" height="60"/>
                <use id="zoomplus" xlink:href="#zoomPlus" x="17" y="9" onmousedown="handleZoom(evt,'in')"/>
                <use id="zoomminus" xlink:href="#zoomMin" x="42" y="9" onmousedown="handleZoom(evt,'out')"/>
                <use id="reset" xlink:href="#resetDef" x="30" y="36" onmousedown="handleReset()"/>
                <g id="arrowUp" xlink:href="#dirArrow" transform="translate(30 24)" onmousedown="handlePan(0,-1)">
                  <use xlink:href="#rim" fill="#404040">
                        <set attributeName="fill" to="#808080" begin="arrowUp.mouseover" end="arrowUp.mouseout"/>
                  </use>
                  <path fill="none" stroke="white" stroke-width="1.5" d="M0,-3.0v7 M-2.5,-0.5L0,-3.0L2.5,-0.5"/>
                </g>
                <g id="arrowRight" xlink:href="#dirArrow" transform="rotate(90) translate(36 -43)" onmousedown="handlePan(1,0)">
                  <use xlink:href="#rim" fill="#404040">
                        <set attributeName="fill" to="#808080" begin="arrowRight.mouseover" end="arrowRight.mouseout"/>
                  </use>
                  <path fill="none" stroke="white" stroke-width="1.5" d="M0,-3.0v7 M-2.5,-0.5L0,-3.0L2.5,-0.5"/>
                </g>
                <g id="arrowDown" xlink:href="#dirArrow" transform="rotate(180) translate(-30 -48)" onmousedown="handlePan(0,1)">
                  <use xlink:href="#rim" fill="#404040">
                        <set attributeName="fill" to="#808080" begin="arrowDown.mouseover" end="arrowDown.mouseout"/>
                  </use>
                  <path fill="none" stroke="white" stroke-width="1.5" d="M0,-3.0v7 M-2.5,-0.5L0,-3.0L2.5,-0.5"/>
                </g>
                <g id="arrowLeft" xlink:href="#dirArrow" transform="rotate(270) translate(-36 17)" onmousedown="handlePan(-1,0)">
                  <use xlink:href="#rim" fill="#404040">
                        <set attributeName="fill" to="#808080" begin="arrowLeft.mouseover" end="arrowLeft.mouseout"/>
                  </use>
                  <path fill="none" stroke="white" stroke-width="1.5" d="M0,-3.0v7 M-2.5,-0.5L0,-3.0L2.5,-0.5"/>
                </g>
        </g>
        <svg viewBox="0 0 15 15" width="100%" height="30px" preserveAspectRatio="xMaxYMin meet">
         <g id="arrow_out" transform="scale(0.3 0.3)">
          <a xlink:href="class_controllers_1_1_base_controller__coll__graph_org.svg" target="_base">
           <rect id="button" ry="5" rx="5" y="6" x="6" height="38" width="38"
                fill="#f2f5e9" fill-opacity="0.5" stroke="#606060" stroke-width="1.0"/>
           <path id="arrow"
             d="M 11.500037,31.436501 C 11.940474,20.09759 22.043105,11.32322 32.158766,21.979434 L 37.068811,17.246167 C 37.068811,17.246167 37.088388,32 37.088388,32 L 22.160133,31.978069 C 22.160133,31.978069 26.997745,27.140456 26.997745,27.140456 C 18.528582,18.264221 13.291696,25.230495 11.500037,31.436501 z"
             style="fill:#404040;"/>
          </a>
         </g>
        </svg>
</svg>
