<?xml version="1.0" encoding="UTF-8" standalone="no"?>
<!DOCTYPE svg PUBLIC "-//W3C//DTD SVG 1.1//EN"
 "http://www.w3.org/Graphics/SVG/1.1/DTD/svg11.dtd">
<!-- Generated by graphviz version 2.48.0 (20210717.1556)
 -->
<!-- Title: Player.PlayerController Pages: 1 -->
<svg width="387pt" height="446pt"
 viewBox="0.00 0.00 387.00 446.00" xmlns="http://www.w3.org/2000/svg" xmlns:xlink="http://www.w3.org/1999/xlink">
<g id="graph0" class="graph" transform="scale(1 1) rotate(0) translate(4 442)">
<title>Player.PlayerController</title>
<!-- Node1 -->
<g id="node1" class="node">
<title>Node1</title>
<g id="a_node1"><a xlink:title=" ">
<polygon fill="#bfbfbf" stroke="black" points="110,-0.5 110,-233.5 258,-233.5 258,-0.5 110,-0.5"/>
<text text-anchor="middle" x="184" y="-221.5" font-family="Helvetica,sans-Serif" font-size="10.00">Player.PlayerController</text>
<polyline fill="none" stroke="black" points="110,-214.5 258,-214.5 "/>
<text text-anchor="middle" x="184" y="-202.5" font-family="Helvetica,sans-Serif" font-size="10.00"> </text>
<polyline fill="none" stroke="black" points="110,-195.5 258,-195.5 "/>
<text text-anchor="start" x="118" y="-183.5" font-family="Helvetica,sans-Serif" font-size="10.00">+ void Damage(float amount,</text>
<text text-anchor="start" x="118" y="-172.5" font-family="Helvetica,sans-Serif" font-size="10.00"> int attackN)</text>
<text text-anchor="start" x="118" y="-161.5" font-family="Helvetica,sans-Serif" font-size="10.00">+ void Damage(BaseController</text>
<text text-anchor="start" x="118" y="-150.5" font-family="Helvetica,sans-Serif" font-size="10.00"> controller, DamageInfo</text>
<text text-anchor="start" x="118" y="-139.5" font-family="Helvetica,sans-Serif" font-size="10.00"> damageInfo)</text>
<text text-anchor="start" x="118" y="-128.5" font-family="Helvetica,sans-Serif" font-size="10.00">+ void Kill()</text>
<text text-anchor="start" x="118" y="-117.5" font-family="Helvetica,sans-Serif" font-size="10.00">+ void EnterInteractionMode()</text>
<text text-anchor="start" x="118" y="-106.5" font-family="Helvetica,sans-Serif" font-size="10.00">+ int GetFacingDirection()</text>
<text text-anchor="start" x="118" y="-95.5" font-family="Helvetica,sans-Serif" font-size="10.00">+ void LandEvt()</text>
<text text-anchor="start" x="118" y="-84.5" font-family="Helvetica,sans-Serif" font-size="10.00">+ void OnAirEvt()</text>
<text text-anchor="start" x="118" y="-73.5" font-family="Helvetica,sans-Serif" font-size="10.00">+ bool IsFacingRight()</text>
<text text-anchor="start" x="118" y="-62.5" font-family="Helvetica,sans-Serif" font-size="10.00">+ void AnimStartPrayingEvt()</text>
<text text-anchor="start" x="118" y="-51.5" font-family="Helvetica,sans-Serif" font-size="10.00">+ void AnimRollEndEvt()</text>
<text text-anchor="start" x="118" y="-40.5" font-family="Helvetica,sans-Serif" font-size="10.00">+ void AnimFootStep1Evt()</text>
<text text-anchor="start" x="118" y="-29.5" font-family="Helvetica,sans-Serif" font-size="10.00">+ void AnimFootStep2Evt()</text>
<text text-anchor="start" x="118" y="-18.5" font-family="Helvetica,sans-Serif" font-size="10.00">~ void OnEnable()</text>
<text text-anchor="start" x="118" y="-7.5" font-family="Helvetica,sans-Serif" font-size="10.00">~ void OnDisable()</text>
</a>
</g>
</g>
<!-- Node2 -->
<g id="node2" class="node">
<title>Node2</title>
<g id="a_node2"><a xlink:href="interface_controllers_1_1_i_damageable.html" target="_top" xlink:title="Interfaz para todos los NPCs/Enemigos/Objetos que pueden ser daniados.">
<polygon fill="none" stroke="black" points="0,-325.5 0,-437.5 148,-437.5 148,-325.5 0,-325.5"/>
<text text-anchor="middle" x="74" y="-425.5" font-family="Helvetica,sans-Serif" font-size="10.00">IDamageable</text>
<polyline fill="none" stroke="black" points="0,-418.5 148,-418.5 "/>
<text text-anchor="middle" x="74" y="-406.5" font-family="Helvetica,sans-Serif" font-size="10.00"> </text>
<polyline fill="none" stroke="black" points="0,-399.5 148,-399.5 "/>
<text text-anchor="start" x="8" y="-387.5" font-family="Helvetica,sans-Serif" font-size="10.00">+ void Damage(float amount,</text>
<text text-anchor="start" x="8" y="-376.5" font-family="Helvetica,sans-Serif" font-size="10.00"> int attackN)</text>
<text text-anchor="start" x="8" y="-365.5" font-family="Helvetica,sans-Serif" font-size="10.00">+ void Damage(BaseController</text>
<text text-anchor="start" x="8" y="-354.5" font-family="Helvetica,sans-Serif" font-size="10.00"> controller, DamageInfo</text>
<text text-anchor="start" x="8" y="-343.5" font-family="Helvetica,sans-Serif" font-size="10.00"> damageInfo)</text>
<text text-anchor="start" x="8" y="-332.5" font-family="Helvetica,sans-Serif" font-size="10.00">+ void Kill()</text>
</a>
</g>
</g>
<!-- Node2&#45;&gt;Node1 -->
<g id="edge1" class="edge">
<title>Node2&#45;&gt;Node1</title>
<path fill="none" stroke="midnightblue" d="M100.97,-316.14C111.42,-291.2 123.72,-261.86 135.59,-233.52"/>
<polygon fill="none" stroke="midnightblue" points="97.7,-314.9 97.06,-325.47 104.15,-317.6 97.7,-314.9"/>
</g>
<!-- Node3 -->
<g id="node3" class="node">
<title>Node3</title>
<g id="a_node3"><a xlink:title=" ">
<polygon fill="none" stroke="#bfbfbf" points="166.5,-353 166.5,-410 201.5,-410 201.5,-353 166.5,-353"/>
<text text-anchor="middle" x="184" y="-398" font-family="Helvetica,sans-Serif" font-size="10.00">float</text>
<polyline fill="none" stroke="#bfbfbf" points="166.5,-391 201.5,-391 "/>
<text text-anchor="middle" x="184" y="-379" font-family="Helvetica,sans-Serif" font-size="10.00"> </text>
<polyline fill="none" stroke="#bfbfbf" points="166.5,-372 201.5,-372 "/>
<text text-anchor="middle" x="184" y="-360" font-family="Helvetica,sans-Serif" font-size="10.00"> </text>
</a>
</g>
</g>
<!-- Node3&#45;&gt;Node1 -->
<g id="edge2" class="edge">
<title>Node3&#45;&gt;Node1</title>
<path fill="none" stroke="#404040" d="M184,-352.9C184,-326.96 184,-286.19 184,-245.84"/>
<polygon fill="none" stroke="#404040" points="184,-245.64 180,-239.64 184,-233.64 188,-239.64 184,-245.64"/>
<text text-anchor="middle" x="226" y="-277" font-family="Helvetica,sans-Serif" font-size="10.00"> #interactionRadius</text>
</g>
<!-- Node4 -->
<g id="node4" class="node">
<title>Node4</title>
<g id="a_node4"><a xlink:title=" ">
<polygon fill="none" stroke="#bfbfbf" points="273.5,-353 273.5,-410 308.5,-410 308.5,-353 273.5,-353"/>
<text text-anchor="middle" x="291" y="-398" font-family="Helvetica,sans-Serif" font-size="10.00">bool</text>
<polyline fill="none" stroke="#bfbfbf" points="273.5,-391 308.5,-391 "/>
<text text-anchor="middle" x="291" y="-379" font-family="Helvetica,sans-Serif" font-size="10.00"> </text>
<polyline fill="none" stroke="#bfbfbf" points="273.5,-372 308.5,-372 "/>
<text text-anchor="middle" x="291" y="-360" font-family="Helvetica,sans-Serif" font-size="10.00"> </text>
</a>
</g>
</g>
<!-- Node4&#45;&gt;Node1 -->
<g id="edge3" class="edge">
<title>Node4&#45;&gt;Node1</title>
<path fill="none" stroke="#404040" d="M289.42,-352.84C287.18,-326.24 281.81,-285.27 269,-252 267.27,-247.5 265.38,-242.99 263.35,-238.49"/>
<polygon fill="none" stroke="#404040" points="263.21,-238.19 257.03,-234.48 258.07,-227.34 264.26,-231.06 263.21,-238.19"/>
<text text-anchor="middle" x="330.5" y="-299" font-family="Helvetica,sans-Serif" font-size="10.00"> +isEnrolledInDialogue</text>
<text text-anchor="middle" x="330.5" y="-288" font-family="Helvetica,sans-Serif" font-size="10.00">~moveOnDamaged</text>
<text text-anchor="middle" x="330.5" y="-277" font-family="Helvetica,sans-Serif" font-size="10.00">~praying</text>
<text text-anchor="middle" x="330.5" y="-266" font-family="Helvetica,sans-Serif" font-size="10.00">~respawning</text>
<text text-anchor="middle" x="330.5" y="-255" font-family="Helvetica,sans-Serif" font-size="10.00">~roll</text>
</g>
</g>
</svg>
