<?xml version="1.0" encoding="UTF-8" standalone="no"?>
<!DOCTYPE svg PUBLIC "-//W3C//DTD SVG 1.1//EN"
 "http://www.w3.org/Graphics/SVG/1.1/DTD/svg11.dtd">
<!-- Generated by graphviz version 2.48.0 (20210717.1556)
 -->
<!-- Title: MainMenu Pages: 1 -->
<svg width="495pt" height="353pt"
 viewBox="0.00 0.00 494.50 353.00" xmlns="http://www.w3.org/2000/svg" xmlns:xlink="http://www.w3.org/1999/xlink">
<g id="graph0" class="graph" transform="scale(1 1) rotate(0) translate(4 349)">
<title>MainMenu</title>
<!-- Node1 -->
<g id="node1" class="node">
<title>Node1</title>
<g id="a_node1"><a xlink:title=" ">
<polygon fill="#bfbfbf" stroke="black" points="119,-0.5 119,-123.5 280,-123.5 280,-0.5 119,-0.5"/>
<text text-anchor="middle" x="199.5" y="-111.5" font-family="Helvetica,sans-Serif" font-size="10.00">MainMenu</text>
<polyline fill="none" stroke="black" points="119,-104.5 280,-104.5 "/>
<text text-anchor="middle" x="199.5" y="-92.5" font-family="Helvetica,sans-Serif" font-size="10.00"> </text>
<polyline fill="none" stroke="black" points="119,-85.5 280,-85.5 "/>
<text text-anchor="start" x="127" y="-73.5" font-family="Helvetica,sans-Serif" font-size="10.00">+ IEnumerator OnLocaleSelected</text>
<text text-anchor="start" x="127" y="-62.5" font-family="Helvetica,sans-Serif" font-size="10.00">(int index)</text>
<text text-anchor="start" x="127" y="-51.5" font-family="Helvetica,sans-Serif" font-size="10.00">+ IEnumerator DoFade</text>
<text text-anchor="start" x="127" y="-40.5" font-family="Helvetica,sans-Serif" font-size="10.00">(CanvasGroup cg, float</text>
<text text-anchor="start" x="127" y="-29.5" font-family="Helvetica,sans-Serif" font-size="10.00"> start, float end, float</text>
<text text-anchor="start" x="127" y="-18.5" font-family="Helvetica,sans-Serif" font-size="10.00"> duration, float delay=0.0f,</text>
<text text-anchor="start" x="127" y="-7.5" font-family="Helvetica,sans-Serif" font-size="10.00"> Action callback=null)</text>
</a>
</g>
</g>
<!-- Node2 -->
<g id="node2" class="node">
<title>Node2</title>
<g id="a_node2"><a xlink:href="class_mono_behaviour.html" target="_top" xlink:title=" ">
<polygon fill="none" stroke="black" points="0,-287.5 0,-344.5 83,-344.5 83,-287.5 0,-287.5"/>
<text text-anchor="middle" x="41.5" y="-332.5" font-family="Helvetica,sans-Serif" font-size="10.00">MonoBehaviour</text>
<polyline fill="none" stroke="black" points="0,-325.5 83,-325.5 "/>
<text text-anchor="middle" x="41.5" y="-313.5" font-family="Helvetica,sans-Serif" font-size="10.00"> </text>
<polyline fill="none" stroke="black" points="0,-306.5 83,-306.5 "/>
<text text-anchor="middle" x="41.5" y="-294.5" font-family="Helvetica,sans-Serif" font-size="10.00"> </text>
</a>
</g>
</g>
<!-- Node2&#45;&gt;Node1 -->
<g id="edge1" class="edge">
<title>Node2&#45;&gt;Node1</title>
<path fill="none" stroke="midnightblue" d="M64.34,-278.58C89.74,-238.06 131.2,-171.93 161.51,-123.59"/>
<polygon fill="none" stroke="midnightblue" points="61.36,-276.74 59.01,-287.07 67.29,-280.46 61.36,-276.74"/>
</g>
<!-- Node3 -->
<g id="node3" class="node">
<title>Node3</title>
<g id="a_node3"><a xlink:href="class_screen_opts.html" target="_top" xlink:title=" ">
<polygon fill="none" stroke="black" points="146.5,-171.5 146.5,-239.5 252.5,-239.5 252.5,-171.5 146.5,-171.5"/>
<text text-anchor="middle" x="199.5" y="-227.5" font-family="Helvetica,sans-Serif" font-size="10.00">ScreenOpts</text>
<polyline fill="none" stroke="black" points="146.5,-220.5 252.5,-220.5 "/>
<text text-anchor="middle" x="199.5" y="-208.5" font-family="Helvetica,sans-Serif" font-size="10.00"> </text>
<polyline fill="none" stroke="black" points="146.5,-201.5 252.5,-201.5 "/>
<text text-anchor="start" x="154.5" y="-189.5" font-family="Helvetica,sans-Serif" font-size="10.00">~ void SetFPSStr(int</text>
<text text-anchor="start" x="154.5" y="-178.5" font-family="Helvetica,sans-Serif" font-size="10.00"> sliderFPSamount)</text>
</a>
</g>
</g>
<!-- Node2&#45;&gt;Node3 -->
<g id="edge3" class="edge">
<title>Node2&#45;&gt;Node3</title>
<path fill="none" stroke="midnightblue" d="M90.21,-281.55C109.67,-268.19 132.02,-252.84 151.42,-239.52"/>
<polygon fill="none" stroke="midnightblue" points="88.04,-278.79 81.78,-287.34 92,-284.56 88.04,-278.79"/>
</g>
<!-- Node3&#45;&gt;Node1 -->
<g id="edge2" class="edge">
<title>Node3&#45;&gt;Node1</title>
<path fill="none" stroke="#404040" d="M199.5,-171.32C199.5,-160.66 199.5,-148.4 199.5,-136.04"/>
<polygon fill="none" stroke="#404040" points="199.5,-135.71 195.5,-129.71 199.5,-123.71 203.5,-129.71 199.5,-135.71"/>
<text text-anchor="middle" x="229.5" y="-145" font-family="Helvetica,sans-Serif" font-size="10.00"> +screenOpts</text>
</g>
<!-- Node4 -->
<g id="node4" class="node">
<title>Node4</title>
<g id="a_node4"><a xlink:title=" ">
<polygon fill="none" stroke="#bfbfbf" points="222,-287.5 222,-344.5 263,-344.5 263,-287.5 222,-287.5"/>
<text text-anchor="middle" x="242.5" y="-332.5" font-family="Helvetica,sans-Serif" font-size="10.00">string</text>
<polyline fill="none" stroke="#bfbfbf" points="222,-325.5 263,-325.5 "/>
<text text-anchor="middle" x="242.5" y="-313.5" font-family="Helvetica,sans-Serif" font-size="10.00"> </text>
<polyline fill="none" stroke="#bfbfbf" points="222,-306.5 263,-306.5 "/>
<text text-anchor="middle" x="242.5" y="-294.5" font-family="Helvetica,sans-Serif" font-size="10.00"> </text>
</a>
</g>
</g>
<!-- Node4&#45;&gt;Node3 -->
<g id="edge4" class="edge">
<title>Node4&#45;&gt;Node3</title>
<path fill="none" stroke="#404040" d="M231.97,-287.42C228.37,-278.06 224.3,-267.56 220.5,-258 219.58,-255.69 218.64,-253.32 217.68,-250.92"/>
<polygon fill="none" stroke="#404040" points="217.64,-250.83 211.68,-246.77 213.15,-239.71 219.1,-243.77 217.64,-250.83"/>
<text text-anchor="middle" x="276" y="-261" font-family="Helvetica,sans-Serif" font-size="10.00"> +sliderFPSamountSTR</text>
</g>
<!-- Node5 -->
<g id="node5" class="node">
<title>Node5</title>
<g id="a_node5"><a xlink:title=" ">
<polygon fill="none" stroke="#bfbfbf" points="391,-287.5 391,-344.5 420,-344.5 420,-287.5 391,-287.5"/>
<text text-anchor="middle" x="405.5" y="-332.5" font-family="Helvetica,sans-Serif" font-size="10.00">int</text>
<polyline fill="none" stroke="#bfbfbf" points="391,-325.5 420,-325.5 "/>
<text text-anchor="middle" x="405.5" y="-313.5" font-family="Helvetica,sans-Serif" font-size="10.00"> </text>
<polyline fill="none" stroke="#bfbfbf" points="391,-306.5 420,-306.5 "/>
<text text-anchor="middle" x="405.5" y="-294.5" font-family="Helvetica,sans-Serif" font-size="10.00"> </text>
</a>
</g>
</g>
<!-- Node5&#45;&gt;Node1 -->
<g id="edge7" class="edge">
<title>Node5&#45;&gt;Node1</title>
<path fill="none" stroke="#404040" d="M413.92,-287.45C415.46,-277.8 415.5,-267.11 411.5,-258 386.5,-201.05 335.76,-153.41 290.18,-119.47"/>
<polygon fill="none" stroke="#404040" points="289.94,-119.3 282.73,-118.99 280.24,-112.23 287.45,-112.53 289.94,-119.3"/>
<text text-anchor="middle" x="444" y="-203" font-family="Helvetica,sans-Serif" font-size="10.00"> +sliderFPSamount</text>
</g>
<!-- Node5&#45;&gt;Node3 -->
<g id="edge5" class="edge">
<title>Node5&#45;&gt;Node3</title>
<path fill="none" stroke="#404040" d="M390.8,-301.64C376.48,-289.12 353.67,-270.52 331.5,-258 310.53,-246.16 286.29,-235.84 264.36,-227.61"/>
<polygon fill="none" stroke="#404040" points="264.05,-227.5 257.05,-229.2 252.78,-223.38 259.79,-221.69 264.05,-227.5"/>
<text text-anchor="middle" x="378" y="-261" font-family="Helvetica,sans-Serif" font-size="10.00"> +currentFPS</text>
</g>
<!-- Node6 -->
<g id="node6" class="node">
<title>Node6</title>
<g id="a_node6"><a xlink:title=" ">
<polygon fill="none" stroke="#bfbfbf" points="101.5,-287.5 101.5,-344.5 203.5,-344.5 203.5,-287.5 101.5,-287.5"/>
<text text-anchor="middle" x="152.5" y="-332.5" font-family="Helvetica,sans-Serif" font-size="10.00">LocalizeStringEvent</text>
<polyline fill="none" stroke="#bfbfbf" points="101.5,-325.5 203.5,-325.5 "/>
<text text-anchor="middle" x="152.5" y="-313.5" font-family="Helvetica,sans-Serif" font-size="10.00"> </text>
<polyline fill="none" stroke="#bfbfbf" points="101.5,-306.5 203.5,-306.5 "/>
<text text-anchor="middle" x="152.5" y="-294.5" font-family="Helvetica,sans-Serif" font-size="10.00"> </text>
</a>
</g>
</g>
<!-- Node6&#45;&gt;Node3 -->
<g id="edge6" class="edge">
<title>Node6&#45;&gt;Node3</title>
<path fill="none" stroke="#404040" d="M145.62,-287.23C144.52,-277.66 144.76,-267.08 148.5,-258 149.67,-255.15 151.09,-252.37 152.69,-249.68"/>
<polygon fill="none" stroke="#404040" points="152.77,-249.57 152.94,-242.36 159.66,-239.75 159.49,-246.96 152.77,-249.57"/>
<text text-anchor="middle" x="182.5" y="-261" font-family="Helvetica,sans-Serif" font-size="10.00"> +localizeString</text>
</g>
</g>
</svg>
