<?xml version="1.0" encoding="UTF-8" standalone="no"?>
<!DOCTYPE svg PUBLIC "-//W3C//DTD SVG 1.1//EN"
 "http://www.w3.org/Graphics/SVG/1.1/DTD/svg11.dtd">
<!-- Generated by graphviz version 2.48.0 (20210717.1556)
 -->
<!-- Title: Controllers.StateMachine.States.IdleState Pages: 1 -->
<svg width="1536pt" height="1444pt"
 viewBox="0.00 0.00 1535.96 1444.00" xmlns="http://www.w3.org/2000/svg" xmlns:xlink="http://www.w3.org/1999/xlink">
<g id="graph0" class="graph" transform="scale(1 1) rotate(0) translate(4 1440)">
<title>Controllers.StateMachine.States.IdleState</title>
<!-- Node1 -->
<g id="node1" class="node">
<title>Node1</title>
<g id="a_node1"><a xlink:title=" ">
<polygon fill="#bfbfbf" stroke="black" points="1221.96,-0.5 1221.96,-178.5 1401.96,-178.5 1401.96,-0.5 1221.96,-0.5"/>
<text text-anchor="start" x="1229.96" y="-166.5" font-family="Helvetica,sans-Serif" font-size="10.00">Controllers.StateMachine.</text>
<text text-anchor="middle" x="1311.96" y="-155.5" font-family="Helvetica,sans-Serif" font-size="10.00">States.IdleState</text>
<polyline fill="none" stroke="black" points="1221.96,-148.5 1401.96,-148.5 "/>
<text text-anchor="middle" x="1311.96" y="-136.5" font-family="Helvetica,sans-Serif" font-size="10.00"> </text>
<polyline fill="none" stroke="black" points="1221.96,-129.5 1401.96,-129.5 "/>
<text text-anchor="start" x="1229.96" y="-117.5" font-family="Helvetica,sans-Serif" font-size="10.00">+ IdleState(BaseController</text>
<text text-anchor="start" x="1229.96" y="-106.5" font-family="Helvetica,sans-Serif" font-size="10.00"> controller, ControllerStateMachine</text>
<text text-anchor="start" x="1229.96" y="-95.5" font-family="Helvetica,sans-Serif" font-size="10.00"> stateMachine, string animBoolName,</text>
<text text-anchor="start" x="1229.96" y="-84.5" font-family="Helvetica,sans-Serif" font-size="10.00"> IdleStateData stateData)</text>
<text text-anchor="start" x="1229.96" y="-73.5" font-family="Helvetica,sans-Serif" font-size="10.00">+ override void Enter()</text>
<text text-anchor="start" x="1229.96" y="-62.5" font-family="Helvetica,sans-Serif" font-size="10.00">+ override void Exit()</text>
<text text-anchor="start" x="1229.96" y="-51.5" font-family="Helvetica,sans-Serif" font-size="10.00">+ override void UpdateState()</text>
<text text-anchor="start" x="1229.96" y="-40.5" font-family="Helvetica,sans-Serif" font-size="10.00">+ override void UpdatePhysics()</text>
<text text-anchor="start" x="1229.96" y="-29.5" font-family="Helvetica,sans-Serif" font-size="10.00">+ void SetFlipAfterIdle</text>
<text text-anchor="start" x="1229.96" y="-18.5" font-family="Helvetica,sans-Serif" font-size="10.00">(bool flip)</text>
<text text-anchor="start" x="1229.96" y="-7.5" font-family="Helvetica,sans-Serif" font-size="10.00">+ void SetRandomIdleTime()</text>
</a>
</g>
</g>
<!-- Node2 -->
<g id="node2" class="node">
<title>Node2</title>
<g id="a_node2"><a xlink:href="class_controllers_1_1_state_machine_1_1_state.html" target="_top" xlink:title="Clase base para los estados de cada personaje. Controla el ciclo de vida de cada estado (Enter,...">
<polygon fill="none" stroke="black" points="1239.46,-216.5 1239.46,-350.5 1384.46,-350.5 1384.46,-216.5 1239.46,-216.5"/>
<text text-anchor="middle" x="1311.96" y="-338.5" font-family="Helvetica,sans-Serif" font-size="10.00">State</text>
<polyline fill="none" stroke="black" points="1239.46,-331.5 1384.46,-331.5 "/>
<text text-anchor="middle" x="1311.96" y="-319.5" font-family="Helvetica,sans-Serif" font-size="10.00"> </text>
<polyline fill="none" stroke="black" points="1239.46,-312.5 1384.46,-312.5 "/>
<text text-anchor="start" x="1247.46" y="-300.5" font-family="Helvetica,sans-Serif" font-size="10.00">+ State(BaseController</text>
<text text-anchor="start" x="1247.46" y="-289.5" font-family="Helvetica,sans-Serif" font-size="10.00"> controller, ControllerState</text>
<text text-anchor="start" x="1247.46" y="-278.5" font-family="Helvetica,sans-Serif" font-size="10.00">Machine stateMachine, string</text>
<text text-anchor="start" x="1247.46" y="-267.5" font-family="Helvetica,sans-Serif" font-size="10.00"> animBoolName)</text>
<text text-anchor="start" x="1247.46" y="-256.5" font-family="Helvetica,sans-Serif" font-size="10.00">+ virtual void Enter()</text>
<text text-anchor="start" x="1247.46" y="-245.5" font-family="Helvetica,sans-Serif" font-size="10.00">+ virtual void Exit()</text>
<text text-anchor="start" x="1247.46" y="-234.5" font-family="Helvetica,sans-Serif" font-size="10.00">+ virtual void UpdateState()</text>
<text text-anchor="start" x="1247.46" y="-223.5" font-family="Helvetica,sans-Serif" font-size="10.00">+ virtual void UpdatePhysics()</text>
</a>
</g>
</g>
<!-- Node2&#45;&gt;Node1 -->
<g id="edge1" class="edge">
<title>Node2&#45;&gt;Node1</title>
<path fill="none" stroke="midnightblue" d="M1311.96,-206.32C1311.96,-197.26 1311.96,-187.95 1311.96,-178.74"/>
<polygon fill="none" stroke="midnightblue" points="1308.46,-206.42 1311.96,-216.42 1315.46,-206.42 1308.46,-206.42"/>
</g>
<!-- Node3 -->
<g id="node3" class="node">
<title>Node3</title>
<g id="a_node3"><a xlink:title=" ">
<polygon fill="none" stroke="#bfbfbf" points="1388.46,-646 1388.46,-703 1429.46,-703 1429.46,-646 1388.46,-646"/>
<text text-anchor="middle" x="1408.96" y="-691" font-family="Helvetica,sans-Serif" font-size="10.00">string</text>
<polyline fill="none" stroke="#bfbfbf" points="1388.46,-684 1429.46,-684 "/>
<text text-anchor="middle" x="1408.96" y="-672" font-family="Helvetica,sans-Serif" font-size="10.00"> </text>
<polyline fill="none" stroke="#bfbfbf" points="1388.46,-665 1429.46,-665 "/>
<text text-anchor="middle" x="1408.96" y="-653" font-family="Helvetica,sans-Serif" font-size="10.00"> </text>
</a>
</g>
</g>
<!-- Node3&#45;&gt;Node2 -->
<g id="edge2" class="edge">
<title>Node3&#45;&gt;Node2</title>
<path fill="none" stroke="#404040" d="M1409.87,-645.97C1410.75,-591.24 1408.12,-465.72 1370.96,-369 1369.99,-366.49 1368.94,-363.98 1367.81,-361.49"/>
<polygon fill="none" stroke="#404040" points="1367.76,-361.39 1361.5,-357.8 1362.4,-350.65 1368.66,-354.23 1367.76,-361.39"/>
<text text-anchor="middle" x="1410.46" y="-372" font-family="Helvetica,sans-Serif" font-size="10.00"> #animBoolName</text>
</g>
<!-- Node4 -->
<g id="node4" class="node">
<title>Node4</title>
<g id="a_node4"><a xlink:href="class_controllers_1_1_base_controller.html" target="_top" xlink:title=" ">
<polygon fill="none" stroke="black" points="741.46,-398.5 741.46,-950.5 914.46,-950.5 914.46,-398.5 741.46,-398.5"/>
<text text-anchor="middle" x="827.96" y="-938.5" font-family="Helvetica,sans-Serif" font-size="10.00">Controllers.BaseController</text>
<polyline fill="none" stroke="black" points="741.46,-931.5 914.46,-931.5 "/>
<text text-anchor="start" x="749.46" y="-919.5" font-family="Helvetica,sans-Serif" font-size="10.00">+ int FacingDirection</text>
<text text-anchor="start" x="749.46" y="-908.5" font-family="Helvetica,sans-Serif" font-size="10.00">+ bool IsReadyToAttack</text>
<text text-anchor="start" x="749.46" y="-897.5" font-family="Helvetica,sans-Serif" font-size="10.00">+ bool wallDetected</text>
<text text-anchor="start" x="749.46" y="-886.5" font-family="Helvetica,sans-Serif" font-size="10.00">+ bool groundDetected</text>
<text text-anchor="start" x="749.46" y="-875.5" font-family="Helvetica,sans-Serif" font-size="10.00">+ bool topDetected</text>
<polyline fill="none" stroke="black" points="741.46,-868.5 914.46,-868.5 "/>
<text text-anchor="start" x="749.46" y="-856.5" font-family="Helvetica,sans-Serif" font-size="10.00">+ void Flip()</text>
<text text-anchor="start" x="749.46" y="-845.5" font-family="Helvetica,sans-Serif" font-size="10.00">+ void SetVelocity(float</text>
<text text-anchor="start" x="749.46" y="-834.5" font-family="Helvetica,sans-Serif" font-size="10.00"> velocity)</text>
<text text-anchor="start" x="749.46" y="-823.5" font-family="Helvetica,sans-Serif" font-size="10.00">+ void AddForce(Vector2</text>
<text text-anchor="start" x="749.46" y="-812.5" font-family="Helvetica,sans-Serif" font-size="10.00"> newForce, bool isImpulse)</text>
<text text-anchor="start" x="749.46" y="-801.5" font-family="Helvetica,sans-Serif" font-size="10.00">+ void AddTorque(float</text>
<text text-anchor="start" x="749.46" y="-790.5" font-family="Helvetica,sans-Serif" font-size="10.00"> newTorque, bool isImpulse)</text>
<text text-anchor="start" x="749.46" y="-779.5" font-family="Helvetica,sans-Serif" font-size="10.00">+ T GetMovementController</text>
<text text-anchor="start" x="749.46" y="-768.5" font-family="Helvetica,sans-Serif" font-size="10.00">&lt; T &gt;()</text>
<text text-anchor="start" x="749.46" y="-757.5" font-family="Helvetica,sans-Serif" font-size="10.00">+ Animator GetAnimator()</text>
<text text-anchor="start" x="749.46" y="-746.5" font-family="Helvetica,sans-Serif" font-size="10.00">+ Transform GetTransfrom()</text>
<text text-anchor="start" x="749.46" y="-735.5" font-family="Helvetica,sans-Serif" font-size="10.00">+ GameObject GetDialogueBubble()</text>
<text text-anchor="start" x="749.46" y="-724.5" font-family="Helvetica,sans-Serif" font-size="10.00">+ bool CheckWall()</text>
<text text-anchor="start" x="749.46" y="-713.5" font-family="Helvetica,sans-Serif" font-size="10.00">+ bool CheckLedge()</text>
<text text-anchor="start" x="749.46" y="-702.5" font-family="Helvetica,sans-Serif" font-size="10.00">+ bool CheckGround()</text>
<text text-anchor="start" x="749.46" y="-691.5" font-family="Helvetica,sans-Serif" font-size="10.00">+ bool CheckPlayerInRange()</text>
<text text-anchor="start" x="749.46" y="-680.5" font-family="Helvetica,sans-Serif" font-size="10.00">+ void SwitchStates(ECharacter</text>
<text text-anchor="start" x="749.46" y="-669.5" font-family="Helvetica,sans-Serif" font-size="10.00">State nextState)</text>
<text text-anchor="start" x="749.46" y="-658.5" font-family="Helvetica,sans-Serif" font-size="10.00">+ void Anim_PreparingAttack</text>
<text text-anchor="start" x="749.46" y="-647.5" font-family="Helvetica,sans-Serif" font-size="10.00">Finished()</text>
<text text-anchor="start" x="749.46" y="-636.5" font-family="Helvetica,sans-Serif" font-size="10.00">+ virtual void Damage</text>
<text text-anchor="start" x="749.46" y="-625.5" font-family="Helvetica,sans-Serif" font-size="10.00">(float amount, int attackN)</text>
<text text-anchor="start" x="749.46" y="-614.5" font-family="Helvetica,sans-Serif" font-size="10.00">+ void Damage(BaseController</text>
<text text-anchor="start" x="749.46" y="-603.5" font-family="Helvetica,sans-Serif" font-size="10.00"> controller, DamageInfo</text>
<text text-anchor="start" x="749.46" y="-592.5" font-family="Helvetica,sans-Serif" font-size="10.00"> damageInfo)</text>
<text text-anchor="start" x="749.46" y="-581.5" font-family="Helvetica,sans-Serif" font-size="10.00">+ void Kill()</text>
<text text-anchor="start" x="749.46" y="-570.5" font-family="Helvetica,sans-Serif" font-size="10.00">+ bool Interact(BaseController</text>
<text text-anchor="start" x="749.46" y="-559.5" font-family="Helvetica,sans-Serif" font-size="10.00"> controller, EInteractionKind</text>
<text text-anchor="start" x="749.46" y="-548.5" font-family="Helvetica,sans-Serif" font-size="10.00"> interactionKind)</text>
<text text-anchor="start" x="749.46" y="-537.5" font-family="Helvetica,sans-Serif" font-size="10.00">+ bool Interact(PlayerController</text>
<text text-anchor="start" x="749.46" y="-526.5" font-family="Helvetica,sans-Serif" font-size="10.00"> controller, EInteractionKind</text>
<text text-anchor="start" x="749.46" y="-515.5" font-family="Helvetica,sans-Serif" font-size="10.00"> interactionKind)</text>
<text text-anchor="start" x="749.46" y="-504.5" font-family="Helvetica,sans-Serif" font-size="10.00">+ void ReadyToInteract</text>
<text text-anchor="start" x="749.46" y="-493.5" font-family="Helvetica,sans-Serif" font-size="10.00">(PlayerController controller,</text>
<text text-anchor="start" x="749.46" y="-482.5" font-family="Helvetica,sans-Serif" font-size="10.00"> bool isReady)</text>
<text text-anchor="start" x="749.46" y="-471.5" font-family="Helvetica,sans-Serif" font-size="10.00">+ void ReadyToInteract</text>
<text text-anchor="start" x="749.46" y="-460.5" font-family="Helvetica,sans-Serif" font-size="10.00">(BaseController controller,</text>
<text text-anchor="start" x="749.46" y="-449.5" font-family="Helvetica,sans-Serif" font-size="10.00"> bool isReady)</text>
<text text-anchor="start" x="749.46" y="-438.5" font-family="Helvetica,sans-Serif" font-size="10.00"># virtual void Start()</text>
<text text-anchor="start" x="749.46" y="-427.5" font-family="Helvetica,sans-Serif" font-size="10.00"># virtual void OnDrawGizmos()</text>
<text text-anchor="start" x="749.46" y="-416.5" font-family="Helvetica,sans-Serif" font-size="10.00"># virtual void OnEnterDead</text>
<text text-anchor="start" x="749.46" y="-405.5" font-family="Helvetica,sans-Serif" font-size="10.00">StateStart()</text>
</a>
</g>
</g>
<!-- Node4&#45;&gt;Node2 -->
<g id="edge3" class="edge">
<title>Node4&#45;&gt;Node2</title>
<path fill="none" stroke="#404040" d="M914.68,-601.74C990.12,-539.58 1102.63,-447.56 1201.96,-369 1210.86,-361.96 1220.21,-354.65 1229.55,-347.4"/>
<polygon fill="none" stroke="#404040" points="1229.76,-347.24 1232.06,-340.4 1239.25,-339.89 1236.95,-346.73 1229.76,-347.24"/>
<text text-anchor="middle" x="1226.46" y="-372" font-family="Helvetica,sans-Serif" font-size="10.00"> #controller</text>
</g>
<!-- Node5 -->
<g id="node5" class="node">
<title>Node5</title>
<g id="a_node5"><a xlink:href="interface_controllers_1_1_i_damageable.html" target="_top" xlink:title="Interfaz para todos los NPCs/Enemigos/Objetos que pueden ser daniados.">
<polygon fill="none" stroke="black" points="579.96,-1323.5 579.96,-1435.5 727.96,-1435.5 727.96,-1323.5 579.96,-1323.5"/>
<text text-anchor="middle" x="653.96" y="-1423.5" font-family="Helvetica,sans-Serif" font-size="10.00">IDamageable</text>
<polyline fill="none" stroke="black" points="579.96,-1416.5 727.96,-1416.5 "/>
<text text-anchor="middle" x="653.96" y="-1404.5" font-family="Helvetica,sans-Serif" font-size="10.00"> </text>
<polyline fill="none" stroke="black" points="579.96,-1397.5 727.96,-1397.5 "/>
<text text-anchor="start" x="587.96" y="-1385.5" font-family="Helvetica,sans-Serif" font-size="10.00">+ void Damage(float amount,</text>
<text text-anchor="start" x="587.96" y="-1374.5" font-family="Helvetica,sans-Serif" font-size="10.00"> int attackN)</text>
<text text-anchor="start" x="587.96" y="-1363.5" font-family="Helvetica,sans-Serif" font-size="10.00">+ void Damage(BaseController</text>
<text text-anchor="start" x="587.96" y="-1352.5" font-family="Helvetica,sans-Serif" font-size="10.00"> controller, DamageInfo</text>
<text text-anchor="start" x="587.96" y="-1341.5" font-family="Helvetica,sans-Serif" font-size="10.00"> damageInfo)</text>
<text text-anchor="start" x="587.96" y="-1330.5" font-family="Helvetica,sans-Serif" font-size="10.00">+ void Kill()</text>
</a>
</g>
</g>
<!-- Node5&#45;&gt;Node4 -->
<g id="edge4" class="edge">
<title>Node5&#45;&gt;Node4</title>
<path fill="none" stroke="midnightblue" d="M736.88,-1338.44C777.85,-1313.87 823.45,-1278.2 846.96,-1232 872.19,-1182.4 870.89,-1064.87 861.81,-950.53"/>
<polygon fill="none" stroke="midnightblue" points="735.07,-1335.44 728.21,-1343.52 738.61,-1341.48 735.07,-1335.44"/>
</g>
<!-- Node18 -->
<g id="node18" class="node">
<title>Node18</title>
<g id="a_node18"><a xlink:href="class_player_1_1_player_controller.html" target="_top" xlink:title=" ">
<polygon fill="none" stroke="black" points="430.96,-998.5 430.96,-1231.5 578.96,-1231.5 578.96,-998.5 430.96,-998.5"/>
<text text-anchor="middle" x="504.96" y="-1219.5" font-family="Helvetica,sans-Serif" font-size="10.00">Player.PlayerController</text>
<polyline fill="none" stroke="black" points="430.96,-1212.5 578.96,-1212.5 "/>
<text text-anchor="middle" x="504.96" y="-1200.5" font-family="Helvetica,sans-Serif" font-size="10.00"> </text>
<polyline fill="none" stroke="black" points="430.96,-1193.5 578.96,-1193.5 "/>
<text text-anchor="start" x="438.96" y="-1181.5" font-family="Helvetica,sans-Serif" font-size="10.00">+ void Damage(float amount,</text>
<text text-anchor="start" x="438.96" y="-1170.5" font-family="Helvetica,sans-Serif" font-size="10.00"> int attackN)</text>
<text text-anchor="start" x="438.96" y="-1159.5" font-family="Helvetica,sans-Serif" font-size="10.00">+ void Damage(BaseController</text>
<text text-anchor="start" x="438.96" y="-1148.5" font-family="Helvetica,sans-Serif" font-size="10.00"> controller, DamageInfo</text>
<text text-anchor="start" x="438.96" y="-1137.5" font-family="Helvetica,sans-Serif" font-size="10.00"> damageInfo)</text>
<text text-anchor="start" x="438.96" y="-1126.5" font-family="Helvetica,sans-Serif" font-size="10.00">+ void Kill()</text>
<text text-anchor="start" x="438.96" y="-1115.5" font-family="Helvetica,sans-Serif" font-size="10.00">+ void EnterInteractionMode()</text>
<text text-anchor="start" x="438.96" y="-1104.5" font-family="Helvetica,sans-Serif" font-size="10.00">+ int GetFacingDirection()</text>
<text text-anchor="start" x="438.96" y="-1093.5" font-family="Helvetica,sans-Serif" font-size="10.00">+ void LandEvt()</text>
<text text-anchor="start" x="438.96" y="-1082.5" font-family="Helvetica,sans-Serif" font-size="10.00">+ void OnAirEvt()</text>
<text text-anchor="start" x="438.96" y="-1071.5" font-family="Helvetica,sans-Serif" font-size="10.00">+ bool IsFacingRight()</text>
<text text-anchor="start" x="438.96" y="-1060.5" font-family="Helvetica,sans-Serif" font-size="10.00">+ void AnimStartPrayingEvt()</text>
<text text-anchor="start" x="438.96" y="-1049.5" font-family="Helvetica,sans-Serif" font-size="10.00">+ void AnimRollEndEvt()</text>
<text text-anchor="start" x="438.96" y="-1038.5" font-family="Helvetica,sans-Serif" font-size="10.00">+ void AnimFootStep1Evt()</text>
<text text-anchor="start" x="438.96" y="-1027.5" font-family="Helvetica,sans-Serif" font-size="10.00">+ void AnimFootStep2Evt()</text>
<text text-anchor="start" x="438.96" y="-1016.5" font-family="Helvetica,sans-Serif" font-size="10.00">~ void OnEnable()</text>
<text text-anchor="start" x="438.96" y="-1005.5" font-family="Helvetica,sans-Serif" font-size="10.00">~ void OnDisable()</text>
</a>
</g>
</g>
<!-- Node5&#45;&gt;Node18 -->
<g id="edge18" class="edge">
<title>Node5&#45;&gt;Node18</title>
<path fill="none" stroke="midnightblue" d="M617.61,-1314.47C603.42,-1289.46 586.69,-1259.99 570.53,-1231.52"/>
<polygon fill="none" stroke="midnightblue" points="614.74,-1316.5 622.72,-1323.47 620.83,-1313.05 614.74,-1316.5"/>
</g>
<!-- Node6 -->
<g id="node6" class="node">
<title>Node6</title>
<g id="a_node6"><a xlink:href="interface_interactions_1_1_interfaces_1_1_i_interactive.html" target="_top" xlink:title=" ">
<polygon fill="none" stroke="black" points="597.46,-1026 597.46,-1204 748.46,-1204 748.46,-1026 597.46,-1026"/>
<text text-anchor="middle" x="672.96" y="-1192" font-family="Helvetica,sans-Serif" font-size="10.00">IInteractive</text>
<polyline fill="none" stroke="black" points="597.46,-1185 748.46,-1185 "/>
<text text-anchor="middle" x="672.96" y="-1173" font-family="Helvetica,sans-Serif" font-size="10.00"> </text>
<polyline fill="none" stroke="black" points="597.46,-1166 748.46,-1166 "/>
<text text-anchor="start" x="605.46" y="-1154" font-family="Helvetica,sans-Serif" font-size="10.00">+ bool Interact(BaseController</text>
<text text-anchor="start" x="605.46" y="-1143" font-family="Helvetica,sans-Serif" font-size="10.00"> controller, EInteractionKind</text>
<text text-anchor="start" x="605.46" y="-1132" font-family="Helvetica,sans-Serif" font-size="10.00"> interactionKind)</text>
<text text-anchor="start" x="605.46" y="-1121" font-family="Helvetica,sans-Serif" font-size="10.00">+ bool Interact(PlayerController</text>
<text text-anchor="start" x="605.46" y="-1110" font-family="Helvetica,sans-Serif" font-size="10.00"> controller, EInteractionKind</text>
<text text-anchor="start" x="605.46" y="-1099" font-family="Helvetica,sans-Serif" font-size="10.00"> interactionKind)</text>
<text text-anchor="start" x="605.46" y="-1088" font-family="Helvetica,sans-Serif" font-size="10.00">+ void ReadyToInteract</text>
<text text-anchor="start" x="605.46" y="-1077" font-family="Helvetica,sans-Serif" font-size="10.00">(PlayerController controller,</text>
<text text-anchor="start" x="605.46" y="-1066" font-family="Helvetica,sans-Serif" font-size="10.00"> bool isReady)</text>
<text text-anchor="start" x="605.46" y="-1055" font-family="Helvetica,sans-Serif" font-size="10.00">+ void ReadyToInteract</text>
<text text-anchor="start" x="605.46" y="-1044" font-family="Helvetica,sans-Serif" font-size="10.00">(BaseController controller,</text>
<text text-anchor="start" x="605.46" y="-1033" font-family="Helvetica,sans-Serif" font-size="10.00"> bool isReady)</text>
</a>
</g>
</g>
<!-- Node6&#45;&gt;Node4 -->
<g id="edge5" class="edge">
<title>Node6&#45;&gt;Node4</title>
<path fill="none" stroke="midnightblue" d="M707.55,-1016.14C717.78,-987.19 729.47,-954.12 741.45,-920.22"/>
<polygon fill="none" stroke="midnightblue" points="704.17,-1015.2 704.14,-1025.79 710.77,-1017.53 704.17,-1015.2"/>
</g>
<!-- Node7 -->
<g id="node7" class="node">
<title>Node7</title>
<g id="a_node7"><a xlink:title=" ">
<polygon fill="none" stroke="#bfbfbf" points="766.46,-1086.5 766.46,-1143.5 837.46,-1143.5 837.46,-1086.5 766.46,-1086.5"/>
<text text-anchor="middle" x="801.96" y="-1131.5" font-family="Helvetica,sans-Serif" font-size="10.00">Rigidbody2D</text>
<polyline fill="none" stroke="#bfbfbf" points="766.46,-1124.5 837.46,-1124.5 "/>
<text text-anchor="middle" x="801.96" y="-1112.5" font-family="Helvetica,sans-Serif" font-size="10.00"> </text>
<polyline fill="none" stroke="#bfbfbf" points="766.46,-1105.5 837.46,-1105.5 "/>
<text text-anchor="middle" x="801.96" y="-1093.5" font-family="Helvetica,sans-Serif" font-size="10.00"> </text>
</a>
</g>
</g>
<!-- Node7&#45;&gt;Node4 -->
<g id="edge6" class="edge">
<title>Node7&#45;&gt;Node4</title>
<path fill="none" stroke="#404040" d="M799.29,-1086.32C796.82,-1059.24 793.33,-1016.83 791.96,-980 791.75,-974.46 791.62,-968.88 791.56,-963.25"/>
<polygon fill="none" stroke="#404040" points="791.56,-962.87 787.55,-956.87 791.54,-950.87 795.55,-956.86 791.56,-962.87"/>
<text text-anchor="middle" x="821.96" y="-972" font-family="Helvetica,sans-Serif" font-size="10.00"> #rigidbody2D</text>
</g>
<!-- Node8 -->
<g id="node8" class="node">
<title>Node8</title>
<g id="a_node8"><a xlink:title=" ">
<polygon fill="none" stroke="#bfbfbf" points="893.96,-1086.5 893.96,-1143.5 949.96,-1143.5 949.96,-1086.5 893.96,-1086.5"/>
<text text-anchor="middle" x="921.96" y="-1131.5" font-family="Helvetica,sans-Serif" font-size="10.00">Animator</text>
<polyline fill="none" stroke="#bfbfbf" points="893.96,-1124.5 949.96,-1124.5 "/>
<text text-anchor="middle" x="921.96" y="-1112.5" font-family="Helvetica,sans-Serif" font-size="10.00"> </text>
<polyline fill="none" stroke="#bfbfbf" points="893.96,-1105.5 949.96,-1105.5 "/>
<text text-anchor="middle" x="921.96" y="-1093.5" font-family="Helvetica,sans-Serif" font-size="10.00"> </text>
</a>
</g>
</g>
<!-- Node8&#45;&gt;Node4 -->
<g id="edge7" class="edge">
<title>Node8&#45;&gt;Node4</title>
<path fill="none" stroke="#404040" d="M916.01,-1086.24C910.1,-1058.68 900.38,-1013.32 889.5,-962.59"/>
<polygon fill="none" stroke="#404040" points="889.45,-962.37 884.29,-957.34 886.94,-950.64 892.11,-955.67 889.45,-962.37"/>
<text text-anchor="middle" x="934.96" y="-972" font-family="Helvetica,sans-Serif" font-size="10.00"> #characterAnimator</text>
</g>
<!-- Node9 -->
<g id="node9" class="node">
<title>Node9</title>
<g id="a_node9"><a xlink:href="class_controllers_1_1_state_machine_1_1_states_1_1_data_1_1_controller_data.html" target="_top" xlink:title=" ">
<polygon fill="none" stroke="black" points="968.46,-1081 968.46,-1149 1101.46,-1149 1101.46,-1081 968.46,-1081"/>
<text text-anchor="start" x="976.46" y="-1137" font-family="Helvetica,sans-Serif" font-size="10.00">Controllers.StateMachine.</text>
<text text-anchor="middle" x="1034.96" y="-1126" font-family="Helvetica,sans-Serif" font-size="10.00">States.Data.ControllerData</text>
<polyline fill="none" stroke="black" points="968.46,-1119 1101.46,-1119 "/>
<text text-anchor="middle" x="1034.96" y="-1107" font-family="Helvetica,sans-Serif" font-size="10.00"> </text>
<polyline fill="none" stroke="black" points="968.46,-1100 1101.46,-1100 "/>
<text text-anchor="middle" x="1034.96" y="-1088" font-family="Helvetica,sans-Serif" font-size="10.00"> </text>
</a>
</g>
</g>
<!-- Node9&#45;&gt;Node4 -->
<g id="edge8" class="edge">
<title>Node9&#45;&gt;Node4</title>
<path fill="none" stroke="#404040" d="M1024.59,-1080.94C1014.91,-1051.21 999.51,-1006.56 982.96,-969 964.25,-926.56 941.99,-881.79 920.25,-840.35"/>
<polygon fill="none" stroke="#404040" points="920.18,-840.22 913.84,-836.78 914.58,-829.61 920.92,-833.05 920.18,-840.22"/>
<text text-anchor="middle" x="1007.46" y="-972" font-family="Helvetica,sans-Serif" font-size="10.00"> +ctrlData</text>
</g>
<!-- Node10 -->
<g id="node10" class="node">
<title>Node10</title>
<g id="a_node10"><a xlink:href="class_scriptable_object.html" target="_top" xlink:title=" ">
<polygon fill="none" stroke="black" points="894.46,-1351 894.46,-1408 983.46,-1408 983.46,-1351 894.46,-1351"/>
<text text-anchor="middle" x="938.96" y="-1396" font-family="Helvetica,sans-Serif" font-size="10.00">ScriptableObject</text>
<polyline fill="none" stroke="black" points="894.46,-1389 983.46,-1389 "/>
<text text-anchor="middle" x="938.96" y="-1377" font-family="Helvetica,sans-Serif" font-size="10.00"> </text>
<polyline fill="none" stroke="black" points="894.46,-1370 983.46,-1370 "/>
<text text-anchor="middle" x="938.96" y="-1358" font-family="Helvetica,sans-Serif" font-size="10.00"> </text>
</a>
</g>
</g>
<!-- Node10&#45;&gt;Node9 -->
<g id="edge9" class="edge">
<title>Node10&#45;&gt;Node9</title>
<path fill="none" stroke="midnightblue" d="M952.6,-1341.21C971.34,-1289.95 1004.79,-1198.49 1022.75,-1149.37"/>
<polygon fill="none" stroke="midnightblue" points="949.2,-1340.31 949.05,-1350.9 955.77,-1342.71 949.2,-1340.31"/>
</g>
<!-- Node11 -->
<g id="node11" class="node">
<title>Node11</title>
<g id="a_node11"><a xlink:title=" ">
<polygon fill="none" stroke="#bfbfbf" points="1278.46,-1351 1278.46,-1408 1313.46,-1408 1313.46,-1351 1278.46,-1351"/>
<text text-anchor="middle" x="1295.96" y="-1396" font-family="Helvetica,sans-Serif" font-size="10.00">float</text>
<polyline fill="none" stroke="#bfbfbf" points="1278.46,-1389 1313.46,-1389 "/>
<text text-anchor="middle" x="1295.96" y="-1377" font-family="Helvetica,sans-Serif" font-size="10.00"> </text>
<polyline fill="none" stroke="#bfbfbf" points="1278.46,-1370 1313.46,-1370 "/>
<text text-anchor="middle" x="1295.96" y="-1358" font-family="Helvetica,sans-Serif" font-size="10.00"> </text>
</a>
</g>
</g>
<!-- Node11&#45;&gt;Node1 -->
<g id="edge23" class="edge">
<title>Node11&#45;&gt;Node1</title>
<path fill="none" stroke="#404040" d="M1313.55,-1366.31C1360.1,-1332.45 1482.96,-1232.11 1482.96,-1116 1482.96,-1116 1482.96,-1116 1482.96,-282.5 1482.96,-231.68 1449.14,-188.09 1411.58,-155.35"/>
<polygon fill="none" stroke="#404040" points="1411.15,-154.98 1403.98,-154.18 1401.97,-147.26 1409.13,-148.06 1411.15,-154.98"/>
<text text-anchor="middle" x="1505.46" y="-672" font-family="Helvetica,sans-Serif" font-size="10.00"> #idleTime</text>
</g>
<!-- Node11&#45;&gt;Node2 -->
<g id="edge21" class="edge">
<title>Node11&#45;&gt;Node2</title>
<path fill="none" stroke="#404040" d="M1313.54,-1359.62C1325.24,-1345.7 1339.6,-1325.65 1345.96,-1305 1375.61,-1208.68 1360.57,-497.71 1345.96,-398 1344.25,-386.32 1341.59,-374.18 1338.51,-362.36"/>
<polygon fill="none" stroke="#404040" points="1338.48,-362.26 1333.03,-357.53 1335.3,-350.69 1340.75,-355.41 1338.48,-362.26"/>
<text text-anchor="middle" x="1387.46" y="-972" font-family="Helvetica,sans-Serif" font-size="10.00"> #startTime</text>
</g>
<!-- Node11&#45;&gt;Node9 -->
<g id="edge10" class="edge">
<title>Node11&#45;&gt;Node9</title>
<path fill="none" stroke="#404040" d="M1278.22,-1360.68C1264.79,-1346.49 1246.58,-1325.66 1233.96,-1305 1220.15,-1282.39 1231.62,-1266.59 1210.96,-1250 1175.74,-1221.73 1148.62,-1256.92 1110.96,-1232 1084.93,-1214.78 1065.77,-1185.25 1053.2,-1160.3"/>
<polygon fill="none" stroke="#404040" points="1053.07,-1160.03 1046.87,-1156.35 1047.89,-1149.21 1054.09,-1152.89 1053.07,-1160.03"/>
<text text-anchor="middle" x="1289.96" y="-1297" font-family="Helvetica,sans-Serif" font-size="10.00"> +groundCheckDistance</text>
<text text-anchor="middle" x="1289.96" y="-1286" font-family="Helvetica,sans-Serif" font-size="10.00">+ledgeCheckDistacne</text>
<text text-anchor="middle" x="1289.96" y="-1275" font-family="Helvetica,sans-Serif" font-size="10.00">+playerDetectionDistance</text>
<text text-anchor="middle" x="1289.96" y="-1264" font-family="Helvetica,sans-Serif" font-size="10.00">+topCheckDistance</text>
<text text-anchor="middle" x="1289.96" y="-1253" font-family="Helvetica,sans-Serif" font-size="10.00">+wallCheckDistance</text>
</g>
<!-- Node11&#45;&gt;Node18 -->
<g id="edge19" class="edge">
<title>Node11&#45;&gt;Node18</title>
<path fill="none" stroke="#404040" d="M1278.3,-1375.85C1243.63,-1369.72 1166.26,-1351.41 1122.96,-1305 1105.31,-1286.09 1124.76,-1265.37 1103.96,-1250 1060.16,-1217.63 679.47,-1254.91 590.39,-1230.28"/>
<polygon fill="none" stroke="#404040" points="590.28,-1230.24 583.26,-1231.85 579.07,-1225.98 586.09,-1224.37 590.28,-1230.24"/>
<text text-anchor="middle" x="1164.96" y="-1275" font-family="Helvetica,sans-Serif" font-size="10.00"> #interactionRadius</text>
</g>
<!-- Node12 -->
<g id="node12" class="node">
<title>Node12</title>
<g id="a_node12"><a xlink:title=" ">
<polygon fill="none" stroke="#bfbfbf" points="1001.46,-1351 1001.46,-1408 1066.46,-1408 1066.46,-1351 1001.46,-1351"/>
<text text-anchor="middle" x="1033.96" y="-1396" font-family="Helvetica,sans-Serif" font-size="10.00">LayerMask</text>
<polyline fill="none" stroke="#bfbfbf" points="1001.46,-1389 1066.46,-1389 "/>
<text text-anchor="middle" x="1033.96" y="-1377" font-family="Helvetica,sans-Serif" font-size="10.00"> </text>
<polyline fill="none" stroke="#bfbfbf" points="1001.46,-1370 1066.46,-1370 "/>
<text text-anchor="middle" x="1033.96" y="-1358" font-family="Helvetica,sans-Serif" font-size="10.00"> </text>
</a>
</g>
</g>
<!-- Node12&#45;&gt;Node9 -->
<g id="edge11" class="edge">
<title>Node12&#45;&gt;Node9</title>
<path fill="none" stroke="#404040" d="M1034.06,-1350.9C1034.24,-1305.84 1034.58,-1216.02 1034.79,-1161.44"/>
<polygon fill="none" stroke="#404040" points="1034.79,-1161.37 1030.81,-1155.35 1034.83,-1149.37 1038.81,-1155.38 1034.79,-1161.37"/>
<text text-anchor="middle" x="1068.46" y="-1275" font-family="Helvetica,sans-Serif" font-size="10.00"> +whatIsGround</text>
</g>
<!-- Node13 -->
<g id="node13" class="node">
<title>Node13</title>
<g id="a_node13"><a xlink:title=" ">
<polygon fill="none" stroke="#bfbfbf" points="1119.46,-1086.5 1119.46,-1143.5 1182.46,-1143.5 1182.46,-1086.5 1119.46,-1086.5"/>
<text text-anchor="middle" x="1150.96" y="-1131.5" font-family="Helvetica,sans-Serif" font-size="10.00">UnityEvent</text>
<polyline fill="none" stroke="#bfbfbf" points="1119.46,-1124.5 1182.46,-1124.5 "/>
<text text-anchor="middle" x="1150.96" y="-1112.5" font-family="Helvetica,sans-Serif" font-size="10.00"> </text>
<polyline fill="none" stroke="#bfbfbf" points="1119.46,-1105.5 1182.46,-1105.5 "/>
<text text-anchor="middle" x="1150.96" y="-1093.5" font-family="Helvetica,sans-Serif" font-size="10.00"> </text>
</a>
</g>
</g>
<!-- Node13&#45;&gt;Node4 -->
<g id="edge12" class="edge">
<title>Node13&#45;&gt;Node4</title>
<path fill="none" stroke="#404040" d="M1145.6,-1086.45C1139.87,-1061.77 1129.07,-1025.35 1110.96,-998 1104.35,-988.03 1099.33,-988.54 1090.96,-980 1032.37,-920.21 971,-849.67 922.3,-791.54"/>
<polygon fill="none" stroke="#404040" points="922.29,-791.53 915.37,-789.5 914.59,-782.33 921.51,-784.36 922.29,-791.53"/>
<text text-anchor="middle" x="1124.46" y="-972" font-family="Helvetica,sans-Serif" font-size="10.00"> +OnLandEvent</text>
</g>
<!-- Node14 -->
<g id="node14" class="node">
<title>Node14</title>
<g id="a_node14"><a xlink:href="class_controllers_1_1_movement_1_1_base_movement_controller.html" target="_top" xlink:title=" ">
<polygon fill="none" stroke="black" points="30.96,-1081 30.96,-1149 166.96,-1149 166.96,-1081 30.96,-1081"/>
<text text-anchor="start" x="38.96" y="-1137" font-family="Helvetica,sans-Serif" font-size="10.00">Controllers.Movement.Base</text>
<text text-anchor="middle" x="98.96" y="-1126" font-family="Helvetica,sans-Serif" font-size="10.00">MovementController</text>
<polyline fill="none" stroke="black" points="30.96,-1119 166.96,-1119 "/>
<text text-anchor="middle" x="98.96" y="-1107" font-family="Helvetica,sans-Serif" font-size="10.00"> </text>
<polyline fill="none" stroke="black" points="30.96,-1100 166.96,-1100 "/>
<text text-anchor="middle" x="98.96" y="-1088" font-family="Helvetica,sans-Serif" font-size="10.00"> </text>
</a>
</g>
</g>
<!-- Node14&#45;&gt;Node4 -->
<g id="edge13" class="edge">
<title>Node14&#45;&gt;Node4</title>
<path fill="none" stroke="#404040" d="M91.96,-1080.73C87.26,-1048.97 85.6,-1001.31 108.96,-969 255.92,-765.75 568.97,-702.91 729.12,-683.74"/>
<polygon fill="none" stroke="#404040" points="729.39,-683.71 734.9,-679.05 741.32,-682.33 735.81,-686.99 729.39,-683.71"/>
<text text-anchor="middle" x="166.46" y="-972" font-family="Helvetica,sans-Serif" font-size="10.00"> #baseMovementController</text>
</g>
<!-- Node15 -->
<g id="node15" class="node">
<title>Node15</title>
<g id="a_node15"><a xlink:href="class_controllers_1_1_state_machine_1_1_controller_state_machine.html" target="_top" xlink:title="Controla el estado de un enemigo o NPC, desde que spawnea hasta que muere. Casi todos los metodos son...">
<polygon fill="none" stroke="black" points="1200.46,-1064.5 1200.46,-1165.5 1329.46,-1165.5 1329.46,-1064.5 1200.46,-1064.5"/>
<text text-anchor="start" x="1208.46" y="-1153.5" font-family="Helvetica,sans-Serif" font-size="10.00">Controllers.StateMachine.</text>
<text text-anchor="middle" x="1264.96" y="-1142.5" font-family="Helvetica,sans-Serif" font-size="10.00">ControllerStateMachine</text>
<polyline fill="none" stroke="black" points="1200.46,-1135.5 1329.46,-1135.5 "/>
<text text-anchor="start" x="1208.46" y="-1123.5" font-family="Helvetica,sans-Serif" font-size="10.00">+ State CurrentState</text>
<polyline fill="none" stroke="black" points="1200.46,-1116.5 1329.46,-1116.5 "/>
<text text-anchor="start" x="1208.46" y="-1104.5" font-family="Helvetica,sans-Serif" font-size="10.00">+ void Initialize(State</text>
<text text-anchor="start" x="1208.46" y="-1093.5" font-family="Helvetica,sans-Serif" font-size="10.00"> startState)</text>
<text text-anchor="start" x="1208.46" y="-1082.5" font-family="Helvetica,sans-Serif" font-size="10.00">+ void ChangeState(State</text>
<text text-anchor="start" x="1208.46" y="-1071.5" font-family="Helvetica,sans-Serif" font-size="10.00"> nextState)</text>
</a>
</g>
</g>
<!-- Node15&#45;&gt;Node2 -->
<g id="edge22" class="edge">
<title>Node15&#45;&gt;Node2</title>
<path fill="none" stroke="#404040" d="M1261.46,-1064.14C1254.21,-947.04 1241.21,-645.66 1278.96,-398 1280.73,-386.36 1283.37,-374.24 1286.39,-362.43"/>
<polygon fill="none" stroke="#404040" points="1286.41,-362.35 1284.11,-355.52 1289.53,-350.76 1291.83,-357.59 1286.41,-362.35"/>
<text text-anchor="middle" x="1312.46" y="-672" font-family="Helvetica,sans-Serif" font-size="10.00"> #stateMachine</text>
</g>
<!-- Node15&#45;&gt;Node4 -->
<g id="edge14" class="edge">
<title>Node15&#45;&gt;Node4</title>
<path fill="none" stroke="#404040" d="M1238.02,-1064.47C1225.33,-1043.06 1209.2,-1018.32 1191.96,-998 1111.14,-902.78 1002.19,-809.92 924.6,-748.49"/>
<polygon fill="none" stroke="#404040" points="924.24,-748.21 917.06,-747.64 914.82,-740.78 922.01,-741.36 924.24,-748.21"/>
<text text-anchor="middle" x="1208.96" y="-972" font-family="Helvetica,sans-Serif" font-size="10.00"> +StateMachine</text>
</g>
<!-- Node16 -->
<g id="node16" class="node">
<title>Node16</title>
<g id="a_node16"><a xlink:title=" ">
<polygon fill="none" stroke="#bfbfbf" points="189.96,-1086.5 189.96,-1143.5 273.96,-1143.5 273.96,-1086.5 189.96,-1086.5"/>
<text text-anchor="middle" x="231.96" y="-1131.5" font-family="Helvetica,sans-Serif" font-size="10.00">EControllerKind</text>
<polyline fill="none" stroke="#bfbfbf" points="189.96,-1124.5 273.96,-1124.5 "/>
<text text-anchor="middle" x="231.96" y="-1112.5" font-family="Helvetica,sans-Serif" font-size="10.00"> </text>
<polyline fill="none" stroke="#bfbfbf" points="189.96,-1105.5 273.96,-1105.5 "/>
<text text-anchor="middle" x="231.96" y="-1093.5" font-family="Helvetica,sans-Serif" font-size="10.00"> </text>
</a>
</g>
</g>
<!-- Node16&#45;&gt;Node4 -->
<g id="edge15" class="edge">
<title>Node16&#45;&gt;Node4</title>
<path fill="none" stroke="#404040" d="M224.08,-1086.25C216.97,-1055.17 210.7,-1004.52 232.96,-969 342.67,-793.9 590.81,-720.08 729.48,-691.58"/>
<polygon fill="none" stroke="#404040" points="729.56,-691.56 734.65,-686.46 741.32,-689.2 736.23,-694.3 729.56,-691.56"/>
<text text-anchor="middle" x="266.96" y="-972" font-family="Helvetica,sans-Serif" font-size="10.00"> #controllerKind</text>
</g>
<!-- Node17 -->
<g id="node17" class="node">
<title>Node17</title>
<g id="a_node17"><a xlink:title=" ">
<polygon fill="none" stroke="#bfbfbf" points="292.46,-1351 292.46,-1408 327.46,-1408 327.46,-1351 292.46,-1351"/>
<text text-anchor="middle" x="309.96" y="-1396" font-family="Helvetica,sans-Serif" font-size="10.00">bool</text>
<polyline fill="none" stroke="#bfbfbf" points="292.46,-1389 327.46,-1389 "/>
<text text-anchor="middle" x="309.96" y="-1377" font-family="Helvetica,sans-Serif" font-size="10.00"> </text>
<polyline fill="none" stroke="#bfbfbf" points="292.46,-1370 327.46,-1370 "/>
<text text-anchor="middle" x="309.96" y="-1358" font-family="Helvetica,sans-Serif" font-size="10.00"> </text>
</a>
</g>
</g>
<!-- Node17&#45;&gt;Node1 -->
<g id="edge24" class="edge">
<title>Node17&#45;&gt;Node1</title>
<path fill="none" stroke="#404040" d="M292.14,-1375.22C240.74,-1364.76 91.48,-1327.1 21.96,-1232 -8.87,-1189.83 2.96,-1168.24 2.96,-1116 2.96,-1116 2.96,-1116 2.96,-282.5 2.96,-160.71 901.54,-108.93 1209.7,-94.76"/>
<polygon fill="none" stroke="#404040" points="1209.74,-94.75 1215.55,-90.49 1221.73,-94.21 1215.92,-98.48 1209.74,-94.75"/>
<text text-anchor="middle" x="37.46" y="-677.5" font-family="Helvetica,sans-Serif" font-size="10.00"> #flipAfterIdle</text>
<text text-anchor="middle" x="37.46" y="-666.5" font-family="Helvetica,sans-Serif" font-size="10.00">#isIdleTimeOver</text>
</g>
<!-- Node17&#45;&gt;Node4 -->
<g id="edge16" class="edge">
<title>Node17&#45;&gt;Node4</title>
<path fill="none" stroke="#404040" d="M307.32,-1350.81C300.47,-1273.68 284.96,-1058.1 318.96,-998 407.97,-840.66 608.73,-748.79 729.82,-705.69"/>
<polygon fill="none" stroke="#404040" points="729.96,-705.65 734.3,-699.89 741.29,-701.67 736.95,-707.43 729.96,-705.65"/>
<text text-anchor="middle" x="370.46" y="-1112.5" font-family="Helvetica,sans-Serif" font-size="10.00"> #playerFacingDirection</text>
</g>
<!-- Node17&#45;&gt;Node18 -->
<g id="edge20" class="edge">
<title>Node17&#45;&gt;Node18</title>
<path fill="none" stroke="#404040" d="M327.61,-1354.74C349.4,-1325.4 387.97,-1273.48 423.59,-1225.54"/>
<polygon fill="none" stroke="#404040" points="423.74,-1225.33 424.11,-1218.13 430.9,-1215.7 430.53,-1222.9 423.74,-1225.33"/>
<text text-anchor="middle" x="449.46" y="-1297" font-family="Helvetica,sans-Serif" font-size="10.00"> +isEnrolledInDialogue</text>
<text text-anchor="middle" x="449.46" y="-1286" font-family="Helvetica,sans-Serif" font-size="10.00">~moveOnDamaged</text>
<text text-anchor="middle" x="449.46" y="-1275" font-family="Helvetica,sans-Serif" font-size="10.00">~praying</text>
<text text-anchor="middle" x="449.46" y="-1264" font-family="Helvetica,sans-Serif" font-size="10.00">~respawning</text>
<text text-anchor="middle" x="449.46" y="-1253" font-family="Helvetica,sans-Serif" font-size="10.00">~roll</text>
</g>
<!-- Node18&#45;&gt;Node4 -->
<g id="edge17" class="edge">
<title>Node18&#45;&gt;Node4</title>
<path fill="none" stroke="#404040" d="M579.1,-1011.48C582.43,-1006.92 585.73,-1002.41 588.96,-998 636.55,-933.03 689.88,-861 734.07,-801.52"/>
<polygon fill="none" stroke="#404040" points="734.2,-801.34 734.57,-794.14 741.36,-791.71 740.99,-798.91 734.2,-801.34"/>
<text text-anchor="middle" x="645.96" y="-972" font-family="Helvetica,sans-Serif" font-size="10.00"> #playerController</text>
</g>
</g>
</svg>
