<?xml version="1.0" encoding="UTF-8" standalone="no"?>
<!DOCTYPE svg PUBLIC "-//W3C//DTD SVG 1.1//EN"
 "http://www.w3.org/Graphics/SVG/1.1/DTD/svg11.dtd">
<!-- Generated by graphviz version 2.48.0 (20210717.1556)
 -->
<!-- Title: MainMenu Pages: 1 -->
<!--zoomable 397 -->
<svg id="main" version="1.1" xmlns="http://www.w3.org/2000/svg" xmlns:xlink="http://www.w3.org/1999/xlink" xml:space="preserve" onload="init(evt)">
<style type="text/css"><![CDATA[
.edge:hover path { stroke: red; }
.edge:hover polygon { stroke: red; fill: red; }
]]></style>
<script type="text/javascript"><![CDATA[
var edges = document.getElementsByTagName('g');
if (edges && edges.length) {
  for (var i=0;i<edges.length;i++) {
    if (edges[i].id.substr(0,4)=='edge') {
      edges[i].setAttribute('class','edge');
    }
  }
}
]]></script>
        <defs>
                <circle id="rim" cx="0" cy="0" r="7"/>
                <circle id="rim2" cx="0" cy="0" r="3.5"/>
                <g id="zoomPlus">
                        <use xlink:href="#rim" fill="#404040">
                                <set attributeName="fill" to="#808080" begin="zoomplus.mouseover" end="zoomplus.mouseout"/>
                        </use>
                        <path d="M-4,0h8M0,-4v8" fill="none" stroke="white" stroke-width="1.5" pointer-events="none"/>
                </g>
                <g id="zoomMin">
                        <use xlink:href="#rim" fill="#404040">
                                <set attributeName="fill" to="#808080" begin="zoomminus.mouseover" end="zoomminus.mouseout"/>
                        </use>
                        <path d="M-4,0h8" fill="none" stroke="white" stroke-width="1.5" pointer-events="none"/>
                </g>
                <g id="dirArrow">
                        <path fill="none" stroke="white" stroke-width="1.5" d="M0,-3.0v7 M-2.5,-0.5L0,-3.0L2.5,-0.5"/>
                </g>
               <g id="resetDef">
                       <use xlink:href="#rim2" fill="#404040">
                               <set attributeName="fill" to="#808080" begin="reset.mouseover" end="reset.mouseout"/>
                       </use>
               </g>
        </defs>

<script type="text/javascript">
var viewWidth = 812;
var viewHeight = 397;
var sectionId = 'dynsection-1';
</script>
<script xlink:href="svgpan.js"/>
<svg id="graph" class="graph">
<g id="viewport">
<title>MainMenu</title>
<!-- Node1 -->
<g id="node1" class="node">
<title>Node1</title>
<g id="a_node1"><a xlink:title="Script para el menu principal">
<polygon fill="#bfbfbf" stroke="black" points="362,-0.5 362,-156.5 523,-156.5 523,-0.5 362,-0.5"/>
<text text-anchor="middle" x="442.5" y="-144.5" font-family="Helvetica,sans-Serif" font-size="10.00">MainMenu</text>
<polyline fill="none" stroke="black" points="362,-137.5 523,-137.5 "/>
<text text-anchor="middle" x="442.5" y="-125.5" font-family="Helvetica,sans-Serif" font-size="10.00"> </text>
<polyline fill="none" stroke="black" points="362,-118.5 523,-118.5 "/>
<text text-anchor="start" x="370" y="-106.5" font-family="Helvetica,sans-Serif" font-size="10.00">+ void BtnPlayCallBack()</text>
<text text-anchor="start" x="370" y="-95.5" font-family="Helvetica,sans-Serif" font-size="10.00">+ void BtnSettingsCallBack()</text>
<text text-anchor="start" x="370" y="-84.5" font-family="Helvetica,sans-Serif" font-size="10.00">+ void BtnQuitCallback()</text>
<text text-anchor="start" x="370" y="-73.5" font-family="Helvetica,sans-Serif" font-size="10.00">+ IEnumerator OnLocaleSelected</text>
<text text-anchor="start" x="370" y="-62.5" font-family="Helvetica,sans-Serif" font-size="10.00">(int index)</text>
<text text-anchor="start" x="370" y="-51.5" font-family="Helvetica,sans-Serif" font-size="10.00">+ IEnumerator DoFade</text>
<text text-anchor="start" x="370" y="-40.5" font-family="Helvetica,sans-Serif" font-size="10.00">(CanvasGroup cg, float</text>
<text text-anchor="start" x="370" y="-29.5" font-family="Helvetica,sans-Serif" font-size="10.00"> start, float end, float</text>
<text text-anchor="start" x="370" y="-18.5" font-family="Helvetica,sans-Serif" font-size="10.00"> duration, float delay=0.0f,</text>
<text text-anchor="start" x="370" y="-7.5" font-family="Helvetica,sans-Serif" font-size="10.00"> Action callback=null)</text>
</a>
</g>
</g>
<!-- Node2 -->
<g id="node2" class="node">
<title>Node2</title>
<g id="a_node2"><a xlink:title=" ">
<polygon fill="none" stroke="#bfbfbf" points="0,-331.5 0,-388.5 83,-388.5 83,-331.5 0,-331.5"/>
<text text-anchor="middle" x="41.5" y="-376.5" font-family="Helvetica,sans-Serif" font-size="10.00">MonoBehaviour</text>
<polyline fill="none" stroke="#bfbfbf" points="0,-369.5 83,-369.5 "/>
<text text-anchor="middle" x="41.5" y="-357.5" font-family="Helvetica,sans-Serif" font-size="10.00"> </text>
<polyline fill="none" stroke="#bfbfbf" points="0,-350.5 83,-350.5 "/>
<text text-anchor="middle" x="41.5" y="-338.5" font-family="Helvetica,sans-Serif" font-size="10.00"> </text>
</a>
</g>
</g>
<!-- Node2&#45;&gt;Node1 -->
<g id="edge1" class="edge">
<title>Node2&#45;&gt;Node1</title>
<path fill="none" stroke="midnightblue" d="M70.04,-323.43C96.38,-292.17 137.78,-246.82 180.5,-215 236.76,-173.09 307.84,-137.23 361.77,-112.95"/>
<polygon fill="none" stroke="midnightblue" points="67.06,-321.53 63.35,-331.46 72.44,-326.02 67.06,-321.53"/>
</g>
<!-- Node3 -->
<g id="node3" class="node">
<title>Node3</title>
<g id="a_node3"><a xlink:href="class_screen_opts.html" target="_top" xlink:title=" ">
<polygon fill="none" stroke="black" points="189.5,-215.5 189.5,-283.5 295.5,-283.5 295.5,-215.5 189.5,-215.5"/>
<text text-anchor="middle" x="242.5" y="-271.5" font-family="Helvetica,sans-Serif" font-size="10.00">ScreenOpts</text>
<polyline fill="none" stroke="black" points="189.5,-264.5 295.5,-264.5 "/>
<text text-anchor="middle" x="242.5" y="-252.5" font-family="Helvetica,sans-Serif" font-size="10.00"> </text>
<polyline fill="none" stroke="black" points="189.5,-245.5 295.5,-245.5 "/>
<text text-anchor="start" x="197.5" y="-233.5" font-family="Helvetica,sans-Serif" font-size="10.00">~ void SetFPSStr(int</text>
<text text-anchor="start" x="197.5" y="-222.5" font-family="Helvetica,sans-Serif" font-size="10.00"> sliderFPSamount)</text>
</a>
</g>
</g>
<!-- Node2&#45;&gt;Node3 -->
<g id="edge3" class="edge">
<title>Node2&#45;&gt;Node3</title>
<path fill="none" stroke="midnightblue" d="M92.22,-331.15C92.31,-331.1 92.41,-331.05 92.5,-331 124.58,-313.59 160.62,-294.24 189.33,-278.88"/>
<polygon fill="none" stroke="midnightblue" points="90.34,-328.19 83.23,-336.05 93.69,-334.34 90.34,-328.19"/>
</g>
<!-- Node3&#45;&gt;Node1 -->
<g id="edge2" class="edge">
<title>Node3&#45;&gt;Node1</title>
<path fill="none" stroke="#404040" d="M282.01,-215.11C302.2,-198.05 327.66,-176.54 352.31,-155.71"/>
<polygon fill="none" stroke="#404040" points="352.54,-155.51 354.55,-148.58 361.71,-147.77 359.71,-154.69 352.54,-155.51"/>
<text text-anchor="middle" x="355.5" y="-183.5" font-family="Helvetica,sans-Serif" font-size="10.00"> +screenOpts</text>
</g>
<!-- Node4 -->
<g id="node4" class="node">
<title>Node4</title>
<g id="a_node4"><a xlink:title=" ">
<polygon fill="none" stroke="#bfbfbf" points="222,-331.5 222,-388.5 263,-388.5 263,-331.5 222,-331.5"/>
<text text-anchor="middle" x="242.5" y="-376.5" font-family="Helvetica,sans-Serif" font-size="10.00">string</text>
<polyline fill="none" stroke="#bfbfbf" points="222,-369.5 263,-369.5 "/>
<text text-anchor="middle" x="242.5" y="-357.5" font-family="Helvetica,sans-Serif" font-size="10.00"> </text>
<polyline fill="none" stroke="#bfbfbf" points="222,-350.5 263,-350.5 "/>
<text text-anchor="middle" x="242.5" y="-338.5" font-family="Helvetica,sans-Serif" font-size="10.00"> </text>
</a>
</g>
</g>
<!-- Node4&#45;&gt;Node3 -->
<g id="edge4" class="edge">
<title>Node4&#45;&gt;Node3</title>
<path fill="none" stroke="#404040" d="M242.5,-331.34C242.5,-320.53 242.5,-307.85 242.5,-295.77"/>
<polygon fill="none" stroke="#404040" points="242.5,-295.52 238.5,-289.52 242.5,-283.52 246.5,-289.52 242.5,-295.52"/>
<text text-anchor="middle" x="294" y="-305" font-family="Helvetica,sans-Serif" font-size="10.00"> +sliderFPSamountSTR</text>
</g>
<!-- Node5 -->
<g id="node5" class="node">
<title>Node5</title>
<g id="a_node5"><a xlink:title=" ">
<polygon fill="none" stroke="#bfbfbf" points="391,-331.5 391,-388.5 420,-388.5 420,-331.5 391,-331.5"/>
<text text-anchor="middle" x="405.5" y="-376.5" font-family="Helvetica,sans-Serif" font-size="10.00">int</text>
<polyline fill="none" stroke="#bfbfbf" points="391,-369.5 420,-369.5 "/>
<text text-anchor="middle" x="405.5" y="-357.5" font-family="Helvetica,sans-Serif" font-size="10.00"> </text>
<polyline fill="none" stroke="#bfbfbf" points="391,-350.5 420,-350.5 "/>
<text text-anchor="middle" x="405.5" y="-338.5" font-family="Helvetica,sans-Serif" font-size="10.00"> </text>
</a>
</g>
</g>
<!-- Node5&#45;&gt;Node1 -->
<g id="edge8" class="edge">
<title>Node5&#45;&gt;Node1</title>
<path fill="none" stroke="#404040" d="M417.15,-331.14C419.23,-325.24 421.16,-318.98 422.5,-313 433,-266 438.06,-212.54 440.48,-168.64"/>
<polygon fill="none" stroke="#404040" points="440.48,-168.51 436.79,-162.32 441.09,-156.53 444.78,-162.72 440.48,-168.51"/>
<text text-anchor="middle" x="479" y="-247" font-family="Helvetica,sans-Serif" font-size="10.00"> +sliderFPSamount</text>
</g>
<!-- Node5&#45;&gt;Node3 -->
<g id="edge5" class="edge">
<title>Node5&#45;&gt;Node3</title>
<path fill="none" stroke="#404040" d="M390.89,-342.35C379.61,-330.14 363.15,-313.73 346.5,-302 334.16,-293.3 320.12,-285.28 306.45,-278.28"/>
<polygon fill="none" stroke="#404040" points="306.35,-278.23 299.2,-279.15 295.6,-272.9 302.75,-271.99 306.35,-278.23"/>
<text text-anchor="middle" x="389" y="-305" font-family="Helvetica,sans-Serif" font-size="10.00"> +currentFPS</text>
</g>
<!-- Node6 -->
<g id="node6" class="node">
<title>Node6</title>
<g id="a_node6"><a xlink:title=" ">
<polygon fill="none" stroke="#bfbfbf" points="101.5,-331.5 101.5,-388.5 203.5,-388.5 203.5,-331.5 101.5,-331.5"/>
<text text-anchor="middle" x="152.5" y="-376.5" font-family="Helvetica,sans-Serif" font-size="10.00">LocalizeStringEvent</text>
<polyline fill="none" stroke="#bfbfbf" points="101.5,-369.5 203.5,-369.5 "/>
<text text-anchor="middle" x="152.5" y="-357.5" font-family="Helvetica,sans-Serif" font-size="10.00"> </text>
<polyline fill="none" stroke="#bfbfbf" points="101.5,-350.5 203.5,-350.5 "/>
<text text-anchor="middle" x="152.5" y="-338.5" font-family="Helvetica,sans-Serif" font-size="10.00"> </text>
</a>
</g>
</g>
<!-- Node6&#45;&gt;Node3 -->
<g id="edge6" class="edge">
<title>Node6&#45;&gt;Node3</title>
<path fill="none" stroke="#404040" d="M157.45,-331.24C160.16,-321.36 164.28,-310.57 170.5,-302 173.45,-297.94 176.81,-294.08 180.44,-290.44"/>
<polygon fill="none" stroke="#404040" points="180.45,-290.42 182.18,-283.42 189.31,-282.32 187.58,-289.32 180.45,-290.42"/>
<text text-anchor="middle" x="204.5" y="-305" font-family="Helvetica,sans-Serif" font-size="10.00"> +localizeString</text>
</g>
<!-- Node7 -->
<g id="node7" class="node">
<title>Node7</title>
<g id="a_node7"><a xlink:title=" ">
<polygon fill="none" stroke="#bfbfbf" points="545.5,-221 545.5,-278 595.5,-278 595.5,-221 545.5,-221"/>
<text text-anchor="middle" x="570.5" y="-266" font-family="Helvetica,sans-Serif" font-size="10.00">Vector2</text>
<polyline fill="none" stroke="#bfbfbf" points="545.5,-259 595.5,-259 "/>
<text text-anchor="middle" x="570.5" y="-247" font-family="Helvetica,sans-Serif" font-size="10.00"> </text>
<polyline fill="none" stroke="#bfbfbf" points="545.5,-240 595.5,-240 "/>
<text text-anchor="middle" x="570.5" y="-228" font-family="Helvetica,sans-Serif" font-size="10.00"> </text>
</a>
</g>
</g>
<!-- Node7&#45;&gt;Node1 -->
<g id="edge7" class="edge">
<title>Node7&#45;&gt;Node1</title>
<path fill="none" stroke="#404040" d="M545.39,-222.38C538.1,-214.42 530.28,-205.53 523.5,-197 515.85,-187.37 508.12,-177.06 500.63,-166.69"/>
<polygon fill="none" stroke="#404040" points="500.5,-166.52 493.76,-163.96 493.53,-156.76 500.27,-159.31 500.5,-166.52"/>
<text text-anchor="middle" x="594.5" y="-183.5" font-family="Helvetica,sans-Serif" font-size="10.00"> +OrderedButtonsLocalPositions</text>
</g>
<!-- Node8 -->
<g id="node8" class="node">
<title>Node8</title>
<g id="a_node8"><a xlink:title=" ">
<polygon fill="none" stroke="#bfbfbf" points="665,-221 665,-278 710,-278 710,-221 665,-221"/>
<text text-anchor="middle" x="687.5" y="-266" font-family="Helvetica,sans-Serif" font-size="10.00">Button</text>
<polyline fill="none" stroke="#bfbfbf" points="665,-259 710,-259 "/>
<text text-anchor="middle" x="687.5" y="-247" font-family="Helvetica,sans-Serif" font-size="10.00"> </text>
<polyline fill="none" stroke="#bfbfbf" points="665,-240 710,-240 "/>
<text text-anchor="middle" x="687.5" y="-228" font-family="Helvetica,sans-Serif" font-size="10.00"> </text>
</a>
</g>
</g>
<!-- Node8&#45;&gt;Node1 -->
<g id="edge9" class="edge">
<title>Node8&#45;&gt;Node1</title>
<path fill="none" stroke="#404040" d="M684.95,-220.93C682.26,-205.81 676.76,-187.62 665.5,-175 631.58,-136.98 579.92,-113.57 534.87,-99.45"/>
<polygon fill="none" stroke="#404040" points="534.76,-99.42 527.86,-101.53 523.27,-95.97 530.16,-93.86 534.76,-99.42"/>
<text text-anchor="middle" x="740.5" y="-189" font-family="Helvetica,sans-Serif" font-size="10.00"> +OrderedButtonsTransfroms</text>
<text text-anchor="middle" x="740.5" y="-178" font-family="Helvetica,sans-Serif" font-size="10.00">+selectedButton</text>
</g>
</g>
</svg>
        <g id="navigator" transform="translate(0 0)" fill="#404254">
                <rect fill="#f2f5e9" fill-opacity="0.5" stroke="#606060" stroke-width=".5" x="0" y="0" width="60" height="60"/>
                <use id="zoomplus" xlink:href="#zoomPlus" x="17" y="9" onmousedown="handleZoom(evt,'in')"/>
                <use id="zoomminus" xlink:href="#zoomMin" x="42" y="9" onmousedown="handleZoom(evt,'out')"/>
                <use id="reset" xlink:href="#resetDef" x="30" y="36" onmousedown="handleReset()"/>
                <g id="arrowUp" xlink:href="#dirArrow" transform="translate(30 24)" onmousedown="handlePan(0,-1)">
                  <use xlink:href="#rim" fill="#404040">
                        <set attributeName="fill" to="#808080" begin="arrowUp.mouseover" end="arrowUp.mouseout"/>
                  </use>
                  <path fill="none" stroke="white" stroke-width="1.5" d="M0,-3.0v7 M-2.5,-0.5L0,-3.0L2.5,-0.5"/>
                </g>
                <g id="arrowRight" xlink:href="#dirArrow" transform="rotate(90) translate(36 -43)" onmousedown="handlePan(1,0)">
                  <use xlink:href="#rim" fill="#404040">
                        <set attributeName="fill" to="#808080" begin="arrowRight.mouseover" end="arrowRight.mouseout"/>
                  </use>
                  <path fill="none" stroke="white" stroke-width="1.5" d="M0,-3.0v7 M-2.5,-0.5L0,-3.0L2.5,-0.5"/>
                </g>
                <g id="arrowDown" xlink:href="#dirArrow" transform="rotate(180) translate(-30 -48)" onmousedown="handlePan(0,1)">
                  <use xlink:href="#rim" fill="#404040">
                        <set attributeName="fill" to="#808080" begin="arrowDown.mouseover" end="arrowDown.mouseout"/>
                  </use>
                  <path fill="none" stroke="white" stroke-width="1.5" d="M0,-3.0v7 M-2.5,-0.5L0,-3.0L2.5,-0.5"/>
                </g>
                <g id="arrowLeft" xlink:href="#dirArrow" transform="rotate(270) translate(-36 17)" onmousedown="handlePan(-1,0)">
                  <use xlink:href="#rim" fill="#404040">
                        <set attributeName="fill" to="#808080" begin="arrowLeft.mouseover" end="arrowLeft.mouseout"/>
                  </use>
                  <path fill="none" stroke="white" stroke-width="1.5" d="M0,-3.0v7 M-2.5,-0.5L0,-3.0L2.5,-0.5"/>
                </g>
        </g>
        <svg viewBox="0 0 15 15" width="100%" height="30px" preserveAspectRatio="xMaxYMin meet">
         <g id="arrow_out" transform="scale(0.3 0.3)">
          <a xlink:href="class_main_menu__coll__graph_org.svg" target="_base">
           <rect id="button" ry="5" rx="5" y="6" x="6" height="38" width="38"
                fill="#f2f5e9" fill-opacity="0.5" stroke="#606060" stroke-width="1.0"/>
           <path id="arrow"
             d="M 11.500037,31.436501 C 11.940474,20.09759 22.043105,11.32322 32.158766,21.979434 L 37.068811,17.246167 C 37.068811,17.246167 37.088388,32 37.088388,32 L 22.160133,31.978069 C 22.160133,31.978069 26.997745,27.140456 26.997745,27.140456 C 18.528582,18.264221 13.291696,25.230495 11.500037,31.436501 z"
             style="fill:#404040;"/>
          </a>
         </g>
        </svg>
</svg>
