<?xml version="1.0" encoding="UTF-8" standalone="no"?>
<!DOCTYPE svg PUBLIC "-//W3C//DTD SVG 1.1//EN"
 "http://www.w3.org/Graphics/SVG/1.1/DTD/svg11.dtd">
<!-- Generated by graphviz version 2.48.0 (20210717.1556)
 -->
<!-- Title: Controllers.DummyController Pages: 1 -->
<svg width="250pt" height="485pt"
 viewBox="0.00 0.00 249.50 485.00" xmlns="http://www.w3.org/2000/svg" xmlns:xlink="http://www.w3.org/1999/xlink">
<g id="graph0" class="graph" transform="scale(1 1) rotate(0) translate(4 481)">
<title>Controllers.DummyController</title>
<!-- Node1 -->
<g id="node1" class="node">
<title>Node1</title>
<g id="a_node1"><a xlink:title=" ">
<polygon fill="#bfbfbf" stroke="black" points="36,-0.5 36,-57.5 177,-57.5 177,-0.5 36,-0.5"/>
<text text-anchor="middle" x="106.5" y="-45.5" font-family="Helvetica,sans-Serif" font-size="10.00">Controllers.DummyController</text>
<polyline fill="none" stroke="black" points="36,-38.5 177,-38.5 "/>
<text text-anchor="middle" x="106.5" y="-26.5" font-family="Helvetica,sans-Serif" font-size="10.00"> </text>
<polyline fill="none" stroke="black" points="36,-19.5 177,-19.5 "/>
<text text-anchor="start" x="44" y="-7.5" font-family="Helvetica,sans-Serif" font-size="10.00"># override void OnStart()</text>
</a>
</g>
</g>
<!-- Node2 -->
<g id="node2" class="node">
<title>Node2</title>
<g id="a_node2"><a xlink:href="class_controllers_1_1_base_controller.html" target="_top" xlink:title=" ">
<polygon fill="none" stroke="black" points="24.5,-94.5 24.5,-371.5 188.5,-371.5 188.5,-94.5 24.5,-94.5"/>
<text text-anchor="middle" x="106.5" y="-359.5" font-family="Helvetica,sans-Serif" font-size="10.00">BaseController</text>
<polyline fill="none" stroke="black" points="24.5,-352.5 188.5,-352.5 "/>
<text text-anchor="start" x="32.5" y="-340.5" font-family="Helvetica,sans-Serif" font-size="10.00"># EControllerKind controllerKind</text>
<text text-anchor="start" x="32.5" y="-329.5" font-family="Helvetica,sans-Serif" font-size="10.00"># float maxHealth</text>
<text text-anchor="start" x="32.5" y="-318.5" font-family="Helvetica,sans-Serif" font-size="10.00"># bool isInvencible</text>
<text text-anchor="start" x="32.5" y="-307.5" font-family="Helvetica,sans-Serif" font-size="10.00"># Vector2 moveOnAttackSpeed</text>
<text text-anchor="start" x="32.5" y="-296.5" font-family="Helvetica,sans-Serif" font-size="10.00"># GameObject hitParticles</text>
<text text-anchor="start" x="32.5" y="-285.5" font-family="Helvetica,sans-Serif" font-size="10.00"># AudioSource hitAttackSFX1</text>
<text text-anchor="start" x="32.5" y="-274.5" font-family="Helvetica,sans-Serif" font-size="10.00"># AudioSource hitAttackSFX2</text>
<text text-anchor="start" x="32.5" y="-263.5" font-family="Helvetica,sans-Serif" font-size="10.00"># BaseMovementController</text>
<text text-anchor="start" x="32.5" y="-252.5" font-family="Helvetica,sans-Serif" font-size="10.00"> baseMovementController</text>
<text text-anchor="start" x="32.5" y="-241.5" font-family="Helvetica,sans-Serif" font-size="10.00"># Animator characterAnimator</text>
<text text-anchor="start" x="32.5" y="-230.5" font-family="Helvetica,sans-Serif" font-size="10.00"># Rigidbody2D RigidBdy</text>
<text text-anchor="start" x="32.5" y="-219.5" font-family="Helvetica,sans-Serif" font-size="10.00"># ECharacterKind characterKind</text>
<text text-anchor="start" x="32.5" y="-208.5" font-family="Helvetica,sans-Serif" font-size="10.00"># PlayerController playerController</text>
<text text-anchor="start" x="32.5" y="-197.5" font-family="Helvetica,sans-Serif" font-size="10.00"># bool playerFacingDirection</text>
<text text-anchor="start" x="32.5" y="-186.5" font-family="Helvetica,sans-Serif" font-size="10.00"># bool playerOnLeft</text>
<polyline fill="none" stroke="black" points="24.5,-179.5 188.5,-179.5 "/>
<text text-anchor="start" x="32.5" y="-167.5" font-family="Helvetica,sans-Serif" font-size="10.00">+ T GetMovementController</text>
<text text-anchor="start" x="32.5" y="-156.5" font-family="Helvetica,sans-Serif" font-size="10.00">&lt; T &gt;()</text>
<text text-anchor="start" x="32.5" y="-145.5" font-family="Helvetica,sans-Serif" font-size="10.00">+ virtual void Damage</text>
<text text-anchor="start" x="32.5" y="-134.5" font-family="Helvetica,sans-Serif" font-size="10.00">(float amount, int attackN)</text>
<text text-anchor="start" x="32.5" y="-123.5" font-family="Helvetica,sans-Serif" font-size="10.00"># virtual void OnStart()</text>
<text text-anchor="start" x="32.5" y="-112.5" font-family="Helvetica,sans-Serif" font-size="10.00"># virtual void OnUpdate()</text>
<text text-anchor="start" x="32.5" y="-101.5" font-family="Helvetica,sans-Serif" font-size="10.00"># virtual void OnFixedUpdate()</text>
</a>
</g>
</g>
<!-- Node2&#45;&gt;Node1 -->
<g id="edge1" class="edge">
<title>Node2&#45;&gt;Node1</title>
<path fill="none" stroke="midnightblue" d="M106.5,-84.41C106.5,-74.59 106.5,-65.52 106.5,-57.71"/>
<polygon fill="none" stroke="midnightblue" points="103,-84.47 106.5,-94.47 110,-84.47 103,-84.47"/>
</g>
<!-- Node3 -->
<g id="node3" class="node">
<title>Node3</title>
<g id="a_node3"><a xlink:href="class_mono_behaviour.html" target="_top" xlink:title=" ">
<polygon fill="none" stroke="black" points="0,-414 0,-471 83,-471 83,-414 0,-414"/>
<text text-anchor="middle" x="41.5" y="-459" font-family="Helvetica,sans-Serif" font-size="10.00">MonoBehaviour</text>
<polyline fill="none" stroke="black" points="0,-452 83,-452 "/>
<text text-anchor="middle" x="41.5" y="-440" font-family="Helvetica,sans-Serif" font-size="10.00"> </text>
<polyline fill="none" stroke="black" points="0,-433 83,-433 "/>
<text text-anchor="middle" x="41.5" y="-421" font-family="Helvetica,sans-Serif" font-size="10.00"> </text>
</a>
</g>
</g>
<!-- Node3&#45;&gt;Node2 -->
<g id="edge2" class="edge">
<title>Node3&#45;&gt;Node2</title>
<path fill="none" stroke="midnightblue" d="M53.16,-404.27C56.23,-394.48 59.72,-383.32 63.42,-371.51"/>
<polygon fill="none" stroke="midnightblue" points="49.78,-403.36 50.13,-413.95 56.46,-405.45 49.78,-403.36"/>
</g>
<!-- Node4 -->
<g id="node4" class="node">
<title>Node4</title>
<g id="a_node4"><a xlink:href="interface_controllers_1_1_i_damageable.html" target="_top" xlink:title=" ">
<polygon fill="none" stroke="black" points="101.5,-408.5 101.5,-476.5 241.5,-476.5 241.5,-408.5 101.5,-408.5"/>
<text text-anchor="middle" x="171.5" y="-464.5" font-family="Helvetica,sans-Serif" font-size="10.00">IDamageable</text>
<polyline fill="none" stroke="black" points="101.5,-457.5 241.5,-457.5 "/>
<text text-anchor="middle" x="171.5" y="-445.5" font-family="Helvetica,sans-Serif" font-size="10.00"> </text>
<polyline fill="none" stroke="black" points="101.5,-438.5 241.5,-438.5 "/>
<text text-anchor="start" x="109.5" y="-426.5" font-family="Helvetica,sans-Serif" font-size="10.00">+ void Damage(float amount,</text>
<text text-anchor="start" x="109.5" y="-415.5" font-family="Helvetica,sans-Serif" font-size="10.00"> int attackN)</text>
</a>
</g>
</g>
<!-- Node4&#45;&gt;Node2 -->
<g id="edge3" class="edge">
<title>Node4&#45;&gt;Node2</title>
<path fill="none" stroke="midnightblue" d="M158.02,-398.48C155.43,-390.19 152.58,-381.11 149.61,-371.6"/>
<polygon fill="none" stroke="midnightblue" points="154.73,-399.67 161.06,-408.16 161.41,-397.57 154.73,-399.67"/>
</g>
</g>
</svg>
