<?xml version="1.0" encoding="UTF-8" standalone="no"?>
<!DOCTYPE svg PUBLIC "-//W3C//DTD SVG 1.1//EN"
 "http://www.w3.org/Graphics/SVG/1.1/DTD/svg11.dtd">
<!-- Generated by graphviz version 2.48.0 (20210717.1556)
 -->
<!-- Title: Controllers.DummyController Pages: 1 -->
<svg width="1338pt" height="912pt"
 viewBox="0.00 0.00 1338.00 912.00" xmlns="http://www.w3.org/2000/svg" xmlns:xlink="http://www.w3.org/1999/xlink">
<g id="graph0" class="graph" transform="scale(1 1) rotate(0) translate(4 908)">
<title>Controllers.DummyController</title>
<!-- Node1 -->
<g id="node1" class="node">
<title>Node1</title>
<g id="a_node1"><a xlink:title=" ">
<polygon fill="#bfbfbf" stroke="black" points="579.5,-0.5 579.5,-57.5 720.5,-57.5 720.5,-0.5 579.5,-0.5"/>
<text text-anchor="middle" x="650" y="-45.5" font-family="Helvetica,sans-Serif" font-size="10.00">Controllers.DummyController</text>
<polyline fill="none" stroke="black" points="579.5,-38.5 720.5,-38.5 "/>
<text text-anchor="middle" x="650" y="-26.5" font-family="Helvetica,sans-Serif" font-size="10.00"> </text>
<polyline fill="none" stroke="black" points="579.5,-19.5 720.5,-19.5 "/>
<text text-anchor="start" x="587.5" y="-7.5" font-family="Helvetica,sans-Serif" font-size="10.00"># override void OnStart()</text>
</a>
</g>
</g>
<!-- Node2 -->
<g id="node2" class="node">
<title>Node2</title>
<g id="a_node2"><a xlink:href="class_controllers_1_1_base_controller.html" target="_top" xlink:title=" ">
<polygon fill="none" stroke="black" points="577,-95.5 577,-218.5 723,-218.5 723,-95.5 577,-95.5"/>
<text text-anchor="middle" x="650" y="-206.5" font-family="Helvetica,sans-Serif" font-size="10.00">BaseController</text>
<polyline fill="none" stroke="black" points="577,-199.5 723,-199.5 "/>
<text text-anchor="middle" x="650" y="-187.5" font-family="Helvetica,sans-Serif" font-size="10.00"> </text>
<polyline fill="none" stroke="black" points="577,-180.5 723,-180.5 "/>
<text text-anchor="start" x="585" y="-168.5" font-family="Helvetica,sans-Serif" font-size="10.00">+ T GetMovementController</text>
<text text-anchor="start" x="585" y="-157.5" font-family="Helvetica,sans-Serif" font-size="10.00">&lt; T &gt;()</text>
<text text-anchor="start" x="585" y="-146.5" font-family="Helvetica,sans-Serif" font-size="10.00">+ virtual void Damage</text>
<text text-anchor="start" x="585" y="-135.5" font-family="Helvetica,sans-Serif" font-size="10.00">(float amount, int attackN)</text>
<text text-anchor="start" x="585" y="-124.5" font-family="Helvetica,sans-Serif" font-size="10.00"># virtual void OnStart()</text>
<text text-anchor="start" x="585" y="-113.5" font-family="Helvetica,sans-Serif" font-size="10.00"># virtual void OnUpdate()</text>
<text text-anchor="start" x="585" y="-102.5" font-family="Helvetica,sans-Serif" font-size="10.00"># virtual void OnFixedUpdate()</text>
</a>
</g>
</g>
<!-- Node2&#45;&gt;Node1 -->
<g id="edge1" class="edge">
<title>Node2&#45;&gt;Node1</title>
<path fill="none" stroke="midnightblue" d="M650,-85.01C650,-75.26 650,-65.78 650,-57.51"/>
<polygon fill="none" stroke="midnightblue" points="646.5,-85.21 650,-95.21 653.5,-85.21 646.5,-85.21"/>
</g>
<!-- Node3 -->
<g id="node3" class="node">
<title>Node3</title>
<g id="a_node3"><a xlink:href="interface_controllers_1_1_i_damageable.html" target="_top" xlink:title="Interfaz para todos los NPCs/Enemigos/Objetos que pueden ser daniados.">
<polygon fill="none" stroke="black" points="0,-316 0,-384 140,-384 140,-316 0,-316"/>
<text text-anchor="middle" x="70" y="-372" font-family="Helvetica,sans-Serif" font-size="10.00">IDamageable</text>
<polyline fill="none" stroke="black" points="0,-365 140,-365 "/>
<text text-anchor="middle" x="70" y="-353" font-family="Helvetica,sans-Serif" font-size="10.00"> </text>
<polyline fill="none" stroke="black" points="0,-346 140,-346 "/>
<text text-anchor="start" x="8" y="-334" font-family="Helvetica,sans-Serif" font-size="10.00">+ void Damage(float amount,</text>
<text text-anchor="start" x="8" y="-323" font-family="Helvetica,sans-Serif" font-size="10.00"> int attackN)</text>
</a>
</g>
</g>
<!-- Node3&#45;&gt;Node2 -->
<g id="edge2" class="edge">
<title>Node3&#45;&gt;Node2</title>
<path fill="none" stroke="midnightblue" d="M110.23,-308.71C122.19,-297.76 135.67,-286.35 149,-277 180.25,-255.08 188.94,-249.52 225,-237 344.46,-195.53 490.79,-174.43 576.86,-164.84"/>
<polygon fill="none" stroke="midnightblue" points="107.54,-306.43 102.61,-315.81 112.32,-311.55 107.54,-306.43"/>
</g>
<!-- Node4 -->
<g id="node4" class="node">
<title>Node4</title>
<g id="a_node4"><a xlink:title=" ">
<polygon fill="none" stroke="#bfbfbf" points="158.5,-321.5 158.5,-378.5 243.5,-378.5 243.5,-321.5 158.5,-321.5"/>
<text text-anchor="middle" x="201" y="-366.5" font-family="Helvetica,sans-Serif" font-size="10.00">ECharacterKind</text>
<polyline fill="none" stroke="#bfbfbf" points="158.5,-359.5 243.5,-359.5 "/>
<text text-anchor="middle" x="201" y="-347.5" font-family="Helvetica,sans-Serif" font-size="10.00"> </text>
<polyline fill="none" stroke="#bfbfbf" points="158.5,-340.5 243.5,-340.5 "/>
<text text-anchor="middle" x="201" y="-328.5" font-family="Helvetica,sans-Serif" font-size="10.00"> </text>
</a>
</g>
</g>
<!-- Node4&#45;&gt;Node2 -->
<g id="edge3" class="edge">
<title>Node4&#45;&gt;Node2</title>
<path fill="none" stroke="#404040" d="M205.4,-321.08C210.98,-295.28 223.18,-257.89 249,-237 296.51,-198.56 461.63,-176.09 564.58,-165.49"/>
<polygon fill="none" stroke="#404040" points="564.87,-165.46 570.44,-160.88 576.81,-164.26 571.25,-168.84 564.87,-165.46"/>
<text text-anchor="middle" x="283.5" y="-245.5" font-family="Helvetica,sans-Serif" font-size="10.00"> #characterKind</text>
</g>
<!-- Node5 -->
<g id="node5" class="node">
<title>Node5</title>
<g id="a_node5"><a xlink:title=" ">
<polygon fill="none" stroke="#bfbfbf" points="261.5,-321.5 261.5,-378.5 332.5,-378.5 332.5,-321.5 261.5,-321.5"/>
<text text-anchor="middle" x="297" y="-366.5" font-family="Helvetica,sans-Serif" font-size="10.00">Rigidbody2D</text>
<polyline fill="none" stroke="#bfbfbf" points="261.5,-359.5 332.5,-359.5 "/>
<text text-anchor="middle" x="297" y="-347.5" font-family="Helvetica,sans-Serif" font-size="10.00"> </text>
<polyline fill="none" stroke="#bfbfbf" points="261.5,-340.5 332.5,-340.5 "/>
<text text-anchor="middle" x="297" y="-328.5" font-family="Helvetica,sans-Serif" font-size="10.00"> </text>
</a>
</g>
</g>
<!-- Node5&#45;&gt;Node2 -->
<g id="edge4" class="edge">
<title>Node5&#45;&gt;Node2</title>
<path fill="none" stroke="#404040" d="M300.09,-321.46C304.42,-295.95 314.71,-258.75 339,-237 372.06,-207.39 484.42,-184.04 564.58,-170.62"/>
<polygon fill="none" stroke="#404040" points="564.81,-170.59 570.09,-165.66 576.66,-168.64 571.38,-173.56 564.81,-170.59"/>
<text text-anchor="middle" x="363" y="-245.5" font-family="Helvetica,sans-Serif" font-size="10.00"> #RigidBdy</text>
</g>
<!-- Node6 -->
<g id="node6" class="node">
<title>Node6</title>
<g id="a_node6"><a xlink:title=" ">
<polygon fill="none" stroke="#bfbfbf" points="351,-321.5 351,-378.5 407,-378.5 407,-321.5 351,-321.5"/>
<text text-anchor="middle" x="379" y="-366.5" font-family="Helvetica,sans-Serif" font-size="10.00">Animator</text>
<polyline fill="none" stroke="#bfbfbf" points="351,-359.5 407,-359.5 "/>
<text text-anchor="middle" x="379" y="-347.5" font-family="Helvetica,sans-Serif" font-size="10.00"> </text>
<polyline fill="none" stroke="#bfbfbf" points="351,-340.5 407,-340.5 "/>
<text text-anchor="middle" x="379" y="-328.5" font-family="Helvetica,sans-Serif" font-size="10.00"> </text>
</a>
</g>
</g>
<!-- Node6&#45;&gt;Node2 -->
<g id="edge5" class="edge">
<title>Node6&#45;&gt;Node2</title>
<path fill="none" stroke="#404040" d="M378.17,-321.09C378.94,-296.03 384.06,-259.78 405,-237 445.76,-192.67 511.5,-173.12 564.62,-164.54"/>
<polygon fill="none" stroke="#404040" points="564.91,-164.5 570.26,-159.66 576.78,-162.73 571.44,-167.57 564.91,-164.5"/>
<text text-anchor="middle" x="449" y="-245.5" font-family="Helvetica,sans-Serif" font-size="10.00"> #characterAnimator</text>
</g>
<!-- Node7 -->
<g id="node7" class="node">
<title>Node7</title>
<g id="a_node7"><a xlink:title=" ">
<polygon fill="none" stroke="#bfbfbf" points="425.5,-321.5 425.5,-378.5 496.5,-378.5 496.5,-321.5 425.5,-321.5"/>
<text text-anchor="middle" x="461" y="-366.5" font-family="Helvetica,sans-Serif" font-size="10.00">GameObject</text>
<polyline fill="none" stroke="#bfbfbf" points="425.5,-359.5 496.5,-359.5 "/>
<text text-anchor="middle" x="461" y="-347.5" font-family="Helvetica,sans-Serif" font-size="10.00"> </text>
<polyline fill="none" stroke="#bfbfbf" points="425.5,-340.5 496.5,-340.5 "/>
<text text-anchor="middle" x="461" y="-328.5" font-family="Helvetica,sans-Serif" font-size="10.00"> </text>
</a>
</g>
</g>
<!-- Node7&#45;&gt;Node2 -->
<g id="edge6" class="edge">
<title>Node7&#45;&gt;Node2</title>
<path fill="none" stroke="#404040" d="M468.86,-321.44C476.96,-296.97 491.58,-261.39 514,-237 528.73,-220.97 547.48,-207.26 566.32,-195.98"/>
<polygon fill="none" stroke="#404040" points="566.36,-195.96 569.57,-189.5 576.76,-189.97 573.56,-196.43 566.36,-195.96"/>
<text text-anchor="middle" x="543" y="-245.5" font-family="Helvetica,sans-Serif" font-size="10.00"> #hitParticles</text>
</g>
<!-- Node8 -->
<g id="node8" class="node">
<title>Node8</title>
<g id="a_node8"><a xlink:href="class_controllers_1_1_movement_1_1_base_movement_controller.html" target="_top" xlink:title=" ">
<polygon fill="none" stroke="black" points="515,-316 515,-384 651,-384 651,-316 515,-316"/>
<text text-anchor="start" x="523" y="-372" font-family="Helvetica,sans-Serif" font-size="10.00">Controllers.Movement.Base</text>
<text text-anchor="middle" x="583" y="-361" font-family="Helvetica,sans-Serif" font-size="10.00">MovementController</text>
<polyline fill="none" stroke="black" points="515,-354 651,-354 "/>
<text text-anchor="middle" x="583" y="-342" font-family="Helvetica,sans-Serif" font-size="10.00"> </text>
<polyline fill="none" stroke="black" points="515,-335 651,-335 "/>
<text text-anchor="middle" x="583" y="-323" font-family="Helvetica,sans-Serif" font-size="10.00"> </text>
</a>
</g>
</g>
<!-- Node8&#45;&gt;Node2 -->
<g id="edge7" class="edge">
<title>Node8&#45;&gt;Node2</title>
<path fill="none" stroke="#404040" d="M576.61,-315.58C573.68,-292.74 572.66,-262.16 582,-237 582.95,-234.45 584.02,-231.93 585.19,-229.44"/>
<polygon fill="none" stroke="#404040" points="585.26,-229.3 584.59,-222.12 590.97,-218.74 591.63,-225.92 585.26,-229.3"/>
<text text-anchor="middle" x="639.5" y="-245.5" font-family="Helvetica,sans-Serif" font-size="10.00"> #baseMovementController</text>
</g>
<!-- Node9 -->
<g id="node9" class="node">
<title>Node9</title>
<g id="a_node9"><a xlink:title=" ">
<polygon fill="none" stroke="#bfbfbf" points="879.5,-746 879.5,-803 914.5,-803 914.5,-746 879.5,-746"/>
<text text-anchor="middle" x="897" y="-791" font-family="Helvetica,sans-Serif" font-size="10.00">float</text>
<polyline fill="none" stroke="#bfbfbf" points="879.5,-784 914.5,-784 "/>
<text text-anchor="middle" x="897" y="-772" font-family="Helvetica,sans-Serif" font-size="10.00"> </text>
<polyline fill="none" stroke="#bfbfbf" points="879.5,-765 914.5,-765 "/>
<text text-anchor="middle" x="897" y="-753" font-family="Helvetica,sans-Serif" font-size="10.00"> </text>
</a>
</g>
</g>
<!-- Node9&#45;&gt;Node2 -->
<g id="edge8" class="edge">
<title>Node9&#45;&gt;Node2</title>
<path fill="none" stroke="#404040" d="M914.55,-771.35C940.61,-767.11 988.77,-755 1010,-722 1018.86,-708.23 1083.57,-342.28 997,-237 964.28,-197.21 826.94,-175.74 735.17,-165.6"/>
<polygon fill="none" stroke="#404040" points="735.03,-165.59 728.64,-168.92 723.1,-164.3 729.49,-160.97 735.03,-165.59"/>
<text text-anchor="middle" x="1068.5" y="-455" font-family="Helvetica,sans-Serif" font-size="10.00"> #maxHealth</text>
</g>
<!-- Node14 -->
<g id="node14" class="node">
<title>Node14</title>
<g id="a_node14"><a xlink:href="class_player_1_1_player_controller.html" target="_top" xlink:title=" ">
<polygon fill="none" stroke="black" points="669.5,-277.5 669.5,-422.5 810.5,-422.5 810.5,-277.5 669.5,-277.5"/>
<text text-anchor="middle" x="740" y="-410.5" font-family="Helvetica,sans-Serif" font-size="10.00">Player.PlayerController</text>
<polyline fill="none" stroke="black" points="669.5,-403.5 810.5,-403.5 "/>
<text text-anchor="middle" x="740" y="-391.5" font-family="Helvetica,sans-Serif" font-size="10.00"> </text>
<polyline fill="none" stroke="black" points="669.5,-384.5 810.5,-384.5 "/>
<text text-anchor="start" x="677.5" y="-372.5" font-family="Helvetica,sans-Serif" font-size="10.00">+ void LandEvt()</text>
<text text-anchor="start" x="677.5" y="-361.5" font-family="Helvetica,sans-Serif" font-size="10.00">+ void OnAirEvt()</text>
<text text-anchor="start" x="677.5" y="-350.5" font-family="Helvetica,sans-Serif" font-size="10.00">+ bool IsFacingRight()</text>
<text text-anchor="start" x="677.5" y="-339.5" font-family="Helvetica,sans-Serif" font-size="10.00">+ void AnimStartPrayingEvt()</text>
<text text-anchor="start" x="677.5" y="-328.5" font-family="Helvetica,sans-Serif" font-size="10.00">+ void AnimRollEndEvt()</text>
<text text-anchor="start" x="677.5" y="-317.5" font-family="Helvetica,sans-Serif" font-size="10.00">+ void AnimFootStep1Evt()</text>
<text text-anchor="start" x="677.5" y="-306.5" font-family="Helvetica,sans-Serif" font-size="10.00">+ void AnimFootStep2Evt()</text>
<text text-anchor="start" x="677.5" y="-295.5" font-family="Helvetica,sans-Serif" font-size="10.00">~ void OnEnable()</text>
<text text-anchor="start" x="677.5" y="-284.5" font-family="Helvetica,sans-Serif" font-size="10.00">~ void OnDisable()</text>
</a>
</g>
</g>
<!-- Node9&#45;&gt;Node14 -->
<g id="edge23" class="edge">
<title>Node9&#45;&gt;Node14</title>
<path fill="none" stroke="#404040" d="M896.61,-745.8C894.69,-686.29 884.08,-543.38 828,-441 825.03,-435.57 821.63,-430.24 817.95,-425.05"/>
<polygon fill="none" stroke="#404040" points="817.78,-424.83 810.97,-422.46 810.54,-415.26 817.35,-417.63 817.78,-424.83"/>
<text text-anchor="middle" x="938" y="-573.5" font-family="Helvetica,sans-Serif" font-size="10.00"> +NextAttackMaxTime</text>
</g>
<!-- Node16 -->
<g id="node16" class="node">
<title>Node16</title>
<g id="a_node16"><a xlink:href="class_player_1_1_player_movement_controller.html" target="_top" xlink:title=" ">
<polygon fill="none" stroke="black" points="636.5,-492.5 636.5,-659.5 797.5,-659.5 797.5,-492.5 636.5,-492.5"/>
<text text-anchor="middle" x="717" y="-647.5" font-family="Helvetica,sans-Serif" font-size="10.00">Player.PlayerMovementController</text>
<polyline fill="none" stroke="black" points="636.5,-640.5 797.5,-640.5 "/>
<text text-anchor="middle" x="717" y="-628.5" font-family="Helvetica,sans-Serif" font-size="10.00"> </text>
<polyline fill="none" stroke="black" points="636.5,-621.5 797.5,-621.5 "/>
<text text-anchor="start" x="644.5" y="-609.5" font-family="Helvetica,sans-Serif" font-size="10.00">+ void Move(float moveH,</text>
<text text-anchor="start" x="644.5" y="-598.5" font-family="Helvetica,sans-Serif" font-size="10.00"> float moveV, bool crouch,</text>
<text text-anchor="start" x="644.5" y="-587.5" font-family="Helvetica,sans-Serif" font-size="10.00"> bool jump, bool roll, bool</text>
<text text-anchor="start" x="644.5" y="-576.5" font-family="Helvetica,sans-Serif" font-size="10.00"> attacking)</text>
<text text-anchor="start" x="644.5" y="-565.5" font-family="Helvetica,sans-Serif" font-size="10.00">+ bool IsFacingRight()</text>
<text text-anchor="start" x="644.5" y="-554.5" font-family="Helvetica,sans-Serif" font-size="10.00">+ void EnableFlip()</text>
<text text-anchor="start" x="644.5" y="-543.5" font-family="Helvetica,sans-Serif" font-size="10.00">+ void DisableFlip()</text>
<text text-anchor="start" x="644.5" y="-532.5" font-family="Helvetica,sans-Serif" font-size="10.00">~ void AttackMovement</text>
<text text-anchor="start" x="644.5" y="-521.5" font-family="Helvetica,sans-Serif" font-size="10.00">(int power)</text>
<text text-anchor="start" x="644.5" y="-510.5" font-family="Helvetica,sans-Serif" font-size="10.00">~ void PrepareRespawn</text>
<text text-anchor="start" x="644.5" y="-499.5" font-family="Helvetica,sans-Serif" font-size="10.00">(Transform SpawnPoint)</text>
</a>
</g>
</g>
<!-- Node9&#45;&gt;Node16 -->
<g id="edge20" class="edge">
<title>Node9&#45;&gt;Node16</title>
<path fill="none" stroke="#404040" d="M879.45,-769.37C855.55,-762.95 812.72,-748.46 786,-722 783.54,-719.56 772.6,-697.2 760.14,-670.73"/>
<polygon fill="none" stroke="#404040" points="760.01,-670.46 753.84,-666.72 754.92,-659.59 761.09,-663.33 760.01,-670.46"/>
<text text-anchor="middle" x="834.5" y="-714" font-family="Helvetica,sans-Serif" font-size="10.00"> +LedgeClimbXOffset1</text>
<text text-anchor="middle" x="834.5" y="-703" font-family="Helvetica,sans-Serif" font-size="10.00">+LedgeClimbXOffset2</text>
<text text-anchor="middle" x="834.5" y="-692" font-family="Helvetica,sans-Serif" font-size="10.00">+LedgeClimbYOffset1</text>
<text text-anchor="middle" x="834.5" y="-681" font-family="Helvetica,sans-Serif" font-size="10.00">+LedgeClimbYOffset2</text>
</g>
<!-- Node10 -->
<g id="node10" class="node">
<title>Node10</title>
<g id="a_node10"><a xlink:title=" ">
<polygon fill="none" stroke="#bfbfbf" points="829,-321.5 829,-378.5 879,-378.5 879,-321.5 829,-321.5"/>
<text text-anchor="middle" x="854" y="-366.5" font-family="Helvetica,sans-Serif" font-size="10.00">Vector2</text>
<polyline fill="none" stroke="#bfbfbf" points="829,-359.5 879,-359.5 "/>
<text text-anchor="middle" x="854" y="-347.5" font-family="Helvetica,sans-Serif" font-size="10.00"> </text>
<polyline fill="none" stroke="#bfbfbf" points="829,-340.5 879,-340.5 "/>
<text text-anchor="middle" x="854" y="-328.5" font-family="Helvetica,sans-Serif" font-size="10.00"> </text>
</a>
</g>
</g>
<!-- Node10&#45;&gt;Node2 -->
<g id="edge9" class="edge">
<title>Node10&#45;&gt;Node2</title>
<path fill="none" stroke="#404040" d="M843.02,-321.43C837.02,-307.63 828.99,-290.94 820,-277 807.35,-257.39 803.9,-251.96 786,-237 770.15,-223.75 751.79,-211.43 733.79,-200.65"/>
<polygon fill="none" stroke="#404040" points="733.61,-200.55 726.41,-200.97 723.26,-194.49 730.45,-194.07 733.61,-200.55"/>
<text text-anchor="middle" x="857" y="-245.5" font-family="Helvetica,sans-Serif" font-size="10.00"> #moveOnAttackSpeed</text>
</g>
<!-- Node11 -->
<g id="node11" class="node">
<title>Node11</title>
<g id="a_node11"><a xlink:title=" ">
<polygon fill="none" stroke="#bfbfbf" points="899,-321.5 899,-378.5 983,-378.5 983,-321.5 899,-321.5"/>
<text text-anchor="middle" x="941" y="-366.5" font-family="Helvetica,sans-Serif" font-size="10.00">EControllerKind</text>
<polyline fill="none" stroke="#bfbfbf" points="899,-359.5 983,-359.5 "/>
<text text-anchor="middle" x="941" y="-347.5" font-family="Helvetica,sans-Serif" font-size="10.00"> </text>
<polyline fill="none" stroke="#bfbfbf" points="899,-340.5 983,-340.5 "/>
<text text-anchor="middle" x="941" y="-328.5" font-family="Helvetica,sans-Serif" font-size="10.00"> </text>
</a>
</g>
</g>
<!-- Node11&#45;&gt;Node2 -->
<g id="edge10" class="edge">
<title>Node11&#45;&gt;Node2</title>
<path fill="none" stroke="#404040" d="M940.84,-321.41C939.21,-296.21 932.84,-259.56 911,-237 865.27,-189.77 792.34,-170.53 735.19,-162.82"/>
<polygon fill="none" stroke="#404040" points="735.16,-162.81 728.71,-166.05 723.25,-161.34 729.7,-158.11 735.16,-162.81"/>
<text text-anchor="middle" x="959" y="-245.5" font-family="Helvetica,sans-Serif" font-size="10.00"> #controllerKind</text>
</g>
<!-- Node12 -->
<g id="node12" class="node">
<title>Node12</title>
<g id="a_node12"><a xlink:title=" ">
<polygon fill="none" stroke="#bfbfbf" points="1076.5,-746 1076.5,-803 1111.5,-803 1111.5,-746 1076.5,-746"/>
<text text-anchor="middle" x="1094" y="-791" font-family="Helvetica,sans-Serif" font-size="10.00">bool</text>
<polyline fill="none" stroke="#bfbfbf" points="1076.5,-784 1111.5,-784 "/>
<text text-anchor="middle" x="1094" y="-772" font-family="Helvetica,sans-Serif" font-size="10.00"> </text>
<polyline fill="none" stroke="#bfbfbf" points="1076.5,-765 1111.5,-765 "/>
<text text-anchor="middle" x="1094" y="-753" font-family="Helvetica,sans-Serif" font-size="10.00"> </text>
</a>
</g>
</g>
<!-- Node12&#45;&gt;Node2 -->
<g id="edge11" class="edge">
<title>Node12&#45;&gt;Node2</title>
<path fill="none" stroke="#404040" d="M1111.52,-757.92C1132.73,-737.78 1167.28,-700.44 1181,-660 1241.79,-480.77 1267.64,-368.98 1132,-237 1076.99,-183.47 858.74,-166.15 735.64,-160.59"/>
<polygon fill="none" stroke="#404040" points="735.29,-160.57 729.13,-164.31 723.31,-160.05 729.47,-156.32 735.29,-160.57"/>
<text text-anchor="middle" x="1280" y="-466" font-family="Helvetica,sans-Serif" font-size="10.00"> #isInvencible</text>
<text text-anchor="middle" x="1280" y="-455" font-family="Helvetica,sans-Serif" font-size="10.00">#playerFacingDirection</text>
<text text-anchor="middle" x="1280" y="-444" font-family="Helvetica,sans-Serif" font-size="10.00">#playerOnLeft</text>
</g>
<!-- Node12&#45;&gt;Node14 -->
<g id="edge24" class="edge">
<title>Node12&#45;&gt;Node14</title>
<path fill="none" stroke="#404040" d="M1097.3,-745.81C1105.2,-673.88 1121.61,-483.75 1080,-441 1061.42,-421.91 879.56,-432.27 822.47,-421.71"/>
<polygon fill="none" stroke="#404040" points="822.16,-421.62 815.31,-423.89 810.59,-418.44 817.44,-416.18 822.16,-421.62"/>
<text text-anchor="middle" x="1143.5" y="-590" font-family="Helvetica,sans-Serif" font-size="10.00"> ~awaitingAttack</text>
<text text-anchor="middle" x="1143.5" y="-579" font-family="Helvetica,sans-Serif" font-size="10.00">~praying</text>
<text text-anchor="middle" x="1143.5" y="-568" font-family="Helvetica,sans-Serif" font-size="10.00">~respawning</text>
<text text-anchor="middle" x="1143.5" y="-557" font-family="Helvetica,sans-Serif" font-size="10.00">~roll</text>
</g>
<!-- Node12&#45;&gt;Node16 -->
<g id="edge22" class="edge">
<title>Node12&#45;&gt;Node16</title>
<path fill="none" stroke="#404040" d="M1076.38,-764.41C1039.16,-745.2 949.79,-699.03 875,-660 853.5,-648.78 830.37,-636.66 808.63,-625.24"/>
<polygon fill="none" stroke="#404040" points="808.36,-625.1 801.19,-625.86 797.74,-619.52 804.91,-618.77 808.36,-625.1"/>
<text text-anchor="middle" x="1033.5" y="-708.5" font-family="Helvetica,sans-Serif" font-size="10.00"> ~Grounded</text>
<text text-anchor="middle" x="1033.5" y="-697.5" font-family="Helvetica,sans-Serif" font-size="10.00">~IsTouchingLedge</text>
<text text-anchor="middle" x="1033.5" y="-686.5" font-family="Helvetica,sans-Serif" font-size="10.00">~IsTouchingWall</text>
</g>
<!-- Node13 -->
<g id="node13" class="node">
<title>Node13</title>
<g id="a_node13"><a xlink:title=" ">
<polygon fill="none" stroke="#bfbfbf" points="1052,-321.5 1052,-378.5 1124,-378.5 1124,-321.5 1052,-321.5"/>
<text text-anchor="middle" x="1088" y="-366.5" font-family="Helvetica,sans-Serif" font-size="10.00">AudioSource</text>
<polyline fill="none" stroke="#bfbfbf" points="1052,-359.5 1124,-359.5 "/>
<text text-anchor="middle" x="1088" y="-347.5" font-family="Helvetica,sans-Serif" font-size="10.00"> </text>
<polyline fill="none" stroke="#bfbfbf" points="1052,-340.5 1124,-340.5 "/>
<text text-anchor="middle" x="1088" y="-328.5" font-family="Helvetica,sans-Serif" font-size="10.00"> </text>
</a>
</g>
</g>
<!-- Node13&#45;&gt;Node2 -->
<g id="edge12" class="edge">
<title>Node13&#45;&gt;Node2</title>
<path fill="none" stroke="#404040" d="M1083.05,-321.09C1076.98,-295.3 1064.08,-257.91 1038,-237 992.24,-200.31 835.11,-177.43 735.4,-166.26"/>
<polygon fill="none" stroke="#404040" points="735.16,-166.23 728.76,-169.55 723.23,-164.92 729.63,-161.6 735.16,-166.23"/>
<text text-anchor="middle" x="1092.5" y="-251" font-family="Helvetica,sans-Serif" font-size="10.00"> #hitAttackSFX1</text>
<text text-anchor="middle" x="1092.5" y="-240" font-family="Helvetica,sans-Serif" font-size="10.00">#hitAttackSFX2</text>
</g>
<!-- Node14&#45;&gt;Node2 -->
<g id="edge13" class="edge">
<title>Node14&#45;&gt;Node2</title>
<path fill="none" stroke="#404040" d="M714.61,-277.42C709.2,-263.82 703.23,-249.84 697,-237 695.77,-234.46 694.48,-231.89 693.15,-229.3"/>
<polygon fill="none" stroke="#404040" points="693.13,-229.27 686.78,-225.85 687.49,-218.68 693.84,-222.09 693.13,-229.27"/>
<text text-anchor="middle" x="744" y="-245.5" font-family="Helvetica,sans-Serif" font-size="10.00"> #playerController</text>
</g>
<!-- Node15 -->
<g id="node15" class="node">
<title>Node15</title>
<g id="a_node15"><a xlink:title=" ">
<polygon fill="none" stroke="#bfbfbf" points="326.5,-746 326.5,-803 409.5,-803 409.5,-746 326.5,-746"/>
<text text-anchor="middle" x="368" y="-791" font-family="Helvetica,sans-Serif" font-size="10.00">MonoBehaviour</text>
<polyline fill="none" stroke="#bfbfbf" points="326.5,-784 409.5,-784 "/>
<text text-anchor="middle" x="368" y="-772" font-family="Helvetica,sans-Serif" font-size="10.00"> </text>
<polyline fill="none" stroke="#bfbfbf" points="326.5,-765 409.5,-765 "/>
<text text-anchor="middle" x="368" y="-753" font-family="Helvetica,sans-Serif" font-size="10.00"> </text>
</a>
</g>
</g>
<!-- Node15&#45;&gt;Node14 -->
<g id="edge14" class="edge">
<title>Node15&#45;&gt;Node14</title>
<path fill="none" stroke="midnightblue" d="M396.62,-737.65C411.2,-719.59 429.33,-697.45 446,-678 522.63,-588.59 613.65,-488.21 673.9,-422.54"/>
<polygon fill="none" stroke="midnightblue" points="393.73,-735.65 390.19,-745.63 399.18,-740.04 393.73,-735.65"/>
</g>
<!-- Node15&#45;&gt;Node16 -->
<g id="edge16" class="edge">
<title>Node15&#45;&gt;Node16</title>
<path fill="none" stroke="midnightblue" d="M418.14,-740.53C418.42,-740.36 418.71,-740.18 419,-740 490.88,-695.62 575.62,-649.87 636.33,-618.18"/>
<polygon fill="none" stroke="midnightblue" points="416.23,-737.6 409.63,-745.88 419.95,-743.53 416.23,-737.6"/>
</g>
<!-- Node16&#45;&gt;Node14 -->
<g id="edge15" class="edge">
<title>Node16&#45;&gt;Node14</title>
<path fill="none" stroke="#404040" d="M725.5,-492.23C727.42,-473.52 729.46,-453.64 731.39,-434.89"/>
<polygon fill="none" stroke="#404040" points="731.41,-434.68 728.04,-428.31 732.63,-422.75 736,-429.12 731.41,-434.68"/>
<text text-anchor="middle" x="777" y="-455" font-family="Helvetica,sans-Serif" font-size="10.00"> #playerMovementCtrl</text>
</g>
<!-- Node17 -->
<g id="node17" class="node">
<title>Node17</title>
<g id="a_node17"><a xlink:href="class_player_1_1_player_movement_controller_1_1_bool_event.html" target="_top" xlink:title=" ">
<polygon fill="none" stroke="black" points="428,-740.5 428,-808.5 592,-808.5 592,-740.5 428,-740.5"/>
<text text-anchor="start" x="436" y="-796.5" font-family="Helvetica,sans-Serif" font-size="10.00">Player.PlayerMovementController.</text>
<text text-anchor="middle" x="510" y="-785.5" font-family="Helvetica,sans-Serif" font-size="10.00">BoolEvent</text>
<polyline fill="none" stroke="black" points="428,-778.5 592,-778.5 "/>
<text text-anchor="middle" x="510" y="-766.5" font-family="Helvetica,sans-Serif" font-size="10.00"> </text>
<polyline fill="none" stroke="black" points="428,-759.5 592,-759.5 "/>
<text text-anchor="middle" x="510" y="-747.5" font-family="Helvetica,sans-Serif" font-size="10.00"> </text>
</a>
</g>
</g>
<!-- Node17&#45;&gt;Node16 -->
<g id="edge17" class="edge">
<title>Node17&#45;&gt;Node16</title>
<path fill="none" stroke="#404040" d="M521.89,-740.35C530.13,-720.64 542.57,-696.06 559,-678 577.99,-657.12 602.23,-638.81 625.99,-623.71"/>
<polygon fill="none" stroke="#404040" points="626.28,-623.53 629.28,-616.97 636.49,-617.22 633.49,-623.78 626.28,-623.53"/>
<text text-anchor="middle" x="597.5" y="-697.5" font-family="Helvetica,sans-Serif" font-size="10.00"> +OnCrouchEvent</text>
</g>
<!-- Node18 -->
<g id="node18" class="node">
<title>Node18</title>
<g id="a_node18"><a xlink:title=" ">
<polygon fill="none" stroke="#bfbfbf" points="460.5,-846.5 460.5,-903.5 559.5,-903.5 559.5,-846.5 460.5,-846.5"/>
<text text-anchor="middle" x="510" y="-891.5" font-family="Helvetica,sans-Serif" font-size="10.00">UnityEvent&lt; bool &gt;</text>
<polyline fill="none" stroke="#bfbfbf" points="460.5,-884.5 559.5,-884.5 "/>
<text text-anchor="middle" x="510" y="-872.5" font-family="Helvetica,sans-Serif" font-size="10.00"> </text>
<polyline fill="none" stroke="#bfbfbf" points="460.5,-865.5 559.5,-865.5 "/>
<text text-anchor="middle" x="510" y="-853.5" font-family="Helvetica,sans-Serif" font-size="10.00"> </text>
</a>
</g>
</g>
<!-- Node18&#45;&gt;Node17 -->
<g id="edge18" class="edge">
<title>Node18&#45;&gt;Node17</title>
<path fill="none" stroke="midnightblue" d="M510,-836.01C510,-826.96 510,-817.38 510,-808.58"/>
<polygon fill="none" stroke="midnightblue" points="506.5,-836.3 510,-846.3 513.5,-836.3 506.5,-836.3"/>
</g>
<!-- Node19 -->
<g id="node19" class="node">
<title>Node19</title>
<g id="a_node19"><a xlink:title=" ">
<polygon fill="none" stroke="#bfbfbf" points="610.5,-746 610.5,-803 673.5,-803 673.5,-746 610.5,-746"/>
<text text-anchor="middle" x="642" y="-791" font-family="Helvetica,sans-Serif" font-size="10.00">UnityEvent</text>
<polyline fill="none" stroke="#bfbfbf" points="610.5,-784 673.5,-784 "/>
<text text-anchor="middle" x="642" y="-772" font-family="Helvetica,sans-Serif" font-size="10.00"> </text>
<polyline fill="none" stroke="#bfbfbf" points="610.5,-765 673.5,-765 "/>
<text text-anchor="middle" x="642" y="-753" font-family="Helvetica,sans-Serif" font-size="10.00"> </text>
</a>
</g>
</g>
<!-- Node19&#45;&gt;Node16 -->
<g id="edge19" class="edge">
<title>Node19&#45;&gt;Node16</title>
<path fill="none" stroke="#404040" d="M640.32,-745.99C640.01,-726.5 641.4,-700 649,-678 649.84,-675.58 650.75,-673.16 651.72,-670.76"/>
<polygon fill="none" stroke="#404040" points="651.82,-670.52 650.61,-663.41 656.71,-659.56 657.92,-666.67 651.82,-670.52"/>
<text text-anchor="middle" x="681" y="-703" font-family="Helvetica,sans-Serif" font-size="10.00"> +OnAirEvent</text>
<text text-anchor="middle" x="681" y="-692" font-family="Helvetica,sans-Serif" font-size="10.00">+OnLandEvent</text>
</g>
<!-- Node20 -->
<g id="node20" class="node">
<title>Node20</title>
<g id="a_node20"><a xlink:title=" ">
<polygon fill="none" stroke="#bfbfbf" points="692,-746 692,-803 742,-803 742,-746 692,-746"/>
<text text-anchor="middle" x="717" y="-791" font-family="Helvetica,sans-Serif" font-size="10.00">Vector3</text>
<polyline fill="none" stroke="#bfbfbf" points="692,-784 742,-784 "/>
<text text-anchor="middle" x="717" y="-772" font-family="Helvetica,sans-Serif" font-size="10.00"> </text>
<polyline fill="none" stroke="#bfbfbf" points="692,-765 742,-765 "/>
<text text-anchor="middle" x="717" y="-753" font-family="Helvetica,sans-Serif" font-size="10.00"> </text>
</a>
</g>
</g>
<!-- Node20&#45;&gt;Node16 -->
<g id="edge21" class="edge">
<title>Node20&#45;&gt;Node16</title>
<path fill="none" stroke="#404040" d="M717,-745.76C717,-726.31 717,-699.07 717,-672.14"/>
<polygon fill="none" stroke="#404040" points="717,-671.82 713,-665.82 717,-659.82 721,-665.82 717,-671.82"/>
<text text-anchor="middle" x="739.5" y="-697.5" font-family="Helvetica,sans-Serif" font-size="10.00"> ~Velocity</text>
</g>
</g>
</svg>
