<?xml version="1.0" encoding="UTF-8" standalone="no"?>
<!DOCTYPE svg PUBLIC "-//W3C//DTD SVG 1.1//EN"
 "http://www.w3.org/Graphics/SVG/1.1/DTD/svg11.dtd">
<!-- Generated by graphviz version 2.48.0 (20210717.1556)
 -->
<!-- Title: Controllers.DummyController Pages: 1 -->
<!--zoomable 948 -->
<svg id="main" version="1.1" xmlns="http://www.w3.org/2000/svg" xmlns:xlink="http://www.w3.org/1999/xlink" xml:space="preserve" onload="init(evt)">
<style type="text/css"><![CDATA[
.edge:hover path { stroke: red; }
.edge:hover polygon { stroke: red; fill: red; }
]]></style>
<script type="text/javascript"><![CDATA[
var edges = document.getElementsByTagName('g');
if (edges && edges.length) {
  for (var i=0;i<edges.length;i++) {
    if (edges[i].id.substr(0,4)=='edge') {
      edges[i].setAttribute('class','edge');
    }
  }
}
]]></script>
        <defs>
                <circle id="rim" cx="0" cy="0" r="7"/>
                <circle id="rim2" cx="0" cy="0" r="3.5"/>
                <g id="zoomPlus">
                        <use xlink:href="#rim" fill="#404040">
                                <set attributeName="fill" to="#808080" begin="zoomplus.mouseover" end="zoomplus.mouseout"/>
                        </use>
                        <path d="M-4,0h8M0,-4v8" fill="none" stroke="white" stroke-width="1.5" pointer-events="none"/>
                </g>
                <g id="zoomMin">
                        <use xlink:href="#rim" fill="#404040">
                                <set attributeName="fill" to="#808080" begin="zoomminus.mouseover" end="zoomminus.mouseout"/>
                        </use>
                        <path d="M-4,0h8" fill="none" stroke="white" stroke-width="1.5" pointer-events="none"/>
                </g>
                <g id="dirArrow">
                        <path fill="none" stroke="white" stroke-width="1.5" d="M0,-3.0v7 M-2.5,-0.5L0,-3.0L2.5,-0.5"/>
                </g>
               <g id="resetDef">
                       <use xlink:href="#rim2" fill="#404040">
                               <set attributeName="fill" to="#808080" begin="reset.mouseover" end="reset.mouseout"/>
                       </use>
               </g>
        </defs>

<script type="text/javascript">
var viewWidth = 1446;
var viewHeight = 948;
var sectionId = 'dynsection-1';
</script>
<script xlink:href="svgpan.js"/>
<svg id="graph" class="graph">
<g id="viewport">
<title>Controllers.DummyController</title>
<!-- Node1 -->
<g id="node1" class="node">
<title>Node1</title>
<g id="a_node1"><a xlink:title=" ">
<polygon fill="#bfbfbf" stroke="black" points="528.91,-0.5 528.91,-57.5 669.91,-57.5 669.91,-0.5 528.91,-0.5"/>
<text text-anchor="middle" x="599.41" y="-45.5" font-family="Helvetica,sans-Serif" font-size="10.00">Controllers.DummyController</text>
<polyline fill="none" stroke="black" points="528.91,-38.5 669.91,-38.5 "/>
<text text-anchor="middle" x="599.41" y="-26.5" font-family="Helvetica,sans-Serif" font-size="10.00"> </text>
<polyline fill="none" stroke="black" points="528.91,-19.5 669.91,-19.5 "/>
<text text-anchor="start" x="536.91" y="-7.5" font-family="Helvetica,sans-Serif" font-size="10.00"># override void OnStart()</text>
</a>
</g>
</g>
<!-- Node2 -->
<g id="node2" class="node">
<title>Node2</title>
<g id="a_node2"><a xlink:href="class_controllers_1_1_base_controller.html" target="_top" xlink:title=" ">
<polygon fill="none" stroke="black" points="526.41,-95.5 526.41,-218.5 672.41,-218.5 672.41,-95.5 526.41,-95.5"/>
<text text-anchor="middle" x="599.41" y="-206.5" font-family="Helvetica,sans-Serif" font-size="10.00">BaseController</text>
<polyline fill="none" stroke="black" points="526.41,-199.5 672.41,-199.5 "/>
<text text-anchor="middle" x="599.41" y="-187.5" font-family="Helvetica,sans-Serif" font-size="10.00"> </text>
<polyline fill="none" stroke="black" points="526.41,-180.5 672.41,-180.5 "/>
<text text-anchor="start" x="534.41" y="-168.5" font-family="Helvetica,sans-Serif" font-size="10.00">+ T GetMovementController</text>
<text text-anchor="start" x="534.41" y="-157.5" font-family="Helvetica,sans-Serif" font-size="10.00">&lt; T &gt;()</text>
<text text-anchor="start" x="534.41" y="-146.5" font-family="Helvetica,sans-Serif" font-size="10.00">+ virtual void Damage</text>
<text text-anchor="start" x="534.41" y="-135.5" font-family="Helvetica,sans-Serif" font-size="10.00">(float amount, int attackN)</text>
<text text-anchor="start" x="534.41" y="-124.5" font-family="Helvetica,sans-Serif" font-size="10.00"># virtual void OnStart()</text>
<text text-anchor="start" x="534.41" y="-113.5" font-family="Helvetica,sans-Serif" font-size="10.00"># virtual void OnUpdate()</text>
<text text-anchor="start" x="534.41" y="-102.5" font-family="Helvetica,sans-Serif" font-size="10.00"># virtual void OnFixedUpdate()</text>
</a>
</g>
</g>
<!-- Node2&#45;&gt;Node1 -->
<g id="edge1" class="edge">
<title>Node2&#45;&gt;Node1</title>
<path fill="none" stroke="midnightblue" d="M599.41,-85.01C599.41,-75.26 599.41,-65.78 599.41,-57.51"/>
<polygon fill="none" stroke="midnightblue" points="595.91,-85.21 599.41,-95.21 602.91,-85.21 595.91,-85.21"/>
</g>
<!-- Node3 -->
<g id="node3" class="node">
<title>Node3</title>
<g id="a_node3"><a xlink:href="class_mono_behaviour.html" target="_top" xlink:title=" ">
<polygon fill="none" stroke="black" points="591.91,-782 591.91,-839 674.91,-839 674.91,-782 591.91,-782"/>
<text text-anchor="middle" x="633.41" y="-827" font-family="Helvetica,sans-Serif" font-size="10.00">MonoBehaviour</text>
<polyline fill="none" stroke="black" points="591.91,-820 674.91,-820 "/>
<text text-anchor="middle" x="633.41" y="-808" font-family="Helvetica,sans-Serif" font-size="10.00"> </text>
<polyline fill="none" stroke="black" points="591.91,-801 674.91,-801 "/>
<text text-anchor="middle" x="633.41" y="-789" font-family="Helvetica,sans-Serif" font-size="10.00"> </text>
</a>
</g>
</g>
<!-- Node3&#45;&gt;Node2 -->
<g id="edge2" class="edge">
<title>Node3&#45;&gt;Node2</title>
<path fill="none" stroke="midnightblue" d="M582.25,-792.23C406.8,-730.41 -149.52,-511.28 38.41,-277 98.69,-201.86 388.35,-172.32 526.2,-162.38"/>
<polygon fill="none" stroke="midnightblue" points="581.19,-795.57 591.78,-795.57 583.5,-788.96 581.19,-795.57"/>
</g>
<!-- Node9 -->
<g id="node9" class="node">
<title>Node9</title>
<g id="a_node9"><a xlink:href="class_controllers_1_1_movement_1_1_base_movement_controller.html" target="_top" xlink:title=" ">
<polygon fill="none" stroke="black" points="518.41,-441.5 518.41,-509.5 654.41,-509.5 654.41,-441.5 518.41,-441.5"/>
<text text-anchor="start" x="526.41" y="-497.5" font-family="Helvetica,sans-Serif" font-size="10.00">Controllers.Movement.Base</text>
<text text-anchor="middle" x="586.41" y="-486.5" font-family="Helvetica,sans-Serif" font-size="10.00">MovementController</text>
<polyline fill="none" stroke="black" points="518.41,-479.5 654.41,-479.5 "/>
<text text-anchor="middle" x="586.41" y="-467.5" font-family="Helvetica,sans-Serif" font-size="10.00"> </text>
<polyline fill="none" stroke="black" points="518.41,-460.5 654.41,-460.5 "/>
<text text-anchor="middle" x="586.41" y="-448.5" font-family="Helvetica,sans-Serif" font-size="10.00"> </text>
</a>
</g>
</g>
<!-- Node3&#45;&gt;Node9 -->
<g id="edge9" class="edge">
<title>Node3&#45;&gt;Node9</title>
<path fill="none" stroke="midnightblue" d="M628.13,-772.06C618.88,-706.52 599.9,-572.06 591.09,-509.66"/>
<polygon fill="none" stroke="midnightblue" points="624.66,-772.55 629.52,-781.97 631.59,-771.57 624.66,-772.55"/>
</g>
<!-- Node15 -->
<g id="node15" class="node">
<title>Node15</title>
<g id="a_node15"><a xlink:href="class_player_1_1_player_controller.html" target="_top" xlink:title=" ">
<polygon fill="none" stroke="black" points="921.91,-277.5 921.91,-422.5 1062.91,-422.5 1062.91,-277.5 921.91,-277.5"/>
<text text-anchor="middle" x="992.41" y="-410.5" font-family="Helvetica,sans-Serif" font-size="10.00">Player.PlayerController</text>
<polyline fill="none" stroke="black" points="921.91,-403.5 1062.91,-403.5 "/>
<text text-anchor="middle" x="992.41" y="-391.5" font-family="Helvetica,sans-Serif" font-size="10.00"> </text>
<polyline fill="none" stroke="black" points="921.91,-384.5 1062.91,-384.5 "/>
<text text-anchor="start" x="929.91" y="-372.5" font-family="Helvetica,sans-Serif" font-size="10.00">+ void LandEvt()</text>
<text text-anchor="start" x="929.91" y="-361.5" font-family="Helvetica,sans-Serif" font-size="10.00">+ void OnAirEvt()</text>
<text text-anchor="start" x="929.91" y="-350.5" font-family="Helvetica,sans-Serif" font-size="10.00">+ bool IsFacingRight()</text>
<text text-anchor="start" x="929.91" y="-339.5" font-family="Helvetica,sans-Serif" font-size="10.00">+ void AnimStartPrayingEvt()</text>
<text text-anchor="start" x="929.91" y="-328.5" font-family="Helvetica,sans-Serif" font-size="10.00">+ void AnimRollEndEvt()</text>
<text text-anchor="start" x="929.91" y="-317.5" font-family="Helvetica,sans-Serif" font-size="10.00">+ void AnimFootStep1Evt()</text>
<text text-anchor="start" x="929.91" y="-306.5" font-family="Helvetica,sans-Serif" font-size="10.00">+ void AnimFootStep2Evt()</text>
<text text-anchor="start" x="929.91" y="-295.5" font-family="Helvetica,sans-Serif" font-size="10.00">~ void OnEnable()</text>
<text text-anchor="start" x="929.91" y="-284.5" font-family="Helvetica,sans-Serif" font-size="10.00">~ void OnDisable()</text>
</a>
</g>
</g>
<!-- Node3&#45;&gt;Node15 -->
<g id="edge16" class="edge">
<title>Node3&#45;&gt;Node15</title>
<path fill="none" stroke="midnightblue" d="M637.77,-771.78C648.47,-682.34 676.93,-463.2 701.41,-441 736.27,-409.38 869.23,-441.71 912.41,-423 915.5,-421.66 918.54,-420.16 921.54,-418.51"/>
<polygon fill="none" stroke="midnightblue" points="634.29,-771.43 636.59,-781.77 641.24,-772.25 634.29,-771.43"/>
</g>
<!-- Node16 -->
<g id="node16" class="node">
<title>Node16</title>
<g id="a_node16"><a xlink:href="class_player_1_1_player_movement_controller.html" target="_top" xlink:title=" ">
<polygon fill="none" stroke="black" points="911.91,-528.5 911.91,-695.5 1072.91,-695.5 1072.91,-528.5 911.91,-528.5"/>
<text text-anchor="middle" x="992.41" y="-683.5" font-family="Helvetica,sans-Serif" font-size="10.00">Player.PlayerMovementController</text>
<polyline fill="none" stroke="black" points="911.91,-676.5 1072.91,-676.5 "/>
<text text-anchor="middle" x="992.41" y="-664.5" font-family="Helvetica,sans-Serif" font-size="10.00"> </text>
<polyline fill="none" stroke="black" points="911.91,-657.5 1072.91,-657.5 "/>
<text text-anchor="start" x="919.91" y="-645.5" font-family="Helvetica,sans-Serif" font-size="10.00">+ void Move(float moveH,</text>
<text text-anchor="start" x="919.91" y="-634.5" font-family="Helvetica,sans-Serif" font-size="10.00"> float moveV, bool crouch,</text>
<text text-anchor="start" x="919.91" y="-623.5" font-family="Helvetica,sans-Serif" font-size="10.00"> bool jump, bool roll, bool</text>
<text text-anchor="start" x="919.91" y="-612.5" font-family="Helvetica,sans-Serif" font-size="10.00"> attacking)</text>
<text text-anchor="start" x="919.91" y="-601.5" font-family="Helvetica,sans-Serif" font-size="10.00">+ bool IsFacingRight()</text>
<text text-anchor="start" x="919.91" y="-590.5" font-family="Helvetica,sans-Serif" font-size="10.00">+ void EnableFlip()</text>
<text text-anchor="start" x="919.91" y="-579.5" font-family="Helvetica,sans-Serif" font-size="10.00">+ void DisableFlip()</text>
<text text-anchor="start" x="919.91" y="-568.5" font-family="Helvetica,sans-Serif" font-size="10.00">~ void AttackMovement</text>
<text text-anchor="start" x="919.91" y="-557.5" font-family="Helvetica,sans-Serif" font-size="10.00">(int power)</text>
<text text-anchor="start" x="919.91" y="-546.5" font-family="Helvetica,sans-Serif" font-size="10.00">~ void PrepareRespawn</text>
<text text-anchor="start" x="919.91" y="-535.5" font-family="Helvetica,sans-Serif" font-size="10.00">(Transform SpawnPoint)</text>
</a>
</g>
</g>
<!-- Node3&#45;&gt;Node16 -->
<g id="edge18" class="edge">
<title>Node3&#45;&gt;Node16</title>
<path fill="none" stroke="midnightblue" d="M684.07,-778.99C720.2,-758.28 770.5,-731.59 817.41,-714 849.1,-702.12 861.13,-711.13 891.41,-696 898.31,-692.55 905.17,-688.56 911.86,-684.22"/>
<polygon fill="none" stroke="midnightblue" points="682.11,-776.08 675.2,-784.11 685.61,-782.14 682.11,-776.08"/>
</g>
<!-- Node4 -->
<g id="node4" class="node">
<title>Node4</title>
<g id="a_node4"><a xlink:href="interface_controllers_1_1_i_damageable.html" target="_top" xlink:title=" ">
<polygon fill="none" stroke="black" points="47.41,-316 47.41,-384 187.41,-384 187.41,-316 47.41,-316"/>
<text text-anchor="middle" x="117.41" y="-372" font-family="Helvetica,sans-Serif" font-size="10.00">IDamageable</text>
<polyline fill="none" stroke="black" points="47.41,-365 187.41,-365 "/>
<text text-anchor="middle" x="117.41" y="-353" font-family="Helvetica,sans-Serif" font-size="10.00"> </text>
<polyline fill="none" stroke="black" points="47.41,-346 187.41,-346 "/>
<text text-anchor="start" x="55.41" y="-334" font-family="Helvetica,sans-Serif" font-size="10.00">+ void Damage(float amount,</text>
<text text-anchor="start" x="55.41" y="-323" font-family="Helvetica,sans-Serif" font-size="10.00"> int attackN)</text>
</a>
</g>
</g>
<!-- Node4&#45;&gt;Node2 -->
<g id="edge3" class="edge">
<title>Node4&#45;&gt;Node2</title>
<path fill="none" stroke="midnightblue" d="M156.57,-308.91C183.58,-283.87 221.66,-253.37 261.41,-237 348.89,-200.97 456.2,-179.42 526.11,-168.14"/>
<polygon fill="none" stroke="midnightblue" points="154.13,-306.4 149.26,-315.81 158.93,-311.5 154.13,-306.4"/>
</g>
<!-- Node5 -->
<g id="node5" class="node">
<title>Node5</title>
<g id="a_node5"><a xlink:title=" ">
<polygon fill="none" stroke="#bfbfbf" points="205.91,-321.5 205.91,-378.5 290.91,-378.5 290.91,-321.5 205.91,-321.5"/>
<text text-anchor="middle" x="248.41" y="-366.5" font-family="Helvetica,sans-Serif" font-size="10.00">ECharacterKind</text>
<polyline fill="none" stroke="#bfbfbf" points="205.91,-359.5 290.91,-359.5 "/>
<text text-anchor="middle" x="248.41" y="-347.5" font-family="Helvetica,sans-Serif" font-size="10.00"> </text>
<polyline fill="none" stroke="#bfbfbf" points="205.91,-340.5 290.91,-340.5 "/>
<text text-anchor="middle" x="248.41" y="-328.5" font-family="Helvetica,sans-Serif" font-size="10.00"> </text>
</a>
</g>
</g>
<!-- Node5&#45;&gt;Node2 -->
<g id="edge4" class="edge">
<title>Node5&#45;&gt;Node2</title>
<path fill="none" stroke="#404040" d="M248.58,-321.13C250.27,-295.73 256.85,-258.94 279.41,-237 312.55,-204.78 431.3,-181.76 514.42,-169.17"/>
<polygon fill="none" stroke="#404040" points="514.54,-169.15 519.88,-164.31 526.41,-167.38 521.06,-172.22 514.54,-169.15"/>
<text text-anchor="middle" x="313.91" y="-245.5" font-family="Helvetica,sans-Serif" font-size="10.00"> #characterKind</text>
</g>
<!-- Node6 -->
<g id="node6" class="node">
<title>Node6</title>
<g id="a_node6"><a xlink:title=" ">
<polygon fill="none" stroke="#bfbfbf" points="308.91,-321.5 308.91,-378.5 379.91,-378.5 379.91,-321.5 308.91,-321.5"/>
<text text-anchor="middle" x="344.41" y="-366.5" font-family="Helvetica,sans-Serif" font-size="10.00">Rigidbody2D</text>
<polyline fill="none" stroke="#bfbfbf" points="308.91,-359.5 379.91,-359.5 "/>
<text text-anchor="middle" x="344.41" y="-347.5" font-family="Helvetica,sans-Serif" font-size="10.00"> </text>
<polyline fill="none" stroke="#bfbfbf" points="308.91,-340.5 379.91,-340.5 "/>
<text text-anchor="middle" x="344.41" y="-328.5" font-family="Helvetica,sans-Serif" font-size="10.00"> </text>
</a>
</g>
</g>
<!-- Node6&#45;&gt;Node2 -->
<g id="edge5" class="edge">
<title>Node6&#45;&gt;Node2</title>
<path fill="none" stroke="#404040" d="M342.25,-321.27C341.84,-296.32 345.3,-260.15 365.41,-237 402.64,-194.15 463.94,-174.49 514.46,-165.5"/>
<polygon fill="none" stroke="#404040" points="514.55,-165.48 519.82,-160.56 526.39,-163.53 521.12,-168.45 514.55,-165.48"/>
<text text-anchor="middle" x="389.41" y="-245.5" font-family="Helvetica,sans-Serif" font-size="10.00"> #RigidBdy</text>
</g>
<!-- Node7 -->
<g id="node7" class="node">
<title>Node7</title>
<g id="a_node7"><a xlink:title=" ">
<polygon fill="none" stroke="#bfbfbf" points="398.41,-321.5 398.41,-378.5 454.41,-378.5 454.41,-321.5 398.41,-321.5"/>
<text text-anchor="middle" x="426.41" y="-366.5" font-family="Helvetica,sans-Serif" font-size="10.00">Animator</text>
<polyline fill="none" stroke="#bfbfbf" points="398.41,-359.5 454.41,-359.5 "/>
<text text-anchor="middle" x="426.41" y="-347.5" font-family="Helvetica,sans-Serif" font-size="10.00"> </text>
<polyline fill="none" stroke="#bfbfbf" points="398.41,-340.5 454.41,-340.5 "/>
<text text-anchor="middle" x="426.41" y="-328.5" font-family="Helvetica,sans-Serif" font-size="10.00"> </text>
</a>
</g>
</g>
<!-- Node7&#45;&gt;Node2 -->
<g id="edge6" class="edge">
<title>Node7&#45;&gt;Node2</title>
<path fill="none" stroke="#404040" d="M418.91,-321.33C414.04,-297.1 411.24,-261.97 427.41,-237 447.06,-206.65 481.59,-187.8 514.58,-176.16"/>
<polygon fill="none" stroke="#404040" points="514.77,-176.1 519.21,-170.42 526.16,-172.34 521.72,-178.02 514.77,-176.1"/>
<text text-anchor="middle" x="471.41" y="-245.5" font-family="Helvetica,sans-Serif" font-size="10.00"> #characterAnimator</text>
</g>
<!-- Node8 -->
<g id="node8" class="node">
<title>Node8</title>
<g id="a_node8"><a xlink:title=" ">
<polygon fill="none" stroke="#bfbfbf" points="472.91,-321.5 472.91,-378.5 543.91,-378.5 543.91,-321.5 472.91,-321.5"/>
<text text-anchor="middle" x="508.41" y="-366.5" font-family="Helvetica,sans-Serif" font-size="10.00">GameObject</text>
<polyline fill="none" stroke="#bfbfbf" points="472.91,-359.5 543.91,-359.5 "/>
<text text-anchor="middle" x="508.41" y="-347.5" font-family="Helvetica,sans-Serif" font-size="10.00"> </text>
<polyline fill="none" stroke="#bfbfbf" points="472.91,-340.5 543.91,-340.5 "/>
<text text-anchor="middle" x="508.41" y="-328.5" font-family="Helvetica,sans-Serif" font-size="10.00"> </text>
</a>
</g>
</g>
<!-- Node8&#45;&gt;Node2 -->
<g id="edge7" class="edge">
<title>Node8&#45;&gt;Node2</title>
<path fill="none" stroke="#404040" d="M508.79,-321.44C510.1,-297.93 514.36,-263.77 527.41,-237 528.76,-234.23 530.24,-231.48 531.83,-228.77"/>
<polygon fill="none" stroke="#404040" points="531.94,-228.6 531.81,-221.39 538.42,-218.51 538.54,-225.72 531.94,-228.6"/>
<text text-anchor="middle" x="556.41" y="-245.5" font-family="Helvetica,sans-Serif" font-size="10.00"> #hitParticles</text>
</g>
<!-- Node9&#45;&gt;Node2 -->
<g id="edge8" class="edge">
<title>Node9&#45;&gt;Node2</title>
<path fill="none" stroke="#404040" d="M587.74,-441.3C589.32,-402.06 592.03,-334.77 594.41,-277 595.03,-262 595.7,-245.94 596.34,-230.63"/>
<polygon fill="none" stroke="#404040" points="596.35,-230.53 592.6,-224.36 596.85,-218.54 600.59,-224.7 596.35,-230.53"/>
<text text-anchor="middle" x="651.91" y="-347.5" font-family="Helvetica,sans-Serif" font-size="10.00"> #baseMovementController</text>
</g>
<!-- Node10 -->
<g id="node10" class="node">
<title>Node10</title>
<g id="a_node10"><a xlink:title=" ">
<polygon fill="none" stroke="#bfbfbf" points="1292.91,-782 1292.91,-839 1327.91,-839 1327.91,-782 1292.91,-782"/>
<text text-anchor="middle" x="1310.41" y="-827" font-family="Helvetica,sans-Serif" font-size="10.00">float</text>
<polyline fill="none" stroke="#bfbfbf" points="1292.91,-820 1327.91,-820 "/>
<text text-anchor="middle" x="1310.41" y="-808" font-family="Helvetica,sans-Serif" font-size="10.00"> </text>
<polyline fill="none" stroke="#bfbfbf" points="1292.91,-801 1327.91,-801 "/>
<text text-anchor="middle" x="1310.41" y="-789" font-family="Helvetica,sans-Serif" font-size="10.00"> </text>
</a>
</g>
</g>
<!-- Node10&#45;&gt;Node2 -->
<g id="edge10" class="edge">
<title>Node10&#45;&gt;Node2</title>
<path fill="none" stroke="#404040" d="M1327.93,-792.17C1347.54,-771.42 1378.17,-734.61 1390.41,-696 1412.97,-624.82 1416.7,-597.89 1390.41,-528 1329.87,-367.05 1286.42,-319.26 1135.41,-237 1059.44,-195.62 815.92,-172.92 684.85,-163.42"/>
<polygon fill="none" stroke="#404040" points="684.49,-163.39 678.23,-166.96 672.52,-162.54 678.79,-158.98 684.49,-163.39"/>
<text text-anchor="middle" x="1410.91" y="-473" font-family="Helvetica,sans-Serif" font-size="10.00"> #maxHealth</text>
</g>
<!-- Node10&#45;&gt;Node15 -->
<g id="edge25" class="edge">
<title>Node10&#45;&gt;Node15</title>
<path fill="none" stroke="#404040" d="M1309.97,-781.78C1308.8,-762.18 1305.46,-735.64 1296.41,-714 1237.78,-573.76 1192.59,-553.54 1090.41,-441 1086.36,-436.54 1079.9,-430.17 1072.17,-422.84"/>
<polygon fill="none" stroke="#404040" points="1072.09,-422.77 1064.98,-421.58 1063.34,-414.56 1070.45,-415.75 1072.09,-422.77"/>
<text text-anchor="middle" x="1337.41" y="-609.5" font-family="Helvetica,sans-Serif" font-size="10.00"> +NextAttackMaxTime</text>
</g>
<!-- Node10&#45;&gt;Node16 -->
<g id="edge22" class="edge">
<title>Node10&#45;&gt;Node16</title>
<path fill="none" stroke="#404040" d="M1292.62,-804.52C1269.22,-797.28 1227.76,-782.05 1199.41,-758 1181.36,-742.69 1186.8,-730.05 1169.41,-714 1144.41,-690.92 1113.2,-670.92 1083.99,-654.95"/>
<polygon fill="none" stroke="#404040" points="1083.91,-654.91 1076.74,-655.61 1073.33,-649.25 1080.51,-648.55 1083.91,-654.91"/>
<text text-anchor="middle" x="1247.91" y="-750" font-family="Helvetica,sans-Serif" font-size="10.00"> +LedgeClimbXOffset1</text>
<text text-anchor="middle" x="1247.91" y="-739" font-family="Helvetica,sans-Serif" font-size="10.00">+LedgeClimbXOffset2</text>
<text text-anchor="middle" x="1247.91" y="-728" font-family="Helvetica,sans-Serif" font-size="10.00">+LedgeClimbYOffset1</text>
<text text-anchor="middle" x="1247.91" y="-717" font-family="Helvetica,sans-Serif" font-size="10.00">+LedgeClimbYOffset2</text>
</g>
<!-- Node11 -->
<g id="node11" class="node">
<title>Node11</title>
<g id="a_node11"><a xlink:title=" ">
<polygon fill="none" stroke="#bfbfbf" points="751.41,-321.5 751.41,-378.5 801.41,-378.5 801.41,-321.5 751.41,-321.5"/>
<text text-anchor="middle" x="776.41" y="-366.5" font-family="Helvetica,sans-Serif" font-size="10.00">Vector2</text>
<polyline fill="none" stroke="#bfbfbf" points="751.41,-359.5 801.41,-359.5 "/>
<text text-anchor="middle" x="776.41" y="-347.5" font-family="Helvetica,sans-Serif" font-size="10.00"> </text>
<polyline fill="none" stroke="#bfbfbf" points="751.41,-340.5 801.41,-340.5 "/>
<text text-anchor="middle" x="776.41" y="-328.5" font-family="Helvetica,sans-Serif" font-size="10.00"> </text>
</a>
</g>
</g>
<!-- Node11&#45;&gt;Node2 -->
<g id="edge11" class="edge">
<title>Node11&#45;&gt;Node2</title>
<path fill="none" stroke="#404040" d="M771.53,-321.48C766.03,-297.02 755.01,-261.46 734.41,-237 720.39,-220.35 701.91,-206.39 683.14,-195.05"/>
<polygon fill="none" stroke="#404040" points="683.1,-195.03 675.91,-195.49 672.71,-189.03 679.91,-188.56 683.1,-195.03"/>
<text text-anchor="middle" x="798.41" y="-245.5" font-family="Helvetica,sans-Serif" font-size="10.00"> #moveOnAttackSpeed</text>
</g>
<!-- Node12 -->
<g id="node12" class="node">
<title>Node12</title>
<g id="a_node12"><a xlink:title=" ">
<polygon fill="none" stroke="#bfbfbf" points="819.41,-321.5 819.41,-378.5 903.41,-378.5 903.41,-321.5 819.41,-321.5"/>
<text text-anchor="middle" x="861.41" y="-366.5" font-family="Helvetica,sans-Serif" font-size="10.00">EControllerKind</text>
<polyline fill="none" stroke="#bfbfbf" points="819.41,-359.5 903.41,-359.5 "/>
<text text-anchor="middle" x="861.41" y="-347.5" font-family="Helvetica,sans-Serif" font-size="10.00"> </text>
<polyline fill="none" stroke="#bfbfbf" points="819.41,-340.5 903.41,-340.5 "/>
<text text-anchor="middle" x="861.41" y="-328.5" font-family="Helvetica,sans-Serif" font-size="10.00"> </text>
</a>
</g>
</g>
<!-- Node12&#45;&gt;Node2 -->
<g id="edge12" class="edge">
<title>Node12&#45;&gt;Node2</title>
<path fill="none" stroke="#404040" d="M867.13,-321.49C870.6,-296.7 871.29,-260.62 852.41,-237 812.54,-187.1 741.52,-168.09 684.85,-161.14"/>
<polygon fill="none" stroke="#404040" points="684.56,-161.1 678.16,-164.43 672.63,-159.79 679.03,-156.47 684.56,-161.1"/>
<text text-anchor="middle" x="897.41" y="-245.5" font-family="Helvetica,sans-Serif" font-size="10.00"> #controllerKind</text>
</g>
<!-- Node13 -->
<g id="node13" class="node">
<title>Node13</title>
<g id="a_node13"><a xlink:title=" ">
<polygon fill="none" stroke="#bfbfbf" points="783.91,-782 783.91,-839 818.91,-839 818.91,-782 783.91,-782"/>
<text text-anchor="middle" x="801.41" y="-827" font-family="Helvetica,sans-Serif" font-size="10.00">bool</text>
<polyline fill="none" stroke="#bfbfbf" points="783.91,-820 818.91,-820 "/>
<text text-anchor="middle" x="801.41" y="-808" font-family="Helvetica,sans-Serif" font-size="10.00"> </text>
<polyline fill="none" stroke="#bfbfbf" points="783.91,-801 818.91,-801 "/>
<text text-anchor="middle" x="801.41" y="-789" font-family="Helvetica,sans-Serif" font-size="10.00"> </text>
</a>
</g>
</g>
<!-- Node13&#45;&gt;Node2 -->
<g id="edge13" class="edge">
<title>Node13&#45;&gt;Node2</title>
<path fill="none" stroke="#404040" d="M794.66,-782C781.94,-729.43 754.23,-610.96 737.41,-510 720.27,-407.12 753.16,-371.68 709.41,-277 701.3,-259.45 689.61,-242.74 676.86,-227.69"/>
<polygon fill="none" stroke="#404040" points="676.73,-227.55 669.76,-225.69 668.8,-218.54 675.77,-220.4 676.73,-227.55"/>
<text text-anchor="middle" x="787.41" y="-484" font-family="Helvetica,sans-Serif" font-size="10.00"> #isInvencible</text>
<text text-anchor="middle" x="787.41" y="-473" font-family="Helvetica,sans-Serif" font-size="10.00">#playerFacingDirection</text>
<text text-anchor="middle" x="787.41" y="-462" font-family="Helvetica,sans-Serif" font-size="10.00">#playerOnLeft</text>
</g>
<!-- Node13&#45;&gt;Node15 -->
<g id="edge26" class="edge">
<title>Node13&#45;&gt;Node15</title>
<path fill="none" stroke="#404040" d="M798.7,-781.65C794.78,-729.37 791.78,-614.06 830.41,-528 840.72,-505.04 877.37,-464.33 913.22,-427.74"/>
<polygon fill="none" stroke="#404040" points="913.38,-427.57 914.75,-420.49 921.81,-419.03 920.44,-426.11 913.38,-427.57"/>
<text text-anchor="middle" x="866.91" y="-626" font-family="Helvetica,sans-Serif" font-size="10.00"> ~awaitingAttack</text>
<text text-anchor="middle" x="866.91" y="-615" font-family="Helvetica,sans-Serif" font-size="10.00">~praying</text>
<text text-anchor="middle" x="866.91" y="-604" font-family="Helvetica,sans-Serif" font-size="10.00">~respawning</text>
<text text-anchor="middle" x="866.91" y="-593" font-family="Helvetica,sans-Serif" font-size="10.00">~roll</text>
</g>
<!-- Node13&#45;&gt;Node16 -->
<g id="edge24" class="edge">
<title>Node13&#45;&gt;Node16</title>
<path fill="none" stroke="#404040" d="M811.88,-781.66C821.57,-757.12 836,-723.8 846.41,-714 862.09,-699.23 872.87,-706.97 891.41,-696 894.83,-693.98 898.25,-691.84 901.66,-689.62"/>
<polygon fill="none" stroke="#404040" points="901.91,-689.46 904.63,-682.78 911.84,-682.73 909.12,-689.4 901.91,-689.46"/>
<text text-anchor="middle" x="885.91" y="-744.5" font-family="Helvetica,sans-Serif" font-size="10.00"> ~Grounded</text>
<text text-anchor="middle" x="885.91" y="-733.5" font-family="Helvetica,sans-Serif" font-size="10.00">~IsTouchingLedge</text>
<text text-anchor="middle" x="885.91" y="-722.5" font-family="Helvetica,sans-Serif" font-size="10.00">~IsTouchingWall</text>
</g>
<!-- Node14 -->
<g id="node14" class="node">
<title>Node14</title>
<g id="a_node14"><a xlink:title=" ">
<polygon fill="none" stroke="#bfbfbf" points="1081.41,-321.5 1081.41,-378.5 1153.41,-378.5 1153.41,-321.5 1081.41,-321.5"/>
<text text-anchor="middle" x="1117.41" y="-366.5" font-family="Helvetica,sans-Serif" font-size="10.00">AudioSource</text>
<polyline fill="none" stroke="#bfbfbf" points="1081.41,-359.5 1153.41,-359.5 "/>
<text text-anchor="middle" x="1117.41" y="-347.5" font-family="Helvetica,sans-Serif" font-size="10.00"> </text>
<polyline fill="none" stroke="#bfbfbf" points="1081.41,-340.5 1153.41,-340.5 "/>
<text text-anchor="middle" x="1117.41" y="-328.5" font-family="Helvetica,sans-Serif" font-size="10.00"> </text>
</a>
</g>
</g>
<!-- Node14&#45;&gt;Node2 -->
<g id="edge14" class="edge">
<title>Node14&#45;&gt;Node2</title>
<path fill="none" stroke="#404040" d="M1105.32,-321.27C1091.97,-294.45 1067.74,-255.27 1033.41,-237 922.72,-178.09 776.1,-162.22 684.78,-158.43"/>
<polygon fill="none" stroke="#404040" points="684.54,-158.42 678.4,-162.2 672.55,-157.98 678.69,-154.21 684.54,-158.42"/>
<text text-anchor="middle" x="1095.91" y="-251" font-family="Helvetica,sans-Serif" font-size="10.00"> #hitAttackSFX1</text>
<text text-anchor="middle" x="1095.91" y="-240" font-family="Helvetica,sans-Serif" font-size="10.00">#hitAttackSFX2</text>
</g>
<!-- Node15&#45;&gt;Node2 -->
<g id="edge15" class="edge">
<title>Node15&#45;&gt;Node2</title>
<path fill="none" stroke="#404040" d="M967.63,-277.39C959.45,-262.2 948.88,-247.57 935.41,-237 863.67,-180.69 758.47,-163.41 684.96,-158.66"/>
<polygon fill="none" stroke="#404040" points="684.51,-158.63 678.29,-162.29 672.53,-157.95 678.74,-154.3 684.51,-158.63"/>
<text text-anchor="middle" x="991.41" y="-245.5" font-family="Helvetica,sans-Serif" font-size="10.00"> #playerController</text>
</g>
<!-- Node16&#45;&gt;Node15 -->
<g id="edge17" class="edge">
<title>Node16&#45;&gt;Node15</title>
<path fill="none" stroke="#404040" d="M992.41,-528.38C992.41,-498.58 992.41,-464.94 992.41,-435.02"/>
<polygon fill="none" stroke="#404040" points="992.41,-434.89 988.41,-428.89 992.41,-422.89 996.41,-428.89 992.41,-434.89"/>
<text text-anchor="middle" x="1039.41" y="-473" font-family="Helvetica,sans-Serif" font-size="10.00"> #playerMovementCtrl</text>
</g>
<!-- Node17 -->
<g id="node17" class="node">
<title>Node17</title>
<g id="a_node17"><a xlink:href="class_player_1_1_player_movement_controller_1_1_bool_event.html" target="_top" xlink:title=" ">
<polygon fill="none" stroke="black" points="837.41,-776.5 837.41,-844.5 1001.41,-844.5 1001.41,-776.5 837.41,-776.5"/>
<text text-anchor="start" x="845.41" y="-832.5" font-family="Helvetica,sans-Serif" font-size="10.00">Player.PlayerMovementController.</text>
<text text-anchor="middle" x="919.41" y="-821.5" font-family="Helvetica,sans-Serif" font-size="10.00">BoolEvent</text>
<polyline fill="none" stroke="black" points="837.41,-814.5 1001.41,-814.5 "/>
<text text-anchor="middle" x="919.41" y="-802.5" font-family="Helvetica,sans-Serif" font-size="10.00"> </text>
<polyline fill="none" stroke="black" points="837.41,-795.5 1001.41,-795.5 "/>
<text text-anchor="middle" x="919.41" y="-783.5" font-family="Helvetica,sans-Serif" font-size="10.00"> </text>
</a>
</g>
</g>
<!-- Node17&#45;&gt;Node16 -->
<g id="edge19" class="edge">
<title>Node17&#45;&gt;Node16</title>
<path fill="none" stroke="#404040" d="M925.51,-776.26C929.4,-757.65 935.08,-734.2 942.41,-714 943.27,-711.63 944.17,-709.24 945.11,-706.84"/>
<polygon fill="none" stroke="#404040" points="945.17,-706.69 943.73,-699.62 949.7,-695.58 951.14,-702.65 945.17,-706.69"/>
<text text-anchor="middle" x="980.91" y="-733.5" font-family="Helvetica,sans-Serif" font-size="10.00"> +OnCrouchEvent</text>
</g>
<!-- Node18 -->
<g id="node18" class="node">
<title>Node18</title>
<g id="a_node18"><a xlink:title=" ">
<polygon fill="none" stroke="#bfbfbf" points="869.91,-882.5 869.91,-939.5 968.91,-939.5 968.91,-882.5 869.91,-882.5"/>
<text text-anchor="middle" x="919.41" y="-927.5" font-family="Helvetica,sans-Serif" font-size="10.00">UnityEvent&lt; bool &gt;</text>
<polyline fill="none" stroke="#bfbfbf" points="869.91,-920.5 968.91,-920.5 "/>
<text text-anchor="middle" x="919.41" y="-908.5" font-family="Helvetica,sans-Serif" font-size="10.00"> </text>
<polyline fill="none" stroke="#bfbfbf" points="869.91,-901.5 968.91,-901.5 "/>
<text text-anchor="middle" x="919.41" y="-889.5" font-family="Helvetica,sans-Serif" font-size="10.00"> </text>
</a>
</g>
</g>
<!-- Node18&#45;&gt;Node17 -->
<g id="edge20" class="edge">
<title>Node18&#45;&gt;Node17</title>
<path fill="none" stroke="midnightblue" d="M919.41,-872.01C919.41,-862.96 919.41,-853.38 919.41,-844.58"/>
<polygon fill="none" stroke="midnightblue" points="915.91,-872.3 919.41,-882.3 922.91,-872.3 915.91,-872.3"/>
</g>
<!-- Node19 -->
<g id="node19" class="node">
<title>Node19</title>
<g id="a_node19"><a xlink:title=" ">
<polygon fill="none" stroke="#bfbfbf" points="1019.91,-782 1019.91,-839 1082.91,-839 1082.91,-782 1019.91,-782"/>
<text text-anchor="middle" x="1051.41" y="-827" font-family="Helvetica,sans-Serif" font-size="10.00">UnityEvent</text>
<polyline fill="none" stroke="#bfbfbf" points="1019.91,-820 1082.91,-820 "/>
<text text-anchor="middle" x="1051.41" y="-808" font-family="Helvetica,sans-Serif" font-size="10.00"> </text>
<polyline fill="none" stroke="#bfbfbf" points="1019.91,-801 1082.91,-801 "/>
<text text-anchor="middle" x="1051.41" y="-789" font-family="Helvetica,sans-Serif" font-size="10.00"> </text>
</a>
</g>
</g>
<!-- Node19&#45;&gt;Node16 -->
<g id="edge21" class="edge">
<title>Node19&#45;&gt;Node16</title>
<path fill="none" stroke="#404040" d="M1043.08,-781.76C1037.19,-762.14 1028.92,-734.58 1020.76,-707.42"/>
<polygon fill="none" stroke="#404040" points="1020.73,-707.32 1015.17,-702.72 1017.28,-695.82 1022.83,-700.42 1020.73,-707.32"/>
<text text-anchor="middle" x="1067.41" y="-739" font-family="Helvetica,sans-Serif" font-size="10.00"> +OnAirEvent</text>
<text text-anchor="middle" x="1067.41" y="-728" font-family="Helvetica,sans-Serif" font-size="10.00">+OnLandEvent</text>
</g>
<!-- Node20 -->
<g id="node20" class="node">
<title>Node20</title>
<g id="a_node20"><a xlink:title=" ">
<polygon fill="none" stroke="#bfbfbf" points="1105.41,-782 1105.41,-839 1155.41,-839 1155.41,-782 1105.41,-782"/>
<text text-anchor="middle" x="1130.41" y="-827" font-family="Helvetica,sans-Serif" font-size="10.00">Vector3</text>
<polyline fill="none" stroke="#bfbfbf" points="1105.41,-820 1155.41,-820 "/>
<text text-anchor="middle" x="1130.41" y="-808" font-family="Helvetica,sans-Serif" font-size="10.00"> </text>
<polyline fill="none" stroke="#bfbfbf" points="1105.41,-801 1155.41,-801 "/>
<text text-anchor="middle" x="1130.41" y="-789" font-family="Helvetica,sans-Serif" font-size="10.00"> </text>
</a>
</g>
</g>
<!-- Node20&#45;&gt;Node16 -->
<g id="edge23" class="edge">
<title>Node20&#45;&gt;Node16</title>
<path fill="none" stroke="#404040" d="M1126.77,-781.93C1123.18,-761.91 1116.28,-734.81 1103.41,-714 1097.14,-703.86 1089.56,-694.12 1081.35,-684.96"/>
<polygon fill="none" stroke="#404040" points="1081.16,-684.76 1074.14,-683.12 1072.95,-676 1079.97,-677.64 1081.16,-684.76"/>
<text text-anchor="middle" x="1142.91" y="-733.5" font-family="Helvetica,sans-Serif" font-size="10.00"> ~Velocity</text>
</g>
</g>
</svg>
        <g id="navigator" transform="translate(0 0)" fill="#404254">
                <rect fill="#f2f5e9" fill-opacity="0.5" stroke="#606060" stroke-width=".5" x="0" y="0" width="60" height="60"/>
                <use id="zoomplus" xlink:href="#zoomPlus" x="17" y="9" onmousedown="handleZoom(evt,'in')"/>
                <use id="zoomminus" xlink:href="#zoomMin" x="42" y="9" onmousedown="handleZoom(evt,'out')"/>
                <use id="reset" xlink:href="#resetDef" x="30" y="36" onmousedown="handleReset()"/>
                <g id="arrowUp" xlink:href="#dirArrow" transform="translate(30 24)" onmousedown="handlePan(0,-1)">
                  <use xlink:href="#rim" fill="#404040">
                        <set attributeName="fill" to="#808080" begin="arrowUp.mouseover" end="arrowUp.mouseout"/>
                  </use>
                  <path fill="none" stroke="white" stroke-width="1.5" d="M0,-3.0v7 M-2.5,-0.5L0,-3.0L2.5,-0.5"/>
                </g>
                <g id="arrowRight" xlink:href="#dirArrow" transform="rotate(90) translate(36 -43)" onmousedown="handlePan(1,0)">
                  <use xlink:href="#rim" fill="#404040">
                        <set attributeName="fill" to="#808080" begin="arrowRight.mouseover" end="arrowRight.mouseout"/>
                  </use>
                  <path fill="none" stroke="white" stroke-width="1.5" d="M0,-3.0v7 M-2.5,-0.5L0,-3.0L2.5,-0.5"/>
                </g>
                <g id="arrowDown" xlink:href="#dirArrow" transform="rotate(180) translate(-30 -48)" onmousedown="handlePan(0,1)">
                  <use xlink:href="#rim" fill="#404040">
                        <set attributeName="fill" to="#808080" begin="arrowDown.mouseover" end="arrowDown.mouseout"/>
                  </use>
                  <path fill="none" stroke="white" stroke-width="1.5" d="M0,-3.0v7 M-2.5,-0.5L0,-3.0L2.5,-0.5"/>
                </g>
                <g id="arrowLeft" xlink:href="#dirArrow" transform="rotate(270) translate(-36 17)" onmousedown="handlePan(-1,0)">
                  <use xlink:href="#rim" fill="#404040">
                        <set attributeName="fill" to="#808080" begin="arrowLeft.mouseover" end="arrowLeft.mouseout"/>
                  </use>
                  <path fill="none" stroke="white" stroke-width="1.5" d="M0,-3.0v7 M-2.5,-0.5L0,-3.0L2.5,-0.5"/>
                </g>
        </g>
        <svg viewBox="0 0 15 15" width="100%" height="30px" preserveAspectRatio="xMaxYMin meet">
         <g id="arrow_out" transform="scale(0.3 0.3)">
          <a xlink:href="class_controllers_1_1_dummy_controller__coll__graph_org.svg" target="_base">
           <rect id="button" ry="5" rx="5" y="6" x="6" height="38" width="38"
                fill="#f2f5e9" fill-opacity="0.5" stroke="#606060" stroke-width="1.0"/>
           <path id="arrow"
             d="M 11.500037,31.436501 C 11.940474,20.09759 22.043105,11.32322 32.158766,21.979434 L 37.068811,17.246167 C 37.068811,17.246167 37.088388,32 37.088388,32 L 22.160133,31.978069 C 22.160133,31.978069 26.997745,27.140456 26.997745,27.140456 C 18.528582,18.264221 13.291696,25.230495 11.500037,31.436501 z"
             style="fill:#404040;"/>
          </a>
         </g>
        </svg>
</svg>
