<?xml version="1.0" encoding="UTF-8" standalone="no"?>
<!DOCTYPE svg PUBLIC "-//W3C//DTD SVG 1.1//EN"
 "http://www.w3.org/Graphics/SVG/1.1/DTD/svg11.dtd">
<!-- Generated by graphviz version 2.48.0 (20210717.1556)
 -->
<!-- Title: ScriptableObject Pages: 1 -->
<svg width="841pt" height="237pt"
 viewBox="0.00 0.00 841.00 237.00" xmlns="http://www.w3.org/2000/svg" xmlns:xlink="http://www.w3.org/1999/xlink">
<g id="graph0" class="graph" transform="scale(1 1) rotate(0) translate(4 233)">
<title>ScriptableObject</title>
<!-- Node1 -->
<g id="node1" class="node">
<title>Node1</title>
<g id="a_node1"><a xlink:title=" ">
<polygon fill="#bfbfbf" stroke="black" points="352,-171.5 352,-228.5 441,-228.5 441,-171.5 352,-171.5"/>
<text text-anchor="middle" x="396.5" y="-216.5" font-family="Helvetica,sans-Serif" font-size="10.00">ScriptableObject</text>
<polyline fill="none" stroke="black" points="352,-209.5 441,-209.5 "/>
<text text-anchor="middle" x="396.5" y="-197.5" font-family="Helvetica,sans-Serif" font-size="10.00"> </text>
<polyline fill="none" stroke="black" points="352,-190.5 441,-190.5 "/>
<text text-anchor="middle" x="396.5" y="-178.5" font-family="Helvetica,sans-Serif" font-size="10.00"> </text>
</a>
</g>
</g>
<!-- Node2 -->
<g id="node2" class="node">
<title>Node2</title>
<g id="a_node2"><a xlink:href="class_controllers_1_1_state_machine_1_1_states_1_1_data_1_1_attack_state_data.html" target="_top" xlink:title=" ">
<polygon fill="none" stroke="black" points="0,-28 0,-107 143,-107 143,-28 0,-28"/>
<text text-anchor="start" x="8" y="-95" font-family="Helvetica,sans-Serif" font-size="10.00">Controllers.StateMachine.</text>
<text text-anchor="middle" x="71.5" y="-84" font-family="Helvetica,sans-Serif" font-size="10.00">States.Data.AttackStateData</text>
<polyline fill="none" stroke="black" points="0,-77 143,-77 "/>
<text text-anchor="start" x="8" y="-65" font-family="Helvetica,sans-Serif" font-size="10.00">+ float duration</text>
<text text-anchor="start" x="8" y="-54" font-family="Helvetica,sans-Serif" font-size="10.00">+ float damage</text>
<polyline fill="none" stroke="black" points="0,-47 143,-47 "/>
<text text-anchor="middle" x="71.5" y="-35" font-family="Helvetica,sans-Serif" font-size="10.00"> </text>
</a>
</g>
</g>
<!-- Node1&#45;&gt;Node2 -->
<g id="edge1" class="edge">
<title>Node1&#45;&gt;Node2</title>
<path fill="none" stroke="midnightblue" d="M341.52,-191.51C290.42,-182.98 213.26,-166.01 152.5,-135 138.08,-127.64 123.89,-117.36 111.52,-107.08"/>
<polygon fill="none" stroke="midnightblue" points="341.27,-195.02 351.7,-193.16 342.38,-188.11 341.27,-195.02"/>
</g>
<!-- Node3 -->
<g id="node3" class="node">
<title>Node3</title>
<g id="a_node3"><a xlink:href="class_controllers_1_1_state_machine_1_1_states_1_1_data_1_1_controller_data.html" target="_top" xlink:title=" ">
<polygon fill="none" stroke="black" points="161.5,-6 161.5,-129 313.5,-129 313.5,-6 161.5,-6"/>
<text text-anchor="start" x="169.5" y="-117" font-family="Helvetica,sans-Serif" font-size="10.00">Controllers.StateMachine.</text>
<text text-anchor="middle" x="237.5" y="-106" font-family="Helvetica,sans-Serif" font-size="10.00">States.Data.ControllerData</text>
<polyline fill="none" stroke="black" points="161.5,-99 313.5,-99 "/>
<text text-anchor="start" x="169.5" y="-87" font-family="Helvetica,sans-Serif" font-size="10.00">+ float wallCheckDistance</text>
<text text-anchor="start" x="169.5" y="-76" font-family="Helvetica,sans-Serif" font-size="10.00">+ float ledgeCheckDistacne</text>
<text text-anchor="start" x="169.5" y="-65" font-family="Helvetica,sans-Serif" font-size="10.00">+ float groundCheckDistance</text>
<text text-anchor="start" x="169.5" y="-54" font-family="Helvetica,sans-Serif" font-size="10.00">+ float topCheckDistance</text>
<text text-anchor="start" x="169.5" y="-43" font-family="Helvetica,sans-Serif" font-size="10.00">+ float playerDetectionDistance</text>
<text text-anchor="start" x="169.5" y="-32" font-family="Helvetica,sans-Serif" font-size="10.00">+ LayerMask whatIsGround</text>
<polyline fill="none" stroke="black" points="161.5,-25 313.5,-25 "/>
<text text-anchor="middle" x="237.5" y="-13" font-family="Helvetica,sans-Serif" font-size="10.00"> </text>
</a>
</g>
</g>
<!-- Node1&#45;&gt;Node3 -->
<g id="edge2" class="edge">
<title>Node1&#45;&gt;Node3</title>
<path fill="none" stroke="midnightblue" d="M354.75,-164.73C341.44,-153.81 326.29,-141.38 311.41,-129.16"/>
<polygon fill="none" stroke="midnightblue" points="352.83,-167.69 362.78,-171.32 357.27,-162.27 352.83,-167.69"/>
</g>
<!-- Node4 -->
<g id="node4" class="node">
<title>Node4</title>
<g id="a_node4"><a xlink:href="class_controllers_1_1_state_machine_1_1_states_1_1_data_1_1_idle_state_data.html" target="_top" xlink:title=" ">
<polygon fill="none" stroke="black" points="331.5,-28 331.5,-107 461.5,-107 461.5,-28 331.5,-28"/>
<text text-anchor="start" x="339.5" y="-95" font-family="Helvetica,sans-Serif" font-size="10.00">Controllers.StateMachine.</text>
<text text-anchor="middle" x="396.5" y="-84" font-family="Helvetica,sans-Serif" font-size="10.00">States.Data.IdleStateData</text>
<polyline fill="none" stroke="black" points="331.5,-77 461.5,-77 "/>
<text text-anchor="start" x="339.5" y="-65" font-family="Helvetica,sans-Serif" font-size="10.00">+ float minIdleTime</text>
<text text-anchor="start" x="339.5" y="-54" font-family="Helvetica,sans-Serif" font-size="10.00">+ float maxIdleTime</text>
<polyline fill="none" stroke="black" points="331.5,-47 461.5,-47 "/>
<text text-anchor="middle" x="396.5" y="-35" font-family="Helvetica,sans-Serif" font-size="10.00"> </text>
</a>
</g>
</g>
<!-- Node1&#45;&gt;Node4 -->
<g id="edge3" class="edge">
<title>Node1&#45;&gt;Node4</title>
<path fill="none" stroke="midnightblue" d="M396.5,-161.18C396.5,-144.17 396.5,-124.12 396.5,-107.03"/>
<polygon fill="none" stroke="midnightblue" points="393,-161.32 396.5,-171.32 400,-161.32 393,-161.32"/>
</g>
<!-- Node5 -->
<g id="node5" class="node">
<title>Node5</title>
<g id="a_node5"><a xlink:href="class_controllers_1_1_state_machine_1_1_states_1_1_data_1_1_jump_state_data.html" target="_top" xlink:title=" ">
<polygon fill="none" stroke="black" points="479.5,-0.5 479.5,-134.5 637.5,-134.5 637.5,-0.5 479.5,-0.5"/>
<text text-anchor="start" x="487.5" y="-122.5" font-family="Helvetica,sans-Serif" font-size="10.00">Controllers.StateMachine.</text>
<text text-anchor="middle" x="558.5" y="-111.5" font-family="Helvetica,sans-Serif" font-size="10.00">States.Data.JumpStateData</text>
<polyline fill="none" stroke="black" points="479.5,-104.5 637.5,-104.5 "/>
<text text-anchor="start" x="487.5" y="-92.5" font-family="Helvetica,sans-Serif" font-size="10.00">+ Vector2 jumpingForce</text>
<text text-anchor="start" x="487.5" y="-81.5" font-family="Helvetica,sans-Serif" font-size="10.00">+ float jumpingCooldownRandom</text>
<text text-anchor="start" x="487.5" y="-70.5" font-family="Helvetica,sans-Serif" font-size="10.00">RangeFrom</text>
<text text-anchor="start" x="487.5" y="-59.5" font-family="Helvetica,sans-Serif" font-size="10.00">+ float jumpingCooldownRandom</text>
<text text-anchor="start" x="487.5" y="-48.5" font-family="Helvetica,sans-Serif" font-size="10.00">RangeTo</text>
<text text-anchor="start" x="487.5" y="-37.5" font-family="Helvetica,sans-Serif" font-size="10.00">+ AudioClip jumpSFX</text>
<text text-anchor="start" x="487.5" y="-26.5" font-family="Helvetica,sans-Serif" font-size="10.00">+ AudioClip landSFX</text>
<polyline fill="none" stroke="black" points="479.5,-19.5 637.5,-19.5 "/>
<text text-anchor="middle" x="558.5" y="-7.5" font-family="Helvetica,sans-Serif" font-size="10.00"> </text>
</a>
</g>
</g>
<!-- Node1&#45;&gt;Node5 -->
<g id="edge4" class="edge">
<title>Node1&#45;&gt;Node5</title>
<path fill="none" stroke="midnightblue" d="M438.78,-164.94C451.21,-154.92 465.24,-143.63 479.2,-132.38"/>
<polygon fill="none" stroke="midnightblue" points="436.45,-162.33 430.86,-171.32 440.84,-167.78 436.45,-162.33"/>
</g>
<!-- Node6 -->
<g id="node6" class="node">
<title>Node6</title>
<g id="a_node6"><a xlink:href="class_controllers_1_1_state_machine_1_1_states_1_1_data_1_1_prepare_attack_state_data.html" target="_top" xlink:title=" ">
<polygon fill="none" stroke="black" points="656,-28 656,-107 833,-107 833,-28 656,-28"/>
<text text-anchor="start" x="664" y="-95" font-family="Helvetica,sans-Serif" font-size="10.00">Controllers.StateMachine.</text>
<text text-anchor="middle" x="744.5" y="-84" font-family="Helvetica,sans-Serif" font-size="10.00">States.Data.PrepareAttackStateData</text>
<polyline fill="none" stroke="black" points="656,-77 833,-77 "/>
<text text-anchor="start" x="664" y="-65" font-family="Helvetica,sans-Serif" font-size="10.00">+ bool followPlayerDirection</text>
<text text-anchor="start" x="664" y="-54" font-family="Helvetica,sans-Serif" font-size="10.00">+ float cooldown</text>
<polyline fill="none" stroke="black" points="656,-47 833,-47 "/>
<text text-anchor="middle" x="744.5" y="-35" font-family="Helvetica,sans-Serif" font-size="10.00"> </text>
</a>
</g>
</g>
<!-- Node1&#45;&gt;Node6 -->
<g id="edge5" class="edge">
<title>Node1&#45;&gt;Node6</title>
<path fill="none" stroke="midnightblue" d="M451.41,-190.58C503.32,-181.33 582.55,-163.82 646.5,-135 663.09,-127.52 679.92,-117.27 694.84,-107.05"/>
<polygon fill="none" stroke="midnightblue" points="450.66,-187.16 441.41,-192.32 451.86,-194.05 450.66,-187.16"/>
</g>
</g>
</svg>
