<?xml version="1.0" encoding="UTF-8" standalone="no"?>
<!DOCTYPE svg PUBLIC "-//W3C//DTD SVG 1.1//EN"
 "http://www.w3.org/Graphics/SVG/1.1/DTD/svg11.dtd">
<!-- Generated by graphviz version 2.48.0 (20210717.1556)
 -->
<!-- Title: Froggy_IdleState Pages: 1 -->
<!--zoomable 1616 -->
<svg id="main" version="1.1" xmlns="http://www.w3.org/2000/svg" xmlns:xlink="http://www.w3.org/1999/xlink" xml:space="preserve" onload="init(evt)">
<style type="text/css"><![CDATA[
.edge:hover path { stroke: red; }
.edge:hover polygon { stroke: red; fill: red; }
]]></style>
<script type="text/javascript"><![CDATA[
var edges = document.getElementsByTagName('g');
if (edges && edges.length) {
  for (var i=0;i<edges.length;i++) {
    if (edges[i].id.substr(0,4)=='edge') {
      edges[i].setAttribute('class','edge');
    }
  }
}
]]></script>
        <defs>
                <circle id="rim" cx="0" cy="0" r="7"/>
                <circle id="rim2" cx="0" cy="0" r="3.5"/>
                <g id="zoomPlus">
                        <use xlink:href="#rim" fill="#404040">
                                <set attributeName="fill" to="#808080" begin="zoomplus.mouseover" end="zoomplus.mouseout"/>
                        </use>
                        <path d="M-4,0h8M0,-4v8" fill="none" stroke="white" stroke-width="1.5" pointer-events="none"/>
                </g>
                <g id="zoomMin">
                        <use xlink:href="#rim" fill="#404040">
                                <set attributeName="fill" to="#808080" begin="zoomminus.mouseover" end="zoomminus.mouseout"/>
                        </use>
                        <path d="M-4,0h8" fill="none" stroke="white" stroke-width="1.5" pointer-events="none"/>
                </g>
                <g id="dirArrow">
                        <path fill="none" stroke="white" stroke-width="1.5" d="M0,-3.0v7 M-2.5,-0.5L0,-3.0L2.5,-0.5"/>
                </g>
               <g id="resetDef">
                       <use xlink:href="#rim2" fill="#404040">
                               <set attributeName="fill" to="#808080" begin="reset.mouseover" end="reset.mouseout"/>
                       </use>
               </g>
        </defs>

<script type="text/javascript">
var viewWidth = 1536;
var viewHeight = 1616;
var sectionId = 'dynsection-1';
</script>
<script xlink:href="svgpan.js"/>
<svg id="graph" class="graph">
<g id="viewport">
<title>Froggy_IdleState</title>
<!-- Node1 -->
<g id="node1" class="node">
<title>Node1</title>
<g id="a_node1"><a xlink:title=" ">
<polygon fill="#bfbfbf" stroke="black" points="1211.96,-0.5 1211.96,-145.5 1411.96,-145.5 1411.96,-0.5 1211.96,-0.5"/>
<text text-anchor="middle" x="1311.96" y="-133.5" font-family="Helvetica,sans-Serif" font-size="10.00">Froggy_IdleState</text>
<polyline fill="none" stroke="black" points="1211.96,-126.5 1411.96,-126.5 "/>
<text text-anchor="middle" x="1311.96" y="-114.5" font-family="Helvetica,sans-Serif" font-size="10.00"> </text>
<polyline fill="none" stroke="black" points="1211.96,-107.5 1411.96,-107.5 "/>
<text text-anchor="start" x="1219.96" y="-95.5" font-family="Helvetica,sans-Serif" font-size="10.00">+ Froggy_IdleState(BaseController</text>
<text text-anchor="start" x="1219.96" y="-84.5" font-family="Helvetica,sans-Serif" font-size="10.00"> controller, ControllerStateMachine</text>
<text text-anchor="start" x="1219.96" y="-73.5" font-family="Helvetica,sans-Serif" font-size="10.00"> stateMachine, string animBoolName,</text>
<text text-anchor="start" x="1219.96" y="-62.5" font-family="Helvetica,sans-Serif" font-size="10.00"> IdleStateData stateData, FroggyController</text>
<text text-anchor="start" x="1219.96" y="-51.5" font-family="Helvetica,sans-Serif" font-size="10.00"> froggyController)</text>
<text text-anchor="start" x="1219.96" y="-40.5" font-family="Helvetica,sans-Serif" font-size="10.00">+ override void UpdateState()</text>
<text text-anchor="start" x="1219.96" y="-29.5" font-family="Helvetica,sans-Serif" font-size="10.00">+ override void Enter()</text>
<text text-anchor="start" x="1219.96" y="-18.5" font-family="Helvetica,sans-Serif" font-size="10.00">+ override void Exit()</text>
<text text-anchor="start" x="1219.96" y="-7.5" font-family="Helvetica,sans-Serif" font-size="10.00">+ override void UpdatePhysics()</text>
</a>
</g>
</g>
<!-- Node2 -->
<g id="node2" class="node">
<title>Node2</title>
<g id="a_node2"><a xlink:href="class_controllers_1_1_state_machine_1_1_states_1_1_idle_state.html" target="_top" xlink:title=" ">
<polygon fill="none" stroke="black" points="1221.96,-183.5 1221.96,-350.5 1401.96,-350.5 1401.96,-183.5 1221.96,-183.5"/>
<text text-anchor="middle" x="1311.96" y="-338.5" font-family="Helvetica,sans-Serif" font-size="10.00">IdleState</text>
<polyline fill="none" stroke="black" points="1221.96,-331.5 1401.96,-331.5 "/>
<text text-anchor="middle" x="1311.96" y="-319.5" font-family="Helvetica,sans-Serif" font-size="10.00"> </text>
<polyline fill="none" stroke="black" points="1221.96,-312.5 1401.96,-312.5 "/>
<text text-anchor="start" x="1229.96" y="-300.5" font-family="Helvetica,sans-Serif" font-size="10.00">+ IdleState(BaseController</text>
<text text-anchor="start" x="1229.96" y="-289.5" font-family="Helvetica,sans-Serif" font-size="10.00"> controller, ControllerStateMachine</text>
<text text-anchor="start" x="1229.96" y="-278.5" font-family="Helvetica,sans-Serif" font-size="10.00"> stateMachine, string animBoolName,</text>
<text text-anchor="start" x="1229.96" y="-267.5" font-family="Helvetica,sans-Serif" font-size="10.00"> IdleStateData stateData)</text>
<text text-anchor="start" x="1229.96" y="-256.5" font-family="Helvetica,sans-Serif" font-size="10.00">+ override void Enter()</text>
<text text-anchor="start" x="1229.96" y="-245.5" font-family="Helvetica,sans-Serif" font-size="10.00">+ override void Exit()</text>
<text text-anchor="start" x="1229.96" y="-234.5" font-family="Helvetica,sans-Serif" font-size="10.00">+ override void UpdateState()</text>
<text text-anchor="start" x="1229.96" y="-223.5" font-family="Helvetica,sans-Serif" font-size="10.00">+ override void UpdatePhysics()</text>
<text text-anchor="start" x="1229.96" y="-212.5" font-family="Helvetica,sans-Serif" font-size="10.00">+ void SetFlipAfterIdle</text>
<text text-anchor="start" x="1229.96" y="-201.5" font-family="Helvetica,sans-Serif" font-size="10.00">(bool flip)</text>
<text text-anchor="start" x="1229.96" y="-190.5" font-family="Helvetica,sans-Serif" font-size="10.00">+ void SetRandomIdleTime()</text>
</a>
</g>
</g>
<!-- Node2&#45;&gt;Node1 -->
<g id="edge1" class="edge">
<title>Node2&#45;&gt;Node1</title>
<path fill="none" stroke="midnightblue" d="M1311.96,-173.37C1311.96,-164.03 1311.96,-154.66 1311.96,-145.6"/>
<polygon fill="none" stroke="midnightblue" points="1308.46,-173.46 1311.96,-183.46 1315.46,-173.46 1308.46,-173.46"/>
</g>
<!-- Node3 -->
<g id="node3" class="node">
<title>Node3</title>
<g id="a_node3"><a xlink:href="class_controllers_1_1_state_machine_1_1_state.html" target="_top" xlink:title="Clase base para los estados de cada personaje. Controla el ciclo de vida de cada estado (Enter,...">
<polygon fill="none" stroke="black" points="1239.46,-388.5 1239.46,-522.5 1384.46,-522.5 1384.46,-388.5 1239.46,-388.5"/>
<text text-anchor="middle" x="1311.96" y="-510.5" font-family="Helvetica,sans-Serif" font-size="10.00">State</text>
<polyline fill="none" stroke="black" points="1239.46,-503.5 1384.46,-503.5 "/>
<text text-anchor="middle" x="1311.96" y="-491.5" font-family="Helvetica,sans-Serif" font-size="10.00"> </text>
<polyline fill="none" stroke="black" points="1239.46,-484.5 1384.46,-484.5 "/>
<text text-anchor="start" x="1247.46" y="-472.5" font-family="Helvetica,sans-Serif" font-size="10.00">+ State(BaseController</text>
<text text-anchor="start" x="1247.46" y="-461.5" font-family="Helvetica,sans-Serif" font-size="10.00"> controller, ControllerState</text>
<text text-anchor="start" x="1247.46" y="-450.5" font-family="Helvetica,sans-Serif" font-size="10.00">Machine stateMachine, string</text>
<text text-anchor="start" x="1247.46" y="-439.5" font-family="Helvetica,sans-Serif" font-size="10.00"> animBoolName)</text>
<text text-anchor="start" x="1247.46" y="-428.5" font-family="Helvetica,sans-Serif" font-size="10.00">+ virtual void Enter()</text>
<text text-anchor="start" x="1247.46" y="-417.5" font-family="Helvetica,sans-Serif" font-size="10.00">+ virtual void Exit()</text>
<text text-anchor="start" x="1247.46" y="-406.5" font-family="Helvetica,sans-Serif" font-size="10.00">+ virtual void UpdateState()</text>
<text text-anchor="start" x="1247.46" y="-395.5" font-family="Helvetica,sans-Serif" font-size="10.00">+ virtual void UpdatePhysics()</text>
</a>
</g>
</g>
<!-- Node3&#45;&gt;Node2 -->
<g id="edge2" class="edge">
<title>Node3&#45;&gt;Node2</title>
<path fill="none" stroke="midnightblue" d="M1311.96,-378.29C1311.96,-369.16 1311.96,-359.81 1311.96,-350.59"/>
<polygon fill="none" stroke="midnightblue" points="1308.46,-378.48 1311.96,-388.48 1315.46,-378.48 1308.46,-378.48"/>
</g>
<!-- Node4 -->
<g id="node4" class="node">
<title>Node4</title>
<g id="a_node4"><a xlink:title=" ">
<polygon fill="none" stroke="#bfbfbf" points="1388.46,-818 1388.46,-875 1429.46,-875 1429.46,-818 1388.46,-818"/>
<text text-anchor="middle" x="1408.96" y="-863" font-family="Helvetica,sans-Serif" font-size="10.00">string</text>
<polyline fill="none" stroke="#bfbfbf" points="1388.46,-856 1429.46,-856 "/>
<text text-anchor="middle" x="1408.96" y="-844" font-family="Helvetica,sans-Serif" font-size="10.00"> </text>
<polyline fill="none" stroke="#bfbfbf" points="1388.46,-837 1429.46,-837 "/>
<text text-anchor="middle" x="1408.96" y="-825" font-family="Helvetica,sans-Serif" font-size="10.00"> </text>
</a>
</g>
</g>
<!-- Node4&#45;&gt;Node3 -->
<g id="edge3" class="edge">
<title>Node4&#45;&gt;Node3</title>
<path fill="none" stroke="#404040" d="M1409.87,-817.97C1410.75,-763.24 1408.12,-637.72 1370.96,-541 1369.99,-538.49 1368.94,-535.98 1367.81,-533.49"/>
<polygon fill="none" stroke="#404040" points="1367.76,-533.39 1361.5,-529.8 1362.4,-522.65 1368.66,-526.23 1367.76,-533.39"/>
<text text-anchor="middle" x="1410.46" y="-544" font-family="Helvetica,sans-Serif" font-size="10.00"> #animBoolName</text>
</g>
<!-- Node5 -->
<g id="node5" class="node">
<title>Node5</title>
<g id="a_node5"><a xlink:href="class_controllers_1_1_base_controller.html" target="_top" xlink:title=" ">
<polygon fill="none" stroke="black" points="741.46,-570.5 741.46,-1122.5 914.46,-1122.5 914.46,-570.5 741.46,-570.5"/>
<text text-anchor="middle" x="827.96" y="-1110.5" font-family="Helvetica,sans-Serif" font-size="10.00">Controllers.BaseController</text>
<polyline fill="none" stroke="black" points="741.46,-1103.5 914.46,-1103.5 "/>
<text text-anchor="start" x="749.46" y="-1091.5" font-family="Helvetica,sans-Serif" font-size="10.00">+ int FacingDirection</text>
<text text-anchor="start" x="749.46" y="-1080.5" font-family="Helvetica,sans-Serif" font-size="10.00">+ bool IsReadyToAttack</text>
<text text-anchor="start" x="749.46" y="-1069.5" font-family="Helvetica,sans-Serif" font-size="10.00">+ bool wallDetected</text>
<text text-anchor="start" x="749.46" y="-1058.5" font-family="Helvetica,sans-Serif" font-size="10.00">+ bool groundDetected</text>
<text text-anchor="start" x="749.46" y="-1047.5" font-family="Helvetica,sans-Serif" font-size="10.00">+ bool topDetected</text>
<polyline fill="none" stroke="black" points="741.46,-1040.5 914.46,-1040.5 "/>
<text text-anchor="start" x="749.46" y="-1028.5" font-family="Helvetica,sans-Serif" font-size="10.00">+ void Flip()</text>
<text text-anchor="start" x="749.46" y="-1017.5" font-family="Helvetica,sans-Serif" font-size="10.00">+ void SetVelocity(float</text>
<text text-anchor="start" x="749.46" y="-1006.5" font-family="Helvetica,sans-Serif" font-size="10.00"> velocity)</text>
<text text-anchor="start" x="749.46" y="-995.5" font-family="Helvetica,sans-Serif" font-size="10.00">+ void AddForce(Vector2</text>
<text text-anchor="start" x="749.46" y="-984.5" font-family="Helvetica,sans-Serif" font-size="10.00"> newForce, bool isImpulse)</text>
<text text-anchor="start" x="749.46" y="-973.5" font-family="Helvetica,sans-Serif" font-size="10.00">+ void AddTorque(float</text>
<text text-anchor="start" x="749.46" y="-962.5" font-family="Helvetica,sans-Serif" font-size="10.00"> newTorque, bool isImpulse)</text>
<text text-anchor="start" x="749.46" y="-951.5" font-family="Helvetica,sans-Serif" font-size="10.00">+ T GetMovementController</text>
<text text-anchor="start" x="749.46" y="-940.5" font-family="Helvetica,sans-Serif" font-size="10.00">&lt; T &gt;()</text>
<text text-anchor="start" x="749.46" y="-929.5" font-family="Helvetica,sans-Serif" font-size="10.00">+ Animator GetAnimator()</text>
<text text-anchor="start" x="749.46" y="-918.5" font-family="Helvetica,sans-Serif" font-size="10.00">+ Transform GetTransfrom()</text>
<text text-anchor="start" x="749.46" y="-907.5" font-family="Helvetica,sans-Serif" font-size="10.00">+ GameObject GetDialogueBubble()</text>
<text text-anchor="start" x="749.46" y="-896.5" font-family="Helvetica,sans-Serif" font-size="10.00">+ bool CheckWall()</text>
<text text-anchor="start" x="749.46" y="-885.5" font-family="Helvetica,sans-Serif" font-size="10.00">+ bool CheckLedge()</text>
<text text-anchor="start" x="749.46" y="-874.5" font-family="Helvetica,sans-Serif" font-size="10.00">+ bool CheckGround()</text>
<text text-anchor="start" x="749.46" y="-863.5" font-family="Helvetica,sans-Serif" font-size="10.00">+ bool CheckPlayerInRange()</text>
<text text-anchor="start" x="749.46" y="-852.5" font-family="Helvetica,sans-Serif" font-size="10.00">+ void SwitchStates(ECharacter</text>
<text text-anchor="start" x="749.46" y="-841.5" font-family="Helvetica,sans-Serif" font-size="10.00">State nextState)</text>
<text text-anchor="start" x="749.46" y="-830.5" font-family="Helvetica,sans-Serif" font-size="10.00">+ void Anim_PreparingAttack</text>
<text text-anchor="start" x="749.46" y="-819.5" font-family="Helvetica,sans-Serif" font-size="10.00">Finished()</text>
<text text-anchor="start" x="749.46" y="-808.5" font-family="Helvetica,sans-Serif" font-size="10.00">+ virtual void Damage</text>
<text text-anchor="start" x="749.46" y="-797.5" font-family="Helvetica,sans-Serif" font-size="10.00">(float amount, int attackN)</text>
<text text-anchor="start" x="749.46" y="-786.5" font-family="Helvetica,sans-Serif" font-size="10.00">+ void Damage(BaseController</text>
<text text-anchor="start" x="749.46" y="-775.5" font-family="Helvetica,sans-Serif" font-size="10.00"> controller, DamageInfo</text>
<text text-anchor="start" x="749.46" y="-764.5" font-family="Helvetica,sans-Serif" font-size="10.00"> damageInfo)</text>
<text text-anchor="start" x="749.46" y="-753.5" font-family="Helvetica,sans-Serif" font-size="10.00">+ void Kill()</text>
<text text-anchor="start" x="749.46" y="-742.5" font-family="Helvetica,sans-Serif" font-size="10.00">+ bool Interact(BaseController</text>
<text text-anchor="start" x="749.46" y="-731.5" font-family="Helvetica,sans-Serif" font-size="10.00"> controller, EInteractionKind</text>
<text text-anchor="start" x="749.46" y="-720.5" font-family="Helvetica,sans-Serif" font-size="10.00"> interactionKind)</text>
<text text-anchor="start" x="749.46" y="-709.5" font-family="Helvetica,sans-Serif" font-size="10.00">+ bool Interact(PlayerController</text>
<text text-anchor="start" x="749.46" y="-698.5" font-family="Helvetica,sans-Serif" font-size="10.00"> controller, EInteractionKind</text>
<text text-anchor="start" x="749.46" y="-687.5" font-family="Helvetica,sans-Serif" font-size="10.00"> interactionKind)</text>
<text text-anchor="start" x="749.46" y="-676.5" font-family="Helvetica,sans-Serif" font-size="10.00">+ void ReadyToInteract</text>
<text text-anchor="start" x="749.46" y="-665.5" font-family="Helvetica,sans-Serif" font-size="10.00">(PlayerController controller,</text>
<text text-anchor="start" x="749.46" y="-654.5" font-family="Helvetica,sans-Serif" font-size="10.00"> bool isReady)</text>
<text text-anchor="start" x="749.46" y="-643.5" font-family="Helvetica,sans-Serif" font-size="10.00">+ void ReadyToInteract</text>
<text text-anchor="start" x="749.46" y="-632.5" font-family="Helvetica,sans-Serif" font-size="10.00">(BaseController controller,</text>
<text text-anchor="start" x="749.46" y="-621.5" font-family="Helvetica,sans-Serif" font-size="10.00"> bool isReady)</text>
<text text-anchor="start" x="749.46" y="-610.5" font-family="Helvetica,sans-Serif" font-size="10.00"># virtual void Start()</text>
<text text-anchor="start" x="749.46" y="-599.5" font-family="Helvetica,sans-Serif" font-size="10.00"># virtual void OnDrawGizmos()</text>
<text text-anchor="start" x="749.46" y="-588.5" font-family="Helvetica,sans-Serif" font-size="10.00"># virtual void OnEnterDead</text>
<text text-anchor="start" x="749.46" y="-577.5" font-family="Helvetica,sans-Serif" font-size="10.00">StateStart()</text>
</a>
</g>
</g>
<!-- Node5&#45;&gt;Node3 -->
<g id="edge4" class="edge">
<title>Node5&#45;&gt;Node3</title>
<path fill="none" stroke="#404040" d="M914.68,-773.74C990.12,-711.58 1102.63,-619.56 1201.96,-541 1210.86,-533.96 1220.21,-526.65 1229.55,-519.4"/>
<polygon fill="none" stroke="#404040" points="1229.76,-519.24 1232.06,-512.4 1239.25,-511.89 1236.95,-518.73 1229.76,-519.24"/>
<text text-anchor="middle" x="1226.46" y="-544" font-family="Helvetica,sans-Serif" font-size="10.00"> #controller</text>
</g>
<!-- Node6 -->
<g id="node6" class="node">
<title>Node6</title>
<g id="a_node6"><a xlink:href="interface_controllers_1_1_i_damageable.html" target="_top" xlink:title="Interfaz para todos los NPCs/Enemigos/Objetos que pueden ser daniados.">
<polygon fill="none" stroke="black" points="579.96,-1495.5 579.96,-1607.5 727.96,-1607.5 727.96,-1495.5 579.96,-1495.5"/>
<text text-anchor="middle" x="653.96" y="-1595.5" font-family="Helvetica,sans-Serif" font-size="10.00">IDamageable</text>
<polyline fill="none" stroke="black" points="579.96,-1588.5 727.96,-1588.5 "/>
<text text-anchor="middle" x="653.96" y="-1576.5" font-family="Helvetica,sans-Serif" font-size="10.00"> </text>
<polyline fill="none" stroke="black" points="579.96,-1569.5 727.96,-1569.5 "/>
<text text-anchor="start" x="587.96" y="-1557.5" font-family="Helvetica,sans-Serif" font-size="10.00">+ void Damage(float amount,</text>
<text text-anchor="start" x="587.96" y="-1546.5" font-family="Helvetica,sans-Serif" font-size="10.00"> int attackN)</text>
<text text-anchor="start" x="587.96" y="-1535.5" font-family="Helvetica,sans-Serif" font-size="10.00">+ void Damage(BaseController</text>
<text text-anchor="start" x="587.96" y="-1524.5" font-family="Helvetica,sans-Serif" font-size="10.00"> controller, DamageInfo</text>
<text text-anchor="start" x="587.96" y="-1513.5" font-family="Helvetica,sans-Serif" font-size="10.00"> damageInfo)</text>
<text text-anchor="start" x="587.96" y="-1502.5" font-family="Helvetica,sans-Serif" font-size="10.00">+ void Kill()</text>
</a>
</g>
</g>
<!-- Node6&#45;&gt;Node5 -->
<g id="edge5" class="edge">
<title>Node6&#45;&gt;Node5</title>
<path fill="none" stroke="midnightblue" d="M736.88,-1510.44C777.85,-1485.87 823.45,-1450.2 846.96,-1404 872.19,-1354.4 870.89,-1236.87 861.81,-1122.53"/>
<polygon fill="none" stroke="midnightblue" points="735.07,-1507.44 728.21,-1515.52 738.61,-1513.48 735.07,-1507.44"/>
</g>
<!-- Node19 -->
<g id="node19" class="node">
<title>Node19</title>
<g id="a_node19"><a xlink:href="class_player_1_1_player_controller.html" target="_top" xlink:title=" ">
<polygon fill="none" stroke="black" points="430.96,-1170.5 430.96,-1403.5 578.96,-1403.5 578.96,-1170.5 430.96,-1170.5"/>
<text text-anchor="middle" x="504.96" y="-1391.5" font-family="Helvetica,sans-Serif" font-size="10.00">Player.PlayerController</text>
<polyline fill="none" stroke="black" points="430.96,-1384.5 578.96,-1384.5 "/>
<text text-anchor="middle" x="504.96" y="-1372.5" font-family="Helvetica,sans-Serif" font-size="10.00"> </text>
<polyline fill="none" stroke="black" points="430.96,-1365.5 578.96,-1365.5 "/>
<text text-anchor="start" x="438.96" y="-1353.5" font-family="Helvetica,sans-Serif" font-size="10.00">+ void Damage(float amount,</text>
<text text-anchor="start" x="438.96" y="-1342.5" font-family="Helvetica,sans-Serif" font-size="10.00"> int attackN)</text>
<text text-anchor="start" x="438.96" y="-1331.5" font-family="Helvetica,sans-Serif" font-size="10.00">+ void Damage(BaseController</text>
<text text-anchor="start" x="438.96" y="-1320.5" font-family="Helvetica,sans-Serif" font-size="10.00"> controller, DamageInfo</text>
<text text-anchor="start" x="438.96" y="-1309.5" font-family="Helvetica,sans-Serif" font-size="10.00"> damageInfo)</text>
<text text-anchor="start" x="438.96" y="-1298.5" font-family="Helvetica,sans-Serif" font-size="10.00">+ void Kill()</text>
<text text-anchor="start" x="438.96" y="-1287.5" font-family="Helvetica,sans-Serif" font-size="10.00">+ void EnterInteractionMode()</text>
<text text-anchor="start" x="438.96" y="-1276.5" font-family="Helvetica,sans-Serif" font-size="10.00">+ int GetFacingDirection()</text>
<text text-anchor="start" x="438.96" y="-1265.5" font-family="Helvetica,sans-Serif" font-size="10.00">+ void LandEvt()</text>
<text text-anchor="start" x="438.96" y="-1254.5" font-family="Helvetica,sans-Serif" font-size="10.00">+ void OnAirEvt()</text>
<text text-anchor="start" x="438.96" y="-1243.5" font-family="Helvetica,sans-Serif" font-size="10.00">+ bool IsFacingRight()</text>
<text text-anchor="start" x="438.96" y="-1232.5" font-family="Helvetica,sans-Serif" font-size="10.00">+ void AnimStartPrayingEvt()</text>
<text text-anchor="start" x="438.96" y="-1221.5" font-family="Helvetica,sans-Serif" font-size="10.00">+ void AnimRollEndEvt()</text>
<text text-anchor="start" x="438.96" y="-1210.5" font-family="Helvetica,sans-Serif" font-size="10.00">+ void AnimFootStep1Evt()</text>
<text text-anchor="start" x="438.96" y="-1199.5" font-family="Helvetica,sans-Serif" font-size="10.00">+ void AnimFootStep2Evt()</text>
<text text-anchor="start" x="438.96" y="-1188.5" font-family="Helvetica,sans-Serif" font-size="10.00">~ void OnEnable()</text>
<text text-anchor="start" x="438.96" y="-1177.5" font-family="Helvetica,sans-Serif" font-size="10.00">~ void OnDisable()</text>
</a>
</g>
</g>
<!-- Node6&#45;&gt;Node19 -->
<g id="edge19" class="edge">
<title>Node6&#45;&gt;Node19</title>
<path fill="none" stroke="midnightblue" d="M617.61,-1486.47C603.42,-1461.46 586.69,-1431.99 570.53,-1403.52"/>
<polygon fill="none" stroke="midnightblue" points="614.74,-1488.5 622.72,-1495.47 620.83,-1485.05 614.74,-1488.5"/>
</g>
<!-- Node7 -->
<g id="node7" class="node">
<title>Node7</title>
<g id="a_node7"><a xlink:href="interface_interactions_1_1_interfaces_1_1_i_interactive.html" target="_top" xlink:title=" ">
<polygon fill="none" stroke="black" points="597.46,-1198 597.46,-1376 748.46,-1376 748.46,-1198 597.46,-1198"/>
<text text-anchor="middle" x="672.96" y="-1364" font-family="Helvetica,sans-Serif" font-size="10.00">IInteractive</text>
<polyline fill="none" stroke="black" points="597.46,-1357 748.46,-1357 "/>
<text text-anchor="middle" x="672.96" y="-1345" font-family="Helvetica,sans-Serif" font-size="10.00"> </text>
<polyline fill="none" stroke="black" points="597.46,-1338 748.46,-1338 "/>
<text text-anchor="start" x="605.46" y="-1326" font-family="Helvetica,sans-Serif" font-size="10.00">+ bool Interact(BaseController</text>
<text text-anchor="start" x="605.46" y="-1315" font-family="Helvetica,sans-Serif" font-size="10.00"> controller, EInteractionKind</text>
<text text-anchor="start" x="605.46" y="-1304" font-family="Helvetica,sans-Serif" font-size="10.00"> interactionKind)</text>
<text text-anchor="start" x="605.46" y="-1293" font-family="Helvetica,sans-Serif" font-size="10.00">+ bool Interact(PlayerController</text>
<text text-anchor="start" x="605.46" y="-1282" font-family="Helvetica,sans-Serif" font-size="10.00"> controller, EInteractionKind</text>
<text text-anchor="start" x="605.46" y="-1271" font-family="Helvetica,sans-Serif" font-size="10.00"> interactionKind)</text>
<text text-anchor="start" x="605.46" y="-1260" font-family="Helvetica,sans-Serif" font-size="10.00">+ void ReadyToInteract</text>
<text text-anchor="start" x="605.46" y="-1249" font-family="Helvetica,sans-Serif" font-size="10.00">(PlayerController controller,</text>
<text text-anchor="start" x="605.46" y="-1238" font-family="Helvetica,sans-Serif" font-size="10.00"> bool isReady)</text>
<text text-anchor="start" x="605.46" y="-1227" font-family="Helvetica,sans-Serif" font-size="10.00">+ void ReadyToInteract</text>
<text text-anchor="start" x="605.46" y="-1216" font-family="Helvetica,sans-Serif" font-size="10.00">(BaseController controller,</text>
<text text-anchor="start" x="605.46" y="-1205" font-family="Helvetica,sans-Serif" font-size="10.00"> bool isReady)</text>
</a>
</g>
</g>
<!-- Node7&#45;&gt;Node5 -->
<g id="edge6" class="edge">
<title>Node7&#45;&gt;Node5</title>
<path fill="none" stroke="midnightblue" d="M707.55,-1188.14C717.78,-1159.19 729.47,-1126.12 741.45,-1092.22"/>
<polygon fill="none" stroke="midnightblue" points="704.17,-1187.2 704.14,-1197.79 710.77,-1189.53 704.17,-1187.2"/>
</g>
<!-- Node8 -->
<g id="node8" class="node">
<title>Node8</title>
<g id="a_node8"><a xlink:title=" ">
<polygon fill="none" stroke="#bfbfbf" points="766.46,-1258.5 766.46,-1315.5 837.46,-1315.5 837.46,-1258.5 766.46,-1258.5"/>
<text text-anchor="middle" x="801.96" y="-1303.5" font-family="Helvetica,sans-Serif" font-size="10.00">Rigidbody2D</text>
<polyline fill="none" stroke="#bfbfbf" points="766.46,-1296.5 837.46,-1296.5 "/>
<text text-anchor="middle" x="801.96" y="-1284.5" font-family="Helvetica,sans-Serif" font-size="10.00"> </text>
<polyline fill="none" stroke="#bfbfbf" points="766.46,-1277.5 837.46,-1277.5 "/>
<text text-anchor="middle" x="801.96" y="-1265.5" font-family="Helvetica,sans-Serif" font-size="10.00"> </text>
</a>
</g>
</g>
<!-- Node8&#45;&gt;Node5 -->
<g id="edge7" class="edge">
<title>Node8&#45;&gt;Node5</title>
<path fill="none" stroke="#404040" d="M799.29,-1258.32C796.82,-1231.24 793.33,-1188.83 791.96,-1152 791.75,-1146.46 791.62,-1140.88 791.56,-1135.25"/>
<polygon fill="none" stroke="#404040" points="791.56,-1134.87 787.55,-1128.87 791.54,-1122.87 795.55,-1128.86 791.56,-1134.87"/>
<text text-anchor="middle" x="821.96" y="-1144" font-family="Helvetica,sans-Serif" font-size="10.00"> #rigidbody2D</text>
</g>
<!-- Node9 -->
<g id="node9" class="node">
<title>Node9</title>
<g id="a_node9"><a xlink:title=" ">
<polygon fill="none" stroke="#bfbfbf" points="893.96,-1258.5 893.96,-1315.5 949.96,-1315.5 949.96,-1258.5 893.96,-1258.5"/>
<text text-anchor="middle" x="921.96" y="-1303.5" font-family="Helvetica,sans-Serif" font-size="10.00">Animator</text>
<polyline fill="none" stroke="#bfbfbf" points="893.96,-1296.5 949.96,-1296.5 "/>
<text text-anchor="middle" x="921.96" y="-1284.5" font-family="Helvetica,sans-Serif" font-size="10.00"> </text>
<polyline fill="none" stroke="#bfbfbf" points="893.96,-1277.5 949.96,-1277.5 "/>
<text text-anchor="middle" x="921.96" y="-1265.5" font-family="Helvetica,sans-Serif" font-size="10.00"> </text>
</a>
</g>
</g>
<!-- Node9&#45;&gt;Node5 -->
<g id="edge8" class="edge">
<title>Node9&#45;&gt;Node5</title>
<path fill="none" stroke="#404040" d="M916.01,-1258.24C910.1,-1230.68 900.38,-1185.32 889.5,-1134.59"/>
<polygon fill="none" stroke="#404040" points="889.45,-1134.37 884.29,-1129.34 886.94,-1122.64 892.11,-1127.67 889.45,-1134.37"/>
<text text-anchor="middle" x="934.96" y="-1144" font-family="Helvetica,sans-Serif" font-size="10.00"> #characterAnimator</text>
</g>
<!-- Node10 -->
<g id="node10" class="node">
<title>Node10</title>
<g id="a_node10"><a xlink:href="class_controllers_1_1_state_machine_1_1_states_1_1_data_1_1_controller_data.html" target="_top" xlink:title=" ">
<polygon fill="none" stroke="black" points="968.46,-1253 968.46,-1321 1101.46,-1321 1101.46,-1253 968.46,-1253"/>
<text text-anchor="start" x="976.46" y="-1309" font-family="Helvetica,sans-Serif" font-size="10.00">Controllers.StateMachine.</text>
<text text-anchor="middle" x="1034.96" y="-1298" font-family="Helvetica,sans-Serif" font-size="10.00">States.Data.ControllerData</text>
<polyline fill="none" stroke="black" points="968.46,-1291 1101.46,-1291 "/>
<text text-anchor="middle" x="1034.96" y="-1279" font-family="Helvetica,sans-Serif" font-size="10.00"> </text>
<polyline fill="none" stroke="black" points="968.46,-1272 1101.46,-1272 "/>
<text text-anchor="middle" x="1034.96" y="-1260" font-family="Helvetica,sans-Serif" font-size="10.00"> </text>
</a>
</g>
</g>
<!-- Node10&#45;&gt;Node5 -->
<g id="edge9" class="edge">
<title>Node10&#45;&gt;Node5</title>
<path fill="none" stroke="#404040" d="M1024.59,-1252.94C1014.91,-1223.21 999.51,-1178.56 982.96,-1141 964.25,-1098.56 941.99,-1053.79 920.25,-1012.35"/>
<polygon fill="none" stroke="#404040" points="920.18,-1012.22 913.84,-1008.78 914.58,-1001.61 920.92,-1005.05 920.18,-1012.22"/>
<text text-anchor="middle" x="1007.46" y="-1144" font-family="Helvetica,sans-Serif" font-size="10.00"> +ctrlData</text>
</g>
<!-- Node11 -->
<g id="node11" class="node">
<title>Node11</title>
<g id="a_node11"><a xlink:href="class_scriptable_object.html" target="_top" xlink:title=" ">
<polygon fill="none" stroke="black" points="894.46,-1523 894.46,-1580 983.46,-1580 983.46,-1523 894.46,-1523"/>
<text text-anchor="middle" x="938.96" y="-1568" font-family="Helvetica,sans-Serif" font-size="10.00">ScriptableObject</text>
<polyline fill="none" stroke="black" points="894.46,-1561 983.46,-1561 "/>
<text text-anchor="middle" x="938.96" y="-1549" font-family="Helvetica,sans-Serif" font-size="10.00"> </text>
<polyline fill="none" stroke="black" points="894.46,-1542 983.46,-1542 "/>
<text text-anchor="middle" x="938.96" y="-1530" font-family="Helvetica,sans-Serif" font-size="10.00"> </text>
</a>
</g>
</g>
<!-- Node11&#45;&gt;Node10 -->
<g id="edge10" class="edge">
<title>Node11&#45;&gt;Node10</title>
<path fill="none" stroke="midnightblue" d="M952.6,-1513.21C971.34,-1461.95 1004.79,-1370.49 1022.75,-1321.37"/>
<polygon fill="none" stroke="midnightblue" points="949.2,-1512.31 949.05,-1522.9 955.77,-1514.71 949.2,-1512.31"/>
</g>
<!-- Node12 -->
<g id="node12" class="node">
<title>Node12</title>
<g id="a_node12"><a xlink:title=" ">
<polygon fill="none" stroke="#bfbfbf" points="1278.46,-1523 1278.46,-1580 1313.46,-1580 1313.46,-1523 1278.46,-1523"/>
<text text-anchor="middle" x="1295.96" y="-1568" font-family="Helvetica,sans-Serif" font-size="10.00">float</text>
<polyline fill="none" stroke="#bfbfbf" points="1278.46,-1561 1313.46,-1561 "/>
<text text-anchor="middle" x="1295.96" y="-1549" font-family="Helvetica,sans-Serif" font-size="10.00"> </text>
<polyline fill="none" stroke="#bfbfbf" points="1278.46,-1542 1313.46,-1542 "/>
<text text-anchor="middle" x="1295.96" y="-1530" font-family="Helvetica,sans-Serif" font-size="10.00"> </text>
</a>
</g>
</g>
<!-- Node12&#45;&gt;Node2 -->
<g id="edge24" class="edge">
<title>Node12&#45;&gt;Node2</title>
<path fill="none" stroke="#404040" d="M1313.55,-1538.31C1360.1,-1504.45 1482.96,-1404.11 1482.96,-1288 1482.96,-1288 1482.96,-1288 1482.96,-454.5 1482.96,-404.49 1449.14,-362.07 1411.58,-330.39"/>
<polygon fill="none" stroke="#404040" points="1411.27,-330.14 1404.09,-329.46 1401.97,-322.57 1409.14,-323.25 1411.27,-330.14"/>
<text text-anchor="middle" x="1505.46" y="-844" font-family="Helvetica,sans-Serif" font-size="10.00"> #idleTime</text>
</g>
<!-- Node12&#45;&gt;Node3 -->
<g id="edge22" class="edge">
<title>Node12&#45;&gt;Node3</title>
<path fill="none" stroke="#404040" d="M1313.54,-1531.62C1325.24,-1517.7 1339.6,-1497.65 1345.96,-1477 1375.61,-1380.68 1360.57,-669.71 1345.96,-570 1344.25,-558.32 1341.59,-546.18 1338.51,-534.36"/>
<polygon fill="none" stroke="#404040" points="1338.48,-534.26 1333.03,-529.53 1335.3,-522.69 1340.75,-527.41 1338.48,-534.26"/>
<text text-anchor="middle" x="1387.46" y="-1144" font-family="Helvetica,sans-Serif" font-size="10.00"> #startTime</text>
</g>
<!-- Node12&#45;&gt;Node10 -->
<g id="edge11" class="edge">
<title>Node12&#45;&gt;Node10</title>
<path fill="none" stroke="#404040" d="M1278.22,-1532.68C1264.79,-1518.49 1246.58,-1497.66 1233.96,-1477 1220.15,-1454.39 1231.62,-1438.59 1210.96,-1422 1175.74,-1393.73 1148.62,-1428.92 1110.96,-1404 1084.93,-1386.78 1065.77,-1357.25 1053.2,-1332.3"/>
<polygon fill="none" stroke="#404040" points="1053.07,-1332.03 1046.87,-1328.35 1047.89,-1321.21 1054.09,-1324.89 1053.07,-1332.03"/>
<text text-anchor="middle" x="1289.96" y="-1469" font-family="Helvetica,sans-Serif" font-size="10.00"> +groundCheckDistance</text>
<text text-anchor="middle" x="1289.96" y="-1458" font-family="Helvetica,sans-Serif" font-size="10.00">+ledgeCheckDistacne</text>
<text text-anchor="middle" x="1289.96" y="-1447" font-family="Helvetica,sans-Serif" font-size="10.00">+playerDetectionDistance</text>
<text text-anchor="middle" x="1289.96" y="-1436" font-family="Helvetica,sans-Serif" font-size="10.00">+topCheckDistance</text>
<text text-anchor="middle" x="1289.96" y="-1425" font-family="Helvetica,sans-Serif" font-size="10.00">+wallCheckDistance</text>
</g>
<!-- Node12&#45;&gt;Node19 -->
<g id="edge20" class="edge">
<title>Node12&#45;&gt;Node19</title>
<path fill="none" stroke="#404040" d="M1278.3,-1547.85C1243.63,-1541.72 1166.26,-1523.41 1122.96,-1477 1105.31,-1458.09 1124.76,-1437.37 1103.96,-1422 1060.16,-1389.63 679.47,-1426.91 590.39,-1402.28"/>
<polygon fill="none" stroke="#404040" points="590.28,-1402.24 583.26,-1403.85 579.07,-1397.98 586.09,-1396.37 590.28,-1402.24"/>
<text text-anchor="middle" x="1164.96" y="-1447" font-family="Helvetica,sans-Serif" font-size="10.00"> #interactionRadius</text>
</g>
<!-- Node13 -->
<g id="node13" class="node">
<title>Node13</title>
<g id="a_node13"><a xlink:title=" ">
<polygon fill="none" stroke="#bfbfbf" points="1001.46,-1523 1001.46,-1580 1066.46,-1580 1066.46,-1523 1001.46,-1523"/>
<text text-anchor="middle" x="1033.96" y="-1568" font-family="Helvetica,sans-Serif" font-size="10.00">LayerMask</text>
<polyline fill="none" stroke="#bfbfbf" points="1001.46,-1561 1066.46,-1561 "/>
<text text-anchor="middle" x="1033.96" y="-1549" font-family="Helvetica,sans-Serif" font-size="10.00"> </text>
<polyline fill="none" stroke="#bfbfbf" points="1001.46,-1542 1066.46,-1542 "/>
<text text-anchor="middle" x="1033.96" y="-1530" font-family="Helvetica,sans-Serif" font-size="10.00"> </text>
</a>
</g>
</g>
<!-- Node13&#45;&gt;Node10 -->
<g id="edge12" class="edge">
<title>Node13&#45;&gt;Node10</title>
<path fill="none" stroke="#404040" d="M1034.06,-1522.9C1034.24,-1477.84 1034.58,-1388.02 1034.79,-1333.44"/>
<polygon fill="none" stroke="#404040" points="1034.79,-1333.37 1030.81,-1327.35 1034.83,-1321.37 1038.81,-1327.38 1034.79,-1333.37"/>
<text text-anchor="middle" x="1068.46" y="-1447" font-family="Helvetica,sans-Serif" font-size="10.00"> +whatIsGround</text>
</g>
<!-- Node14 -->
<g id="node14" class="node">
<title>Node14</title>
<g id="a_node14"><a xlink:title=" ">
<polygon fill="none" stroke="#bfbfbf" points="1119.46,-1258.5 1119.46,-1315.5 1182.46,-1315.5 1182.46,-1258.5 1119.46,-1258.5"/>
<text text-anchor="middle" x="1150.96" y="-1303.5" font-family="Helvetica,sans-Serif" font-size="10.00">UnityEvent</text>
<polyline fill="none" stroke="#bfbfbf" points="1119.46,-1296.5 1182.46,-1296.5 "/>
<text text-anchor="middle" x="1150.96" y="-1284.5" font-family="Helvetica,sans-Serif" font-size="10.00"> </text>
<polyline fill="none" stroke="#bfbfbf" points="1119.46,-1277.5 1182.46,-1277.5 "/>
<text text-anchor="middle" x="1150.96" y="-1265.5" font-family="Helvetica,sans-Serif" font-size="10.00"> </text>
</a>
</g>
</g>
<!-- Node14&#45;&gt;Node5 -->
<g id="edge13" class="edge">
<title>Node14&#45;&gt;Node5</title>
<path fill="none" stroke="#404040" d="M1145.6,-1258.45C1139.87,-1233.77 1129.07,-1197.35 1110.96,-1170 1104.35,-1160.03 1099.33,-1160.54 1090.96,-1152 1032.37,-1092.21 971,-1021.67 922.3,-963.54"/>
<polygon fill="none" stroke="#404040" points="922.29,-963.53 915.37,-961.5 914.59,-954.33 921.51,-956.36 922.29,-963.53"/>
<text text-anchor="middle" x="1124.46" y="-1144" font-family="Helvetica,sans-Serif" font-size="10.00"> +OnLandEvent</text>
</g>
<!-- Node15 -->
<g id="node15" class="node">
<title>Node15</title>
<g id="a_node15"><a xlink:href="class_controllers_1_1_movement_1_1_base_movement_controller.html" target="_top" xlink:title=" ">
<polygon fill="none" stroke="black" points="30.96,-1253 30.96,-1321 166.96,-1321 166.96,-1253 30.96,-1253"/>
<text text-anchor="start" x="38.96" y="-1309" font-family="Helvetica,sans-Serif" font-size="10.00">Controllers.Movement.Base</text>
<text text-anchor="middle" x="98.96" y="-1298" font-family="Helvetica,sans-Serif" font-size="10.00">MovementController</text>
<polyline fill="none" stroke="black" points="30.96,-1291 166.96,-1291 "/>
<text text-anchor="middle" x="98.96" y="-1279" font-family="Helvetica,sans-Serif" font-size="10.00"> </text>
<polyline fill="none" stroke="black" points="30.96,-1272 166.96,-1272 "/>
<text text-anchor="middle" x="98.96" y="-1260" font-family="Helvetica,sans-Serif" font-size="10.00"> </text>
</a>
</g>
</g>
<!-- Node15&#45;&gt;Node5 -->
<g id="edge14" class="edge">
<title>Node15&#45;&gt;Node5</title>
<path fill="none" stroke="#404040" d="M91.96,-1252.73C87.26,-1220.97 85.6,-1173.31 108.96,-1141 255.92,-937.75 568.97,-874.91 729.12,-855.74"/>
<polygon fill="none" stroke="#404040" points="729.39,-855.71 734.9,-851.05 741.32,-854.33 735.81,-858.99 729.39,-855.71"/>
<text text-anchor="middle" x="166.46" y="-1144" font-family="Helvetica,sans-Serif" font-size="10.00"> #baseMovementController</text>
</g>
<!-- Node16 -->
<g id="node16" class="node">
<title>Node16</title>
<g id="a_node16"><a xlink:href="class_controllers_1_1_state_machine_1_1_controller_state_machine.html" target="_top" xlink:title="Controla el estado de un enemigo o NPC, desde que spawnea hasta que muere. Casi todos los metodos son...">
<polygon fill="none" stroke="black" points="1200.46,-1236.5 1200.46,-1337.5 1329.46,-1337.5 1329.46,-1236.5 1200.46,-1236.5"/>
<text text-anchor="start" x="1208.46" y="-1325.5" font-family="Helvetica,sans-Serif" font-size="10.00">Controllers.StateMachine.</text>
<text text-anchor="middle" x="1264.96" y="-1314.5" font-family="Helvetica,sans-Serif" font-size="10.00">ControllerStateMachine</text>
<polyline fill="none" stroke="black" points="1200.46,-1307.5 1329.46,-1307.5 "/>
<text text-anchor="start" x="1208.46" y="-1295.5" font-family="Helvetica,sans-Serif" font-size="10.00">+ State CurrentState</text>
<polyline fill="none" stroke="black" points="1200.46,-1288.5 1329.46,-1288.5 "/>
<text text-anchor="start" x="1208.46" y="-1276.5" font-family="Helvetica,sans-Serif" font-size="10.00">+ void Initialize(State</text>
<text text-anchor="start" x="1208.46" y="-1265.5" font-family="Helvetica,sans-Serif" font-size="10.00"> startState)</text>
<text text-anchor="start" x="1208.46" y="-1254.5" font-family="Helvetica,sans-Serif" font-size="10.00">+ void ChangeState(State</text>
<text text-anchor="start" x="1208.46" y="-1243.5" font-family="Helvetica,sans-Serif" font-size="10.00"> nextState)</text>
</a>
</g>
</g>
<!-- Node16&#45;&gt;Node3 -->
<g id="edge23" class="edge">
<title>Node16&#45;&gt;Node3</title>
<path fill="none" stroke="#404040" d="M1261.46,-1236.14C1254.21,-1119.04 1241.21,-817.66 1278.96,-570 1280.73,-558.36 1283.37,-546.24 1286.39,-534.43"/>
<polygon fill="none" stroke="#404040" points="1286.41,-534.35 1284.11,-527.52 1289.53,-522.76 1291.83,-529.59 1286.41,-534.35"/>
<text text-anchor="middle" x="1312.46" y="-844" font-family="Helvetica,sans-Serif" font-size="10.00"> #stateMachine</text>
</g>
<!-- Node16&#45;&gt;Node5 -->
<g id="edge15" class="edge">
<title>Node16&#45;&gt;Node5</title>
<path fill="none" stroke="#404040" d="M1238.02,-1236.47C1225.33,-1215.06 1209.2,-1190.32 1191.96,-1170 1111.14,-1074.78 1002.19,-981.92 924.6,-920.49"/>
<polygon fill="none" stroke="#404040" points="924.24,-920.21 917.06,-919.64 914.82,-912.78 922.01,-913.36 924.24,-920.21"/>
<text text-anchor="middle" x="1208.96" y="-1144" font-family="Helvetica,sans-Serif" font-size="10.00"> +StateMachine</text>
</g>
<!-- Node17 -->
<g id="node17" class="node">
<title>Node17</title>
<g id="a_node17"><a xlink:title=" ">
<polygon fill="none" stroke="#bfbfbf" points="189.96,-1258.5 189.96,-1315.5 273.96,-1315.5 273.96,-1258.5 189.96,-1258.5"/>
<text text-anchor="middle" x="231.96" y="-1303.5" font-family="Helvetica,sans-Serif" font-size="10.00">EControllerKind</text>
<polyline fill="none" stroke="#bfbfbf" points="189.96,-1296.5 273.96,-1296.5 "/>
<text text-anchor="middle" x="231.96" y="-1284.5" font-family="Helvetica,sans-Serif" font-size="10.00"> </text>
<polyline fill="none" stroke="#bfbfbf" points="189.96,-1277.5 273.96,-1277.5 "/>
<text text-anchor="middle" x="231.96" y="-1265.5" font-family="Helvetica,sans-Serif" font-size="10.00"> </text>
</a>
</g>
</g>
<!-- Node17&#45;&gt;Node5 -->
<g id="edge16" class="edge">
<title>Node17&#45;&gt;Node5</title>
<path fill="none" stroke="#404040" d="M224.08,-1258.25C216.97,-1227.17 210.7,-1176.52 232.96,-1141 342.67,-965.9 590.81,-892.08 729.48,-863.58"/>
<polygon fill="none" stroke="#404040" points="729.56,-863.56 734.65,-858.46 741.32,-861.2 736.23,-866.3 729.56,-863.56"/>
<text text-anchor="middle" x="266.96" y="-1144" font-family="Helvetica,sans-Serif" font-size="10.00"> #controllerKind</text>
</g>
<!-- Node18 -->
<g id="node18" class="node">
<title>Node18</title>
<g id="a_node18"><a xlink:title=" ">
<polygon fill="none" stroke="#bfbfbf" points="292.46,-1523 292.46,-1580 327.46,-1580 327.46,-1523 292.46,-1523"/>
<text text-anchor="middle" x="309.96" y="-1568" font-family="Helvetica,sans-Serif" font-size="10.00">bool</text>
<polyline fill="none" stroke="#bfbfbf" points="292.46,-1561 327.46,-1561 "/>
<text text-anchor="middle" x="309.96" y="-1549" font-family="Helvetica,sans-Serif" font-size="10.00"> </text>
<polyline fill="none" stroke="#bfbfbf" points="292.46,-1542 327.46,-1542 "/>
<text text-anchor="middle" x="309.96" y="-1530" font-family="Helvetica,sans-Serif" font-size="10.00"> </text>
</a>
</g>
</g>
<!-- Node18&#45;&gt;Node2 -->
<g id="edge25" class="edge">
<title>Node18&#45;&gt;Node2</title>
<path fill="none" stroke="#404040" d="M292.14,-1547.22C240.74,-1536.76 91.48,-1499.1 21.96,-1404 -8.87,-1361.83 2.96,-1340.24 2.96,-1288 2.96,-1288 2.96,-1288 2.96,-454.5 2.96,-332.78 901.54,-284.73 1209.7,-271.83"/>
<polygon fill="none" stroke="#404040" points="1209.74,-271.83 1215.57,-267.59 1221.73,-271.34 1215.9,-275.58 1209.74,-271.83"/>
<text text-anchor="middle" x="37.46" y="-849.5" font-family="Helvetica,sans-Serif" font-size="10.00"> #flipAfterIdle</text>
<text text-anchor="middle" x="37.46" y="-838.5" font-family="Helvetica,sans-Serif" font-size="10.00">#isIdleTimeOver</text>
</g>
<!-- Node18&#45;&gt;Node5 -->
<g id="edge17" class="edge">
<title>Node18&#45;&gt;Node5</title>
<path fill="none" stroke="#404040" d="M307.32,-1522.81C300.47,-1445.68 284.96,-1230.1 318.96,-1170 407.97,-1012.66 608.73,-920.79 729.82,-877.69"/>
<polygon fill="none" stroke="#404040" points="729.96,-877.65 734.3,-871.89 741.29,-873.67 736.95,-879.43 729.96,-877.65"/>
<text text-anchor="middle" x="370.46" y="-1284.5" font-family="Helvetica,sans-Serif" font-size="10.00"> #playerFacingDirection</text>
</g>
<!-- Node18&#45;&gt;Node19 -->
<g id="edge21" class="edge">
<title>Node18&#45;&gt;Node19</title>
<path fill="none" stroke="#404040" d="M327.61,-1526.74C349.4,-1497.4 387.97,-1445.48 423.59,-1397.54"/>
<polygon fill="none" stroke="#404040" points="423.74,-1397.33 424.11,-1390.13 430.9,-1387.7 430.53,-1394.9 423.74,-1397.33"/>
<text text-anchor="middle" x="449.46" y="-1469" font-family="Helvetica,sans-Serif" font-size="10.00"> +isEnrolledInDialogue</text>
<text text-anchor="middle" x="449.46" y="-1458" font-family="Helvetica,sans-Serif" font-size="10.00">~moveOnDamaged</text>
<text text-anchor="middle" x="449.46" y="-1447" font-family="Helvetica,sans-Serif" font-size="10.00">~praying</text>
<text text-anchor="middle" x="449.46" y="-1436" font-family="Helvetica,sans-Serif" font-size="10.00">~respawning</text>
<text text-anchor="middle" x="449.46" y="-1425" font-family="Helvetica,sans-Serif" font-size="10.00">~roll</text>
</g>
<!-- Node19&#45;&gt;Node5 -->
<g id="edge18" class="edge">
<title>Node19&#45;&gt;Node5</title>
<path fill="none" stroke="#404040" d="M579.1,-1183.48C582.43,-1178.92 585.73,-1174.41 588.96,-1170 636.55,-1105.03 689.88,-1033 734.07,-973.52"/>
<polygon fill="none" stroke="#404040" points="734.2,-973.34 734.57,-966.14 741.36,-963.71 740.99,-970.91 734.2,-973.34"/>
<text text-anchor="middle" x="645.96" y="-1144" font-family="Helvetica,sans-Serif" font-size="10.00"> #playerController</text>
</g>
</g>
</svg>
        <g id="navigator" transform="translate(0 0)" fill="#404254">
                <rect fill="#f2f5e9" fill-opacity="0.5" stroke="#606060" stroke-width=".5" x="0" y="0" width="60" height="60"/>
                <use id="zoomplus" xlink:href="#zoomPlus" x="17" y="9" onmousedown="handleZoom(evt,'in')"/>
                <use id="zoomminus" xlink:href="#zoomMin" x="42" y="9" onmousedown="handleZoom(evt,'out')"/>
                <use id="reset" xlink:href="#resetDef" x="30" y="36" onmousedown="handleReset()"/>
                <g id="arrowUp" xlink:href="#dirArrow" transform="translate(30 24)" onmousedown="handlePan(0,-1)">
                  <use xlink:href="#rim" fill="#404040">
                        <set attributeName="fill" to="#808080" begin="arrowUp.mouseover" end="arrowUp.mouseout"/>
                  </use>
                  <path fill="none" stroke="white" stroke-width="1.5" d="M0,-3.0v7 M-2.5,-0.5L0,-3.0L2.5,-0.5"/>
                </g>
                <g id="arrowRight" xlink:href="#dirArrow" transform="rotate(90) translate(36 -43)" onmousedown="handlePan(1,0)">
                  <use xlink:href="#rim" fill="#404040">
                        <set attributeName="fill" to="#808080" begin="arrowRight.mouseover" end="arrowRight.mouseout"/>
                  </use>
                  <path fill="none" stroke="white" stroke-width="1.5" d="M0,-3.0v7 M-2.5,-0.5L0,-3.0L2.5,-0.5"/>
                </g>
                <g id="arrowDown" xlink:href="#dirArrow" transform="rotate(180) translate(-30 -48)" onmousedown="handlePan(0,1)">
                  <use xlink:href="#rim" fill="#404040">
                        <set attributeName="fill" to="#808080" begin="arrowDown.mouseover" end="arrowDown.mouseout"/>
                  </use>
                  <path fill="none" stroke="white" stroke-width="1.5" d="M0,-3.0v7 M-2.5,-0.5L0,-3.0L2.5,-0.5"/>
                </g>
                <g id="arrowLeft" xlink:href="#dirArrow" transform="rotate(270) translate(-36 17)" onmousedown="handlePan(-1,0)">
                  <use xlink:href="#rim" fill="#404040">
                        <set attributeName="fill" to="#808080" begin="arrowLeft.mouseover" end="arrowLeft.mouseout"/>
                  </use>
                  <path fill="none" stroke="white" stroke-width="1.5" d="M0,-3.0v7 M-2.5,-0.5L0,-3.0L2.5,-0.5"/>
                </g>
        </g>
        <svg viewBox="0 0 15 15" width="100%" height="30px" preserveAspectRatio="xMaxYMin meet">
         <g id="arrow_out" transform="scale(0.3 0.3)">
          <a xlink:href="class_froggy___idle_state__coll__graph_org.svg" target="_base">
           <rect id="button" ry="5" rx="5" y="6" x="6" height="38" width="38"
                fill="#f2f5e9" fill-opacity="0.5" stroke="#606060" stroke-width="1.0"/>
           <path id="arrow"
             d="M 11.500037,31.436501 C 11.940474,20.09759 22.043105,11.32322 32.158766,21.979434 L 37.068811,17.246167 C 37.068811,17.246167 37.088388,32 37.088388,32 L 22.160133,31.978069 C 22.160133,31.978069 26.997745,27.140456 26.997745,27.140456 C 18.528582,18.264221 13.291696,25.230495 11.500037,31.436501 z"
             style="fill:#404040;"/>
          </a>
         </g>
        </svg>
</svg>
