<?xml version="1.0" encoding="UTF-8" standalone="no"?>
<!DOCTYPE svg PUBLIC "-//W3C//DTD SVG 1.1//EN"
 "http://www.w3.org/Graphics/SVG/1.1/DTD/svg11.dtd">
<!-- Generated by graphviz version 2.48.0 (20210717.1556)
 -->
<!-- Title: Controllers.BaseController Pages: 1 -->
<svg width="1359pt" height="850pt"
 viewBox="0.00 0.00 1359.00 850.00" xmlns="http://www.w3.org/2000/svg" xmlns:xlink="http://www.w3.org/1999/xlink">
<g id="graph0" class="graph" transform="scale(1 1) rotate(0) translate(4 846)">
<title>Controllers.BaseController</title>
<!-- Node1 -->
<g id="node1" class="node">
<title>Node1</title>
<g id="a_node1"><a xlink:title=" ">
<polygon fill="#bfbfbf" stroke="black" points="565.5,-0.5 565.5,-156.5 738.5,-156.5 738.5,-0.5 565.5,-0.5"/>
<text text-anchor="middle" x="652" y="-144.5" font-family="Helvetica,sans-Serif" font-size="10.00">Controllers.BaseController</text>
<polyline fill="none" stroke="black" points="565.5,-137.5 738.5,-137.5 "/>
<text text-anchor="middle" x="652" y="-125.5" font-family="Helvetica,sans-Serif" font-size="10.00"> </text>
<polyline fill="none" stroke="black" points="565.5,-118.5 738.5,-118.5 "/>
<text text-anchor="start" x="573.5" y="-106.5" font-family="Helvetica,sans-Serif" font-size="10.00">+ T GetMovementController</text>
<text text-anchor="start" x="573.5" y="-95.5" font-family="Helvetica,sans-Serif" font-size="10.00">&lt; T &gt;()</text>
<text text-anchor="start" x="573.5" y="-84.5" font-family="Helvetica,sans-Serif" font-size="10.00">+ Animator GetAnimator()</text>
<text text-anchor="start" x="573.5" y="-73.5" font-family="Helvetica,sans-Serif" font-size="10.00">+ GameObject GetDialogueBubble()</text>
<text text-anchor="start" x="573.5" y="-62.5" font-family="Helvetica,sans-Serif" font-size="10.00">+ virtual void Damage</text>
<text text-anchor="start" x="573.5" y="-51.5" font-family="Helvetica,sans-Serif" font-size="10.00">(float amount, int attackN)</text>
<text text-anchor="start" x="573.5" y="-40.5" font-family="Helvetica,sans-Serif" font-size="10.00"># virtual void OnStart()</text>
<text text-anchor="start" x="573.5" y="-29.5" font-family="Helvetica,sans-Serif" font-size="10.00"># virtual void OnUpdate()</text>
<text text-anchor="start" x="573.5" y="-18.5" font-family="Helvetica,sans-Serif" font-size="10.00"># virtual void OnFixedUpdate()</text>
<text text-anchor="start" x="573.5" y="-7.5" font-family="Helvetica,sans-Serif" font-size="10.00"># virtual void DrawGizmos()</text>
</a>
</g>
</g>
<!-- Node2 -->
<g id="node2" class="node">
<title>Node2</title>
<g id="a_node2"><a xlink:href="interface_controllers_1_1_i_damageable.html" target="_top" xlink:title="Interfaz para todos los NPCs/Enemigos/Objetos que pueden ser daniados.">
<polygon fill="none" stroke="black" points="0,-254 0,-322 140,-322 140,-254 0,-254"/>
<text text-anchor="middle" x="70" y="-310" font-family="Helvetica,sans-Serif" font-size="10.00">IDamageable</text>
<polyline fill="none" stroke="black" points="0,-303 140,-303 "/>
<text text-anchor="middle" x="70" y="-291" font-family="Helvetica,sans-Serif" font-size="10.00"> </text>
<polyline fill="none" stroke="black" points="0,-284 140,-284 "/>
<text text-anchor="start" x="8" y="-272" font-family="Helvetica,sans-Serif" font-size="10.00">+ void Damage(float amount,</text>
<text text-anchor="start" x="8" y="-261" font-family="Helvetica,sans-Serif" font-size="10.00"> int attackN)</text>
</a>
</g>
</g>
<!-- Node2&#45;&gt;Node1 -->
<g id="edge1" class="edge">
<title>Node2&#45;&gt;Node1</title>
<path fill="none" stroke="midnightblue" d="M110.37,-246.9C122.33,-235.96 135.77,-224.5 149,-215 178.73,-193.64 186.77,-187.98 221,-175 336.19,-131.3 476.66,-104.83 565.24,-91.18"/>
<polygon fill="none" stroke="midnightblue" points="107.68,-244.62 102.75,-254 112.45,-249.75 107.68,-244.62"/>
</g>
<!-- Node3 -->
<g id="node3" class="node">
<title>Node3</title>
<g id="a_node3"><a xlink:title=" ">
<polygon fill="none" stroke="#bfbfbf" points="158.5,-259.5 158.5,-316.5 243.5,-316.5 243.5,-259.5 158.5,-259.5"/>
<text text-anchor="middle" x="201" y="-304.5" font-family="Helvetica,sans-Serif" font-size="10.00">ECharacterKind</text>
<polyline fill="none" stroke="#bfbfbf" points="158.5,-297.5 243.5,-297.5 "/>
<text text-anchor="middle" x="201" y="-285.5" font-family="Helvetica,sans-Serif" font-size="10.00"> </text>
<polyline fill="none" stroke="#bfbfbf" points="158.5,-278.5 243.5,-278.5 "/>
<text text-anchor="middle" x="201" y="-266.5" font-family="Helvetica,sans-Serif" font-size="10.00"> </text>
</a>
</g>
</g>
<!-- Node3&#45;&gt;Node1 -->
<g id="edge2" class="edge">
<title>Node3&#45;&gt;Node1</title>
<path fill="none" stroke="#404040" d="M203.73,-259.37C207.75,-233.79 217.65,-196.54 242,-175 287.52,-134.72 446.99,-106.47 553.1,-91.62"/>
<polygon fill="none" stroke="#404040" points="553.24,-91.6 558.63,-86.81 565.12,-89.96 559.73,-94.74 553.24,-91.6"/>
<text text-anchor="middle" x="276.5" y="-183.5" font-family="Helvetica,sans-Serif" font-size="10.00"> #characterKind</text>
</g>
<!-- Node4 -->
<g id="node4" class="node">
<title>Node4</title>
<g id="a_node4"><a xlink:title=" ">
<polygon fill="none" stroke="#bfbfbf" points="261.5,-259.5 261.5,-316.5 332.5,-316.5 332.5,-259.5 261.5,-259.5"/>
<text text-anchor="middle" x="297" y="-304.5" font-family="Helvetica,sans-Serif" font-size="10.00">Rigidbody2D</text>
<polyline fill="none" stroke="#bfbfbf" points="261.5,-297.5 332.5,-297.5 "/>
<text text-anchor="middle" x="297" y="-285.5" font-family="Helvetica,sans-Serif" font-size="10.00"> </text>
<polyline fill="none" stroke="#bfbfbf" points="261.5,-278.5 332.5,-278.5 "/>
<text text-anchor="middle" x="297" y="-266.5" font-family="Helvetica,sans-Serif" font-size="10.00"> </text>
</a>
</g>
</g>
<!-- Node4&#45;&gt;Node1 -->
<g id="edge3" class="edge">
<title>Node4&#45;&gt;Node1</title>
<path fill="none" stroke="#404040" d="M297.95,-259.33C300.29,-234.07 307.66,-197.38 330,-175 388.8,-116.09 482.14,-93.19 553.22,-84.45"/>
<polygon fill="none" stroke="#404040" points="553.4,-84.43 558.91,-79.77 565.32,-83.07 559.81,-87.72 553.4,-84.43"/>
<text text-anchor="middle" x="354" y="-183.5" font-family="Helvetica,sans-Serif" font-size="10.00"> #RigidBdy</text>
</g>
<!-- Node5 -->
<g id="node5" class="node">
<title>Node5</title>
<g id="a_node5"><a xlink:title=" ">
<polygon fill="none" stroke="#bfbfbf" points="351,-259.5 351,-316.5 407,-316.5 407,-259.5 351,-259.5"/>
<text text-anchor="middle" x="379" y="-304.5" font-family="Helvetica,sans-Serif" font-size="10.00">Animator</text>
<polyline fill="none" stroke="#bfbfbf" points="351,-297.5 407,-297.5 "/>
<text text-anchor="middle" x="379" y="-285.5" font-family="Helvetica,sans-Serif" font-size="10.00"> </text>
<polyline fill="none" stroke="#bfbfbf" points="351,-278.5 407,-278.5 "/>
<text text-anchor="middle" x="379" y="-266.5" font-family="Helvetica,sans-Serif" font-size="10.00"> </text>
</a>
</g>
</g>
<!-- Node5&#45;&gt;Node1 -->
<g id="edge4" class="edge">
<title>Node5&#45;&gt;Node1</title>
<path fill="none" stroke="#404040" d="M375.26,-259.06C373.53,-234.33 375.13,-198.59 394,-175 432.57,-126.79 497.97,-102.92 553.27,-91.09"/>
<polygon fill="none" stroke="#404040" points="553.5,-91.05 558.59,-85.94 565.26,-88.68 560.17,-93.79 553.5,-91.05"/>
<text text-anchor="middle" x="438" y="-183.5" font-family="Helvetica,sans-Serif" font-size="10.00"> #characterAnimator</text>
</g>
<!-- Node6 -->
<g id="node6" class="node">
<title>Node6</title>
<g id="a_node6"><a xlink:title=" ">
<polygon fill="none" stroke="#bfbfbf" points="425.5,-259.5 425.5,-316.5 496.5,-316.5 496.5,-259.5 425.5,-259.5"/>
<text text-anchor="middle" x="461" y="-304.5" font-family="Helvetica,sans-Serif" font-size="10.00">GameObject</text>
<polyline fill="none" stroke="#bfbfbf" points="425.5,-297.5 496.5,-297.5 "/>
<text text-anchor="middle" x="461" y="-285.5" font-family="Helvetica,sans-Serif" font-size="10.00"> </text>
<polyline fill="none" stroke="#bfbfbf" points="425.5,-278.5 496.5,-278.5 "/>
<text text-anchor="middle" x="461" y="-266.5" font-family="Helvetica,sans-Serif" font-size="10.00"> </text>
</a>
</g>
</g>
<!-- Node6&#45;&gt;Node1 -->
<g id="edge5" class="edge">
<title>Node6&#45;&gt;Node1</title>
<path fill="none" stroke="#404040" d="M465.33,-259.17C470.28,-234.84 480.38,-199.64 500,-175 514.95,-156.23 534.65,-140.11 554.9,-126.75"/>
<polygon fill="none" stroke="#404040" points="555.06,-126.65 557.98,-120.05 565.19,-120.21 562.27,-126.8 555.06,-126.65"/>
<text text-anchor="middle" x="537.5" y="-189" font-family="Helvetica,sans-Serif" font-size="10.00"> #dialogueBubble</text>
<text text-anchor="middle" x="537.5" y="-178" font-family="Helvetica,sans-Serif" font-size="10.00">#hitParticles</text>
</g>
<!-- Node7 -->
<g id="node7" class="node">
<title>Node7</title>
<g id="a_node7"><a xlink:href="class_controllers_1_1_movement_1_1_base_movement_controller.html" target="_top" xlink:title=" ">
<polygon fill="none" stroke="black" points="515,-254 515,-322 651,-322 651,-254 515,-254"/>
<text text-anchor="start" x="523" y="-310" font-family="Helvetica,sans-Serif" font-size="10.00">Controllers.Movement.Base</text>
<text text-anchor="middle" x="583" y="-299" font-family="Helvetica,sans-Serif" font-size="10.00">MovementController</text>
<polyline fill="none" stroke="black" points="515,-292 651,-292 "/>
<text text-anchor="middle" x="583" y="-280" font-family="Helvetica,sans-Serif" font-size="10.00"> </text>
<polyline fill="none" stroke="black" points="515,-273 651,-273 "/>
<text text-anchor="middle" x="583" y="-261" font-family="Helvetica,sans-Serif" font-size="10.00"> </text>
</a>
</g>
</g>
<!-- Node7&#45;&gt;Node1 -->
<g id="edge6" class="edge">
<title>Node7&#45;&gt;Node1</title>
<path fill="none" stroke="#404040" d="M578.16,-253.82C576.07,-231.08 575.72,-200.52 584,-175 584.79,-172.58 585.66,-170.17 586.6,-167.77"/>
<polygon fill="none" stroke="#404040" points="586.66,-167.63 585.45,-160.52 591.54,-156.67 592.76,-163.78 586.66,-167.63"/>
<text text-anchor="middle" x="641.5" y="-183.5" font-family="Helvetica,sans-Serif" font-size="10.00"> #baseMovementController</text>
</g>
<!-- Node8 -->
<g id="node8" class="node">
<title>Node8</title>
<g id="a_node8"><a xlink:title=" ">
<polygon fill="none" stroke="#bfbfbf" points="881.5,-684 881.5,-741 916.5,-741 916.5,-684 881.5,-684"/>
<text text-anchor="middle" x="899" y="-729" font-family="Helvetica,sans-Serif" font-size="10.00">float</text>
<polyline fill="none" stroke="#bfbfbf" points="881.5,-722 916.5,-722 "/>
<text text-anchor="middle" x="899" y="-710" font-family="Helvetica,sans-Serif" font-size="10.00"> </text>
<polyline fill="none" stroke="#bfbfbf" points="881.5,-703 916.5,-703 "/>
<text text-anchor="middle" x="899" y="-691" font-family="Helvetica,sans-Serif" font-size="10.00"> </text>
</a>
</g>
</g>
<!-- Node8&#45;&gt;Node1 -->
<g id="edge7" class="edge">
<title>Node8&#45;&gt;Node1</title>
<path fill="none" stroke="#404040" d="M916.55,-709.35C942.61,-705.11 990.77,-693 1012,-660 1020.73,-646.43 1080.77,-282.41 996,-175 965.59,-136.47 841.13,-109.06 750.64,-93.76"/>
<polygon fill="none" stroke="#404040" points="750.5,-93.74 743.93,-96.7 738.66,-91.77 745.24,-88.81 750.5,-93.74"/>
<text text-anchor="middle" x="1082" y="-398.5" font-family="Helvetica,sans-Serif" font-size="10.00"> #interactionRadius</text>
<text text-anchor="middle" x="1082" y="-387.5" font-family="Helvetica,sans-Serif" font-size="10.00">#maxHealth</text>
</g>
<!-- Node13 -->
<g id="node13" class="node">
<title>Node13</title>
<g id="a_node13"><a xlink:href="class_player_1_1_player_controller.html" target="_top" xlink:title=" ">
<polygon fill="none" stroke="black" points="669.5,-215.5 669.5,-360.5 810.5,-360.5 810.5,-215.5 669.5,-215.5"/>
<text text-anchor="middle" x="740" y="-348.5" font-family="Helvetica,sans-Serif" font-size="10.00">Player.PlayerController</text>
<polyline fill="none" stroke="black" points="669.5,-341.5 810.5,-341.5 "/>
<text text-anchor="middle" x="740" y="-329.5" font-family="Helvetica,sans-Serif" font-size="10.00"> </text>
<polyline fill="none" stroke="black" points="669.5,-322.5 810.5,-322.5 "/>
<text text-anchor="start" x="677.5" y="-310.5" font-family="Helvetica,sans-Serif" font-size="10.00">+ void LandEvt()</text>
<text text-anchor="start" x="677.5" y="-299.5" font-family="Helvetica,sans-Serif" font-size="10.00">+ void OnAirEvt()</text>
<text text-anchor="start" x="677.5" y="-288.5" font-family="Helvetica,sans-Serif" font-size="10.00">+ bool IsFacingRight()</text>
<text text-anchor="start" x="677.5" y="-277.5" font-family="Helvetica,sans-Serif" font-size="10.00">+ void AnimStartPrayingEvt()</text>
<text text-anchor="start" x="677.5" y="-266.5" font-family="Helvetica,sans-Serif" font-size="10.00">+ void AnimRollEndEvt()</text>
<text text-anchor="start" x="677.5" y="-255.5" font-family="Helvetica,sans-Serif" font-size="10.00">+ void AnimFootStep1Evt()</text>
<text text-anchor="start" x="677.5" y="-244.5" font-family="Helvetica,sans-Serif" font-size="10.00">+ void AnimFootStep2Evt()</text>
<text text-anchor="start" x="677.5" y="-233.5" font-family="Helvetica,sans-Serif" font-size="10.00">~ void OnEnable()</text>
<text text-anchor="start" x="677.5" y="-222.5" font-family="Helvetica,sans-Serif" font-size="10.00">~ void OnDisable()</text>
</a>
</g>
</g>
<!-- Node8&#45;&gt;Node13 -->
<g id="edge22" class="edge">
<title>Node8&#45;&gt;Node13</title>
<path fill="none" stroke="#404040" d="M898.57,-683.76C896.52,-624.2 885.6,-481.17 829,-379 825.81,-373.23 822.14,-367.58 818.15,-362.1"/>
<polygon fill="none" stroke="#404040" points="818.01,-361.91 811.17,-359.61 810.66,-352.42 817.5,-354.72 818.01,-361.91"/>
<text text-anchor="middle" x="940" y="-511.5" font-family="Helvetica,sans-Serif" font-size="10.00"> +NextAttackMaxTime</text>
</g>
<!-- Node15 -->
<g id="node15" class="node">
<title>Node15</title>
<g id="a_node15"><a xlink:href="class_player_1_1_player_movement_controller.html" target="_top" xlink:title=" ">
<polygon fill="none" stroke="black" points="638.5,-430.5 638.5,-597.5 799.5,-597.5 799.5,-430.5 638.5,-430.5"/>
<text text-anchor="middle" x="719" y="-585.5" font-family="Helvetica,sans-Serif" font-size="10.00">Player.PlayerMovementController</text>
<polyline fill="none" stroke="black" points="638.5,-578.5 799.5,-578.5 "/>
<text text-anchor="middle" x="719" y="-566.5" font-family="Helvetica,sans-Serif" font-size="10.00"> </text>
<polyline fill="none" stroke="black" points="638.5,-559.5 799.5,-559.5 "/>
<text text-anchor="start" x="646.5" y="-547.5" font-family="Helvetica,sans-Serif" font-size="10.00">+ void Move(float moveH,</text>
<text text-anchor="start" x="646.5" y="-536.5" font-family="Helvetica,sans-Serif" font-size="10.00"> float moveV, bool crouch,</text>
<text text-anchor="start" x="646.5" y="-525.5" font-family="Helvetica,sans-Serif" font-size="10.00"> bool jump, bool roll, bool</text>
<text text-anchor="start" x="646.5" y="-514.5" font-family="Helvetica,sans-Serif" font-size="10.00"> attacking)</text>
<text text-anchor="start" x="646.5" y="-503.5" font-family="Helvetica,sans-Serif" font-size="10.00">+ bool IsFacingRight()</text>
<text text-anchor="start" x="646.5" y="-492.5" font-family="Helvetica,sans-Serif" font-size="10.00">+ void EnableFlip()</text>
<text text-anchor="start" x="646.5" y="-481.5" font-family="Helvetica,sans-Serif" font-size="10.00">+ void DisableFlip()</text>
<text text-anchor="start" x="646.5" y="-470.5" font-family="Helvetica,sans-Serif" font-size="10.00">~ void AttackMovement</text>
<text text-anchor="start" x="646.5" y="-459.5" font-family="Helvetica,sans-Serif" font-size="10.00">(int power)</text>
<text text-anchor="start" x="646.5" y="-448.5" font-family="Helvetica,sans-Serif" font-size="10.00">~ void PrepareRespawn</text>
<text text-anchor="start" x="646.5" y="-437.5" font-family="Helvetica,sans-Serif" font-size="10.00">(Transform SpawnPoint)</text>
</a>
</g>
</g>
<!-- Node8&#45;&gt;Node15 -->
<g id="edge19" class="edge">
<title>Node8&#45;&gt;Node15</title>
<path fill="none" stroke="#404040" d="M881.45,-707.37C857.55,-700.95 814.72,-686.46 788,-660 785.54,-657.56 774.6,-635.2 762.14,-608.73"/>
<polygon fill="none" stroke="#404040" points="762.01,-608.46 755.84,-604.72 756.92,-597.59 763.09,-601.33 762.01,-608.46"/>
<text text-anchor="middle" x="836.5" y="-652" font-family="Helvetica,sans-Serif" font-size="10.00"> +LedgeClimbXOffset1</text>
<text text-anchor="middle" x="836.5" y="-641" font-family="Helvetica,sans-Serif" font-size="10.00">+LedgeClimbXOffset2</text>
<text text-anchor="middle" x="836.5" y="-630" font-family="Helvetica,sans-Serif" font-size="10.00">+LedgeClimbYOffset1</text>
<text text-anchor="middle" x="836.5" y="-619" font-family="Helvetica,sans-Serif" font-size="10.00">+LedgeClimbYOffset2</text>
</g>
<!-- Node9 -->
<g id="node9" class="node">
<title>Node9</title>
<g id="a_node9"><a xlink:title=" ">
<polygon fill="none" stroke="#bfbfbf" points="829,-259.5 829,-316.5 879,-316.5 879,-259.5 829,-259.5"/>
<text text-anchor="middle" x="854" y="-304.5" font-family="Helvetica,sans-Serif" font-size="10.00">Vector2</text>
<polyline fill="none" stroke="#bfbfbf" points="829,-297.5 879,-297.5 "/>
<text text-anchor="middle" x="854" y="-285.5" font-family="Helvetica,sans-Serif" font-size="10.00"> </text>
<polyline fill="none" stroke="#bfbfbf" points="829,-278.5 879,-278.5 "/>
<text text-anchor="middle" x="854" y="-266.5" font-family="Helvetica,sans-Serif" font-size="10.00"> </text>
</a>
</g>
</g>
<!-- Node9&#45;&gt;Node1 -->
<g id="edge8" class="edge">
<title>Node9&#45;&gt;Node1</title>
<path fill="none" stroke="#404040" d="M842.93,-259.49C836.91,-245.7 828.89,-229.01 820,-215 801.67,-186.12 775.05,-160.6 748.38,-139.73"/>
<polygon fill="none" stroke="#404040" points="748.12,-139.52 740.92,-139.07 738.57,-132.25 745.77,-132.71 748.12,-139.52"/>
<text text-anchor="middle" x="856" y="-183.5" font-family="Helvetica,sans-Serif" font-size="10.00"> #moveOnAttackSpeed</text>
</g>
<!-- Node10 -->
<g id="node10" class="node">
<title>Node10</title>
<g id="a_node10"><a xlink:title=" ">
<polygon fill="none" stroke="#bfbfbf" points="901,-259.5 901,-316.5 985,-316.5 985,-259.5 901,-259.5"/>
<text text-anchor="middle" x="943" y="-304.5" font-family="Helvetica,sans-Serif" font-size="10.00">EControllerKind</text>
<polyline fill="none" stroke="#bfbfbf" points="901,-297.5 985,-297.5 "/>
<text text-anchor="middle" x="943" y="-285.5" font-family="Helvetica,sans-Serif" font-size="10.00"> </text>
<polyline fill="none" stroke="#bfbfbf" points="901,-278.5 985,-278.5 "/>
<text text-anchor="middle" x="943" y="-266.5" font-family="Helvetica,sans-Serif" font-size="10.00"> </text>
</a>
</g>
</g>
<!-- Node10&#45;&gt;Node1 -->
<g id="edge9" class="edge">
<title>Node10&#45;&gt;Node1</title>
<path fill="none" stroke="#404040" d="M941.66,-259.18C939.02,-234.17 931.45,-197.96 910,-175 868.55,-130.63 804.64,-106.78 750.8,-94"/>
<polygon fill="none" stroke="#404040" points="750.47,-93.93 743.74,-96.51 738.77,-91.29 745.5,-88.71 750.47,-93.93"/>
<text text-anchor="middle" x="958" y="-183.5" font-family="Helvetica,sans-Serif" font-size="10.00"> #controllerKind</text>
</g>
<!-- Node11 -->
<g id="node11" class="node">
<title>Node11</title>
<g id="a_node11"><a xlink:title=" ">
<polygon fill="none" stroke="#bfbfbf" points="1107.5,-684 1107.5,-741 1142.5,-741 1142.5,-684 1107.5,-684"/>
<text text-anchor="middle" x="1125" y="-729" font-family="Helvetica,sans-Serif" font-size="10.00">bool</text>
<polyline fill="none" stroke="#bfbfbf" points="1107.5,-722 1142.5,-722 "/>
<text text-anchor="middle" x="1125" y="-710" font-family="Helvetica,sans-Serif" font-size="10.00"> </text>
<polyline fill="none" stroke="#bfbfbf" points="1107.5,-703 1142.5,-703 "/>
<text text-anchor="middle" x="1125" y="-691" font-family="Helvetica,sans-Serif" font-size="10.00"> </text>
</a>
</g>
</g>
<!-- Node11&#45;&gt;Node1 -->
<g id="edge10" class="edge">
<title>Node11&#45;&gt;Node1</title>
<path fill="none" stroke="#404040" d="M1142.52,-695.92C1163.73,-675.78 1198.28,-638.44 1212,-598 1273.46,-416.81 1274.37,-302.82 1132,-175 1076.93,-125.56 874.55,-99.18 750.84,-87.38"/>
<polygon fill="none" stroke="#404040" points="750.7,-87.36 744.35,-90.79 738.75,-86.25 745.1,-82.82 750.7,-87.36"/>
<text text-anchor="middle" x="1301" y="-404" font-family="Helvetica,sans-Serif" font-size="10.00"> #isInvencible</text>
<text text-anchor="middle" x="1301" y="-393" font-family="Helvetica,sans-Serif" font-size="10.00">#playerFacingDirection</text>
<text text-anchor="middle" x="1301" y="-382" font-family="Helvetica,sans-Serif" font-size="10.00">#playerOnLeft</text>
</g>
<!-- Node11&#45;&gt;Node13 -->
<g id="edge23" class="edge">
<title>Node11&#45;&gt;Node13</title>
<path fill="none" stroke="#404040" d="M1128.32,-683.79C1136.26,-611.82 1152.76,-421.6 1111,-379 1090,-357.59 884.08,-371.14 822.45,-359.73"/>
<polygon fill="none" stroke="#404040" points="822.15,-359.65 815.3,-361.92 810.58,-356.47 817.42,-354.2 822.15,-359.65"/>
<text text-anchor="middle" x="1174.5" y="-528" font-family="Helvetica,sans-Serif" font-size="10.00"> ~awaitingAttack</text>
<text text-anchor="middle" x="1174.5" y="-517" font-family="Helvetica,sans-Serif" font-size="10.00">~praying</text>
<text text-anchor="middle" x="1174.5" y="-506" font-family="Helvetica,sans-Serif" font-size="10.00">~respawning</text>
<text text-anchor="middle" x="1174.5" y="-495" font-family="Helvetica,sans-Serif" font-size="10.00">~roll</text>
</g>
<!-- Node11&#45;&gt;Node15 -->
<g id="edge21" class="edge">
<title>Node11&#45;&gt;Node15</title>
<path fill="none" stroke="#404040" d="M1107.41,-703.84C1066.59,-685.99 962.43,-639.95 877,-598 855.35,-587.37 832.25,-575.53 810.6,-564.2"/>
<polygon fill="none" stroke="#404040" points="810.38,-564.08 803.21,-564.84 799.76,-558.5 806.93,-557.75 810.38,-564.08"/>
<text text-anchor="middle" x="1043.5" y="-646.5" font-family="Helvetica,sans-Serif" font-size="10.00"> ~Grounded</text>
<text text-anchor="middle" x="1043.5" y="-635.5" font-family="Helvetica,sans-Serif" font-size="10.00">~IsTouchingLedge</text>
<text text-anchor="middle" x="1043.5" y="-624.5" font-family="Helvetica,sans-Serif" font-size="10.00">~IsTouchingWall</text>
</g>
<!-- Node12 -->
<g id="node12" class="node">
<title>Node12</title>
<g id="a_node12"><a xlink:title=" ">
<polygon fill="none" stroke="#bfbfbf" points="1054,-259.5 1054,-316.5 1126,-316.5 1126,-259.5 1054,-259.5"/>
<text text-anchor="middle" x="1090" y="-304.5" font-family="Helvetica,sans-Serif" font-size="10.00">AudioSource</text>
<polyline fill="none" stroke="#bfbfbf" points="1054,-297.5 1126,-297.5 "/>
<text text-anchor="middle" x="1090" y="-285.5" font-family="Helvetica,sans-Serif" font-size="10.00"> </text>
<polyline fill="none" stroke="#bfbfbf" points="1054,-278.5 1126,-278.5 "/>
<text text-anchor="middle" x="1090" y="-266.5" font-family="Helvetica,sans-Serif" font-size="10.00"> </text>
</a>
</g>
</g>
<!-- Node12&#45;&gt;Node1 -->
<g id="edge11" class="edge">
<title>Node12&#45;&gt;Node1</title>
<path fill="none" stroke="#404040" d="M1084.86,-259.32C1078.65,-233.71 1065.65,-196.44 1040,-175 996.52,-138.67 850.54,-109.81 750.58,-93.69"/>
<polygon fill="none" stroke="#404040" points="750.47,-93.68 743.92,-96.68 738.62,-91.79 745.18,-88.78 750.47,-93.68"/>
<text text-anchor="middle" x="1092.5" y="-189" font-family="Helvetica,sans-Serif" font-size="10.00"> #hitAttackSFX1</text>
<text text-anchor="middle" x="1092.5" y="-178" font-family="Helvetica,sans-Serif" font-size="10.00">#hitAttackSFX2</text>
</g>
<!-- Node13&#45;&gt;Node1 -->
<g id="edge12" class="edge">
<title>Node13&#45;&gt;Node1</title>
<path fill="none" stroke="#404040" d="M715.1,-215.45C710.02,-201.92 704.54,-187.95 699,-175 697.95,-172.55 696.87,-170.07 695.77,-167.58"/>
<polygon fill="none" stroke="#404040" points="695.74,-167.51 689.62,-163.69 690.8,-156.58 696.91,-160.4 695.74,-167.51"/>
<text text-anchor="middle" x="745" y="-183.5" font-family="Helvetica,sans-Serif" font-size="10.00"> #playerController</text>
</g>
<!-- Node14 -->
<g id="node14" class="node">
<title>Node14</title>
<g id="a_node14"><a xlink:title=" ">
<polygon fill="none" stroke="#bfbfbf" points="328.5,-684 328.5,-741 411.5,-741 411.5,-684 328.5,-684"/>
<text text-anchor="middle" x="370" y="-729" font-family="Helvetica,sans-Serif" font-size="10.00">MonoBehaviour</text>
<polyline fill="none" stroke="#bfbfbf" points="328.5,-722 411.5,-722 "/>
<text text-anchor="middle" x="370" y="-710" font-family="Helvetica,sans-Serif" font-size="10.00"> </text>
<polyline fill="none" stroke="#bfbfbf" points="328.5,-703 411.5,-703 "/>
<text text-anchor="middle" x="370" y="-691" font-family="Helvetica,sans-Serif" font-size="10.00"> </text>
</a>
</g>
</g>
<!-- Node14&#45;&gt;Node13 -->
<g id="edge13" class="edge">
<title>Node14&#45;&gt;Node13</title>
<path fill="none" stroke="midnightblue" d="M398.65,-675.67C413.23,-657.62 431.36,-635.48 448,-616 524.25,-526.73 614.62,-426.32 674.42,-360.6"/>
<polygon fill="none" stroke="midnightblue" points="395.76,-673.67 392.21,-683.65 401.21,-678.06 395.76,-673.67"/>
</g>
<!-- Node14&#45;&gt;Node15 -->
<g id="edge15" class="edge">
<title>Node14&#45;&gt;Node15</title>
<path fill="none" stroke="midnightblue" d="M420.14,-678.53C420.42,-678.36 420.71,-678.18 421,-678 492.88,-633.62 577.62,-587.87 638.33,-556.18"/>
<polygon fill="none" stroke="midnightblue" points="418.23,-675.6 411.63,-683.88 421.95,-681.53 418.23,-675.6"/>
</g>
<!-- Node15&#45;&gt;Node13 -->
<g id="edge14" class="edge">
<title>Node15&#45;&gt;Node13</title>
<path fill="none" stroke="#404040" d="M726.76,-430.23C728.51,-411.52 730.38,-391.64 732.14,-372.89"/>
<polygon fill="none" stroke="#404040" points="732.15,-372.7 728.73,-366.35 733.27,-360.75 736.7,-367.09 732.15,-372.7"/>
<text text-anchor="middle" x="778" y="-393" font-family="Helvetica,sans-Serif" font-size="10.00"> #playerMovementCtrl</text>
</g>
<!-- Node16 -->
<g id="node16" class="node">
<title>Node16</title>
<g id="a_node16"><a xlink:href="class_player_1_1_player_movement_controller_1_1_bool_event.html" target="_top" xlink:title=" ">
<polygon fill="none" stroke="black" points="430,-678.5 430,-746.5 594,-746.5 594,-678.5 430,-678.5"/>
<text text-anchor="start" x="438" y="-734.5" font-family="Helvetica,sans-Serif" font-size="10.00">Player.PlayerMovementController.</text>
<text text-anchor="middle" x="512" y="-723.5" font-family="Helvetica,sans-Serif" font-size="10.00">BoolEvent</text>
<polyline fill="none" stroke="black" points="430,-716.5 594,-716.5 "/>
<text text-anchor="middle" x="512" y="-704.5" font-family="Helvetica,sans-Serif" font-size="10.00"> </text>
<polyline fill="none" stroke="black" points="430,-697.5 594,-697.5 "/>
<text text-anchor="middle" x="512" y="-685.5" font-family="Helvetica,sans-Serif" font-size="10.00"> </text>
</a>
</g>
</g>
<!-- Node16&#45;&gt;Node15 -->
<g id="edge16" class="edge">
<title>Node16&#45;&gt;Node15</title>
<path fill="none" stroke="#404040" d="M523.89,-678.35C532.13,-658.64 544.57,-634.06 561,-616 579.99,-595.12 604.23,-576.81 627.99,-561.71"/>
<polygon fill="none" stroke="#404040" points="628.28,-561.53 631.28,-554.97 638.49,-555.22 635.49,-561.78 628.28,-561.53"/>
<text text-anchor="middle" x="599.5" y="-635.5" font-family="Helvetica,sans-Serif" font-size="10.00"> +OnCrouchEvent</text>
</g>
<!-- Node17 -->
<g id="node17" class="node">
<title>Node17</title>
<g id="a_node17"><a xlink:title=" ">
<polygon fill="none" stroke="#bfbfbf" points="462.5,-784.5 462.5,-841.5 561.5,-841.5 561.5,-784.5 462.5,-784.5"/>
<text text-anchor="middle" x="512" y="-829.5" font-family="Helvetica,sans-Serif" font-size="10.00">UnityEvent&lt; bool &gt;</text>
<polyline fill="none" stroke="#bfbfbf" points="462.5,-822.5 561.5,-822.5 "/>
<text text-anchor="middle" x="512" y="-810.5" font-family="Helvetica,sans-Serif" font-size="10.00"> </text>
<polyline fill="none" stroke="#bfbfbf" points="462.5,-803.5 561.5,-803.5 "/>
<text text-anchor="middle" x="512" y="-791.5" font-family="Helvetica,sans-Serif" font-size="10.00"> </text>
</a>
</g>
</g>
<!-- Node17&#45;&gt;Node16 -->
<g id="edge17" class="edge">
<title>Node17&#45;&gt;Node16</title>
<path fill="none" stroke="midnightblue" d="M512,-774.01C512,-764.96 512,-755.38 512,-746.58"/>
<polygon fill="none" stroke="midnightblue" points="508.5,-774.3 512,-784.3 515.5,-774.3 508.5,-774.3"/>
</g>
<!-- Node18 -->
<g id="node18" class="node">
<title>Node18</title>
<g id="a_node18"><a xlink:title=" ">
<polygon fill="none" stroke="#bfbfbf" points="612.5,-684 612.5,-741 675.5,-741 675.5,-684 612.5,-684"/>
<text text-anchor="middle" x="644" y="-729" font-family="Helvetica,sans-Serif" font-size="10.00">UnityEvent</text>
<polyline fill="none" stroke="#bfbfbf" points="612.5,-722 675.5,-722 "/>
<text text-anchor="middle" x="644" y="-710" font-family="Helvetica,sans-Serif" font-size="10.00"> </text>
<polyline fill="none" stroke="#bfbfbf" points="612.5,-703 675.5,-703 "/>
<text text-anchor="middle" x="644" y="-691" font-family="Helvetica,sans-Serif" font-size="10.00"> </text>
</a>
</g>
</g>
<!-- Node18&#45;&gt;Node15 -->
<g id="edge18" class="edge">
<title>Node18&#45;&gt;Node15</title>
<path fill="none" stroke="#404040" d="M642.32,-683.99C642.01,-664.5 643.4,-638 651,-616 651.84,-613.58 652.75,-611.16 653.72,-608.76"/>
<polygon fill="none" stroke="#404040" points="653.82,-608.52 652.61,-601.41 658.71,-597.56 659.92,-604.67 653.82,-608.52"/>
<text text-anchor="middle" x="683" y="-641" font-family="Helvetica,sans-Serif" font-size="10.00"> +OnAirEvent</text>
<text text-anchor="middle" x="683" y="-630" font-family="Helvetica,sans-Serif" font-size="10.00">+OnLandEvent</text>
</g>
<!-- Node19 -->
<g id="node19" class="node">
<title>Node19</title>
<g id="a_node19"><a xlink:title=" ">
<polygon fill="none" stroke="#bfbfbf" points="694,-684 694,-741 744,-741 744,-684 694,-684"/>
<text text-anchor="middle" x="719" y="-729" font-family="Helvetica,sans-Serif" font-size="10.00">Vector3</text>
<polyline fill="none" stroke="#bfbfbf" points="694,-722 744,-722 "/>
<text text-anchor="middle" x="719" y="-710" font-family="Helvetica,sans-Serif" font-size="10.00"> </text>
<polyline fill="none" stroke="#bfbfbf" points="694,-703 744,-703 "/>
<text text-anchor="middle" x="719" y="-691" font-family="Helvetica,sans-Serif" font-size="10.00"> </text>
</a>
</g>
</g>
<!-- Node19&#45;&gt;Node15 -->
<g id="edge20" class="edge">
<title>Node19&#45;&gt;Node15</title>
<path fill="none" stroke="#404040" d="M719,-683.76C719,-664.31 719,-637.07 719,-610.14"/>
<polygon fill="none" stroke="#404040" points="719,-609.82 715,-603.82 719,-597.82 723,-603.82 719,-609.82"/>
<text text-anchor="middle" x="741.5" y="-635.5" font-family="Helvetica,sans-Serif" font-size="10.00"> ~Velocity</text>
</g>
</g>
</svg>
