<?xml version="1.0" encoding="UTF-8" standalone="no"?>
<!DOCTYPE svg PUBLIC "-//W3C//DTD SVG 1.1//EN"
 "http://www.w3.org/Graphics/SVG/1.1/DTD/svg11.dtd">
<!-- Generated by graphviz version 2.48.0 (20210717.1556)
 -->
<!-- Title: Controllers.DummyController Pages: 1 -->
<svg width="1114pt" height="1165pt"
 viewBox="0.00 0.00 1114.00 1165.00" xmlns="http://www.w3.org/2000/svg" xmlns:xlink="http://www.w3.org/1999/xlink">
<g id="graph0" class="graph" transform="scale(1 1) rotate(0) translate(4 1161)">
<title>Controllers.DummyController</title>
<!-- Node1 -->
<g id="node1" class="node">
<title>Node1</title>
<g id="a_node1"><a xlink:title=" ">
<polygon fill="#bfbfbf" stroke="black" points="429.5,-0.5 429.5,-57.5 570.5,-57.5 570.5,-0.5 429.5,-0.5"/>
<text text-anchor="middle" x="500" y="-45.5" font-family="Helvetica,sans-Serif" font-size="10.00">Controllers.DummyController</text>
<polyline fill="none" stroke="black" points="429.5,-38.5 570.5,-38.5 "/>
<text text-anchor="middle" x="500" y="-26.5" font-family="Helvetica,sans-Serif" font-size="10.00"> </text>
<polyline fill="none" stroke="black" points="429.5,-19.5 570.5,-19.5 "/>
<text text-anchor="start" x="437.5" y="-7.5" font-family="Helvetica,sans-Serif" font-size="10.00"># override void OnStart()</text>
</a>
</g>
</g>
<!-- Node2 -->
<g id="node2" class="node">
<title>Node2</title>
<g id="a_node2"><a xlink:href="class_controllers_1_1_base_controller.html" target="_top" xlink:title=" ">
<polygon fill="none" stroke="black" points="413.5,-95.5 413.5,-460.5 586.5,-460.5 586.5,-95.5 413.5,-95.5"/>
<text text-anchor="middle" x="500" y="-448.5" font-family="Helvetica,sans-Serif" font-size="10.00">BaseController</text>
<polyline fill="none" stroke="black" points="413.5,-441.5 586.5,-441.5 "/>
<text text-anchor="middle" x="500" y="-429.5" font-family="Helvetica,sans-Serif" font-size="10.00"> </text>
<polyline fill="none" stroke="black" points="413.5,-422.5 586.5,-422.5 "/>
<text text-anchor="start" x="421.5" y="-410.5" font-family="Helvetica,sans-Serif" font-size="10.00">+ void SwitchStates(ECharacter</text>
<text text-anchor="start" x="421.5" y="-399.5" font-family="Helvetica,sans-Serif" font-size="10.00">State nextState)</text>
<text text-anchor="start" x="421.5" y="-388.5" font-family="Helvetica,sans-Serif" font-size="10.00">+ T GetMovementController</text>
<text text-anchor="start" x="421.5" y="-377.5" font-family="Helvetica,sans-Serif" font-size="10.00">&lt; T &gt;()</text>
<text text-anchor="start" x="421.5" y="-366.5" font-family="Helvetica,sans-Serif" font-size="10.00">+ Animator GetAnimator()</text>
<text text-anchor="start" x="421.5" y="-355.5" font-family="Helvetica,sans-Serif" font-size="10.00">+ GameObject GetDialogueBubble()</text>
<text text-anchor="start" x="421.5" y="-344.5" font-family="Helvetica,sans-Serif" font-size="10.00">+ virtual void Damage</text>
<text text-anchor="start" x="421.5" y="-333.5" font-family="Helvetica,sans-Serif" font-size="10.00">(float amount, int attackN)</text>
<text text-anchor="start" x="421.5" y="-322.5" font-family="Helvetica,sans-Serif" font-size="10.00">+ void Kill()</text>
<text text-anchor="start" x="421.5" y="-311.5" font-family="Helvetica,sans-Serif" font-size="10.00">+ bool Interact(BaseController</text>
<text text-anchor="start" x="421.5" y="-300.5" font-family="Helvetica,sans-Serif" font-size="10.00"> controller, EInteractionKind</text>
<text text-anchor="start" x="421.5" y="-289.5" font-family="Helvetica,sans-Serif" font-size="10.00"> interactionKind)</text>
<text text-anchor="start" x="421.5" y="-278.5" font-family="Helvetica,sans-Serif" font-size="10.00">+ bool Interact(PlayerController</text>
<text text-anchor="start" x="421.5" y="-267.5" font-family="Helvetica,sans-Serif" font-size="10.00"> controller, EInteractionKind</text>
<text text-anchor="start" x="421.5" y="-256.5" font-family="Helvetica,sans-Serif" font-size="10.00"> interactionKind)</text>
<text text-anchor="start" x="421.5" y="-245.5" font-family="Helvetica,sans-Serif" font-size="10.00">+ void ReadyToInteract</text>
<text text-anchor="start" x="421.5" y="-234.5" font-family="Helvetica,sans-Serif" font-size="10.00">(PlayerController controller,</text>
<text text-anchor="start" x="421.5" y="-223.5" font-family="Helvetica,sans-Serif" font-size="10.00"> bool isReady)</text>
<text text-anchor="start" x="421.5" y="-212.5" font-family="Helvetica,sans-Serif" font-size="10.00">+ void ReadyToInteract</text>
<text text-anchor="start" x="421.5" y="-201.5" font-family="Helvetica,sans-Serif" font-size="10.00">(BaseController controller,</text>
<text text-anchor="start" x="421.5" y="-190.5" font-family="Helvetica,sans-Serif" font-size="10.00"> bool isReady)</text>
<text text-anchor="start" x="421.5" y="-179.5" font-family="Helvetica,sans-Serif" font-size="10.00"># virtual void OnStart()</text>
<text text-anchor="start" x="421.5" y="-168.5" font-family="Helvetica,sans-Serif" font-size="10.00"># virtual void OnUpdate()</text>
<text text-anchor="start" x="421.5" y="-157.5" font-family="Helvetica,sans-Serif" font-size="10.00"># virtual void OnFixedUpdate()</text>
<text text-anchor="start" x="421.5" y="-146.5" font-family="Helvetica,sans-Serif" font-size="10.00"># virtual void DrawGizmos()</text>
<text text-anchor="start" x="421.5" y="-135.5" font-family="Helvetica,sans-Serif" font-size="10.00"># virtual bool OnUpdateJumping</text>
<text text-anchor="start" x="421.5" y="-124.5" font-family="Helvetica,sans-Serif" font-size="10.00">StateStart()</text>
<text text-anchor="start" x="421.5" y="-113.5" font-family="Helvetica,sans-Serif" font-size="10.00"># virtual void OnUpdateJumping</text>
<text text-anchor="start" x="421.5" y="-102.5" font-family="Helvetica,sans-Serif" font-size="10.00">StateEnd()</text>
</a>
</g>
</g>
<!-- Node2&#45;&gt;Node1 -->
<g id="edge1" class="edge">
<title>Node2&#45;&gt;Node1</title>
<path fill="none" stroke="midnightblue" d="M500,-85.13C500,-74.88 500,-65.55 500,-57.6"/>
<polygon fill="none" stroke="midnightblue" points="496.5,-85.22 500,-95.22 503.5,-85.22 496.5,-85.22"/>
</g>
<!-- Node3 -->
<g id="node3" class="node">
<title>Node3</title>
<g id="a_node3"><a xlink:href="interface_controllers_1_1_i_damageable.html" target="_top" xlink:title="Interfaz para todos los NPCs/Enemigos/Objetos que pueden ser daniados.">
<polygon fill="none" stroke="black" points="0,-558 0,-637 140,-637 140,-558 0,-558"/>
<text text-anchor="middle" x="70" y="-625" font-family="Helvetica,sans-Serif" font-size="10.00">IDamageable</text>
<polyline fill="none" stroke="black" points="0,-618 140,-618 "/>
<text text-anchor="middle" x="70" y="-606" font-family="Helvetica,sans-Serif" font-size="10.00"> </text>
<polyline fill="none" stroke="black" points="0,-599 140,-599 "/>
<text text-anchor="start" x="8" y="-587" font-family="Helvetica,sans-Serif" font-size="10.00">+ void Damage(float amount,</text>
<text text-anchor="start" x="8" y="-576" font-family="Helvetica,sans-Serif" font-size="10.00"> int attackN)</text>
<text text-anchor="start" x="8" y="-565" font-family="Helvetica,sans-Serif" font-size="10.00">+ void Kill()</text>
</a>
</g>
</g>
<!-- Node3&#45;&gt;Node2 -->
<g id="edge2" class="edge">
<title>Node3&#45;&gt;Node2</title>
<path fill="none" stroke="midnightblue" d="M107.37,-550.04C119.87,-535.79 134.37,-520.57 149,-508 232.31,-436.38 339.46,-369.58 413.34,-326.82"/>
<polygon fill="none" stroke="midnightblue" points="104.53,-547.97 100.64,-557.83 109.82,-552.55 104.53,-547.97"/>
</g>
<!-- Node4 -->
<g id="node4" class="node">
<title>Node4</title>
<g id="a_node4"><a xlink:href="interface_interactions_1_1_interfaces_1_1_i_interactive.html" target="_top" xlink:title=" ">
<polygon fill="none" stroke="black" points="158.5,-508.5 158.5,-686.5 309.5,-686.5 309.5,-508.5 158.5,-508.5"/>
<text text-anchor="middle" x="234" y="-674.5" font-family="Helvetica,sans-Serif" font-size="10.00">IInteractive</text>
<polyline fill="none" stroke="black" points="158.5,-667.5 309.5,-667.5 "/>
<text text-anchor="middle" x="234" y="-655.5" font-family="Helvetica,sans-Serif" font-size="10.00"> </text>
<polyline fill="none" stroke="black" points="158.5,-648.5 309.5,-648.5 "/>
<text text-anchor="start" x="166.5" y="-636.5" font-family="Helvetica,sans-Serif" font-size="10.00">+ bool Interact(BaseController</text>
<text text-anchor="start" x="166.5" y="-625.5" font-family="Helvetica,sans-Serif" font-size="10.00"> controller, EInteractionKind</text>
<text text-anchor="start" x="166.5" y="-614.5" font-family="Helvetica,sans-Serif" font-size="10.00"> interactionKind)</text>
<text text-anchor="start" x="166.5" y="-603.5" font-family="Helvetica,sans-Serif" font-size="10.00">+ bool Interact(PlayerController</text>
<text text-anchor="start" x="166.5" y="-592.5" font-family="Helvetica,sans-Serif" font-size="10.00"> controller, EInteractionKind</text>
<text text-anchor="start" x="166.5" y="-581.5" font-family="Helvetica,sans-Serif" font-size="10.00"> interactionKind)</text>
<text text-anchor="start" x="166.5" y="-570.5" font-family="Helvetica,sans-Serif" font-size="10.00">+ void ReadyToInteract</text>
<text text-anchor="start" x="166.5" y="-559.5" font-family="Helvetica,sans-Serif" font-size="10.00">(PlayerController controller,</text>
<text text-anchor="start" x="166.5" y="-548.5" font-family="Helvetica,sans-Serif" font-size="10.00"> bool isReady)</text>
<text text-anchor="start" x="166.5" y="-537.5" font-family="Helvetica,sans-Serif" font-size="10.00">+ void ReadyToInteract</text>
<text text-anchor="start" x="166.5" y="-526.5" font-family="Helvetica,sans-Serif" font-size="10.00">(BaseController controller,</text>
<text text-anchor="start" x="166.5" y="-515.5" font-family="Helvetica,sans-Serif" font-size="10.00"> bool isReady)</text>
</a>
</g>
</g>
<!-- Node4&#45;&gt;Node2 -->
<g id="edge3" class="edge">
<title>Node4&#45;&gt;Node2</title>
<path fill="none" stroke="midnightblue" d="M314.34,-500.6C345.62,-463.27 381.53,-420.4 413.39,-382.38"/>
<polygon fill="none" stroke="midnightblue" points="311.48,-498.57 307.74,-508.48 316.85,-503.06 311.48,-498.57"/>
</g>
<!-- Node5 -->
<g id="node5" class="node">
<title>Node5</title>
<g id="a_node5"><a xlink:title=" ">
<polygon fill="none" stroke="#bfbfbf" points="327.5,-569 327.5,-626 398.5,-626 398.5,-569 327.5,-569"/>
<text text-anchor="middle" x="363" y="-614" font-family="Helvetica,sans-Serif" font-size="10.00">Rigidbody2D</text>
<polyline fill="none" stroke="#bfbfbf" points="327.5,-607 398.5,-607 "/>
<text text-anchor="middle" x="363" y="-595" font-family="Helvetica,sans-Serif" font-size="10.00"> </text>
<polyline fill="none" stroke="#bfbfbf" points="327.5,-588 398.5,-588 "/>
<text text-anchor="middle" x="363" y="-576" font-family="Helvetica,sans-Serif" font-size="10.00"> </text>
</a>
</g>
</g>
<!-- Node5&#45;&gt;Node2 -->
<g id="edge4" class="edge">
<title>Node5&#45;&gt;Node2</title>
<path fill="none" stroke="#404040" d="M363.93,-568.69C365.47,-544.4 369.49,-508.51 380,-479 387.37,-458.31 397,-437.4 407.61,-417.3"/>
<polygon fill="none" stroke="#404040" points="407.72,-417.11 407.05,-409.93 413.42,-406.55 414.09,-413.73 407.72,-417.11"/>
<text text-anchor="middle" x="410" y="-482" font-family="Helvetica,sans-Serif" font-size="10.00"> #rigidbody2D</text>
</g>
<!-- Node6 -->
<g id="node6" class="node">
<title>Node6</title>
<g id="a_node6"><a xlink:title=" ">
<polygon fill="none" stroke="#bfbfbf" points="417,-569 417,-626 473,-626 473,-569 417,-569"/>
<text text-anchor="middle" x="445" y="-614" font-family="Helvetica,sans-Serif" font-size="10.00">Animator</text>
<polyline fill="none" stroke="#bfbfbf" points="417,-607 473,-607 "/>
<text text-anchor="middle" x="445" y="-595" font-family="Helvetica,sans-Serif" font-size="10.00"> </text>
<polyline fill="none" stroke="#bfbfbf" points="417,-588 473,-588 "/>
<text text-anchor="middle" x="445" y="-576" font-family="Helvetica,sans-Serif" font-size="10.00"> </text>
</a>
</g>
</g>
<!-- Node6&#45;&gt;Node2 -->
<g id="edge5" class="edge">
<title>Node6&#45;&gt;Node2</title>
<path fill="none" stroke="#404040" d="M443.26,-568.82C442.22,-544.92 441.82,-509.52 446,-479 446.29,-476.92 446.59,-474.83 446.9,-472.73"/>
<polygon fill="none" stroke="#404040" points="446.94,-472.48 443.95,-465.92 448.85,-460.63 451.85,-467.19 446.94,-472.48"/>
<text text-anchor="middle" x="490" y="-482" font-family="Helvetica,sans-Serif" font-size="10.00"> #characterAnimator</text>
</g>
<!-- Node7 -->
<g id="node7" class="node">
<title>Node7</title>
<g id="a_node7"><a xlink:href="class_controllers_1_1_movement_1_1_base_movement_controller.html" target="_top" xlink:title=" ">
<polygon fill="none" stroke="black" points="491,-563.5 491,-631.5 627,-631.5 627,-563.5 491,-563.5"/>
<text text-anchor="start" x="499" y="-619.5" font-family="Helvetica,sans-Serif" font-size="10.00">Controllers.Movement.Base</text>
<text text-anchor="middle" x="559" y="-608.5" font-family="Helvetica,sans-Serif" font-size="10.00">MovementController</text>
<polyline fill="none" stroke="black" points="491,-601.5 627,-601.5 "/>
<text text-anchor="middle" x="559" y="-589.5" font-family="Helvetica,sans-Serif" font-size="10.00"> </text>
<polyline fill="none" stroke="black" points="491,-582.5 627,-582.5 "/>
<text text-anchor="middle" x="559" y="-570.5" font-family="Helvetica,sans-Serif" font-size="10.00"> </text>
</a>
</g>
</g>
<!-- Node7&#45;&gt;Node2 -->
<g id="edge6" class="edge">
<title>Node7&#45;&gt;Node2</title>
<path fill="none" stroke="#404040" d="M552.85,-563.42C548.58,-540.45 542.51,-507.75 535.99,-472.66"/>
<polygon fill="none" stroke="#404040" points="535.95,-472.48 530.93,-467.31 533.76,-460.68 538.79,-465.85 535.95,-472.48"/>
<text text-anchor="middle" x="595.5" y="-482" font-family="Helvetica,sans-Serif" font-size="10.00"> #baseMovementController</text>
</g>
<!-- Node8 -->
<g id="node8" class="node">
<title>Node8</title>
<g id="a_node8"><a xlink:title=" ">
<polygon fill="none" stroke="#bfbfbf" points="648,-569 648,-626 732,-626 732,-569 648,-569"/>
<text text-anchor="middle" x="690" y="-614" font-family="Helvetica,sans-Serif" font-size="10.00">EControllerKind</text>
<polyline fill="none" stroke="#bfbfbf" points="648,-607 732,-607 "/>
<text text-anchor="middle" x="690" y="-595" font-family="Helvetica,sans-Serif" font-size="10.00"> </text>
<polyline fill="none" stroke="#bfbfbf" points="648,-588 732,-588 "/>
<text text-anchor="middle" x="690" y="-576" font-family="Helvetica,sans-Serif" font-size="10.00"> </text>
</a>
</g>
</g>
<!-- Node8&#45;&gt;Node2 -->
<g id="edge7" class="edge">
<title>Node8&#45;&gt;Node2</title>
<path fill="none" stroke="#404040" d="M685.4,-568.78C680.59,-544.23 671.67,-507.91 657,-479 640.1,-445.7 617.22,-412.57 594.17,-383.13"/>
<polygon fill="none" stroke="#404040" points="594.15,-383.11 587.28,-380.89 586.68,-373.71 593.55,-375.92 594.15,-383.11"/>
<text text-anchor="middle" x="695" y="-482" font-family="Helvetica,sans-Serif" font-size="10.00"> #controllerKind</text>
</g>
<!-- Node9 -->
<g id="node9" class="node">
<title>Node9</title>
<g id="a_node9"><a xlink:title=" ">
<polygon fill="none" stroke="#bfbfbf" points="867.5,-999 867.5,-1056 902.5,-1056 902.5,-999 867.5,-999"/>
<text text-anchor="middle" x="885" y="-1044" font-family="Helvetica,sans-Serif" font-size="10.00">bool</text>
<polyline fill="none" stroke="#bfbfbf" points="867.5,-1037 902.5,-1037 "/>
<text text-anchor="middle" x="885" y="-1025" font-family="Helvetica,sans-Serif" font-size="10.00"> </text>
<polyline fill="none" stroke="#bfbfbf" points="867.5,-1018 902.5,-1018 "/>
<text text-anchor="middle" x="885" y="-1006" font-family="Helvetica,sans-Serif" font-size="10.00"> </text>
</a>
</g>
</g>
<!-- Node9&#45;&gt;Node2 -->
<g id="edge8" class="edge">
<title>Node9&#45;&gt;Node2</title>
<path fill="none" stroke="#404040" d="M902.86,-1010.12C923.63,-989.73 956.78,-952.71 970,-913 1027.63,-739.9 1015.55,-651.59 903,-508 824.73,-408.14 690,-344.42 598.04,-310.2"/>
<polygon fill="none" stroke="#404040" points="598.04,-310.2 591.03,-311.89 586.77,-306.07 593.78,-304.38 598.04,-310.2"/>
<text text-anchor="middle" x="1054.5" y="-719" font-family="Helvetica,sans-Serif" font-size="10.00"> #playerFacingDirection</text>
<text text-anchor="middle" x="1054.5" y="-708" font-family="Helvetica,sans-Serif" font-size="10.00">#playerOnLeft</text>
</g>
<!-- Node10 -->
<g id="node10" class="node">
<title>Node10</title>
<g id="a_node10"><a xlink:href="class_player_1_1_player_controller.html" target="_top" xlink:title=" ">
<polygon fill="none" stroke="black" points="750.5,-519.5 750.5,-675.5 893.5,-675.5 893.5,-519.5 750.5,-519.5"/>
<text text-anchor="middle" x="822" y="-663.5" font-family="Helvetica,sans-Serif" font-size="10.00">Player.PlayerController</text>
<polyline fill="none" stroke="black" points="750.5,-656.5 893.5,-656.5 "/>
<text text-anchor="middle" x="822" y="-644.5" font-family="Helvetica,sans-Serif" font-size="10.00"> </text>
<polyline fill="none" stroke="black" points="750.5,-637.5 893.5,-637.5 "/>
<text text-anchor="start" x="758.5" y="-625.5" font-family="Helvetica,sans-Serif" font-size="10.00">+ void EnterInteractionMode()</text>
<text text-anchor="start" x="758.5" y="-614.5" font-family="Helvetica,sans-Serif" font-size="10.00">+ void LandEvt()</text>
<text text-anchor="start" x="758.5" y="-603.5" font-family="Helvetica,sans-Serif" font-size="10.00">+ void OnAirEvt()</text>
<text text-anchor="start" x="758.5" y="-592.5" font-family="Helvetica,sans-Serif" font-size="10.00">+ bool IsFacingRight()</text>
<text text-anchor="start" x="758.5" y="-581.5" font-family="Helvetica,sans-Serif" font-size="10.00">+ void AnimStartPrayingEvt()</text>
<text text-anchor="start" x="758.5" y="-570.5" font-family="Helvetica,sans-Serif" font-size="10.00">+ void AnimRollEndEvt()</text>
<text text-anchor="start" x="758.5" y="-559.5" font-family="Helvetica,sans-Serif" font-size="10.00">+ void AnimFootStep1Evt()</text>
<text text-anchor="start" x="758.5" y="-548.5" font-family="Helvetica,sans-Serif" font-size="10.00">+ void AnimFootStep2Evt()</text>
<text text-anchor="start" x="758.5" y="-537.5" font-family="Helvetica,sans-Serif" font-size="10.00">~ void OnEnable()</text>
<text text-anchor="start" x="758.5" y="-526.5" font-family="Helvetica,sans-Serif" font-size="10.00">~ void OnDisable()</text>
</a>
</g>
</g>
<!-- Node9&#45;&gt;Node10 -->
<g id="edge19" class="edge">
<title>Node9&#45;&gt;Node10</title>
<path fill="none" stroke="#404040" d="M881.41,-998.9C874.78,-948.44 860.05,-837.93 846,-745 843.19,-726.41 840.03,-706.52 836.95,-687.58"/>
<polygon fill="none" stroke="#404040" points="836.93,-687.46 832.02,-682.18 835,-675.62 839.91,-680.89 836.93,-687.46"/>
<text text-anchor="middle" x="917.5" y="-848.5" font-family="Helvetica,sans-Serif" font-size="10.00"> +isEnrolledInDialogue</text>
<text text-anchor="middle" x="917.5" y="-837.5" font-family="Helvetica,sans-Serif" font-size="10.00">~awaitingAttack</text>
<text text-anchor="middle" x="917.5" y="-826.5" font-family="Helvetica,sans-Serif" font-size="10.00">~praying</text>
<text text-anchor="middle" x="917.5" y="-815.5" font-family="Helvetica,sans-Serif" font-size="10.00">~respawning</text>
<text text-anchor="middle" x="917.5" y="-804.5" font-family="Helvetica,sans-Serif" font-size="10.00">~roll</text>
</g>
<!-- Node11 -->
<g id="node11" class="node">
<title>Node11</title>
<g id="a_node11"><a xlink:href="class_player_1_1_player_movement_controller.html" target="_top" xlink:title=" ">
<polygon fill="none" stroke="black" points="532.5,-745.5 532.5,-912.5 693.5,-912.5 693.5,-745.5 532.5,-745.5"/>
<text text-anchor="middle" x="613" y="-900.5" font-family="Helvetica,sans-Serif" font-size="10.00">Player.PlayerMovementController</text>
<polyline fill="none" stroke="black" points="532.5,-893.5 693.5,-893.5 "/>
<text text-anchor="middle" x="613" y="-881.5" font-family="Helvetica,sans-Serif" font-size="10.00"> </text>
<polyline fill="none" stroke="black" points="532.5,-874.5 693.5,-874.5 "/>
<text text-anchor="start" x="540.5" y="-862.5" font-family="Helvetica,sans-Serif" font-size="10.00">+ void Move(float moveH,</text>
<text text-anchor="start" x="540.5" y="-851.5" font-family="Helvetica,sans-Serif" font-size="10.00"> float moveV, bool crouch,</text>
<text text-anchor="start" x="540.5" y="-840.5" font-family="Helvetica,sans-Serif" font-size="10.00"> bool jump, bool roll, bool</text>
<text text-anchor="start" x="540.5" y="-829.5" font-family="Helvetica,sans-Serif" font-size="10.00"> attacking)</text>
<text text-anchor="start" x="540.5" y="-818.5" font-family="Helvetica,sans-Serif" font-size="10.00">+ bool IsFacingRight()</text>
<text text-anchor="start" x="540.5" y="-807.5" font-family="Helvetica,sans-Serif" font-size="10.00">+ void EnableFlip()</text>
<text text-anchor="start" x="540.5" y="-796.5" font-family="Helvetica,sans-Serif" font-size="10.00">+ void DisableFlip()</text>
<text text-anchor="start" x="540.5" y="-785.5" font-family="Helvetica,sans-Serif" font-size="10.00">~ void AttackMovement</text>
<text text-anchor="start" x="540.5" y="-774.5" font-family="Helvetica,sans-Serif" font-size="10.00">(int power)</text>
<text text-anchor="start" x="540.5" y="-763.5" font-family="Helvetica,sans-Serif" font-size="10.00">~ void PrepareRespawn</text>
<text text-anchor="start" x="540.5" y="-752.5" font-family="Helvetica,sans-Serif" font-size="10.00">(Transform SpawnPoint)</text>
</a>
</g>
</g>
<!-- Node9&#45;&gt;Node11 -->
<g id="edge17" class="edge">
<title>Node9&#45;&gt;Node11</title>
<path fill="none" stroke="#404040" d="M867.32,-1018.55C847.93,-1009.42 816.32,-993.32 792,-975 769.91,-958.36 768.9,-949.11 748,-931 734.03,-918.89 718.73,-906.61 703.61,-894.98"/>
<polygon fill="none" stroke="#404040" points="703.26,-894.72 696.07,-894.26 693.72,-887.44 700.92,-887.9 703.26,-894.72"/>
<text text-anchor="middle" x="831.5" y="-961.5" font-family="Helvetica,sans-Serif" font-size="10.00"> ~Grounded</text>
<text text-anchor="middle" x="831.5" y="-950.5" font-family="Helvetica,sans-Serif" font-size="10.00">~IsTouchingLedge</text>
<text text-anchor="middle" x="831.5" y="-939.5" font-family="Helvetica,sans-Serif" font-size="10.00">~IsTouchingWall</text>
</g>
<!-- Node10&#45;&gt;Node2 -->
<g id="edge9" class="edge">
<title>Node10&#45;&gt;Node2</title>
<path fill="none" stroke="#404040" d="M767.31,-519.35C756.44,-505.49 744.75,-491.49 733,-479 691.06,-434.41 639.87,-389.59 596.16,-353.71"/>
<polygon fill="none" stroke="#404040" points="595.96,-353.55 588.78,-352.85 586.66,-345.96 593.84,-346.65 595.96,-353.55"/>
<text text-anchor="middle" x="779" y="-482" font-family="Helvetica,sans-Serif" font-size="10.00"> #playerController</text>
</g>
<!-- Node11&#45;&gt;Node10 -->
<g id="edge10" class="edge">
<title>Node11&#45;&gt;Node10</title>
<path fill="none" stroke="#404040" d="M624.44,-745.44C629.98,-730.24 638.11,-715.79 650,-705 680.53,-677.29 705.07,-707.21 741,-687 743.36,-685.67 745.69,-684.25 747.98,-682.75"/>
<polygon fill="none" stroke="#404040" points="748.07,-682.69 750.62,-675.94 757.82,-675.69 755.28,-682.44 748.07,-682.69"/>
<text text-anchor="middle" x="697" y="-713.5" font-family="Helvetica,sans-Serif" font-size="10.00"> #playerMovementCtrl</text>
</g>
<!-- Node12 -->
<g id="node12" class="node">
<title>Node12</title>
<g id="a_node12"><a xlink:title=" ">
<polygon fill="none" stroke="#bfbfbf" points="621.5,-999 621.5,-1056 704.5,-1056 704.5,-999 621.5,-999"/>
<text text-anchor="middle" x="663" y="-1044" font-family="Helvetica,sans-Serif" font-size="10.00">MonoBehaviour</text>
<polyline fill="none" stroke="#bfbfbf" points="621.5,-1037 704.5,-1037 "/>
<text text-anchor="middle" x="663" y="-1025" font-family="Helvetica,sans-Serif" font-size="10.00"> </text>
<polyline fill="none" stroke="#bfbfbf" points="621.5,-1018 704.5,-1018 "/>
<text text-anchor="middle" x="663" y="-1006" font-family="Helvetica,sans-Serif" font-size="10.00"> </text>
</a>
</g>
</g>
<!-- Node12&#45;&gt;Node11 -->
<g id="edge11" class="edge">
<title>Node12&#45;&gt;Node11</title>
<path fill="none" stroke="midnightblue" d="M634.35,-990.25C631.47,-985.33 628.91,-980.18 627,-975 619.78,-955.42 615.76,-933.4 613.63,-912.55"/>
<polygon fill="none" stroke="midnightblue" points="631.49,-992.27 639.82,-998.83 637.4,-988.51 631.49,-992.27"/>
</g>
<!-- Node13 -->
<g id="node13" class="node">
<title>Node13</title>
<g id="a_node13"><a xlink:href="class_player_1_1_player_movement_controller_1_1_bool_event.html" target="_top" xlink:title=" ">
<polygon fill="none" stroke="black" points="439,-993.5 439,-1061.5 603,-1061.5 603,-993.5 439,-993.5"/>
<text text-anchor="start" x="447" y="-1049.5" font-family="Helvetica,sans-Serif" font-size="10.00">Player.PlayerMovementController.</text>
<text text-anchor="middle" x="521" y="-1038.5" font-family="Helvetica,sans-Serif" font-size="10.00">BoolEvent</text>
<polyline fill="none" stroke="black" points="439,-1031.5 603,-1031.5 "/>
<text text-anchor="middle" x="521" y="-1019.5" font-family="Helvetica,sans-Serif" font-size="10.00"> </text>
<polyline fill="none" stroke="black" points="439,-1012.5 603,-1012.5 "/>
<text text-anchor="middle" x="521" y="-1000.5" font-family="Helvetica,sans-Serif" font-size="10.00"> </text>
</a>
</g>
</g>
<!-- Node13&#45;&gt;Node11 -->
<g id="edge12" class="edge">
<title>Node13&#45;&gt;Node11</title>
<path fill="none" stroke="#404040" d="M521.75,-993.11C523.17,-974.24 526.68,-950.59 535,-931 536.07,-928.47 537.22,-925.95 538.45,-923.45"/>
<polygon fill="none" stroke="#404040" points="538.59,-923.17 537.86,-916 544.21,-912.56 544.94,-919.74 538.59,-923.17"/>
<text text-anchor="middle" x="573.5" y="-950.5" font-family="Helvetica,sans-Serif" font-size="10.00"> +OnCrouchEvent</text>
</g>
<!-- Node14 -->
<g id="node14" class="node">
<title>Node14</title>
<g id="a_node14"><a xlink:title=" ">
<polygon fill="none" stroke="#bfbfbf" points="471.5,-1099.5 471.5,-1156.5 570.5,-1156.5 570.5,-1099.5 471.5,-1099.5"/>
<text text-anchor="middle" x="521" y="-1144.5" font-family="Helvetica,sans-Serif" font-size="10.00">UnityEvent&lt; bool &gt;</text>
<polyline fill="none" stroke="#bfbfbf" points="471.5,-1137.5 570.5,-1137.5 "/>
<text text-anchor="middle" x="521" y="-1125.5" font-family="Helvetica,sans-Serif" font-size="10.00"> </text>
<polyline fill="none" stroke="#bfbfbf" points="471.5,-1118.5 570.5,-1118.5 "/>
<text text-anchor="middle" x="521" y="-1106.5" font-family="Helvetica,sans-Serif" font-size="10.00"> </text>
</a>
</g>
</g>
<!-- Node14&#45;&gt;Node13 -->
<g id="edge13" class="edge">
<title>Node14&#45;&gt;Node13</title>
<path fill="none" stroke="midnightblue" d="M521,-1089.01C521,-1079.96 521,-1070.38 521,-1061.58"/>
<polygon fill="none" stroke="midnightblue" points="517.5,-1089.3 521,-1099.3 524.5,-1089.3 517.5,-1089.3"/>
</g>
<!-- Node15 -->
<g id="node15" class="node">
<title>Node15</title>
<g id="a_node15"><a xlink:title=" ">
<polygon fill="none" stroke="#bfbfbf" points="283.5,-999 283.5,-1056 346.5,-1056 346.5,-999 283.5,-999"/>
<text text-anchor="middle" x="315" y="-1044" font-family="Helvetica,sans-Serif" font-size="10.00">UnityEvent</text>
<polyline fill="none" stroke="#bfbfbf" points="283.5,-1037 346.5,-1037 "/>
<text text-anchor="middle" x="315" y="-1025" font-family="Helvetica,sans-Serif" font-size="10.00"> </text>
<polyline fill="none" stroke="#bfbfbf" points="283.5,-1018 346.5,-1018 "/>
<text text-anchor="middle" x="315" y="-1006" font-family="Helvetica,sans-Serif" font-size="10.00"> </text>
</a>
</g>
</g>
<!-- Node15&#45;&gt;Node11 -->
<g id="edge14" class="edge">
<title>Node15&#45;&gt;Node11</title>
<path fill="none" stroke="#404040" d="M324.18,-998.95C332.45,-977.87 346.48,-949.4 367,-931 410.37,-892.12 470.75,-867.03 520.83,-851.58"/>
<polygon fill="none" stroke="#404040" points="520.84,-851.58 525.44,-846.03 532.33,-848.14 527.73,-853.69 520.84,-851.58"/>
<text text-anchor="middle" x="399" y="-956" font-family="Helvetica,sans-Serif" font-size="10.00"> +OnAirEvent</text>
<text text-anchor="middle" x="399" y="-945" font-family="Helvetica,sans-Serif" font-size="10.00">+OnLandEvent</text>
</g>
<!-- Node16 -->
<g id="node16" class="node">
<title>Node16</title>
<g id="a_node16"><a xlink:title=" ">
<polygon fill="none" stroke="#bfbfbf" points="731.5,-999 731.5,-1056 766.5,-1056 766.5,-999 731.5,-999"/>
<text text-anchor="middle" x="749" y="-1044" font-family="Helvetica,sans-Serif" font-size="10.00">float</text>
<polyline fill="none" stroke="#bfbfbf" points="731.5,-1037 766.5,-1037 "/>
<text text-anchor="middle" x="749" y="-1025" font-family="Helvetica,sans-Serif" font-size="10.00"> </text>
<polyline fill="none" stroke="#bfbfbf" points="731.5,-1018 766.5,-1018 "/>
<text text-anchor="middle" x="749" y="-1006" font-family="Helvetica,sans-Serif" font-size="10.00"> </text>
</a>
</g>
</g>
<!-- Node16&#45;&gt;Node10 -->
<g id="edge18" class="edge">
<title>Node16&#45;&gt;Node10</title>
<path fill="none" stroke="#404040" d="M748.56,-998.83C747.8,-937.68 747.24,-792.7 758,-745 762.37,-725.63 769.3,-705.64 777.01,-686.89"/>
<polygon fill="none" stroke="#404040" points="777.07,-686.75 775.74,-679.66 781.77,-675.71 783.1,-682.79 777.07,-686.75"/>
<text text-anchor="middle" x="800" y="-826.5" font-family="Helvetica,sans-Serif" font-size="10.00"> #interactionRadius</text>
</g>
<!-- Node16&#45;&gt;Node11 -->
<g id="edge15" class="edge">
<title>Node16&#45;&gt;Node11</title>
<path fill="none" stroke="#404040" d="M731.17,-1006.15C726.04,-1001.27 720.16,-996.47 714,-993 687.14,-977.87 668.45,-997.15 647,-975 639.07,-966.81 632.57,-947.08 627.46,-924.71"/>
<polygon fill="none" stroke="#404040" points="627.43,-924.56 622.26,-919.53 624.91,-912.83 630.08,-917.86 627.43,-924.56"/>
<text text-anchor="middle" x="695.5" y="-967" font-family="Helvetica,sans-Serif" font-size="10.00"> +LedgeClimbXOffset1</text>
<text text-anchor="middle" x="695.5" y="-956" font-family="Helvetica,sans-Serif" font-size="10.00">+LedgeClimbXOffset2</text>
<text text-anchor="middle" x="695.5" y="-945" font-family="Helvetica,sans-Serif" font-size="10.00">+LedgeClimbYOffset1</text>
<text text-anchor="middle" x="695.5" y="-934" font-family="Helvetica,sans-Serif" font-size="10.00">+LedgeClimbYOffset2</text>
</g>
<!-- Node17 -->
<g id="node17" class="node">
<title>Node17</title>
<g id="a_node17"><a xlink:title=" ">
<polygon fill="none" stroke="#bfbfbf" points="371,-999 371,-1056 421,-1056 421,-999 371,-999"/>
<text text-anchor="middle" x="396" y="-1044" font-family="Helvetica,sans-Serif" font-size="10.00">Vector3</text>
<polyline fill="none" stroke="#bfbfbf" points="371,-1037 421,-1037 "/>
<text text-anchor="middle" x="396" y="-1025" font-family="Helvetica,sans-Serif" font-size="10.00"> </text>
<polyline fill="none" stroke="#bfbfbf" points="371,-1018 421,-1018 "/>
<text text-anchor="middle" x="396" y="-1006" font-family="Helvetica,sans-Serif" font-size="10.00"> </text>
</a>
</g>
</g>
<!-- Node17&#45;&gt;Node11 -->
<g id="edge16" class="edge">
<title>Node17&#45;&gt;Node11</title>
<path fill="none" stroke="#404040" d="M415.48,-998.97C430.32,-978.98 451.91,-951.88 474,-931 488.86,-916.96 505.73,-903.19 522.46,-890.56"/>
<polygon fill="none" stroke="#404040" points="522.65,-890.42 525.09,-883.63 532.29,-883.27 529.86,-890.06 522.65,-890.42"/>
<text text-anchor="middle" x="496.5" y="-950.5" font-family="Helvetica,sans-Serif" font-size="10.00"> ~Velocity</text>
</g>
</g>
</svg>
