<?xml version="1.0" encoding="UTF-8" standalone="no"?>
<!DOCTYPE svg PUBLIC "-//W3C//DTD SVG 1.1//EN"
 "http://www.w3.org/Graphics/SVG/1.1/DTD/svg11.dtd">
<!-- Generated by graphviz version 2.48.0 (20210717.1556)
 -->
<!-- Title: Controllers.Froggy.Froggy_PrepareAttackState Pages: 1 -->
<svg width="1759pt" height="1583pt"
 viewBox="0.00 0.00 1759.00 1583.00" xmlns="http://www.w3.org/2000/svg" xmlns:xlink="http://www.w3.org/1999/xlink">
<g id="graph0" class="graph" transform="scale(1 1) rotate(0) translate(4 1579)">
<title>Controllers.Froggy.Froggy_PrepareAttackState</title>
<!-- Node1 -->
<g id="node1" class="node">
<title>Node1</title>
<g id="a_node1"><a xlink:title=" ">
<polygon fill="#bfbfbf" stroke="black" points="1269,-0.5 1269,-123.5 1493,-123.5 1493,-0.5 1269,-0.5"/>
<text text-anchor="start" x="1277" y="-111.5" font-family="Helvetica,sans-Serif" font-size="10.00">Controllers.Froggy.Froggy</text>
<text text-anchor="middle" x="1381" y="-100.5" font-family="Helvetica,sans-Serif" font-size="10.00">_PrepareAttackState</text>
<polyline fill="none" stroke="black" points="1269,-93.5 1493,-93.5 "/>
<text text-anchor="middle" x="1381" y="-81.5" font-family="Helvetica,sans-Serif" font-size="10.00"> </text>
<polyline fill="none" stroke="black" points="1269,-74.5 1493,-74.5 "/>
<text text-anchor="start" x="1277" y="-62.5" font-family="Helvetica,sans-Serif" font-size="10.00">+ Froggy_PrepareAttackState</text>
<text text-anchor="start" x="1277" y="-51.5" font-family="Helvetica,sans-Serif" font-size="10.00">(BaseController controller,</text>
<text text-anchor="start" x="1277" y="-40.5" font-family="Helvetica,sans-Serif" font-size="10.00"> ControllerStateMachine stateMachine,</text>
<text text-anchor="start" x="1277" y="-29.5" font-family="Helvetica,sans-Serif" font-size="10.00"> string animBoolName, PrepareAttackStateData</text>
<text text-anchor="start" x="1277" y="-18.5" font-family="Helvetica,sans-Serif" font-size="10.00"> stateData, FroggyController froggyController)</text>
<text text-anchor="start" x="1277" y="-7.5" font-family="Helvetica,sans-Serif" font-size="10.00">+ override void UpdateState()</text>
</a>
</g>
</g>
<!-- Node2 -->
<g id="node2" class="node">
<title>Node2</title>
<g id="a_node2"><a xlink:href="class_controllers_1_1_state_machine_1_1_states_1_1_prepare_attack_state.html" target="_top" xlink:title=" ">
<polygon fill="none" stroke="black" points="1291,-161.5 1291,-317.5 1471,-317.5 1471,-161.5 1291,-161.5"/>
<text text-anchor="middle" x="1381" y="-305.5" font-family="Helvetica,sans-Serif" font-size="10.00">PrepareAttackState</text>
<polyline fill="none" stroke="black" points="1291,-298.5 1471,-298.5 "/>
<text text-anchor="middle" x="1381" y="-286.5" font-family="Helvetica,sans-Serif" font-size="10.00"> </text>
<polyline fill="none" stroke="black" points="1291,-279.5 1471,-279.5 "/>
<text text-anchor="start" x="1299" y="-267.5" font-family="Helvetica,sans-Serif" font-size="10.00">+ PrepareAttackState</text>
<text text-anchor="start" x="1299" y="-256.5" font-family="Helvetica,sans-Serif" font-size="10.00">(BaseController controller,</text>
<text text-anchor="start" x="1299" y="-245.5" font-family="Helvetica,sans-Serif" font-size="10.00"> ControllerStateMachine</text>
<text text-anchor="start" x="1299" y="-234.5" font-family="Helvetica,sans-Serif" font-size="10.00"> stateMachine, string animBoolName,</text>
<text text-anchor="start" x="1299" y="-223.5" font-family="Helvetica,sans-Serif" font-size="10.00"> PrepareAttackStateData stateData)</text>
<text text-anchor="start" x="1299" y="-212.5" font-family="Helvetica,sans-Serif" font-size="10.00">+ override void Enter()</text>
<text text-anchor="start" x="1299" y="-201.5" font-family="Helvetica,sans-Serif" font-size="10.00">+ override void Exit()</text>
<text text-anchor="start" x="1299" y="-190.5" font-family="Helvetica,sans-Serif" font-size="10.00">+ override void UpdateState()</text>
<text text-anchor="start" x="1299" y="-179.5" font-family="Helvetica,sans-Serif" font-size="10.00">+ override void UpdatePhysics()</text>
<text text-anchor="start" x="1299" y="-168.5" font-family="Helvetica,sans-Serif" font-size="10.00"># virtual void LookAtPlayer()</text>
</a>
</g>
</g>
<!-- Node2&#45;&gt;Node1 -->
<g id="edge1" class="edge">
<title>Node2&#45;&gt;Node1</title>
<path fill="none" stroke="midnightblue" d="M1381,-151.19C1381,-141.87 1381,-132.56 1381,-123.65"/>
<polygon fill="none" stroke="midnightblue" points="1377.5,-151.27 1381,-161.27 1384.5,-151.27 1377.5,-151.27"/>
</g>
<!-- Node3 -->
<g id="node3" class="node">
<title>Node3</title>
<g id="a_node3"><a xlink:href="class_controllers_1_1_state_machine_1_1_state.html" target="_top" xlink:title="Clase base para los estados de cada personaje. Controla el ciclo de vida de cada estado (Enter,...">
<polygon fill="none" stroke="black" points="641.5,-355.5 641.5,-489.5 786.5,-489.5 786.5,-355.5 641.5,-355.5"/>
<text text-anchor="middle" x="714" y="-477.5" font-family="Helvetica,sans-Serif" font-size="10.00">State</text>
<polyline fill="none" stroke="black" points="641.5,-470.5 786.5,-470.5 "/>
<text text-anchor="middle" x="714" y="-458.5" font-family="Helvetica,sans-Serif" font-size="10.00"> </text>
<polyline fill="none" stroke="black" points="641.5,-451.5 786.5,-451.5 "/>
<text text-anchor="start" x="649.5" y="-439.5" font-family="Helvetica,sans-Serif" font-size="10.00">+ State(BaseController</text>
<text text-anchor="start" x="649.5" y="-428.5" font-family="Helvetica,sans-Serif" font-size="10.00"> controller, ControllerState</text>
<text text-anchor="start" x="649.5" y="-417.5" font-family="Helvetica,sans-Serif" font-size="10.00">Machine stateMachine, string</text>
<text text-anchor="start" x="649.5" y="-406.5" font-family="Helvetica,sans-Serif" font-size="10.00"> animBoolName)</text>
<text text-anchor="start" x="649.5" y="-395.5" font-family="Helvetica,sans-Serif" font-size="10.00">+ virtual void Enter()</text>
<text text-anchor="start" x="649.5" y="-384.5" font-family="Helvetica,sans-Serif" font-size="10.00">+ virtual void Exit()</text>
<text text-anchor="start" x="649.5" y="-373.5" font-family="Helvetica,sans-Serif" font-size="10.00">+ virtual void UpdateState()</text>
<text text-anchor="start" x="649.5" y="-362.5" font-family="Helvetica,sans-Serif" font-size="10.00">+ virtual void UpdatePhysics()</text>
</a>
</g>
</g>
<!-- Node3&#45;&gt;Node2 -->
<g id="edge2" class="edge">
<title>Node3&#45;&gt;Node2</title>
<path fill="none" stroke="midnightblue" d="M796.62,-399.08C922.38,-364.95 1160.94,-300.22 1290.98,-264.93"/>
<polygon fill="none" stroke="midnightblue" points="795.38,-395.79 786.65,-401.79 797.22,-402.54 795.38,-395.79"/>
</g>
<!-- Node4 -->
<g id="node4" class="node">
<title>Node4</title>
<g id="a_node4"><a xlink:title=" ">
<polygon fill="none" stroke="#bfbfbf" points="818.5,-785 818.5,-842 859.5,-842 859.5,-785 818.5,-785"/>
<text text-anchor="middle" x="839" y="-830" font-family="Helvetica,sans-Serif" font-size="10.00">string</text>
<polyline fill="none" stroke="#bfbfbf" points="818.5,-823 859.5,-823 "/>
<text text-anchor="middle" x="839" y="-811" font-family="Helvetica,sans-Serif" font-size="10.00"> </text>
<polyline fill="none" stroke="#bfbfbf" points="818.5,-804 859.5,-804 "/>
<text text-anchor="middle" x="839" y="-792" font-family="Helvetica,sans-Serif" font-size="10.00"> </text>
</a>
</g>
</g>
<!-- Node4&#45;&gt;Node3 -->
<g id="edge3" class="edge">
<title>Node4&#45;&gt;Node3</title>
<path fill="none" stroke="#404040" d="M841.29,-784.98C844.45,-733.85 846.16,-621.71 810,-537 804.42,-523.93 796.8,-511.23 788.27,-499.34"/>
<polygon fill="none" stroke="#404040" points="788.13,-499.15 781.32,-496.76 780.92,-489.56 787.72,-491.95 788.13,-499.15"/>
<text text-anchor="middle" x="835.5" y="-511" font-family="Helvetica,sans-Serif" font-size="10.00"> #animBoolName</text>
</g>
<!-- Node5 -->
<g id="node5" class="node">
<title>Node5</title>
<g id="a_node5"><a xlink:href="class_controllers_1_1_base_controller.html" target="_top" xlink:title=" ">
<polygon fill="none" stroke="black" points="627.5,-537.5 627.5,-1089.5 800.5,-1089.5 800.5,-537.5 627.5,-537.5"/>
<text text-anchor="middle" x="714" y="-1077.5" font-family="Helvetica,sans-Serif" font-size="10.00">Controllers.BaseController</text>
<polyline fill="none" stroke="black" points="627.5,-1070.5 800.5,-1070.5 "/>
<text text-anchor="start" x="635.5" y="-1058.5" font-family="Helvetica,sans-Serif" font-size="10.00">+ int FacingDirection</text>
<text text-anchor="start" x="635.5" y="-1047.5" font-family="Helvetica,sans-Serif" font-size="10.00">+ bool IsReadyToAttack</text>
<text text-anchor="start" x="635.5" y="-1036.5" font-family="Helvetica,sans-Serif" font-size="10.00">+ bool wallDetected</text>
<text text-anchor="start" x="635.5" y="-1025.5" font-family="Helvetica,sans-Serif" font-size="10.00">+ bool groundDetected</text>
<text text-anchor="start" x="635.5" y="-1014.5" font-family="Helvetica,sans-Serif" font-size="10.00">+ bool topDetected</text>
<polyline fill="none" stroke="black" points="627.5,-1007.5 800.5,-1007.5 "/>
<text text-anchor="start" x="635.5" y="-995.5" font-family="Helvetica,sans-Serif" font-size="10.00">+ void Flip()</text>
<text text-anchor="start" x="635.5" y="-984.5" font-family="Helvetica,sans-Serif" font-size="10.00">+ void SetVelocity(float</text>
<text text-anchor="start" x="635.5" y="-973.5" font-family="Helvetica,sans-Serif" font-size="10.00"> velocity)</text>
<text text-anchor="start" x="635.5" y="-962.5" font-family="Helvetica,sans-Serif" font-size="10.00">+ void AddForce(Vector2</text>
<text text-anchor="start" x="635.5" y="-951.5" font-family="Helvetica,sans-Serif" font-size="10.00"> newForce, bool isImpulse)</text>
<text text-anchor="start" x="635.5" y="-940.5" font-family="Helvetica,sans-Serif" font-size="10.00">+ void AddTorque(float</text>
<text text-anchor="start" x="635.5" y="-929.5" font-family="Helvetica,sans-Serif" font-size="10.00"> newTorque, bool isImpulse)</text>
<text text-anchor="start" x="635.5" y="-918.5" font-family="Helvetica,sans-Serif" font-size="10.00">+ T GetMovementController</text>
<text text-anchor="start" x="635.5" y="-907.5" font-family="Helvetica,sans-Serif" font-size="10.00">&lt; T &gt;()</text>
<text text-anchor="start" x="635.5" y="-896.5" font-family="Helvetica,sans-Serif" font-size="10.00">+ Animator GetAnimator()</text>
<text text-anchor="start" x="635.5" y="-885.5" font-family="Helvetica,sans-Serif" font-size="10.00">+ Transform GetTransfrom()</text>
<text text-anchor="start" x="635.5" y="-874.5" font-family="Helvetica,sans-Serif" font-size="10.00">+ GameObject GetDialogueBubble()</text>
<text text-anchor="start" x="635.5" y="-863.5" font-family="Helvetica,sans-Serif" font-size="10.00">+ bool CheckWall()</text>
<text text-anchor="start" x="635.5" y="-852.5" font-family="Helvetica,sans-Serif" font-size="10.00">+ bool CheckLedge()</text>
<text text-anchor="start" x="635.5" y="-841.5" font-family="Helvetica,sans-Serif" font-size="10.00">+ bool CheckGround()</text>
<text text-anchor="start" x="635.5" y="-830.5" font-family="Helvetica,sans-Serif" font-size="10.00">+ bool CheckPlayerInRange()</text>
<text text-anchor="start" x="635.5" y="-819.5" font-family="Helvetica,sans-Serif" font-size="10.00">+ void SwitchStates(ECharacter</text>
<text text-anchor="start" x="635.5" y="-808.5" font-family="Helvetica,sans-Serif" font-size="10.00">State nextState)</text>
<text text-anchor="start" x="635.5" y="-797.5" font-family="Helvetica,sans-Serif" font-size="10.00">+ void Anim_PreparingAttack</text>
<text text-anchor="start" x="635.5" y="-786.5" font-family="Helvetica,sans-Serif" font-size="10.00">Finished()</text>
<text text-anchor="start" x="635.5" y="-775.5" font-family="Helvetica,sans-Serif" font-size="10.00">+ virtual void Damage</text>
<text text-anchor="start" x="635.5" y="-764.5" font-family="Helvetica,sans-Serif" font-size="10.00">(float amount, int attackN)</text>
<text text-anchor="start" x="635.5" y="-753.5" font-family="Helvetica,sans-Serif" font-size="10.00">+ void Damage(BaseController</text>
<text text-anchor="start" x="635.5" y="-742.5" font-family="Helvetica,sans-Serif" font-size="10.00"> controller, DamageInfo</text>
<text text-anchor="start" x="635.5" y="-731.5" font-family="Helvetica,sans-Serif" font-size="10.00"> damageInfo)</text>
<text text-anchor="start" x="635.5" y="-720.5" font-family="Helvetica,sans-Serif" font-size="10.00">+ void Kill()</text>
<text text-anchor="start" x="635.5" y="-709.5" font-family="Helvetica,sans-Serif" font-size="10.00">+ bool Interact(BaseController</text>
<text text-anchor="start" x="635.5" y="-698.5" font-family="Helvetica,sans-Serif" font-size="10.00"> controller, EInteractionKind</text>
<text text-anchor="start" x="635.5" y="-687.5" font-family="Helvetica,sans-Serif" font-size="10.00"> interactionKind)</text>
<text text-anchor="start" x="635.5" y="-676.5" font-family="Helvetica,sans-Serif" font-size="10.00">+ bool Interact(PlayerController</text>
<text text-anchor="start" x="635.5" y="-665.5" font-family="Helvetica,sans-Serif" font-size="10.00"> controller, EInteractionKind</text>
<text text-anchor="start" x="635.5" y="-654.5" font-family="Helvetica,sans-Serif" font-size="10.00"> interactionKind)</text>
<text text-anchor="start" x="635.5" y="-643.5" font-family="Helvetica,sans-Serif" font-size="10.00">+ void ReadyToInteract</text>
<text text-anchor="start" x="635.5" y="-632.5" font-family="Helvetica,sans-Serif" font-size="10.00">(PlayerController controller,</text>
<text text-anchor="start" x="635.5" y="-621.5" font-family="Helvetica,sans-Serif" font-size="10.00"> bool isReady)</text>
<text text-anchor="start" x="635.5" y="-610.5" font-family="Helvetica,sans-Serif" font-size="10.00">+ void ReadyToInteract</text>
<text text-anchor="start" x="635.5" y="-599.5" font-family="Helvetica,sans-Serif" font-size="10.00">(BaseController controller,</text>
<text text-anchor="start" x="635.5" y="-588.5" font-family="Helvetica,sans-Serif" font-size="10.00"> bool isReady)</text>
<text text-anchor="start" x="635.5" y="-577.5" font-family="Helvetica,sans-Serif" font-size="10.00"># virtual void Start()</text>
<text text-anchor="start" x="635.5" y="-566.5" font-family="Helvetica,sans-Serif" font-size="10.00"># virtual void OnDrawGizmos()</text>
<text text-anchor="start" x="635.5" y="-555.5" font-family="Helvetica,sans-Serif" font-size="10.00"># virtual void OnEnterDead</text>
<text text-anchor="start" x="635.5" y="-544.5" font-family="Helvetica,sans-Serif" font-size="10.00">StateStart()</text>
</a>
</g>
</g>
<!-- Node5&#45;&gt;Node3 -->
<g id="edge4" class="edge">
<title>Node5&#45;&gt;Node3</title>
<path fill="none" stroke="#404040" d="M714,-537.32C714,-524.88 714,-512.98 714,-501.87"/>
<polygon fill="none" stroke="#404040" points="714,-501.68 710,-495.68 714,-489.68 718,-495.68 714,-501.68"/>
<text text-anchor="middle" x="738.5" y="-511" font-family="Helvetica,sans-Serif" font-size="10.00"> #controller</text>
</g>
<!-- Node6 -->
<g id="node6" class="node">
<title>Node6</title>
<g id="a_node6"><a xlink:href="interface_controllers_1_1_i_damageable.html" target="_top" xlink:title="Interfaz para todos los NPCs/Enemigos/Objetos que pueden ser daniados.">
<polygon fill="none" stroke="black" points="281,-1462.5 281,-1574.5 429,-1574.5 429,-1462.5 281,-1462.5"/>
<text text-anchor="middle" x="355" y="-1562.5" font-family="Helvetica,sans-Serif" font-size="10.00">IDamageable</text>
<polyline fill="none" stroke="black" points="281,-1555.5 429,-1555.5 "/>
<text text-anchor="middle" x="355" y="-1543.5" font-family="Helvetica,sans-Serif" font-size="10.00"> </text>
<polyline fill="none" stroke="black" points="281,-1536.5 429,-1536.5 "/>
<text text-anchor="start" x="289" y="-1524.5" font-family="Helvetica,sans-Serif" font-size="10.00">+ void Damage(float amount,</text>
<text text-anchor="start" x="289" y="-1513.5" font-family="Helvetica,sans-Serif" font-size="10.00"> int attackN)</text>
<text text-anchor="start" x="289" y="-1502.5" font-family="Helvetica,sans-Serif" font-size="10.00">+ void Damage(BaseController</text>
<text text-anchor="start" x="289" y="-1491.5" font-family="Helvetica,sans-Serif" font-size="10.00"> controller, DamageInfo</text>
<text text-anchor="start" x="289" y="-1480.5" font-family="Helvetica,sans-Serif" font-size="10.00"> damageInfo)</text>
<text text-anchor="start" x="289" y="-1469.5" font-family="Helvetica,sans-Serif" font-size="10.00">+ void Kill()</text>
</a>
</g>
</g>
<!-- Node6&#45;&gt;Node5 -->
<g id="edge5" class="edge">
<title>Node6&#45;&gt;Node5</title>
<path fill="none" stroke="midnightblue" d="M438.71,-1500.51C469.67,-1489.73 501.66,-1472.25 520,-1444 533.31,-1423.5 531.53,-1410.55 520,-1389 513.19,-1376.28 499.81,-1383.72 493,-1371 443.93,-1279.31 462.23,-1236.34 493,-1137 519.51,-1051.42 577.44,-968.35 627.34,-907.96"/>
<polygon fill="none" stroke="midnightblue" points="437.57,-1497.2 429.15,-1503.64 439.75,-1503.85 437.57,-1497.2"/>
</g>
<!-- Node19 -->
<g id="node19" class="node">
<title>Node19</title>
<g id="a_node19"><a xlink:href="class_player_1_1_player_controller.html" target="_top" xlink:title=" ">
<polygon fill="none" stroke="black" points="298,-1137.5 298,-1370.5 446,-1370.5 446,-1137.5 298,-1137.5"/>
<text text-anchor="middle" x="372" y="-1358.5" font-family="Helvetica,sans-Serif" font-size="10.00">Player.PlayerController</text>
<polyline fill="none" stroke="black" points="298,-1351.5 446,-1351.5 "/>
<text text-anchor="middle" x="372" y="-1339.5" font-family="Helvetica,sans-Serif" font-size="10.00"> </text>
<polyline fill="none" stroke="black" points="298,-1332.5 446,-1332.5 "/>
<text text-anchor="start" x="306" y="-1320.5" font-family="Helvetica,sans-Serif" font-size="10.00">+ void Damage(float amount,</text>
<text text-anchor="start" x="306" y="-1309.5" font-family="Helvetica,sans-Serif" font-size="10.00"> int attackN)</text>
<text text-anchor="start" x="306" y="-1298.5" font-family="Helvetica,sans-Serif" font-size="10.00">+ void Damage(BaseController</text>
<text text-anchor="start" x="306" y="-1287.5" font-family="Helvetica,sans-Serif" font-size="10.00"> controller, DamageInfo</text>
<text text-anchor="start" x="306" y="-1276.5" font-family="Helvetica,sans-Serif" font-size="10.00"> damageInfo)</text>
<text text-anchor="start" x="306" y="-1265.5" font-family="Helvetica,sans-Serif" font-size="10.00">+ void Kill()</text>
<text text-anchor="start" x="306" y="-1254.5" font-family="Helvetica,sans-Serif" font-size="10.00">+ void EnterInteractionMode()</text>
<text text-anchor="start" x="306" y="-1243.5" font-family="Helvetica,sans-Serif" font-size="10.00">+ int GetFacingDirection()</text>
<text text-anchor="start" x="306" y="-1232.5" font-family="Helvetica,sans-Serif" font-size="10.00">+ void LandEvt()</text>
<text text-anchor="start" x="306" y="-1221.5" font-family="Helvetica,sans-Serif" font-size="10.00">+ void OnAirEvt()</text>
<text text-anchor="start" x="306" y="-1210.5" font-family="Helvetica,sans-Serif" font-size="10.00">+ bool IsFacingRight()</text>
<text text-anchor="start" x="306" y="-1199.5" font-family="Helvetica,sans-Serif" font-size="10.00">+ void AnimStartPrayingEvt()</text>
<text text-anchor="start" x="306" y="-1188.5" font-family="Helvetica,sans-Serif" font-size="10.00">+ void AnimRollEndEvt()</text>
<text text-anchor="start" x="306" y="-1177.5" font-family="Helvetica,sans-Serif" font-size="10.00">+ void AnimFootStep1Evt()</text>
<text text-anchor="start" x="306" y="-1166.5" font-family="Helvetica,sans-Serif" font-size="10.00">+ void AnimFootStep2Evt()</text>
<text text-anchor="start" x="306" y="-1155.5" font-family="Helvetica,sans-Serif" font-size="10.00">~ void OnEnable()</text>
<text text-anchor="start" x="306" y="-1144.5" font-family="Helvetica,sans-Serif" font-size="10.00">~ void OnDisable()</text>
</a>
</g>
</g>
<!-- Node6&#45;&gt;Node19 -->
<g id="edge19" class="edge">
<title>Node6&#45;&gt;Node19</title>
<path fill="none" stroke="midnightblue" d="M274.78,-1455.99C272.21,-1452.15 269.93,-1448.15 268,-1444 257.71,-1421.83 258.06,-1411.33 268,-1389 272.87,-1378.08 280,-1379.89 288,-1371 291.33,-1367.3 294.64,-1363.47 297.94,-1359.56"/>
<polygon fill="none" stroke="midnightblue" points="272.06,-1458.19 280.82,-1464.14 277.68,-1454.02 272.06,-1458.19"/>
</g>
<!-- Node7 -->
<g id="node7" class="node">
<title>Node7</title>
<g id="a_node7"><a xlink:href="interface_interactions_1_1_interfaces_1_1_i_interactive.html" target="_top" xlink:title=" ">
<polygon fill="none" stroke="black" points="1155.5,-1165 1155.5,-1343 1306.5,-1343 1306.5,-1165 1155.5,-1165"/>
<text text-anchor="middle" x="1231" y="-1331" font-family="Helvetica,sans-Serif" font-size="10.00">IInteractive</text>
<polyline fill="none" stroke="black" points="1155.5,-1324 1306.5,-1324 "/>
<text text-anchor="middle" x="1231" y="-1312" font-family="Helvetica,sans-Serif" font-size="10.00"> </text>
<polyline fill="none" stroke="black" points="1155.5,-1305 1306.5,-1305 "/>
<text text-anchor="start" x="1163.5" y="-1293" font-family="Helvetica,sans-Serif" font-size="10.00">+ bool Interact(BaseController</text>
<text text-anchor="start" x="1163.5" y="-1282" font-family="Helvetica,sans-Serif" font-size="10.00"> controller, EInteractionKind</text>
<text text-anchor="start" x="1163.5" y="-1271" font-family="Helvetica,sans-Serif" font-size="10.00"> interactionKind)</text>
<text text-anchor="start" x="1163.5" y="-1260" font-family="Helvetica,sans-Serif" font-size="10.00">+ bool Interact(PlayerController</text>
<text text-anchor="start" x="1163.5" y="-1249" font-family="Helvetica,sans-Serif" font-size="10.00"> controller, EInteractionKind</text>
<text text-anchor="start" x="1163.5" y="-1238" font-family="Helvetica,sans-Serif" font-size="10.00"> interactionKind)</text>
<text text-anchor="start" x="1163.5" y="-1227" font-family="Helvetica,sans-Serif" font-size="10.00">+ void ReadyToInteract</text>
<text text-anchor="start" x="1163.5" y="-1216" font-family="Helvetica,sans-Serif" font-size="10.00">(PlayerController controller,</text>
<text text-anchor="start" x="1163.5" y="-1205" font-family="Helvetica,sans-Serif" font-size="10.00"> bool isReady)</text>
<text text-anchor="start" x="1163.5" y="-1194" font-family="Helvetica,sans-Serif" font-size="10.00">+ void ReadyToInteract</text>
<text text-anchor="start" x="1163.5" y="-1183" font-family="Helvetica,sans-Serif" font-size="10.00">(BaseController controller,</text>
<text text-anchor="start" x="1163.5" y="-1172" font-family="Helvetica,sans-Serif" font-size="10.00"> bool isReady)</text>
</a>
</g>
</g>
<!-- Node7&#45;&gt;Node5 -->
<g id="edge6" class="edge">
<title>Node7&#45;&gt;Node5</title>
<path fill="none" stroke="midnightblue" d="M1181.12,-1156.66C1166.62,-1137.4 1148.93,-1119.57 1128,-1108 1066.05,-1073.77 866.52,-1132.61 810,-1090 806.76,-1087.56 803.64,-1085 800.62,-1082.34"/>
<polygon fill="none" stroke="midnightblue" points="1178.44,-1158.93 1187.14,-1164.98 1184.11,-1154.83 1178.44,-1158.93"/>
</g>
<!-- Node8 -->
<g id="node8" class="node">
<title>Node8</title>
<g id="a_node8"><a xlink:title=" ">
<polygon fill="none" stroke="#bfbfbf" points="653.5,-1225.5 653.5,-1282.5 724.5,-1282.5 724.5,-1225.5 653.5,-1225.5"/>
<text text-anchor="middle" x="689" y="-1270.5" font-family="Helvetica,sans-Serif" font-size="10.00">Rigidbody2D</text>
<polyline fill="none" stroke="#bfbfbf" points="653.5,-1263.5 724.5,-1263.5 "/>
<text text-anchor="middle" x="689" y="-1251.5" font-family="Helvetica,sans-Serif" font-size="10.00"> </text>
<polyline fill="none" stroke="#bfbfbf" points="653.5,-1244.5 724.5,-1244.5 "/>
<text text-anchor="middle" x="689" y="-1232.5" font-family="Helvetica,sans-Serif" font-size="10.00"> </text>
</a>
</g>
</g>
<!-- Node8&#45;&gt;Node5 -->
<g id="edge7" class="edge">
<title>Node8&#45;&gt;Node5</title>
<path fill="none" stroke="#404040" d="M684.99,-1225.36C681.29,-1198.32 676.06,-1155.93 674,-1119 673.69,-1113.46 673.47,-1107.87 673.34,-1102.24"/>
<polygon fill="none" stroke="#404040" points="673.33,-1101.85 669.26,-1095.9 673.18,-1089.85 677.26,-1095.8 673.33,-1101.85"/>
<text text-anchor="middle" x="704" y="-1111" font-family="Helvetica,sans-Serif" font-size="10.00"> #rigidbody2D</text>
</g>
<!-- Node9 -->
<g id="node9" class="node">
<title>Node9</title>
<g id="a_node9"><a xlink:title=" ">
<polygon fill="none" stroke="#bfbfbf" points="743,-1225.5 743,-1282.5 799,-1282.5 799,-1225.5 743,-1225.5"/>
<text text-anchor="middle" x="771" y="-1270.5" font-family="Helvetica,sans-Serif" font-size="10.00">Animator</text>
<polyline fill="none" stroke="#bfbfbf" points="743,-1263.5 799,-1263.5 "/>
<text text-anchor="middle" x="771" y="-1251.5" font-family="Helvetica,sans-Serif" font-size="10.00"> </text>
<polyline fill="none" stroke="#bfbfbf" points="743,-1244.5 799,-1244.5 "/>
<text text-anchor="middle" x="771" y="-1232.5" font-family="Helvetica,sans-Serif" font-size="10.00"> </text>
</a>
</g>
</g>
<!-- Node9&#45;&gt;Node5 -->
<g id="edge8" class="edge">
<title>Node9&#45;&gt;Node5</title>
<path fill="none" stroke="#404040" d="M767.39,-1225.24C763.81,-1197.68 757.91,-1152.32 751.32,-1101.59"/>
<polygon fill="none" stroke="#404040" points="751.31,-1101.54 746.57,-1096.1 749.76,-1089.64 754.51,-1095.07 751.31,-1101.54"/>
<text text-anchor="middle" x="796" y="-1111" font-family="Helvetica,sans-Serif" font-size="10.00"> #characterAnimator</text>
</g>
<!-- Node10 -->
<g id="node10" class="node">
<title>Node10</title>
<g id="a_node10"><a xlink:href="class_controllers_1_1_state_machine_1_1_states_1_1_data_1_1_controller_data.html" target="_top" xlink:title=" ">
<polygon fill="none" stroke="black" points="502.5,-1220 502.5,-1288 635.5,-1288 635.5,-1220 502.5,-1220"/>
<text text-anchor="start" x="510.5" y="-1276" font-family="Helvetica,sans-Serif" font-size="10.00">Controllers.StateMachine.</text>
<text text-anchor="middle" x="569" y="-1265" font-family="Helvetica,sans-Serif" font-size="10.00">States.Data.ControllerData</text>
<polyline fill="none" stroke="black" points="502.5,-1258 635.5,-1258 "/>
<text text-anchor="middle" x="569" y="-1246" font-family="Helvetica,sans-Serif" font-size="10.00"> </text>
<polyline fill="none" stroke="black" points="502.5,-1239 635.5,-1239 "/>
<text text-anchor="middle" x="569" y="-1227" font-family="Helvetica,sans-Serif" font-size="10.00"> </text>
</a>
</g>
</g>
<!-- Node10&#45;&gt;Node5 -->
<g id="edge9" class="edge">
<title>Node10&#45;&gt;Node5</title>
<path fill="none" stroke="#404040" d="M580.02,-1219.68C590.12,-1189.14 606.12,-1140.75 623.6,-1087.88"/>
<polygon fill="none" stroke="#404040" points="623.71,-1087.56 621.79,-1080.61 627.47,-1076.17 629.39,-1083.12 623.71,-1087.56"/>
<text text-anchor="middle" x="636.5" y="-1111" font-family="Helvetica,sans-Serif" font-size="10.00"> +ctrlData</text>
</g>
<!-- Node11 -->
<g id="node11" class="node">
<title>Node11</title>
<g id="a_node11"><a xlink:href="class_scriptable_object.html" target="_top" xlink:title=" ">
<polygon fill="none" stroke="black" points="982.5,-1490 982.5,-1547 1071.5,-1547 1071.5,-1490 982.5,-1490"/>
<text text-anchor="middle" x="1027" y="-1535" font-family="Helvetica,sans-Serif" font-size="10.00">ScriptableObject</text>
<polyline fill="none" stroke="black" points="982.5,-1528 1071.5,-1528 "/>
<text text-anchor="middle" x="1027" y="-1516" font-family="Helvetica,sans-Serif" font-size="10.00"> </text>
<polyline fill="none" stroke="black" points="982.5,-1509 1071.5,-1509 "/>
<text text-anchor="middle" x="1027" y="-1497" font-family="Helvetica,sans-Serif" font-size="10.00"> </text>
</a>
</g>
</g>
<!-- Node11&#45;&gt;Node10 -->
<g id="edge10" class="edge">
<title>Node11&#45;&gt;Node10</title>
<path fill="none" stroke="midnightblue" d="M972.2,-1507.63C892.83,-1491.04 744.49,-1451.21 645,-1371 617.45,-1348.79 596.48,-1313.84 583.62,-1288.1"/>
<polygon fill="none" stroke="midnightblue" points="971.97,-1511.15 982.47,-1509.72 973.37,-1504.29 971.97,-1511.15"/>
</g>
<!-- Node20 -->
<g id="node20" class="node">
<title>Node20</title>
<g id="a_node20"><a xlink:href="class_controllers_1_1_state_machine_1_1_states_1_1_data_1_1_prepare_attack_state_data.html" target="_top" xlink:title=" ">
<polygon fill="none" stroke="black" points="1324.5,-1220 1324.5,-1288 1501.5,-1288 1501.5,-1220 1324.5,-1220"/>
<text text-anchor="start" x="1332.5" y="-1276" font-family="Helvetica,sans-Serif" font-size="10.00">Controllers.StateMachine.</text>
<text text-anchor="middle" x="1413" y="-1265" font-family="Helvetica,sans-Serif" font-size="10.00">States.Data.PrepareAttackStateData</text>
<polyline fill="none" stroke="black" points="1324.5,-1258 1501.5,-1258 "/>
<text text-anchor="middle" x="1413" y="-1246" font-family="Helvetica,sans-Serif" font-size="10.00"> </text>
<polyline fill="none" stroke="black" points="1324.5,-1239 1501.5,-1239 "/>
<text text-anchor="middle" x="1413" y="-1227" font-family="Helvetica,sans-Serif" font-size="10.00"> </text>
</a>
</g>
</g>
<!-- Node11&#45;&gt;Node20 -->
<g id="edge26" class="edge">
<title>Node11&#45;&gt;Node20</title>
<path fill="none" stroke="midnightblue" d="M1081.03,-1497.82C1142.1,-1473.9 1242.55,-1429.4 1316,-1371 1345.79,-1347.31 1372.96,-1313.24 1390.91,-1288.15"/>
<polygon fill="none" stroke="midnightblue" points="1079.64,-1494.6 1071.58,-1501.48 1082.17,-1501.13 1079.64,-1494.6"/>
</g>
<!-- Node12 -->
<g id="node12" class="node">
<title>Node12</title>
<g id="a_node12"><a xlink:title=" ">
<polygon fill="none" stroke="#bfbfbf" points="137.5,-1490 137.5,-1547 172.5,-1547 172.5,-1490 137.5,-1490"/>
<text text-anchor="middle" x="155" y="-1535" font-family="Helvetica,sans-Serif" font-size="10.00">float</text>
<polyline fill="none" stroke="#bfbfbf" points="137.5,-1528 172.5,-1528 "/>
<text text-anchor="middle" x="155" y="-1516" font-family="Helvetica,sans-Serif" font-size="10.00"> </text>
<polyline fill="none" stroke="#bfbfbf" points="137.5,-1509 172.5,-1509 "/>
<text text-anchor="middle" x="155" y="-1497" font-family="Helvetica,sans-Serif" font-size="10.00"> </text>
</a>
</g>
</g>
<!-- Node12&#45;&gt;Node2 -->
<g id="edge24" class="edge">
<title>Node12&#45;&gt;Node2</title>
<path fill="none" stroke="#404040" d="M137.22,-1501.66C96.51,-1463.54 0,-1361.91 0,-1255 0,-1255 0,-1255 0,-421.5 0,-292.51 959.46,-252.8 1278.92,-243.15"/>
<polygon fill="none" stroke="#404040" points="1278.93,-243.15 1284.81,-238.98 1290.92,-242.8 1285.04,-246.97 1278.93,-243.15"/>
<text text-anchor="middle" x="47" y="-822" font-family="Helvetica,sans-Serif" font-size="10.00"> #attackCooldown</text>
<text text-anchor="middle" x="47" y="-811" font-family="Helvetica,sans-Serif" font-size="10.00">#attackWaitTime</text>
<text text-anchor="middle" x="47" y="-800" font-family="Helvetica,sans-Serif" font-size="10.00">#waitTimetoInitAttack</text>
</g>
<!-- Node12&#45;&gt;Node3 -->
<g id="edge22" class="edge">
<title>Node12&#45;&gt;Node3</title>
<path fill="none" stroke="#404040" d="M151.44,-1489.75C147.88,-1460.33 142.7,-1412.48 141,-1371 125.65,-996.77 3.45,-808 262,-537 311.96,-484.63 512.87,-450.02 629.33,-433.93"/>
<polygon fill="none" stroke="#404040" points="629.48,-433.91 634.88,-429.14 641.37,-432.29 635.96,-437.06 629.48,-433.91"/>
<text text-anchor="middle" x="141.5" y="-1111" font-family="Helvetica,sans-Serif" font-size="10.00"> #startTime</text>
</g>
<!-- Node12&#45;&gt;Node10 -->
<g id="edge11" class="edge">
<title>Node12&#45;&gt;Node10</title>
<path fill="none" stroke="#404040" d="M172.84,-1508.8C195.75,-1496.88 235.59,-1473.54 261,-1444 278.76,-1423.36 265.69,-1404.62 288,-1389 349.15,-1346.18 387.8,-1403.52 455,-1371 489.03,-1354.53 518.65,-1323.56 539.16,-1297.76"/>
<polygon fill="none" stroke="#404040" points="539.23,-1297.66 539.73,-1290.47 546.57,-1288.16 546.07,-1295.36 539.23,-1297.66"/>
<text text-anchor="middle" x="344" y="-1436" font-family="Helvetica,sans-Serif" font-size="10.00"> +groundCheckDistance</text>
<text text-anchor="middle" x="344" y="-1425" font-family="Helvetica,sans-Serif" font-size="10.00">+ledgeCheckDistacne</text>
<text text-anchor="middle" x="344" y="-1414" font-family="Helvetica,sans-Serif" font-size="10.00">+playerDetectionDistance</text>
<text text-anchor="middle" x="344" y="-1403" font-family="Helvetica,sans-Serif" font-size="10.00">+topCheckDistance</text>
<text text-anchor="middle" x="344" y="-1392" font-family="Helvetica,sans-Serif" font-size="10.00">+wallCheckDistance</text>
</g>
<!-- Node12&#45;&gt;Node19 -->
<g id="edge20" class="edge">
<title>Node12&#45;&gt;Node19</title>
<path fill="none" stroke="#404040" d="M150.26,-1489.84C146.99,-1460.66 147.09,-1415.33 173,-1389 206.81,-1354.65 239.15,-1392.14 287.08,-1370.09"/>
<polygon fill="none" stroke="#404040" points="287.34,-1369.94 290.71,-1363.56 297.89,-1364.22 294.52,-1370.6 287.34,-1369.94"/>
<text text-anchor="middle" x="215" y="-1414" font-family="Helvetica,sans-Serif" font-size="10.00"> #interactionRadius</text>
</g>
<!-- Node12&#45;&gt;Node20 -->
<g id="edge27" class="edge">
<title>Node12&#45;&gt;Node20</title>
<path fill="none" stroke="#404040" d="M172.8,-1506.3C195.03,-1492.97 234.71,-1471.35 272,-1462 351.85,-1441.97 559.93,-1450.44 642,-1444 867.96,-1426.26 923.66,-1413.37 1149,-1389 1186.11,-1384.99 1283.08,-1388.6 1316,-1371 1346.73,-1354.58 1371.66,-1324.01 1388.56,-1298.37"/>
<polygon fill="none" stroke="#404040" points="1388.64,-1298.24 1388.48,-1291.03 1395.08,-1288.1 1395.24,-1295.31 1388.64,-1298.24"/>
<text text-anchor="middle" x="1174" y="-1414" font-family="Helvetica,sans-Serif" font-size="10.00"> +cooldown</text>
</g>
<!-- Node13 -->
<g id="node13" class="node">
<title>Node13</title>
<g id="a_node13"><a xlink:title=" ">
<polygon fill="none" stroke="#bfbfbf" points="536.5,-1490 536.5,-1547 601.5,-1547 601.5,-1490 536.5,-1490"/>
<text text-anchor="middle" x="569" y="-1535" font-family="Helvetica,sans-Serif" font-size="10.00">LayerMask</text>
<polyline fill="none" stroke="#bfbfbf" points="536.5,-1528 601.5,-1528 "/>
<text text-anchor="middle" x="569" y="-1516" font-family="Helvetica,sans-Serif" font-size="10.00"> </text>
<polyline fill="none" stroke="#bfbfbf" points="536.5,-1509 601.5,-1509 "/>
<text text-anchor="middle" x="569" y="-1497" font-family="Helvetica,sans-Serif" font-size="10.00"> </text>
</a>
</g>
</g>
<!-- Node13&#45;&gt;Node10 -->
<g id="edge12" class="edge">
<title>Node13&#45;&gt;Node10</title>
<path fill="none" stroke="#404040" d="M569,-1489.9C569,-1444.84 569,-1355.02 569,-1300.44"/>
<polygon fill="none" stroke="#404040" points="569,-1300.37 565,-1294.37 569,-1288.37 573,-1294.37 569,-1300.37"/>
<text text-anchor="middle" x="603.5" y="-1414" font-family="Helvetica,sans-Serif" font-size="10.00"> +whatIsGround</text>
</g>
<!-- Node14 -->
<g id="node14" class="node">
<title>Node14</title>
<g id="a_node14"><a xlink:title=" ">
<polygon fill="none" stroke="#bfbfbf" points="817.5,-1225.5 817.5,-1282.5 880.5,-1282.5 880.5,-1225.5 817.5,-1225.5"/>
<text text-anchor="middle" x="849" y="-1270.5" font-family="Helvetica,sans-Serif" font-size="10.00">UnityEvent</text>
<polyline fill="none" stroke="#bfbfbf" points="817.5,-1263.5 880.5,-1263.5 "/>
<text text-anchor="middle" x="849" y="-1251.5" font-family="Helvetica,sans-Serif" font-size="10.00"> </text>
<polyline fill="none" stroke="#bfbfbf" points="817.5,-1244.5 880.5,-1244.5 "/>
<text text-anchor="middle" x="849" y="-1232.5" font-family="Helvetica,sans-Serif" font-size="10.00"> </text>
</a>
</g>
</g>
<!-- Node14&#45;&gt;Node5 -->
<g id="edge13" class="edge">
<title>Node14&#45;&gt;Node5</title>
<path fill="none" stroke="#404040" d="M855.75,-1225.26C861.67,-1194.19 866.25,-1143.55 844,-1108 834.93,-1093.51 821.14,-1102.97 810,-1090 809.4,-1089.3 808.8,-1088.59 808.2,-1087.88"/>
<polygon fill="none" stroke="#404040" points="808.15,-1087.81 801.28,-1085.62 800.66,-1078.43 807.53,-1080.63 808.15,-1087.81"/>
<text text-anchor="middle" x="882.5" y="-1111" font-family="Helvetica,sans-Serif" font-size="10.00"> +OnLandEvent</text>
</g>
<!-- Node15 -->
<g id="node15" class="node">
<title>Node15</title>
<g id="a_node15"><a xlink:href="class_controllers_1_1_movement_1_1_base_movement_controller.html" target="_top" xlink:title=" ">
<polygon fill="none" stroke="black" points="899,-1220 899,-1288 1035,-1288 1035,-1220 899,-1220"/>
<text text-anchor="start" x="907" y="-1276" font-family="Helvetica,sans-Serif" font-size="10.00">Controllers.Movement.Base</text>
<text text-anchor="middle" x="967" y="-1265" font-family="Helvetica,sans-Serif" font-size="10.00">MovementController</text>
<polyline fill="none" stroke="black" points="899,-1258 1035,-1258 "/>
<text text-anchor="middle" x="967" y="-1246" font-family="Helvetica,sans-Serif" font-size="10.00"> </text>
<polyline fill="none" stroke="black" points="899,-1239 1035,-1239 "/>
<text text-anchor="middle" x="967" y="-1227" font-family="Helvetica,sans-Serif" font-size="10.00"> </text>
</a>
</g>
</g>
<!-- Node15&#45;&gt;Node5 -->
<g id="edge14" class="edge">
<title>Node15&#45;&gt;Node5</title>
<path fill="none" stroke="#404040" d="M965.77,-1219.7C962.64,-1186.27 952.42,-1135.85 920,-1108 882.42,-1075.72 847.93,-1121.87 810,-1090 809.9,-1089.92 809.8,-1089.83 809.7,-1089.75"/>
<polygon fill="none" stroke="#404040" points="809.61,-1089.67 802.48,-1088.6 800.72,-1081.61 807.85,-1082.67 809.61,-1089.67"/>
<text text-anchor="middle" x="985.5" y="-1111" font-family="Helvetica,sans-Serif" font-size="10.00"> #baseMovementController</text>
</g>
<!-- Node16 -->
<g id="node16" class="node">
<title>Node16</title>
<g id="a_node16"><a xlink:href="class_controllers_1_1_state_machine_1_1_controller_state_machine.html" target="_top" xlink:title="Controla el estado de un enemigo o NPC, desde que spawnea hasta que muere. Casi todos los metodos son...">
<polygon fill="none" stroke="black" points="150.5,-1203.5 150.5,-1304.5 279.5,-1304.5 279.5,-1203.5 150.5,-1203.5"/>
<text text-anchor="start" x="158.5" y="-1292.5" font-family="Helvetica,sans-Serif" font-size="10.00">Controllers.StateMachine.</text>
<text text-anchor="middle" x="215" y="-1281.5" font-family="Helvetica,sans-Serif" font-size="10.00">ControllerStateMachine</text>
<polyline fill="none" stroke="black" points="150.5,-1274.5 279.5,-1274.5 "/>
<text text-anchor="start" x="158.5" y="-1262.5" font-family="Helvetica,sans-Serif" font-size="10.00">+ State CurrentState</text>
<polyline fill="none" stroke="black" points="150.5,-1255.5 279.5,-1255.5 "/>
<text text-anchor="start" x="158.5" y="-1243.5" font-family="Helvetica,sans-Serif" font-size="10.00">+ void Initialize(State</text>
<text text-anchor="start" x="158.5" y="-1232.5" font-family="Helvetica,sans-Serif" font-size="10.00"> startState)</text>
<text text-anchor="start" x="158.5" y="-1221.5" font-family="Helvetica,sans-Serif" font-size="10.00">+ void ChangeState(State</text>
<text text-anchor="start" x="158.5" y="-1210.5" font-family="Helvetica,sans-Serif" font-size="10.00"> nextState)</text>
</a>
</g>
</g>
<!-- Node16&#45;&gt;Node3 -->
<g id="edge23" class="edge">
<title>Node16&#45;&gt;Node3</title>
<path fill="none" stroke="#404040" d="M228.59,-1203.37C264.41,-1079.57 371.27,-751.66 552,-537 574.06,-510.8 603.53,-487.78 631.28,-469.45"/>
<polygon fill="none" stroke="#404040" points="631.32,-469.42 634.19,-462.8 641.41,-462.91 638.53,-469.52 631.32,-469.42"/>
<text text-anchor="middle" x="585.5" y="-811" font-family="Helvetica,sans-Serif" font-size="10.00"> #stateMachine</text>
</g>
<!-- Node16&#45;&gt;Node5 -->
<g id="edge15" class="edge">
<title>Node16&#45;&gt;Node5</title>
<path fill="none" stroke="#404040" d="M239.84,-1203.35C256.15,-1173.69 279.35,-1136.39 306,-1108 398.54,-1009.42 528.53,-922.65 616.73,-869.51"/>
<polygon fill="none" stroke="#404040" points="616.98,-869.36 620.07,-862.85 627.28,-863.2 624.18,-869.71 616.98,-869.36"/>
<text text-anchor="middle" x="341" y="-1111" font-family="Helvetica,sans-Serif" font-size="10.00"> +StateMachine</text>
</g>
<!-- Node17 -->
<g id="node17" class="node">
<title>Node17</title>
<g id="a_node17"><a xlink:title=" ">
<polygon fill="none" stroke="#bfbfbf" points="1053,-1225.5 1053,-1282.5 1137,-1282.5 1137,-1225.5 1053,-1225.5"/>
<text text-anchor="middle" x="1095" y="-1270.5" font-family="Helvetica,sans-Serif" font-size="10.00">EControllerKind</text>
<polyline fill="none" stroke="#bfbfbf" points="1053,-1263.5 1137,-1263.5 "/>
<text text-anchor="middle" x="1095" y="-1251.5" font-family="Helvetica,sans-Serif" font-size="10.00"> </text>
<polyline fill="none" stroke="#bfbfbf" points="1053,-1244.5 1137,-1244.5 "/>
<text text-anchor="middle" x="1095" y="-1232.5" font-family="Helvetica,sans-Serif" font-size="10.00"> </text>
</a>
</g>
</g>
<!-- Node17&#45;&gt;Node5 -->
<g id="edge16" class="edge">
<title>Node17&#45;&gt;Node5</title>
<path fill="none" stroke="#404040" d="M1094.49,-1225.48C1092.25,-1191.89 1082.93,-1136.09 1047,-1108 1005.39,-1075.47 851.87,-1122.2 810,-1090 809.9,-1089.92 809.8,-1089.85 809.7,-1089.77"/>
<polygon fill="none" stroke="#404040" points="809.9,-1089.94 802.73,-1089.17 800.68,-1082.25 807.85,-1083.02 809.9,-1089.94"/>
<text text-anchor="middle" x="1090" y="-1111" font-family="Helvetica,sans-Serif" font-size="10.00"> #controllerKind</text>
</g>
<!-- Node18 -->
<g id="node18" class="node">
<title>Node18</title>
<g id="a_node18"><a xlink:title=" ">
<polygon fill="none" stroke="#bfbfbf" points="1460.5,-1490 1460.5,-1547 1495.5,-1547 1495.5,-1490 1460.5,-1490"/>
<text text-anchor="middle" x="1478" y="-1535" font-family="Helvetica,sans-Serif" font-size="10.00">bool</text>
<polyline fill="none" stroke="#bfbfbf" points="1460.5,-1528 1495.5,-1528 "/>
<text text-anchor="middle" x="1478" y="-1516" font-family="Helvetica,sans-Serif" font-size="10.00"> </text>
<polyline fill="none" stroke="#bfbfbf" points="1460.5,-1509 1495.5,-1509 "/>
<text text-anchor="middle" x="1478" y="-1497" font-family="Helvetica,sans-Serif" font-size="10.00"> </text>
</a>
</g>
</g>
<!-- Node18&#45;&gt;Node2 -->
<g id="edge29" class="edge">
<title>Node18&#45;&gt;Node2</title>
<path fill="none" stroke="#404040" d="M1495.63,-1507.63C1530.51,-1487.13 1608.2,-1436.31 1646,-1371 1672.33,-1325.51 1669,-1307.56 1669,-1255 1669,-1255 1669,-1255 1669,-421.5 1669,-331.07 1565.95,-284.06 1483.13,-260.88"/>
<polygon fill="none" stroke="#404040" points="1482.92,-260.83 1476.09,-263.13 1471.33,-257.7 1478.17,-255.4 1482.92,-260.83"/>
<text text-anchor="middle" x="1710" y="-811" font-family="Helvetica,sans-Serif" font-size="10.00"> #attackRequested</text>
</g>
<!-- Node18&#45;&gt;Node5 -->
<g id="edge17" class="edge">
<title>Node18&#45;&gt;Node5</title>
<path fill="none" stroke="#404040" d="M1495.59,-1496.54C1506.09,-1482.62 1518.43,-1463.39 1524,-1444 1536.31,-1401.12 1558.19,-1185.55 1511,-1137 1454.75,-1079.13 1229.52,-1113.36 1149,-1108 1111.36,-1105.49 840.16,-1112.66 810,-1090 809.9,-1089.92 809.8,-1089.85 809.7,-1089.77"/>
<polygon fill="none" stroke="#404040" points="809.9,-1089.94 802.73,-1089.25 800.6,-1082.36 807.78,-1083.05 809.9,-1089.94"/>
<text text-anchor="middle" x="1590.5" y="-1251.5" font-family="Helvetica,sans-Serif" font-size="10.00"> #playerFacingDirection</text>
</g>
<!-- Node18&#45;&gt;Node19 -->
<g id="edge21" class="edge">
<title>Node18&#45;&gt;Node19</title>
<path fill="none" stroke="#404040" d="M1460.27,-1514.31C1404.63,-1504.46 1228.36,-1474.43 1081,-1462 1047.05,-1459.14 496.77,-1462.24 468,-1444 444.34,-1429 426.26,-1406.21 412.54,-1381.58"/>
<polygon fill="none" stroke="#404040" points="412.52,-1381.55 406.18,-1378.11 406.92,-1370.94 413.26,-1374.37 412.52,-1381.55"/>
<text text-anchor="middle" x="516.5" y="-1436" font-family="Helvetica,sans-Serif" font-size="10.00"> +isEnrolledInDialogue</text>
<text text-anchor="middle" x="516.5" y="-1425" font-family="Helvetica,sans-Serif" font-size="10.00">~moveOnDamaged</text>
<text text-anchor="middle" x="516.5" y="-1414" font-family="Helvetica,sans-Serif" font-size="10.00">~praying</text>
<text text-anchor="middle" x="516.5" y="-1403" font-family="Helvetica,sans-Serif" font-size="10.00">~respawning</text>
<text text-anchor="middle" x="516.5" y="-1392" font-family="Helvetica,sans-Serif" font-size="10.00">~roll</text>
</g>
<!-- Node18&#45;&gt;Node20 -->
<g id="edge28" class="edge">
<title>Node18&#45;&gt;Node20</title>
<path fill="none" stroke="#404040" d="M1460.47,-1499.92C1447.85,-1486.03 1431.73,-1465.45 1424,-1444 1407.11,-1397.13 1406.36,-1339.49 1408.57,-1300.28"/>
<polygon fill="none" stroke="#404040" points="1408.57,-1300.2 1404.98,-1293.95 1409.37,-1288.23 1412.96,-1294.48 1408.57,-1300.2"/>
<text text-anchor="middle" x="1474" y="-1414" font-family="Helvetica,sans-Serif" font-size="10.00"> +followPlayerDirection</text>
</g>
<!-- Node19&#45;&gt;Node5 -->
<g id="edge18" class="edge">
<title>Node19&#45;&gt;Node5</title>
<path fill="none" stroke="#404040" d="M373.48,-1137.2C376,-1127.04 379.43,-1117.15 384,-1108 435.31,-1005.26 539.54,-922.28 617.2,-871.1"/>
<polygon fill="none" stroke="#404040" points="617.44,-870.94 620.29,-864.32 627.5,-864.4 624.65,-871.02 617.44,-870.94"/>
<text text-anchor="middle" x="422" y="-1111" font-family="Helvetica,sans-Serif" font-size="10.00"> #playerController</text>
</g>
<!-- Node20&#45;&gt;Node2 -->
<g id="edge25" class="edge">
<title>Node20&#45;&gt;Node2</title>
<path fill="none" stroke="#404040" d="M1411.95,-1219.89C1407.57,-1081.23 1390.61,-544.51 1383.83,-329.91"/>
<polygon fill="none" stroke="#404040" points="1383.82,-329.77 1379.63,-323.9 1383.44,-317.78 1387.63,-323.65 1383.82,-329.77"/>
<text text-anchor="middle" x="1414.5" y="-511" font-family="Helvetica,sans-Serif" font-size="10.00"> #stateData</text>
</g>
</g>
</svg>
