<?xml version="1.0" encoding="UTF-8" standalone="no"?>
<!DOCTYPE svg PUBLIC "-//W3C//DTD SVG 1.1//EN"
 "http://www.w3.org/Graphics/SVG/1.1/DTD/svg11.dtd">
<!-- Generated by graphviz version 2.48.0 (20210717.1556)
 -->
<!-- Title: Controllers.StateMachine.States.PrepareAttackState Pages: 1 -->
<svg width="1759pt" height="1433pt"
 viewBox="0.00 0.00 1759.00 1433.00" xmlns="http://www.w3.org/2000/svg" xmlns:xlink="http://www.w3.org/1999/xlink">
<g id="graph0" class="graph" transform="scale(1 1) rotate(0) translate(4 1429)">
<title>Controllers.StateMachine.States.PrepareAttackState</title>
<!-- Node1 -->
<g id="node1" class="node">
<title>Node1</title>
<g id="a_node1"><a xlink:title=" ">
<polygon fill="#bfbfbf" stroke="black" points="1291,-0.5 1291,-167.5 1471,-167.5 1471,-0.5 1291,-0.5"/>
<text text-anchor="start" x="1299" y="-155.5" font-family="Helvetica,sans-Serif" font-size="10.00">Controllers.StateMachine.</text>
<text text-anchor="middle" x="1381" y="-144.5" font-family="Helvetica,sans-Serif" font-size="10.00">States.PrepareAttackState</text>
<polyline fill="none" stroke="black" points="1291,-137.5 1471,-137.5 "/>
<text text-anchor="middle" x="1381" y="-125.5" font-family="Helvetica,sans-Serif" font-size="10.00"> </text>
<polyline fill="none" stroke="black" points="1291,-118.5 1471,-118.5 "/>
<text text-anchor="start" x="1299" y="-106.5" font-family="Helvetica,sans-Serif" font-size="10.00">+ PrepareAttackState</text>
<text text-anchor="start" x="1299" y="-95.5" font-family="Helvetica,sans-Serif" font-size="10.00">(BaseController controller,</text>
<text text-anchor="start" x="1299" y="-84.5" font-family="Helvetica,sans-Serif" font-size="10.00"> ControllerStateMachine</text>
<text text-anchor="start" x="1299" y="-73.5" font-family="Helvetica,sans-Serif" font-size="10.00"> stateMachine, string animBoolName,</text>
<text text-anchor="start" x="1299" y="-62.5" font-family="Helvetica,sans-Serif" font-size="10.00"> PrepareAttackStateData stateData)</text>
<text text-anchor="start" x="1299" y="-51.5" font-family="Helvetica,sans-Serif" font-size="10.00">+ override void Enter()</text>
<text text-anchor="start" x="1299" y="-40.5" font-family="Helvetica,sans-Serif" font-size="10.00">+ override void Exit()</text>
<text text-anchor="start" x="1299" y="-29.5" font-family="Helvetica,sans-Serif" font-size="10.00">+ override void UpdateState()</text>
<text text-anchor="start" x="1299" y="-18.5" font-family="Helvetica,sans-Serif" font-size="10.00">+ override void UpdatePhysics()</text>
<text text-anchor="start" x="1299" y="-7.5" font-family="Helvetica,sans-Serif" font-size="10.00"># virtual void LookAtPlayer()</text>
</a>
</g>
</g>
<!-- Node2 -->
<g id="node2" class="node">
<title>Node2</title>
<g id="a_node2"><a xlink:href="class_controllers_1_1_state_machine_1_1_state.html" target="_top" xlink:title="Clase base para los estados de cada personaje. Controla el ciclo de vida de cada estado (Enter,...">
<polygon fill="none" stroke="black" points="641.5,-205.5 641.5,-339.5 786.5,-339.5 786.5,-205.5 641.5,-205.5"/>
<text text-anchor="middle" x="714" y="-327.5" font-family="Helvetica,sans-Serif" font-size="10.00">State</text>
<polyline fill="none" stroke="black" points="641.5,-320.5 786.5,-320.5 "/>
<text text-anchor="middle" x="714" y="-308.5" font-family="Helvetica,sans-Serif" font-size="10.00"> </text>
<polyline fill="none" stroke="black" points="641.5,-301.5 786.5,-301.5 "/>
<text text-anchor="start" x="649.5" y="-289.5" font-family="Helvetica,sans-Serif" font-size="10.00">+ State(BaseController</text>
<text text-anchor="start" x="649.5" y="-278.5" font-family="Helvetica,sans-Serif" font-size="10.00"> controller, ControllerState</text>
<text text-anchor="start" x="649.5" y="-267.5" font-family="Helvetica,sans-Serif" font-size="10.00">Machine stateMachine, string</text>
<text text-anchor="start" x="649.5" y="-256.5" font-family="Helvetica,sans-Serif" font-size="10.00"> animBoolName)</text>
<text text-anchor="start" x="649.5" y="-245.5" font-family="Helvetica,sans-Serif" font-size="10.00">+ virtual void Enter()</text>
<text text-anchor="start" x="649.5" y="-234.5" font-family="Helvetica,sans-Serif" font-size="10.00">+ virtual void Exit()</text>
<text text-anchor="start" x="649.5" y="-223.5" font-family="Helvetica,sans-Serif" font-size="10.00">+ virtual void UpdateState()</text>
<text text-anchor="start" x="649.5" y="-212.5" font-family="Helvetica,sans-Serif" font-size="10.00">+ virtual void UpdatePhysics()</text>
</a>
</g>
</g>
<!-- Node2&#45;&gt;Node1 -->
<g id="edge1" class="edge">
<title>Node2&#45;&gt;Node1</title>
<path fill="none" stroke="midnightblue" d="M796.62,-248.4C922.38,-213.23 1160.94,-146.53 1290.98,-110.17"/>
<polygon fill="none" stroke="midnightblue" points="795.34,-245.12 786.65,-251.19 797.22,-251.86 795.34,-245.12"/>
</g>
<!-- Node3 -->
<g id="node3" class="node">
<title>Node3</title>
<g id="a_node3"><a xlink:title=" ">
<polygon fill="none" stroke="#bfbfbf" points="818.5,-635 818.5,-692 859.5,-692 859.5,-635 818.5,-635"/>
<text text-anchor="middle" x="839" y="-680" font-family="Helvetica,sans-Serif" font-size="10.00">string</text>
<polyline fill="none" stroke="#bfbfbf" points="818.5,-673 859.5,-673 "/>
<text text-anchor="middle" x="839" y="-661" font-family="Helvetica,sans-Serif" font-size="10.00"> </text>
<polyline fill="none" stroke="#bfbfbf" points="818.5,-654 859.5,-654 "/>
<text text-anchor="middle" x="839" y="-642" font-family="Helvetica,sans-Serif" font-size="10.00"> </text>
</a>
</g>
</g>
<!-- Node3&#45;&gt;Node2 -->
<g id="edge2" class="edge">
<title>Node3&#45;&gt;Node2</title>
<path fill="none" stroke="#404040" d="M841.29,-634.98C844.45,-583.85 846.16,-471.71 810,-387 804.42,-373.93 796.8,-361.23 788.27,-349.34"/>
<polygon fill="none" stroke="#404040" points="788.13,-349.15 781.32,-346.76 780.92,-339.56 787.72,-341.95 788.13,-349.15"/>
<text text-anchor="middle" x="835.5" y="-361" font-family="Helvetica,sans-Serif" font-size="10.00"> #animBoolName</text>
</g>
<!-- Node4 -->
<g id="node4" class="node">
<title>Node4</title>
<g id="a_node4"><a xlink:href="class_controllers_1_1_base_controller.html" target="_top" xlink:title=" ">
<polygon fill="none" stroke="black" points="627.5,-387.5 627.5,-939.5 800.5,-939.5 800.5,-387.5 627.5,-387.5"/>
<text text-anchor="middle" x="714" y="-927.5" font-family="Helvetica,sans-Serif" font-size="10.00">Controllers.BaseController</text>
<polyline fill="none" stroke="black" points="627.5,-920.5 800.5,-920.5 "/>
<text text-anchor="start" x="635.5" y="-908.5" font-family="Helvetica,sans-Serif" font-size="10.00">+ int FacingDirection</text>
<text text-anchor="start" x="635.5" y="-897.5" font-family="Helvetica,sans-Serif" font-size="10.00">+ bool IsReadyToAttack</text>
<text text-anchor="start" x="635.5" y="-886.5" font-family="Helvetica,sans-Serif" font-size="10.00">+ bool wallDetected</text>
<text text-anchor="start" x="635.5" y="-875.5" font-family="Helvetica,sans-Serif" font-size="10.00">+ bool groundDetected</text>
<text text-anchor="start" x="635.5" y="-864.5" font-family="Helvetica,sans-Serif" font-size="10.00">+ bool topDetected</text>
<polyline fill="none" stroke="black" points="627.5,-857.5 800.5,-857.5 "/>
<text text-anchor="start" x="635.5" y="-845.5" font-family="Helvetica,sans-Serif" font-size="10.00">+ void Flip()</text>
<text text-anchor="start" x="635.5" y="-834.5" font-family="Helvetica,sans-Serif" font-size="10.00">+ void SetVelocity(float</text>
<text text-anchor="start" x="635.5" y="-823.5" font-family="Helvetica,sans-Serif" font-size="10.00"> velocity)</text>
<text text-anchor="start" x="635.5" y="-812.5" font-family="Helvetica,sans-Serif" font-size="10.00">+ void AddForce(Vector2</text>
<text text-anchor="start" x="635.5" y="-801.5" font-family="Helvetica,sans-Serif" font-size="10.00"> newForce, bool isImpulse)</text>
<text text-anchor="start" x="635.5" y="-790.5" font-family="Helvetica,sans-Serif" font-size="10.00">+ void AddTorque(float</text>
<text text-anchor="start" x="635.5" y="-779.5" font-family="Helvetica,sans-Serif" font-size="10.00"> newTorque, bool isImpulse)</text>
<text text-anchor="start" x="635.5" y="-768.5" font-family="Helvetica,sans-Serif" font-size="10.00">+ T GetMovementController</text>
<text text-anchor="start" x="635.5" y="-757.5" font-family="Helvetica,sans-Serif" font-size="10.00">&lt; T &gt;()</text>
<text text-anchor="start" x="635.5" y="-746.5" font-family="Helvetica,sans-Serif" font-size="10.00">+ Animator GetAnimator()</text>
<text text-anchor="start" x="635.5" y="-735.5" font-family="Helvetica,sans-Serif" font-size="10.00">+ Transform GetTransfrom()</text>
<text text-anchor="start" x="635.5" y="-724.5" font-family="Helvetica,sans-Serif" font-size="10.00">+ GameObject GetDialogueBubble()</text>
<text text-anchor="start" x="635.5" y="-713.5" font-family="Helvetica,sans-Serif" font-size="10.00">+ bool CheckWall()</text>
<text text-anchor="start" x="635.5" y="-702.5" font-family="Helvetica,sans-Serif" font-size="10.00">+ bool CheckLedge()</text>
<text text-anchor="start" x="635.5" y="-691.5" font-family="Helvetica,sans-Serif" font-size="10.00">+ bool CheckGround()</text>
<text text-anchor="start" x="635.5" y="-680.5" font-family="Helvetica,sans-Serif" font-size="10.00">+ bool CheckPlayerInRange()</text>
<text text-anchor="start" x="635.5" y="-669.5" font-family="Helvetica,sans-Serif" font-size="10.00">+ void SwitchStates(ECharacter</text>
<text text-anchor="start" x="635.5" y="-658.5" font-family="Helvetica,sans-Serif" font-size="10.00">State nextState)</text>
<text text-anchor="start" x="635.5" y="-647.5" font-family="Helvetica,sans-Serif" font-size="10.00">+ void Anim_PreparingAttack</text>
<text text-anchor="start" x="635.5" y="-636.5" font-family="Helvetica,sans-Serif" font-size="10.00">Finished()</text>
<text text-anchor="start" x="635.5" y="-625.5" font-family="Helvetica,sans-Serif" font-size="10.00">+ virtual void Damage</text>
<text text-anchor="start" x="635.5" y="-614.5" font-family="Helvetica,sans-Serif" font-size="10.00">(float amount, int attackN)</text>
<text text-anchor="start" x="635.5" y="-603.5" font-family="Helvetica,sans-Serif" font-size="10.00">+ void Damage(BaseController</text>
<text text-anchor="start" x="635.5" y="-592.5" font-family="Helvetica,sans-Serif" font-size="10.00"> controller, DamageInfo</text>
<text text-anchor="start" x="635.5" y="-581.5" font-family="Helvetica,sans-Serif" font-size="10.00"> damageInfo)</text>
<text text-anchor="start" x="635.5" y="-570.5" font-family="Helvetica,sans-Serif" font-size="10.00">+ void Kill()</text>
<text text-anchor="start" x="635.5" y="-559.5" font-family="Helvetica,sans-Serif" font-size="10.00">+ bool Interact(BaseController</text>
<text text-anchor="start" x="635.5" y="-548.5" font-family="Helvetica,sans-Serif" font-size="10.00"> controller, EInteractionKind</text>
<text text-anchor="start" x="635.5" y="-537.5" font-family="Helvetica,sans-Serif" font-size="10.00"> interactionKind)</text>
<text text-anchor="start" x="635.5" y="-526.5" font-family="Helvetica,sans-Serif" font-size="10.00">+ bool Interact(PlayerController</text>
<text text-anchor="start" x="635.5" y="-515.5" font-family="Helvetica,sans-Serif" font-size="10.00"> controller, EInteractionKind</text>
<text text-anchor="start" x="635.5" y="-504.5" font-family="Helvetica,sans-Serif" font-size="10.00"> interactionKind)</text>
<text text-anchor="start" x="635.5" y="-493.5" font-family="Helvetica,sans-Serif" font-size="10.00">+ void ReadyToInteract</text>
<text text-anchor="start" x="635.5" y="-482.5" font-family="Helvetica,sans-Serif" font-size="10.00">(PlayerController controller,</text>
<text text-anchor="start" x="635.5" y="-471.5" font-family="Helvetica,sans-Serif" font-size="10.00"> bool isReady)</text>
<text text-anchor="start" x="635.5" y="-460.5" font-family="Helvetica,sans-Serif" font-size="10.00">+ void ReadyToInteract</text>
<text text-anchor="start" x="635.5" y="-449.5" font-family="Helvetica,sans-Serif" font-size="10.00">(BaseController controller,</text>
<text text-anchor="start" x="635.5" y="-438.5" font-family="Helvetica,sans-Serif" font-size="10.00"> bool isReady)</text>
<text text-anchor="start" x="635.5" y="-427.5" font-family="Helvetica,sans-Serif" font-size="10.00"># virtual void Start()</text>
<text text-anchor="start" x="635.5" y="-416.5" font-family="Helvetica,sans-Serif" font-size="10.00"># virtual void OnDrawGizmos()</text>
<text text-anchor="start" x="635.5" y="-405.5" font-family="Helvetica,sans-Serif" font-size="10.00"># virtual void OnEnterDead</text>
<text text-anchor="start" x="635.5" y="-394.5" font-family="Helvetica,sans-Serif" font-size="10.00">StateStart()</text>
</a>
</g>
</g>
<!-- Node4&#45;&gt;Node2 -->
<g id="edge3" class="edge">
<title>Node4&#45;&gt;Node2</title>
<path fill="none" stroke="#404040" d="M714,-387.32C714,-374.88 714,-362.98 714,-351.87"/>
<polygon fill="none" stroke="#404040" points="714,-351.68 710,-345.68 714,-339.68 718,-345.68 714,-351.68"/>
<text text-anchor="middle" x="738.5" y="-361" font-family="Helvetica,sans-Serif" font-size="10.00"> #controller</text>
</g>
<!-- Node5 -->
<g id="node5" class="node">
<title>Node5</title>
<g id="a_node5"><a xlink:href="interface_controllers_1_1_i_damageable.html" target="_top" xlink:title="Interfaz para todos los NPCs/Enemigos/Objetos que pueden ser daniados.">
<polygon fill="none" stroke="black" points="281,-1312.5 281,-1424.5 429,-1424.5 429,-1312.5 281,-1312.5"/>
<text text-anchor="middle" x="355" y="-1412.5" font-family="Helvetica,sans-Serif" font-size="10.00">IDamageable</text>
<polyline fill="none" stroke="black" points="281,-1405.5 429,-1405.5 "/>
<text text-anchor="middle" x="355" y="-1393.5" font-family="Helvetica,sans-Serif" font-size="10.00"> </text>
<polyline fill="none" stroke="black" points="281,-1386.5 429,-1386.5 "/>
<text text-anchor="start" x="289" y="-1374.5" font-family="Helvetica,sans-Serif" font-size="10.00">+ void Damage(float amount,</text>
<text text-anchor="start" x="289" y="-1363.5" font-family="Helvetica,sans-Serif" font-size="10.00"> int attackN)</text>
<text text-anchor="start" x="289" y="-1352.5" font-family="Helvetica,sans-Serif" font-size="10.00">+ void Damage(BaseController</text>
<text text-anchor="start" x="289" y="-1341.5" font-family="Helvetica,sans-Serif" font-size="10.00"> controller, DamageInfo</text>
<text text-anchor="start" x="289" y="-1330.5" font-family="Helvetica,sans-Serif" font-size="10.00"> damageInfo)</text>
<text text-anchor="start" x="289" y="-1319.5" font-family="Helvetica,sans-Serif" font-size="10.00">+ void Kill()</text>
</a>
</g>
</g>
<!-- Node5&#45;&gt;Node4 -->
<g id="edge4" class="edge">
<title>Node5&#45;&gt;Node4</title>
<path fill="none" stroke="midnightblue" d="M438.71,-1350.51C469.67,-1339.73 501.66,-1322.25 520,-1294 533.31,-1273.5 531.53,-1260.55 520,-1239 513.19,-1226.28 499.81,-1233.72 493,-1221 443.93,-1129.31 462.23,-1086.34 493,-987 519.51,-901.42 577.44,-818.35 627.34,-757.96"/>
<polygon fill="none" stroke="midnightblue" points="437.57,-1347.2 429.15,-1353.64 439.75,-1353.85 437.57,-1347.2"/>
</g>
<!-- Node18 -->
<g id="node18" class="node">
<title>Node18</title>
<g id="a_node18"><a xlink:href="class_player_1_1_player_controller.html" target="_top" xlink:title=" ">
<polygon fill="none" stroke="black" points="298,-987.5 298,-1220.5 446,-1220.5 446,-987.5 298,-987.5"/>
<text text-anchor="middle" x="372" y="-1208.5" font-family="Helvetica,sans-Serif" font-size="10.00">Player.PlayerController</text>
<polyline fill="none" stroke="black" points="298,-1201.5 446,-1201.5 "/>
<text text-anchor="middle" x="372" y="-1189.5" font-family="Helvetica,sans-Serif" font-size="10.00"> </text>
<polyline fill="none" stroke="black" points="298,-1182.5 446,-1182.5 "/>
<text text-anchor="start" x="306" y="-1170.5" font-family="Helvetica,sans-Serif" font-size="10.00">+ void Damage(float amount,</text>
<text text-anchor="start" x="306" y="-1159.5" font-family="Helvetica,sans-Serif" font-size="10.00"> int attackN)</text>
<text text-anchor="start" x="306" y="-1148.5" font-family="Helvetica,sans-Serif" font-size="10.00">+ void Damage(BaseController</text>
<text text-anchor="start" x="306" y="-1137.5" font-family="Helvetica,sans-Serif" font-size="10.00"> controller, DamageInfo</text>
<text text-anchor="start" x="306" y="-1126.5" font-family="Helvetica,sans-Serif" font-size="10.00"> damageInfo)</text>
<text text-anchor="start" x="306" y="-1115.5" font-family="Helvetica,sans-Serif" font-size="10.00">+ void Kill()</text>
<text text-anchor="start" x="306" y="-1104.5" font-family="Helvetica,sans-Serif" font-size="10.00">+ void EnterInteractionMode()</text>
<text text-anchor="start" x="306" y="-1093.5" font-family="Helvetica,sans-Serif" font-size="10.00">+ int GetFacingDirection()</text>
<text text-anchor="start" x="306" y="-1082.5" font-family="Helvetica,sans-Serif" font-size="10.00">+ void LandEvt()</text>
<text text-anchor="start" x="306" y="-1071.5" font-family="Helvetica,sans-Serif" font-size="10.00">+ void OnAirEvt()</text>
<text text-anchor="start" x="306" y="-1060.5" font-family="Helvetica,sans-Serif" font-size="10.00">+ bool IsFacingRight()</text>
<text text-anchor="start" x="306" y="-1049.5" font-family="Helvetica,sans-Serif" font-size="10.00">+ void AnimStartPrayingEvt()</text>
<text text-anchor="start" x="306" y="-1038.5" font-family="Helvetica,sans-Serif" font-size="10.00">+ void AnimRollEndEvt()</text>
<text text-anchor="start" x="306" y="-1027.5" font-family="Helvetica,sans-Serif" font-size="10.00">+ void AnimFootStep1Evt()</text>
<text text-anchor="start" x="306" y="-1016.5" font-family="Helvetica,sans-Serif" font-size="10.00">+ void AnimFootStep2Evt()</text>
<text text-anchor="start" x="306" y="-1005.5" font-family="Helvetica,sans-Serif" font-size="10.00">~ void OnEnable()</text>
<text text-anchor="start" x="306" y="-994.5" font-family="Helvetica,sans-Serif" font-size="10.00">~ void OnDisable()</text>
</a>
</g>
</g>
<!-- Node5&#45;&gt;Node18 -->
<g id="edge18" class="edge">
<title>Node5&#45;&gt;Node18</title>
<path fill="none" stroke="midnightblue" d="M274.78,-1305.99C272.21,-1302.15 269.93,-1298.15 268,-1294 257.71,-1271.83 258.06,-1261.33 268,-1239 272.87,-1228.08 280,-1229.89 288,-1221 291.33,-1217.3 294.64,-1213.47 297.94,-1209.56"/>
<polygon fill="none" stroke="midnightblue" points="272.06,-1308.19 280.82,-1314.14 277.68,-1304.02 272.06,-1308.19"/>
</g>
<!-- Node6 -->
<g id="node6" class="node">
<title>Node6</title>
<g id="a_node6"><a xlink:href="interface_interactions_1_1_interfaces_1_1_i_interactive.html" target="_top" xlink:title=" ">
<polygon fill="none" stroke="black" points="1155.5,-1015 1155.5,-1193 1306.5,-1193 1306.5,-1015 1155.5,-1015"/>
<text text-anchor="middle" x="1231" y="-1181" font-family="Helvetica,sans-Serif" font-size="10.00">IInteractive</text>
<polyline fill="none" stroke="black" points="1155.5,-1174 1306.5,-1174 "/>
<text text-anchor="middle" x="1231" y="-1162" font-family="Helvetica,sans-Serif" font-size="10.00"> </text>
<polyline fill="none" stroke="black" points="1155.5,-1155 1306.5,-1155 "/>
<text text-anchor="start" x="1163.5" y="-1143" font-family="Helvetica,sans-Serif" font-size="10.00">+ bool Interact(BaseController</text>
<text text-anchor="start" x="1163.5" y="-1132" font-family="Helvetica,sans-Serif" font-size="10.00"> controller, EInteractionKind</text>
<text text-anchor="start" x="1163.5" y="-1121" font-family="Helvetica,sans-Serif" font-size="10.00"> interactionKind)</text>
<text text-anchor="start" x="1163.5" y="-1110" font-family="Helvetica,sans-Serif" font-size="10.00">+ bool Interact(PlayerController</text>
<text text-anchor="start" x="1163.5" y="-1099" font-family="Helvetica,sans-Serif" font-size="10.00"> controller, EInteractionKind</text>
<text text-anchor="start" x="1163.5" y="-1088" font-family="Helvetica,sans-Serif" font-size="10.00"> interactionKind)</text>
<text text-anchor="start" x="1163.5" y="-1077" font-family="Helvetica,sans-Serif" font-size="10.00">+ void ReadyToInteract</text>
<text text-anchor="start" x="1163.5" y="-1066" font-family="Helvetica,sans-Serif" font-size="10.00">(PlayerController controller,</text>
<text text-anchor="start" x="1163.5" y="-1055" font-family="Helvetica,sans-Serif" font-size="10.00"> bool isReady)</text>
<text text-anchor="start" x="1163.5" y="-1044" font-family="Helvetica,sans-Serif" font-size="10.00">+ void ReadyToInteract</text>
<text text-anchor="start" x="1163.5" y="-1033" font-family="Helvetica,sans-Serif" font-size="10.00">(BaseController controller,</text>
<text text-anchor="start" x="1163.5" y="-1022" font-family="Helvetica,sans-Serif" font-size="10.00"> bool isReady)</text>
</a>
</g>
</g>
<!-- Node6&#45;&gt;Node4 -->
<g id="edge5" class="edge">
<title>Node6&#45;&gt;Node4</title>
<path fill="none" stroke="midnightblue" d="M1181.12,-1006.66C1166.62,-987.4 1148.93,-969.57 1128,-958 1066.05,-923.77 866.52,-982.61 810,-940 806.76,-937.56 803.64,-935 800.62,-932.34"/>
<polygon fill="none" stroke="midnightblue" points="1178.44,-1008.93 1187.14,-1014.98 1184.11,-1004.83 1178.44,-1008.93"/>
</g>
<!-- Node7 -->
<g id="node7" class="node">
<title>Node7</title>
<g id="a_node7"><a xlink:title=" ">
<polygon fill="none" stroke="#bfbfbf" points="653.5,-1075.5 653.5,-1132.5 724.5,-1132.5 724.5,-1075.5 653.5,-1075.5"/>
<text text-anchor="middle" x="689" y="-1120.5" font-family="Helvetica,sans-Serif" font-size="10.00">Rigidbody2D</text>
<polyline fill="none" stroke="#bfbfbf" points="653.5,-1113.5 724.5,-1113.5 "/>
<text text-anchor="middle" x="689" y="-1101.5" font-family="Helvetica,sans-Serif" font-size="10.00"> </text>
<polyline fill="none" stroke="#bfbfbf" points="653.5,-1094.5 724.5,-1094.5 "/>
<text text-anchor="middle" x="689" y="-1082.5" font-family="Helvetica,sans-Serif" font-size="10.00"> </text>
</a>
</g>
</g>
<!-- Node7&#45;&gt;Node4 -->
<g id="edge6" class="edge">
<title>Node7&#45;&gt;Node4</title>
<path fill="none" stroke="#404040" d="M684.99,-1075.36C681.29,-1048.32 676.06,-1005.93 674,-969 673.69,-963.46 673.47,-957.87 673.34,-952.24"/>
<polygon fill="none" stroke="#404040" points="673.33,-951.85 669.26,-945.9 673.18,-939.85 677.26,-945.8 673.33,-951.85"/>
<text text-anchor="middle" x="704" y="-961" font-family="Helvetica,sans-Serif" font-size="10.00"> #rigidbody2D</text>
</g>
<!-- Node8 -->
<g id="node8" class="node">
<title>Node8</title>
<g id="a_node8"><a xlink:title=" ">
<polygon fill="none" stroke="#bfbfbf" points="743,-1075.5 743,-1132.5 799,-1132.5 799,-1075.5 743,-1075.5"/>
<text text-anchor="middle" x="771" y="-1120.5" font-family="Helvetica,sans-Serif" font-size="10.00">Animator</text>
<polyline fill="none" stroke="#bfbfbf" points="743,-1113.5 799,-1113.5 "/>
<text text-anchor="middle" x="771" y="-1101.5" font-family="Helvetica,sans-Serif" font-size="10.00"> </text>
<polyline fill="none" stroke="#bfbfbf" points="743,-1094.5 799,-1094.5 "/>
<text text-anchor="middle" x="771" y="-1082.5" font-family="Helvetica,sans-Serif" font-size="10.00"> </text>
</a>
</g>
</g>
<!-- Node8&#45;&gt;Node4 -->
<g id="edge7" class="edge">
<title>Node8&#45;&gt;Node4</title>
<path fill="none" stroke="#404040" d="M767.39,-1075.24C763.81,-1047.68 757.91,-1002.32 751.32,-951.59"/>
<polygon fill="none" stroke="#404040" points="751.31,-951.54 746.57,-946.1 749.76,-939.64 754.51,-945.07 751.31,-951.54"/>
<text text-anchor="middle" x="796" y="-961" font-family="Helvetica,sans-Serif" font-size="10.00"> #characterAnimator</text>
</g>
<!-- Node9 -->
<g id="node9" class="node">
<title>Node9</title>
<g id="a_node9"><a xlink:href="class_controllers_1_1_state_machine_1_1_states_1_1_data_1_1_controller_data.html" target="_top" xlink:title=" ">
<polygon fill="none" stroke="black" points="502.5,-1070 502.5,-1138 635.5,-1138 635.5,-1070 502.5,-1070"/>
<text text-anchor="start" x="510.5" y="-1126" font-family="Helvetica,sans-Serif" font-size="10.00">Controllers.StateMachine.</text>
<text text-anchor="middle" x="569" y="-1115" font-family="Helvetica,sans-Serif" font-size="10.00">States.Data.ControllerData</text>
<polyline fill="none" stroke="black" points="502.5,-1108 635.5,-1108 "/>
<text text-anchor="middle" x="569" y="-1096" font-family="Helvetica,sans-Serif" font-size="10.00"> </text>
<polyline fill="none" stroke="black" points="502.5,-1089 635.5,-1089 "/>
<text text-anchor="middle" x="569" y="-1077" font-family="Helvetica,sans-Serif" font-size="10.00"> </text>
</a>
</g>
</g>
<!-- Node9&#45;&gt;Node4 -->
<g id="edge8" class="edge">
<title>Node9&#45;&gt;Node4</title>
<path fill="none" stroke="#404040" d="M580.02,-1069.68C590.12,-1039.14 606.12,-990.75 623.6,-937.88"/>
<polygon fill="none" stroke="#404040" points="623.71,-937.56 621.79,-930.61 627.47,-926.17 629.39,-933.12 623.71,-937.56"/>
<text text-anchor="middle" x="636.5" y="-961" font-family="Helvetica,sans-Serif" font-size="10.00"> +ctrlData</text>
</g>
<!-- Node10 -->
<g id="node10" class="node">
<title>Node10</title>
<g id="a_node10"><a xlink:href="class_scriptable_object.html" target="_top" xlink:title=" ">
<polygon fill="none" stroke="black" points="982.5,-1340 982.5,-1397 1071.5,-1397 1071.5,-1340 982.5,-1340"/>
<text text-anchor="middle" x="1027" y="-1385" font-family="Helvetica,sans-Serif" font-size="10.00">ScriptableObject</text>
<polyline fill="none" stroke="black" points="982.5,-1378 1071.5,-1378 "/>
<text text-anchor="middle" x="1027" y="-1366" font-family="Helvetica,sans-Serif" font-size="10.00"> </text>
<polyline fill="none" stroke="black" points="982.5,-1359 1071.5,-1359 "/>
<text text-anchor="middle" x="1027" y="-1347" font-family="Helvetica,sans-Serif" font-size="10.00"> </text>
</a>
</g>
</g>
<!-- Node10&#45;&gt;Node9 -->
<g id="edge9" class="edge">
<title>Node10&#45;&gt;Node9</title>
<path fill="none" stroke="midnightblue" d="M972.2,-1357.63C892.83,-1341.04 744.49,-1301.21 645,-1221 617.45,-1198.79 596.48,-1163.84 583.62,-1138.1"/>
<polygon fill="none" stroke="midnightblue" points="971.97,-1361.15 982.47,-1359.72 973.37,-1354.29 971.97,-1361.15"/>
</g>
<!-- Node19 -->
<g id="node19" class="node">
<title>Node19</title>
<g id="a_node19"><a xlink:href="class_controllers_1_1_state_machine_1_1_states_1_1_data_1_1_prepare_attack_state_data.html" target="_top" xlink:title=" ">
<polygon fill="none" stroke="black" points="1324.5,-1070 1324.5,-1138 1501.5,-1138 1501.5,-1070 1324.5,-1070"/>
<text text-anchor="start" x="1332.5" y="-1126" font-family="Helvetica,sans-Serif" font-size="10.00">Controllers.StateMachine.</text>
<text text-anchor="middle" x="1413" y="-1115" font-family="Helvetica,sans-Serif" font-size="10.00">States.Data.PrepareAttackStateData</text>
<polyline fill="none" stroke="black" points="1324.5,-1108 1501.5,-1108 "/>
<text text-anchor="middle" x="1413" y="-1096" font-family="Helvetica,sans-Serif" font-size="10.00"> </text>
<polyline fill="none" stroke="black" points="1324.5,-1089 1501.5,-1089 "/>
<text text-anchor="middle" x="1413" y="-1077" font-family="Helvetica,sans-Serif" font-size="10.00"> </text>
</a>
</g>
</g>
<!-- Node10&#45;&gt;Node19 -->
<g id="edge25" class="edge">
<title>Node10&#45;&gt;Node19</title>
<path fill="none" stroke="midnightblue" d="M1081.03,-1347.82C1142.1,-1323.9 1242.55,-1279.4 1316,-1221 1345.79,-1197.31 1372.96,-1163.24 1390.91,-1138.15"/>
<polygon fill="none" stroke="midnightblue" points="1079.64,-1344.6 1071.58,-1351.48 1082.17,-1351.13 1079.64,-1344.6"/>
</g>
<!-- Node11 -->
<g id="node11" class="node">
<title>Node11</title>
<g id="a_node11"><a xlink:title=" ">
<polygon fill="none" stroke="#bfbfbf" points="137.5,-1340 137.5,-1397 172.5,-1397 172.5,-1340 137.5,-1340"/>
<text text-anchor="middle" x="155" y="-1385" font-family="Helvetica,sans-Serif" font-size="10.00">float</text>
<polyline fill="none" stroke="#bfbfbf" points="137.5,-1378 172.5,-1378 "/>
<text text-anchor="middle" x="155" y="-1366" font-family="Helvetica,sans-Serif" font-size="10.00"> </text>
<polyline fill="none" stroke="#bfbfbf" points="137.5,-1359 172.5,-1359 "/>
<text text-anchor="middle" x="155" y="-1347" font-family="Helvetica,sans-Serif" font-size="10.00"> </text>
</a>
</g>
</g>
<!-- Node11&#45;&gt;Node1 -->
<g id="edge23" class="edge">
<title>Node11&#45;&gt;Node1</title>
<path fill="none" stroke="#404040" d="M137.22,-1351.66C96.51,-1313.54 0,-1211.91 0,-1105 0,-1105 0,-1105 0,-271.5 0,-142.44 959.46,-98.96 1278.92,-88.05"/>
<polygon fill="none" stroke="#404040" points="1278.93,-88.05 1284.79,-83.85 1290.92,-87.65 1285.06,-91.85 1278.93,-88.05"/>
<text text-anchor="middle" x="47" y="-672" font-family="Helvetica,sans-Serif" font-size="10.00"> #attackCooldown</text>
<text text-anchor="middle" x="47" y="-661" font-family="Helvetica,sans-Serif" font-size="10.00">#attackWaitTime</text>
<text text-anchor="middle" x="47" y="-650" font-family="Helvetica,sans-Serif" font-size="10.00">#waitTimetoInitAttack</text>
</g>
<!-- Node11&#45;&gt;Node2 -->
<g id="edge21" class="edge">
<title>Node11&#45;&gt;Node2</title>
<path fill="none" stroke="#404040" d="M151.44,-1339.75C147.88,-1310.33 142.7,-1262.48 141,-1221 125.65,-846.77 3.45,-658 262,-387 311.96,-334.63 512.87,-300.02 629.33,-283.93"/>
<polygon fill="none" stroke="#404040" points="629.48,-283.91 634.88,-279.14 641.37,-282.29 635.96,-287.06 629.48,-283.91"/>
<text text-anchor="middle" x="141.5" y="-961" font-family="Helvetica,sans-Serif" font-size="10.00"> #startTime</text>
</g>
<!-- Node11&#45;&gt;Node9 -->
<g id="edge10" class="edge">
<title>Node11&#45;&gt;Node9</title>
<path fill="none" stroke="#404040" d="M172.84,-1358.8C195.75,-1346.88 235.59,-1323.54 261,-1294 278.76,-1273.36 265.69,-1254.62 288,-1239 349.15,-1196.18 387.8,-1253.52 455,-1221 489.03,-1204.53 518.65,-1173.56 539.16,-1147.76"/>
<polygon fill="none" stroke="#404040" points="539.23,-1147.66 539.73,-1140.47 546.57,-1138.16 546.07,-1145.36 539.23,-1147.66"/>
<text text-anchor="middle" x="344" y="-1286" font-family="Helvetica,sans-Serif" font-size="10.00"> +groundCheckDistance</text>
<text text-anchor="middle" x="344" y="-1275" font-family="Helvetica,sans-Serif" font-size="10.00">+ledgeCheckDistacne</text>
<text text-anchor="middle" x="344" y="-1264" font-family="Helvetica,sans-Serif" font-size="10.00">+playerDetectionDistance</text>
<text text-anchor="middle" x="344" y="-1253" font-family="Helvetica,sans-Serif" font-size="10.00">+topCheckDistance</text>
<text text-anchor="middle" x="344" y="-1242" font-family="Helvetica,sans-Serif" font-size="10.00">+wallCheckDistance</text>
</g>
<!-- Node11&#45;&gt;Node18 -->
<g id="edge19" class="edge">
<title>Node11&#45;&gt;Node18</title>
<path fill="none" stroke="#404040" d="M150.26,-1339.84C146.99,-1310.66 147.09,-1265.33 173,-1239 206.81,-1204.65 239.15,-1242.14 287.08,-1220.09"/>
<polygon fill="none" stroke="#404040" points="287.34,-1219.94 290.71,-1213.56 297.89,-1214.22 294.52,-1220.6 287.34,-1219.94"/>
<text text-anchor="middle" x="215" y="-1264" font-family="Helvetica,sans-Serif" font-size="10.00"> #interactionRadius</text>
</g>
<!-- Node11&#45;&gt;Node19 -->
<g id="edge26" class="edge">
<title>Node11&#45;&gt;Node19</title>
<path fill="none" stroke="#404040" d="M172.8,-1356.3C195.03,-1342.97 234.71,-1321.35 272,-1312 351.85,-1291.97 559.93,-1300.44 642,-1294 867.96,-1276.26 923.66,-1263.37 1149,-1239 1186.11,-1234.99 1283.08,-1238.6 1316,-1221 1346.73,-1204.58 1371.66,-1174.01 1388.56,-1148.37"/>
<polygon fill="none" stroke="#404040" points="1388.64,-1148.24 1388.48,-1141.03 1395.08,-1138.1 1395.24,-1145.31 1388.64,-1148.24"/>
<text text-anchor="middle" x="1174" y="-1264" font-family="Helvetica,sans-Serif" font-size="10.00"> +cooldown</text>
</g>
<!-- Node12 -->
<g id="node12" class="node">
<title>Node12</title>
<g id="a_node12"><a xlink:title=" ">
<polygon fill="none" stroke="#bfbfbf" points="536.5,-1340 536.5,-1397 601.5,-1397 601.5,-1340 536.5,-1340"/>
<text text-anchor="middle" x="569" y="-1385" font-family="Helvetica,sans-Serif" font-size="10.00">LayerMask</text>
<polyline fill="none" stroke="#bfbfbf" points="536.5,-1378 601.5,-1378 "/>
<text text-anchor="middle" x="569" y="-1366" font-family="Helvetica,sans-Serif" font-size="10.00"> </text>
<polyline fill="none" stroke="#bfbfbf" points="536.5,-1359 601.5,-1359 "/>
<text text-anchor="middle" x="569" y="-1347" font-family="Helvetica,sans-Serif" font-size="10.00"> </text>
</a>
</g>
</g>
<!-- Node12&#45;&gt;Node9 -->
<g id="edge11" class="edge">
<title>Node12&#45;&gt;Node9</title>
<path fill="none" stroke="#404040" d="M569,-1339.9C569,-1294.84 569,-1205.02 569,-1150.44"/>
<polygon fill="none" stroke="#404040" points="569,-1150.37 565,-1144.37 569,-1138.37 573,-1144.37 569,-1150.37"/>
<text text-anchor="middle" x="603.5" y="-1264" font-family="Helvetica,sans-Serif" font-size="10.00"> +whatIsGround</text>
</g>
<!-- Node13 -->
<g id="node13" class="node">
<title>Node13</title>
<g id="a_node13"><a xlink:title=" ">
<polygon fill="none" stroke="#bfbfbf" points="817.5,-1075.5 817.5,-1132.5 880.5,-1132.5 880.5,-1075.5 817.5,-1075.5"/>
<text text-anchor="middle" x="849" y="-1120.5" font-family="Helvetica,sans-Serif" font-size="10.00">UnityEvent</text>
<polyline fill="none" stroke="#bfbfbf" points="817.5,-1113.5 880.5,-1113.5 "/>
<text text-anchor="middle" x="849" y="-1101.5" font-family="Helvetica,sans-Serif" font-size="10.00"> </text>
<polyline fill="none" stroke="#bfbfbf" points="817.5,-1094.5 880.5,-1094.5 "/>
<text text-anchor="middle" x="849" y="-1082.5" font-family="Helvetica,sans-Serif" font-size="10.00"> </text>
</a>
</g>
</g>
<!-- Node13&#45;&gt;Node4 -->
<g id="edge12" class="edge">
<title>Node13&#45;&gt;Node4</title>
<path fill="none" stroke="#404040" d="M855.75,-1075.26C861.67,-1044.19 866.25,-993.55 844,-958 834.93,-943.51 821.14,-952.97 810,-940 809.4,-939.3 808.8,-938.59 808.2,-937.88"/>
<polygon fill="none" stroke="#404040" points="808.15,-937.81 801.28,-935.62 800.66,-928.43 807.53,-930.63 808.15,-937.81"/>
<text text-anchor="middle" x="882.5" y="-961" font-family="Helvetica,sans-Serif" font-size="10.00"> +OnLandEvent</text>
</g>
<!-- Node14 -->
<g id="node14" class="node">
<title>Node14</title>
<g id="a_node14"><a xlink:href="class_controllers_1_1_movement_1_1_base_movement_controller.html" target="_top" xlink:title=" ">
<polygon fill="none" stroke="black" points="899,-1070 899,-1138 1035,-1138 1035,-1070 899,-1070"/>
<text text-anchor="start" x="907" y="-1126" font-family="Helvetica,sans-Serif" font-size="10.00">Controllers.Movement.Base</text>
<text text-anchor="middle" x="967" y="-1115" font-family="Helvetica,sans-Serif" font-size="10.00">MovementController</text>
<polyline fill="none" stroke="black" points="899,-1108 1035,-1108 "/>
<text text-anchor="middle" x="967" y="-1096" font-family="Helvetica,sans-Serif" font-size="10.00"> </text>
<polyline fill="none" stroke="black" points="899,-1089 1035,-1089 "/>
<text text-anchor="middle" x="967" y="-1077" font-family="Helvetica,sans-Serif" font-size="10.00"> </text>
</a>
</g>
</g>
<!-- Node14&#45;&gt;Node4 -->
<g id="edge13" class="edge">
<title>Node14&#45;&gt;Node4</title>
<path fill="none" stroke="#404040" d="M965.77,-1069.7C962.64,-1036.27 952.42,-985.85 920,-958 882.42,-925.72 847.93,-971.87 810,-940 809.9,-939.92 809.8,-939.83 809.7,-939.75"/>
<polygon fill="none" stroke="#404040" points="809.61,-939.67 802.48,-938.6 800.72,-931.61 807.85,-932.67 809.61,-939.67"/>
<text text-anchor="middle" x="985.5" y="-961" font-family="Helvetica,sans-Serif" font-size="10.00"> #baseMovementController</text>
</g>
<!-- Node15 -->
<g id="node15" class="node">
<title>Node15</title>
<g id="a_node15"><a xlink:href="class_controllers_1_1_state_machine_1_1_controller_state_machine.html" target="_top" xlink:title="Controla el estado de un enemigo o NPC, desde que spawnea hasta que muere. Casi todos los metodos son...">
<polygon fill="none" stroke="black" points="150.5,-1053.5 150.5,-1154.5 279.5,-1154.5 279.5,-1053.5 150.5,-1053.5"/>
<text text-anchor="start" x="158.5" y="-1142.5" font-family="Helvetica,sans-Serif" font-size="10.00">Controllers.StateMachine.</text>
<text text-anchor="middle" x="215" y="-1131.5" font-family="Helvetica,sans-Serif" font-size="10.00">ControllerStateMachine</text>
<polyline fill="none" stroke="black" points="150.5,-1124.5 279.5,-1124.5 "/>
<text text-anchor="start" x="158.5" y="-1112.5" font-family="Helvetica,sans-Serif" font-size="10.00">+ State CurrentState</text>
<polyline fill="none" stroke="black" points="150.5,-1105.5 279.5,-1105.5 "/>
<text text-anchor="start" x="158.5" y="-1093.5" font-family="Helvetica,sans-Serif" font-size="10.00">+ void Initialize(State</text>
<text text-anchor="start" x="158.5" y="-1082.5" font-family="Helvetica,sans-Serif" font-size="10.00"> startState)</text>
<text text-anchor="start" x="158.5" y="-1071.5" font-family="Helvetica,sans-Serif" font-size="10.00">+ void ChangeState(State</text>
<text text-anchor="start" x="158.5" y="-1060.5" font-family="Helvetica,sans-Serif" font-size="10.00"> nextState)</text>
</a>
</g>
</g>
<!-- Node15&#45;&gt;Node2 -->
<g id="edge22" class="edge">
<title>Node15&#45;&gt;Node2</title>
<path fill="none" stroke="#404040" d="M228.59,-1053.37C264.41,-929.57 371.27,-601.66 552,-387 574.06,-360.8 603.53,-337.78 631.28,-319.45"/>
<polygon fill="none" stroke="#404040" points="631.32,-319.42 634.19,-312.8 641.41,-312.91 638.53,-319.52 631.32,-319.42"/>
<text text-anchor="middle" x="585.5" y="-661" font-family="Helvetica,sans-Serif" font-size="10.00"> #stateMachine</text>
</g>
<!-- Node15&#45;&gt;Node4 -->
<g id="edge14" class="edge">
<title>Node15&#45;&gt;Node4</title>
<path fill="none" stroke="#404040" d="M239.84,-1053.35C256.15,-1023.69 279.35,-986.39 306,-958 398.54,-859.42 528.53,-772.65 616.73,-719.51"/>
<polygon fill="none" stroke="#404040" points="616.98,-719.36 620.07,-712.85 627.28,-713.2 624.18,-719.71 616.98,-719.36"/>
<text text-anchor="middle" x="341" y="-961" font-family="Helvetica,sans-Serif" font-size="10.00"> +StateMachine</text>
</g>
<!-- Node16 -->
<g id="node16" class="node">
<title>Node16</title>
<g id="a_node16"><a xlink:title=" ">
<polygon fill="none" stroke="#bfbfbf" points="1053,-1075.5 1053,-1132.5 1137,-1132.5 1137,-1075.5 1053,-1075.5"/>
<text text-anchor="middle" x="1095" y="-1120.5" font-family="Helvetica,sans-Serif" font-size="10.00">EControllerKind</text>
<polyline fill="none" stroke="#bfbfbf" points="1053,-1113.5 1137,-1113.5 "/>
<text text-anchor="middle" x="1095" y="-1101.5" font-family="Helvetica,sans-Serif" font-size="10.00"> </text>
<polyline fill="none" stroke="#bfbfbf" points="1053,-1094.5 1137,-1094.5 "/>
<text text-anchor="middle" x="1095" y="-1082.5" font-family="Helvetica,sans-Serif" font-size="10.00"> </text>
</a>
</g>
</g>
<!-- Node16&#45;&gt;Node4 -->
<g id="edge15" class="edge">
<title>Node16&#45;&gt;Node4</title>
<path fill="none" stroke="#404040" d="M1094.49,-1075.48C1092.25,-1041.89 1082.93,-986.09 1047,-958 1005.39,-925.47 851.87,-972.2 810,-940 809.9,-939.92 809.8,-939.85 809.7,-939.77"/>
<polygon fill="none" stroke="#404040" points="809.9,-939.94 802.73,-939.17 800.68,-932.25 807.85,-933.02 809.9,-939.94"/>
<text text-anchor="middle" x="1090" y="-961" font-family="Helvetica,sans-Serif" font-size="10.00"> #controllerKind</text>
</g>
<!-- Node17 -->
<g id="node17" class="node">
<title>Node17</title>
<g id="a_node17"><a xlink:title=" ">
<polygon fill="none" stroke="#bfbfbf" points="1460.5,-1340 1460.5,-1397 1495.5,-1397 1495.5,-1340 1460.5,-1340"/>
<text text-anchor="middle" x="1478" y="-1385" font-family="Helvetica,sans-Serif" font-size="10.00">bool</text>
<polyline fill="none" stroke="#bfbfbf" points="1460.5,-1378 1495.5,-1378 "/>
<text text-anchor="middle" x="1478" y="-1366" font-family="Helvetica,sans-Serif" font-size="10.00"> </text>
<polyline fill="none" stroke="#bfbfbf" points="1460.5,-1359 1495.5,-1359 "/>
<text text-anchor="middle" x="1478" y="-1347" font-family="Helvetica,sans-Serif" font-size="10.00"> </text>
</a>
</g>
</g>
<!-- Node17&#45;&gt;Node1 -->
<g id="edge28" class="edge">
<title>Node17&#45;&gt;Node1</title>
<path fill="none" stroke="#404040" d="M1495.63,-1357.63C1530.51,-1337.13 1608.2,-1286.31 1646,-1221 1672.33,-1175.51 1669,-1157.56 1669,-1105 1669,-1105 1669,-1105 1669,-271.5 1669,-180.19 1565.74,-131.36 1482.88,-106.88"/>
<polygon fill="none" stroke="#404040" points="1482.87,-106.88 1476.01,-109.08 1471.33,-103.58 1478.2,-101.38 1482.87,-106.88"/>
<text text-anchor="middle" x="1710" y="-661" font-family="Helvetica,sans-Serif" font-size="10.00"> #attackRequested</text>
</g>
<!-- Node17&#45;&gt;Node4 -->
<g id="edge16" class="edge">
<title>Node17&#45;&gt;Node4</title>
<path fill="none" stroke="#404040" d="M1495.59,-1346.54C1506.09,-1332.62 1518.43,-1313.39 1524,-1294 1536.31,-1251.12 1558.19,-1035.55 1511,-987 1454.75,-929.13 1229.52,-963.36 1149,-958 1111.36,-955.49 840.16,-962.66 810,-940 809.9,-939.92 809.8,-939.85 809.7,-939.77"/>
<polygon fill="none" stroke="#404040" points="809.9,-939.94 802.73,-939.25 800.6,-932.36 807.78,-933.05 809.9,-939.94"/>
<text text-anchor="middle" x="1590.5" y="-1101.5" font-family="Helvetica,sans-Serif" font-size="10.00"> #playerFacingDirection</text>
</g>
<!-- Node17&#45;&gt;Node18 -->
<g id="edge20" class="edge">
<title>Node17&#45;&gt;Node18</title>
<path fill="none" stroke="#404040" d="M1460.27,-1364.31C1404.63,-1354.46 1228.36,-1324.43 1081,-1312 1047.05,-1309.14 496.77,-1312.24 468,-1294 444.34,-1279 426.26,-1256.21 412.54,-1231.58"/>
<polygon fill="none" stroke="#404040" points="412.52,-1231.55 406.18,-1228.11 406.92,-1220.94 413.26,-1224.37 412.52,-1231.55"/>
<text text-anchor="middle" x="516.5" y="-1286" font-family="Helvetica,sans-Serif" font-size="10.00"> +isEnrolledInDialogue</text>
<text text-anchor="middle" x="516.5" y="-1275" font-family="Helvetica,sans-Serif" font-size="10.00">~moveOnDamaged</text>
<text text-anchor="middle" x="516.5" y="-1264" font-family="Helvetica,sans-Serif" font-size="10.00">~praying</text>
<text text-anchor="middle" x="516.5" y="-1253" font-family="Helvetica,sans-Serif" font-size="10.00">~respawning</text>
<text text-anchor="middle" x="516.5" y="-1242" font-family="Helvetica,sans-Serif" font-size="10.00">~roll</text>
</g>
<!-- Node17&#45;&gt;Node19 -->
<g id="edge27" class="edge">
<title>Node17&#45;&gt;Node19</title>
<path fill="none" stroke="#404040" d="M1460.47,-1349.92C1447.85,-1336.03 1431.73,-1315.45 1424,-1294 1407.11,-1247.13 1406.36,-1189.49 1408.57,-1150.28"/>
<polygon fill="none" stroke="#404040" points="1408.57,-1150.2 1404.98,-1143.95 1409.37,-1138.23 1412.96,-1144.48 1408.57,-1150.2"/>
<text text-anchor="middle" x="1474" y="-1264" font-family="Helvetica,sans-Serif" font-size="10.00"> +followPlayerDirection</text>
</g>
<!-- Node18&#45;&gt;Node4 -->
<g id="edge17" class="edge">
<title>Node18&#45;&gt;Node4</title>
<path fill="none" stroke="#404040" d="M373.48,-987.2C376,-977.04 379.43,-967.15 384,-958 435.31,-855.26 539.54,-772.28 617.2,-721.1"/>
<polygon fill="none" stroke="#404040" points="617.44,-720.94 620.29,-714.32 627.5,-714.4 624.65,-721.02 617.44,-720.94"/>
<text text-anchor="middle" x="422" y="-961" font-family="Helvetica,sans-Serif" font-size="10.00"> #playerController</text>
</g>
<!-- Node19&#45;&gt;Node1 -->
<g id="edge24" class="edge">
<title>Node19&#45;&gt;Node1</title>
<path fill="none" stroke="#404040" d="M1411.96,-1070C1407.63,-932.08 1390.87,-398.87 1383.98,-179.8"/>
<polygon fill="none" stroke="#404040" points="1383.98,-179.71 1379.79,-173.83 1383.6,-167.71 1387.79,-173.58 1383.98,-179.71"/>
<text text-anchor="middle" x="1414.5" y="-361" font-family="Helvetica,sans-Serif" font-size="10.00"> #stateData</text>
</g>
</g>
</svg>
