<?xml version="1.0" encoding="UTF-8" standalone="no"?>
<!DOCTYPE svg PUBLIC "-//W3C//DTD SVG 1.1//EN"
 "http://www.w3.org/Graphics/SVG/1.1/DTD/svg11.dtd">
<!-- Generated by graphviz version 2.48.0 (20210717.1556)
 -->
<!-- Title: Controllers.Froggy.FroggyController Pages: 1 -->
<!--zoomable 1229 -->
<svg id="main" version="1.1" xmlns="http://www.w3.org/2000/svg" xmlns:xlink="http://www.w3.org/1999/xlink" xml:space="preserve" onload="init(evt)">
<style type="text/css"><![CDATA[
.edge:hover path { stroke: red; }
.edge:hover polygon { stroke: red; fill: red; }
]]></style>
<script type="text/javascript"><![CDATA[
var edges = document.getElementsByTagName('g');
if (edges && edges.length) {
  for (var i=0;i<edges.length;i++) {
    if (edges[i].id.substr(0,4)=='edge') {
      edges[i].setAttribute('class','edge');
    }
  }
}
]]></script>
        <defs>
                <circle id="rim" cx="0" cy="0" r="7"/>
                <circle id="rim2" cx="0" cy="0" r="3.5"/>
                <g id="zoomPlus">
                        <use xlink:href="#rim" fill="#404040">
                                <set attributeName="fill" to="#808080" begin="zoomplus.mouseover" end="zoomplus.mouseout"/>
                        </use>
                        <path d="M-4,0h8M0,-4v8" fill="none" stroke="white" stroke-width="1.5" pointer-events="none"/>
                </g>
                <g id="zoomMin">
                        <use xlink:href="#rim" fill="#404040">
                                <set attributeName="fill" to="#808080" begin="zoomminus.mouseover" end="zoomminus.mouseout"/>
                        </use>
                        <path d="M-4,0h8" fill="none" stroke="white" stroke-width="1.5" pointer-events="none"/>
                </g>
                <g id="dirArrow">
                        <path fill="none" stroke="white" stroke-width="1.5" d="M0,-3.0v7 M-2.5,-0.5L0,-3.0L2.5,-0.5"/>
                </g>
               <g id="resetDef">
                       <use xlink:href="#rim2" fill="#404040">
                               <set attributeName="fill" to="#808080" begin="reset.mouseover" end="reset.mouseout"/>
                       </use>
               </g>
        </defs>

<script type="text/javascript">
var viewWidth = 1322;
var viewHeight = 1229;
var sectionId = 'dynsection-1';
</script>
<script xlink:href="svgpan.js"/>
<svg id="graph" class="graph">
<g id="viewport">
<title>Controllers.Froggy.FroggyController</title>
<!-- Node1 -->
<g id="node1" class="node">
<title>Node1</title>
<g id="a_node1"><a xlink:title=" ">
<polygon fill="#bfbfbf" stroke="black" points="481.65,-0.5 481.65,-145.5 627.65,-145.5 627.65,-0.5 481.65,-0.5"/>
<text text-anchor="start" x="489.65" y="-133.5" font-family="Helvetica,sans-Serif" font-size="10.00">Controllers.Froggy.Froggy</text>
<text text-anchor="middle" x="554.65" y="-122.5" font-family="Helvetica,sans-Serif" font-size="10.00">Controller</text>
<polyline fill="none" stroke="black" points="481.65,-115.5 627.65,-115.5 "/>
<text text-anchor="start" x="489.65" y="-103.5" font-family="Helvetica,sans-Serif" font-size="10.00">+ Froggy_IdleState _idleState</text>
<text text-anchor="start" x="489.65" y="-92.5" font-family="Helvetica,sans-Serif" font-size="10.00">+ JumpState _jumpState</text>
<text text-anchor="start" x="489.65" y="-81.5" font-family="Helvetica,sans-Serif" font-size="10.00">+ Froggy_PrepareAttackState</text>
<text text-anchor="start" x="489.65" y="-70.5" font-family="Helvetica,sans-Serif" font-size="10.00"> _prepareAttackState</text>
<text text-anchor="start" x="489.65" y="-59.5" font-family="Helvetica,sans-Serif" font-size="10.00">+ Froggy_AttackState</text>
<text text-anchor="start" x="489.65" y="-48.5" font-family="Helvetica,sans-Serif" font-size="10.00"> _attackState</text>
<polyline fill="none" stroke="black" points="481.65,-41.5 627.65,-41.5 "/>
<text text-anchor="start" x="489.65" y="-29.5" font-family="Helvetica,sans-Serif" font-size="10.00"># override void Start()</text>
<text text-anchor="start" x="489.65" y="-18.5" font-family="Helvetica,sans-Serif" font-size="10.00"># override void OnEnterDead</text>
<text text-anchor="start" x="489.65" y="-7.5" font-family="Helvetica,sans-Serif" font-size="10.00">StateStart()</text>
</a>
</g>
</g>
<!-- Node2 -->
<g id="node2" class="node">
<title>Node2</title>
<g id="a_node2"><a xlink:href="class_controllers_1_1_base_controller.html" target="_top" xlink:title=" ">
<polygon fill="none" stroke="black" points="468.15,-183.5 468.15,-735.5 641.15,-735.5 641.15,-183.5 468.15,-183.5"/>
<text text-anchor="middle" x="554.65" y="-723.5" font-family="Helvetica,sans-Serif" font-size="10.00">BaseController</text>
<polyline fill="none" stroke="black" points="468.15,-716.5 641.15,-716.5 "/>
<text text-anchor="start" x="476.15" y="-704.5" font-family="Helvetica,sans-Serif" font-size="10.00">+ int FacingDirection</text>
<text text-anchor="start" x="476.15" y="-693.5" font-family="Helvetica,sans-Serif" font-size="10.00">+ bool IsReadyToAttack</text>
<text text-anchor="start" x="476.15" y="-682.5" font-family="Helvetica,sans-Serif" font-size="10.00">+ bool wallDetected</text>
<text text-anchor="start" x="476.15" y="-671.5" font-family="Helvetica,sans-Serif" font-size="10.00">+ bool groundDetected</text>
<text text-anchor="start" x="476.15" y="-660.5" font-family="Helvetica,sans-Serif" font-size="10.00">+ bool topDetected</text>
<polyline fill="none" stroke="black" points="468.15,-653.5 641.15,-653.5 "/>
<text text-anchor="start" x="476.15" y="-641.5" font-family="Helvetica,sans-Serif" font-size="10.00">+ void Flip()</text>
<text text-anchor="start" x="476.15" y="-630.5" font-family="Helvetica,sans-Serif" font-size="10.00">+ void SetVelocity(float</text>
<text text-anchor="start" x="476.15" y="-619.5" font-family="Helvetica,sans-Serif" font-size="10.00"> velocity)</text>
<text text-anchor="start" x="476.15" y="-608.5" font-family="Helvetica,sans-Serif" font-size="10.00">+ void AddForce(Vector2</text>
<text text-anchor="start" x="476.15" y="-597.5" font-family="Helvetica,sans-Serif" font-size="10.00"> newForce, bool isImpulse)</text>
<text text-anchor="start" x="476.15" y="-586.5" font-family="Helvetica,sans-Serif" font-size="10.00">+ void AddTorque(float</text>
<text text-anchor="start" x="476.15" y="-575.5" font-family="Helvetica,sans-Serif" font-size="10.00"> newTorque, bool isImpulse)</text>
<text text-anchor="start" x="476.15" y="-564.5" font-family="Helvetica,sans-Serif" font-size="10.00">+ T GetMovementController</text>
<text text-anchor="start" x="476.15" y="-553.5" font-family="Helvetica,sans-Serif" font-size="10.00">&lt; T &gt;()</text>
<text text-anchor="start" x="476.15" y="-542.5" font-family="Helvetica,sans-Serif" font-size="10.00">+ Animator GetAnimator()</text>
<text text-anchor="start" x="476.15" y="-531.5" font-family="Helvetica,sans-Serif" font-size="10.00">+ Transform GetTransfrom()</text>
<text text-anchor="start" x="476.15" y="-520.5" font-family="Helvetica,sans-Serif" font-size="10.00">+ GameObject GetDialogueBubble()</text>
<text text-anchor="start" x="476.15" y="-509.5" font-family="Helvetica,sans-Serif" font-size="10.00">+ bool CheckWall()</text>
<text text-anchor="start" x="476.15" y="-498.5" font-family="Helvetica,sans-Serif" font-size="10.00">+ bool CheckLedge()</text>
<text text-anchor="start" x="476.15" y="-487.5" font-family="Helvetica,sans-Serif" font-size="10.00">+ bool CheckGround()</text>
<text text-anchor="start" x="476.15" y="-476.5" font-family="Helvetica,sans-Serif" font-size="10.00">+ bool CheckPlayerInRange()</text>
<text text-anchor="start" x="476.15" y="-465.5" font-family="Helvetica,sans-Serif" font-size="10.00">+ void SwitchStates(ECharacter</text>
<text text-anchor="start" x="476.15" y="-454.5" font-family="Helvetica,sans-Serif" font-size="10.00">State nextState)</text>
<text text-anchor="start" x="476.15" y="-443.5" font-family="Helvetica,sans-Serif" font-size="10.00">+ void Anim_PreparingAttack</text>
<text text-anchor="start" x="476.15" y="-432.5" font-family="Helvetica,sans-Serif" font-size="10.00">Finished()</text>
<text text-anchor="start" x="476.15" y="-421.5" font-family="Helvetica,sans-Serif" font-size="10.00">+ virtual void Damage</text>
<text text-anchor="start" x="476.15" y="-410.5" font-family="Helvetica,sans-Serif" font-size="10.00">(float amount, int attackN)</text>
<text text-anchor="start" x="476.15" y="-399.5" font-family="Helvetica,sans-Serif" font-size="10.00">+ void Damage(BaseController</text>
<text text-anchor="start" x="476.15" y="-388.5" font-family="Helvetica,sans-Serif" font-size="10.00"> controller, DamageInfo</text>
<text text-anchor="start" x="476.15" y="-377.5" font-family="Helvetica,sans-Serif" font-size="10.00"> damageInfo)</text>
<text text-anchor="start" x="476.15" y="-366.5" font-family="Helvetica,sans-Serif" font-size="10.00">+ void Kill()</text>
<text text-anchor="start" x="476.15" y="-355.5" font-family="Helvetica,sans-Serif" font-size="10.00">+ bool Interact(BaseController</text>
<text text-anchor="start" x="476.15" y="-344.5" font-family="Helvetica,sans-Serif" font-size="10.00"> controller, EInteractionKind</text>
<text text-anchor="start" x="476.15" y="-333.5" font-family="Helvetica,sans-Serif" font-size="10.00"> interactionKind)</text>
<text text-anchor="start" x="476.15" y="-322.5" font-family="Helvetica,sans-Serif" font-size="10.00">+ bool Interact(PlayerController</text>
<text text-anchor="start" x="476.15" y="-311.5" font-family="Helvetica,sans-Serif" font-size="10.00"> controller, EInteractionKind</text>
<text text-anchor="start" x="476.15" y="-300.5" font-family="Helvetica,sans-Serif" font-size="10.00"> interactionKind)</text>
<text text-anchor="start" x="476.15" y="-289.5" font-family="Helvetica,sans-Serif" font-size="10.00">+ void ReadyToInteract</text>
<text text-anchor="start" x="476.15" y="-278.5" font-family="Helvetica,sans-Serif" font-size="10.00">(PlayerController controller,</text>
<text text-anchor="start" x="476.15" y="-267.5" font-family="Helvetica,sans-Serif" font-size="10.00"> bool isReady)</text>
<text text-anchor="start" x="476.15" y="-256.5" font-family="Helvetica,sans-Serif" font-size="10.00">+ void ReadyToInteract</text>
<text text-anchor="start" x="476.15" y="-245.5" font-family="Helvetica,sans-Serif" font-size="10.00">(BaseController controller,</text>
<text text-anchor="start" x="476.15" y="-234.5" font-family="Helvetica,sans-Serif" font-size="10.00"> bool isReady)</text>
<text text-anchor="start" x="476.15" y="-223.5" font-family="Helvetica,sans-Serif" font-size="10.00"># virtual void Start()</text>
<text text-anchor="start" x="476.15" y="-212.5" font-family="Helvetica,sans-Serif" font-size="10.00"># virtual void OnDrawGizmos()</text>
<text text-anchor="start" x="476.15" y="-201.5" font-family="Helvetica,sans-Serif" font-size="10.00"># virtual void OnEnterDead</text>
<text text-anchor="start" x="476.15" y="-190.5" font-family="Helvetica,sans-Serif" font-size="10.00">StateStart()</text>
</a>
</g>
</g>
<!-- Node2&#45;&gt;Node1 -->
<g id="edge1" class="edge">
<title>Node2&#45;&gt;Node1</title>
<path fill="none" stroke="midnightblue" d="M554.65,-173.19C554.65,-163.53 554.65,-154.27 554.65,-145.58"/>
<polygon fill="none" stroke="midnightblue" points="551.15,-173.41 554.65,-183.41 558.15,-173.41 551.15,-173.41"/>
</g>
<!-- Node3 -->
<g id="node3" class="node">
<title>Node3</title>
<g id="a_node3"><a xlink:href="interface_controllers_1_1_i_damageable.html" target="_top" xlink:title="Interfaz para todos los NPCs/Enemigos/Objetos que pueden ser daniados.">
<polygon fill="none" stroke="black" points="35.65,-1108.5 35.65,-1220.5 183.65,-1220.5 183.65,-1108.5 35.65,-1108.5"/>
<text text-anchor="middle" x="109.65" y="-1208.5" font-family="Helvetica,sans-Serif" font-size="10.00">IDamageable</text>
<polyline fill="none" stroke="black" points="35.65,-1201.5 183.65,-1201.5 "/>
<text text-anchor="middle" x="109.65" y="-1189.5" font-family="Helvetica,sans-Serif" font-size="10.00"> </text>
<polyline fill="none" stroke="black" points="35.65,-1182.5 183.65,-1182.5 "/>
<text text-anchor="start" x="43.65" y="-1170.5" font-family="Helvetica,sans-Serif" font-size="10.00">+ void Damage(float amount,</text>
<text text-anchor="start" x="43.65" y="-1159.5" font-family="Helvetica,sans-Serif" font-size="10.00"> int attackN)</text>
<text text-anchor="start" x="43.65" y="-1148.5" font-family="Helvetica,sans-Serif" font-size="10.00">+ void Damage(BaseController</text>
<text text-anchor="start" x="43.65" y="-1137.5" font-family="Helvetica,sans-Serif" font-size="10.00"> controller, DamageInfo</text>
<text text-anchor="start" x="43.65" y="-1126.5" font-family="Helvetica,sans-Serif" font-size="10.00"> damageInfo)</text>
<text text-anchor="start" x="43.65" y="-1115.5" font-family="Helvetica,sans-Serif" font-size="10.00">+ void Kill()</text>
</a>
</g>
</g>
<!-- Node3&#45;&gt;Node2 -->
<g id="edge2" class="edge">
<title>Node3&#45;&gt;Node2</title>
<path fill="none" stroke="midnightblue" d="M65.56,-1099.31C51.14,-1074.7 36.96,-1045.63 29.65,-1017 3.93,-916.23 -21.12,-873.77 29.65,-783 123.58,-615.07 344.7,-523.91 467.91,-484.54"/>
<polygon fill="none" stroke="midnightblue" points="62.72,-1101.39 70.87,-1108.17 68.73,-1097.8 62.72,-1101.39"/>
</g>
<!-- Node16 -->
<g id="node16" class="node">
<title>Node16</title>
<g id="a_node16"><a xlink:href="class_player_1_1_player_controller.html" target="_top" xlink:title=" ">
<polygon fill="none" stroke="black" points="1008.65,-783.5 1008.65,-1016.5 1156.65,-1016.5 1156.65,-783.5 1008.65,-783.5"/>
<text text-anchor="middle" x="1082.65" y="-1004.5" font-family="Helvetica,sans-Serif" font-size="10.00">Player.PlayerController</text>
<polyline fill="none" stroke="black" points="1008.65,-997.5 1156.65,-997.5 "/>
<text text-anchor="middle" x="1082.65" y="-985.5" font-family="Helvetica,sans-Serif" font-size="10.00"> </text>
<polyline fill="none" stroke="black" points="1008.65,-978.5 1156.65,-978.5 "/>
<text text-anchor="start" x="1016.65" y="-966.5" font-family="Helvetica,sans-Serif" font-size="10.00">+ void Damage(float amount,</text>
<text text-anchor="start" x="1016.65" y="-955.5" font-family="Helvetica,sans-Serif" font-size="10.00"> int attackN)</text>
<text text-anchor="start" x="1016.65" y="-944.5" font-family="Helvetica,sans-Serif" font-size="10.00">+ void Damage(BaseController</text>
<text text-anchor="start" x="1016.65" y="-933.5" font-family="Helvetica,sans-Serif" font-size="10.00"> controller, DamageInfo</text>
<text text-anchor="start" x="1016.65" y="-922.5" font-family="Helvetica,sans-Serif" font-size="10.00"> damageInfo)</text>
<text text-anchor="start" x="1016.65" y="-911.5" font-family="Helvetica,sans-Serif" font-size="10.00">+ void Kill()</text>
<text text-anchor="start" x="1016.65" y="-900.5" font-family="Helvetica,sans-Serif" font-size="10.00">+ void EnterInteractionMode()</text>
<text text-anchor="start" x="1016.65" y="-889.5" font-family="Helvetica,sans-Serif" font-size="10.00">+ int GetFacingDirection()</text>
<text text-anchor="start" x="1016.65" y="-878.5" font-family="Helvetica,sans-Serif" font-size="10.00">+ void LandEvt()</text>
<text text-anchor="start" x="1016.65" y="-867.5" font-family="Helvetica,sans-Serif" font-size="10.00">+ void OnAirEvt()</text>
<text text-anchor="start" x="1016.65" y="-856.5" font-family="Helvetica,sans-Serif" font-size="10.00">+ bool IsFacingRight()</text>
<text text-anchor="start" x="1016.65" y="-845.5" font-family="Helvetica,sans-Serif" font-size="10.00">+ void AnimStartPrayingEvt()</text>
<text text-anchor="start" x="1016.65" y="-834.5" font-family="Helvetica,sans-Serif" font-size="10.00">+ void AnimRollEndEvt()</text>
<text text-anchor="start" x="1016.65" y="-823.5" font-family="Helvetica,sans-Serif" font-size="10.00">+ void AnimFootStep1Evt()</text>
<text text-anchor="start" x="1016.65" y="-812.5" font-family="Helvetica,sans-Serif" font-size="10.00">+ void AnimFootStep2Evt()</text>
<text text-anchor="start" x="1016.65" y="-801.5" font-family="Helvetica,sans-Serif" font-size="10.00">~ void OnEnable()</text>
<text text-anchor="start" x="1016.65" y="-790.5" font-family="Helvetica,sans-Serif" font-size="10.00">~ void OnDisable()</text>
</a>
</g>
</g>
<!-- Node3&#45;&gt;Node16 -->
<g id="edge16" class="edge">
<title>Node3&#45;&gt;Node16</title>
<path fill="none" stroke="midnightblue" d="M193.7,-1139.91C236.74,-1128.66 290.15,-1115.95 338.65,-1108 429.35,-1093.13 456.12,-1114.67 544.65,-1090 598.07,-1075.11 602.98,-1048.96 656.65,-1035 730.52,-1015.79 932.71,-1053.67 999.65,-1017 1002.69,-1015.33 1005.65,-1013.5 1008.52,-1011.53"/>
<polygon fill="none" stroke="midnightblue" points="192.62,-1136.58 183.84,-1142.51 194.41,-1143.35 192.62,-1136.58"/>
</g>
<!-- Node4 -->
<g id="node4" class="node">
<title>Node4</title>
<g id="a_node4"><a xlink:href="interface_interactions_1_1_interfaces_1_1_i_interactive.html" target="_top" xlink:title=" ">
<polygon fill="none" stroke="black" points="39.15,-811 39.15,-989 190.15,-989 190.15,-811 39.15,-811"/>
<text text-anchor="middle" x="114.65" y="-977" font-family="Helvetica,sans-Serif" font-size="10.00">IInteractive</text>
<polyline fill="none" stroke="black" points="39.15,-970 190.15,-970 "/>
<text text-anchor="middle" x="114.65" y="-958" font-family="Helvetica,sans-Serif" font-size="10.00"> </text>
<polyline fill="none" stroke="black" points="39.15,-951 190.15,-951 "/>
<text text-anchor="start" x="47.15" y="-939" font-family="Helvetica,sans-Serif" font-size="10.00">+ bool Interact(BaseController</text>
<text text-anchor="start" x="47.15" y="-928" font-family="Helvetica,sans-Serif" font-size="10.00"> controller, EInteractionKind</text>
<text text-anchor="start" x="47.15" y="-917" font-family="Helvetica,sans-Serif" font-size="10.00"> interactionKind)</text>
<text text-anchor="start" x="47.15" y="-906" font-family="Helvetica,sans-Serif" font-size="10.00">+ bool Interact(PlayerController</text>
<text text-anchor="start" x="47.15" y="-895" font-family="Helvetica,sans-Serif" font-size="10.00"> controller, EInteractionKind</text>
<text text-anchor="start" x="47.15" y="-884" font-family="Helvetica,sans-Serif" font-size="10.00"> interactionKind)</text>
<text text-anchor="start" x="47.15" y="-873" font-family="Helvetica,sans-Serif" font-size="10.00">+ void ReadyToInteract</text>
<text text-anchor="start" x="47.15" y="-862" font-family="Helvetica,sans-Serif" font-size="10.00">(PlayerController controller,</text>
<text text-anchor="start" x="47.15" y="-851" font-family="Helvetica,sans-Serif" font-size="10.00"> bool isReady)</text>
<text text-anchor="start" x="47.15" y="-840" font-family="Helvetica,sans-Serif" font-size="10.00">+ void ReadyToInteract</text>
<text text-anchor="start" x="47.15" y="-829" font-family="Helvetica,sans-Serif" font-size="10.00">(BaseController controller,</text>
<text text-anchor="start" x="47.15" y="-818" font-family="Helvetica,sans-Serif" font-size="10.00"> bool isReady)</text>
</a>
</g>
</g>
<!-- Node4&#45;&gt;Node2 -->
<g id="edge3" class="edge">
<title>Node4&#45;&gt;Node2</title>
<path fill="none" stroke="midnightblue" d="M181.98,-802.67C187.46,-795.88 193.05,-789.26 198.65,-783 283.25,-688.6 392.89,-592.61 468.02,-530.19"/>
<polygon fill="none" stroke="midnightblue" points="179.08,-800.69 175.6,-810.7 184.56,-805.04 179.08,-800.69"/>
</g>
<!-- Node5 -->
<g id="node5" class="node">
<title>Node5</title>
<g id="a_node5"><a xlink:title=" ">
<polygon fill="none" stroke="#bfbfbf" points="208.15,-871.5 208.15,-928.5 279.15,-928.5 279.15,-871.5 208.15,-871.5"/>
<text text-anchor="middle" x="243.65" y="-916.5" font-family="Helvetica,sans-Serif" font-size="10.00">Rigidbody2D</text>
<polyline fill="none" stroke="#bfbfbf" points="208.15,-909.5 279.15,-909.5 "/>
<text text-anchor="middle" x="243.65" y="-897.5" font-family="Helvetica,sans-Serif" font-size="10.00"> </text>
<polyline fill="none" stroke="#bfbfbf" points="208.15,-890.5 279.15,-890.5 "/>
<text text-anchor="middle" x="243.65" y="-878.5" font-family="Helvetica,sans-Serif" font-size="10.00"> </text>
</a>
</g>
</g>
<!-- Node5&#45;&gt;Node2 -->
<g id="edge4" class="edge">
<title>Node5&#45;&gt;Node2</title>
<path fill="none" stroke="#404040" d="M252.62,-871.1C260.76,-847.15 273.73,-812.01 288.65,-783 332.71,-697.34 402.58,-613.82 459.66,-553.24"/>
<polygon fill="none" stroke="#404040" points="459.72,-553.17 460.95,-546.07 467.98,-544.47 466.75,-551.57 459.72,-553.17"/>
<text text-anchor="middle" x="329.65" y="-757" font-family="Helvetica,sans-Serif" font-size="10.00"> #rigidbody2D</text>
</g>
<!-- Node6 -->
<g id="node6" class="node">
<title>Node6</title>
<g id="a_node6"><a xlink:title=" ">
<polygon fill="none" stroke="#bfbfbf" points="297.65,-871.5 297.65,-928.5 353.65,-928.5 353.65,-871.5 297.65,-871.5"/>
<text text-anchor="middle" x="325.65" y="-916.5" font-family="Helvetica,sans-Serif" font-size="10.00">Animator</text>
<polyline fill="none" stroke="#bfbfbf" points="297.65,-909.5 353.65,-909.5 "/>
<text text-anchor="middle" x="325.65" y="-897.5" font-family="Helvetica,sans-Serif" font-size="10.00"> </text>
<polyline fill="none" stroke="#bfbfbf" points="297.65,-890.5 353.65,-890.5 "/>
<text text-anchor="middle" x="325.65" y="-878.5" font-family="Helvetica,sans-Serif" font-size="10.00"> </text>
</a>
</g>
</g>
<!-- Node6&#45;&gt;Node2 -->
<g id="edge5" class="edge">
<title>Node6&#45;&gt;Node2</title>
<path fill="none" stroke="#404040" d="M332.92,-871.17C339.59,-847.27 350.44,-812.14 363.65,-783 391.42,-721.75 427.89,-657.4 461.52,-602.43"/>
<polygon fill="none" stroke="#404040" points="461.69,-602.15 461.43,-594.94 467.98,-591.93 468.24,-599.13 461.69,-602.15"/>
<text text-anchor="middle" x="419.65" y="-757" font-family="Helvetica,sans-Serif" font-size="10.00"> #characterAnimator</text>
</g>
<!-- Node7 -->
<g id="node7" class="node">
<title>Node7</title>
<g id="a_node7"><a xlink:href="class_controllers_1_1_state_machine_1_1_states_1_1_data_1_1_controller_data.html" target="_top" xlink:title=" ">
<polygon fill="none" stroke="black" points="372.15,-866 372.15,-934 505.15,-934 505.15,-866 372.15,-866"/>
<text text-anchor="start" x="380.15" y="-922" font-family="Helvetica,sans-Serif" font-size="10.00">Controllers.StateMachine.</text>
<text text-anchor="middle" x="438.65" y="-911" font-family="Helvetica,sans-Serif" font-size="10.00">States.Data.ControllerData</text>
<polyline fill="none" stroke="black" points="372.15,-904 505.15,-904 "/>
<text text-anchor="middle" x="438.65" y="-892" font-family="Helvetica,sans-Serif" font-size="10.00"> </text>
<polyline fill="none" stroke="black" points="372.15,-885 505.15,-885 "/>
<text text-anchor="middle" x="438.65" y="-873" font-family="Helvetica,sans-Serif" font-size="10.00"> </text>
</a>
</g>
</g>
<!-- Node7&#45;&gt;Node2 -->
<g id="edge6" class="edge">
<title>Node7&#45;&gt;Node2</title>
<path fill="none" stroke="#404040" d="M447.47,-865.68C454.84,-837.8 466.15,-795.03 478.71,-747.56"/>
<polygon fill="none" stroke="#404040" points="478.77,-747.33 476.44,-740.51 481.84,-735.73 484.17,-742.56 478.77,-747.33"/>
<text text-anchor="middle" x="497.15" y="-757" font-family="Helvetica,sans-Serif" font-size="10.00"> +ctrlData</text>
</g>
<!-- Node8 -->
<g id="node8" class="node">
<title>Node8</title>
<g id="a_node8"><a xlink:href="class_scriptable_object.html" target="_top" xlink:title=" ">
<polygon fill="none" stroke="black" points="347.15,-1136 347.15,-1193 436.15,-1193 436.15,-1136 347.15,-1136"/>
<text text-anchor="middle" x="391.65" y="-1181" font-family="Helvetica,sans-Serif" font-size="10.00">ScriptableObject</text>
<polyline fill="none" stroke="black" points="347.15,-1174 436.15,-1174 "/>
<text text-anchor="middle" x="391.65" y="-1162" font-family="Helvetica,sans-Serif" font-size="10.00"> </text>
<polyline fill="none" stroke="black" points="347.15,-1155 436.15,-1155 "/>
<text text-anchor="middle" x="391.65" y="-1143" font-family="Helvetica,sans-Serif" font-size="10.00"> </text>
</a>
</g>
</g>
<!-- Node8&#45;&gt;Node7 -->
<g id="edge7" class="edge">
<title>Node8&#45;&gt;Node7</title>
<path fill="none" stroke="midnightblue" d="M398.38,-1125.89C407.57,-1074.57 423.9,-983.38 432.68,-934.37"/>
<polygon fill="none" stroke="midnightblue" points="394.91,-1125.44 396.59,-1135.9 401.8,-1126.68 394.91,-1125.44"/>
</g>
<!-- Node9 -->
<g id="node9" class="node">
<title>Node9</title>
<g id="a_node9"><a xlink:title=" ">
<polygon fill="none" stroke="#bfbfbf" points="819.15,-1136 819.15,-1193 854.15,-1193 854.15,-1136 819.15,-1136"/>
<text text-anchor="middle" x="836.65" y="-1181" font-family="Helvetica,sans-Serif" font-size="10.00">float</text>
<polyline fill="none" stroke="#bfbfbf" points="819.15,-1174 854.15,-1174 "/>
<text text-anchor="middle" x="836.65" y="-1162" font-family="Helvetica,sans-Serif" font-size="10.00"> </text>
<polyline fill="none" stroke="#bfbfbf" points="819.15,-1155 854.15,-1155 "/>
<text text-anchor="middle" x="836.65" y="-1143" font-family="Helvetica,sans-Serif" font-size="10.00"> </text>
</a>
</g>
</g>
<!-- Node9&#45;&gt;Node7 -->
<g id="edge8" class="edge">
<title>Node9&#45;&gt;Node7</title>
<path fill="none" stroke="#404040" d="M818.71,-1156.03C754.71,-1129.29 540,-1038.74 514.65,-1017 491.62,-997.25 472.84,-968.82 459.71,-945.06"/>
<polygon fill="none" stroke="#404040" points="459.56,-944.76 453.2,-941.35 453.91,-934.17 460.26,-937.58 459.56,-944.76"/>
<text text-anchor="middle" x="714.65" y="-1082" font-family="Helvetica,sans-Serif" font-size="10.00"> +groundCheckDistance</text>
<text text-anchor="middle" x="714.65" y="-1071" font-family="Helvetica,sans-Serif" font-size="10.00">+ledgeCheckDistacne</text>
<text text-anchor="middle" x="714.65" y="-1060" font-family="Helvetica,sans-Serif" font-size="10.00">+playerDetectionDistance</text>
<text text-anchor="middle" x="714.65" y="-1049" font-family="Helvetica,sans-Serif" font-size="10.00">+topCheckDistance</text>
<text text-anchor="middle" x="714.65" y="-1038" font-family="Helvetica,sans-Serif" font-size="10.00">+wallCheckDistance</text>
</g>
<!-- Node9&#45;&gt;Node16 -->
<g id="edge17" class="edge">
<title>Node9&#45;&gt;Node16</title>
<path fill="none" stroke="#404040" d="M854.45,-1149.66C885.71,-1124.9 951.7,-1070.59 999.65,-1017 999.93,-1016.69 1000.21,-1016.38 1000.49,-1016.06"/>
<polygon fill="none" stroke="#404040" points="1000.69,-1015.83 1001.58,-1008.67 1008.53,-1006.75 1007.64,-1013.9 1000.69,-1015.83"/>
<text text-anchor="middle" x="1020.65" y="-1060" font-family="Helvetica,sans-Serif" font-size="10.00"> #interactionRadius</text>
</g>
<!-- Node10 -->
<g id="node10" class="node">
<title>Node10</title>
<g id="a_node10"><a xlink:title=" ">
<polygon fill="none" stroke="#bfbfbf" points="454.15,-1136 454.15,-1193 519.15,-1193 519.15,-1136 454.15,-1136"/>
<text text-anchor="middle" x="486.65" y="-1181" font-family="Helvetica,sans-Serif" font-size="10.00">LayerMask</text>
<polyline fill="none" stroke="#bfbfbf" points="454.15,-1174 519.15,-1174 "/>
<text text-anchor="middle" x="486.65" y="-1162" font-family="Helvetica,sans-Serif" font-size="10.00"> </text>
<polyline fill="none" stroke="#bfbfbf" points="454.15,-1155 519.15,-1155 "/>
<text text-anchor="middle" x="486.65" y="-1143" font-family="Helvetica,sans-Serif" font-size="10.00"> </text>
</a>
</g>
</g>
<!-- Node10&#45;&gt;Node7 -->
<g id="edge9" class="edge">
<title>Node10&#45;&gt;Node7</title>
<path fill="none" stroke="#404040" d="M481.61,-1135.9C473.37,-1090.84 456.94,-1001.02 446.96,-946.44"/>
<polygon fill="none" stroke="#404040" points="446.91,-946.17 441.9,-940.99 444.75,-934.37 449.77,-939.55 446.91,-946.17"/>
<text text-anchor="middle" x="506.15" y="-1060" font-family="Helvetica,sans-Serif" font-size="10.00"> +whatIsGround</text>
</g>
<!-- Node11 -->
<g id="node11" class="node">
<title>Node11</title>
<g id="a_node11"><a xlink:title=" ">
<polygon fill="none" stroke="#bfbfbf" points="523.15,-871.5 523.15,-928.5 586.15,-928.5 586.15,-871.5 523.15,-871.5"/>
<text text-anchor="middle" x="554.65" y="-916.5" font-family="Helvetica,sans-Serif" font-size="10.00">UnityEvent</text>
<polyline fill="none" stroke="#bfbfbf" points="523.15,-909.5 586.15,-909.5 "/>
<text text-anchor="middle" x="554.65" y="-897.5" font-family="Helvetica,sans-Serif" font-size="10.00"> </text>
<polyline fill="none" stroke="#bfbfbf" points="523.15,-890.5 586.15,-890.5 "/>
<text text-anchor="middle" x="554.65" y="-878.5" font-family="Helvetica,sans-Serif" font-size="10.00"> </text>
</a>
</g>
</g>
<!-- Node11&#45;&gt;Node2 -->
<g id="edge10" class="edge">
<title>Node11&#45;&gt;Node2</title>
<path fill="none" stroke="#404040" d="M554.65,-871.24C554.65,-843.74 554.65,-798.52 554.65,-747.91"/>
<polygon fill="none" stroke="#404040" points="554.65,-747.64 550.65,-741.64 554.65,-735.64 558.65,-741.64 554.65,-747.64"/>
<text text-anchor="middle" x="588.15" y="-757" font-family="Helvetica,sans-Serif" font-size="10.00"> +OnLandEvent</text>
</g>
<!-- Node12 -->
<g id="node12" class="node">
<title>Node12</title>
<g id="a_node12"><a xlink:href="class_controllers_1_1_movement_1_1_base_movement_controller.html" target="_top" xlink:title=" ">
<polygon fill="none" stroke="black" points="604.65,-866 604.65,-934 740.65,-934 740.65,-866 604.65,-866"/>
<text text-anchor="start" x="612.65" y="-922" font-family="Helvetica,sans-Serif" font-size="10.00">Controllers.Movement.Base</text>
<text text-anchor="middle" x="672.65" y="-911" font-family="Helvetica,sans-Serif" font-size="10.00">MovementController</text>
<polyline fill="none" stroke="black" points="604.65,-904 740.65,-904 "/>
<text text-anchor="middle" x="672.65" y="-892" font-family="Helvetica,sans-Serif" font-size="10.00"> </text>
<polyline fill="none" stroke="black" points="604.65,-885 740.65,-885 "/>
<text text-anchor="middle" x="672.65" y="-873" font-family="Helvetica,sans-Serif" font-size="10.00"> </text>
</a>
</g>
</g>
<!-- Node12&#45;&gt;Node2 -->
<g id="edge11" class="edge">
<title>Node12&#45;&gt;Node2</title>
<path fill="none" stroke="#404040" d="M663.69,-865.68C656.18,-837.8 644.67,-795.03 631.9,-747.56"/>
<polygon fill="none" stroke="#404040" points="631.83,-747.32 626.41,-742.57 628.72,-735.73 634.14,-740.49 631.83,-747.32"/>
<text text-anchor="middle" x="691.15" y="-757" font-family="Helvetica,sans-Serif" font-size="10.00"> #baseMovementController</text>
</g>
<!-- Node13 -->
<g id="node13" class="node">
<title>Node13</title>
<g id="a_node13"><a xlink:href="class_controllers_1_1_state_machine_1_1_controller_state_machine.html" target="_top" xlink:title="Controla el estado de un enemigo o NPC, desde que spawnea hasta que muere. Casi todos los metodos son...">
<polygon fill="none" stroke="black" points="759.15,-849.5 759.15,-950.5 888.15,-950.5 888.15,-849.5 759.15,-849.5"/>
<text text-anchor="start" x="767.15" y="-938.5" font-family="Helvetica,sans-Serif" font-size="10.00">Controllers.StateMachine.</text>
<text text-anchor="middle" x="823.65" y="-927.5" font-family="Helvetica,sans-Serif" font-size="10.00">ControllerStateMachine</text>
<polyline fill="none" stroke="black" points="759.15,-920.5 888.15,-920.5 "/>
<text text-anchor="start" x="767.15" y="-908.5" font-family="Helvetica,sans-Serif" font-size="10.00">+ State CurrentState</text>
<polyline fill="none" stroke="black" points="759.15,-901.5 888.15,-901.5 "/>
<text text-anchor="start" x="767.15" y="-889.5" font-family="Helvetica,sans-Serif" font-size="10.00">+ void Initialize(State</text>
<text text-anchor="start" x="767.15" y="-878.5" font-family="Helvetica,sans-Serif" font-size="10.00"> startState)</text>
<text text-anchor="start" x="767.15" y="-867.5" font-family="Helvetica,sans-Serif" font-size="10.00">+ void ChangeState(State</text>
<text text-anchor="start" x="767.15" y="-856.5" font-family="Helvetica,sans-Serif" font-size="10.00"> nextState)</text>
</a>
</g>
</g>
<!-- Node13&#45;&gt;Node2 -->
<g id="edge12" class="edge">
<title>Node13&#45;&gt;Node2</title>
<path fill="none" stroke="#404040" d="M801.47,-849.46C788.23,-821.02 770.55,-784.94 752.65,-754 720.91,-699.13 682.62,-640.84 648.19,-590.79"/>
<polygon fill="none" stroke="#404040" points="648.18,-590.77 641.48,-588.1 641.36,-580.89 648.06,-583.56 648.18,-590.77"/>
<text text-anchor="middle" x="791.65" y="-757" font-family="Helvetica,sans-Serif" font-size="10.00"> +StateMachine</text>
</g>
<!-- Node14 -->
<g id="node14" class="node">
<title>Node14</title>
<g id="a_node14"><a xlink:title=" ">
<polygon fill="none" stroke="#bfbfbf" points="906.65,-871.5 906.65,-928.5 990.65,-928.5 990.65,-871.5 906.65,-871.5"/>
<text text-anchor="middle" x="948.65" y="-916.5" font-family="Helvetica,sans-Serif" font-size="10.00">EControllerKind</text>
<polyline fill="none" stroke="#bfbfbf" points="906.65,-909.5 990.65,-909.5 "/>
<text text-anchor="middle" x="948.65" y="-897.5" font-family="Helvetica,sans-Serif" font-size="10.00"> </text>
<polyline fill="none" stroke="#bfbfbf" points="906.65,-890.5 990.65,-890.5 "/>
<text text-anchor="middle" x="948.65" y="-878.5" font-family="Helvetica,sans-Serif" font-size="10.00"> </text>
</a>
</g>
</g>
<!-- Node14&#45;&gt;Node2 -->
<g id="edge13" class="edge">
<title>Node14&#45;&gt;Node2</title>
<path fill="none" stroke="#404040" d="M939.96,-871.13C931.5,-846.55 917.08,-810.49 897.65,-783 828.44,-685.06 725.89,-593.45 650.95,-533.08"/>
<polygon fill="none" stroke="#404040" points="650.86,-533.01 643.68,-532.38 641.5,-525.51 648.68,-526.14 650.86,-533.01"/>
<text text-anchor="middle" x="916.65" y="-757" font-family="Helvetica,sans-Serif" font-size="10.00"> #controllerKind</text>
</g>
<!-- Node15 -->
<g id="node15" class="node">
<title>Node15</title>
<g id="a_node15"><a xlink:title=" ">
<polygon fill="none" stroke="#bfbfbf" points="1120.15,-1136 1120.15,-1193 1155.15,-1193 1155.15,-1136 1120.15,-1136"/>
<text text-anchor="middle" x="1137.65" y="-1181" font-family="Helvetica,sans-Serif" font-size="10.00">bool</text>
<polyline fill="none" stroke="#bfbfbf" points="1120.15,-1174 1155.15,-1174 "/>
<text text-anchor="middle" x="1137.65" y="-1162" font-family="Helvetica,sans-Serif" font-size="10.00"> </text>
<polyline fill="none" stroke="#bfbfbf" points="1120.15,-1155 1155.15,-1155 "/>
<text text-anchor="middle" x="1137.65" y="-1143" font-family="Helvetica,sans-Serif" font-size="10.00"> </text>
</a>
</g>
</g>
<!-- Node15&#45;&gt;Node2 -->
<g id="edge14" class="edge">
<title>Node15&#45;&gt;Node2</title>
<path fill="none" stroke="#404040" d="M1155.25,-1140.06C1164.49,-1126.27 1174.86,-1108.04 1179.65,-1090 1201.02,-1009.54 1243.68,-904.65 1165.65,-783 1049.08,-601.26 794.36,-515.65 653.4,-480.84"/>
<polygon fill="none" stroke="#404040" points="653.03,-480.75 646.26,-483.23 641.37,-477.93 648.14,-475.45 653.03,-480.75"/>
<text text-anchor="middle" x="1262.15" y="-897.5" font-family="Helvetica,sans-Serif" font-size="10.00"> #playerFacingDirection</text>
</g>
<!-- Node15&#45;&gt;Node16 -->
<g id="edge18" class="edge">
<title>Node15&#45;&gt;Node16</title>
<path fill="none" stroke="#404040" d="M1119.98,-1146.68C1106.85,-1132.88 1090,-1112.08 1082.65,-1090 1076.24,-1070.74 1072.93,-1049.75 1071.59,-1029"/>
<polygon fill="none" stroke="#404040" points="1071.59,-1028.81 1067.31,-1023 1071.03,-1016.82 1075.3,-1022.63 1071.59,-1028.81"/>
<text text-anchor="middle" x="1131.15" y="-1082" font-family="Helvetica,sans-Serif" font-size="10.00"> +isEnrolledInDialogue</text>
<text text-anchor="middle" x="1131.15" y="-1071" font-family="Helvetica,sans-Serif" font-size="10.00">~moveOnDamaged</text>
<text text-anchor="middle" x="1131.15" y="-1060" font-family="Helvetica,sans-Serif" font-size="10.00">~praying</text>
<text text-anchor="middle" x="1131.15" y="-1049" font-family="Helvetica,sans-Serif" font-size="10.00">~respawning</text>
<text text-anchor="middle" x="1131.15" y="-1038" font-family="Helvetica,sans-Serif" font-size="10.00">~roll</text>
</g>
<!-- Node16&#45;&gt;Node2 -->
<g id="edge15" class="edge">
<title>Node16&#45;&gt;Node2</title>
<path fill="none" stroke="#404040" d="M1008.46,-792.27C1005.56,-789.09 1002.62,-785.99 999.65,-783 892.68,-675.38 746.87,-577.01 651.77,-517.93"/>
<polygon fill="none" stroke="#404040" points="651.5,-517.76 644.29,-518.01 641.29,-511.45 648.5,-511.21 651.5,-517.76"/>
<text text-anchor="middle" x="1015.65" y="-757" font-family="Helvetica,sans-Serif" font-size="10.00"> #playerController</text>
</g>
</g>
</svg>
        <g id="navigator" transform="translate(0 0)" fill="#404254">
                <rect fill="#f2f5e9" fill-opacity="0.5" stroke="#606060" stroke-width=".5" x="0" y="0" width="60" height="60"/>
                <use id="zoomplus" xlink:href="#zoomPlus" x="17" y="9" onmousedown="handleZoom(evt,'in')"/>
                <use id="zoomminus" xlink:href="#zoomMin" x="42" y="9" onmousedown="handleZoom(evt,'out')"/>
                <use id="reset" xlink:href="#resetDef" x="30" y="36" onmousedown="handleReset()"/>
                <g id="arrowUp" xlink:href="#dirArrow" transform="translate(30 24)" onmousedown="handlePan(0,-1)">
                  <use xlink:href="#rim" fill="#404040">
                        <set attributeName="fill" to="#808080" begin="arrowUp.mouseover" end="arrowUp.mouseout"/>
                  </use>
                  <path fill="none" stroke="white" stroke-width="1.5" d="M0,-3.0v7 M-2.5,-0.5L0,-3.0L2.5,-0.5"/>
                </g>
                <g id="arrowRight" xlink:href="#dirArrow" transform="rotate(90) translate(36 -43)" onmousedown="handlePan(1,0)">
                  <use xlink:href="#rim" fill="#404040">
                        <set attributeName="fill" to="#808080" begin="arrowRight.mouseover" end="arrowRight.mouseout"/>
                  </use>
                  <path fill="none" stroke="white" stroke-width="1.5" d="M0,-3.0v7 M-2.5,-0.5L0,-3.0L2.5,-0.5"/>
                </g>
                <g id="arrowDown" xlink:href="#dirArrow" transform="rotate(180) translate(-30 -48)" onmousedown="handlePan(0,1)">
                  <use xlink:href="#rim" fill="#404040">
                        <set attributeName="fill" to="#808080" begin="arrowDown.mouseover" end="arrowDown.mouseout"/>
                  </use>
                  <path fill="none" stroke="white" stroke-width="1.5" d="M0,-3.0v7 M-2.5,-0.5L0,-3.0L2.5,-0.5"/>
                </g>
                <g id="arrowLeft" xlink:href="#dirArrow" transform="rotate(270) translate(-36 17)" onmousedown="handlePan(-1,0)">
                  <use xlink:href="#rim" fill="#404040">
                        <set attributeName="fill" to="#808080" begin="arrowLeft.mouseover" end="arrowLeft.mouseout"/>
                  </use>
                  <path fill="none" stroke="white" stroke-width="1.5" d="M0,-3.0v7 M-2.5,-0.5L0,-3.0L2.5,-0.5"/>
                </g>
        </g>
        <svg viewBox="0 0 15 15" width="100%" height="30px" preserveAspectRatio="xMaxYMin meet">
         <g id="arrow_out" transform="scale(0.3 0.3)">
          <a xlink:href="class_controllers_1_1_froggy_1_1_froggy_controller__coll__graph_org.svg" target="_base">
           <rect id="button" ry="5" rx="5" y="6" x="6" height="38" width="38"
                fill="#f2f5e9" fill-opacity="0.5" stroke="#606060" stroke-width="1.0"/>
           <path id="arrow"
             d="M 11.500037,31.436501 C 11.940474,20.09759 22.043105,11.32322 32.158766,21.979434 L 37.068811,17.246167 C 37.068811,17.246167 37.088388,32 37.088388,32 L 22.160133,31.978069 C 22.160133,31.978069 26.997745,27.140456 26.997745,27.140456 C 18.528582,18.264221 13.291696,25.230495 11.500037,31.436501 z"
             style="fill:#404040;"/>
          </a>
         </g>
        </svg>
</svg>
