<?xml version="1.0" encoding="UTF-8" standalone="no"?>
<!DOCTYPE svg PUBLIC "-//W3C//DTD SVG 1.1//EN"
 "http://www.w3.org/Graphics/SVG/1.1/DTD/svg11.dtd">
<!-- Generated by graphviz version 2.48.0 (20210717.1556)
 -->
<!-- Title: Controllers.BaseController Pages: 1 -->
<svg width="1446pt" height="853pt"
 viewBox="0.00 0.00 1446.41 853.00" xmlns="http://www.w3.org/2000/svg" xmlns:xlink="http://www.w3.org/1999/xlink">
<g id="graph0" class="graph" transform="scale(1 1) rotate(0) translate(4 849)">
<title>Controllers.BaseController</title>
<!-- Node1 -->
<g id="node1" class="node">
<title>Node1</title>
<g id="a_node1"><a xlink:title=" ">
<polygon fill="#bfbfbf" stroke="black" points="526.41,-0.5 526.41,-123.5 672.41,-123.5 672.41,-0.5 526.41,-0.5"/>
<text text-anchor="middle" x="599.41" y="-111.5" font-family="Helvetica,sans-Serif" font-size="10.00">Controllers.BaseController</text>
<polyline fill="none" stroke="black" points="526.41,-104.5 672.41,-104.5 "/>
<text text-anchor="middle" x="599.41" y="-92.5" font-family="Helvetica,sans-Serif" font-size="10.00"> </text>
<polyline fill="none" stroke="black" points="526.41,-85.5 672.41,-85.5 "/>
<text text-anchor="start" x="534.41" y="-73.5" font-family="Helvetica,sans-Serif" font-size="10.00">+ T GetMovementController</text>
<text text-anchor="start" x="534.41" y="-62.5" font-family="Helvetica,sans-Serif" font-size="10.00">&lt; T &gt;()</text>
<text text-anchor="start" x="534.41" y="-51.5" font-family="Helvetica,sans-Serif" font-size="10.00">+ virtual void Damage</text>
<text text-anchor="start" x="534.41" y="-40.5" font-family="Helvetica,sans-Serif" font-size="10.00">(float amount, int attackN)</text>
<text text-anchor="start" x="534.41" y="-29.5" font-family="Helvetica,sans-Serif" font-size="10.00"># virtual void OnStart()</text>
<text text-anchor="start" x="534.41" y="-18.5" font-family="Helvetica,sans-Serif" font-size="10.00"># virtual void OnUpdate()</text>
<text text-anchor="start" x="534.41" y="-7.5" font-family="Helvetica,sans-Serif" font-size="10.00"># virtual void OnFixedUpdate()</text>
</a>
</g>
</g>
<!-- Node2 -->
<g id="node2" class="node">
<title>Node2</title>
<g id="a_node2"><a xlink:href="class_mono_behaviour.html" target="_top" xlink:title=" ">
<polygon fill="none" stroke="black" points="591.91,-687 591.91,-744 674.91,-744 674.91,-687 591.91,-687"/>
<text text-anchor="middle" x="633.41" y="-732" font-family="Helvetica,sans-Serif" font-size="10.00">MonoBehaviour</text>
<polyline fill="none" stroke="black" points="591.91,-725 674.91,-725 "/>
<text text-anchor="middle" x="633.41" y="-713" font-family="Helvetica,sans-Serif" font-size="10.00"> </text>
<polyline fill="none" stroke="black" points="591.91,-706 674.91,-706 "/>
<text text-anchor="middle" x="633.41" y="-694" font-family="Helvetica,sans-Serif" font-size="10.00"> </text>
</a>
</g>
</g>
<!-- Node2&#45;&gt;Node1 -->
<g id="edge1" class="edge">
<title>Node2&#45;&gt;Node1</title>
<path fill="none" stroke="midnightblue" d="M582.25,-697.23C406.8,-635.41 -149.52,-416.28 38.41,-182 98.69,-106.86 388.35,-77.32 526.2,-67.38"/>
<polygon fill="none" stroke="midnightblue" points="581.19,-700.57 591.78,-700.57 583.5,-693.96 581.19,-700.57"/>
</g>
<!-- Node8 -->
<g id="node8" class="node">
<title>Node8</title>
<g id="a_node8"><a xlink:href="class_controllers_1_1_movement_1_1_base_movement_controller.html" target="_top" xlink:title=" ">
<polygon fill="none" stroke="black" points="518.41,-346.5 518.41,-414.5 654.41,-414.5 654.41,-346.5 518.41,-346.5"/>
<text text-anchor="start" x="526.41" y="-402.5" font-family="Helvetica,sans-Serif" font-size="10.00">Controllers.Movement.Base</text>
<text text-anchor="middle" x="586.41" y="-391.5" font-family="Helvetica,sans-Serif" font-size="10.00">MovementController</text>
<polyline fill="none" stroke="black" points="518.41,-384.5 654.41,-384.5 "/>
<text text-anchor="middle" x="586.41" y="-372.5" font-family="Helvetica,sans-Serif" font-size="10.00"> </text>
<polyline fill="none" stroke="black" points="518.41,-365.5 654.41,-365.5 "/>
<text text-anchor="middle" x="586.41" y="-353.5" font-family="Helvetica,sans-Serif" font-size="10.00"> </text>
</a>
</g>
</g>
<!-- Node2&#45;&gt;Node8 -->
<g id="edge8" class="edge">
<title>Node2&#45;&gt;Node8</title>
<path fill="none" stroke="midnightblue" d="M628.13,-677.06C618.88,-611.52 599.9,-477.06 591.09,-414.66"/>
<polygon fill="none" stroke="midnightblue" points="624.66,-677.55 629.52,-686.97 631.59,-676.57 624.66,-677.55"/>
</g>
<!-- Node14 -->
<g id="node14" class="node">
<title>Node14</title>
<g id="a_node14"><a xlink:href="class_player_1_1_player_controller.html" target="_top" xlink:title=" ">
<polygon fill="none" stroke="black" points="921.91,-182.5 921.91,-327.5 1062.91,-327.5 1062.91,-182.5 921.91,-182.5"/>
<text text-anchor="middle" x="992.41" y="-315.5" font-family="Helvetica,sans-Serif" font-size="10.00">Player.PlayerController</text>
<polyline fill="none" stroke="black" points="921.91,-308.5 1062.91,-308.5 "/>
<text text-anchor="middle" x="992.41" y="-296.5" font-family="Helvetica,sans-Serif" font-size="10.00"> </text>
<polyline fill="none" stroke="black" points="921.91,-289.5 1062.91,-289.5 "/>
<text text-anchor="start" x="929.91" y="-277.5" font-family="Helvetica,sans-Serif" font-size="10.00">+ void LandEvt()</text>
<text text-anchor="start" x="929.91" y="-266.5" font-family="Helvetica,sans-Serif" font-size="10.00">+ void OnAirEvt()</text>
<text text-anchor="start" x="929.91" y="-255.5" font-family="Helvetica,sans-Serif" font-size="10.00">+ bool IsFacingRight()</text>
<text text-anchor="start" x="929.91" y="-244.5" font-family="Helvetica,sans-Serif" font-size="10.00">+ void AnimStartPrayingEvt()</text>
<text text-anchor="start" x="929.91" y="-233.5" font-family="Helvetica,sans-Serif" font-size="10.00">+ void AnimRollEndEvt()</text>
<text text-anchor="start" x="929.91" y="-222.5" font-family="Helvetica,sans-Serif" font-size="10.00">+ void AnimFootStep1Evt()</text>
<text text-anchor="start" x="929.91" y="-211.5" font-family="Helvetica,sans-Serif" font-size="10.00">+ void AnimFootStep2Evt()</text>
<text text-anchor="start" x="929.91" y="-200.5" font-family="Helvetica,sans-Serif" font-size="10.00">~ void OnEnable()</text>
<text text-anchor="start" x="929.91" y="-189.5" font-family="Helvetica,sans-Serif" font-size="10.00">~ void OnDisable()</text>
</a>
</g>
</g>
<!-- Node2&#45;&gt;Node14 -->
<g id="edge15" class="edge">
<title>Node2&#45;&gt;Node14</title>
<path fill="none" stroke="midnightblue" d="M637.77,-676.78C648.47,-587.34 676.93,-368.2 701.41,-346 736.27,-314.38 869.23,-346.71 912.41,-328 915.5,-326.66 918.54,-325.16 921.54,-323.51"/>
<polygon fill="none" stroke="midnightblue" points="634.29,-676.43 636.59,-686.77 641.24,-677.25 634.29,-676.43"/>
</g>
<!-- Node15 -->
<g id="node15" class="node">
<title>Node15</title>
<g id="a_node15"><a xlink:href="class_player_1_1_player_movement_controller.html" target="_top" xlink:title=" ">
<polygon fill="none" stroke="black" points="911.91,-433.5 911.91,-600.5 1072.91,-600.5 1072.91,-433.5 911.91,-433.5"/>
<text text-anchor="middle" x="992.41" y="-588.5" font-family="Helvetica,sans-Serif" font-size="10.00">Player.PlayerMovementController</text>
<polyline fill="none" stroke="black" points="911.91,-581.5 1072.91,-581.5 "/>
<text text-anchor="middle" x="992.41" y="-569.5" font-family="Helvetica,sans-Serif" font-size="10.00"> </text>
<polyline fill="none" stroke="black" points="911.91,-562.5 1072.91,-562.5 "/>
<text text-anchor="start" x="919.91" y="-550.5" font-family="Helvetica,sans-Serif" font-size="10.00">+ void Move(float moveH,</text>
<text text-anchor="start" x="919.91" y="-539.5" font-family="Helvetica,sans-Serif" font-size="10.00"> float moveV, bool crouch,</text>
<text text-anchor="start" x="919.91" y="-528.5" font-family="Helvetica,sans-Serif" font-size="10.00"> bool jump, bool roll, bool</text>
<text text-anchor="start" x="919.91" y="-517.5" font-family="Helvetica,sans-Serif" font-size="10.00"> attacking)</text>
<text text-anchor="start" x="919.91" y="-506.5" font-family="Helvetica,sans-Serif" font-size="10.00">+ bool IsFacingRight()</text>
<text text-anchor="start" x="919.91" y="-495.5" font-family="Helvetica,sans-Serif" font-size="10.00">+ void EnableFlip()</text>
<text text-anchor="start" x="919.91" y="-484.5" font-family="Helvetica,sans-Serif" font-size="10.00">+ void DisableFlip()</text>
<text text-anchor="start" x="919.91" y="-473.5" font-family="Helvetica,sans-Serif" font-size="10.00">~ void AttackMovement</text>
<text text-anchor="start" x="919.91" y="-462.5" font-family="Helvetica,sans-Serif" font-size="10.00">(int power)</text>
<text text-anchor="start" x="919.91" y="-451.5" font-family="Helvetica,sans-Serif" font-size="10.00">~ void PrepareRespawn</text>
<text text-anchor="start" x="919.91" y="-440.5" font-family="Helvetica,sans-Serif" font-size="10.00">(Transform SpawnPoint)</text>
</a>
</g>
</g>
<!-- Node2&#45;&gt;Node15 -->
<g id="edge17" class="edge">
<title>Node2&#45;&gt;Node15</title>
<path fill="none" stroke="midnightblue" d="M684.07,-683.99C720.2,-663.28 770.5,-636.59 817.41,-619 849.1,-607.12 861.13,-616.13 891.41,-601 898.31,-597.55 905.17,-593.56 911.86,-589.22"/>
<polygon fill="none" stroke="midnightblue" points="682.11,-681.08 675.2,-689.11 685.61,-687.14 682.11,-681.08"/>
</g>
<!-- Node3 -->
<g id="node3" class="node">
<title>Node3</title>
<g id="a_node3"><a xlink:href="interface_controllers_1_1_i_damageable.html" target="_top" xlink:title=" ">
<polygon fill="none" stroke="black" points="47.41,-221 47.41,-289 187.41,-289 187.41,-221 47.41,-221"/>
<text text-anchor="middle" x="117.41" y="-277" font-family="Helvetica,sans-Serif" font-size="10.00">IDamageable</text>
<polyline fill="none" stroke="black" points="47.41,-270 187.41,-270 "/>
<text text-anchor="middle" x="117.41" y="-258" font-family="Helvetica,sans-Serif" font-size="10.00"> </text>
<polyline fill="none" stroke="black" points="47.41,-251 187.41,-251 "/>
<text text-anchor="start" x="55.41" y="-239" font-family="Helvetica,sans-Serif" font-size="10.00">+ void Damage(float amount,</text>
<text text-anchor="start" x="55.41" y="-228" font-family="Helvetica,sans-Serif" font-size="10.00"> int attackN)</text>
</a>
</g>
</g>
<!-- Node3&#45;&gt;Node1 -->
<g id="edge2" class="edge">
<title>Node3&#45;&gt;Node1</title>
<path fill="none" stroke="midnightblue" d="M156.57,-213.91C183.58,-188.87 221.66,-158.37 261.41,-142 348.89,-105.97 456.2,-84.42 526.11,-73.14"/>
<polygon fill="none" stroke="midnightblue" points="154.13,-211.4 149.26,-220.81 158.93,-216.5 154.13,-211.4"/>
</g>
<!-- Node4 -->
<g id="node4" class="node">
<title>Node4</title>
<g id="a_node4"><a xlink:title=" ">
<polygon fill="none" stroke="#bfbfbf" points="205.91,-226.5 205.91,-283.5 290.91,-283.5 290.91,-226.5 205.91,-226.5"/>
<text text-anchor="middle" x="248.41" y="-271.5" font-family="Helvetica,sans-Serif" font-size="10.00">ECharacterKind</text>
<polyline fill="none" stroke="#bfbfbf" points="205.91,-264.5 290.91,-264.5 "/>
<text text-anchor="middle" x="248.41" y="-252.5" font-family="Helvetica,sans-Serif" font-size="10.00"> </text>
<polyline fill="none" stroke="#bfbfbf" points="205.91,-245.5 290.91,-245.5 "/>
<text text-anchor="middle" x="248.41" y="-233.5" font-family="Helvetica,sans-Serif" font-size="10.00"> </text>
</a>
</g>
</g>
<!-- Node4&#45;&gt;Node1 -->
<g id="edge3" class="edge">
<title>Node4&#45;&gt;Node1</title>
<path fill="none" stroke="#404040" d="M248.58,-226.13C250.27,-200.73 256.85,-163.94 279.41,-142 312.55,-109.78 431.3,-86.76 514.42,-74.17"/>
<polygon fill="none" stroke="#404040" points="514.54,-74.15 519.88,-69.31 526.41,-72.38 521.06,-77.22 514.54,-74.15"/>
<text text-anchor="middle" x="313.91" y="-150.5" font-family="Helvetica,sans-Serif" font-size="10.00"> #characterKind</text>
</g>
<!-- Node5 -->
<g id="node5" class="node">
<title>Node5</title>
<g id="a_node5"><a xlink:title=" ">
<polygon fill="none" stroke="#bfbfbf" points="308.91,-226.5 308.91,-283.5 379.91,-283.5 379.91,-226.5 308.91,-226.5"/>
<text text-anchor="middle" x="344.41" y="-271.5" font-family="Helvetica,sans-Serif" font-size="10.00">Rigidbody2D</text>
<polyline fill="none" stroke="#bfbfbf" points="308.91,-264.5 379.91,-264.5 "/>
<text text-anchor="middle" x="344.41" y="-252.5" font-family="Helvetica,sans-Serif" font-size="10.00"> </text>
<polyline fill="none" stroke="#bfbfbf" points="308.91,-245.5 379.91,-245.5 "/>
<text text-anchor="middle" x="344.41" y="-233.5" font-family="Helvetica,sans-Serif" font-size="10.00"> </text>
</a>
</g>
</g>
<!-- Node5&#45;&gt;Node1 -->
<g id="edge4" class="edge">
<title>Node5&#45;&gt;Node1</title>
<path fill="none" stroke="#404040" d="M342.25,-226.27C341.84,-201.32 345.3,-165.15 365.41,-142 402.64,-99.15 463.94,-79.49 514.46,-70.5"/>
<polygon fill="none" stroke="#404040" points="514.55,-70.48 519.82,-65.56 526.39,-68.53 521.12,-73.45 514.55,-70.48"/>
<text text-anchor="middle" x="389.41" y="-150.5" font-family="Helvetica,sans-Serif" font-size="10.00"> #RigidBdy</text>
</g>
<!-- Node6 -->
<g id="node6" class="node">
<title>Node6</title>
<g id="a_node6"><a xlink:title=" ">
<polygon fill="none" stroke="#bfbfbf" points="398.41,-226.5 398.41,-283.5 454.41,-283.5 454.41,-226.5 398.41,-226.5"/>
<text text-anchor="middle" x="426.41" y="-271.5" font-family="Helvetica,sans-Serif" font-size="10.00">Animator</text>
<polyline fill="none" stroke="#bfbfbf" points="398.41,-264.5 454.41,-264.5 "/>
<text text-anchor="middle" x="426.41" y="-252.5" font-family="Helvetica,sans-Serif" font-size="10.00"> </text>
<polyline fill="none" stroke="#bfbfbf" points="398.41,-245.5 454.41,-245.5 "/>
<text text-anchor="middle" x="426.41" y="-233.5" font-family="Helvetica,sans-Serif" font-size="10.00"> </text>
</a>
</g>
</g>
<!-- Node6&#45;&gt;Node1 -->
<g id="edge5" class="edge">
<title>Node6&#45;&gt;Node1</title>
<path fill="none" stroke="#404040" d="M418.91,-226.33C414.04,-202.1 411.24,-166.97 427.41,-142 447.06,-111.65 481.59,-92.8 514.58,-81.16"/>
<polygon fill="none" stroke="#404040" points="514.77,-81.1 519.21,-75.42 526.16,-77.34 521.72,-83.02 514.77,-81.1"/>
<text text-anchor="middle" x="471.41" y="-150.5" font-family="Helvetica,sans-Serif" font-size="10.00"> #characterAnimator</text>
</g>
<!-- Node7 -->
<g id="node7" class="node">
<title>Node7</title>
<g id="a_node7"><a xlink:title=" ">
<polygon fill="none" stroke="#bfbfbf" points="472.91,-226.5 472.91,-283.5 543.91,-283.5 543.91,-226.5 472.91,-226.5"/>
<text text-anchor="middle" x="508.41" y="-271.5" font-family="Helvetica,sans-Serif" font-size="10.00">GameObject</text>
<polyline fill="none" stroke="#bfbfbf" points="472.91,-264.5 543.91,-264.5 "/>
<text text-anchor="middle" x="508.41" y="-252.5" font-family="Helvetica,sans-Serif" font-size="10.00"> </text>
<polyline fill="none" stroke="#bfbfbf" points="472.91,-245.5 543.91,-245.5 "/>
<text text-anchor="middle" x="508.41" y="-233.5" font-family="Helvetica,sans-Serif" font-size="10.00"> </text>
</a>
</g>
</g>
<!-- Node7&#45;&gt;Node1 -->
<g id="edge6" class="edge">
<title>Node7&#45;&gt;Node1</title>
<path fill="none" stroke="#404040" d="M508.79,-226.44C510.1,-202.93 514.36,-168.77 527.41,-142 528.76,-139.23 530.24,-136.48 531.83,-133.77"/>
<polygon fill="none" stroke="#404040" points="531.94,-133.6 531.81,-126.39 538.42,-123.51 538.54,-130.72 531.94,-133.6"/>
<text text-anchor="middle" x="556.41" y="-150.5" font-family="Helvetica,sans-Serif" font-size="10.00"> #hitParticles</text>
</g>
<!-- Node8&#45;&gt;Node1 -->
<g id="edge7" class="edge">
<title>Node8&#45;&gt;Node1</title>
<path fill="none" stroke="#404040" d="M587.74,-346.3C589.32,-307.06 592.03,-239.77 594.41,-182 595.03,-167 595.7,-150.94 596.34,-135.63"/>
<polygon fill="none" stroke="#404040" points="596.35,-135.53 592.6,-129.36 596.85,-123.54 600.59,-129.7 596.35,-135.53"/>
<text text-anchor="middle" x="651.91" y="-252.5" font-family="Helvetica,sans-Serif" font-size="10.00"> #baseMovementController</text>
</g>
<!-- Node9 -->
<g id="node9" class="node">
<title>Node9</title>
<g id="a_node9"><a xlink:title=" ">
<polygon fill="none" stroke="#bfbfbf" points="1292.91,-687 1292.91,-744 1327.91,-744 1327.91,-687 1292.91,-687"/>
<text text-anchor="middle" x="1310.41" y="-732" font-family="Helvetica,sans-Serif" font-size="10.00">float</text>
<polyline fill="none" stroke="#bfbfbf" points="1292.91,-725 1327.91,-725 "/>
<text text-anchor="middle" x="1310.41" y="-713" font-family="Helvetica,sans-Serif" font-size="10.00"> </text>
<polyline fill="none" stroke="#bfbfbf" points="1292.91,-706 1327.91,-706 "/>
<text text-anchor="middle" x="1310.41" y="-694" font-family="Helvetica,sans-Serif" font-size="10.00"> </text>
</a>
</g>
</g>
<!-- Node9&#45;&gt;Node1 -->
<g id="edge9" class="edge">
<title>Node9&#45;&gt;Node1</title>
<path fill="none" stroke="#404040" d="M1327.93,-697.17C1347.54,-676.42 1378.17,-639.61 1390.41,-601 1412.97,-529.82 1416.7,-502.89 1390.41,-433 1329.87,-272.05 1286.42,-224.26 1135.41,-142 1059.44,-100.62 815.92,-77.92 684.85,-68.42"/>
<polygon fill="none" stroke="#404040" points="684.49,-68.39 678.23,-71.96 672.52,-67.54 678.79,-63.98 684.49,-68.39"/>
<text text-anchor="middle" x="1410.91" y="-378" font-family="Helvetica,sans-Serif" font-size="10.00"> #maxHealth</text>
</g>
<!-- Node9&#45;&gt;Node14 -->
<g id="edge24" class="edge">
<title>Node9&#45;&gt;Node14</title>
<path fill="none" stroke="#404040" d="M1309.97,-686.78C1308.8,-667.18 1305.46,-640.64 1296.41,-619 1237.78,-478.76 1192.59,-458.54 1090.41,-346 1086.36,-341.54 1079.9,-335.17 1072.17,-327.84"/>
<polygon fill="none" stroke="#404040" points="1072.09,-327.77 1064.98,-326.58 1063.34,-319.56 1070.45,-320.75 1072.09,-327.77"/>
<text text-anchor="middle" x="1337.41" y="-514.5" font-family="Helvetica,sans-Serif" font-size="10.00"> +NextAttackMaxTime</text>
</g>
<!-- Node9&#45;&gt;Node15 -->
<g id="edge21" class="edge">
<title>Node9&#45;&gt;Node15</title>
<path fill="none" stroke="#404040" d="M1292.62,-709.52C1269.22,-702.28 1227.76,-687.05 1199.41,-663 1181.36,-647.69 1186.8,-635.05 1169.41,-619 1144.41,-595.92 1113.2,-575.92 1083.99,-559.95"/>
<polygon fill="none" stroke="#404040" points="1083.91,-559.91 1076.74,-560.61 1073.33,-554.25 1080.51,-553.55 1083.91,-559.91"/>
<text text-anchor="middle" x="1247.91" y="-655" font-family="Helvetica,sans-Serif" font-size="10.00"> +LedgeClimbXOffset1</text>
<text text-anchor="middle" x="1247.91" y="-644" font-family="Helvetica,sans-Serif" font-size="10.00">+LedgeClimbXOffset2</text>
<text text-anchor="middle" x="1247.91" y="-633" font-family="Helvetica,sans-Serif" font-size="10.00">+LedgeClimbYOffset1</text>
<text text-anchor="middle" x="1247.91" y="-622" font-family="Helvetica,sans-Serif" font-size="10.00">+LedgeClimbYOffset2</text>
</g>
<!-- Node10 -->
<g id="node10" class="node">
<title>Node10</title>
<g id="a_node10"><a xlink:title=" ">
<polygon fill="none" stroke="#bfbfbf" points="751.41,-226.5 751.41,-283.5 801.41,-283.5 801.41,-226.5 751.41,-226.5"/>
<text text-anchor="middle" x="776.41" y="-271.5" font-family="Helvetica,sans-Serif" font-size="10.00">Vector2</text>
<polyline fill="none" stroke="#bfbfbf" points="751.41,-264.5 801.41,-264.5 "/>
<text text-anchor="middle" x="776.41" y="-252.5" font-family="Helvetica,sans-Serif" font-size="10.00"> </text>
<polyline fill="none" stroke="#bfbfbf" points="751.41,-245.5 801.41,-245.5 "/>
<text text-anchor="middle" x="776.41" y="-233.5" font-family="Helvetica,sans-Serif" font-size="10.00"> </text>
</a>
</g>
</g>
<!-- Node10&#45;&gt;Node1 -->
<g id="edge10" class="edge">
<title>Node10&#45;&gt;Node1</title>
<path fill="none" stroke="#404040" d="M771.53,-226.48C766.03,-202.02 755.01,-166.46 734.41,-142 720.39,-125.35 701.91,-111.39 683.14,-100.05"/>
<polygon fill="none" stroke="#404040" points="683.1,-100.03 675.91,-100.49 672.71,-94.03 679.91,-93.56 683.1,-100.03"/>
<text text-anchor="middle" x="798.41" y="-150.5" font-family="Helvetica,sans-Serif" font-size="10.00"> #moveOnAttackSpeed</text>
</g>
<!-- Node11 -->
<g id="node11" class="node">
<title>Node11</title>
<g id="a_node11"><a xlink:title=" ">
<polygon fill="none" stroke="#bfbfbf" points="819.41,-226.5 819.41,-283.5 903.41,-283.5 903.41,-226.5 819.41,-226.5"/>
<text text-anchor="middle" x="861.41" y="-271.5" font-family="Helvetica,sans-Serif" font-size="10.00">EControllerKind</text>
<polyline fill="none" stroke="#bfbfbf" points="819.41,-264.5 903.41,-264.5 "/>
<text text-anchor="middle" x="861.41" y="-252.5" font-family="Helvetica,sans-Serif" font-size="10.00"> </text>
<polyline fill="none" stroke="#bfbfbf" points="819.41,-245.5 903.41,-245.5 "/>
<text text-anchor="middle" x="861.41" y="-233.5" font-family="Helvetica,sans-Serif" font-size="10.00"> </text>
</a>
</g>
</g>
<!-- Node11&#45;&gt;Node1 -->
<g id="edge11" class="edge">
<title>Node11&#45;&gt;Node1</title>
<path fill="none" stroke="#404040" d="M867.13,-226.49C870.6,-201.7 871.29,-165.62 852.41,-142 812.54,-92.1 741.52,-73.09 684.85,-66.14"/>
<polygon fill="none" stroke="#404040" points="684.56,-66.1 678.16,-69.43 672.63,-64.79 679.03,-61.47 684.56,-66.1"/>
<text text-anchor="middle" x="897.41" y="-150.5" font-family="Helvetica,sans-Serif" font-size="10.00"> #controllerKind</text>
</g>
<!-- Node12 -->
<g id="node12" class="node">
<title>Node12</title>
<g id="a_node12"><a xlink:title=" ">
<polygon fill="none" stroke="#bfbfbf" points="783.91,-687 783.91,-744 818.91,-744 818.91,-687 783.91,-687"/>
<text text-anchor="middle" x="801.41" y="-732" font-family="Helvetica,sans-Serif" font-size="10.00">bool</text>
<polyline fill="none" stroke="#bfbfbf" points="783.91,-725 818.91,-725 "/>
<text text-anchor="middle" x="801.41" y="-713" font-family="Helvetica,sans-Serif" font-size="10.00"> </text>
<polyline fill="none" stroke="#bfbfbf" points="783.91,-706 818.91,-706 "/>
<text text-anchor="middle" x="801.41" y="-694" font-family="Helvetica,sans-Serif" font-size="10.00"> </text>
</a>
</g>
</g>
<!-- Node12&#45;&gt;Node1 -->
<g id="edge12" class="edge">
<title>Node12&#45;&gt;Node1</title>
<path fill="none" stroke="#404040" d="M794.66,-687C781.94,-634.43 754.23,-515.96 737.41,-415 720.27,-312.12 753.16,-276.68 709.41,-182 701.3,-164.45 689.61,-147.74 676.86,-132.69"/>
<polygon fill="none" stroke="#404040" points="676.73,-132.55 669.76,-130.69 668.8,-123.54 675.77,-125.4 676.73,-132.55"/>
<text text-anchor="middle" x="787.41" y="-389" font-family="Helvetica,sans-Serif" font-size="10.00"> #isInvencible</text>
<text text-anchor="middle" x="787.41" y="-378" font-family="Helvetica,sans-Serif" font-size="10.00">#playerFacingDirection</text>
<text text-anchor="middle" x="787.41" y="-367" font-family="Helvetica,sans-Serif" font-size="10.00">#playerOnLeft</text>
</g>
<!-- Node12&#45;&gt;Node14 -->
<g id="edge25" class="edge">
<title>Node12&#45;&gt;Node14</title>
<path fill="none" stroke="#404040" d="M798.7,-686.65C794.78,-634.37 791.78,-519.06 830.41,-433 840.72,-410.04 877.37,-369.33 913.22,-332.74"/>
<polygon fill="none" stroke="#404040" points="913.38,-332.57 914.75,-325.49 921.81,-324.03 920.44,-331.11 913.38,-332.57"/>
<text text-anchor="middle" x="866.91" y="-531" font-family="Helvetica,sans-Serif" font-size="10.00"> ~awaitingAttack</text>
<text text-anchor="middle" x="866.91" y="-520" font-family="Helvetica,sans-Serif" font-size="10.00">~praying</text>
<text text-anchor="middle" x="866.91" y="-509" font-family="Helvetica,sans-Serif" font-size="10.00">~respawning</text>
<text text-anchor="middle" x="866.91" y="-498" font-family="Helvetica,sans-Serif" font-size="10.00">~roll</text>
</g>
<!-- Node12&#45;&gt;Node15 -->
<g id="edge23" class="edge">
<title>Node12&#45;&gt;Node15</title>
<path fill="none" stroke="#404040" d="M811.88,-686.66C821.57,-662.12 836,-628.8 846.41,-619 862.09,-604.23 872.87,-611.97 891.41,-601 894.83,-598.98 898.25,-596.84 901.66,-594.62"/>
<polygon fill="none" stroke="#404040" points="901.91,-594.46 904.63,-587.78 911.84,-587.73 909.12,-594.4 901.91,-594.46"/>
<text text-anchor="middle" x="885.91" y="-649.5" font-family="Helvetica,sans-Serif" font-size="10.00"> ~Grounded</text>
<text text-anchor="middle" x="885.91" y="-638.5" font-family="Helvetica,sans-Serif" font-size="10.00">~IsTouchingLedge</text>
<text text-anchor="middle" x="885.91" y="-627.5" font-family="Helvetica,sans-Serif" font-size="10.00">~IsTouchingWall</text>
</g>
<!-- Node13 -->
<g id="node13" class="node">
<title>Node13</title>
<g id="a_node13"><a xlink:title=" ">
<polygon fill="none" stroke="#bfbfbf" points="1081.41,-226.5 1081.41,-283.5 1153.41,-283.5 1153.41,-226.5 1081.41,-226.5"/>
<text text-anchor="middle" x="1117.41" y="-271.5" font-family="Helvetica,sans-Serif" font-size="10.00">AudioSource</text>
<polyline fill="none" stroke="#bfbfbf" points="1081.41,-264.5 1153.41,-264.5 "/>
<text text-anchor="middle" x="1117.41" y="-252.5" font-family="Helvetica,sans-Serif" font-size="10.00"> </text>
<polyline fill="none" stroke="#bfbfbf" points="1081.41,-245.5 1153.41,-245.5 "/>
<text text-anchor="middle" x="1117.41" y="-233.5" font-family="Helvetica,sans-Serif" font-size="10.00"> </text>
</a>
</g>
</g>
<!-- Node13&#45;&gt;Node1 -->
<g id="edge13" class="edge">
<title>Node13&#45;&gt;Node1</title>
<path fill="none" stroke="#404040" d="M1105.32,-226.27C1091.97,-199.45 1067.74,-160.27 1033.41,-142 922.72,-83.09 776.1,-67.22 684.78,-63.43"/>
<polygon fill="none" stroke="#404040" points="684.54,-63.42 678.4,-67.2 672.55,-62.98 678.69,-59.21 684.54,-63.42"/>
<text text-anchor="middle" x="1095.91" y="-156" font-family="Helvetica,sans-Serif" font-size="10.00"> #hitAttackSFX1</text>
<text text-anchor="middle" x="1095.91" y="-145" font-family="Helvetica,sans-Serif" font-size="10.00">#hitAttackSFX2</text>
</g>
<!-- Node14&#45;&gt;Node1 -->
<g id="edge14" class="edge">
<title>Node14&#45;&gt;Node1</title>
<path fill="none" stroke="#404040" d="M967.63,-182.39C959.45,-167.2 948.88,-152.57 935.41,-142 863.67,-85.69 758.47,-68.41 684.96,-63.66"/>
<polygon fill="none" stroke="#404040" points="684.51,-63.63 678.29,-67.29 672.53,-62.95 678.74,-59.3 684.51,-63.63"/>
<text text-anchor="middle" x="991.41" y="-150.5" font-family="Helvetica,sans-Serif" font-size="10.00"> #playerController</text>
</g>
<!-- Node15&#45;&gt;Node14 -->
<g id="edge16" class="edge">
<title>Node15&#45;&gt;Node14</title>
<path fill="none" stroke="#404040" d="M992.41,-433.38C992.41,-403.58 992.41,-369.94 992.41,-340.02"/>
<polygon fill="none" stroke="#404040" points="992.41,-339.89 988.41,-333.89 992.41,-327.89 996.41,-333.89 992.41,-339.89"/>
<text text-anchor="middle" x="1039.41" y="-378" font-family="Helvetica,sans-Serif" font-size="10.00"> #playerMovementCtrl</text>
</g>
<!-- Node16 -->
<g id="node16" class="node">
<title>Node16</title>
<g id="a_node16"><a xlink:href="class_player_1_1_player_movement_controller_1_1_bool_event.html" target="_top" xlink:title=" ">
<polygon fill="none" stroke="black" points="837.41,-681.5 837.41,-749.5 1001.41,-749.5 1001.41,-681.5 837.41,-681.5"/>
<text text-anchor="start" x="845.41" y="-737.5" font-family="Helvetica,sans-Serif" font-size="10.00">Player.PlayerMovementController.</text>
<text text-anchor="middle" x="919.41" y="-726.5" font-family="Helvetica,sans-Serif" font-size="10.00">BoolEvent</text>
<polyline fill="none" stroke="black" points="837.41,-719.5 1001.41,-719.5 "/>
<text text-anchor="middle" x="919.41" y="-707.5" font-family="Helvetica,sans-Serif" font-size="10.00"> </text>
<polyline fill="none" stroke="black" points="837.41,-700.5 1001.41,-700.5 "/>
<text text-anchor="middle" x="919.41" y="-688.5" font-family="Helvetica,sans-Serif" font-size="10.00"> </text>
</a>
</g>
</g>
<!-- Node16&#45;&gt;Node15 -->
<g id="edge18" class="edge">
<title>Node16&#45;&gt;Node15</title>
<path fill="none" stroke="#404040" d="M925.51,-681.26C929.4,-662.65 935.08,-639.2 942.41,-619 943.27,-616.63 944.17,-614.24 945.11,-611.84"/>
<polygon fill="none" stroke="#404040" points="945.17,-611.69 943.73,-604.62 949.7,-600.58 951.14,-607.65 945.17,-611.69"/>
<text text-anchor="middle" x="980.91" y="-638.5" font-family="Helvetica,sans-Serif" font-size="10.00"> +OnCrouchEvent</text>
</g>
<!-- Node17 -->
<g id="node17" class="node">
<title>Node17</title>
<g id="a_node17"><a xlink:title=" ">
<polygon fill="none" stroke="#bfbfbf" points="869.91,-787.5 869.91,-844.5 968.91,-844.5 968.91,-787.5 869.91,-787.5"/>
<text text-anchor="middle" x="919.41" y="-832.5" font-family="Helvetica,sans-Serif" font-size="10.00">UnityEvent&lt; bool &gt;</text>
<polyline fill="none" stroke="#bfbfbf" points="869.91,-825.5 968.91,-825.5 "/>
<text text-anchor="middle" x="919.41" y="-813.5" font-family="Helvetica,sans-Serif" font-size="10.00"> </text>
<polyline fill="none" stroke="#bfbfbf" points="869.91,-806.5 968.91,-806.5 "/>
<text text-anchor="middle" x="919.41" y="-794.5" font-family="Helvetica,sans-Serif" font-size="10.00"> </text>
</a>
</g>
</g>
<!-- Node17&#45;&gt;Node16 -->
<g id="edge19" class="edge">
<title>Node17&#45;&gt;Node16</title>
<path fill="none" stroke="midnightblue" d="M919.41,-777.01C919.41,-767.96 919.41,-758.38 919.41,-749.58"/>
<polygon fill="none" stroke="midnightblue" points="915.91,-777.3 919.41,-787.3 922.91,-777.3 915.91,-777.3"/>
</g>
<!-- Node18 -->
<g id="node18" class="node">
<title>Node18</title>
<g id="a_node18"><a xlink:title=" ">
<polygon fill="none" stroke="#bfbfbf" points="1019.91,-687 1019.91,-744 1082.91,-744 1082.91,-687 1019.91,-687"/>
<text text-anchor="middle" x="1051.41" y="-732" font-family="Helvetica,sans-Serif" font-size="10.00">UnityEvent</text>
<polyline fill="none" stroke="#bfbfbf" points="1019.91,-725 1082.91,-725 "/>
<text text-anchor="middle" x="1051.41" y="-713" font-family="Helvetica,sans-Serif" font-size="10.00"> </text>
<polyline fill="none" stroke="#bfbfbf" points="1019.91,-706 1082.91,-706 "/>
<text text-anchor="middle" x="1051.41" y="-694" font-family="Helvetica,sans-Serif" font-size="10.00"> </text>
</a>
</g>
</g>
<!-- Node18&#45;&gt;Node15 -->
<g id="edge20" class="edge">
<title>Node18&#45;&gt;Node15</title>
<path fill="none" stroke="#404040" d="M1043.08,-686.76C1037.19,-667.14 1028.92,-639.58 1020.76,-612.42"/>
<polygon fill="none" stroke="#404040" points="1020.73,-612.32 1015.17,-607.72 1017.28,-600.82 1022.83,-605.42 1020.73,-612.32"/>
<text text-anchor="middle" x="1067.41" y="-644" font-family="Helvetica,sans-Serif" font-size="10.00"> +OnAirEvent</text>
<text text-anchor="middle" x="1067.41" y="-633" font-family="Helvetica,sans-Serif" font-size="10.00">+OnLandEvent</text>
</g>
<!-- Node19 -->
<g id="node19" class="node">
<title>Node19</title>
<g id="a_node19"><a xlink:title=" ">
<polygon fill="none" stroke="#bfbfbf" points="1105.41,-687 1105.41,-744 1155.41,-744 1155.41,-687 1105.41,-687"/>
<text text-anchor="middle" x="1130.41" y="-732" font-family="Helvetica,sans-Serif" font-size="10.00">Vector3</text>
<polyline fill="none" stroke="#bfbfbf" points="1105.41,-725 1155.41,-725 "/>
<text text-anchor="middle" x="1130.41" y="-713" font-family="Helvetica,sans-Serif" font-size="10.00"> </text>
<polyline fill="none" stroke="#bfbfbf" points="1105.41,-706 1155.41,-706 "/>
<text text-anchor="middle" x="1130.41" y="-694" font-family="Helvetica,sans-Serif" font-size="10.00"> </text>
</a>
</g>
</g>
<!-- Node19&#45;&gt;Node15 -->
<g id="edge22" class="edge">
<title>Node19&#45;&gt;Node15</title>
<path fill="none" stroke="#404040" d="M1126.77,-686.93C1123.18,-666.91 1116.28,-639.81 1103.41,-619 1097.14,-608.86 1089.56,-599.12 1081.35,-589.96"/>
<polygon fill="none" stroke="#404040" points="1081.16,-589.76 1074.14,-588.12 1072.95,-581 1079.97,-582.64 1081.16,-589.76"/>
<text text-anchor="middle" x="1142.91" y="-638.5" font-family="Helvetica,sans-Serif" font-size="10.00"> ~Velocity</text>
</g>
</g>
</svg>
