<?xml version="1.0" encoding="UTF-8" standalone="no"?>
<!DOCTYPE svg PUBLIC "-//W3C//DTD SVG 1.1//EN"
 "http://www.w3.org/Graphics/SVG/1.1/DTD/svg11.dtd">
<!-- Generated by graphviz version 2.48.0 (20210717.1556)
 -->
<!-- Title: Controllers.StateMachine.States.Data.ControllerData Pages: 1 -->
<svg width="335pt" height="226pt"
 viewBox="0.00 0.00 334.50 226.00" xmlns="http://www.w3.org/2000/svg" xmlns:xlink="http://www.w3.org/1999/xlink">
<g id="graph0" class="graph" transform="scale(1 1) rotate(0) translate(4 222)">
<title>Controllers.StateMachine.States.Data.ControllerData</title>
<!-- Node1 -->
<g id="node1" class="node">
<title>Node1</title>
<g id="a_node1"><a xlink:title=" ">
<polygon fill="#bfbfbf" stroke="black" points="58,-0.5 58,-68.5 191,-68.5 191,-0.5 58,-0.5"/>
<text text-anchor="start" x="66" y="-56.5" font-family="Helvetica,sans-Serif" font-size="10.00">Controllers.StateMachine.</text>
<text text-anchor="middle" x="124.5" y="-45.5" font-family="Helvetica,sans-Serif" font-size="10.00">States.Data.ControllerData</text>
<polyline fill="none" stroke="black" points="58,-38.5 191,-38.5 "/>
<text text-anchor="middle" x="124.5" y="-26.5" font-family="Helvetica,sans-Serif" font-size="10.00"> </text>
<polyline fill="none" stroke="black" points="58,-19.5 191,-19.5 "/>
<text text-anchor="middle" x="124.5" y="-7.5" font-family="Helvetica,sans-Serif" font-size="10.00"> </text>
</a>
</g>
</g>
<!-- Node2 -->
<g id="node2" class="node">
<title>Node2</title>
<g id="a_node2"><a xlink:href="class_scriptable_object.html" target="_top" xlink:title=" ">
<polygon fill="none" stroke="black" points="0,-160.5 0,-217.5 89,-217.5 89,-160.5 0,-160.5"/>
<text text-anchor="middle" x="44.5" y="-205.5" font-family="Helvetica,sans-Serif" font-size="10.00">ScriptableObject</text>
<polyline fill="none" stroke="black" points="0,-198.5 89,-198.5 "/>
<text text-anchor="middle" x="44.5" y="-186.5" font-family="Helvetica,sans-Serif" font-size="10.00"> </text>
<polyline fill="none" stroke="black" points="0,-179.5 89,-179.5 "/>
<text text-anchor="middle" x="44.5" y="-167.5" font-family="Helvetica,sans-Serif" font-size="10.00"> </text>
</a>
</g>
</g>
<!-- Node2&#45;&gt;Node1 -->
<g id="edge1" class="edge">
<title>Node2&#45;&gt;Node1</title>
<path fill="none" stroke="midnightblue" d="M63.64,-151.51C76.84,-126.35 94.24,-93.18 107.05,-68.76"/>
<polygon fill="none" stroke="midnightblue" points="60.53,-149.9 58.99,-160.38 66.73,-153.15 60.53,-149.9"/>
</g>
<!-- Node3 -->
<g id="node3" class="node">
<title>Node3</title>
<g id="a_node3"><a xlink:title=" ">
<polygon fill="none" stroke="#bfbfbf" points="107,-160.5 107,-217.5 142,-217.5 142,-160.5 107,-160.5"/>
<text text-anchor="middle" x="124.5" y="-205.5" font-family="Helvetica,sans-Serif" font-size="10.00">float</text>
<polyline fill="none" stroke="#bfbfbf" points="107,-198.5 142,-198.5 "/>
<text text-anchor="middle" x="124.5" y="-186.5" font-family="Helvetica,sans-Serif" font-size="10.00"> </text>
<polyline fill="none" stroke="#bfbfbf" points="107,-179.5 142,-179.5 "/>
<text text-anchor="middle" x="124.5" y="-167.5" font-family="Helvetica,sans-Serif" font-size="10.00"> </text>
</a>
</g>
</g>
<!-- Node3&#45;&gt;Node1 -->
<g id="edge2" class="edge">
<title>Node3&#45;&gt;Node1</title>
<path fill="none" stroke="#404040" d="M124.5,-160.38C124.5,-138.25 124.5,-106.75 124.5,-80.92"/>
<polygon fill="none" stroke="#404040" points="124.5,-80.76 120.5,-74.76 124.5,-68.76 128.5,-74.76 124.5,-80.76"/>
<text text-anchor="middle" x="180.5" y="-134" font-family="Helvetica,sans-Serif" font-size="10.00"> +groundCheckDistance</text>
<text text-anchor="middle" x="180.5" y="-123" font-family="Helvetica,sans-Serif" font-size="10.00">+ledgeCheckDistacne</text>
<text text-anchor="middle" x="180.5" y="-112" font-family="Helvetica,sans-Serif" font-size="10.00">+playerDetectionDistance</text>
<text text-anchor="middle" x="180.5" y="-101" font-family="Helvetica,sans-Serif" font-size="10.00">+topCheckDistance</text>
<text text-anchor="middle" x="180.5" y="-90" font-family="Helvetica,sans-Serif" font-size="10.00">+wallCheckDistance</text>
</g>
<!-- Node4 -->
<g id="node4" class="node">
<title>Node4</title>
<g id="a_node4"><a xlink:title=" ">
<polygon fill="none" stroke="#bfbfbf" points="227,-160.5 227,-217.5 292,-217.5 292,-160.5 227,-160.5"/>
<text text-anchor="middle" x="259.5" y="-205.5" font-family="Helvetica,sans-Serif" font-size="10.00">LayerMask</text>
<polyline fill="none" stroke="#bfbfbf" points="227,-198.5 292,-198.5 "/>
<text text-anchor="middle" x="259.5" y="-186.5" font-family="Helvetica,sans-Serif" font-size="10.00"> </text>
<polyline fill="none" stroke="#bfbfbf" points="227,-179.5 292,-179.5 "/>
<text text-anchor="middle" x="259.5" y="-167.5" font-family="Helvetica,sans-Serif" font-size="10.00"> </text>
</a>
</g>
</g>
<!-- Node4&#45;&gt;Node1 -->
<g id="edge3" class="edge">
<title>Node4&#45;&gt;Node1</title>
<path fill="none" stroke="#404040" d="M259.96,-160.28C258.92,-138.2 254.18,-107.67 237.5,-87 228.1,-75.35 215.49,-66.23 202.09,-59.12"/>
<polygon fill="none" stroke="#404040" points="202.03,-59.09 194.88,-60.07 191.23,-53.85 198.38,-52.87 202.03,-59.09"/>
<text text-anchor="middle" x="292" y="-112" font-family="Helvetica,sans-Serif" font-size="10.00"> +whatIsGround</text>
</g>
</g>
</svg>
