<?xml version="1.0" encoding="UTF-8" standalone="no"?>
<!DOCTYPE svg PUBLIC "-//W3C//DTD SVG 1.1//EN"
 "http://www.w3.org/Graphics/SVG/1.1/DTD/svg11.dtd">
<!-- Generated by graphviz version 2.48.0 (20210717.1556)
 -->
<!-- Title: Controllers.NjordController Pages: 1 -->
<svg width="1322pt" height="1141pt"
 viewBox="0.00 0.00 1321.65 1141.00" xmlns="http://www.w3.org/2000/svg" xmlns:xlink="http://www.w3.org/1999/xlink">
<g id="graph0" class="graph" transform="scale(1 1) rotate(0) translate(4 1137)">
<title>Controllers.NjordController</title>
<!-- Node1 -->
<g id="node1" class="node">
<title>Node1</title>
<g id="a_node1"><a xlink:title=" ">
<polygon fill="#bfbfbf" stroke="black" points="489.65,-0.5 489.65,-57.5 619.65,-57.5 619.65,-0.5 489.65,-0.5"/>
<text text-anchor="middle" x="554.65" y="-45.5" font-family="Helvetica,sans-Serif" font-size="10.00">Controllers.NjordController</text>
<polyline fill="none" stroke="black" points="489.65,-38.5 619.65,-38.5 "/>
<text text-anchor="middle" x="554.65" y="-26.5" font-family="Helvetica,sans-Serif" font-size="10.00"> </text>
<polyline fill="none" stroke="black" points="489.65,-19.5 619.65,-19.5 "/>
<text text-anchor="start" x="497.65" y="-7.5" font-family="Helvetica,sans-Serif" font-size="10.00"># override void Start()</text>
</a>
</g>
</g>
<!-- Node2 -->
<g id="node2" class="node">
<title>Node2</title>
<g id="a_node2"><a xlink:href="class_controllers_1_1_base_controller.html" target="_top" xlink:title=" ">
<polygon fill="none" stroke="black" points="468.15,-95.5 468.15,-647.5 641.15,-647.5 641.15,-95.5 468.15,-95.5"/>
<text text-anchor="middle" x="554.65" y="-635.5" font-family="Helvetica,sans-Serif" font-size="10.00">BaseController</text>
<polyline fill="none" stroke="black" points="468.15,-628.5 641.15,-628.5 "/>
<text text-anchor="start" x="476.15" y="-616.5" font-family="Helvetica,sans-Serif" font-size="10.00">+ int FacingDirection</text>
<text text-anchor="start" x="476.15" y="-605.5" font-family="Helvetica,sans-Serif" font-size="10.00">+ bool IsReadyToAttack</text>
<text text-anchor="start" x="476.15" y="-594.5" font-family="Helvetica,sans-Serif" font-size="10.00">+ bool wallDetected</text>
<text text-anchor="start" x="476.15" y="-583.5" font-family="Helvetica,sans-Serif" font-size="10.00">+ bool groundDetected</text>
<text text-anchor="start" x="476.15" y="-572.5" font-family="Helvetica,sans-Serif" font-size="10.00">+ bool topDetected</text>
<polyline fill="none" stroke="black" points="468.15,-565.5 641.15,-565.5 "/>
<text text-anchor="start" x="476.15" y="-553.5" font-family="Helvetica,sans-Serif" font-size="10.00">+ void Flip()</text>
<text text-anchor="start" x="476.15" y="-542.5" font-family="Helvetica,sans-Serif" font-size="10.00">+ void SetVelocity(float</text>
<text text-anchor="start" x="476.15" y="-531.5" font-family="Helvetica,sans-Serif" font-size="10.00"> velocity)</text>
<text text-anchor="start" x="476.15" y="-520.5" font-family="Helvetica,sans-Serif" font-size="10.00">+ void AddForce(Vector2</text>
<text text-anchor="start" x="476.15" y="-509.5" font-family="Helvetica,sans-Serif" font-size="10.00"> newForce, bool isImpulse)</text>
<text text-anchor="start" x="476.15" y="-498.5" font-family="Helvetica,sans-Serif" font-size="10.00">+ void AddTorque(float</text>
<text text-anchor="start" x="476.15" y="-487.5" font-family="Helvetica,sans-Serif" font-size="10.00"> newTorque, bool isImpulse)</text>
<text text-anchor="start" x="476.15" y="-476.5" font-family="Helvetica,sans-Serif" font-size="10.00">+ T GetMovementController</text>
<text text-anchor="start" x="476.15" y="-465.5" font-family="Helvetica,sans-Serif" font-size="10.00">&lt; T &gt;()</text>
<text text-anchor="start" x="476.15" y="-454.5" font-family="Helvetica,sans-Serif" font-size="10.00">+ Animator GetAnimator()</text>
<text text-anchor="start" x="476.15" y="-443.5" font-family="Helvetica,sans-Serif" font-size="10.00">+ Transform GetTransfrom()</text>
<text text-anchor="start" x="476.15" y="-432.5" font-family="Helvetica,sans-Serif" font-size="10.00">+ GameObject GetDialogueBubble()</text>
<text text-anchor="start" x="476.15" y="-421.5" font-family="Helvetica,sans-Serif" font-size="10.00">+ bool CheckWall()</text>
<text text-anchor="start" x="476.15" y="-410.5" font-family="Helvetica,sans-Serif" font-size="10.00">+ bool CheckLedge()</text>
<text text-anchor="start" x="476.15" y="-399.5" font-family="Helvetica,sans-Serif" font-size="10.00">+ bool CheckGround()</text>
<text text-anchor="start" x="476.15" y="-388.5" font-family="Helvetica,sans-Serif" font-size="10.00">+ bool CheckPlayerInRange()</text>
<text text-anchor="start" x="476.15" y="-377.5" font-family="Helvetica,sans-Serif" font-size="10.00">+ void SwitchStates(ECharacter</text>
<text text-anchor="start" x="476.15" y="-366.5" font-family="Helvetica,sans-Serif" font-size="10.00">State nextState)</text>
<text text-anchor="start" x="476.15" y="-355.5" font-family="Helvetica,sans-Serif" font-size="10.00">+ void Anim_PreparingAttack</text>
<text text-anchor="start" x="476.15" y="-344.5" font-family="Helvetica,sans-Serif" font-size="10.00">Finished()</text>
<text text-anchor="start" x="476.15" y="-333.5" font-family="Helvetica,sans-Serif" font-size="10.00">+ virtual void Damage</text>
<text text-anchor="start" x="476.15" y="-322.5" font-family="Helvetica,sans-Serif" font-size="10.00">(float amount, int attackN)</text>
<text text-anchor="start" x="476.15" y="-311.5" font-family="Helvetica,sans-Serif" font-size="10.00">+ void Damage(BaseController</text>
<text text-anchor="start" x="476.15" y="-300.5" font-family="Helvetica,sans-Serif" font-size="10.00"> controller, DamageInfo</text>
<text text-anchor="start" x="476.15" y="-289.5" font-family="Helvetica,sans-Serif" font-size="10.00"> damageInfo)</text>
<text text-anchor="start" x="476.15" y="-278.5" font-family="Helvetica,sans-Serif" font-size="10.00">+ void Kill()</text>
<text text-anchor="start" x="476.15" y="-267.5" font-family="Helvetica,sans-Serif" font-size="10.00">+ bool Interact(BaseController</text>
<text text-anchor="start" x="476.15" y="-256.5" font-family="Helvetica,sans-Serif" font-size="10.00"> controller, EInteractionKind</text>
<text text-anchor="start" x="476.15" y="-245.5" font-family="Helvetica,sans-Serif" font-size="10.00"> interactionKind)</text>
<text text-anchor="start" x="476.15" y="-234.5" font-family="Helvetica,sans-Serif" font-size="10.00">+ bool Interact(PlayerController</text>
<text text-anchor="start" x="476.15" y="-223.5" font-family="Helvetica,sans-Serif" font-size="10.00"> controller, EInteractionKind</text>
<text text-anchor="start" x="476.15" y="-212.5" font-family="Helvetica,sans-Serif" font-size="10.00"> interactionKind)</text>
<text text-anchor="start" x="476.15" y="-201.5" font-family="Helvetica,sans-Serif" font-size="10.00">+ void ReadyToInteract</text>
<text text-anchor="start" x="476.15" y="-190.5" font-family="Helvetica,sans-Serif" font-size="10.00">(PlayerController controller,</text>
<text text-anchor="start" x="476.15" y="-179.5" font-family="Helvetica,sans-Serif" font-size="10.00"> bool isReady)</text>
<text text-anchor="start" x="476.15" y="-168.5" font-family="Helvetica,sans-Serif" font-size="10.00">+ void ReadyToInteract</text>
<text text-anchor="start" x="476.15" y="-157.5" font-family="Helvetica,sans-Serif" font-size="10.00">(BaseController controller,</text>
<text text-anchor="start" x="476.15" y="-146.5" font-family="Helvetica,sans-Serif" font-size="10.00"> bool isReady)</text>
<text text-anchor="start" x="476.15" y="-135.5" font-family="Helvetica,sans-Serif" font-size="10.00"># virtual void Start()</text>
<text text-anchor="start" x="476.15" y="-124.5" font-family="Helvetica,sans-Serif" font-size="10.00"># virtual void OnDrawGizmos()</text>
<text text-anchor="start" x="476.15" y="-113.5" font-family="Helvetica,sans-Serif" font-size="10.00"># virtual void OnEnterDead</text>
<text text-anchor="start" x="476.15" y="-102.5" font-family="Helvetica,sans-Serif" font-size="10.00">StateStart()</text>
</a>
</g>
</g>
<!-- Node2&#45;&gt;Node1 -->
<g id="edge1" class="edge">
<title>Node2&#45;&gt;Node1</title>
<path fill="none" stroke="midnightblue" d="M554.65,-85.06C554.65,-74.76 554.65,-65.52 554.65,-57.68"/>
<polygon fill="none" stroke="midnightblue" points="551.15,-85.25 554.65,-95.25 558.15,-85.25 551.15,-85.25"/>
</g>
<!-- Node3 -->
<g id="node3" class="node">
<title>Node3</title>
<g id="a_node3"><a xlink:href="interface_controllers_1_1_i_damageable.html" target="_top" xlink:title="Interfaz para todos los NPCs/Enemigos/Objetos que pueden ser daniados.">
<polygon fill="none" stroke="black" points="35.65,-1020.5 35.65,-1132.5 183.65,-1132.5 183.65,-1020.5 35.65,-1020.5"/>
<text text-anchor="middle" x="109.65" y="-1120.5" font-family="Helvetica,sans-Serif" font-size="10.00">IDamageable</text>
<polyline fill="none" stroke="black" points="35.65,-1113.5 183.65,-1113.5 "/>
<text text-anchor="middle" x="109.65" y="-1101.5" font-family="Helvetica,sans-Serif" font-size="10.00"> </text>
<polyline fill="none" stroke="black" points="35.65,-1094.5 183.65,-1094.5 "/>
<text text-anchor="start" x="43.65" y="-1082.5" font-family="Helvetica,sans-Serif" font-size="10.00">+ void Damage(float amount,</text>
<text text-anchor="start" x="43.65" y="-1071.5" font-family="Helvetica,sans-Serif" font-size="10.00"> int attackN)</text>
<text text-anchor="start" x="43.65" y="-1060.5" font-family="Helvetica,sans-Serif" font-size="10.00">+ void Damage(BaseController</text>
<text text-anchor="start" x="43.65" y="-1049.5" font-family="Helvetica,sans-Serif" font-size="10.00"> controller, DamageInfo</text>
<text text-anchor="start" x="43.65" y="-1038.5" font-family="Helvetica,sans-Serif" font-size="10.00"> damageInfo)</text>
<text text-anchor="start" x="43.65" y="-1027.5" font-family="Helvetica,sans-Serif" font-size="10.00">+ void Kill()</text>
</a>
</g>
</g>
<!-- Node3&#45;&gt;Node2 -->
<g id="edge2" class="edge">
<title>Node3&#45;&gt;Node2</title>
<path fill="none" stroke="midnightblue" d="M65.56,-1011.31C51.14,-986.7 36.96,-957.63 29.65,-929 3.93,-828.23 -21.12,-785.77 29.65,-695 123.58,-527.07 344.7,-435.91 467.91,-396.54"/>
<polygon fill="none" stroke="midnightblue" points="62.72,-1013.39 70.87,-1020.17 68.73,-1009.8 62.72,-1013.39"/>
</g>
<!-- Node16 -->
<g id="node16" class="node">
<title>Node16</title>
<g id="a_node16"><a xlink:href="class_player_1_1_player_controller.html" target="_top" xlink:title=" ">
<polygon fill="none" stroke="black" points="1008.65,-695.5 1008.65,-928.5 1156.65,-928.5 1156.65,-695.5 1008.65,-695.5"/>
<text text-anchor="middle" x="1082.65" y="-916.5" font-family="Helvetica,sans-Serif" font-size="10.00">Player.PlayerController</text>
<polyline fill="none" stroke="black" points="1008.65,-909.5 1156.65,-909.5 "/>
<text text-anchor="middle" x="1082.65" y="-897.5" font-family="Helvetica,sans-Serif" font-size="10.00"> </text>
<polyline fill="none" stroke="black" points="1008.65,-890.5 1156.65,-890.5 "/>
<text text-anchor="start" x="1016.65" y="-878.5" font-family="Helvetica,sans-Serif" font-size="10.00">+ void Damage(float amount,</text>
<text text-anchor="start" x="1016.65" y="-867.5" font-family="Helvetica,sans-Serif" font-size="10.00"> int attackN)</text>
<text text-anchor="start" x="1016.65" y="-856.5" font-family="Helvetica,sans-Serif" font-size="10.00">+ void Damage(BaseController</text>
<text text-anchor="start" x="1016.65" y="-845.5" font-family="Helvetica,sans-Serif" font-size="10.00"> controller, DamageInfo</text>
<text text-anchor="start" x="1016.65" y="-834.5" font-family="Helvetica,sans-Serif" font-size="10.00"> damageInfo)</text>
<text text-anchor="start" x="1016.65" y="-823.5" font-family="Helvetica,sans-Serif" font-size="10.00">+ void Kill()</text>
<text text-anchor="start" x="1016.65" y="-812.5" font-family="Helvetica,sans-Serif" font-size="10.00">+ void EnterInteractionMode()</text>
<text text-anchor="start" x="1016.65" y="-801.5" font-family="Helvetica,sans-Serif" font-size="10.00">+ int GetFacingDirection()</text>
<text text-anchor="start" x="1016.65" y="-790.5" font-family="Helvetica,sans-Serif" font-size="10.00">+ void LandEvt()</text>
<text text-anchor="start" x="1016.65" y="-779.5" font-family="Helvetica,sans-Serif" font-size="10.00">+ void OnAirEvt()</text>
<text text-anchor="start" x="1016.65" y="-768.5" font-family="Helvetica,sans-Serif" font-size="10.00">+ bool IsFacingRight()</text>
<text text-anchor="start" x="1016.65" y="-757.5" font-family="Helvetica,sans-Serif" font-size="10.00">+ void AnimStartPrayingEvt()</text>
<text text-anchor="start" x="1016.65" y="-746.5" font-family="Helvetica,sans-Serif" font-size="10.00">+ void AnimRollEndEvt()</text>
<text text-anchor="start" x="1016.65" y="-735.5" font-family="Helvetica,sans-Serif" font-size="10.00">+ void AnimFootStep1Evt()</text>
<text text-anchor="start" x="1016.65" y="-724.5" font-family="Helvetica,sans-Serif" font-size="10.00">+ void AnimFootStep2Evt()</text>
<text text-anchor="start" x="1016.65" y="-713.5" font-family="Helvetica,sans-Serif" font-size="10.00">~ void OnEnable()</text>
<text text-anchor="start" x="1016.65" y="-702.5" font-family="Helvetica,sans-Serif" font-size="10.00">~ void OnDisable()</text>
</a>
</g>
</g>
<!-- Node3&#45;&gt;Node16 -->
<g id="edge16" class="edge">
<title>Node3&#45;&gt;Node16</title>
<path fill="none" stroke="midnightblue" d="M193.7,-1051.91C236.74,-1040.66 290.15,-1027.95 338.65,-1020 429.35,-1005.13 456.12,-1026.67 544.65,-1002 598.07,-987.11 602.98,-960.96 656.65,-947 730.52,-927.79 932.71,-965.67 999.65,-929 1002.69,-927.33 1005.65,-925.5 1008.52,-923.53"/>
<polygon fill="none" stroke="midnightblue" points="192.62,-1048.58 183.84,-1054.51 194.41,-1055.35 192.62,-1048.58"/>
</g>
<!-- Node4 -->
<g id="node4" class="node">
<title>Node4</title>
<g id="a_node4"><a xlink:href="interface_interactions_1_1_interfaces_1_1_i_interactive.html" target="_top" xlink:title=" ">
<polygon fill="none" stroke="black" points="39.15,-723 39.15,-901 190.15,-901 190.15,-723 39.15,-723"/>
<text text-anchor="middle" x="114.65" y="-889" font-family="Helvetica,sans-Serif" font-size="10.00">IInteractive</text>
<polyline fill="none" stroke="black" points="39.15,-882 190.15,-882 "/>
<text text-anchor="middle" x="114.65" y="-870" font-family="Helvetica,sans-Serif" font-size="10.00"> </text>
<polyline fill="none" stroke="black" points="39.15,-863 190.15,-863 "/>
<text text-anchor="start" x="47.15" y="-851" font-family="Helvetica,sans-Serif" font-size="10.00">+ bool Interact(BaseController</text>
<text text-anchor="start" x="47.15" y="-840" font-family="Helvetica,sans-Serif" font-size="10.00"> controller, EInteractionKind</text>
<text text-anchor="start" x="47.15" y="-829" font-family="Helvetica,sans-Serif" font-size="10.00"> interactionKind)</text>
<text text-anchor="start" x="47.15" y="-818" font-family="Helvetica,sans-Serif" font-size="10.00">+ bool Interact(PlayerController</text>
<text text-anchor="start" x="47.15" y="-807" font-family="Helvetica,sans-Serif" font-size="10.00"> controller, EInteractionKind</text>
<text text-anchor="start" x="47.15" y="-796" font-family="Helvetica,sans-Serif" font-size="10.00"> interactionKind)</text>
<text text-anchor="start" x="47.15" y="-785" font-family="Helvetica,sans-Serif" font-size="10.00">+ void ReadyToInteract</text>
<text text-anchor="start" x="47.15" y="-774" font-family="Helvetica,sans-Serif" font-size="10.00">(PlayerController controller,</text>
<text text-anchor="start" x="47.15" y="-763" font-family="Helvetica,sans-Serif" font-size="10.00"> bool isReady)</text>
<text text-anchor="start" x="47.15" y="-752" font-family="Helvetica,sans-Serif" font-size="10.00">+ void ReadyToInteract</text>
<text text-anchor="start" x="47.15" y="-741" font-family="Helvetica,sans-Serif" font-size="10.00">(BaseController controller,</text>
<text text-anchor="start" x="47.15" y="-730" font-family="Helvetica,sans-Serif" font-size="10.00"> bool isReady)</text>
</a>
</g>
</g>
<!-- Node4&#45;&gt;Node2 -->
<g id="edge3" class="edge">
<title>Node4&#45;&gt;Node2</title>
<path fill="none" stroke="midnightblue" d="M181.98,-714.67C187.46,-707.88 193.05,-701.26 198.65,-695 283.25,-600.6 392.89,-504.61 468.02,-442.19"/>
<polygon fill="none" stroke="midnightblue" points="179.08,-712.69 175.6,-722.7 184.56,-717.04 179.08,-712.69"/>
</g>
<!-- Node5 -->
<g id="node5" class="node">
<title>Node5</title>
<g id="a_node5"><a xlink:title=" ">
<polygon fill="none" stroke="#bfbfbf" points="208.15,-783.5 208.15,-840.5 279.15,-840.5 279.15,-783.5 208.15,-783.5"/>
<text text-anchor="middle" x="243.65" y="-828.5" font-family="Helvetica,sans-Serif" font-size="10.00">Rigidbody2D</text>
<polyline fill="none" stroke="#bfbfbf" points="208.15,-821.5 279.15,-821.5 "/>
<text text-anchor="middle" x="243.65" y="-809.5" font-family="Helvetica,sans-Serif" font-size="10.00"> </text>
<polyline fill="none" stroke="#bfbfbf" points="208.15,-802.5 279.15,-802.5 "/>
<text text-anchor="middle" x="243.65" y="-790.5" font-family="Helvetica,sans-Serif" font-size="10.00"> </text>
</a>
</g>
</g>
<!-- Node5&#45;&gt;Node2 -->
<g id="edge4" class="edge">
<title>Node5&#45;&gt;Node2</title>
<path fill="none" stroke="#404040" d="M252.62,-783.1C260.76,-759.15 273.73,-724.01 288.65,-695 332.71,-609.34 402.58,-525.82 459.66,-465.24"/>
<polygon fill="none" stroke="#404040" points="459.72,-465.17 460.95,-458.07 467.98,-456.47 466.75,-463.57 459.72,-465.17"/>
<text text-anchor="middle" x="329.65" y="-669" font-family="Helvetica,sans-Serif" font-size="10.00"> #rigidbody2D</text>
</g>
<!-- Node6 -->
<g id="node6" class="node">
<title>Node6</title>
<g id="a_node6"><a xlink:title=" ">
<polygon fill="none" stroke="#bfbfbf" points="297.65,-783.5 297.65,-840.5 353.65,-840.5 353.65,-783.5 297.65,-783.5"/>
<text text-anchor="middle" x="325.65" y="-828.5" font-family="Helvetica,sans-Serif" font-size="10.00">Animator</text>
<polyline fill="none" stroke="#bfbfbf" points="297.65,-821.5 353.65,-821.5 "/>
<text text-anchor="middle" x="325.65" y="-809.5" font-family="Helvetica,sans-Serif" font-size="10.00"> </text>
<polyline fill="none" stroke="#bfbfbf" points="297.65,-802.5 353.65,-802.5 "/>
<text text-anchor="middle" x="325.65" y="-790.5" font-family="Helvetica,sans-Serif" font-size="10.00"> </text>
</a>
</g>
</g>
<!-- Node6&#45;&gt;Node2 -->
<g id="edge5" class="edge">
<title>Node6&#45;&gt;Node2</title>
<path fill="none" stroke="#404040" d="M332.92,-783.17C339.59,-759.27 350.44,-724.14 363.65,-695 391.42,-633.75 427.89,-569.4 461.52,-514.43"/>
<polygon fill="none" stroke="#404040" points="461.69,-514.15 461.43,-506.94 467.98,-503.93 468.24,-511.13 461.69,-514.15"/>
<text text-anchor="middle" x="419.65" y="-669" font-family="Helvetica,sans-Serif" font-size="10.00"> #characterAnimator</text>
</g>
<!-- Node7 -->
<g id="node7" class="node">
<title>Node7</title>
<g id="a_node7"><a xlink:href="class_controllers_1_1_state_machine_1_1_states_1_1_data_1_1_controller_data.html" target="_top" xlink:title=" ">
<polygon fill="none" stroke="black" points="372.15,-778 372.15,-846 505.15,-846 505.15,-778 372.15,-778"/>
<text text-anchor="start" x="380.15" y="-834" font-family="Helvetica,sans-Serif" font-size="10.00">Controllers.StateMachine.</text>
<text text-anchor="middle" x="438.65" y="-823" font-family="Helvetica,sans-Serif" font-size="10.00">States.Data.ControllerData</text>
<polyline fill="none" stroke="black" points="372.15,-816 505.15,-816 "/>
<text text-anchor="middle" x="438.65" y="-804" font-family="Helvetica,sans-Serif" font-size="10.00"> </text>
<polyline fill="none" stroke="black" points="372.15,-797 505.15,-797 "/>
<text text-anchor="middle" x="438.65" y="-785" font-family="Helvetica,sans-Serif" font-size="10.00"> </text>
</a>
</g>
</g>
<!-- Node7&#45;&gt;Node2 -->
<g id="edge6" class="edge">
<title>Node7&#45;&gt;Node2</title>
<path fill="none" stroke="#404040" d="M447.47,-777.68C454.84,-749.8 466.15,-707.03 478.71,-659.56"/>
<polygon fill="none" stroke="#404040" points="478.77,-659.33 476.44,-652.51 481.84,-647.73 484.17,-654.56 478.77,-659.33"/>
<text text-anchor="middle" x="497.15" y="-669" font-family="Helvetica,sans-Serif" font-size="10.00"> +ctrlData</text>
</g>
<!-- Node8 -->
<g id="node8" class="node">
<title>Node8</title>
<g id="a_node8"><a xlink:href="class_scriptable_object.html" target="_top" xlink:title=" ">
<polygon fill="none" stroke="black" points="347.15,-1048 347.15,-1105 436.15,-1105 436.15,-1048 347.15,-1048"/>
<text text-anchor="middle" x="391.65" y="-1093" font-family="Helvetica,sans-Serif" font-size="10.00">ScriptableObject</text>
<polyline fill="none" stroke="black" points="347.15,-1086 436.15,-1086 "/>
<text text-anchor="middle" x="391.65" y="-1074" font-family="Helvetica,sans-Serif" font-size="10.00"> </text>
<polyline fill="none" stroke="black" points="347.15,-1067 436.15,-1067 "/>
<text text-anchor="middle" x="391.65" y="-1055" font-family="Helvetica,sans-Serif" font-size="10.00"> </text>
</a>
</g>
</g>
<!-- Node8&#45;&gt;Node7 -->
<g id="edge7" class="edge">
<title>Node8&#45;&gt;Node7</title>
<path fill="none" stroke="midnightblue" d="M398.38,-1037.89C407.57,-986.57 423.9,-895.38 432.68,-846.37"/>
<polygon fill="none" stroke="midnightblue" points="394.91,-1037.44 396.59,-1047.9 401.8,-1038.68 394.91,-1037.44"/>
</g>
<!-- Node9 -->
<g id="node9" class="node">
<title>Node9</title>
<g id="a_node9"><a xlink:title=" ">
<polygon fill="none" stroke="#bfbfbf" points="819.15,-1048 819.15,-1105 854.15,-1105 854.15,-1048 819.15,-1048"/>
<text text-anchor="middle" x="836.65" y="-1093" font-family="Helvetica,sans-Serif" font-size="10.00">float</text>
<polyline fill="none" stroke="#bfbfbf" points="819.15,-1086 854.15,-1086 "/>
<text text-anchor="middle" x="836.65" y="-1074" font-family="Helvetica,sans-Serif" font-size="10.00"> </text>
<polyline fill="none" stroke="#bfbfbf" points="819.15,-1067 854.15,-1067 "/>
<text text-anchor="middle" x="836.65" y="-1055" font-family="Helvetica,sans-Serif" font-size="10.00"> </text>
</a>
</g>
</g>
<!-- Node9&#45;&gt;Node7 -->
<g id="edge8" class="edge">
<title>Node9&#45;&gt;Node7</title>
<path fill="none" stroke="#404040" d="M818.71,-1068.03C754.71,-1041.29 540,-950.74 514.65,-929 491.62,-909.25 472.84,-880.82 459.71,-857.06"/>
<polygon fill="none" stroke="#404040" points="459.56,-856.76 453.2,-853.35 453.91,-846.17 460.26,-849.58 459.56,-856.76"/>
<text text-anchor="middle" x="714.65" y="-994" font-family="Helvetica,sans-Serif" font-size="10.00"> +groundCheckDistance</text>
<text text-anchor="middle" x="714.65" y="-983" font-family="Helvetica,sans-Serif" font-size="10.00">+ledgeCheckDistacne</text>
<text text-anchor="middle" x="714.65" y="-972" font-family="Helvetica,sans-Serif" font-size="10.00">+playerDetectionDistance</text>
<text text-anchor="middle" x="714.65" y="-961" font-family="Helvetica,sans-Serif" font-size="10.00">+topCheckDistance</text>
<text text-anchor="middle" x="714.65" y="-950" font-family="Helvetica,sans-Serif" font-size="10.00">+wallCheckDistance</text>
</g>
<!-- Node9&#45;&gt;Node16 -->
<g id="edge17" class="edge">
<title>Node9&#45;&gt;Node16</title>
<path fill="none" stroke="#404040" d="M854.45,-1061.66C885.71,-1036.9 951.7,-982.59 999.65,-929 999.93,-928.69 1000.21,-928.38 1000.49,-928.06"/>
<polygon fill="none" stroke="#404040" points="1000.69,-927.83 1001.58,-920.67 1008.53,-918.75 1007.64,-925.9 1000.69,-927.83"/>
<text text-anchor="middle" x="1020.65" y="-972" font-family="Helvetica,sans-Serif" font-size="10.00"> #interactionRadius</text>
</g>
<!-- Node10 -->
<g id="node10" class="node">
<title>Node10</title>
<g id="a_node10"><a xlink:title=" ">
<polygon fill="none" stroke="#bfbfbf" points="454.15,-1048 454.15,-1105 519.15,-1105 519.15,-1048 454.15,-1048"/>
<text text-anchor="middle" x="486.65" y="-1093" font-family="Helvetica,sans-Serif" font-size="10.00">LayerMask</text>
<polyline fill="none" stroke="#bfbfbf" points="454.15,-1086 519.15,-1086 "/>
<text text-anchor="middle" x="486.65" y="-1074" font-family="Helvetica,sans-Serif" font-size="10.00"> </text>
<polyline fill="none" stroke="#bfbfbf" points="454.15,-1067 519.15,-1067 "/>
<text text-anchor="middle" x="486.65" y="-1055" font-family="Helvetica,sans-Serif" font-size="10.00"> </text>
</a>
</g>
</g>
<!-- Node10&#45;&gt;Node7 -->
<g id="edge9" class="edge">
<title>Node10&#45;&gt;Node7</title>
<path fill="none" stroke="#404040" d="M481.61,-1047.9C473.37,-1002.84 456.94,-913.02 446.96,-858.44"/>
<polygon fill="none" stroke="#404040" points="446.91,-858.17 441.9,-852.99 444.75,-846.37 449.77,-851.55 446.91,-858.17"/>
<text text-anchor="middle" x="506.15" y="-972" font-family="Helvetica,sans-Serif" font-size="10.00"> +whatIsGround</text>
</g>
<!-- Node11 -->
<g id="node11" class="node">
<title>Node11</title>
<g id="a_node11"><a xlink:title=" ">
<polygon fill="none" stroke="#bfbfbf" points="523.15,-783.5 523.15,-840.5 586.15,-840.5 586.15,-783.5 523.15,-783.5"/>
<text text-anchor="middle" x="554.65" y="-828.5" font-family="Helvetica,sans-Serif" font-size="10.00">UnityEvent</text>
<polyline fill="none" stroke="#bfbfbf" points="523.15,-821.5 586.15,-821.5 "/>
<text text-anchor="middle" x="554.65" y="-809.5" font-family="Helvetica,sans-Serif" font-size="10.00"> </text>
<polyline fill="none" stroke="#bfbfbf" points="523.15,-802.5 586.15,-802.5 "/>
<text text-anchor="middle" x="554.65" y="-790.5" font-family="Helvetica,sans-Serif" font-size="10.00"> </text>
</a>
</g>
</g>
<!-- Node11&#45;&gt;Node2 -->
<g id="edge10" class="edge">
<title>Node11&#45;&gt;Node2</title>
<path fill="none" stroke="#404040" d="M554.65,-783.24C554.65,-755.74 554.65,-710.52 554.65,-659.91"/>
<polygon fill="none" stroke="#404040" points="554.65,-659.64 550.65,-653.64 554.65,-647.64 558.65,-653.64 554.65,-659.64"/>
<text text-anchor="middle" x="588.15" y="-669" font-family="Helvetica,sans-Serif" font-size="10.00"> +OnLandEvent</text>
</g>
<!-- Node12 -->
<g id="node12" class="node">
<title>Node12</title>
<g id="a_node12"><a xlink:href="class_controllers_1_1_movement_1_1_base_movement_controller.html" target="_top" xlink:title=" ">
<polygon fill="none" stroke="black" points="604.65,-778 604.65,-846 740.65,-846 740.65,-778 604.65,-778"/>
<text text-anchor="start" x="612.65" y="-834" font-family="Helvetica,sans-Serif" font-size="10.00">Controllers.Movement.Base</text>
<text text-anchor="middle" x="672.65" y="-823" font-family="Helvetica,sans-Serif" font-size="10.00">MovementController</text>
<polyline fill="none" stroke="black" points="604.65,-816 740.65,-816 "/>
<text text-anchor="middle" x="672.65" y="-804" font-family="Helvetica,sans-Serif" font-size="10.00"> </text>
<polyline fill="none" stroke="black" points="604.65,-797 740.65,-797 "/>
<text text-anchor="middle" x="672.65" y="-785" font-family="Helvetica,sans-Serif" font-size="10.00"> </text>
</a>
</g>
</g>
<!-- Node12&#45;&gt;Node2 -->
<g id="edge11" class="edge">
<title>Node12&#45;&gt;Node2</title>
<path fill="none" stroke="#404040" d="M663.69,-777.68C656.18,-749.8 644.67,-707.03 631.9,-659.56"/>
<polygon fill="none" stroke="#404040" points="631.83,-659.32 626.41,-654.57 628.72,-647.73 634.14,-652.49 631.83,-659.32"/>
<text text-anchor="middle" x="691.15" y="-669" font-family="Helvetica,sans-Serif" font-size="10.00"> #baseMovementController</text>
</g>
<!-- Node13 -->
<g id="node13" class="node">
<title>Node13</title>
<g id="a_node13"><a xlink:href="class_controllers_1_1_state_machine_1_1_controller_state_machine.html" target="_top" xlink:title="Controla el estado de un enemigo o NPC, desde que spawnea hasta que muere. Casi todos los metodos son...">
<polygon fill="none" stroke="black" points="759.15,-761.5 759.15,-862.5 888.15,-862.5 888.15,-761.5 759.15,-761.5"/>
<text text-anchor="start" x="767.15" y="-850.5" font-family="Helvetica,sans-Serif" font-size="10.00">Controllers.StateMachine.</text>
<text text-anchor="middle" x="823.65" y="-839.5" font-family="Helvetica,sans-Serif" font-size="10.00">ControllerStateMachine</text>
<polyline fill="none" stroke="black" points="759.15,-832.5 888.15,-832.5 "/>
<text text-anchor="start" x="767.15" y="-820.5" font-family="Helvetica,sans-Serif" font-size="10.00">+ State CurrentState</text>
<polyline fill="none" stroke="black" points="759.15,-813.5 888.15,-813.5 "/>
<text text-anchor="start" x="767.15" y="-801.5" font-family="Helvetica,sans-Serif" font-size="10.00">+ void Initialize(State</text>
<text text-anchor="start" x="767.15" y="-790.5" font-family="Helvetica,sans-Serif" font-size="10.00"> startState)</text>
<text text-anchor="start" x="767.15" y="-779.5" font-family="Helvetica,sans-Serif" font-size="10.00">+ void ChangeState(State</text>
<text text-anchor="start" x="767.15" y="-768.5" font-family="Helvetica,sans-Serif" font-size="10.00"> nextState)</text>
</a>
</g>
</g>
<!-- Node13&#45;&gt;Node2 -->
<g id="edge12" class="edge">
<title>Node13&#45;&gt;Node2</title>
<path fill="none" stroke="#404040" d="M801.47,-761.46C788.23,-733.02 770.55,-696.94 752.65,-666 720.91,-611.13 682.62,-552.84 648.19,-502.79"/>
<polygon fill="none" stroke="#404040" points="648.18,-502.77 641.48,-500.1 641.36,-492.89 648.06,-495.56 648.18,-502.77"/>
<text text-anchor="middle" x="791.65" y="-669" font-family="Helvetica,sans-Serif" font-size="10.00"> +StateMachine</text>
</g>
<!-- Node14 -->
<g id="node14" class="node">
<title>Node14</title>
<g id="a_node14"><a xlink:title=" ">
<polygon fill="none" stroke="#bfbfbf" points="906.65,-783.5 906.65,-840.5 990.65,-840.5 990.65,-783.5 906.65,-783.5"/>
<text text-anchor="middle" x="948.65" y="-828.5" font-family="Helvetica,sans-Serif" font-size="10.00">EControllerKind</text>
<polyline fill="none" stroke="#bfbfbf" points="906.65,-821.5 990.65,-821.5 "/>
<text text-anchor="middle" x="948.65" y="-809.5" font-family="Helvetica,sans-Serif" font-size="10.00"> </text>
<polyline fill="none" stroke="#bfbfbf" points="906.65,-802.5 990.65,-802.5 "/>
<text text-anchor="middle" x="948.65" y="-790.5" font-family="Helvetica,sans-Serif" font-size="10.00"> </text>
</a>
</g>
</g>
<!-- Node14&#45;&gt;Node2 -->
<g id="edge13" class="edge">
<title>Node14&#45;&gt;Node2</title>
<path fill="none" stroke="#404040" d="M939.96,-783.13C931.5,-758.55 917.08,-722.49 897.65,-695 828.44,-597.06 725.89,-505.45 650.95,-445.08"/>
<polygon fill="none" stroke="#404040" points="650.86,-445.01 643.68,-444.38 641.5,-437.51 648.68,-438.14 650.86,-445.01"/>
<text text-anchor="middle" x="916.65" y="-669" font-family="Helvetica,sans-Serif" font-size="10.00"> #controllerKind</text>
</g>
<!-- Node15 -->
<g id="node15" class="node">
<title>Node15</title>
<g id="a_node15"><a xlink:title=" ">
<polygon fill="none" stroke="#bfbfbf" points="1120.15,-1048 1120.15,-1105 1155.15,-1105 1155.15,-1048 1120.15,-1048"/>
<text text-anchor="middle" x="1137.65" y="-1093" font-family="Helvetica,sans-Serif" font-size="10.00">bool</text>
<polyline fill="none" stroke="#bfbfbf" points="1120.15,-1086 1155.15,-1086 "/>
<text text-anchor="middle" x="1137.65" y="-1074" font-family="Helvetica,sans-Serif" font-size="10.00"> </text>
<polyline fill="none" stroke="#bfbfbf" points="1120.15,-1067 1155.15,-1067 "/>
<text text-anchor="middle" x="1137.65" y="-1055" font-family="Helvetica,sans-Serif" font-size="10.00"> </text>
</a>
</g>
</g>
<!-- Node15&#45;&gt;Node2 -->
<g id="edge14" class="edge">
<title>Node15&#45;&gt;Node2</title>
<path fill="none" stroke="#404040" d="M1155.25,-1052.06C1164.49,-1038.27 1174.86,-1020.04 1179.65,-1002 1201.02,-921.54 1243.68,-816.65 1165.65,-695 1049.08,-513.26 794.36,-427.65 653.4,-392.84"/>
<polygon fill="none" stroke="#404040" points="653.03,-392.75 646.26,-395.23 641.37,-389.93 648.14,-387.45 653.03,-392.75"/>
<text text-anchor="middle" x="1262.15" y="-809.5" font-family="Helvetica,sans-Serif" font-size="10.00"> #playerFacingDirection</text>
</g>
<!-- Node15&#45;&gt;Node16 -->
<g id="edge18" class="edge">
<title>Node15&#45;&gt;Node16</title>
<path fill="none" stroke="#404040" d="M1119.98,-1058.68C1106.85,-1044.88 1090,-1024.08 1082.65,-1002 1076.24,-982.74 1072.93,-961.75 1071.59,-941"/>
<polygon fill="none" stroke="#404040" points="1071.59,-940.81 1067.31,-935 1071.03,-928.82 1075.3,-934.63 1071.59,-940.81"/>
<text text-anchor="middle" x="1131.15" y="-994" font-family="Helvetica,sans-Serif" font-size="10.00"> +isEnrolledInDialogue</text>
<text text-anchor="middle" x="1131.15" y="-983" font-family="Helvetica,sans-Serif" font-size="10.00">~moveOnDamaged</text>
<text text-anchor="middle" x="1131.15" y="-972" font-family="Helvetica,sans-Serif" font-size="10.00">~praying</text>
<text text-anchor="middle" x="1131.15" y="-961" font-family="Helvetica,sans-Serif" font-size="10.00">~respawning</text>
<text text-anchor="middle" x="1131.15" y="-950" font-family="Helvetica,sans-Serif" font-size="10.00">~roll</text>
</g>
<!-- Node16&#45;&gt;Node2 -->
<g id="edge15" class="edge">
<title>Node16&#45;&gt;Node2</title>
<path fill="none" stroke="#404040" d="M1008.46,-704.27C1005.56,-701.09 1002.62,-697.99 999.65,-695 892.68,-587.38 746.87,-489.01 651.77,-429.93"/>
<polygon fill="none" stroke="#404040" points="651.5,-429.76 644.29,-430.01 641.29,-423.45 648.5,-423.21 651.5,-429.76"/>
<text text-anchor="middle" x="1015.65" y="-669" font-family="Helvetica,sans-Serif" font-size="10.00"> #playerController</text>
</g>
</g>
</svg>
