<?xml version="1.0" encoding="UTF-8" standalone="no"?>
<!DOCTYPE svg PUBLIC "-//W3C//DTD SVG 1.1//EN"
 "http://www.w3.org/Graphics/SVG/1.1/DTD/svg11.dtd">
<!-- Generated by graphviz version 2.48.0 (20210717.1556)
 -->
<!-- Title: Controllers.StateMachine.State Pages: 1 -->
<svg width="1455pt" height="1239pt"
 viewBox="0.00 0.00 1454.80 1239.00" xmlns="http://www.w3.org/2000/svg" xmlns:xlink="http://www.w3.org/1999/xlink">
<g id="graph0" class="graph" transform="scale(1 1) rotate(0) translate(4 1235)">
<title>Controllers.StateMachine.State</title>
<!-- Node1 -->
<g id="node1" class="node">
<title>Node1</title>
<g id="a_node1"><a xlink:title="Clase base para los estados de cada personaje. Controla el ciclo de vida de cada estado (Enter,...">
<polygon fill="#bfbfbf" stroke="black" points="187.8,-0.5 187.8,-145.5 332.8,-145.5 332.8,-0.5 187.8,-0.5"/>
<text text-anchor="start" x="195.8" y="-133.5" font-family="Helvetica,sans-Serif" font-size="10.00">Controllers.StateMachine.</text>
<text text-anchor="middle" x="260.3" y="-122.5" font-family="Helvetica,sans-Serif" font-size="10.00">State</text>
<polyline fill="none" stroke="black" points="187.8,-115.5 332.8,-115.5 "/>
<text text-anchor="middle" x="260.3" y="-103.5" font-family="Helvetica,sans-Serif" font-size="10.00"> </text>
<polyline fill="none" stroke="black" points="187.8,-96.5 332.8,-96.5 "/>
<text text-anchor="start" x="195.8" y="-84.5" font-family="Helvetica,sans-Serif" font-size="10.00">+ State(BaseController</text>
<text text-anchor="start" x="195.8" y="-73.5" font-family="Helvetica,sans-Serif" font-size="10.00"> controller, ControllerState</text>
<text text-anchor="start" x="195.8" y="-62.5" font-family="Helvetica,sans-Serif" font-size="10.00">Machine stateMachine, string</text>
<text text-anchor="start" x="195.8" y="-51.5" font-family="Helvetica,sans-Serif" font-size="10.00"> animBoolName)</text>
<text text-anchor="start" x="195.8" y="-40.5" font-family="Helvetica,sans-Serif" font-size="10.00">+ virtual void Enter()</text>
<text text-anchor="start" x="195.8" y="-29.5" font-family="Helvetica,sans-Serif" font-size="10.00">+ virtual void Exit()</text>
<text text-anchor="start" x="195.8" y="-18.5" font-family="Helvetica,sans-Serif" font-size="10.00">+ virtual void UpdateState()</text>
<text text-anchor="start" x="195.8" y="-7.5" font-family="Helvetica,sans-Serif" font-size="10.00">+ virtual void UpdatePhysics()</text>
</a>
</g>
</g>
<!-- Node2 -->
<g id="node2" class="node">
<title>Node2</title>
<g id="a_node2"><a xlink:title=" ">
<polygon fill="none" stroke="#bfbfbf" points="12.8,-441 12.8,-498 53.8,-498 53.8,-441 12.8,-441"/>
<text text-anchor="middle" x="33.3" y="-486" font-family="Helvetica,sans-Serif" font-size="10.00">string</text>
<polyline fill="none" stroke="#bfbfbf" points="12.8,-479 53.8,-479 "/>
<text text-anchor="middle" x="33.3" y="-467" font-family="Helvetica,sans-Serif" font-size="10.00"> </text>
<polyline fill="none" stroke="#bfbfbf" points="12.8,-460 53.8,-460 "/>
<text text-anchor="middle" x="33.3" y="-448" font-family="Helvetica,sans-Serif" font-size="10.00"> </text>
</a>
</g>
</g>
<!-- Node2&#45;&gt;Node1 -->
<g id="edge1" class="edge">
<title>Node2&#45;&gt;Node1</title>
<path fill="none" stroke="#404040" d="M23.96,-440.72C6.54,-383.32 -24.15,-249.88 34.3,-164 65.92,-117.54 125.74,-95.06 175.89,-84.19"/>
<polygon fill="none" stroke="#404040" points="175.99,-84.17 181.07,-79.06 187.75,-81.79 182.66,-86.9 175.99,-84.17"/>
<text text-anchor="middle" x="71.8" y="-167" font-family="Helvetica,sans-Serif" font-size="10.00"> #animBoolName</text>
</g>
<!-- Node3 -->
<g id="node3" class="node">
<title>Node3</title>
<g id="a_node3"><a xlink:href="class_controllers_1_1_base_controller.html" target="_top" xlink:title=" ">
<polygon fill="none" stroke="black" points="623.8,-193.5 623.8,-745.5 796.8,-745.5 796.8,-193.5 623.8,-193.5"/>
<text text-anchor="middle" x="710.3" y="-733.5" font-family="Helvetica,sans-Serif" font-size="10.00">Controllers.BaseController</text>
<polyline fill="none" stroke="black" points="623.8,-726.5 796.8,-726.5 "/>
<text text-anchor="start" x="631.8" y="-714.5" font-family="Helvetica,sans-Serif" font-size="10.00">+ int FacingDirection</text>
<text text-anchor="start" x="631.8" y="-703.5" font-family="Helvetica,sans-Serif" font-size="10.00">+ bool IsReadyToAttack</text>
<text text-anchor="start" x="631.8" y="-692.5" font-family="Helvetica,sans-Serif" font-size="10.00">+ bool wallDetected</text>
<text text-anchor="start" x="631.8" y="-681.5" font-family="Helvetica,sans-Serif" font-size="10.00">+ bool groundDetected</text>
<text text-anchor="start" x="631.8" y="-670.5" font-family="Helvetica,sans-Serif" font-size="10.00">+ bool topDetected</text>
<polyline fill="none" stroke="black" points="623.8,-663.5 796.8,-663.5 "/>
<text text-anchor="start" x="631.8" y="-651.5" font-family="Helvetica,sans-Serif" font-size="10.00">+ void Flip()</text>
<text text-anchor="start" x="631.8" y="-640.5" font-family="Helvetica,sans-Serif" font-size="10.00">+ void SetVelocity(float</text>
<text text-anchor="start" x="631.8" y="-629.5" font-family="Helvetica,sans-Serif" font-size="10.00"> velocity)</text>
<text text-anchor="start" x="631.8" y="-618.5" font-family="Helvetica,sans-Serif" font-size="10.00">+ void AddForce(Vector2</text>
<text text-anchor="start" x="631.8" y="-607.5" font-family="Helvetica,sans-Serif" font-size="10.00"> newForce, bool isImpulse)</text>
<text text-anchor="start" x="631.8" y="-596.5" font-family="Helvetica,sans-Serif" font-size="10.00">+ void AddTorque(float</text>
<text text-anchor="start" x="631.8" y="-585.5" font-family="Helvetica,sans-Serif" font-size="10.00"> newTorque, bool isImpulse)</text>
<text text-anchor="start" x="631.8" y="-574.5" font-family="Helvetica,sans-Serif" font-size="10.00">+ T GetMovementController</text>
<text text-anchor="start" x="631.8" y="-563.5" font-family="Helvetica,sans-Serif" font-size="10.00">&lt; T &gt;()</text>
<text text-anchor="start" x="631.8" y="-552.5" font-family="Helvetica,sans-Serif" font-size="10.00">+ Animator GetAnimator()</text>
<text text-anchor="start" x="631.8" y="-541.5" font-family="Helvetica,sans-Serif" font-size="10.00">+ Transform GetTransfrom()</text>
<text text-anchor="start" x="631.8" y="-530.5" font-family="Helvetica,sans-Serif" font-size="10.00">+ GameObject GetDialogueBubble()</text>
<text text-anchor="start" x="631.8" y="-519.5" font-family="Helvetica,sans-Serif" font-size="10.00">+ bool CheckWall()</text>
<text text-anchor="start" x="631.8" y="-508.5" font-family="Helvetica,sans-Serif" font-size="10.00">+ bool CheckLedge()</text>
<text text-anchor="start" x="631.8" y="-497.5" font-family="Helvetica,sans-Serif" font-size="10.00">+ bool CheckGround()</text>
<text text-anchor="start" x="631.8" y="-486.5" font-family="Helvetica,sans-Serif" font-size="10.00">+ bool CheckPlayerInRange()</text>
<text text-anchor="start" x="631.8" y="-475.5" font-family="Helvetica,sans-Serif" font-size="10.00">+ void SwitchStates(ECharacter</text>
<text text-anchor="start" x="631.8" y="-464.5" font-family="Helvetica,sans-Serif" font-size="10.00">State nextState)</text>
<text text-anchor="start" x="631.8" y="-453.5" font-family="Helvetica,sans-Serif" font-size="10.00">+ void Anim_PreparingAttack</text>
<text text-anchor="start" x="631.8" y="-442.5" font-family="Helvetica,sans-Serif" font-size="10.00">Finished()</text>
<text text-anchor="start" x="631.8" y="-431.5" font-family="Helvetica,sans-Serif" font-size="10.00">+ virtual void Damage</text>
<text text-anchor="start" x="631.8" y="-420.5" font-family="Helvetica,sans-Serif" font-size="10.00">(float amount, int attackN)</text>
<text text-anchor="start" x="631.8" y="-409.5" font-family="Helvetica,sans-Serif" font-size="10.00">+ void Damage(BaseController</text>
<text text-anchor="start" x="631.8" y="-398.5" font-family="Helvetica,sans-Serif" font-size="10.00"> controller, DamageInfo</text>
<text text-anchor="start" x="631.8" y="-387.5" font-family="Helvetica,sans-Serif" font-size="10.00"> damageInfo)</text>
<text text-anchor="start" x="631.8" y="-376.5" font-family="Helvetica,sans-Serif" font-size="10.00">+ void Kill()</text>
<text text-anchor="start" x="631.8" y="-365.5" font-family="Helvetica,sans-Serif" font-size="10.00">+ bool Interact(BaseController</text>
<text text-anchor="start" x="631.8" y="-354.5" font-family="Helvetica,sans-Serif" font-size="10.00"> controller, EInteractionKind</text>
<text text-anchor="start" x="631.8" y="-343.5" font-family="Helvetica,sans-Serif" font-size="10.00"> interactionKind)</text>
<text text-anchor="start" x="631.8" y="-332.5" font-family="Helvetica,sans-Serif" font-size="10.00">+ bool Interact(PlayerController</text>
<text text-anchor="start" x="631.8" y="-321.5" font-family="Helvetica,sans-Serif" font-size="10.00"> controller, EInteractionKind</text>
<text text-anchor="start" x="631.8" y="-310.5" font-family="Helvetica,sans-Serif" font-size="10.00"> interactionKind)</text>
<text text-anchor="start" x="631.8" y="-299.5" font-family="Helvetica,sans-Serif" font-size="10.00">+ void ReadyToInteract</text>
<text text-anchor="start" x="631.8" y="-288.5" font-family="Helvetica,sans-Serif" font-size="10.00">(PlayerController controller,</text>
<text text-anchor="start" x="631.8" y="-277.5" font-family="Helvetica,sans-Serif" font-size="10.00"> bool isReady)</text>
<text text-anchor="start" x="631.8" y="-266.5" font-family="Helvetica,sans-Serif" font-size="10.00">+ void ReadyToInteract</text>
<text text-anchor="start" x="631.8" y="-255.5" font-family="Helvetica,sans-Serif" font-size="10.00">(BaseController controller,</text>
<text text-anchor="start" x="631.8" y="-244.5" font-family="Helvetica,sans-Serif" font-size="10.00"> bool isReady)</text>
<text text-anchor="start" x="631.8" y="-233.5" font-family="Helvetica,sans-Serif" font-size="10.00"># virtual void Start()</text>
<text text-anchor="start" x="631.8" y="-222.5" font-family="Helvetica,sans-Serif" font-size="10.00"># virtual void OnDrawGizmos()</text>
<text text-anchor="start" x="631.8" y="-211.5" font-family="Helvetica,sans-Serif" font-size="10.00"># virtual void OnEnterDead</text>
<text text-anchor="start" x="631.8" y="-200.5" font-family="Helvetica,sans-Serif" font-size="10.00">StateStart()</text>
</a>
</g>
</g>
<!-- Node3&#45;&gt;Node1 -->
<g id="edge2" class="edge">
<title>Node3&#45;&gt;Node1</title>
<path fill="none" stroke="#404040" d="M623.53,-392.44C542.42,-321.33 422.17,-215.91 342.55,-146.11"/>
<polygon fill="none" stroke="#404040" points="342.07,-145.69 334.93,-144.74 333.05,-137.78 340.2,-138.73 342.07,-145.69"/>
<text text-anchor="middle" x="393.8" y="-167" font-family="Helvetica,sans-Serif" font-size="10.00"> #controller</text>
</g>
<!-- Node4 -->
<g id="node4" class="node">
<title>Node4</title>
<g id="a_node4"><a xlink:href="interface_controllers_1_1_i_damageable.html" target="_top" xlink:title="Interfaz para todos los NPCs/Enemigos/Objetos que pueden ser daniados.">
<polygon fill="none" stroke="black" points="933.3,-1118.5 933.3,-1230.5 1081.3,-1230.5 1081.3,-1118.5 933.3,-1118.5"/>
<text text-anchor="middle" x="1007.3" y="-1218.5" font-family="Helvetica,sans-Serif" font-size="10.00">IDamageable</text>
<polyline fill="none" stroke="black" points="933.3,-1211.5 1081.3,-1211.5 "/>
<text text-anchor="middle" x="1007.3" y="-1199.5" font-family="Helvetica,sans-Serif" font-size="10.00"> </text>
<polyline fill="none" stroke="black" points="933.3,-1192.5 1081.3,-1192.5 "/>
<text text-anchor="start" x="941.3" y="-1180.5" font-family="Helvetica,sans-Serif" font-size="10.00">+ void Damage(float amount,</text>
<text text-anchor="start" x="941.3" y="-1169.5" font-family="Helvetica,sans-Serif" font-size="10.00"> int attackN)</text>
<text text-anchor="start" x="941.3" y="-1158.5" font-family="Helvetica,sans-Serif" font-size="10.00">+ void Damage(BaseController</text>
<text text-anchor="start" x="941.3" y="-1147.5" font-family="Helvetica,sans-Serif" font-size="10.00"> controller, DamageInfo</text>
<text text-anchor="start" x="941.3" y="-1136.5" font-family="Helvetica,sans-Serif" font-size="10.00"> damageInfo)</text>
<text text-anchor="start" x="941.3" y="-1125.5" font-family="Helvetica,sans-Serif" font-size="10.00">+ void Kill()</text>
</a>
</g>
</g>
<!-- Node4&#45;&gt;Node3 -->
<g id="edge3" class="edge">
<title>Node4&#45;&gt;Node3</title>
<path fill="none" stroke="midnightblue" d="M1004.43,-1108.19C999.61,-1014.86 988.07,-848.48 965.3,-793 927.42,-700.72 854.91,-613.09 796.86,-552.52"/>
<polygon fill="none" stroke="midnightblue" points="1000.95,-1108.56 1004.95,-1118.37 1007.94,-1108.2 1000.95,-1108.56"/>
</g>
<!-- Node17 -->
<g id="node17" class="node">
<title>Node17</title>
<g id="a_node17"><a xlink:href="class_player_1_1_player_controller.html" target="_top" xlink:title=" ">
<polygon fill="none" stroke="black" points="1012.3,-793.5 1012.3,-1026.5 1160.3,-1026.5 1160.3,-793.5 1012.3,-793.5"/>
<text text-anchor="middle" x="1086.3" y="-1014.5" font-family="Helvetica,sans-Serif" font-size="10.00">Player.PlayerController</text>
<polyline fill="none" stroke="black" points="1012.3,-1007.5 1160.3,-1007.5 "/>
<text text-anchor="middle" x="1086.3" y="-995.5" font-family="Helvetica,sans-Serif" font-size="10.00"> </text>
<polyline fill="none" stroke="black" points="1012.3,-988.5 1160.3,-988.5 "/>
<text text-anchor="start" x="1020.3" y="-976.5" font-family="Helvetica,sans-Serif" font-size="10.00">+ void Damage(float amount,</text>
<text text-anchor="start" x="1020.3" y="-965.5" font-family="Helvetica,sans-Serif" font-size="10.00"> int attackN)</text>
<text text-anchor="start" x="1020.3" y="-954.5" font-family="Helvetica,sans-Serif" font-size="10.00">+ void Damage(BaseController</text>
<text text-anchor="start" x="1020.3" y="-943.5" font-family="Helvetica,sans-Serif" font-size="10.00"> controller, DamageInfo</text>
<text text-anchor="start" x="1020.3" y="-932.5" font-family="Helvetica,sans-Serif" font-size="10.00"> damageInfo)</text>
<text text-anchor="start" x="1020.3" y="-921.5" font-family="Helvetica,sans-Serif" font-size="10.00">+ void Kill()</text>
<text text-anchor="start" x="1020.3" y="-910.5" font-family="Helvetica,sans-Serif" font-size="10.00">+ void EnterInteractionMode()</text>
<text text-anchor="start" x="1020.3" y="-899.5" font-family="Helvetica,sans-Serif" font-size="10.00">+ int GetFacingDirection()</text>
<text text-anchor="start" x="1020.3" y="-888.5" font-family="Helvetica,sans-Serif" font-size="10.00">+ void LandEvt()</text>
<text text-anchor="start" x="1020.3" y="-877.5" font-family="Helvetica,sans-Serif" font-size="10.00">+ void OnAirEvt()</text>
<text text-anchor="start" x="1020.3" y="-866.5" font-family="Helvetica,sans-Serif" font-size="10.00">+ bool IsFacingRight()</text>
<text text-anchor="start" x="1020.3" y="-855.5" font-family="Helvetica,sans-Serif" font-size="10.00">+ void AnimStartPrayingEvt()</text>
<text text-anchor="start" x="1020.3" y="-844.5" font-family="Helvetica,sans-Serif" font-size="10.00">+ void AnimRollEndEvt()</text>
<text text-anchor="start" x="1020.3" y="-833.5" font-family="Helvetica,sans-Serif" font-size="10.00">+ void AnimFootStep1Evt()</text>
<text text-anchor="start" x="1020.3" y="-822.5" font-family="Helvetica,sans-Serif" font-size="10.00">+ void AnimFootStep2Evt()</text>
<text text-anchor="start" x="1020.3" y="-811.5" font-family="Helvetica,sans-Serif" font-size="10.00">~ void OnEnable()</text>
<text text-anchor="start" x="1020.3" y="-800.5" font-family="Helvetica,sans-Serif" font-size="10.00">~ void OnDisable()</text>
</a>
</g>
</g>
<!-- Node4&#45;&gt;Node17 -->
<g id="edge17" class="edge">
<title>Node4&#45;&gt;Node17</title>
<path fill="none" stroke="midnightblue" d="M1026.77,-1108.81C1034.25,-1083.94 1043.04,-1054.74 1051.53,-1026.52"/>
<polygon fill="none" stroke="midnightblue" points="1023.39,-1107.89 1023.86,-1118.47 1030.09,-1109.9 1023.39,-1107.89"/>
</g>
<!-- Node5 -->
<g id="node5" class="node">
<title>Node5</title>
<g id="a_node5"><a xlink:href="interface_interactions_1_1_interfaces_1_1_i_interactive.html" target="_top" xlink:title=" ">
<polygon fill="none" stroke="black" points="151.8,-821 151.8,-999 302.8,-999 302.8,-821 151.8,-821"/>
<text text-anchor="middle" x="227.3" y="-987" font-family="Helvetica,sans-Serif" font-size="10.00">IInteractive</text>
<polyline fill="none" stroke="black" points="151.8,-980 302.8,-980 "/>
<text text-anchor="middle" x="227.3" y="-968" font-family="Helvetica,sans-Serif" font-size="10.00"> </text>
<polyline fill="none" stroke="black" points="151.8,-961 302.8,-961 "/>
<text text-anchor="start" x="159.8" y="-949" font-family="Helvetica,sans-Serif" font-size="10.00">+ bool Interact(BaseController</text>
<text text-anchor="start" x="159.8" y="-938" font-family="Helvetica,sans-Serif" font-size="10.00"> controller, EInteractionKind</text>
<text text-anchor="start" x="159.8" y="-927" font-family="Helvetica,sans-Serif" font-size="10.00"> interactionKind)</text>
<text text-anchor="start" x="159.8" y="-916" font-family="Helvetica,sans-Serif" font-size="10.00">+ bool Interact(PlayerController</text>
<text text-anchor="start" x="159.8" y="-905" font-family="Helvetica,sans-Serif" font-size="10.00"> controller, EInteractionKind</text>
<text text-anchor="start" x="159.8" y="-894" font-family="Helvetica,sans-Serif" font-size="10.00"> interactionKind)</text>
<text text-anchor="start" x="159.8" y="-883" font-family="Helvetica,sans-Serif" font-size="10.00">+ void ReadyToInteract</text>
<text text-anchor="start" x="159.8" y="-872" font-family="Helvetica,sans-Serif" font-size="10.00">(PlayerController controller,</text>
<text text-anchor="start" x="159.8" y="-861" font-family="Helvetica,sans-Serif" font-size="10.00"> bool isReady)</text>
<text text-anchor="start" x="159.8" y="-850" font-family="Helvetica,sans-Serif" font-size="10.00">+ void ReadyToInteract</text>
<text text-anchor="start" x="159.8" y="-839" font-family="Helvetica,sans-Serif" font-size="10.00">(BaseController controller,</text>
<text text-anchor="start" x="159.8" y="-828" font-family="Helvetica,sans-Serif" font-size="10.00"> bool isReady)</text>
</a>
</g>
</g>
<!-- Node5&#45;&gt;Node3 -->
<g id="edge4" class="edge">
<title>Node5&#45;&gt;Node3</title>
<path fill="none" stroke="midnightblue" d="M293.87,-812.73C299.56,-805.88 305.39,-799.22 311.3,-793 408.59,-690.4 538.65,-591.03 623.43,-530.34"/>
<polygon fill="none" stroke="midnightblue" points="290.86,-810.89 287.28,-820.86 296.3,-815.3 290.86,-810.89"/>
</g>
<!-- Node6 -->
<g id="node6" class="node">
<title>Node6</title>
<g id="a_node6"><a xlink:title=" ">
<polygon fill="none" stroke="#bfbfbf" points="320.8,-881.5 320.8,-938.5 391.8,-938.5 391.8,-881.5 320.8,-881.5"/>
<text text-anchor="middle" x="356.3" y="-926.5" font-family="Helvetica,sans-Serif" font-size="10.00">Rigidbody2D</text>
<polyline fill="none" stroke="#bfbfbf" points="320.8,-919.5 391.8,-919.5 "/>
<text text-anchor="middle" x="356.3" y="-907.5" font-family="Helvetica,sans-Serif" font-size="10.00"> </text>
<polyline fill="none" stroke="#bfbfbf" points="320.8,-900.5 391.8,-900.5 "/>
<text text-anchor="middle" x="356.3" y="-888.5" font-family="Helvetica,sans-Serif" font-size="10.00"> </text>
</a>
</g>
</g>
<!-- Node6&#45;&gt;Node3 -->
<g id="edge5" class="edge">
<title>Node6&#45;&gt;Node3</title>
<path fill="none" stroke="#404040" d="M361.74,-881.38C368.65,-850.88 382.61,-801.16 406.3,-764 461.64,-677.18 547.67,-597.34 614.11,-542.92"/>
<polygon fill="none" stroke="#404040" points="614.45,-542.65 616.58,-535.76 623.76,-535.08 621.63,-541.97 614.45,-542.65"/>
<text text-anchor="middle" x="436.3" y="-767" font-family="Helvetica,sans-Serif" font-size="10.00"> #rigidbody2D</text>
</g>
<!-- Node7 -->
<g id="node7" class="node">
<title>Node7</title>
<g id="a_node7"><a xlink:title=" ">
<polygon fill="none" stroke="#bfbfbf" points="410.3,-881.5 410.3,-938.5 466.3,-938.5 466.3,-881.5 410.3,-881.5"/>
<text text-anchor="middle" x="438.3" y="-926.5" font-family="Helvetica,sans-Serif" font-size="10.00">Animator</text>
<polyline fill="none" stroke="#bfbfbf" points="410.3,-919.5 466.3,-919.5 "/>
<text text-anchor="middle" x="438.3" y="-907.5" font-family="Helvetica,sans-Serif" font-size="10.00"> </text>
<polyline fill="none" stroke="#bfbfbf" points="410.3,-900.5 466.3,-900.5 "/>
<text text-anchor="middle" x="438.3" y="-888.5" font-family="Helvetica,sans-Serif" font-size="10.00"> </text>
</a>
</g>
</g>
<!-- Node7&#45;&gt;Node3 -->
<g id="edge6" class="edge">
<title>Node7&#45;&gt;Node3</title>
<path fill="none" stroke="#404040" d="M442.04,-881.34C446.89,-851.23 457.11,-802.27 476.3,-764 512.19,-692.41 567.54,-621.92 615.4,-567.97"/>
<polygon fill="none" stroke="#404040" points="615.63,-567.71 616.65,-560.58 623.63,-558.77 622.61,-565.91 615.63,-567.71"/>
<text text-anchor="middle" x="520.3" y="-767" font-family="Helvetica,sans-Serif" font-size="10.00"> #characterAnimator</text>
</g>
<!-- Node8 -->
<g id="node8" class="node">
<title>Node8</title>
<g id="a_node8"><a xlink:href="class_controllers_1_1_state_machine_1_1_states_1_1_data_1_1_controller_data.html" target="_top" xlink:title=" ">
<polygon fill="none" stroke="black" points="720.8,-876 720.8,-944 853.8,-944 853.8,-876 720.8,-876"/>
<text text-anchor="start" x="728.8" y="-932" font-family="Helvetica,sans-Serif" font-size="10.00">Controllers.StateMachine.</text>
<text text-anchor="middle" x="787.3" y="-921" font-family="Helvetica,sans-Serif" font-size="10.00">States.Data.ControllerData</text>
<polyline fill="none" stroke="black" points="720.8,-914 853.8,-914 "/>
<text text-anchor="middle" x="787.3" y="-902" font-family="Helvetica,sans-Serif" font-size="10.00"> </text>
<polyline fill="none" stroke="black" points="720.8,-895 853.8,-895 "/>
<text text-anchor="middle" x="787.3" y="-883" font-family="Helvetica,sans-Serif" font-size="10.00"> </text>
</a>
</g>
</g>
<!-- Node8&#45;&gt;Node3 -->
<g id="edge7" class="edge">
<title>Node8&#45;&gt;Node3</title>
<path fill="none" stroke="#404040" d="M781.45,-875.68C776.55,-847.8 769.04,-805.03 760.7,-757.56"/>
<polygon fill="none" stroke="#404040" points="760.7,-757.55 755.73,-752.33 758.63,-745.73 763.6,-750.95 760.7,-757.55"/>
<text text-anchor="middle" x="783.8" y="-767" font-family="Helvetica,sans-Serif" font-size="10.00"> +ctrlData</text>
</g>
<!-- Node9 -->
<g id="node9" class="node">
<title>Node9</title>
<g id="a_node9"><a xlink:href="class_scriptable_object.html" target="_top" xlink:title=" ">
<polygon fill="none" stroke="black" points="772.8,-1146 772.8,-1203 861.8,-1203 861.8,-1146 772.8,-1146"/>
<text text-anchor="middle" x="817.3" y="-1191" font-family="Helvetica,sans-Serif" font-size="10.00">ScriptableObject</text>
<polyline fill="none" stroke="black" points="772.8,-1184 861.8,-1184 "/>
<text text-anchor="middle" x="817.3" y="-1172" font-family="Helvetica,sans-Serif" font-size="10.00"> </text>
<polyline fill="none" stroke="black" points="772.8,-1165 861.8,-1165 "/>
<text text-anchor="middle" x="817.3" y="-1153" font-family="Helvetica,sans-Serif" font-size="10.00"> </text>
</a>
</g>
</g>
<!-- Node9&#45;&gt;Node8 -->
<g id="edge8" class="edge">
<title>Node9&#45;&gt;Node8</title>
<path fill="none" stroke="midnightblue" d="M813.3,-1135.88C810.55,-1110.25 806.79,-1075.57 803.3,-1045 799.36,-1010.55 794.63,-971.15 791.34,-944.03"/>
<polygon fill="none" stroke="midnightblue" points="809.83,-1136.35 814.37,-1145.92 816.79,-1135.6 809.83,-1136.35"/>
</g>
<!-- Node10 -->
<g id="node10" class="node">
<title>Node10</title>
<g id="a_node10"><a xlink:title=" ">
<polygon fill="none" stroke="#bfbfbf" points="672.8,-1146 672.8,-1203 707.8,-1203 707.8,-1146 672.8,-1146"/>
<text text-anchor="middle" x="690.3" y="-1191" font-family="Helvetica,sans-Serif" font-size="10.00">float</text>
<polyline fill="none" stroke="#bfbfbf" points="672.8,-1184 707.8,-1184 "/>
<text text-anchor="middle" x="690.3" y="-1172" font-family="Helvetica,sans-Serif" font-size="10.00"> </text>
<polyline fill="none" stroke="#bfbfbf" points="672.8,-1165 707.8,-1165 "/>
<text text-anchor="middle" x="690.3" y="-1153" font-family="Helvetica,sans-Serif" font-size="10.00"> </text>
</a>
</g>
</g>
<!-- Node10&#45;&gt;Node1 -->
<g id="edge20" class="edge">
<title>Node10&#45;&gt;Node1</title>
<path fill="none" stroke="#404040" d="M672.56,-1171.6C586.1,-1161.97 210.14,-1115.36 142.3,-1027 38.41,-891.69 176.03,-363.68 235.42,-157.31"/>
<polygon fill="none" stroke="#404040" points="235.46,-157.19 233.28,-150.31 238.79,-145.66 240.96,-152.53 235.46,-157.19"/>
<text text-anchor="middle" x="133.8" y="-767" font-family="Helvetica,sans-Serif" font-size="10.00"> #startTime</text>
</g>
<!-- Node10&#45;&gt;Node8 -->
<g id="edge9" class="edge">
<title>Node10&#45;&gt;Node8</title>
<path fill="none" stroke="#404040" d="M682.5,-1145.8C676.43,-1118.62 671.43,-1076.74 687.3,-1045 693.26,-1033.07 702.17,-1036.72 711.3,-1027 731.64,-1005.33 750.03,-977.58 763.63,-954.66"/>
<polygon fill="none" stroke="#404040" points="763.69,-954.55 763.24,-947.36 769.72,-944.18 770.16,-951.37 763.69,-954.55"/>
<text text-anchor="middle" x="743.3" y="-1092" font-family="Helvetica,sans-Serif" font-size="10.00"> +groundCheckDistance</text>
<text text-anchor="middle" x="743.3" y="-1081" font-family="Helvetica,sans-Serif" font-size="10.00">+ledgeCheckDistacne</text>
<text text-anchor="middle" x="743.3" y="-1070" font-family="Helvetica,sans-Serif" font-size="10.00">+playerDetectionDistance</text>
<text text-anchor="middle" x="743.3" y="-1059" font-family="Helvetica,sans-Serif" font-size="10.00">+topCheckDistance</text>
<text text-anchor="middle" x="743.3" y="-1048" font-family="Helvetica,sans-Serif" font-size="10.00">+wallCheckDistance</text>
</g>
<!-- Node10&#45;&gt;Node17 -->
<g id="edge18" class="edge">
<title>Node10&#45;&gt;Node17</title>
<path fill="none" stroke="#404040" d="M708.07,-1158.42C722.6,-1146.54 743.98,-1130.02 764.3,-1118 774.85,-1111.76 955.14,-1033.87 965.3,-1027 978.17,-1018.29 990.93,-1008.18 1003.07,-997.61"/>
<polygon fill="none" stroke="#404040" points="1003.27,-997.44 1005.09,-990.46 1012.23,-989.46 1010.41,-996.44 1003.27,-997.44"/>
<text text-anchor="middle" x="965.3" y="-1070" font-family="Helvetica,sans-Serif" font-size="10.00"> #interactionRadius</text>
</g>
<!-- Node11 -->
<g id="node11" class="node">
<title>Node11</title>
<g id="a_node11"><a xlink:title=" ">
<polygon fill="none" stroke="#bfbfbf" points="6.8,-1146 6.8,-1203 71.8,-1203 71.8,-1146 6.8,-1146"/>
<text text-anchor="middle" x="39.3" y="-1191" font-family="Helvetica,sans-Serif" font-size="10.00">LayerMask</text>
<polyline fill="none" stroke="#bfbfbf" points="6.8,-1184 71.8,-1184 "/>
<text text-anchor="middle" x="39.3" y="-1172" font-family="Helvetica,sans-Serif" font-size="10.00"> </text>
<polyline fill="none" stroke="#bfbfbf" points="6.8,-1165 71.8,-1165 "/>
<text text-anchor="middle" x="39.3" y="-1153" font-family="Helvetica,sans-Serif" font-size="10.00"> </text>
</a>
</g>
</g>
<!-- Node11&#45;&gt;Node8 -->
<g id="edge10" class="edge">
<title>Node11&#45;&gt;Node8</title>
<path fill="none" stroke="#404040" d="M71.89,-1165.36C158.22,-1143.97 400.08,-1085.05 603.3,-1045 651.04,-1035.59 670.54,-1053.59 711.3,-1027 737.53,-1009.89 756.72,-980.22 769.26,-955.17"/>
<polygon fill="none" stroke="#404040" points="769.4,-954.88 768.36,-947.74 774.56,-944.05 775.59,-951.18 769.4,-954.88"/>
<text text-anchor="middle" x="637.8" y="-1070" font-family="Helvetica,sans-Serif" font-size="10.00"> +whatIsGround</text>
</g>
<!-- Node12 -->
<g id="node12" class="node">
<title>Node12</title>
<g id="a_node12"><a xlink:title=" ">
<polygon fill="none" stroke="#bfbfbf" points="484.8,-881.5 484.8,-938.5 547.8,-938.5 547.8,-881.5 484.8,-881.5"/>
<text text-anchor="middle" x="516.3" y="-926.5" font-family="Helvetica,sans-Serif" font-size="10.00">UnityEvent</text>
<polyline fill="none" stroke="#bfbfbf" points="484.8,-919.5 547.8,-919.5 "/>
<text text-anchor="middle" x="516.3" y="-907.5" font-family="Helvetica,sans-Serif" font-size="10.00"> </text>
<polyline fill="none" stroke="#bfbfbf" points="484.8,-900.5 547.8,-900.5 "/>
<text text-anchor="middle" x="516.3" y="-888.5" font-family="Helvetica,sans-Serif" font-size="10.00"> </text>
</a>
</g>
</g>
<!-- Node12&#45;&gt;Node3 -->
<g id="edge11" class="edge">
<title>Node12&#45;&gt;Node3</title>
<path fill="none" stroke="#404040" d="M525.28,-881.04C533.1,-857.35 545.08,-822.62 557.3,-793 575.91,-747.88 597.56,-700 618.6,-655.33"/>
<polygon fill="none" stroke="#404040" points="618.66,-655.2 617.61,-648.07 623.79,-644.35 624.84,-651.48 618.66,-655.2"/>
<text text-anchor="middle" x="601.8" y="-767" font-family="Helvetica,sans-Serif" font-size="10.00"> +OnLandEvent</text>
</g>
<!-- Node13 -->
<g id="node13" class="node">
<title>Node13</title>
<g id="a_node13"><a xlink:href="class_controllers_1_1_movement_1_1_base_movement_controller.html" target="_top" xlink:title=" ">
<polygon fill="none" stroke="black" points="566.3,-876 566.3,-944 702.3,-944 702.3,-876 566.3,-876"/>
<text text-anchor="start" x="574.3" y="-932" font-family="Helvetica,sans-Serif" font-size="10.00">Controllers.Movement.Base</text>
<text text-anchor="middle" x="634.3" y="-921" font-family="Helvetica,sans-Serif" font-size="10.00">MovementController</text>
<polyline fill="none" stroke="black" points="566.3,-914 702.3,-914 "/>
<text text-anchor="middle" x="634.3" y="-902" font-family="Helvetica,sans-Serif" font-size="10.00"> </text>
<polyline fill="none" stroke="black" points="566.3,-895 702.3,-895 "/>
<text text-anchor="middle" x="634.3" y="-883" font-family="Helvetica,sans-Serif" font-size="10.00"> </text>
</a>
</g>
</g>
<!-- Node13&#45;&gt;Node3 -->
<g id="edge12" class="edge">
<title>Node13&#45;&gt;Node3</title>
<path fill="none" stroke="#404040" d="M635.47,-875.74C636.84,-846.25 639.66,-802.09 645.3,-764 645.61,-761.91 645.92,-759.82 646.24,-757.72"/>
<polygon fill="none" stroke="#404040" points="646.28,-757.49 643.26,-750.94 648.15,-745.64 651.16,-752.18 646.28,-757.49"/>
<text text-anchor="middle" x="702.8" y="-767" font-family="Helvetica,sans-Serif" font-size="10.00"> #baseMovementController</text>
</g>
<!-- Node14 -->
<g id="node14" class="node">
<title>Node14</title>
<g id="a_node14"><a xlink:href="class_controllers_1_1_state_machine_1_1_controller_state_machine.html" target="_top" xlink:title="Controla el estado de un enemigo o NPC, desde que spawnea hasta que muere. Casi todos los metodos son...">
<polygon fill="none" stroke="black" points="1317.8,-859.5 1317.8,-960.5 1446.8,-960.5 1446.8,-859.5 1317.8,-859.5"/>
<text text-anchor="start" x="1325.8" y="-948.5" font-family="Helvetica,sans-Serif" font-size="10.00">Controllers.StateMachine.</text>
<text text-anchor="middle" x="1382.3" y="-937.5" font-family="Helvetica,sans-Serif" font-size="10.00">ControllerStateMachine</text>
<polyline fill="none" stroke="black" points="1317.8,-930.5 1446.8,-930.5 "/>
<text text-anchor="start" x="1325.8" y="-918.5" font-family="Helvetica,sans-Serif" font-size="10.00">+ State CurrentState</text>
<polyline fill="none" stroke="black" points="1317.8,-911.5 1446.8,-911.5 "/>
<text text-anchor="start" x="1325.8" y="-899.5" font-family="Helvetica,sans-Serif" font-size="10.00">+ void Initialize(State</text>
<text text-anchor="start" x="1325.8" y="-888.5" font-family="Helvetica,sans-Serif" font-size="10.00"> startState)</text>
<text text-anchor="start" x="1325.8" y="-877.5" font-family="Helvetica,sans-Serif" font-size="10.00">+ void ChangeState(State</text>
<text text-anchor="start" x="1325.8" y="-866.5" font-family="Helvetica,sans-Serif" font-size="10.00"> nextState)</text>
</a>
</g>
</g>
<!-- Node14&#45;&gt;Node1 -->
<g id="edge21" class="edge">
<title>Node14&#45;&gt;Node1</title>
<path fill="none" stroke="#404040" d="M1378.48,-859.36C1374.63,-830.23 1366.88,-793.47 1351.3,-764 1187.32,-453.86 1112.19,-364.76 806.3,-193 658.31,-109.9 457.6,-84.8 345.34,-77.24"/>
<polygon fill="none" stroke="#404040" points="345.07,-77.23 338.83,-80.84 333.1,-76.46 339.34,-72.85 345.07,-77.23"/>
<text text-anchor="middle" x="1373.8" y="-467" font-family="Helvetica,sans-Serif" font-size="10.00"> #stateMachine</text>
</g>
<!-- Node14&#45;&gt;Node3 -->
<g id="edge13" class="edge">
<title>Node14&#45;&gt;Node3</title>
<path fill="none" stroke="#404040" d="M1355.71,-859.3C1342.13,-837.12 1324.07,-811.8 1303.3,-793 1223.79,-721.06 954.98,-587.19 808.1,-516.68"/>
<polygon fill="none" stroke="#404040" points="807.7,-516.49 800.56,-517.5 796.87,-511.3 804.01,-510.29 807.7,-516.49"/>
<text text-anchor="middle" x="1314.3" y="-767" font-family="Helvetica,sans-Serif" font-size="10.00"> +StateMachine</text>
</g>
<!-- Node15 -->
<g id="node15" class="node">
<title>Node15</title>
<g id="a_node15"><a xlink:title=" ">
<polygon fill="none" stroke="#bfbfbf" points="872.3,-881.5 872.3,-938.5 956.3,-938.5 956.3,-881.5 872.3,-881.5"/>
<text text-anchor="middle" x="914.3" y="-926.5" font-family="Helvetica,sans-Serif" font-size="10.00">EControllerKind</text>
<polyline fill="none" stroke="#bfbfbf" points="872.3,-919.5 956.3,-919.5 "/>
<text text-anchor="middle" x="914.3" y="-907.5" font-family="Helvetica,sans-Serif" font-size="10.00"> </text>
<polyline fill="none" stroke="#bfbfbf" points="872.3,-900.5 956.3,-900.5 "/>
<text text-anchor="middle" x="914.3" y="-888.5" font-family="Helvetica,sans-Serif" font-size="10.00"> </text>
</a>
</g>
</g>
<!-- Node15&#45;&gt;Node3 -->
<g id="edge14" class="edge">
<title>Node15&#45;&gt;Node3</title>
<path fill="none" stroke="#404040" d="M902.36,-881.24C892.16,-857.68 877.01,-823.01 863.3,-793 843.83,-750.39 822.52,-704.83 802.15,-661.76"/>
<polygon fill="none" stroke="#404040" points="802.13,-661.72 795.94,-658.01 796.99,-650.87 803.17,-654.59 802.13,-661.72"/>
<text text-anchor="middle" x="884.3" y="-767" font-family="Helvetica,sans-Serif" font-size="10.00"> #controllerKind</text>
</g>
<!-- Node16 -->
<g id="node16" class="node">
<title>Node16</title>
<g id="a_node16"><a xlink:title=" ">
<polygon fill="none" stroke="#bfbfbf" points="1150.8,-1146 1150.8,-1203 1185.8,-1203 1185.8,-1146 1150.8,-1146"/>
<text text-anchor="middle" x="1168.3" y="-1191" font-family="Helvetica,sans-Serif" font-size="10.00">bool</text>
<polyline fill="none" stroke="#bfbfbf" points="1150.8,-1184 1185.8,-1184 "/>
<text text-anchor="middle" x="1168.3" y="-1172" font-family="Helvetica,sans-Serif" font-size="10.00"> </text>
<polyline fill="none" stroke="#bfbfbf" points="1150.8,-1165 1185.8,-1165 "/>
<text text-anchor="middle" x="1168.3" y="-1153" font-family="Helvetica,sans-Serif" font-size="10.00"> </text>
</a>
</g>
</g>
<!-- Node16&#45;&gt;Node3 -->
<g id="edge15" class="edge">
<title>Node16&#45;&gt;Node3</title>
<path fill="none" stroke="#404040" d="M1176.89,-1145.93C1195.72,-1080.02 1234.01,-910.08 1169.3,-793 1090.27,-650.02 917.74,-555.95 808.17,-508.08"/>
<polygon fill="none" stroke="#404040" points="808.13,-508.07 801.04,-509.36 797.11,-503.32 804.21,-502.02 808.13,-508.07"/>
<text text-anchor="middle" x="1256.8" y="-907.5" font-family="Helvetica,sans-Serif" font-size="10.00"> #playerFacingDirection</text>
</g>
<!-- Node16&#45;&gt;Node17 -->
<g id="edge19" class="edge">
<title>Node16&#45;&gt;Node17</title>
<path fill="none" stroke="#404040" d="M1150.68,-1164.08C1130.54,-1152.19 1098.65,-1129.66 1085.3,-1100 1076.76,-1081.03 1072.51,-1059.86 1070.95,-1038.75"/>
<polygon fill="none" stroke="#404040" points="1070.94,-1038.67 1066.65,-1032.88 1070.34,-1026.69 1074.64,-1032.48 1070.94,-1038.67"/>
<text text-anchor="middle" x="1133.8" y="-1092" font-family="Helvetica,sans-Serif" font-size="10.00"> +isEnrolledInDialogue</text>
<text text-anchor="middle" x="1133.8" y="-1081" font-family="Helvetica,sans-Serif" font-size="10.00">~moveOnDamaged</text>
<text text-anchor="middle" x="1133.8" y="-1070" font-family="Helvetica,sans-Serif" font-size="10.00">~praying</text>
<text text-anchor="middle" x="1133.8" y="-1059" font-family="Helvetica,sans-Serif" font-size="10.00">~respawning</text>
<text text-anchor="middle" x="1133.8" y="-1048" font-family="Helvetica,sans-Serif" font-size="10.00">~roll</text>
</g>
<!-- Node17&#45;&gt;Node3 -->
<g id="edge16" class="edge">
<title>Node17&#45;&gt;Node3</title>
<path fill="none" stroke="#404040" d="M1019.51,-793.38C1012.64,-783.23 1005.53,-773.3 998.3,-764 940.17,-689.21 864.92,-613.1 805.93,-557.13"/>
<polygon fill="none" stroke="#404040" points="805.7,-556.91 798.59,-555.7 796.97,-548.67 804.08,-549.89 805.7,-556.91"/>
<text text-anchor="middle" x="1044.3" y="-767" font-family="Helvetica,sans-Serif" font-size="10.00"> #playerController</text>
</g>
</g>
</svg>
