<?xml version="1.0" encoding="UTF-8" standalone="no"?>
<!DOCTYPE svg PUBLIC "-//W3C//DTD SVG 1.1//EN"
 "http://www.w3.org/Graphics/SVG/1.1/DTD/svg11.dtd">
<!-- Generated by graphviz version 2.48.0 (20210717.1556)
 -->
<!-- Title: GameManager Pages: 1 -->
<svg width="284pt" height="490pt"
 viewBox="0.00 0.00 284.00 490.00" xmlns="http://www.w3.org/2000/svg" xmlns:xlink="http://www.w3.org/1999/xlink">
<g id="graph0" class="graph" transform="scale(1 1) rotate(0) translate(4 486)">
<title>GameManager</title>
<!-- Node1 -->
<g id="node1" class="node">
<title>Node1</title>
<g id="a_node1"><a xlink:title=" ">
<polygon fill="#bfbfbf" stroke="black" points="37.5,-0.5 37.5,-376.5 186.5,-376.5 186.5,-0.5 37.5,-0.5"/>
<text text-anchor="middle" x="112" y="-364.5" font-family="Helvetica,sans-Serif" font-size="10.00">GameManager</text>
<polyline fill="none" stroke="black" points="37.5,-357.5 186.5,-357.5 "/>
<text text-anchor="start" x="45.5" y="-345.5" font-family="Helvetica,sans-Serif" font-size="10.00">+ bool IsPlayerAlive</text>
<text text-anchor="start" x="45.5" y="-334.5" font-family="Helvetica,sans-Serif" font-size="10.00">+ Vector3 LastDeathPosition</text>
<text text-anchor="start" x="45.5" y="-323.5" font-family="Helvetica,sans-Serif" font-size="10.00">+ static GameManager</text>
<text text-anchor="start" x="45.5" y="-312.5" font-family="Helvetica,sans-Serif" font-size="10.00"> Instance</text>
<polyline fill="none" stroke="black" points="37.5,-305.5 186.5,-305.5 "/>
<text text-anchor="start" x="45.5" y="-293.5" font-family="Helvetica,sans-Serif" font-size="10.00">+ bool GetMainMenuOn()</text>
<text text-anchor="start" x="45.5" y="-282.5" font-family="Helvetica,sans-Serif" font-size="10.00">+ void SetMainMenuOn</text>
<text text-anchor="start" x="45.5" y="-271.5" font-family="Helvetica,sans-Serif" font-size="10.00">(bool isMainMenuOn)</text>
<text text-anchor="start" x="45.5" y="-260.5" font-family="Helvetica,sans-Serif" font-size="10.00">+ void KillPlayer(Transform</text>
<text text-anchor="start" x="45.5" y="-249.5" font-family="Helvetica,sans-Serif" font-size="10.00"> deathTransf)</text>
<text text-anchor="start" x="45.5" y="-238.5" font-family="Helvetica,sans-Serif" font-size="10.00">+ void RespawnPlayer</text>
<text text-anchor="start" x="45.5" y="-227.5" font-family="Helvetica,sans-Serif" font-size="10.00">(bool isFirstRespawn</text>
<text text-anchor="start" x="45.5" y="-216.5" font-family="Helvetica,sans-Serif" font-size="10.00">=false)</text>
<text text-anchor="start" x="45.5" y="-205.5" font-family="Helvetica,sans-Serif" font-size="10.00">+ void SetInputEnabled</text>
<text text-anchor="start" x="45.5" y="-194.5" font-family="Helvetica,sans-Serif" font-size="10.00">(bool isEnabled)</text>
<text text-anchor="start" x="45.5" y="-183.5" font-family="Helvetica,sans-Serif" font-size="10.00">+ void SetCameraTarget</text>
<text text-anchor="start" x="45.5" y="-172.5" font-family="Helvetica,sans-Serif" font-size="10.00">(Transform target)</text>
<text text-anchor="start" x="45.5" y="-161.5" font-family="Helvetica,sans-Serif" font-size="10.00">+ void SetCameraOffset</text>
<text text-anchor="start" x="45.5" y="-150.5" font-family="Helvetica,sans-Serif" font-size="10.00">(Vector2 offset)</text>
<text text-anchor="start" x="45.5" y="-139.5" font-family="Helvetica,sans-Serif" font-size="10.00">+ void SetCameraOffsetX</text>
<text text-anchor="start" x="45.5" y="-128.5" font-family="Helvetica,sans-Serif" font-size="10.00">(float offsetX)</text>
<text text-anchor="start" x="45.5" y="-117.5" font-family="Helvetica,sans-Serif" font-size="10.00">+ bool GetIsInputEnabled()</text>
<text text-anchor="start" x="45.5" y="-106.5" font-family="Helvetica,sans-Serif" font-size="10.00">+ void SetCameraOffsetY</text>
<text text-anchor="start" x="45.5" y="-95.5" font-family="Helvetica,sans-Serif" font-size="10.00">(float offsetY)</text>
<text text-anchor="start" x="45.5" y="-84.5" font-family="Helvetica,sans-Serif" font-size="10.00">+ void SetCameraSize</text>
<text text-anchor="start" x="45.5" y="-73.5" font-family="Helvetica,sans-Serif" font-size="10.00">(float size)</text>
<text text-anchor="start" x="45.5" y="-62.5" font-family="Helvetica,sans-Serif" font-size="10.00">+ Vector2 GetCameraOffset()</text>
<text text-anchor="start" x="45.5" y="-51.5" font-family="Helvetica,sans-Serif" font-size="10.00">+ void SetCameraFollowTarget</text>
<text text-anchor="start" x="45.5" y="-40.5" font-family="Helvetica,sans-Serif" font-size="10.00">(bool follow)</text>
<text text-anchor="start" x="45.5" y="-29.5" font-family="Helvetica,sans-Serif" font-size="10.00">+ int GetMainMenuPhase()</text>
<text text-anchor="start" x="45.5" y="-18.5" font-family="Helvetica,sans-Serif" font-size="10.00">+ void SetMainMenuPhase</text>
<text text-anchor="start" x="45.5" y="-7.5" font-family="Helvetica,sans-Serif" font-size="10.00">(int mainMenuPhase)</text>
</a>
</g>
</g>
<!-- Node2 -->
<g id="node2" class="node">
<title>Node2</title>
<g id="a_node2"><a xlink:title=" ">
<polygon fill="none" stroke="#bfbfbf" points="0,-424.5 0,-481.5 50,-481.5 50,-424.5 0,-424.5"/>
<text text-anchor="middle" x="25" y="-469.5" font-family="Helvetica,sans-Serif" font-size="10.00">Camera</text>
<polyline fill="none" stroke="#bfbfbf" points="0,-462.5 50,-462.5 "/>
<text text-anchor="middle" x="25" y="-450.5" font-family="Helvetica,sans-Serif" font-size="10.00"> </text>
<polyline fill="none" stroke="#bfbfbf" points="0,-443.5 50,-443.5 "/>
<text text-anchor="middle" x="25" y="-431.5" font-family="Helvetica,sans-Serif" font-size="10.00"> </text>
</a>
</g>
</g>
<!-- Node2&#45;&gt;Node1 -->
<g id="edge1" class="edge">
<title>Node2&#45;&gt;Node1</title>
<path fill="none" stroke="#404040" d="M34.15,-424.4C37.49,-414.33 41.57,-402.01 46.1,-388.35"/>
<polygon fill="none" stroke="#404040" points="46.22,-387.97 44.31,-381.01 50,-376.58 51.91,-383.53 46.22,-387.97"/>
<text text-anchor="middle" x="76" y="-398" font-family="Helvetica,sans-Serif" font-size="10.00"> +CameraMain</text>
</g>
<!-- Node3 -->
<g id="node3" class="node">
<title>Node3</title>
<g id="a_node3"><a xlink:title=" ">
<polygon fill="none" stroke="#bfbfbf" points="72,-424.5 72,-481.5 152,-481.5 152,-424.5 72,-424.5"/>
<text text-anchor="middle" x="112" y="-469.5" font-family="Helvetica,sans-Serif" font-size="10.00">PlayerControls</text>
<polyline fill="none" stroke="#bfbfbf" points="72,-462.5 152,-462.5 "/>
<text text-anchor="middle" x="112" y="-450.5" font-family="Helvetica,sans-Serif" font-size="10.00"> </text>
<polyline fill="none" stroke="#bfbfbf" points="72,-443.5 152,-443.5 "/>
<text text-anchor="middle" x="112" y="-431.5" font-family="Helvetica,sans-Serif" font-size="10.00"> </text>
</a>
</g>
</g>
<!-- Node3&#45;&gt;Node1 -->
<g id="edge2" class="edge">
<title>Node3&#45;&gt;Node1</title>
<path fill="none" stroke="#404040" d="M112,-424.4C112,-414.43 112,-402.26 112,-388.76"/>
<polygon fill="none" stroke="#404040" points="112,-388.58 108,-382.58 112,-376.58 116,-382.58 112,-388.58"/>
<text text-anchor="middle" x="148" y="-398" font-family="Helvetica,sans-Serif" font-size="10.00"> +playerControls</text>
</g>
<!-- Node4 -->
<g id="node4" class="node">
<title>Node4</title>
<g id="a_node4"><a xlink:title=" ">
<polygon fill="none" stroke="#bfbfbf" points="192.5,-424.5 192.5,-481.5 221.5,-481.5 221.5,-424.5 192.5,-424.5"/>
<text text-anchor="middle" x="207" y="-469.5" font-family="Helvetica,sans-Serif" font-size="10.00">int</text>
<polyline fill="none" stroke="#bfbfbf" points="192.5,-462.5 221.5,-462.5 "/>
<text text-anchor="middle" x="207" y="-450.5" font-family="Helvetica,sans-Serif" font-size="10.00"> </text>
<polyline fill="none" stroke="#bfbfbf" points="192.5,-443.5 221.5,-443.5 "/>
<text text-anchor="middle" x="207" y="-431.5" font-family="Helvetica,sans-Serif" font-size="10.00"> </text>
</a>
</g>
</g>
<!-- Node4&#45;&gt;Node1 -->
<g id="edge3" class="edge">
<title>Node4&#45;&gt;Node1</title>
<path fill="none" stroke="#404040" d="M197.01,-424.4C193.33,-414.23 188.82,-401.76 183.82,-387.94"/>
<polygon fill="none" stroke="#404040" points="183.79,-387.86 177.98,-383.58 179.7,-376.58 185.51,-380.86 183.79,-387.86"/>
<text text-anchor="middle" x="232" y="-398" font-family="Helvetica,sans-Serif" font-size="10.00"> +PlayerDeathCount</text>
</g>
</g>
</svg>
