<?xml version="1.0" encoding="UTF-8" standalone="no"?>
<!DOCTYPE svg PUBLIC "-//W3C//DTD SVG 1.1//EN"
 "http://www.w3.org/Graphics/SVG/1.1/DTD/svg11.dtd">
<!-- Generated by graphviz version 2.48.0 (20210717.1556)
 -->
<!-- Title: Player.PlayerController Pages: 1 -->
<svg width="626pt" height="624pt"
 viewBox="0.00 0.00 625.50 624.00" xmlns="http://www.w3.org/2000/svg" xmlns:xlink="http://www.w3.org/1999/xlink">
<g id="graph0" class="graph" transform="scale(1 1) rotate(0) translate(4 620)">
<title>Player.PlayerController</title>
<!-- Node1 -->
<g id="node1" class="node">
<title>Node1</title>
<g id="a_node1"><a xlink:title=" ">
<polygon fill="#bfbfbf" stroke="black" points="215,-0.5 215,-156.5 358,-156.5 358,-0.5 215,-0.5"/>
<text text-anchor="middle" x="286.5" y="-144.5" font-family="Helvetica,sans-Serif" font-size="10.00">Player.PlayerController</text>
<polyline fill="none" stroke="black" points="215,-137.5 358,-137.5 "/>
<text text-anchor="middle" x="286.5" y="-125.5" font-family="Helvetica,sans-Serif" font-size="10.00"> </text>
<polyline fill="none" stroke="black" points="215,-118.5 358,-118.5 "/>
<text text-anchor="start" x="223" y="-106.5" font-family="Helvetica,sans-Serif" font-size="10.00">+ void EnterInteractionMode()</text>
<text text-anchor="start" x="223" y="-95.5" font-family="Helvetica,sans-Serif" font-size="10.00">+ void LandEvt()</text>
<text text-anchor="start" x="223" y="-84.5" font-family="Helvetica,sans-Serif" font-size="10.00">+ void OnAirEvt()</text>
<text text-anchor="start" x="223" y="-73.5" font-family="Helvetica,sans-Serif" font-size="10.00">+ bool IsFacingRight()</text>
<text text-anchor="start" x="223" y="-62.5" font-family="Helvetica,sans-Serif" font-size="10.00">+ void AnimStartPrayingEvt()</text>
<text text-anchor="start" x="223" y="-51.5" font-family="Helvetica,sans-Serif" font-size="10.00">+ void AnimRollEndEvt()</text>
<text text-anchor="start" x="223" y="-40.5" font-family="Helvetica,sans-Serif" font-size="10.00">+ void AnimFootStep1Evt()</text>
<text text-anchor="start" x="223" y="-29.5" font-family="Helvetica,sans-Serif" font-size="10.00">+ void AnimFootStep2Evt()</text>
<text text-anchor="start" x="223" y="-18.5" font-family="Helvetica,sans-Serif" font-size="10.00">~ void OnEnable()</text>
<text text-anchor="start" x="223" y="-7.5" font-family="Helvetica,sans-Serif" font-size="10.00">~ void OnDisable()</text>
</a>
</g>
</g>
<!-- Node2 -->
<g id="node2" class="node">
<title>Node2</title>
<g id="a_node2"><a xlink:href="class_player_1_1_player_movement_controller.html" target="_top" xlink:title=" ">
<polygon fill="none" stroke="black" points="206,-204.5 206,-371.5 367,-371.5 367,-204.5 206,-204.5"/>
<text text-anchor="middle" x="286.5" y="-359.5" font-family="Helvetica,sans-Serif" font-size="10.00">Player.PlayerMovementController</text>
<polyline fill="none" stroke="black" points="206,-352.5 367,-352.5 "/>
<text text-anchor="middle" x="286.5" y="-340.5" font-family="Helvetica,sans-Serif" font-size="10.00"> </text>
<polyline fill="none" stroke="black" points="206,-333.5 367,-333.5 "/>
<text text-anchor="start" x="214" y="-321.5" font-family="Helvetica,sans-Serif" font-size="10.00">+ void Move(float moveH,</text>
<text text-anchor="start" x="214" y="-310.5" font-family="Helvetica,sans-Serif" font-size="10.00"> float moveV, bool crouch,</text>
<text text-anchor="start" x="214" y="-299.5" font-family="Helvetica,sans-Serif" font-size="10.00"> bool jump, bool roll, bool</text>
<text text-anchor="start" x="214" y="-288.5" font-family="Helvetica,sans-Serif" font-size="10.00"> attacking)</text>
<text text-anchor="start" x="214" y="-277.5" font-family="Helvetica,sans-Serif" font-size="10.00">+ bool IsFacingRight()</text>
<text text-anchor="start" x="214" y="-266.5" font-family="Helvetica,sans-Serif" font-size="10.00">+ void EnableFlip()</text>
<text text-anchor="start" x="214" y="-255.5" font-family="Helvetica,sans-Serif" font-size="10.00">+ void DisableFlip()</text>
<text text-anchor="start" x="214" y="-244.5" font-family="Helvetica,sans-Serif" font-size="10.00">~ void AttackMovement</text>
<text text-anchor="start" x="214" y="-233.5" font-family="Helvetica,sans-Serif" font-size="10.00">(int power)</text>
<text text-anchor="start" x="214" y="-222.5" font-family="Helvetica,sans-Serif" font-size="10.00">~ void PrepareRespawn</text>
<text text-anchor="start" x="214" y="-211.5" font-family="Helvetica,sans-Serif" font-size="10.00">(Transform SpawnPoint)</text>
</a>
</g>
</g>
<!-- Node2&#45;&gt;Node1 -->
<g id="edge1" class="edge">
<title>Node2&#45;&gt;Node1</title>
<path fill="none" stroke="#404040" d="M286.5,-204.39C286.5,-192.73 286.5,-180.7 286.5,-168.92"/>
<polygon fill="none" stroke="#404040" points="286.5,-168.76 282.5,-162.76 286.5,-156.76 290.5,-162.76 286.5,-168.76"/>
<text text-anchor="middle" x="333.5" y="-178" font-family="Helvetica,sans-Serif" font-size="10.00"> #playerMovementCtrl</text>
</g>
<!-- Node3 -->
<g id="node3" class="node">
<title>Node3</title>
<g id="a_node3"><a xlink:title=" ">
<polygon fill="none" stroke="#bfbfbf" points="386,-458 386,-515 469,-515 469,-458 386,-458"/>
<text text-anchor="middle" x="427.5" y="-503" font-family="Helvetica,sans-Serif" font-size="10.00">MonoBehaviour</text>
<polyline fill="none" stroke="#bfbfbf" points="386,-496 469,-496 "/>
<text text-anchor="middle" x="427.5" y="-484" font-family="Helvetica,sans-Serif" font-size="10.00"> </text>
<polyline fill="none" stroke="#bfbfbf" points="386,-477 469,-477 "/>
<text text-anchor="middle" x="427.5" y="-465" font-family="Helvetica,sans-Serif" font-size="10.00"> </text>
</a>
</g>
</g>
<!-- Node3&#45;&gt;Node2 -->
<g id="edge2" class="edge">
<title>Node3&#45;&gt;Node2</title>
<path fill="none" stroke="midnightblue" d="M418.54,-447.78C413.09,-429.4 404.94,-407.53 393.5,-390 385.96,-378.45 376.84,-367.27 367.15,-356.84"/>
<polygon fill="none" stroke="midnightblue" points="415.22,-448.9 421.29,-457.58 421.96,-447.01 415.22,-448.9"/>
</g>
<!-- Node4 -->
<g id="node4" class="node">
<title>Node4</title>
<g id="a_node4"><a xlink:href="class_player_1_1_player_movement_controller_1_1_bool_event.html" target="_top" xlink:title=" ">
<polygon fill="none" stroke="black" points="122.5,-452.5 122.5,-520.5 286.5,-520.5 286.5,-452.5 122.5,-452.5"/>
<text text-anchor="start" x="130.5" y="-508.5" font-family="Helvetica,sans-Serif" font-size="10.00">Player.PlayerMovementController.</text>
<text text-anchor="middle" x="204.5" y="-497.5" font-family="Helvetica,sans-Serif" font-size="10.00">BoolEvent</text>
<polyline fill="none" stroke="black" points="122.5,-490.5 286.5,-490.5 "/>
<text text-anchor="middle" x="204.5" y="-478.5" font-family="Helvetica,sans-Serif" font-size="10.00"> </text>
<polyline fill="none" stroke="black" points="122.5,-471.5 286.5,-471.5 "/>
<text text-anchor="middle" x="204.5" y="-459.5" font-family="Helvetica,sans-Serif" font-size="10.00"> </text>
</a>
</g>
</g>
<!-- Node4&#45;&gt;Node2 -->
<g id="edge3" class="edge">
<title>Node4&#45;&gt;Node2</title>
<path fill="none" stroke="#404040" d="M212.93,-452.26C218.06,-433.65 225.22,-410.2 233.5,-390 234.51,-387.54 235.55,-385.07 236.63,-382.58"/>
<polygon fill="none" stroke="#404040" points="236.63,-382.58 235.45,-375.46 241.56,-371.63 242.74,-378.75 236.63,-382.58"/>
<text text-anchor="middle" x="272" y="-409.5" font-family="Helvetica,sans-Serif" font-size="10.00"> +OnCrouchEvent</text>
</g>
<!-- Node5 -->
<g id="node5" class="node">
<title>Node5</title>
<g id="a_node5"><a xlink:title=" ">
<polygon fill="none" stroke="#bfbfbf" points="155,-558.5 155,-615.5 254,-615.5 254,-558.5 155,-558.5"/>
<text text-anchor="middle" x="204.5" y="-603.5" font-family="Helvetica,sans-Serif" font-size="10.00">UnityEvent&lt; bool &gt;</text>
<polyline fill="none" stroke="#bfbfbf" points="155,-596.5 254,-596.5 "/>
<text text-anchor="middle" x="204.5" y="-584.5" font-family="Helvetica,sans-Serif" font-size="10.00"> </text>
<polyline fill="none" stroke="#bfbfbf" points="155,-577.5 254,-577.5 "/>
<text text-anchor="middle" x="204.5" y="-565.5" font-family="Helvetica,sans-Serif" font-size="10.00"> </text>
</a>
</g>
</g>
<!-- Node5&#45;&gt;Node4 -->
<g id="edge4" class="edge">
<title>Node5&#45;&gt;Node4</title>
<path fill="none" stroke="midnightblue" d="M204.5,-548.01C204.5,-538.96 204.5,-529.38 204.5,-520.58"/>
<polygon fill="none" stroke="midnightblue" points="201,-548.3 204.5,-558.3 208,-548.3 201,-548.3"/>
</g>
<!-- Node6 -->
<g id="node6" class="node">
<title>Node6</title>
<g id="a_node6"><a xlink:title=" ">
<polygon fill="none" stroke="#bfbfbf" points="305,-458 305,-515 368,-515 368,-458 305,-458"/>
<text text-anchor="middle" x="336.5" y="-503" font-family="Helvetica,sans-Serif" font-size="10.00">UnityEvent</text>
<polyline fill="none" stroke="#bfbfbf" points="305,-496 368,-496 "/>
<text text-anchor="middle" x="336.5" y="-484" font-family="Helvetica,sans-Serif" font-size="10.00"> </text>
<polyline fill="none" stroke="#bfbfbf" points="305,-477 368,-477 "/>
<text text-anchor="middle" x="336.5" y="-465" font-family="Helvetica,sans-Serif" font-size="10.00"> </text>
</a>
</g>
</g>
<!-- Node6&#45;&gt;Node2 -->
<g id="edge5" class="edge">
<title>Node6&#45;&gt;Node2</title>
<path fill="none" stroke="#404040" d="M330.47,-457.84C326.22,-438.73 320.27,-412.76 314.5,-390 313.95,-387.84 313.4,-385.67 312.83,-383.47"/>
<polygon fill="none" stroke="#404040" points="312.76,-383.21 307.37,-378.42 309.72,-371.6 315.11,-376.39 312.76,-383.21"/>
<text text-anchor="middle" x="357.5" y="-415" font-family="Helvetica,sans-Serif" font-size="10.00"> +OnAirEvent</text>
<text text-anchor="middle" x="357.5" y="-404" font-family="Helvetica,sans-Serif" font-size="10.00">+OnLandEvent</text>
</g>
<!-- Node7 -->
<g id="node7" class="node">
<title>Node7</title>
<g id="a_node7"><a xlink:title=" ">
<polygon fill="none" stroke="#bfbfbf" points="0,-458 0,-515 35,-515 35,-458 0,-458"/>
<text text-anchor="middle" x="17.5" y="-503" font-family="Helvetica,sans-Serif" font-size="10.00">float</text>
<polyline fill="none" stroke="#bfbfbf" points="0,-496 35,-496 "/>
<text text-anchor="middle" x="17.5" y="-484" font-family="Helvetica,sans-Serif" font-size="10.00"> </text>
<polyline fill="none" stroke="#bfbfbf" points="0,-477 35,-477 "/>
<text text-anchor="middle" x="17.5" y="-465" font-family="Helvetica,sans-Serif" font-size="10.00"> </text>
</a>
</g>
</g>
<!-- Node7&#45;&gt;Node1 -->
<g id="edge9" class="edge">
<title>Node7&#45;&gt;Node1</title>
<path fill="none" stroke="#404040" d="M18.81,-457.91C20.25,-438.6 23.25,-412.37 29.5,-390 53.85,-302.81 55.25,-274.12 112.5,-204 137.83,-172.98 172.69,-146 204.56,-125.16"/>
<polygon fill="none" stroke="#404040" points="204.68,-125.09 207.58,-118.48 214.79,-118.62 211.89,-125.22 204.68,-125.09"/>
<text text-anchor="middle" x="154.5" y="-285.5" font-family="Helvetica,sans-Serif" font-size="10.00"> #interactionRadius</text>
</g>
<!-- Node7&#45;&gt;Node2 -->
<g id="edge6" class="edge">
<title>Node7&#45;&gt;Node2</title>
<path fill="none" stroke="#404040" d="M22.65,-457.56C27.72,-432.97 36.05,-399.6 45.5,-390 64.43,-370.77 78.27,-381.59 103.5,-372 133.72,-360.51 166.03,-346.46 194.97,-333.22"/>
<polygon fill="none" stroke="#404040" points="194.99,-333.21 198.76,-327.07 205.89,-328.19 202.11,-334.33 194.99,-333.21"/>
<text text-anchor="middle" x="94" y="-426" font-family="Helvetica,sans-Serif" font-size="10.00"> +LedgeClimbXOffset1</text>
<text text-anchor="middle" x="94" y="-415" font-family="Helvetica,sans-Serif" font-size="10.00">+LedgeClimbXOffset2</text>
<text text-anchor="middle" x="94" y="-404" font-family="Helvetica,sans-Serif" font-size="10.00">+LedgeClimbYOffset1</text>
<text text-anchor="middle" x="94" y="-393" font-family="Helvetica,sans-Serif" font-size="10.00">+LedgeClimbYOffset2</text>
</g>
<!-- Node8 -->
<g id="node8" class="node">
<title>Node8</title>
<g id="a_node8"><a xlink:title=" ">
<polygon fill="none" stroke="#bfbfbf" points="54.5,-458 54.5,-515 104.5,-515 104.5,-458 54.5,-458"/>
<text text-anchor="middle" x="79.5" y="-503" font-family="Helvetica,sans-Serif" font-size="10.00">Vector3</text>
<polyline fill="none" stroke="#bfbfbf" points="54.5,-496 104.5,-496 "/>
<text text-anchor="middle" x="79.5" y="-484" font-family="Helvetica,sans-Serif" font-size="10.00"> </text>
<polyline fill="none" stroke="#bfbfbf" points="54.5,-477 104.5,-477 "/>
<text text-anchor="middle" x="79.5" y="-465" font-family="Helvetica,sans-Serif" font-size="10.00"> </text>
</a>
</g>
</g>
<!-- Node8&#45;&gt;Node2 -->
<g id="edge7" class="edge">
<title>Node8&#45;&gt;Node2</title>
<path fill="none" stroke="#404040" d="M104.81,-459.1C107.65,-456.59 110.57,-454.17 113.5,-452 126.91,-442.04 134.79,-445.92 146.5,-434 161.96,-418.26 155.79,-407.29 169.5,-390 177.75,-379.59 187.18,-369.43 197.04,-359.81"/>
<polygon fill="none" stroke="#404040" points="197.08,-359.77 198.68,-352.74 205.78,-351.51 204.19,-358.54 197.08,-359.77"/>
<text text-anchor="middle" x="192" y="-409.5" font-family="Helvetica,sans-Serif" font-size="10.00"> ~Velocity</text>
</g>
<!-- Node9 -->
<g id="node9" class="node">
<title>Node9</title>
<g id="a_node9"><a xlink:title=" ">
<polygon fill="none" stroke="#bfbfbf" points="506,-458 506,-515 541,-515 541,-458 506,-458"/>
<text text-anchor="middle" x="523.5" y="-503" font-family="Helvetica,sans-Serif" font-size="10.00">bool</text>
<polyline fill="none" stroke="#bfbfbf" points="506,-496 541,-496 "/>
<text text-anchor="middle" x="523.5" y="-484" font-family="Helvetica,sans-Serif" font-size="10.00"> </text>
<polyline fill="none" stroke="#bfbfbf" points="506,-477 541,-477 "/>
<text text-anchor="middle" x="523.5" y="-465" font-family="Helvetica,sans-Serif" font-size="10.00"> </text>
</a>
</g>
</g>
<!-- Node9&#45;&gt;Node1 -->
<g id="edge10" class="edge">
<title>Node9&#45;&gt;Node1</title>
<path fill="none" stroke="#404040" d="M529.88,-457.73C533.16,-438.34 535.21,-412.08 528.5,-390 499.62,-294.99 425.57,-207.81 366.93,-150.18"/>
<polygon fill="none" stroke="#404040" points="366.64,-149.9 359.55,-148.59 358.03,-141.54 365.12,-142.85 366.64,-149.9"/>
<text text-anchor="middle" x="569" y="-307.5" font-family="Helvetica,sans-Serif" font-size="10.00"> +isEnrolledInDialogue</text>
<text text-anchor="middle" x="569" y="-296.5" font-family="Helvetica,sans-Serif" font-size="10.00">~awaitingAttack</text>
<text text-anchor="middle" x="569" y="-285.5" font-family="Helvetica,sans-Serif" font-size="10.00">~praying</text>
<text text-anchor="middle" x="569" y="-274.5" font-family="Helvetica,sans-Serif" font-size="10.00">~respawning</text>
<text text-anchor="middle" x="569" y="-263.5" font-family="Helvetica,sans-Serif" font-size="10.00">~roll</text>
</g>
<!-- Node9&#45;&gt;Node2 -->
<g id="edge8" class="edge">
<title>Node9&#45;&gt;Node2</title>
<path fill="none" stroke="#404040" d="M505.8,-471.78C497.61,-465.57 487.68,-458.25 478.5,-452 465.96,-443.46 460.53,-444.41 449.5,-434 432.1,-417.58 435.08,-407.24 418.5,-390 405.87,-376.86 391.43,-364.06 376.86,-352.22"/>
<polygon fill="none" stroke="#404040" points="376.66,-352.07 369.47,-351.46 367.27,-344.59 374.46,-345.2 376.66,-352.07"/>
<text text-anchor="middle" x="489" y="-420.5" font-family="Helvetica,sans-Serif" font-size="10.00"> ~Grounded</text>
<text text-anchor="middle" x="489" y="-409.5" font-family="Helvetica,sans-Serif" font-size="10.00">~IsTouchingLedge</text>
<text text-anchor="middle" x="489" y="-398.5" font-family="Helvetica,sans-Serif" font-size="10.00">~IsTouchingWall</text>
</g>
</g>
</svg>
