<?xml version="1.0" encoding="UTF-8" standalone="no"?>
<!DOCTYPE svg PUBLIC "-//W3C//DTD SVG 1.1//EN"
 "http://www.w3.org/Graphics/SVG/1.1/DTD/svg11.dtd">
<!-- Generated by graphviz version 2.48.0 (20210717.1556)
 -->
<!-- Title: Player.PlayerCombatController Pages: 1 -->
<svg width="909pt" height="762pt"
 viewBox="0.00 0.00 908.50 762.00" xmlns="http://www.w3.org/2000/svg" xmlns:xlink="http://www.w3.org/1999/xlink">
<g id="graph0" class="graph" transform="scale(1 1) rotate(0) translate(4 758)">
<title>Player.PlayerCombatController</title>
<!-- Node1 -->
<g id="node1" class="node">
<title>Node1</title>
<g id="a_node1"><a xlink:title=" ">
<polygon fill="#bfbfbf" stroke="black" points="489,-0.5 489,-101.5 646,-101.5 646,-0.5 489,-0.5"/>
<text text-anchor="middle" x="567.5" y="-89.5" font-family="Helvetica,sans-Serif" font-size="10.00">Player.PlayerCombatController</text>
<polyline fill="none" stroke="black" points="489,-82.5 646,-82.5 "/>
<text text-anchor="middle" x="567.5" y="-70.5" font-family="Helvetica,sans-Serif" font-size="10.00"> </text>
<polyline fill="none" stroke="black" points="489,-63.5 646,-63.5 "/>
<text text-anchor="start" x="497" y="-51.5" font-family="Helvetica,sans-Serif" font-size="10.00">+ void AnimAttackEndEvt()</text>
<text text-anchor="start" x="497" y="-40.5" font-family="Helvetica,sans-Serif" font-size="10.00">+ void AnimAttackSwingEvt()</text>
<text text-anchor="start" x="497" y="-29.5" font-family="Helvetica,sans-Serif" font-size="10.00">+ void AnimHasAttackAnimation</text>
<text text-anchor="start" x="497" y="-18.5" font-family="Helvetica,sans-Serif" font-size="10.00">StartedEvt()</text>
<text text-anchor="start" x="497" y="-7.5" font-family="Helvetica,sans-Serif" font-size="10.00">~ void ResetAttackNow()</text>
</a>
</g>
</g>
<!-- Node2 -->
<g id="node2" class="node">
<title>Node2</title>
<g id="a_node2"><a xlink:href="class_mono_behaviour.html" target="_top" xlink:title=" ">
<polygon fill="none" stroke="black" points="513,-596 513,-653 596,-653 596,-596 513,-596"/>
<text text-anchor="middle" x="554.5" y="-641" font-family="Helvetica,sans-Serif" font-size="10.00">MonoBehaviour</text>
<polyline fill="none" stroke="black" points="513,-634 596,-634 "/>
<text text-anchor="middle" x="554.5" y="-622" font-family="Helvetica,sans-Serif" font-size="10.00"> </text>
<polyline fill="none" stroke="black" points="513,-615 596,-615 "/>
<text text-anchor="middle" x="554.5" y="-603" font-family="Helvetica,sans-Serif" font-size="10.00"> </text>
</a>
</g>
</g>
<!-- Node2&#45;&gt;Node1 -->
<g id="edge1" class="edge">
<title>Node2&#45;&gt;Node1</title>
<path fill="none" stroke="midnightblue" d="M555.36,-585.7C557.64,-485.61 563.82,-213.76 566.37,-101.51"/>
<polygon fill="none" stroke="midnightblue" points="551.86,-585.86 555.13,-595.94 558.85,-586.02 551.86,-585.86"/>
</g>
<!-- Node3 -->
<g id="node3" class="node">
<title>Node3</title>
<g id="a_node3"><a xlink:href="class_player_1_1_player_movement_controller.html" target="_top" xlink:title=" ">
<polygon fill="none" stroke="black" points="226,-342.5 226,-509.5 387,-509.5 387,-342.5 226,-342.5"/>
<text text-anchor="middle" x="306.5" y="-497.5" font-family="Helvetica,sans-Serif" font-size="10.00">Player.PlayerMovementController</text>
<polyline fill="none" stroke="black" points="226,-490.5 387,-490.5 "/>
<text text-anchor="middle" x="306.5" y="-478.5" font-family="Helvetica,sans-Serif" font-size="10.00"> </text>
<polyline fill="none" stroke="black" points="226,-471.5 387,-471.5 "/>
<text text-anchor="start" x="234" y="-459.5" font-family="Helvetica,sans-Serif" font-size="10.00">+ void Move(float moveH,</text>
<text text-anchor="start" x="234" y="-448.5" font-family="Helvetica,sans-Serif" font-size="10.00"> float moveV, bool crouch,</text>
<text text-anchor="start" x="234" y="-437.5" font-family="Helvetica,sans-Serif" font-size="10.00"> bool jump, bool roll, bool</text>
<text text-anchor="start" x="234" y="-426.5" font-family="Helvetica,sans-Serif" font-size="10.00"> attacking)</text>
<text text-anchor="start" x="234" y="-415.5" font-family="Helvetica,sans-Serif" font-size="10.00">+ bool IsFacingRight()</text>
<text text-anchor="start" x="234" y="-404.5" font-family="Helvetica,sans-Serif" font-size="10.00">+ void EnableFlip()</text>
<text text-anchor="start" x="234" y="-393.5" font-family="Helvetica,sans-Serif" font-size="10.00">+ void DisableFlip()</text>
<text text-anchor="start" x="234" y="-382.5" font-family="Helvetica,sans-Serif" font-size="10.00">~ void AttackMovement</text>
<text text-anchor="start" x="234" y="-371.5" font-family="Helvetica,sans-Serif" font-size="10.00">(int power)</text>
<text text-anchor="start" x="234" y="-360.5" font-family="Helvetica,sans-Serif" font-size="10.00">~ void PrepareRespawn</text>
<text text-anchor="start" x="234" y="-349.5" font-family="Helvetica,sans-Serif" font-size="10.00">(Transform SpawnPoint)</text>
</a>
</g>
</g>
<!-- Node2&#45;&gt;Node3 -->
<g id="edge3" class="edge">
<title>Node2&#45;&gt;Node3</title>
<path fill="none" stroke="midnightblue" d="M503.27,-608.61C479.46,-600.19 451.6,-588.08 429.5,-572 428.54,-571.3 403.62,-541.97 376.46,-509.87"/>
<polygon fill="none" stroke="midnightblue" points="502.26,-611.96 512.85,-611.88 504.52,-605.34 502.26,-611.96"/>
</g>
<!-- Node10 -->
<g id="node10" class="node">
<title>Node10</title>
<g id="a_node10"><a xlink:href="class_player_1_1_player_ladder_climbing_controller.html" target="_top" xlink:title=" ">
<polygon fill="none" stroke="black" points="595.5,-392 595.5,-460 737.5,-460 737.5,-392 595.5,-392"/>
<text text-anchor="start" x="603.5" y="-448" font-family="Helvetica,sans-Serif" font-size="10.00">Player.PlayerLadderClimbing</text>
<text text-anchor="middle" x="666.5" y="-437" font-family="Helvetica,sans-Serif" font-size="10.00">Controller</text>
<polyline fill="none" stroke="black" points="595.5,-430 737.5,-430 "/>
<text text-anchor="middle" x="666.5" y="-418" font-family="Helvetica,sans-Serif" font-size="10.00"> </text>
<polyline fill="none" stroke="black" points="595.5,-411 737.5,-411 "/>
<text text-anchor="middle" x="666.5" y="-399" font-family="Helvetica,sans-Serif" font-size="10.00"> </text>
</a>
</g>
</g>
<!-- Node2&#45;&gt;Node10 -->
<g id="edge11" class="edge">
<title>Node2&#45;&gt;Node10</title>
<path fill="none" stroke="midnightblue" d="M575.33,-586.95C596.05,-550.59 627.57,-495.3 647.59,-460.17"/>
<polygon fill="none" stroke="midnightblue" points="572.22,-585.34 570.31,-595.76 578.3,-588.81 572.22,-585.34"/>
</g>
<!-- Node11 -->
<g id="node11" class="node">
<title>Node11</title>
<g id="a_node11"><a xlink:href="class_player_1_1_player_controller.html" target="_top" xlink:title=" ">
<polygon fill="none" stroke="black" points="398,-149.5 398,-294.5 539,-294.5 539,-149.5 398,-149.5"/>
<text text-anchor="middle" x="468.5" y="-282.5" font-family="Helvetica,sans-Serif" font-size="10.00">Player.PlayerController</text>
<polyline fill="none" stroke="black" points="398,-275.5 539,-275.5 "/>
<text text-anchor="middle" x="468.5" y="-263.5" font-family="Helvetica,sans-Serif" font-size="10.00"> </text>
<polyline fill="none" stroke="black" points="398,-256.5 539,-256.5 "/>
<text text-anchor="start" x="406" y="-244.5" font-family="Helvetica,sans-Serif" font-size="10.00">+ void LandEvt()</text>
<text text-anchor="start" x="406" y="-233.5" font-family="Helvetica,sans-Serif" font-size="10.00">+ void OnAirEvt()</text>
<text text-anchor="start" x="406" y="-222.5" font-family="Helvetica,sans-Serif" font-size="10.00">+ bool IsFacingRight()</text>
<text text-anchor="start" x="406" y="-211.5" font-family="Helvetica,sans-Serif" font-size="10.00">+ void AnimStartPrayingEvt()</text>
<text text-anchor="start" x="406" y="-200.5" font-family="Helvetica,sans-Serif" font-size="10.00">+ void AnimRollEndEvt()</text>
<text text-anchor="start" x="406" y="-189.5" font-family="Helvetica,sans-Serif" font-size="10.00">+ void AnimFootStep1Evt()</text>
<text text-anchor="start" x="406" y="-178.5" font-family="Helvetica,sans-Serif" font-size="10.00">+ void AnimFootStep2Evt()</text>
<text text-anchor="start" x="406" y="-167.5" font-family="Helvetica,sans-Serif" font-size="10.00">~ void OnEnable()</text>
<text text-anchor="start" x="406" y="-156.5" font-family="Helvetica,sans-Serif" font-size="10.00">~ void OnDisable()</text>
</a>
</g>
</g>
<!-- Node2&#45;&gt;Node11 -->
<g id="edge15" class="edge">
<title>Node2&#45;&gt;Node11</title>
<path fill="none" stroke="midnightblue" d="M546.88,-585.72C535.02,-527.2 511.22,-411.16 489.5,-313 488.18,-307.05 486.79,-300.88 485.38,-294.69"/>
<polygon fill="none" stroke="midnightblue" points="543.47,-586.51 548.89,-595.62 550.33,-585.13 543.47,-586.51"/>
</g>
<!-- Node3&#45;&gt;Node1 -->
<g id="edge2" class="edge">
<title>Node3&#45;&gt;Node1</title>
<path fill="none" stroke="#404040" d="M297.35,-342.43C295.2,-282.96 302.01,-203.84 343.5,-149 375.56,-106.63 429.94,-82.49 477.09,-68.9"/>
<polygon fill="none" stroke="#404040" points="477.33,-68.83 482.07,-63.39 488.91,-65.66 484.18,-71.1 477.33,-68.83"/>
<text text-anchor="middle" x="366.5" y="-219.5" font-family="Helvetica,sans-Serif" font-size="10.00"> #pMovCtrl</text>
</g>
<!-- Node3&#45;&gt;Node11 -->
<g id="edge16" class="edge">
<title>Node3&#45;&gt;Node11</title>
<path fill="none" stroke="#404040" d="M372.86,-342.26C382.96,-329.67 393.37,-316.69 403.43,-304.13"/>
<polygon fill="none" stroke="#404040" points="403.55,-303.99 404.18,-296.81 411.06,-294.63 410.42,-301.81 403.55,-303.99"/>
<text text-anchor="middle" x="438.5" y="-316" font-family="Helvetica,sans-Serif" font-size="10.00"> #playerMovementCtrl</text>
</g>
<!-- Node4 -->
<g id="node4" class="node">
<title>Node4</title>
<g id="a_node4"><a xlink:href="class_player_1_1_player_movement_controller_1_1_bool_event.html" target="_top" xlink:title=" ">
<polygon fill="none" stroke="black" points="54.5,-590.5 54.5,-658.5 218.5,-658.5 218.5,-590.5 54.5,-590.5"/>
<text text-anchor="start" x="62.5" y="-646.5" font-family="Helvetica,sans-Serif" font-size="10.00">Player.PlayerMovementController.</text>
<text text-anchor="middle" x="136.5" y="-635.5" font-family="Helvetica,sans-Serif" font-size="10.00">BoolEvent</text>
<polyline fill="none" stroke="black" points="54.5,-628.5 218.5,-628.5 "/>
<text text-anchor="middle" x="136.5" y="-616.5" font-family="Helvetica,sans-Serif" font-size="10.00"> </text>
<polyline fill="none" stroke="black" points="54.5,-609.5 218.5,-609.5 "/>
<text text-anchor="middle" x="136.5" y="-597.5" font-family="Helvetica,sans-Serif" font-size="10.00"> </text>
</a>
</g>
</g>
<!-- Node4&#45;&gt;Node3 -->
<g id="edge4" class="edge">
<title>Node4&#45;&gt;Node3</title>
<path fill="none" stroke="#404040" d="M149.21,-590.14C157.52,-570.83 169.59,-546.73 184.5,-528 194.05,-516 205.24,-504.44 216.89,-493.69"/>
<polygon fill="none" stroke="#404040" points="216.93,-493.64 218.73,-486.66 225.87,-485.63 224.07,-492.61 216.93,-493.64"/>
<text text-anchor="middle" x="223" y="-547.5" font-family="Helvetica,sans-Serif" font-size="10.00"> +OnCrouchEvent</text>
</g>
<!-- Node5 -->
<g id="node5" class="node">
<title>Node5</title>
<g id="a_node5"><a xlink:title=" ">
<polygon fill="none" stroke="#bfbfbf" points="87,-696.5 87,-753.5 186,-753.5 186,-696.5 87,-696.5"/>
<text text-anchor="middle" x="136.5" y="-741.5" font-family="Helvetica,sans-Serif" font-size="10.00">UnityEvent&lt; bool &gt;</text>
<polyline fill="none" stroke="#bfbfbf" points="87,-734.5 186,-734.5 "/>
<text text-anchor="middle" x="136.5" y="-722.5" font-family="Helvetica,sans-Serif" font-size="10.00"> </text>
<polyline fill="none" stroke="#bfbfbf" points="87,-715.5 186,-715.5 "/>
<text text-anchor="middle" x="136.5" y="-703.5" font-family="Helvetica,sans-Serif" font-size="10.00"> </text>
</a>
</g>
</g>
<!-- Node5&#45;&gt;Node4 -->
<g id="edge5" class="edge">
<title>Node5&#45;&gt;Node4</title>
<path fill="none" stroke="midnightblue" d="M136.5,-686.01C136.5,-676.96 136.5,-667.38 136.5,-658.58"/>
<polygon fill="none" stroke="midnightblue" points="133,-686.3 136.5,-696.3 140,-686.3 133,-686.3"/>
</g>
<!-- Node6 -->
<g id="node6" class="node">
<title>Node6</title>
<g id="a_node6"><a xlink:title=" ">
<polygon fill="none" stroke="#bfbfbf" points="237,-596 237,-653 300,-653 300,-596 237,-596"/>
<text text-anchor="middle" x="268.5" y="-641" font-family="Helvetica,sans-Serif" font-size="10.00">UnityEvent</text>
<polyline fill="none" stroke="#bfbfbf" points="237,-634 300,-634 "/>
<text text-anchor="middle" x="268.5" y="-622" font-family="Helvetica,sans-Serif" font-size="10.00"> </text>
<polyline fill="none" stroke="#bfbfbf" points="237,-615 300,-615 "/>
<text text-anchor="middle" x="268.5" y="-603" font-family="Helvetica,sans-Serif" font-size="10.00"> </text>
</a>
</g>
</g>
<!-- Node6&#45;&gt;Node3 -->
<g id="edge6" class="edge">
<title>Node6&#45;&gt;Node3</title>
<path fill="none" stroke="#404040" d="M266.32,-595.68C265.42,-576.5 265.39,-550.51 269.5,-528 269.9,-525.82 270.34,-523.63 270.82,-521.43"/>
<polygon fill="none" stroke="#404040" points="270.86,-521.25 268.4,-514.48 273.71,-509.6 276.17,-516.38 270.86,-521.25"/>
<text text-anchor="middle" x="301.5" y="-553" font-family="Helvetica,sans-Serif" font-size="10.00"> +OnAirEvent</text>
<text text-anchor="middle" x="301.5" y="-542" font-family="Helvetica,sans-Serif" font-size="10.00">+OnLandEvent</text>
</g>
<!-- Node7 -->
<g id="node7" class="node">
<title>Node7</title>
<g id="a_node7"><a xlink:title=" ">
<polygon fill="none" stroke="#bfbfbf" points="0,-596 0,-653 35,-653 35,-596 0,-596"/>
<text text-anchor="middle" x="17.5" y="-641" font-family="Helvetica,sans-Serif" font-size="10.00">float</text>
<polyline fill="none" stroke="#bfbfbf" points="0,-634 35,-634 "/>
<text text-anchor="middle" x="17.5" y="-622" font-family="Helvetica,sans-Serif" font-size="10.00"> </text>
<polyline fill="none" stroke="#bfbfbf" points="0,-615 35,-615 "/>
<text text-anchor="middle" x="17.5" y="-603" font-family="Helvetica,sans-Serif" font-size="10.00"> </text>
</a>
</g>
</g>
<!-- Node7&#45;&gt;Node3 -->
<g id="edge7" class="edge">
<title>Node7&#45;&gt;Node3</title>
<path fill="none" stroke="#404040" d="M22.4,-595.92C27.59,-574.54 37.86,-545.68 57.5,-528 78.19,-509.38 91.37,-519.62 117.5,-510 149.7,-498.15 184.25,-483.55 214.89,-469.92"/>
<polygon fill="none" stroke="#404040" points="215.04,-469.86 218.88,-463.76 225.99,-464.95 222.15,-471.06 215.04,-469.86"/>
<text text-anchor="middle" x="106" y="-564" font-family="Helvetica,sans-Serif" font-size="10.00"> +LedgeClimbXOffset1</text>
<text text-anchor="middle" x="106" y="-553" font-family="Helvetica,sans-Serif" font-size="10.00">+LedgeClimbXOffset2</text>
<text text-anchor="middle" x="106" y="-542" font-family="Helvetica,sans-Serif" font-size="10.00">+LedgeClimbYOffset1</text>
<text text-anchor="middle" x="106" y="-531" font-family="Helvetica,sans-Serif" font-size="10.00">+LedgeClimbYOffset2</text>
</g>
<!-- Node7&#45;&gt;Node11 -->
<g id="edge17" class="edge">
<title>Node7&#45;&gt;Node11</title>
<path fill="none" stroke="#404040" d="M18.09,-595.8C20.99,-537.79 36.67,-403.8 118.5,-342 214.25,-269.68 278.54,-345.62 386.85,-297.89"/>
<polygon fill="none" stroke="#404040" points="386.98,-297.83 390.69,-291.65 397.82,-292.7 394.11,-298.88 386.98,-297.83"/>
<text text-anchor="middle" x="167.5" y="-423.5" font-family="Helvetica,sans-Serif" font-size="10.00"> +NextAttackMaxTime</text>
</g>
<!-- Node8 -->
<g id="node8" class="node">
<title>Node8</title>
<g id="a_node8"><a xlink:title=" ">
<polygon fill="none" stroke="#bfbfbf" points="330.5,-596 330.5,-653 380.5,-653 380.5,-596 330.5,-596"/>
<text text-anchor="middle" x="355.5" y="-641" font-family="Helvetica,sans-Serif" font-size="10.00">Vector3</text>
<polyline fill="none" stroke="#bfbfbf" points="330.5,-634 380.5,-634 "/>
<text text-anchor="middle" x="355.5" y="-622" font-family="Helvetica,sans-Serif" font-size="10.00"> </text>
<polyline fill="none" stroke="#bfbfbf" points="330.5,-615 380.5,-615 "/>
<text text-anchor="middle" x="355.5" y="-603" font-family="Helvetica,sans-Serif" font-size="10.00"> </text>
</a>
</g>
</g>
<!-- Node8&#45;&gt;Node3 -->
<g id="edge8" class="edge">
<title>Node8&#45;&gt;Node3</title>
<path fill="none" stroke="#404040" d="M349.4,-595.86C345.12,-576.76 339.17,-550.79 333.5,-528 332.96,-525.85 332.42,-523.67 331.86,-521.48"/>
<polygon fill="none" stroke="#404040" points="331.81,-521.24 326.45,-516.42 328.84,-509.62 334.2,-514.44 331.81,-521.24"/>
<text text-anchor="middle" x="365" y="-547.5" font-family="Helvetica,sans-Serif" font-size="10.00"> ~Velocity</text>
</g>
<!-- Node9 -->
<g id="node9" class="node">
<title>Node9</title>
<g id="a_node9"><a xlink:title=" ">
<polygon fill="none" stroke="#bfbfbf" points="703,-596 703,-653 738,-653 738,-596 703,-596"/>
<text text-anchor="middle" x="720.5" y="-641" font-family="Helvetica,sans-Serif" font-size="10.00">bool</text>
<polyline fill="none" stroke="#bfbfbf" points="703,-634 738,-634 "/>
<text text-anchor="middle" x="720.5" y="-622" font-family="Helvetica,sans-Serif" font-size="10.00"> </text>
<polyline fill="none" stroke="#bfbfbf" points="703,-615 738,-615 "/>
<text text-anchor="middle" x="720.5" y="-603" font-family="Helvetica,sans-Serif" font-size="10.00"> </text>
</a>
</g>
</g>
<!-- Node9&#45;&gt;Node1 -->
<g id="edge13" class="edge">
<title>Node9&#45;&gt;Node1</title>
<path fill="none" stroke="#404040" d="M738.02,-615.7C769.51,-600.58 834.79,-563.95 860.5,-510 892.63,-442.6 886.57,-411.97 860.5,-342 822.79,-240.79 727.73,-158.14 656.04,-107.33"/>
<polygon fill="none" stroke="#404040" points="655.92,-107.24 648.71,-107.09 646.08,-100.37 653.29,-100.53 655.92,-107.24"/>
<text text-anchor="middle" x="876" y="-316" font-family="Helvetica,sans-Serif" font-size="10.00"> ~attacking</text>
</g>
<!-- Node9&#45;&gt;Node3 -->
<g id="edge9" class="edge">
<title>Node9&#45;&gt;Node3</title>
<path fill="none" stroke="#404040" d="M703,-615.56C680.92,-605.52 641.82,-587.66 608.5,-572 537.64,-538.7 457.79,-500.32 398,-471.42"/>
<polygon fill="none" stroke="#404040" points="397.88,-471.36 390.74,-472.35 387.08,-466.14 394.22,-465.15 397.88,-471.36"/>
<text text-anchor="middle" x="648" y="-558.5" font-family="Helvetica,sans-Serif" font-size="10.00"> ~Grounded</text>
<text text-anchor="middle" x="648" y="-547.5" font-family="Helvetica,sans-Serif" font-size="10.00">~IsTouchingLedge</text>
<text text-anchor="middle" x="648" y="-536.5" font-family="Helvetica,sans-Serif" font-size="10.00">~IsTouchingWall</text>
</g>
<!-- Node9&#45;&gt;Node10 -->
<g id="edge12" class="edge">
<title>Node9&#45;&gt;Node10</title>
<path fill="none" stroke="#404040" d="M711.63,-595.77C709.25,-588.09 706.72,-579.74 704.5,-572 694.94,-538.62 685.03,-500.64 677.72,-471.93"/>
<polygon fill="none" stroke="#404040" points="677.7,-471.86 672.35,-467.03 674.76,-460.23 680.11,-465.06 677.7,-471.86"/>
<text text-anchor="middle" x="732" y="-547.5" font-family="Helvetica,sans-Serif" font-size="10.00"> ~isClimbing</text>
</g>
<!-- Node9&#45;&gt;Node11 -->
<g id="edge18" class="edge">
<title>Node9&#45;&gt;Node11</title>
<path fill="none" stroke="#404040" d="M738.2,-606.14C746.38,-596.87 755.21,-584.76 759.5,-572 779.35,-512.92 811.91,-423.89 746.5,-342 701.31,-285.42 656.83,-324.06 590.5,-295 576.99,-289.08 563.12,-281.99 549.79,-274.59"/>
<polygon fill="none" stroke="#404040" points="549.67,-274.52 542.48,-275.05 539.23,-268.61 546.43,-268.08 549.67,-274.52"/>
<text text-anchor="middle" x="821" y="-440" font-family="Helvetica,sans-Serif" font-size="10.00"> ~awaitingAttack</text>
<text text-anchor="middle" x="821" y="-429" font-family="Helvetica,sans-Serif" font-size="10.00">~praying</text>
<text text-anchor="middle" x="821" y="-418" font-family="Helvetica,sans-Serif" font-size="10.00">~respawning</text>
<text text-anchor="middle" x="821" y="-407" font-family="Helvetica,sans-Serif" font-size="10.00">~roll</text>
</g>
<!-- Node10&#45;&gt;Node1 -->
<g id="edge10" class="edge">
<title>Node10&#45;&gt;Node1</title>
<path fill="none" stroke="#404040" d="M657.71,-391.9C641.13,-329.41 604.97,-193.18 583.81,-113.46"/>
<polygon fill="none" stroke="#404040" points="583.76,-113.25 578.35,-108.48 580.68,-101.65 586.08,-106.42 583.76,-113.25"/>
<text text-anchor="middle" x="660.5" y="-219.5" font-family="Helvetica,sans-Serif" font-size="10.00"> #pLadderCtrl</text>
</g>
<!-- Node11&#45;&gt;Node1 -->
<g id="edge14" class="edge">
<title>Node11&#45;&gt;Node1</title>
<path fill="none" stroke="#404040" d="M507.61,-149.25C513.19,-139.37 518.93,-129.4 524.5,-120 526.06,-117.37 527.66,-114.7 529.3,-112"/>
<polygon fill="none" stroke="#404040" points="529.43,-111.79 529.15,-104.59 535.7,-101.56 535.97,-108.77 529.43,-111.79"/>
<text text-anchor="middle" x="539" y="-123" font-family="Helvetica,sans-Serif" font-size="10.00"> #pCtrl</text>
</g>
</g>
</svg>
