<?xml version="1.0" encoding="UTF-8" standalone="no"?>
<!DOCTYPE svg PUBLIC "-//W3C//DTD SVG 1.1//EN"
 "http://www.w3.org/Graphics/SVG/1.1/DTD/svg11.dtd">
<!-- Generated by graphviz version 2.48.0 (20210717.1556)
 -->
<!-- Title: Player.PlayerCombatController Pages: 1 -->
<svg width="806pt" height="773pt"
 viewBox="0.00 0.00 806.04 773.00" xmlns="http://www.w3.org/2000/svg" xmlns:xlink="http://www.w3.org/1999/xlink">
<g id="graph0" class="graph" transform="scale(1 1) rotate(0) translate(4 769)">
<title>Player.PlayerCombatController</title>
<!-- Node1 -->
<g id="node1" class="node">
<title>Node1</title>
<g id="a_node1"><a xlink:title=" ">
<polygon fill="#bfbfbf" stroke="black" points="114.04,-0.5 114.04,-101.5 271.04,-101.5 271.04,-0.5 114.04,-0.5"/>
<text text-anchor="middle" x="192.54" y="-89.5" font-family="Helvetica,sans-Serif" font-size="10.00">Player.PlayerCombatController</text>
<polyline fill="none" stroke="black" points="114.04,-82.5 271.04,-82.5 "/>
<text text-anchor="middle" x="192.54" y="-70.5" font-family="Helvetica,sans-Serif" font-size="10.00"> </text>
<polyline fill="none" stroke="black" points="114.04,-63.5 271.04,-63.5 "/>
<text text-anchor="start" x="122.04" y="-51.5" font-family="Helvetica,sans-Serif" font-size="10.00">+ void AnimAttackEndEvt()</text>
<text text-anchor="start" x="122.04" y="-40.5" font-family="Helvetica,sans-Serif" font-size="10.00">+ void AnimAttackSwingEvt()</text>
<text text-anchor="start" x="122.04" y="-29.5" font-family="Helvetica,sans-Serif" font-size="10.00">+ void AnimHasAttackAnimation</text>
<text text-anchor="start" x="122.04" y="-18.5" font-family="Helvetica,sans-Serif" font-size="10.00">StartedEvt()</text>
<text text-anchor="start" x="122.04" y="-7.5" font-family="Helvetica,sans-Serif" font-size="10.00">~ void ResetAttackNow()</text>
</a>
</g>
</g>
<!-- Node2 -->
<g id="node2" class="node">
<title>Node2</title>
<g id="a_node2"><a xlink:title=" ">
<polygon fill="none" stroke="#bfbfbf" points="48.04,-607 48.04,-664 131.04,-664 131.04,-607 48.04,-607"/>
<text text-anchor="middle" x="89.54" y="-652" font-family="Helvetica,sans-Serif" font-size="10.00">MonoBehaviour</text>
<polyline fill="none" stroke="#bfbfbf" points="48.04,-645 131.04,-645 "/>
<text text-anchor="middle" x="89.54" y="-633" font-family="Helvetica,sans-Serif" font-size="10.00"> </text>
<polyline fill="none" stroke="#bfbfbf" points="48.04,-626 131.04,-626 "/>
<text text-anchor="middle" x="89.54" y="-614" font-family="Helvetica,sans-Serif" font-size="10.00"> </text>
</a>
</g>
</g>
<!-- Node2&#45;&gt;Node1 -->
<g id="edge1" class="edge">
<title>Node2&#45;&gt;Node1</title>
<path fill="none" stroke="midnightblue" d="M57.46,-598.66C40.84,-577.64 22.24,-549.64 13.54,-521 -8.17,-449.56 0.61,-426.54 13.54,-353 30.23,-258.01 34.16,-229.33 87.54,-149 98.94,-131.84 113.98,-115.62 129.11,-101.52"/>
<polygon fill="none" stroke="midnightblue" points="54.93,-601.09 63.95,-606.65 60.36,-596.68 54.93,-601.09"/>
</g>
<!-- Node3 -->
<g id="node3" class="node">
<title>Node3</title>
<g id="a_node3"><a xlink:href="class_player_1_1_player_movement_controller.html" target="_top" xlink:title=" ">
<polygon fill="none" stroke="black" points="474.04,-353.5 474.04,-520.5 635.04,-520.5 635.04,-353.5 474.04,-353.5"/>
<text text-anchor="middle" x="554.54" y="-508.5" font-family="Helvetica,sans-Serif" font-size="10.00">Player.PlayerMovementController</text>
<polyline fill="none" stroke="black" points="474.04,-501.5 635.04,-501.5 "/>
<text text-anchor="middle" x="554.54" y="-489.5" font-family="Helvetica,sans-Serif" font-size="10.00"> </text>
<polyline fill="none" stroke="black" points="474.04,-482.5 635.04,-482.5 "/>
<text text-anchor="start" x="482.04" y="-470.5" font-family="Helvetica,sans-Serif" font-size="10.00">+ void Move(float moveH,</text>
<text text-anchor="start" x="482.04" y="-459.5" font-family="Helvetica,sans-Serif" font-size="10.00"> float moveV, bool crouch,</text>
<text text-anchor="start" x="482.04" y="-448.5" font-family="Helvetica,sans-Serif" font-size="10.00"> bool jump, bool roll, bool</text>
<text text-anchor="start" x="482.04" y="-437.5" font-family="Helvetica,sans-Serif" font-size="10.00"> attacking)</text>
<text text-anchor="start" x="482.04" y="-426.5" font-family="Helvetica,sans-Serif" font-size="10.00">+ bool IsFacingRight()</text>
<text text-anchor="start" x="482.04" y="-415.5" font-family="Helvetica,sans-Serif" font-size="10.00">+ void EnableFlip()</text>
<text text-anchor="start" x="482.04" y="-404.5" font-family="Helvetica,sans-Serif" font-size="10.00">+ void DisableFlip()</text>
<text text-anchor="start" x="482.04" y="-393.5" font-family="Helvetica,sans-Serif" font-size="10.00">~ void AttackMovement</text>
<text text-anchor="start" x="482.04" y="-382.5" font-family="Helvetica,sans-Serif" font-size="10.00">(int power)</text>
<text text-anchor="start" x="482.04" y="-371.5" font-family="Helvetica,sans-Serif" font-size="10.00">~ void PrepareRespawn</text>
<text text-anchor="start" x="482.04" y="-360.5" font-family="Helvetica,sans-Serif" font-size="10.00">(Transform SpawnPoint)</text>
</a>
</g>
</g>
<!-- Node2&#45;&gt;Node3 -->
<g id="edge3" class="edge">
<title>Node2&#45;&gt;Node3</title>
<path fill="none" stroke="midnightblue" d="M140.16,-606.69C153.94,-599.07 168.84,-590.76 182.54,-583 216.5,-563.77 221.33,-550.8 258.54,-539 344.03,-511.89 377.06,-556.23 459.54,-521 464.37,-518.94 469.13,-516.53 473.8,-513.86"/>
<polygon fill="none" stroke="midnightblue" points="138.36,-603.69 131.3,-611.6 141.74,-609.82 138.36,-603.69"/>
</g>
<!-- Node10 -->
<g id="node10" class="node">
<title>Node10</title>
<g id="a_node10"><a xlink:href="class_player_1_1_player_ladder_climbing_controller.html" target="_top" xlink:title=" ">
<polygon fill="none" stroke="black" points="22.54,-403 22.54,-471 164.54,-471 164.54,-403 22.54,-403"/>
<text text-anchor="start" x="30.54" y="-459" font-family="Helvetica,sans-Serif" font-size="10.00">Player.PlayerLadderClimbing</text>
<text text-anchor="middle" x="93.54" y="-448" font-family="Helvetica,sans-Serif" font-size="10.00">Controller</text>
<polyline fill="none" stroke="black" points="22.54,-441 164.54,-441 "/>
<text text-anchor="middle" x="93.54" y="-429" font-family="Helvetica,sans-Serif" font-size="10.00"> </text>
<polyline fill="none" stroke="black" points="22.54,-422 164.54,-422 "/>
<text text-anchor="middle" x="93.54" y="-410" font-family="Helvetica,sans-Serif" font-size="10.00"> </text>
</a>
</g>
</g>
<!-- Node2&#45;&gt;Node10 -->
<g id="edge11" class="edge">
<title>Node2&#45;&gt;Node10</title>
<path fill="none" stroke="midnightblue" d="M90.31,-596.56C91.05,-560.19 92.16,-505.85 92.86,-471.17"/>
<polygon fill="none" stroke="midnightblue" points="86.81,-596.69 90.1,-606.76 93.8,-596.84 86.81,-596.69"/>
</g>
<!-- Node3&#45;&gt;Node1 -->
<g id="edge2" class="edge">
<title>Node3&#45;&gt;Node1</title>
<path fill="none" stroke="#404040" d="M539.62,-353.28C536.78,-343.25 533.44,-333.27 529.54,-324 493.52,-238.45 486.42,-208.93 415.54,-149 377.14,-116.53 326.2,-93.28 282.7,-77.7"/>
<polygon fill="none" stroke="#404040" points="282.56,-77.65 275.58,-79.45 271.23,-73.7 278.21,-71.9 282.56,-77.65"/>
<text text-anchor="middle" x="545.54" y="-225" font-family="Helvetica,sans-Serif" font-size="10.00"> #pMovCtrl</text>
</g>
<!-- Node11 -->
<g id="node11" class="node">
<title>Node11</title>
<g id="a_node11"><a xlink:href="class_player_1_1_player_controller.html" target="_top" xlink:title=" ">
<polygon fill="none" stroke="black" points="264.04,-149.5 264.04,-305.5 407.04,-305.5 407.04,-149.5 264.04,-149.5"/>
<text text-anchor="middle" x="335.54" y="-293.5" font-family="Helvetica,sans-Serif" font-size="10.00">Player.PlayerController</text>
<polyline fill="none" stroke="black" points="264.04,-286.5 407.04,-286.5 "/>
<text text-anchor="middle" x="335.54" y="-274.5" font-family="Helvetica,sans-Serif" font-size="10.00"> </text>
<polyline fill="none" stroke="black" points="264.04,-267.5 407.04,-267.5 "/>
<text text-anchor="start" x="272.04" y="-255.5" font-family="Helvetica,sans-Serif" font-size="10.00">+ void EnterInteractionMode()</text>
<text text-anchor="start" x="272.04" y="-244.5" font-family="Helvetica,sans-Serif" font-size="10.00">+ void LandEvt()</text>
<text text-anchor="start" x="272.04" y="-233.5" font-family="Helvetica,sans-Serif" font-size="10.00">+ void OnAirEvt()</text>
<text text-anchor="start" x="272.04" y="-222.5" font-family="Helvetica,sans-Serif" font-size="10.00">+ bool IsFacingRight()</text>
<text text-anchor="start" x="272.04" y="-211.5" font-family="Helvetica,sans-Serif" font-size="10.00">+ void AnimStartPrayingEvt()</text>
<text text-anchor="start" x="272.04" y="-200.5" font-family="Helvetica,sans-Serif" font-size="10.00">+ void AnimRollEndEvt()</text>
<text text-anchor="start" x="272.04" y="-189.5" font-family="Helvetica,sans-Serif" font-size="10.00">+ void AnimFootStep1Evt()</text>
<text text-anchor="start" x="272.04" y="-178.5" font-family="Helvetica,sans-Serif" font-size="10.00">+ void AnimFootStep2Evt()</text>
<text text-anchor="start" x="272.04" y="-167.5" font-family="Helvetica,sans-Serif" font-size="10.00">~ void OnEnable()</text>
<text text-anchor="start" x="272.04" y="-156.5" font-family="Helvetica,sans-Serif" font-size="10.00">~ void OnDisable()</text>
</a>
</g>
</g>
<!-- Node3&#45;&gt;Node11 -->
<g id="edge15" class="edge">
<title>Node3&#45;&gt;Node11</title>
<path fill="none" stroke="#404040" d="M473.78,-364.73C468.99,-360.72 464.22,-356.79 459.54,-353 449.18,-344.61 445.47,-343.89 435.54,-335 428.2,-328.43 420.79,-321.41 413.5,-314.22"/>
<polygon fill="none" stroke="#404040" points="413.49,-314.21 406.42,-312.79 405.01,-305.72 412.08,-307.14 413.49,-314.21"/>
<text text-anchor="middle" x="482.54" y="-327" font-family="Helvetica,sans-Serif" font-size="10.00"> #playerMovementCtrl</text>
</g>
<!-- Node4 -->
<g id="node4" class="node">
<title>Node4</title>
<g id="a_node4"><a xlink:href="class_player_1_1_player_movement_controller_1_1_bool_event.html" target="_top" xlink:title=" ">
<polygon fill="none" stroke="black" points="552.54,-601.5 552.54,-669.5 716.54,-669.5 716.54,-601.5 552.54,-601.5"/>
<text text-anchor="start" x="560.54" y="-657.5" font-family="Helvetica,sans-Serif" font-size="10.00">Player.PlayerMovementController.</text>
<text text-anchor="middle" x="634.54" y="-646.5" font-family="Helvetica,sans-Serif" font-size="10.00">BoolEvent</text>
<polyline fill="none" stroke="black" points="552.54,-639.5 716.54,-639.5 "/>
<text text-anchor="middle" x="634.54" y="-627.5" font-family="Helvetica,sans-Serif" font-size="10.00"> </text>
<polyline fill="none" stroke="black" points="552.54,-620.5 716.54,-620.5 "/>
<text text-anchor="middle" x="634.54" y="-608.5" font-family="Helvetica,sans-Serif" font-size="10.00"> </text>
</a>
</g>
</g>
<!-- Node4&#45;&gt;Node3 -->
<g id="edge4" class="edge">
<title>Node4&#45;&gt;Node3</title>
<path fill="none" stroke="#404040" d="M620.97,-601.17C613.16,-581.99 602.92,-556.83 592.82,-532.03"/>
<polygon fill="none" stroke="#404040" points="592.73,-531.8 586.76,-527.75 588.2,-520.69 594.17,-524.74 592.73,-531.8"/>
<text text-anchor="middle" x="652.04" y="-558.5" font-family="Helvetica,sans-Serif" font-size="10.00"> +OnCrouchEvent</text>
</g>
<!-- Node5 -->
<g id="node5" class="node">
<title>Node5</title>
<g id="a_node5"><a xlink:title=" ">
<polygon fill="none" stroke="#bfbfbf" points="585.04,-707.5 585.04,-764.5 684.04,-764.5 684.04,-707.5 585.04,-707.5"/>
<text text-anchor="middle" x="634.54" y="-752.5" font-family="Helvetica,sans-Serif" font-size="10.00">UnityEvent&lt; bool &gt;</text>
<polyline fill="none" stroke="#bfbfbf" points="585.04,-745.5 684.04,-745.5 "/>
<text text-anchor="middle" x="634.54" y="-733.5" font-family="Helvetica,sans-Serif" font-size="10.00"> </text>
<polyline fill="none" stroke="#bfbfbf" points="585.04,-726.5 684.04,-726.5 "/>
<text text-anchor="middle" x="634.54" y="-714.5" font-family="Helvetica,sans-Serif" font-size="10.00"> </text>
</a>
</g>
</g>
<!-- Node5&#45;&gt;Node4 -->
<g id="edge5" class="edge">
<title>Node5&#45;&gt;Node4</title>
<path fill="none" stroke="midnightblue" d="M634.54,-697.01C634.54,-687.96 634.54,-678.38 634.54,-669.58"/>
<polygon fill="none" stroke="midnightblue" points="631.04,-697.3 634.54,-707.3 638.04,-697.3 631.04,-697.3"/>
</g>
<!-- Node6 -->
<g id="node6" class="node">
<title>Node6</title>
<g id="a_node6"><a xlink:title=" ">
<polygon fill="none" stroke="#bfbfbf" points="735.04,-607 735.04,-664 798.04,-664 798.04,-607 735.04,-607"/>
<text text-anchor="middle" x="766.54" y="-652" font-family="Helvetica,sans-Serif" font-size="10.00">UnityEvent</text>
<polyline fill="none" stroke="#bfbfbf" points="735.04,-645 798.04,-645 "/>
<text text-anchor="middle" x="766.54" y="-633" font-family="Helvetica,sans-Serif" font-size="10.00"> </text>
<polyline fill="none" stroke="#bfbfbf" points="735.04,-626 798.04,-626 "/>
<text text-anchor="middle" x="766.54" y="-614" font-family="Helvetica,sans-Serif" font-size="10.00"> </text>
</a>
</g>
</g>
<!-- Node6&#45;&gt;Node3 -->
<g id="edge6" class="edge">
<title>Node6&#45;&gt;Node3</title>
<path fill="none" stroke="#404040" d="M748.95,-606.82C735.45,-586.76 715.6,-559.63 694.54,-539 679.59,-524.36 662.39,-510.2 645.27,-497.34"/>
<polygon fill="none" stroke="#404040" points="644.87,-497.05 637.67,-496.71 635.21,-489.93 642.42,-490.27 644.87,-497.05"/>
<text text-anchor="middle" x="763.54" y="-564" font-family="Helvetica,sans-Serif" font-size="10.00"> +OnAirEvent</text>
<text text-anchor="middle" x="763.54" y="-553" font-family="Helvetica,sans-Serif" font-size="10.00">+OnLandEvent</text>
</g>
<!-- Node7 -->
<g id="node7" class="node">
<title>Node7</title>
<g id="a_node7"><a xlink:title=" ">
<polygon fill="none" stroke="#bfbfbf" points="370.04,-607 370.04,-664 405.04,-664 405.04,-607 370.04,-607"/>
<text text-anchor="middle" x="387.54" y="-652" font-family="Helvetica,sans-Serif" font-size="10.00">float</text>
<polyline fill="none" stroke="#bfbfbf" points="370.04,-645 405.04,-645 "/>
<text text-anchor="middle" x="387.54" y="-633" font-family="Helvetica,sans-Serif" font-size="10.00"> </text>
<polyline fill="none" stroke="#bfbfbf" points="370.04,-626 405.04,-626 "/>
<text text-anchor="middle" x="387.54" y="-614" font-family="Helvetica,sans-Serif" font-size="10.00"> </text>
</a>
</g>
</g>
<!-- Node7&#45;&gt;Node3 -->
<g id="edge7" class="edge">
<title>Node7&#45;&gt;Node3</title>
<path fill="none" stroke="#404040" d="M391.52,-606.88C395.79,-586.05 404.42,-557.93 421.54,-539 434.07,-525.14 443.91,-531.24 459.54,-521 461.03,-520.02 462.52,-519.03 464,-518.01"/>
<polygon fill="none" stroke="#404040" points="464.03,-517.99 466.6,-511.26 473.81,-511.05 471.23,-517.78 464.03,-517.99"/>
<text text-anchor="middle" x="470.04" y="-575" font-family="Helvetica,sans-Serif" font-size="10.00"> +LedgeClimbXOffset1</text>
<text text-anchor="middle" x="470.04" y="-564" font-family="Helvetica,sans-Serif" font-size="10.00">+LedgeClimbXOffset2</text>
<text text-anchor="middle" x="470.04" y="-553" font-family="Helvetica,sans-Serif" font-size="10.00">+LedgeClimbYOffset1</text>
<text text-anchor="middle" x="470.04" y="-542" font-family="Helvetica,sans-Serif" font-size="10.00">+LedgeClimbYOffset2</text>
</g>
<!-- Node7&#45;&gt;Node11 -->
<g id="edge16" class="edge">
<title>Node7&#45;&gt;Node11</title>
<path fill="none" stroke="#404040" d="M384,-606.91C376.52,-548.5 358.8,-410.12 346.99,-317.9"/>
<polygon fill="none" stroke="#404040" points="346.96,-317.67 342.23,-312.22 345.43,-305.76 350.16,-311.21 346.96,-317.67"/>
<text text-anchor="middle" x="414.54" y="-434.5" font-family="Helvetica,sans-Serif" font-size="10.00"> #interactionRadius</text>
</g>
<!-- Node8 -->
<g id="node8" class="node">
<title>Node8</title>
<g id="a_node8"><a xlink:title=" ">
<polygon fill="none" stroke="#bfbfbf" points="484.54,-607 484.54,-664 534.54,-664 534.54,-607 484.54,-607"/>
<text text-anchor="middle" x="509.54" y="-652" font-family="Helvetica,sans-Serif" font-size="10.00">Vector3</text>
<polyline fill="none" stroke="#bfbfbf" points="484.54,-645 534.54,-645 "/>
<text text-anchor="middle" x="509.54" y="-633" font-family="Helvetica,sans-Serif" font-size="10.00"> </text>
<polyline fill="none" stroke="#bfbfbf" points="484.54,-626 534.54,-626 "/>
<text text-anchor="middle" x="509.54" y="-614" font-family="Helvetica,sans-Serif" font-size="10.00"> </text>
</a>
</g>
</g>
<!-- Node8&#45;&gt;Node3 -->
<g id="edge8" class="edge">
<title>Node8&#45;&gt;Node3</title>
<path fill="none" stroke="#404040" d="M515.89,-606.76C520.36,-587.23 526.64,-559.83 532.83,-532.78"/>
<polygon fill="none" stroke="#404040" points="532.89,-532.52 530.33,-525.78 535.57,-520.82 538.13,-527.56 532.89,-532.52"/>
<text text-anchor="middle" x="554.04" y="-558.5" font-family="Helvetica,sans-Serif" font-size="10.00"> ~Velocity</text>
</g>
<!-- Node9 -->
<g id="node9" class="node">
<title>Node9</title>
<g id="a_node9"><a xlink:title=" ">
<polygon fill="none" stroke="#bfbfbf" points="188.04,-607 188.04,-664 223.04,-664 223.04,-607 188.04,-607"/>
<text text-anchor="middle" x="205.54" y="-652" font-family="Helvetica,sans-Serif" font-size="10.00">bool</text>
<polyline fill="none" stroke="#bfbfbf" points="188.04,-645 223.04,-645 "/>
<text text-anchor="middle" x="205.54" y="-633" font-family="Helvetica,sans-Serif" font-size="10.00"> </text>
<polyline fill="none" stroke="#bfbfbf" points="188.04,-626 223.04,-626 "/>
<text text-anchor="middle" x="205.54" y="-614" font-family="Helvetica,sans-Serif" font-size="10.00"> </text>
</a>
</g>
</g>
<!-- Node9&#45;&gt;Node1 -->
<g id="edge13" class="edge">
<title>Node9&#45;&gt;Node1</title>
<path fill="none" stroke="#404040" d="M204.92,-606.8C202.94,-518.05 196.72,-239.3 193.92,-114.04"/>
<polygon fill="none" stroke="#404040" points="193.91,-113.69 189.78,-107.78 193.65,-101.69 197.78,-107.6 193.91,-113.69"/>
<text text-anchor="middle" x="224.04" y="-327" font-family="Helvetica,sans-Serif" font-size="10.00"> ~attacking</text>
</g>
<!-- Node9&#45;&gt;Node3 -->
<g id="edge9" class="edge">
<title>Node9&#45;&gt;Node3</title>
<path fill="none" stroke="#404040" d="M223.37,-616.7C248.81,-591.72 294.75,-548.27 315.54,-539 374.44,-512.72 400.68,-547.37 459.54,-521 460.76,-520.45 461.98,-519.88 463.2,-519.29"/>
<polygon fill="none" stroke="#404040" points="463.43,-519.17 466.82,-512.8 473.99,-513.48 470.61,-519.85 463.43,-519.17"/>
<text text-anchor="middle" x="355.04" y="-569.5" font-family="Helvetica,sans-Serif" font-size="10.00"> ~Grounded</text>
<text text-anchor="middle" x="355.04" y="-558.5" font-family="Helvetica,sans-Serif" font-size="10.00">~IsTouchingLedge</text>
<text text-anchor="middle" x="355.04" y="-547.5" font-family="Helvetica,sans-Serif" font-size="10.00">~IsTouchingWall</text>
</g>
<!-- Node9&#45;&gt;Node10 -->
<g id="edge12" class="edge">
<title>Node9&#45;&gt;Node10</title>
<path fill="none" stroke="#404040" d="M187.82,-628.24C168.85,-620.59 139.36,-605.78 123.54,-583 103.24,-553.77 96.12,-513.76 93.86,-483.17"/>
<polygon fill="none" stroke="#404040" points="93.86,-483.09 89.53,-477.33 93.19,-471.11 97.52,-476.88 93.86,-483.09"/>
<text text-anchor="middle" x="151.04" y="-558.5" font-family="Helvetica,sans-Serif" font-size="10.00"> ~isClimbing</text>
</g>
<!-- Node9&#45;&gt;Node11 -->
<g id="edge17" class="edge">
<title>Node9&#45;&gt;Node11</title>
<path fill="none" stroke="#404040" d="M206.17,-606.68C208.17,-554.94 216.56,-441.14 251.54,-353 256.48,-340.53 262.83,-328.05 269.82,-316.06"/>
<polygon fill="none" stroke="#404040" points="269.9,-315.94 269.58,-308.73 276.11,-305.67 276.43,-312.87 269.9,-315.94"/>
<text text-anchor="middle" x="300.04" y="-456.5" font-family="Helvetica,sans-Serif" font-size="10.00"> +isEnrolledInDialogue</text>
<text text-anchor="middle" x="300.04" y="-445.5" font-family="Helvetica,sans-Serif" font-size="10.00">~awaitingAttack</text>
<text text-anchor="middle" x="300.04" y="-434.5" font-family="Helvetica,sans-Serif" font-size="10.00">~praying</text>
<text text-anchor="middle" x="300.04" y="-423.5" font-family="Helvetica,sans-Serif" font-size="10.00">~respawning</text>
<text text-anchor="middle" x="300.04" y="-412.5" font-family="Helvetica,sans-Serif" font-size="10.00">~roll</text>
</g>
<!-- Node10&#45;&gt;Node1 -->
<g id="edge10" class="edge">
<title>Node10&#45;&gt;Node1</title>
<path fill="none" stroke="#404040" d="M91.01,-402.86C88.06,-348.04 87.21,-235.92 120.54,-149 125.47,-136.13 132.62,-123.47 140.52,-111.76"/>
<polygon fill="none" stroke="#404040" points="140.69,-111.53 140.89,-104.32 147.62,-101.74 147.42,-108.95 140.69,-111.53"/>
<text text-anchor="middle" x="149.54" y="-225" font-family="Helvetica,sans-Serif" font-size="10.00"> #pLadderCtrl</text>
</g>
<!-- Node11&#45;&gt;Node1 -->
<g id="edge14" class="edge">
<title>Node11&#45;&gt;Node1</title>
<path fill="none" stroke="#404040" d="M272.4,-149.45C261.79,-136.5 250.92,-123.25 240.77,-110.85"/>
<polygon fill="none" stroke="#404040" points="240.76,-110.84 233.86,-108.74 233.15,-101.56 240.05,-103.67 240.76,-110.84"/>
<text text-anchor="middle" x="270.04" y="-123" font-family="Helvetica,sans-Serif" font-size="10.00"> #pCtrl</text>
</g>
</g>
</svg>
