<?xml version="1.0" encoding="UTF-8" standalone="no"?>
<!DOCTYPE svg PUBLIC "-//W3C//DTD SVG 1.1//EN"
 "http://www.w3.org/Graphics/SVG/1.1/DTD/svg11.dtd">
<!-- Generated by graphviz version 2.48.0 (20210717.1556)
 -->
<!-- Title: Controllers.BaseController Pages: 1 -->
<!--zoomable 1046 -->
<svg id="main" version="1.1" xmlns="http://www.w3.org/2000/svg" xmlns:xlink="http://www.w3.org/1999/xlink" xml:space="preserve" onload="init(evt)">
<style type="text/css"><![CDATA[
.edge:hover path { stroke: red; }
.edge:hover polygon { stroke: red; fill: red; }
]]></style>
<script type="text/javascript"><![CDATA[
var edges = document.getElementsByTagName('g');
if (edges && edges.length) {
  for (var i=0;i<edges.length;i++) {
    if (edges[i].id.substr(0,4)=='edge') {
      edges[i].setAttribute('class','edge');
    }
  }
}
]]></script>
        <defs>
                <circle id="rim" cx="0" cy="0" r="7"/>
                <circle id="rim2" cx="0" cy="0" r="3.5"/>
                <g id="zoomPlus">
                        <use xlink:href="#rim" fill="#404040">
                                <set attributeName="fill" to="#808080" begin="zoomplus.mouseover" end="zoomplus.mouseout"/>
                        </use>
                        <path d="M-4,0h8M0,-4v8" fill="none" stroke="white" stroke-width="1.5" pointer-events="none"/>
                </g>
                <g id="zoomMin">
                        <use xlink:href="#rim" fill="#404040">
                                <set attributeName="fill" to="#808080" begin="zoomminus.mouseover" end="zoomminus.mouseout"/>
                        </use>
                        <path d="M-4,0h8" fill="none" stroke="white" stroke-width="1.5" pointer-events="none"/>
                </g>
                <g id="dirArrow">
                        <path fill="none" stroke="white" stroke-width="1.5" d="M0,-3.0v7 M-2.5,-0.5L0,-3.0L2.5,-0.5"/>
                </g>
               <g id="resetDef">
                       <use xlink:href="#rim2" fill="#404040">
                               <set attributeName="fill" to="#808080" begin="reset.mouseover" end="reset.mouseout"/>
                       </use>
               </g>
        </defs>

<script type="text/javascript">
var viewWidth = 1322;
var viewHeight = 1046;
var sectionId = 'dynsection-1';
</script>
<script xlink:href="svgpan.js"/>
<svg id="graph" class="graph">
<g id="viewport">
<title>Controllers.BaseController</title>
<!-- Node1 -->
<g id="node1" class="node">
<title>Node1</title>
<g id="a_node1"><a xlink:title=" ">
<polygon fill="#bfbfbf" stroke="black" points="468.15,-0.5 468.15,-552.5 641.15,-552.5 641.15,-0.5 468.15,-0.5"/>
<text text-anchor="middle" x="554.65" y="-540.5" font-family="Helvetica,sans-Serif" font-size="10.00">Controllers.BaseController</text>
<polyline fill="none" stroke="black" points="468.15,-533.5 641.15,-533.5 "/>
<text text-anchor="start" x="476.15" y="-521.5" font-family="Helvetica,sans-Serif" font-size="10.00">+ int FacingDirection</text>
<text text-anchor="start" x="476.15" y="-510.5" font-family="Helvetica,sans-Serif" font-size="10.00">+ bool IsReadyToAttack</text>
<text text-anchor="start" x="476.15" y="-499.5" font-family="Helvetica,sans-Serif" font-size="10.00">+ bool wallDetected</text>
<text text-anchor="start" x="476.15" y="-488.5" font-family="Helvetica,sans-Serif" font-size="10.00">+ bool groundDetected</text>
<text text-anchor="start" x="476.15" y="-477.5" font-family="Helvetica,sans-Serif" font-size="10.00">+ bool topDetected</text>
<polyline fill="none" stroke="black" points="468.15,-470.5 641.15,-470.5 "/>
<text text-anchor="start" x="476.15" y="-458.5" font-family="Helvetica,sans-Serif" font-size="10.00">+ void Flip()</text>
<text text-anchor="start" x="476.15" y="-447.5" font-family="Helvetica,sans-Serif" font-size="10.00">+ void SetVelocity(float</text>
<text text-anchor="start" x="476.15" y="-436.5" font-family="Helvetica,sans-Serif" font-size="10.00"> velocity)</text>
<text text-anchor="start" x="476.15" y="-425.5" font-family="Helvetica,sans-Serif" font-size="10.00">+ void AddForce(Vector2</text>
<text text-anchor="start" x="476.15" y="-414.5" font-family="Helvetica,sans-Serif" font-size="10.00"> newForce, bool isImpulse)</text>
<text text-anchor="start" x="476.15" y="-403.5" font-family="Helvetica,sans-Serif" font-size="10.00">+ void AddTorque(float</text>
<text text-anchor="start" x="476.15" y="-392.5" font-family="Helvetica,sans-Serif" font-size="10.00"> newTorque, bool isImpulse)</text>
<text text-anchor="start" x="476.15" y="-381.5" font-family="Helvetica,sans-Serif" font-size="10.00">+ T GetMovementController</text>
<text text-anchor="start" x="476.15" y="-370.5" font-family="Helvetica,sans-Serif" font-size="10.00">&lt; T &gt;()</text>
<text text-anchor="start" x="476.15" y="-359.5" font-family="Helvetica,sans-Serif" font-size="10.00">+ Animator GetAnimator()</text>
<text text-anchor="start" x="476.15" y="-348.5" font-family="Helvetica,sans-Serif" font-size="10.00">+ Transform GetTransfrom()</text>
<text text-anchor="start" x="476.15" y="-337.5" font-family="Helvetica,sans-Serif" font-size="10.00">+ GameObject GetDialogueBubble()</text>
<text text-anchor="start" x="476.15" y="-326.5" font-family="Helvetica,sans-Serif" font-size="10.00">+ bool CheckWall()</text>
<text text-anchor="start" x="476.15" y="-315.5" font-family="Helvetica,sans-Serif" font-size="10.00">+ bool CheckLedge()</text>
<text text-anchor="start" x="476.15" y="-304.5" font-family="Helvetica,sans-Serif" font-size="10.00">+ bool CheckGround()</text>
<text text-anchor="start" x="476.15" y="-293.5" font-family="Helvetica,sans-Serif" font-size="10.00">+ bool CheckPlayerInRange()</text>
<text text-anchor="start" x="476.15" y="-282.5" font-family="Helvetica,sans-Serif" font-size="10.00">+ void SwitchStates(ECharacter</text>
<text text-anchor="start" x="476.15" y="-271.5" font-family="Helvetica,sans-Serif" font-size="10.00">State nextState)</text>
<text text-anchor="start" x="476.15" y="-260.5" font-family="Helvetica,sans-Serif" font-size="10.00">+ void Anim_PreparingAttack</text>
<text text-anchor="start" x="476.15" y="-249.5" font-family="Helvetica,sans-Serif" font-size="10.00">Finished()</text>
<text text-anchor="start" x="476.15" y="-238.5" font-family="Helvetica,sans-Serif" font-size="10.00">+ virtual void Damage</text>
<text text-anchor="start" x="476.15" y="-227.5" font-family="Helvetica,sans-Serif" font-size="10.00">(float amount, int attackN)</text>
<text text-anchor="start" x="476.15" y="-216.5" font-family="Helvetica,sans-Serif" font-size="10.00">+ void Damage(BaseController</text>
<text text-anchor="start" x="476.15" y="-205.5" font-family="Helvetica,sans-Serif" font-size="10.00"> controller, DamageInfo</text>
<text text-anchor="start" x="476.15" y="-194.5" font-family="Helvetica,sans-Serif" font-size="10.00"> damageInfo)</text>
<text text-anchor="start" x="476.15" y="-183.5" font-family="Helvetica,sans-Serif" font-size="10.00">+ void Kill()</text>
<text text-anchor="start" x="476.15" y="-172.5" font-family="Helvetica,sans-Serif" font-size="10.00">+ bool Interact(BaseController</text>
<text text-anchor="start" x="476.15" y="-161.5" font-family="Helvetica,sans-Serif" font-size="10.00"> controller, EInteractionKind</text>
<text text-anchor="start" x="476.15" y="-150.5" font-family="Helvetica,sans-Serif" font-size="10.00"> interactionKind)</text>
<text text-anchor="start" x="476.15" y="-139.5" font-family="Helvetica,sans-Serif" font-size="10.00">+ bool Interact(PlayerController</text>
<text text-anchor="start" x="476.15" y="-128.5" font-family="Helvetica,sans-Serif" font-size="10.00"> controller, EInteractionKind</text>
<text text-anchor="start" x="476.15" y="-117.5" font-family="Helvetica,sans-Serif" font-size="10.00"> interactionKind)</text>
<text text-anchor="start" x="476.15" y="-106.5" font-family="Helvetica,sans-Serif" font-size="10.00">+ void ReadyToInteract</text>
<text text-anchor="start" x="476.15" y="-95.5" font-family="Helvetica,sans-Serif" font-size="10.00">(PlayerController controller,</text>
<text text-anchor="start" x="476.15" y="-84.5" font-family="Helvetica,sans-Serif" font-size="10.00"> bool isReady)</text>
<text text-anchor="start" x="476.15" y="-73.5" font-family="Helvetica,sans-Serif" font-size="10.00">+ void ReadyToInteract</text>
<text text-anchor="start" x="476.15" y="-62.5" font-family="Helvetica,sans-Serif" font-size="10.00">(BaseController controller,</text>
<text text-anchor="start" x="476.15" y="-51.5" font-family="Helvetica,sans-Serif" font-size="10.00"> bool isReady)</text>
<text text-anchor="start" x="476.15" y="-40.5" font-family="Helvetica,sans-Serif" font-size="10.00"># virtual void Start()</text>
<text text-anchor="start" x="476.15" y="-29.5" font-family="Helvetica,sans-Serif" font-size="10.00"># virtual void OnDrawGizmos()</text>
<text text-anchor="start" x="476.15" y="-18.5" font-family="Helvetica,sans-Serif" font-size="10.00"># virtual void OnEnterDead</text>
<text text-anchor="start" x="476.15" y="-7.5" font-family="Helvetica,sans-Serif" font-size="10.00">StateStart()</text>
</a>
</g>
</g>
<!-- Node2 -->
<g id="node2" class="node">
<title>Node2</title>
<g id="a_node2"><a xlink:href="interface_controllers_1_1_i_damageable.html" target="_top" xlink:title="Interfaz para todos los NPCs/Enemigos/Objetos que pueden ser daniados.">
<polygon fill="none" stroke="black" points="35.65,-925.5 35.65,-1037.5 183.65,-1037.5 183.65,-925.5 35.65,-925.5"/>
<text text-anchor="middle" x="109.65" y="-1025.5" font-family="Helvetica,sans-Serif" font-size="10.00">IDamageable</text>
<polyline fill="none" stroke="black" points="35.65,-1018.5 183.65,-1018.5 "/>
<text text-anchor="middle" x="109.65" y="-1006.5" font-family="Helvetica,sans-Serif" font-size="10.00"> </text>
<polyline fill="none" stroke="black" points="35.65,-999.5 183.65,-999.5 "/>
<text text-anchor="start" x="43.65" y="-987.5" font-family="Helvetica,sans-Serif" font-size="10.00">+ void Damage(float amount,</text>
<text text-anchor="start" x="43.65" y="-976.5" font-family="Helvetica,sans-Serif" font-size="10.00"> int attackN)</text>
<text text-anchor="start" x="43.65" y="-965.5" font-family="Helvetica,sans-Serif" font-size="10.00">+ void Damage(BaseController</text>
<text text-anchor="start" x="43.65" y="-954.5" font-family="Helvetica,sans-Serif" font-size="10.00"> controller, DamageInfo</text>
<text text-anchor="start" x="43.65" y="-943.5" font-family="Helvetica,sans-Serif" font-size="10.00"> damageInfo)</text>
<text text-anchor="start" x="43.65" y="-932.5" font-family="Helvetica,sans-Serif" font-size="10.00">+ void Kill()</text>
</a>
</g>
</g>
<!-- Node2&#45;&gt;Node1 -->
<g id="edge1" class="edge">
<title>Node2&#45;&gt;Node1</title>
<path fill="none" stroke="midnightblue" d="M65.56,-916.31C51.14,-891.7 36.96,-862.63 29.65,-834 3.93,-733.23 -21.12,-690.77 29.65,-600 123.58,-432.07 344.7,-340.91 467.91,-301.54"/>
<polygon fill="none" stroke="midnightblue" points="62.72,-918.39 70.87,-925.17 68.73,-914.8 62.72,-918.39"/>
</g>
<!-- Node15 -->
<g id="node15" class="node">
<title>Node15</title>
<g id="a_node15"><a xlink:href="class_player_1_1_player_controller.html" target="_top" xlink:title=" ">
<polygon fill="none" stroke="black" points="1008.65,-600.5 1008.65,-833.5 1156.65,-833.5 1156.65,-600.5 1008.65,-600.5"/>
<text text-anchor="middle" x="1082.65" y="-821.5" font-family="Helvetica,sans-Serif" font-size="10.00">Player.PlayerController</text>
<polyline fill="none" stroke="black" points="1008.65,-814.5 1156.65,-814.5 "/>
<text text-anchor="middle" x="1082.65" y="-802.5" font-family="Helvetica,sans-Serif" font-size="10.00"> </text>
<polyline fill="none" stroke="black" points="1008.65,-795.5 1156.65,-795.5 "/>
<text text-anchor="start" x="1016.65" y="-783.5" font-family="Helvetica,sans-Serif" font-size="10.00">+ void Damage(float amount,</text>
<text text-anchor="start" x="1016.65" y="-772.5" font-family="Helvetica,sans-Serif" font-size="10.00"> int attackN)</text>
<text text-anchor="start" x="1016.65" y="-761.5" font-family="Helvetica,sans-Serif" font-size="10.00">+ void Damage(BaseController</text>
<text text-anchor="start" x="1016.65" y="-750.5" font-family="Helvetica,sans-Serif" font-size="10.00"> controller, DamageInfo</text>
<text text-anchor="start" x="1016.65" y="-739.5" font-family="Helvetica,sans-Serif" font-size="10.00"> damageInfo)</text>
<text text-anchor="start" x="1016.65" y="-728.5" font-family="Helvetica,sans-Serif" font-size="10.00">+ void Kill()</text>
<text text-anchor="start" x="1016.65" y="-717.5" font-family="Helvetica,sans-Serif" font-size="10.00">+ void EnterInteractionMode()</text>
<text text-anchor="start" x="1016.65" y="-706.5" font-family="Helvetica,sans-Serif" font-size="10.00">+ int GetFacingDirection()</text>
<text text-anchor="start" x="1016.65" y="-695.5" font-family="Helvetica,sans-Serif" font-size="10.00">+ void LandEvt()</text>
<text text-anchor="start" x="1016.65" y="-684.5" font-family="Helvetica,sans-Serif" font-size="10.00">+ void OnAirEvt()</text>
<text text-anchor="start" x="1016.65" y="-673.5" font-family="Helvetica,sans-Serif" font-size="10.00">+ bool IsFacingRight()</text>
<text text-anchor="start" x="1016.65" y="-662.5" font-family="Helvetica,sans-Serif" font-size="10.00">+ void AnimStartPrayingEvt()</text>
<text text-anchor="start" x="1016.65" y="-651.5" font-family="Helvetica,sans-Serif" font-size="10.00">+ void AnimRollEndEvt()</text>
<text text-anchor="start" x="1016.65" y="-640.5" font-family="Helvetica,sans-Serif" font-size="10.00">+ void AnimFootStep1Evt()</text>
<text text-anchor="start" x="1016.65" y="-629.5" font-family="Helvetica,sans-Serif" font-size="10.00">+ void AnimFootStep2Evt()</text>
<text text-anchor="start" x="1016.65" y="-618.5" font-family="Helvetica,sans-Serif" font-size="10.00">~ void OnEnable()</text>
<text text-anchor="start" x="1016.65" y="-607.5" font-family="Helvetica,sans-Serif" font-size="10.00">~ void OnDisable()</text>
</a>
</g>
</g>
<!-- Node2&#45;&gt;Node15 -->
<g id="edge15" class="edge">
<title>Node2&#45;&gt;Node15</title>
<path fill="none" stroke="midnightblue" d="M193.7,-956.91C236.74,-945.66 290.15,-932.95 338.65,-925 429.35,-910.13 456.12,-931.67 544.65,-907 598.07,-892.11 602.98,-865.96 656.65,-852 730.52,-832.79 932.71,-870.67 999.65,-834 1002.69,-832.33 1005.65,-830.5 1008.52,-828.53"/>
<polygon fill="none" stroke="midnightblue" points="192.62,-953.58 183.84,-959.51 194.41,-960.35 192.62,-953.58"/>
</g>
<!-- Node3 -->
<g id="node3" class="node">
<title>Node3</title>
<g id="a_node3"><a xlink:href="interface_interactions_1_1_interfaces_1_1_i_interactive.html" target="_top" xlink:title=" ">
<polygon fill="none" stroke="black" points="39.15,-628 39.15,-806 190.15,-806 190.15,-628 39.15,-628"/>
<text text-anchor="middle" x="114.65" y="-794" font-family="Helvetica,sans-Serif" font-size="10.00">IInteractive</text>
<polyline fill="none" stroke="black" points="39.15,-787 190.15,-787 "/>
<text text-anchor="middle" x="114.65" y="-775" font-family="Helvetica,sans-Serif" font-size="10.00"> </text>
<polyline fill="none" stroke="black" points="39.15,-768 190.15,-768 "/>
<text text-anchor="start" x="47.15" y="-756" font-family="Helvetica,sans-Serif" font-size="10.00">+ bool Interact(BaseController</text>
<text text-anchor="start" x="47.15" y="-745" font-family="Helvetica,sans-Serif" font-size="10.00"> controller, EInteractionKind</text>
<text text-anchor="start" x="47.15" y="-734" font-family="Helvetica,sans-Serif" font-size="10.00"> interactionKind)</text>
<text text-anchor="start" x="47.15" y="-723" font-family="Helvetica,sans-Serif" font-size="10.00">+ bool Interact(PlayerController</text>
<text text-anchor="start" x="47.15" y="-712" font-family="Helvetica,sans-Serif" font-size="10.00"> controller, EInteractionKind</text>
<text text-anchor="start" x="47.15" y="-701" font-family="Helvetica,sans-Serif" font-size="10.00"> interactionKind)</text>
<text text-anchor="start" x="47.15" y="-690" font-family="Helvetica,sans-Serif" font-size="10.00">+ void ReadyToInteract</text>
<text text-anchor="start" x="47.15" y="-679" font-family="Helvetica,sans-Serif" font-size="10.00">(PlayerController controller,</text>
<text text-anchor="start" x="47.15" y="-668" font-family="Helvetica,sans-Serif" font-size="10.00"> bool isReady)</text>
<text text-anchor="start" x="47.15" y="-657" font-family="Helvetica,sans-Serif" font-size="10.00">+ void ReadyToInteract</text>
<text text-anchor="start" x="47.15" y="-646" font-family="Helvetica,sans-Serif" font-size="10.00">(BaseController controller,</text>
<text text-anchor="start" x="47.15" y="-635" font-family="Helvetica,sans-Serif" font-size="10.00"> bool isReady)</text>
</a>
</g>
</g>
<!-- Node3&#45;&gt;Node1 -->
<g id="edge2" class="edge">
<title>Node3&#45;&gt;Node1</title>
<path fill="none" stroke="midnightblue" d="M181.98,-619.67C187.46,-612.88 193.05,-606.26 198.65,-600 283.25,-505.6 392.89,-409.61 468.02,-347.19"/>
<polygon fill="none" stroke="midnightblue" points="179.08,-617.69 175.6,-627.7 184.56,-622.04 179.08,-617.69"/>
</g>
<!-- Node4 -->
<g id="node4" class="node">
<title>Node4</title>
<g id="a_node4"><a xlink:title=" ">
<polygon fill="none" stroke="#bfbfbf" points="208.15,-688.5 208.15,-745.5 279.15,-745.5 279.15,-688.5 208.15,-688.5"/>
<text text-anchor="middle" x="243.65" y="-733.5" font-family="Helvetica,sans-Serif" font-size="10.00">Rigidbody2D</text>
<polyline fill="none" stroke="#bfbfbf" points="208.15,-726.5 279.15,-726.5 "/>
<text text-anchor="middle" x="243.65" y="-714.5" font-family="Helvetica,sans-Serif" font-size="10.00"> </text>
<polyline fill="none" stroke="#bfbfbf" points="208.15,-707.5 279.15,-707.5 "/>
<text text-anchor="middle" x="243.65" y="-695.5" font-family="Helvetica,sans-Serif" font-size="10.00"> </text>
</a>
</g>
</g>
<!-- Node4&#45;&gt;Node1 -->
<g id="edge3" class="edge">
<title>Node4&#45;&gt;Node1</title>
<path fill="none" stroke="#404040" d="M252.62,-688.1C260.76,-664.15 273.73,-629.01 288.65,-600 332.71,-514.34 402.58,-430.82 459.66,-370.24"/>
<polygon fill="none" stroke="#404040" points="459.72,-370.17 460.95,-363.07 467.98,-361.47 466.75,-368.57 459.72,-370.17"/>
<text text-anchor="middle" x="329.65" y="-574" font-family="Helvetica,sans-Serif" font-size="10.00"> #rigidbody2D</text>
</g>
<!-- Node5 -->
<g id="node5" class="node">
<title>Node5</title>
<g id="a_node5"><a xlink:title=" ">
<polygon fill="none" stroke="#bfbfbf" points="297.65,-688.5 297.65,-745.5 353.65,-745.5 353.65,-688.5 297.65,-688.5"/>
<text text-anchor="middle" x="325.65" y="-733.5" font-family="Helvetica,sans-Serif" font-size="10.00">Animator</text>
<polyline fill="none" stroke="#bfbfbf" points="297.65,-726.5 353.65,-726.5 "/>
<text text-anchor="middle" x="325.65" y="-714.5" font-family="Helvetica,sans-Serif" font-size="10.00"> </text>
<polyline fill="none" stroke="#bfbfbf" points="297.65,-707.5 353.65,-707.5 "/>
<text text-anchor="middle" x="325.65" y="-695.5" font-family="Helvetica,sans-Serif" font-size="10.00"> </text>
</a>
</g>
</g>
<!-- Node5&#45;&gt;Node1 -->
<g id="edge4" class="edge">
<title>Node5&#45;&gt;Node1</title>
<path fill="none" stroke="#404040" d="M332.92,-688.17C339.59,-664.27 350.44,-629.14 363.65,-600 391.42,-538.75 427.89,-474.4 461.52,-419.43"/>
<polygon fill="none" stroke="#404040" points="461.69,-419.15 461.43,-411.94 467.98,-408.93 468.24,-416.13 461.69,-419.15"/>
<text text-anchor="middle" x="419.65" y="-574" font-family="Helvetica,sans-Serif" font-size="10.00"> #characterAnimator</text>
</g>
<!-- Node6 -->
<g id="node6" class="node">
<title>Node6</title>
<g id="a_node6"><a xlink:href="class_controllers_1_1_state_machine_1_1_states_1_1_data_1_1_controller_data.html" target="_top" xlink:title=" ">
<polygon fill="none" stroke="black" points="372.15,-683 372.15,-751 505.15,-751 505.15,-683 372.15,-683"/>
<text text-anchor="start" x="380.15" y="-739" font-family="Helvetica,sans-Serif" font-size="10.00">Controllers.StateMachine.</text>
<text text-anchor="middle" x="438.65" y="-728" font-family="Helvetica,sans-Serif" font-size="10.00">States.Data.ControllerData</text>
<polyline fill="none" stroke="black" points="372.15,-721 505.15,-721 "/>
<text text-anchor="middle" x="438.65" y="-709" font-family="Helvetica,sans-Serif" font-size="10.00"> </text>
<polyline fill="none" stroke="black" points="372.15,-702 505.15,-702 "/>
<text text-anchor="middle" x="438.65" y="-690" font-family="Helvetica,sans-Serif" font-size="10.00"> </text>
</a>
</g>
</g>
<!-- Node6&#45;&gt;Node1 -->
<g id="edge5" class="edge">
<title>Node6&#45;&gt;Node1</title>
<path fill="none" stroke="#404040" d="M447.47,-682.68C454.84,-654.8 466.15,-612.03 478.71,-564.56"/>
<polygon fill="none" stroke="#404040" points="478.77,-564.33 476.44,-557.51 481.84,-552.73 484.17,-559.56 478.77,-564.33"/>
<text text-anchor="middle" x="497.15" y="-574" font-family="Helvetica,sans-Serif" font-size="10.00"> +ctrlData</text>
</g>
<!-- Node7 -->
<g id="node7" class="node">
<title>Node7</title>
<g id="a_node7"><a xlink:href="class_scriptable_object.html" target="_top" xlink:title=" ">
<polygon fill="none" stroke="black" points="347.15,-953 347.15,-1010 436.15,-1010 436.15,-953 347.15,-953"/>
<text text-anchor="middle" x="391.65" y="-998" font-family="Helvetica,sans-Serif" font-size="10.00">ScriptableObject</text>
<polyline fill="none" stroke="black" points="347.15,-991 436.15,-991 "/>
<text text-anchor="middle" x="391.65" y="-979" font-family="Helvetica,sans-Serif" font-size="10.00"> </text>
<polyline fill="none" stroke="black" points="347.15,-972 436.15,-972 "/>
<text text-anchor="middle" x="391.65" y="-960" font-family="Helvetica,sans-Serif" font-size="10.00"> </text>
</a>
</g>
</g>
<!-- Node7&#45;&gt;Node6 -->
<g id="edge6" class="edge">
<title>Node7&#45;&gt;Node6</title>
<path fill="none" stroke="midnightblue" d="M398.38,-942.89C407.57,-891.57 423.9,-800.38 432.68,-751.37"/>
<polygon fill="none" stroke="midnightblue" points="394.91,-942.44 396.59,-952.9 401.8,-943.68 394.91,-942.44"/>
</g>
<!-- Node8 -->
<g id="node8" class="node">
<title>Node8</title>
<g id="a_node8"><a xlink:title=" ">
<polygon fill="none" stroke="#bfbfbf" points="819.15,-953 819.15,-1010 854.15,-1010 854.15,-953 819.15,-953"/>
<text text-anchor="middle" x="836.65" y="-998" font-family="Helvetica,sans-Serif" font-size="10.00">float</text>
<polyline fill="none" stroke="#bfbfbf" points="819.15,-991 854.15,-991 "/>
<text text-anchor="middle" x="836.65" y="-979" font-family="Helvetica,sans-Serif" font-size="10.00"> </text>
<polyline fill="none" stroke="#bfbfbf" points="819.15,-972 854.15,-972 "/>
<text text-anchor="middle" x="836.65" y="-960" font-family="Helvetica,sans-Serif" font-size="10.00"> </text>
</a>
</g>
</g>
<!-- Node8&#45;&gt;Node6 -->
<g id="edge7" class="edge">
<title>Node8&#45;&gt;Node6</title>
<path fill="none" stroke="#404040" d="M818.71,-973.03C754.71,-946.29 540,-855.74 514.65,-834 491.62,-814.25 472.84,-785.82 459.71,-762.06"/>
<polygon fill="none" stroke="#404040" points="459.56,-761.76 453.2,-758.35 453.91,-751.17 460.26,-754.58 459.56,-761.76"/>
<text text-anchor="middle" x="714.65" y="-899" font-family="Helvetica,sans-Serif" font-size="10.00"> +groundCheckDistance</text>
<text text-anchor="middle" x="714.65" y="-888" font-family="Helvetica,sans-Serif" font-size="10.00">+ledgeCheckDistacne</text>
<text text-anchor="middle" x="714.65" y="-877" font-family="Helvetica,sans-Serif" font-size="10.00">+playerDetectionDistance</text>
<text text-anchor="middle" x="714.65" y="-866" font-family="Helvetica,sans-Serif" font-size="10.00">+topCheckDistance</text>
<text text-anchor="middle" x="714.65" y="-855" font-family="Helvetica,sans-Serif" font-size="10.00">+wallCheckDistance</text>
</g>
<!-- Node8&#45;&gt;Node15 -->
<g id="edge16" class="edge">
<title>Node8&#45;&gt;Node15</title>
<path fill="none" stroke="#404040" d="M854.45,-966.66C885.71,-941.9 951.7,-887.59 999.65,-834 999.93,-833.69 1000.21,-833.38 1000.49,-833.06"/>
<polygon fill="none" stroke="#404040" points="1000.69,-832.83 1001.58,-825.67 1008.53,-823.75 1007.64,-830.9 1000.69,-832.83"/>
<text text-anchor="middle" x="1020.65" y="-877" font-family="Helvetica,sans-Serif" font-size="10.00"> #interactionRadius</text>
</g>
<!-- Node9 -->
<g id="node9" class="node">
<title>Node9</title>
<g id="a_node9"><a xlink:title=" ">
<polygon fill="none" stroke="#bfbfbf" points="454.15,-953 454.15,-1010 519.15,-1010 519.15,-953 454.15,-953"/>
<text text-anchor="middle" x="486.65" y="-998" font-family="Helvetica,sans-Serif" font-size="10.00">LayerMask</text>
<polyline fill="none" stroke="#bfbfbf" points="454.15,-991 519.15,-991 "/>
<text text-anchor="middle" x="486.65" y="-979" font-family="Helvetica,sans-Serif" font-size="10.00"> </text>
<polyline fill="none" stroke="#bfbfbf" points="454.15,-972 519.15,-972 "/>
<text text-anchor="middle" x="486.65" y="-960" font-family="Helvetica,sans-Serif" font-size="10.00"> </text>
</a>
</g>
</g>
<!-- Node9&#45;&gt;Node6 -->
<g id="edge8" class="edge">
<title>Node9&#45;&gt;Node6</title>
<path fill="none" stroke="#404040" d="M481.61,-952.9C473.37,-907.84 456.94,-818.02 446.96,-763.44"/>
<polygon fill="none" stroke="#404040" points="446.91,-763.17 441.9,-757.99 444.75,-751.37 449.77,-756.55 446.91,-763.17"/>
<text text-anchor="middle" x="506.15" y="-877" font-family="Helvetica,sans-Serif" font-size="10.00"> +whatIsGround</text>
</g>
<!-- Node10 -->
<g id="node10" class="node">
<title>Node10</title>
<g id="a_node10"><a xlink:title=" ">
<polygon fill="none" stroke="#bfbfbf" points="523.15,-688.5 523.15,-745.5 586.15,-745.5 586.15,-688.5 523.15,-688.5"/>
<text text-anchor="middle" x="554.65" y="-733.5" font-family="Helvetica,sans-Serif" font-size="10.00">UnityEvent</text>
<polyline fill="none" stroke="#bfbfbf" points="523.15,-726.5 586.15,-726.5 "/>
<text text-anchor="middle" x="554.65" y="-714.5" font-family="Helvetica,sans-Serif" font-size="10.00"> </text>
<polyline fill="none" stroke="#bfbfbf" points="523.15,-707.5 586.15,-707.5 "/>
<text text-anchor="middle" x="554.65" y="-695.5" font-family="Helvetica,sans-Serif" font-size="10.00"> </text>
</a>
</g>
</g>
<!-- Node10&#45;&gt;Node1 -->
<g id="edge9" class="edge">
<title>Node10&#45;&gt;Node1</title>
<path fill="none" stroke="#404040" d="M554.65,-688.24C554.65,-660.74 554.65,-615.52 554.65,-564.91"/>
<polygon fill="none" stroke="#404040" points="554.65,-564.64 550.65,-558.64 554.65,-552.64 558.65,-558.64 554.65,-564.64"/>
<text text-anchor="middle" x="588.15" y="-574" font-family="Helvetica,sans-Serif" font-size="10.00"> +OnLandEvent</text>
</g>
<!-- Node11 -->
<g id="node11" class="node">
<title>Node11</title>
<g id="a_node11"><a xlink:href="class_controllers_1_1_movement_1_1_base_movement_controller.html" target="_top" xlink:title=" ">
<polygon fill="none" stroke="black" points="604.65,-683 604.65,-751 740.65,-751 740.65,-683 604.65,-683"/>
<text text-anchor="start" x="612.65" y="-739" font-family="Helvetica,sans-Serif" font-size="10.00">Controllers.Movement.Base</text>
<text text-anchor="middle" x="672.65" y="-728" font-family="Helvetica,sans-Serif" font-size="10.00">MovementController</text>
<polyline fill="none" stroke="black" points="604.65,-721 740.65,-721 "/>
<text text-anchor="middle" x="672.65" y="-709" font-family="Helvetica,sans-Serif" font-size="10.00"> </text>
<polyline fill="none" stroke="black" points="604.65,-702 740.65,-702 "/>
<text text-anchor="middle" x="672.65" y="-690" font-family="Helvetica,sans-Serif" font-size="10.00"> </text>
</a>
</g>
</g>
<!-- Node11&#45;&gt;Node1 -->
<g id="edge10" class="edge">
<title>Node11&#45;&gt;Node1</title>
<path fill="none" stroke="#404040" d="M663.69,-682.68C656.18,-654.8 644.67,-612.03 631.9,-564.56"/>
<polygon fill="none" stroke="#404040" points="631.83,-564.32 626.41,-559.57 628.72,-552.73 634.14,-557.49 631.83,-564.32"/>
<text text-anchor="middle" x="691.15" y="-574" font-family="Helvetica,sans-Serif" font-size="10.00"> #baseMovementController</text>
</g>
<!-- Node12 -->
<g id="node12" class="node">
<title>Node12</title>
<g id="a_node12"><a xlink:href="class_controllers_1_1_state_machine_1_1_controller_state_machine.html" target="_top" xlink:title="Controla el estado de un enemigo o NPC, desde que spawnea hasta que muere. Casi todos los metodos son...">
<polygon fill="none" stroke="black" points="759.15,-666.5 759.15,-767.5 888.15,-767.5 888.15,-666.5 759.15,-666.5"/>
<text text-anchor="start" x="767.15" y="-755.5" font-family="Helvetica,sans-Serif" font-size="10.00">Controllers.StateMachine.</text>
<text text-anchor="middle" x="823.65" y="-744.5" font-family="Helvetica,sans-Serif" font-size="10.00">ControllerStateMachine</text>
<polyline fill="none" stroke="black" points="759.15,-737.5 888.15,-737.5 "/>
<text text-anchor="start" x="767.15" y="-725.5" font-family="Helvetica,sans-Serif" font-size="10.00">+ State CurrentState</text>
<polyline fill="none" stroke="black" points="759.15,-718.5 888.15,-718.5 "/>
<text text-anchor="start" x="767.15" y="-706.5" font-family="Helvetica,sans-Serif" font-size="10.00">+ void Initialize(State</text>
<text text-anchor="start" x="767.15" y="-695.5" font-family="Helvetica,sans-Serif" font-size="10.00"> startState)</text>
<text text-anchor="start" x="767.15" y="-684.5" font-family="Helvetica,sans-Serif" font-size="10.00">+ void ChangeState(State</text>
<text text-anchor="start" x="767.15" y="-673.5" font-family="Helvetica,sans-Serif" font-size="10.00"> nextState)</text>
</a>
</g>
</g>
<!-- Node12&#45;&gt;Node1 -->
<g id="edge11" class="edge">
<title>Node12&#45;&gt;Node1</title>
<path fill="none" stroke="#404040" d="M801.47,-666.46C788.23,-638.02 770.55,-601.94 752.65,-571 720.91,-516.13 682.62,-457.84 648.19,-407.79"/>
<polygon fill="none" stroke="#404040" points="648.18,-407.77 641.48,-405.1 641.36,-397.89 648.06,-400.56 648.18,-407.77"/>
<text text-anchor="middle" x="791.65" y="-574" font-family="Helvetica,sans-Serif" font-size="10.00"> +StateMachine</text>
</g>
<!-- Node13 -->
<g id="node13" class="node">
<title>Node13</title>
<g id="a_node13"><a xlink:title=" ">
<polygon fill="none" stroke="#bfbfbf" points="906.65,-688.5 906.65,-745.5 990.65,-745.5 990.65,-688.5 906.65,-688.5"/>
<text text-anchor="middle" x="948.65" y="-733.5" font-family="Helvetica,sans-Serif" font-size="10.00">EControllerKind</text>
<polyline fill="none" stroke="#bfbfbf" points="906.65,-726.5 990.65,-726.5 "/>
<text text-anchor="middle" x="948.65" y="-714.5" font-family="Helvetica,sans-Serif" font-size="10.00"> </text>
<polyline fill="none" stroke="#bfbfbf" points="906.65,-707.5 990.65,-707.5 "/>
<text text-anchor="middle" x="948.65" y="-695.5" font-family="Helvetica,sans-Serif" font-size="10.00"> </text>
</a>
</g>
</g>
<!-- Node13&#45;&gt;Node1 -->
<g id="edge12" class="edge">
<title>Node13&#45;&gt;Node1</title>
<path fill="none" stroke="#404040" d="M939.96,-688.13C931.5,-663.55 917.08,-627.49 897.65,-600 828.44,-502.06 725.89,-410.45 650.95,-350.08"/>
<polygon fill="none" stroke="#404040" points="650.86,-350.01 643.68,-349.38 641.5,-342.51 648.68,-343.14 650.86,-350.01"/>
<text text-anchor="middle" x="916.65" y="-574" font-family="Helvetica,sans-Serif" font-size="10.00"> #controllerKind</text>
</g>
<!-- Node14 -->
<g id="node14" class="node">
<title>Node14</title>
<g id="a_node14"><a xlink:title=" ">
<polygon fill="none" stroke="#bfbfbf" points="1120.15,-953 1120.15,-1010 1155.15,-1010 1155.15,-953 1120.15,-953"/>
<text text-anchor="middle" x="1137.65" y="-998" font-family="Helvetica,sans-Serif" font-size="10.00">bool</text>
<polyline fill="none" stroke="#bfbfbf" points="1120.15,-991 1155.15,-991 "/>
<text text-anchor="middle" x="1137.65" y="-979" font-family="Helvetica,sans-Serif" font-size="10.00"> </text>
<polyline fill="none" stroke="#bfbfbf" points="1120.15,-972 1155.15,-972 "/>
<text text-anchor="middle" x="1137.65" y="-960" font-family="Helvetica,sans-Serif" font-size="10.00"> </text>
</a>
</g>
</g>
<!-- Node14&#45;&gt;Node1 -->
<g id="edge13" class="edge">
<title>Node14&#45;&gt;Node1</title>
<path fill="none" stroke="#404040" d="M1155.25,-957.06C1164.49,-943.27 1174.86,-925.04 1179.65,-907 1201.02,-826.54 1243.68,-721.65 1165.65,-600 1049.08,-418.26 794.36,-332.65 653.4,-297.84"/>
<polygon fill="none" stroke="#404040" points="653.03,-297.75 646.26,-300.23 641.37,-294.93 648.14,-292.45 653.03,-297.75"/>
<text text-anchor="middle" x="1262.15" y="-714.5" font-family="Helvetica,sans-Serif" font-size="10.00"> #playerFacingDirection</text>
</g>
<!-- Node14&#45;&gt;Node15 -->
<g id="edge17" class="edge">
<title>Node14&#45;&gt;Node15</title>
<path fill="none" stroke="#404040" d="M1119.98,-963.68C1106.85,-949.88 1090,-929.08 1082.65,-907 1076.24,-887.74 1072.93,-866.75 1071.59,-846"/>
<polygon fill="none" stroke="#404040" points="1071.59,-845.81 1067.31,-840 1071.03,-833.82 1075.3,-839.63 1071.59,-845.81"/>
<text text-anchor="middle" x="1131.15" y="-899" font-family="Helvetica,sans-Serif" font-size="10.00"> +isEnrolledInDialogue</text>
<text text-anchor="middle" x="1131.15" y="-888" font-family="Helvetica,sans-Serif" font-size="10.00">~moveOnDamaged</text>
<text text-anchor="middle" x="1131.15" y="-877" font-family="Helvetica,sans-Serif" font-size="10.00">~praying</text>
<text text-anchor="middle" x="1131.15" y="-866" font-family="Helvetica,sans-Serif" font-size="10.00">~respawning</text>
<text text-anchor="middle" x="1131.15" y="-855" font-family="Helvetica,sans-Serif" font-size="10.00">~roll</text>
</g>
<!-- Node15&#45;&gt;Node1 -->
<g id="edge14" class="edge">
<title>Node15&#45;&gt;Node1</title>
<path fill="none" stroke="#404040" d="M1008.46,-609.27C1005.56,-606.09 1002.62,-602.99 999.65,-600 892.68,-492.38 746.87,-394.01 651.77,-334.93"/>
<polygon fill="none" stroke="#404040" points="651.5,-334.76 644.29,-335.01 641.29,-328.45 648.5,-328.21 651.5,-334.76"/>
<text text-anchor="middle" x="1015.65" y="-574" font-family="Helvetica,sans-Serif" font-size="10.00"> #playerController</text>
</g>
</g>
</svg>
        <g id="navigator" transform="translate(0 0)" fill="#404254">
                <rect fill="#f2f5e9" fill-opacity="0.5" stroke="#606060" stroke-width=".5" x="0" y="0" width="60" height="60"/>
                <use id="zoomplus" xlink:href="#zoomPlus" x="17" y="9" onmousedown="handleZoom(evt,'in')"/>
                <use id="zoomminus" xlink:href="#zoomMin" x="42" y="9" onmousedown="handleZoom(evt,'out')"/>
                <use id="reset" xlink:href="#resetDef" x="30" y="36" onmousedown="handleReset()"/>
                <g id="arrowUp" xlink:href="#dirArrow" transform="translate(30 24)" onmousedown="handlePan(0,-1)">
                  <use xlink:href="#rim" fill="#404040">
                        <set attributeName="fill" to="#808080" begin="arrowUp.mouseover" end="arrowUp.mouseout"/>
                  </use>
                  <path fill="none" stroke="white" stroke-width="1.5" d="M0,-3.0v7 M-2.5,-0.5L0,-3.0L2.5,-0.5"/>
                </g>
                <g id="arrowRight" xlink:href="#dirArrow" transform="rotate(90) translate(36 -43)" onmousedown="handlePan(1,0)">
                  <use xlink:href="#rim" fill="#404040">
                        <set attributeName="fill" to="#808080" begin="arrowRight.mouseover" end="arrowRight.mouseout"/>
                  </use>
                  <path fill="none" stroke="white" stroke-width="1.5" d="M0,-3.0v7 M-2.5,-0.5L0,-3.0L2.5,-0.5"/>
                </g>
                <g id="arrowDown" xlink:href="#dirArrow" transform="rotate(180) translate(-30 -48)" onmousedown="handlePan(0,1)">
                  <use xlink:href="#rim" fill="#404040">
                        <set attributeName="fill" to="#808080" begin="arrowDown.mouseover" end="arrowDown.mouseout"/>
                  </use>
                  <path fill="none" stroke="white" stroke-width="1.5" d="M0,-3.0v7 M-2.5,-0.5L0,-3.0L2.5,-0.5"/>
                </g>
                <g id="arrowLeft" xlink:href="#dirArrow" transform="rotate(270) translate(-36 17)" onmousedown="handlePan(-1,0)">
                  <use xlink:href="#rim" fill="#404040">
                        <set attributeName="fill" to="#808080" begin="arrowLeft.mouseover" end="arrowLeft.mouseout"/>
                  </use>
                  <path fill="none" stroke="white" stroke-width="1.5" d="M0,-3.0v7 M-2.5,-0.5L0,-3.0L2.5,-0.5"/>
                </g>
        </g>
        <svg viewBox="0 0 15 15" width="100%" height="30px" preserveAspectRatio="xMaxYMin meet">
         <g id="arrow_out" transform="scale(0.3 0.3)">
          <a xlink:href="class_controllers_1_1_base_controller__coll__graph_org.svg" target="_base">
           <rect id="button" ry="5" rx="5" y="6" x="6" height="38" width="38"
                fill="#f2f5e9" fill-opacity="0.5" stroke="#606060" stroke-width="1.0"/>
           <path id="arrow"
             d="M 11.500037,31.436501 C 11.940474,20.09759 22.043105,11.32322 32.158766,21.979434 L 37.068811,17.246167 C 37.068811,17.246167 37.088388,32 37.088388,32 L 22.160133,31.978069 C 22.160133,31.978069 26.997745,27.140456 26.997745,27.140456 C 18.528582,18.264221 13.291696,25.230495 11.500037,31.436501 z"
             style="fill:#404040;"/>
          </a>
         </g>
        </svg>
</svg>
