<?xml version="1.0" encoding="UTF-8" standalone="no"?>
<!DOCTYPE svg PUBLIC "-//W3C//DTD SVG 1.1//EN"
 "http://www.w3.org/Graphics/SVG/1.1/DTD/svg11.dtd">
<!-- Generated by graphviz version 2.48.0 (20210717.1556)
 -->
<!-- Title: MonoBehaviour Pages: 1 -->
<svg width="2263pt" height="474pt"
 viewBox="0.00 0.00 2263.00 474.00" xmlns="http://www.w3.org/2000/svg" xmlns:xlink="http://www.w3.org/1999/xlink">
<g id="graph0" class="graph" transform="scale(1 1) rotate(0) translate(4 470)">
<title>MonoBehaviour</title>
<!-- Node1 -->
<g id="node1" class="node">
<title>Node1</title>
<g id="a_node1"><a xlink:title=" ">
<polygon fill="#bfbfbf" stroke="black" points="1057,-408.5 1057,-465.5 1140,-465.5 1140,-408.5 1057,-408.5"/>
<text text-anchor="middle" x="1098.5" y="-453.5" font-family="Helvetica,sans-Serif" font-size="10.00">MonoBehaviour</text>
<polyline fill="none" stroke="black" points="1057,-446.5 1140,-446.5 "/>
<text text-anchor="middle" x="1098.5" y="-434.5" font-family="Helvetica,sans-Serif" font-size="10.00"> </text>
<polyline fill="none" stroke="black" points="1057,-427.5 1140,-427.5 "/>
<text text-anchor="middle" x="1098.5" y="-415.5" font-family="Helvetica,sans-Serif" font-size="10.00"> </text>
</a>
</g>
</g>
<!-- Node2 -->
<g id="node2" class="node">
<title>Node2</title>
<g id="a_node2"><a xlink:href="class_camera_management_1_1_dynamic_camera.html" target="_top" xlink:title=" ">
<polygon fill="none" stroke="black" points="0,-144 0,-322 151,-322 151,-144 0,-144"/>
<text text-anchor="start" x="8" y="-310" font-family="Helvetica,sans-Serif" font-size="10.00">CameraManagement.Dynamic</text>
<text text-anchor="middle" x="75.5" y="-299" font-family="Helvetica,sans-Serif" font-size="10.00">Camera</text>
<polyline fill="none" stroke="black" points="0,-292 151,-292 "/>
<text text-anchor="start" x="8" y="-280" font-family="Helvetica,sans-Serif" font-size="10.00">+ bool FollowTarget</text>
<polyline fill="none" stroke="black" points="0,-273 151,-273 "/>
<text text-anchor="start" x="8" y="-261" font-family="Helvetica,sans-Serif" font-size="10.00">~ void ChangeTarget(Transform</text>
<text text-anchor="start" x="8" y="-250" font-family="Helvetica,sans-Serif" font-size="10.00"> target)</text>
<text text-anchor="start" x="8" y="-239" font-family="Helvetica,sans-Serif" font-size="10.00">~ void UpdateOffset(Vector2</text>
<text text-anchor="start" x="8" y="-228" font-family="Helvetica,sans-Serif" font-size="10.00"> offset)</text>
<text text-anchor="start" x="8" y="-217" font-family="Helvetica,sans-Serif" font-size="10.00">~ void UpdateOffsetX</text>
<text text-anchor="start" x="8" y="-206" font-family="Helvetica,sans-Serif" font-size="10.00">(float offsetX)</text>
<text text-anchor="start" x="8" y="-195" font-family="Helvetica,sans-Serif" font-size="10.00">~ Vector2 GetOffsets()</text>
<text text-anchor="start" x="8" y="-184" font-family="Helvetica,sans-Serif" font-size="10.00">~ void UpdateOffsetY</text>
<text text-anchor="start" x="8" y="-173" font-family="Helvetica,sans-Serif" font-size="10.00">(float offsetY)</text>
<text text-anchor="start" x="8" y="-162" font-family="Helvetica,sans-Serif" font-size="10.00">~ void UpdateSize(float</text>
<text text-anchor="start" x="8" y="-151" font-family="Helvetica,sans-Serif" font-size="10.00"> size, float duration=3f)</text>
</a>
</g>
</g>
<!-- Node1&#45;&gt;Node2 -->
<g id="edge1" class="edge">
<title>Node1&#45;&gt;Node2</title>
<path fill="none" stroke="midnightblue" d="M1046.74,-435.21C861.21,-432.02 236.52,-417.92 160.5,-372 140.75,-360.07 124.93,-341.62 112.55,-322.06"/>
<polygon fill="none" stroke="midnightblue" points="1046.72,-438.71 1056.78,-435.38 1046.84,-431.71 1046.72,-438.71"/>
</g>
<!-- Node3 -->
<g id="node3" class="node">
<title>Node3</title>
<g id="a_node3"><a xlink:href="class_camera_trigger.html" target="_top" xlink:title=" ">
<polygon fill="none" stroke="black" points="169.5,-204.5 169.5,-261.5 249.5,-261.5 249.5,-204.5 169.5,-204.5"/>
<text text-anchor="middle" x="209.5" y="-249.5" font-family="Helvetica,sans-Serif" font-size="10.00">CameraTrigger</text>
<polyline fill="none" stroke="black" points="169.5,-242.5 249.5,-242.5 "/>
<text text-anchor="middle" x="209.5" y="-230.5" font-family="Helvetica,sans-Serif" font-size="10.00"> </text>
<polyline fill="none" stroke="black" points="169.5,-223.5 249.5,-223.5 "/>
<text text-anchor="middle" x="209.5" y="-211.5" font-family="Helvetica,sans-Serif" font-size="10.00"> </text>
</a>
</g>
</g>
<!-- Node1&#45;&gt;Node3 -->
<g id="edge2" class="edge">
<title>Node1&#45;&gt;Node3</title>
<path fill="none" stroke="midnightblue" d="M1046.72,-435.29C873.41,-432.49 321.08,-419.86 258.5,-372 224.27,-345.82 213.89,-293.81 210.78,-261.65"/>
<polygon fill="none" stroke="midnightblue" points="1046.8,-438.8 1056.86,-435.45 1046.91,-431.8 1046.8,-438.8"/>
</g>
<!-- Node4 -->
<g id="node4" class="node">
<title>Node4</title>
<g id="a_node4"><a xlink:href="class_controllers_1_1_base_controller.html" target="_top" xlink:title=" ">
<polygon fill="none" stroke="black" points="267.5,-94.5 267.5,-371.5 431.5,-371.5 431.5,-94.5 267.5,-94.5"/>
<text text-anchor="middle" x="349.5" y="-359.5" font-family="Helvetica,sans-Serif" font-size="10.00">Controllers.BaseController</text>
<polyline fill="none" stroke="black" points="267.5,-352.5 431.5,-352.5 "/>
<text text-anchor="start" x="275.5" y="-340.5" font-family="Helvetica,sans-Serif" font-size="10.00"># EControllerKind controllerKind</text>
<text text-anchor="start" x="275.5" y="-329.5" font-family="Helvetica,sans-Serif" font-size="10.00"># float maxHealth</text>
<text text-anchor="start" x="275.5" y="-318.5" font-family="Helvetica,sans-Serif" font-size="10.00"># bool isInvencible</text>
<text text-anchor="start" x="275.5" y="-307.5" font-family="Helvetica,sans-Serif" font-size="10.00"># Vector2 moveOnAttackSpeed</text>
<text text-anchor="start" x="275.5" y="-296.5" font-family="Helvetica,sans-Serif" font-size="10.00"># GameObject hitParticles</text>
<text text-anchor="start" x="275.5" y="-285.5" font-family="Helvetica,sans-Serif" font-size="10.00"># AudioSource hitAttackSFX1</text>
<text text-anchor="start" x="275.5" y="-274.5" font-family="Helvetica,sans-Serif" font-size="10.00"># AudioSource hitAttackSFX2</text>
<text text-anchor="start" x="275.5" y="-263.5" font-family="Helvetica,sans-Serif" font-size="10.00"># BaseMovementController</text>
<text text-anchor="start" x="275.5" y="-252.5" font-family="Helvetica,sans-Serif" font-size="10.00"> baseMovementController</text>
<text text-anchor="start" x="275.5" y="-241.5" font-family="Helvetica,sans-Serif" font-size="10.00"># Animator characterAnimator</text>
<text text-anchor="start" x="275.5" y="-230.5" font-family="Helvetica,sans-Serif" font-size="10.00"># Rigidbody2D RigidBdy</text>
<text text-anchor="start" x="275.5" y="-219.5" font-family="Helvetica,sans-Serif" font-size="10.00"># ECharacterKind characterKind</text>
<text text-anchor="start" x="275.5" y="-208.5" font-family="Helvetica,sans-Serif" font-size="10.00"># PlayerController playerController</text>
<text text-anchor="start" x="275.5" y="-197.5" font-family="Helvetica,sans-Serif" font-size="10.00"># bool playerFacingDirection</text>
<text text-anchor="start" x="275.5" y="-186.5" font-family="Helvetica,sans-Serif" font-size="10.00"># bool playerOnLeft</text>
<polyline fill="none" stroke="black" points="267.5,-179.5 431.5,-179.5 "/>
<text text-anchor="start" x="275.5" y="-167.5" font-family="Helvetica,sans-Serif" font-size="10.00">+ T GetMovementController</text>
<text text-anchor="start" x="275.5" y="-156.5" font-family="Helvetica,sans-Serif" font-size="10.00">&lt; T &gt;()</text>
<text text-anchor="start" x="275.5" y="-145.5" font-family="Helvetica,sans-Serif" font-size="10.00">+ virtual void Damage</text>
<text text-anchor="start" x="275.5" y="-134.5" font-family="Helvetica,sans-Serif" font-size="10.00">(float amount, int attackN)</text>
<text text-anchor="start" x="275.5" y="-123.5" font-family="Helvetica,sans-Serif" font-size="10.00"># virtual void OnStart()</text>
<text text-anchor="start" x="275.5" y="-112.5" font-family="Helvetica,sans-Serif" font-size="10.00"># virtual void OnUpdate()</text>
<text text-anchor="start" x="275.5" y="-101.5" font-family="Helvetica,sans-Serif" font-size="10.00"># virtual void OnFixedUpdate()</text>
</a>
</g>
</g>
<!-- Node1&#45;&gt;Node4 -->
<g id="edge3" class="edge">
<title>Node1&#45;&gt;Node4</title>
<path fill="none" stroke="midnightblue" d="M1046.31,-436.6C909.17,-437.31 542.17,-433.28 440.5,-372 437.43,-370.15 434.44,-368.15 431.53,-366.02"/>
<polygon fill="none" stroke="midnightblue" points="1046.58,-440.1 1056.56,-436.54 1046.53,-433.1 1046.58,-440.1"/>
</g>
<!-- Node6 -->
<g id="node6" class="node">
<title>Node6</title>
<g id="a_node6"><a xlink:href="class_controllers_1_1_movement_1_1_base_movement_controller.html" target="_top" xlink:title=" ">
<polygon fill="none" stroke="black" points="449.5,-199 449.5,-267 585.5,-267 585.5,-199 449.5,-199"/>
<text text-anchor="start" x="457.5" y="-255" font-family="Helvetica,sans-Serif" font-size="10.00">Controllers.Movement.Base</text>
<text text-anchor="middle" x="517.5" y="-244" font-family="Helvetica,sans-Serif" font-size="10.00">MovementController</text>
<polyline fill="none" stroke="black" points="449.5,-237 585.5,-237 "/>
<text text-anchor="middle" x="517.5" y="-225" font-family="Helvetica,sans-Serif" font-size="10.00"> </text>
<polyline fill="none" stroke="black" points="449.5,-218 585.5,-218 "/>
<text text-anchor="middle" x="517.5" y="-206" font-family="Helvetica,sans-Serif" font-size="10.00"> </text>
</a>
</g>
</g>
<!-- Node1&#45;&gt;Node6 -->
<g id="edge5" class="edge">
<title>Node1&#45;&gt;Node6</title>
<path fill="none" stroke="midnightblue" d="M1046.5,-435.18C933.21,-432.48 668.4,-420.97 595.5,-372 558.83,-347.37 537.48,-299.38 526.66,-267"/>
<polygon fill="none" stroke="midnightblue" points="1046.58,-438.68 1056.66,-435.41 1046.74,-431.68 1046.58,-438.68"/>
</g>
<!-- Node7 -->
<g id="node7" class="node">
<title>Node7</title>
<g id="a_node7"><a xlink:href="class_death_bounds_component.html" target="_top" xlink:title=" ">
<polygon fill="none" stroke="black" points="604,-204.5 604,-261.5 729,-261.5 729,-204.5 604,-204.5"/>
<text text-anchor="middle" x="666.5" y="-249.5" font-family="Helvetica,sans-Serif" font-size="10.00">DeathBoundsComponent</text>
<polyline fill="none" stroke="black" points="604,-242.5 729,-242.5 "/>
<text text-anchor="middle" x="666.5" y="-230.5" font-family="Helvetica,sans-Serif" font-size="10.00"> </text>
<polyline fill="none" stroke="black" points="604,-223.5 729,-223.5 "/>
<text text-anchor="middle" x="666.5" y="-211.5" font-family="Helvetica,sans-Serif" font-size="10.00"> </text>
</a>
</g>
</g>
<!-- Node1&#45;&gt;Node7 -->
<g id="edge6" class="edge">
<title>Node1&#45;&gt;Node7</title>
<path fill="none" stroke="midnightblue" d="M1046.72,-432.38C959.19,-425.37 786.75,-407.4 738.5,-372 701.68,-344.99 682.09,-293.5 673.04,-261.62"/>
<polygon fill="none" stroke="midnightblue" points="1046.47,-435.87 1056.71,-433.17 1047.01,-428.89 1046.47,-435.87"/>
</g>
<!-- Node8 -->
<g id="node8" class="node">
<title>Node8</title>
<g id="a_node8"><a xlink:href="class_image_animation.html" target="_top" xlink:title=" ">
<polygon fill="none" stroke="black" points="747,-188 747,-278 856,-278 856,-188 747,-188"/>
<text text-anchor="middle" x="801.5" y="-266" font-family="Helvetica,sans-Serif" font-size="10.00">ImageAnimation</text>
<polyline fill="none" stroke="black" points="747,-259 856,-259 "/>
<text text-anchor="start" x="755" y="-247" font-family="Helvetica,sans-Serif" font-size="10.00">+ Sprite[] sprites</text>
<text text-anchor="start" x="755" y="-236" font-family="Helvetica,sans-Serif" font-size="10.00">+ int spritePerFrame</text>
<text text-anchor="start" x="755" y="-225" font-family="Helvetica,sans-Serif" font-size="10.00">+ bool loop</text>
<text text-anchor="start" x="755" y="-214" font-family="Helvetica,sans-Serif" font-size="10.00">+ bool destroyOnEnd</text>
<polyline fill="none" stroke="black" points="747,-207 856,-207 "/>
<text text-anchor="middle" x="801.5" y="-195" font-family="Helvetica,sans-Serif" font-size="10.00"> </text>
</a>
</g>
</g>
<!-- Node1&#45;&gt;Node8 -->
<g id="edge7" class="edge">
<title>Node1&#45;&gt;Node8</title>
<path fill="none" stroke="midnightblue" d="M1046.37,-434.04C994.92,-429.51 916.73,-415.35 865.5,-372 837.18,-348.03 820.66,-308.8 811.53,-278.29"/>
<polygon fill="none" stroke="midnightblue" points="1046.36,-437.55 1056.61,-434.84 1046.91,-430.57 1046.36,-437.55"/>
</g>
<!-- Node9 -->
<g id="node9" class="node">
<title>Node9</title>
<g id="a_node9"><a xlink:href="class_main_menu.html" target="_top" xlink:title=" ">
<polygon fill="none" stroke="black" points="874,-166 874,-300 1035,-300 1035,-166 874,-166"/>
<text text-anchor="middle" x="954.5" y="-288" font-family="Helvetica,sans-Serif" font-size="10.00">MainMenu</text>
<polyline fill="none" stroke="black" points="874,-281 1035,-281 "/>
<text text-anchor="start" x="882" y="-269" font-family="Helvetica,sans-Serif" font-size="10.00">+ int sliderFPSamount</text>
<text text-anchor="start" x="882" y="-258" font-family="Helvetica,sans-Serif" font-size="10.00">+ ScreenOpts screenOpts</text>
<polyline fill="none" stroke="black" points="874,-251 1035,-251 "/>
<text text-anchor="start" x="882" y="-239" font-family="Helvetica,sans-Serif" font-size="10.00">+ IEnumerator OnLocaleSelected</text>
<text text-anchor="start" x="882" y="-228" font-family="Helvetica,sans-Serif" font-size="10.00">(int index)</text>
<text text-anchor="start" x="882" y="-217" font-family="Helvetica,sans-Serif" font-size="10.00">+ IEnumerator DoFade</text>
<text text-anchor="start" x="882" y="-206" font-family="Helvetica,sans-Serif" font-size="10.00">(CanvasGroup cg, float</text>
<text text-anchor="start" x="882" y="-195" font-family="Helvetica,sans-Serif" font-size="10.00"> start, float end, float</text>
<text text-anchor="start" x="882" y="-184" font-family="Helvetica,sans-Serif" font-size="10.00"> duration, float delay=0.0f,</text>
<text text-anchor="start" x="882" y="-173" font-family="Helvetica,sans-Serif" font-size="10.00"> Action callback=null)</text>
</a>
</g>
</g>
<!-- Node1&#45;&gt;Node9 -->
<g id="edge8" class="edge">
<title>Node1&#45;&gt;Node9</title>
<path fill="none" stroke="midnightblue" d="M1067.21,-400.49C1059.55,-391.38 1051.54,-381.47 1044.5,-372 1027.52,-349.16 1010.14,-323.23 995.24,-300.06"/>
<polygon fill="none" stroke="midnightblue" points="1064.67,-402.9 1073.81,-408.25 1070,-398.37 1064.67,-402.9"/>
</g>
<!-- Node10 -->
<g id="node10" class="node">
<title>Node10</title>
<g id="a_node10"><a xlink:href="class_particle_controller.html" target="_top" xlink:title=" ">
<polygon fill="none" stroke="black" points="1053,-204.5 1053,-261.5 1144,-261.5 1144,-204.5 1053,-204.5"/>
<text text-anchor="middle" x="1098.5" y="-249.5" font-family="Helvetica,sans-Serif" font-size="10.00">ParticleController</text>
<polyline fill="none" stroke="black" points="1053,-242.5 1144,-242.5 "/>
<text text-anchor="middle" x="1098.5" y="-230.5" font-family="Helvetica,sans-Serif" font-size="10.00"> </text>
<polyline fill="none" stroke="black" points="1053,-223.5 1144,-223.5 "/>
<text text-anchor="middle" x="1098.5" y="-211.5" font-family="Helvetica,sans-Serif" font-size="10.00"> </text>
</a>
</g>
</g>
<!-- Node1&#45;&gt;Node10 -->
<g id="edge9" class="edge">
<title>Node1&#45;&gt;Node10</title>
<path fill="none" stroke="midnightblue" d="M1098.5,-398.25C1098.5,-358.56 1098.5,-297.06 1098.5,-261.65"/>
<polygon fill="none" stroke="midnightblue" points="1095,-398.34 1098.5,-408.34 1102,-398.34 1095,-398.34"/>
</g>
<!-- Node11 -->
<g id="node11" class="node">
<title>Node11</title>
<g id="a_node11"><a xlink:href="class_player_1_1_player_combat_controller.html" target="_top" xlink:title=" ">
<polygon fill="none" stroke="black" points="1162,-155 1162,-311 1323,-311 1323,-155 1162,-155"/>
<text text-anchor="middle" x="1242.5" y="-299" font-family="Helvetica,sans-Serif" font-size="10.00">Player.PlayerCombatController</text>
<polyline fill="none" stroke="black" points="1162,-292 1323,-292 "/>
<text text-anchor="start" x="1170" y="-280" font-family="Helvetica,sans-Serif" font-size="10.00">~ bool attacking</text>
<text text-anchor="start" x="1170" y="-269" font-family="Helvetica,sans-Serif" font-size="10.00"># PlayerController pCtrl</text>
<text text-anchor="start" x="1170" y="-258" font-family="Helvetica,sans-Serif" font-size="10.00"># PlayerMovementController</text>
<text text-anchor="start" x="1170" y="-247" font-family="Helvetica,sans-Serif" font-size="10.00"> pMovCtrl</text>
<text text-anchor="start" x="1170" y="-236" font-family="Helvetica,sans-Serif" font-size="10.00"># PlayerLadderClimbingController</text>
<text text-anchor="start" x="1170" y="-225" font-family="Helvetica,sans-Serif" font-size="10.00"> pLadderCtrl</text>
<polyline fill="none" stroke="black" points="1162,-218 1323,-218 "/>
<text text-anchor="start" x="1170" y="-206" font-family="Helvetica,sans-Serif" font-size="10.00">+ void AnimAttackEndEvt()</text>
<text text-anchor="start" x="1170" y="-195" font-family="Helvetica,sans-Serif" font-size="10.00">+ void AnimAttackSwingEvt()</text>
<text text-anchor="start" x="1170" y="-184" font-family="Helvetica,sans-Serif" font-size="10.00">+ void AnimHasAttackAnimation</text>
<text text-anchor="start" x="1170" y="-173" font-family="Helvetica,sans-Serif" font-size="10.00">StartedEvt()</text>
<text text-anchor="start" x="1170" y="-162" font-family="Helvetica,sans-Serif" font-size="10.00">~ void ResetAttackNow()</text>
</a>
</g>
</g>
<!-- Node1&#45;&gt;Node11 -->
<g id="edge10" class="edge">
<title>Node1&#45;&gt;Node11</title>
<path fill="none" stroke="midnightblue" d="M1130.45,-400.57C1138.24,-391.46 1146.38,-381.53 1153.5,-372 1167.83,-352.81 1182.33,-331.36 1195.36,-311.19"/>
<polygon fill="none" stroke="midnightblue" points="1127.63,-398.48 1123.73,-408.33 1132.92,-403.07 1127.63,-398.48"/>
</g>
<!-- Node12 -->
<g id="node12" class="node">
<title>Node12</title>
<g id="a_node12"><a xlink:href="class_player_1_1_player_controller.html" target="_top" xlink:title=" ">
<polygon fill="none" stroke="black" points="1341,-127.5 1341,-338.5 1482,-338.5 1482,-127.5 1341,-127.5"/>
<text text-anchor="middle" x="1411.5" y="-326.5" font-family="Helvetica,sans-Serif" font-size="10.00">Player.PlayerController</text>
<polyline fill="none" stroke="black" points="1341,-319.5 1482,-319.5 "/>
<text text-anchor="start" x="1349" y="-307.5" font-family="Helvetica,sans-Serif" font-size="10.00">+ float NextAttackMaxTime</text>
<text text-anchor="start" x="1349" y="-296.5" font-family="Helvetica,sans-Serif" font-size="10.00">~ bool roll</text>
<text text-anchor="start" x="1349" y="-285.5" font-family="Helvetica,sans-Serif" font-size="10.00">~ bool praying</text>
<text text-anchor="start" x="1349" y="-274.5" font-family="Helvetica,sans-Serif" font-size="10.00">~ bool awaitingAttack</text>
<text text-anchor="start" x="1349" y="-263.5" font-family="Helvetica,sans-Serif" font-size="10.00">~ bool respawning</text>
<text text-anchor="start" x="1349" y="-252.5" font-family="Helvetica,sans-Serif" font-size="10.00"># PlayerMovementController</text>
<text text-anchor="start" x="1349" y="-241.5" font-family="Helvetica,sans-Serif" font-size="10.00"> playerMovementCtrl</text>
<polyline fill="none" stroke="black" points="1341,-234.5 1482,-234.5 "/>
<text text-anchor="start" x="1349" y="-222.5" font-family="Helvetica,sans-Serif" font-size="10.00">+ void LandEvt()</text>
<text text-anchor="start" x="1349" y="-211.5" font-family="Helvetica,sans-Serif" font-size="10.00">+ void OnAirEvt()</text>
<text text-anchor="start" x="1349" y="-200.5" font-family="Helvetica,sans-Serif" font-size="10.00">+ bool IsFacingRight()</text>
<text text-anchor="start" x="1349" y="-189.5" font-family="Helvetica,sans-Serif" font-size="10.00">+ void AnimStartPrayingEvt()</text>
<text text-anchor="start" x="1349" y="-178.5" font-family="Helvetica,sans-Serif" font-size="10.00">+ void AnimRollEndEvt()</text>
<text text-anchor="start" x="1349" y="-167.5" font-family="Helvetica,sans-Serif" font-size="10.00">+ void AnimFootStep1Evt()</text>
<text text-anchor="start" x="1349" y="-156.5" font-family="Helvetica,sans-Serif" font-size="10.00">+ void AnimFootStep2Evt()</text>
<text text-anchor="start" x="1349" y="-145.5" font-family="Helvetica,sans-Serif" font-size="10.00">~ void OnEnable()</text>
<text text-anchor="start" x="1349" y="-134.5" font-family="Helvetica,sans-Serif" font-size="10.00">~ void OnDisable()</text>
</a>
</g>
</g>
<!-- Node1&#45;&gt;Node12 -->
<g id="edge11" class="edge">
<title>Node1&#45;&gt;Node12</title>
<path fill="none" stroke="midnightblue" d="M1150.53,-433.11C1201.61,-427.85 1279.38,-413.13 1332.5,-372 1344.4,-362.79 1354.81,-351.24 1363.83,-338.78"/>
<polygon fill="none" stroke="midnightblue" points="1150,-429.64 1140.37,-434.06 1150.65,-436.61 1150,-429.64"/>
</g>
<!-- Node13 -->
<g id="node13" class="node">
<title>Node13</title>
<g id="a_node13"><a xlink:href="class_player_1_1_player_ladder_climbing_controller.html" target="_top" xlink:title=" ">
<polygon fill="none" stroke="black" points="1500.5,-199 1500.5,-267 1642.5,-267 1642.5,-199 1500.5,-199"/>
<text text-anchor="start" x="1508.5" y="-255" font-family="Helvetica,sans-Serif" font-size="10.00">Player.PlayerLadderClimbing</text>
<text text-anchor="middle" x="1571.5" y="-244" font-family="Helvetica,sans-Serif" font-size="10.00">Controller</text>
<polyline fill="none" stroke="black" points="1500.5,-237 1642.5,-237 "/>
<text text-anchor="start" x="1508.5" y="-225" font-family="Helvetica,sans-Serif" font-size="10.00">~ bool isClimbing</text>
<polyline fill="none" stroke="black" points="1500.5,-218 1642.5,-218 "/>
<text text-anchor="middle" x="1571.5" y="-206" font-family="Helvetica,sans-Serif" font-size="10.00"> </text>
</a>
</g>
</g>
<!-- Node1&#45;&gt;Node13 -->
<g id="edge12" class="edge">
<title>Node1&#45;&gt;Node13</title>
<path fill="none" stroke="midnightblue" d="M1150.29,-433.02C1243.99,-426.75 1436.98,-409.57 1491.5,-372 1527.98,-346.86 1550.11,-299.24 1561.58,-267.06"/>
<polygon fill="none" stroke="midnightblue" points="1149.94,-429.53 1140.19,-433.68 1150.39,-436.52 1149.94,-429.53"/>
</g>
<!-- Node14 -->
<g id="node14" class="node">
<title>Node14</title>
<g id="a_node14"><a xlink:href="class_player_1_1_player_movement_controller.html" target="_top" xlink:title=" ">
<polygon fill="none" stroke="black" points="1661,-94.5 1661,-371.5 1822,-371.5 1822,-94.5 1661,-94.5"/>
<text text-anchor="middle" x="1741.5" y="-359.5" font-family="Helvetica,sans-Serif" font-size="10.00">Player.PlayerMovementController</text>
<polyline fill="none" stroke="black" points="1661,-352.5 1822,-352.5 "/>
<text text-anchor="start" x="1669" y="-340.5" font-family="Helvetica,sans-Serif" font-size="10.00">+ float LedgeClimbXOffset1</text>
<text text-anchor="start" x="1669" y="-329.5" font-family="Helvetica,sans-Serif" font-size="10.00">+ float LedgeClimbYOffset1</text>
<text text-anchor="start" x="1669" y="-318.5" font-family="Helvetica,sans-Serif" font-size="10.00">+ float LedgeClimbXOffset2</text>
<text text-anchor="start" x="1669" y="-307.5" font-family="Helvetica,sans-Serif" font-size="10.00">+ float LedgeClimbYOffset2</text>
<text text-anchor="start" x="1669" y="-296.5" font-family="Helvetica,sans-Serif" font-size="10.00">+ UnityEvent OnLandEvent</text>
<text text-anchor="start" x="1669" y="-285.5" font-family="Helvetica,sans-Serif" font-size="10.00">+ UnityEvent OnAirEvent</text>
<text text-anchor="start" x="1669" y="-274.5" font-family="Helvetica,sans-Serif" font-size="10.00">+ BoolEvent OnCrouchEvent</text>
<text text-anchor="start" x="1669" y="-263.5" font-family="Helvetica,sans-Serif" font-size="10.00">~ bool Grounded</text>
<text text-anchor="start" x="1669" y="-252.5" font-family="Helvetica,sans-Serif" font-size="10.00">~ Vector3 Velocity</text>
<text text-anchor="start" x="1669" y="-241.5" font-family="Helvetica,sans-Serif" font-size="10.00">~ bool IsTouchingWall</text>
<text text-anchor="start" x="1669" y="-230.5" font-family="Helvetica,sans-Serif" font-size="10.00">~ bool IsTouchingLedge</text>
<polyline fill="none" stroke="black" points="1661,-223.5 1822,-223.5 "/>
<text text-anchor="start" x="1669" y="-211.5" font-family="Helvetica,sans-Serif" font-size="10.00">+ void Move(float moveH,</text>
<text text-anchor="start" x="1669" y="-200.5" font-family="Helvetica,sans-Serif" font-size="10.00"> float moveV, bool crouch,</text>
<text text-anchor="start" x="1669" y="-189.5" font-family="Helvetica,sans-Serif" font-size="10.00"> bool jump, bool roll, bool</text>
<text text-anchor="start" x="1669" y="-178.5" font-family="Helvetica,sans-Serif" font-size="10.00"> attacking)</text>
<text text-anchor="start" x="1669" y="-167.5" font-family="Helvetica,sans-Serif" font-size="10.00">+ bool IsFacingRight()</text>
<text text-anchor="start" x="1669" y="-156.5" font-family="Helvetica,sans-Serif" font-size="10.00">+ void EnableFlip()</text>
<text text-anchor="start" x="1669" y="-145.5" font-family="Helvetica,sans-Serif" font-size="10.00">+ void DisableFlip()</text>
<text text-anchor="start" x="1669" y="-134.5" font-family="Helvetica,sans-Serif" font-size="10.00">~ void AttackMovement</text>
<text text-anchor="start" x="1669" y="-123.5" font-family="Helvetica,sans-Serif" font-size="10.00">(int power)</text>
<text text-anchor="start" x="1669" y="-112.5" font-family="Helvetica,sans-Serif" font-size="10.00">~ void PrepareRespawn</text>
<text text-anchor="start" x="1669" y="-101.5" font-family="Helvetica,sans-Serif" font-size="10.00">(Transform SpawnPoint)</text>
</a>
</g>
</g>
<!-- Node1&#45;&gt;Node14 -->
<g id="edge13" class="edge">
<title>Node1&#45;&gt;Node14</title>
<path fill="none" stroke="midnightblue" d="M1150.22,-435.52C1271.14,-433.55 1568.34,-423.45 1651.5,-372 1654.66,-370.04 1657.74,-367.93 1660.72,-365.68"/>
<polygon fill="none" stroke="midnightblue" points="1150.05,-432.03 1140.11,-435.68 1150.16,-439.03 1150.05,-432.03"/>
</g>
<!-- Node15 -->
<g id="node15" class="node">
<title>Node15</title>
<g id="a_node15"><a xlink:href="class_screen_opts.html" target="_top" xlink:title=" ">
<polygon fill="none" stroke="black" points="1840,-182.5 1840,-283.5 2013,-283.5 2013,-182.5 1840,-182.5"/>
<text text-anchor="middle" x="1926.5" y="-271.5" font-family="Helvetica,sans-Serif" font-size="10.00">ScreenOpts</text>
<polyline fill="none" stroke="black" points="1840,-264.5 2013,-264.5 "/>
<text text-anchor="start" x="1848" y="-252.5" font-family="Helvetica,sans-Serif" font-size="10.00">+ int currentFPS</text>
<text text-anchor="start" x="1848" y="-241.5" font-family="Helvetica,sans-Serif" font-size="10.00">+ LocalizeStringEvent</text>
<text text-anchor="start" x="1848" y="-230.5" font-family="Helvetica,sans-Serif" font-size="10.00"> localizeString</text>
<text text-anchor="start" x="1848" y="-219.5" font-family="Helvetica,sans-Serif" font-size="10.00">+ static string sliderFPSamountSTR</text>
<polyline fill="none" stroke="black" points="1840,-212.5 2013,-212.5 "/>
<text text-anchor="start" x="1848" y="-200.5" font-family="Helvetica,sans-Serif" font-size="10.00">~ void SetFPSStr(int</text>
<text text-anchor="start" x="1848" y="-189.5" font-family="Helvetica,sans-Serif" font-size="10.00"> sliderFPSamount)</text>
</a>
</g>
</g>
<!-- Node1&#45;&gt;Node15 -->
<g id="edge14" class="edge">
<title>Node1&#45;&gt;Node15</title>
<path fill="none" stroke="midnightblue" d="M1150.55,-434.01C1308.15,-427.63 1772.97,-406.1 1831.5,-372 1865.55,-352.16 1890.17,-314.66 1905.81,-283.76"/>
<polygon fill="none" stroke="midnightblue" points="1150.03,-430.53 1140.18,-434.43 1150.32,-437.52 1150.03,-430.53"/>
</g>
<!-- Node16 -->
<g id="node16" class="node">
<title>Node16</title>
<g id="a_node16"><a xlink:href="class_torch_component.html" target="_top" xlink:title=" ">
<polygon fill="none" stroke="black" points="2031.5,-204.5 2031.5,-261.5 2121.5,-261.5 2121.5,-204.5 2031.5,-204.5"/>
<text text-anchor="middle" x="2076.5" y="-249.5" font-family="Helvetica,sans-Serif" font-size="10.00">TorchComponent</text>
<polyline fill="none" stroke="black" points="2031.5,-242.5 2121.5,-242.5 "/>
<text text-anchor="middle" x="2076.5" y="-230.5" font-family="Helvetica,sans-Serif" font-size="10.00"> </text>
<polyline fill="none" stroke="black" points="2031.5,-223.5 2121.5,-223.5 "/>
<text text-anchor="middle" x="2076.5" y="-211.5" font-family="Helvetica,sans-Serif" font-size="10.00"> </text>
</a>
</g>
</g>
<!-- Node1&#45;&gt;Node16 -->
<g id="edge15" class="edge">
<title>Node1&#45;&gt;Node16</title>
<path fill="none" stroke="midnightblue" d="M1150.37,-435.6C1334.87,-433.76 1952.06,-423.74 2022.5,-372 2057.65,-346.19 2069.92,-294.06 2074.21,-261.78"/>
<polygon fill="none" stroke="midnightblue" points="1150.09,-432.1 1140.12,-435.7 1150.16,-439.1 1150.09,-432.1"/>
</g>
<!-- Node17 -->
<g id="node17" class="node">
<title>Node17</title>
<g id="a_node17"><a xlink:href="class_u_i___panel_opacity.html" target="_top" xlink:title=" ">
<polygon fill="none" stroke="black" points="2140,-177 2140,-289 2255,-289 2255,-177 2140,-177"/>
<text text-anchor="middle" x="2197.5" y="-277" font-family="Helvetica,sans-Serif" font-size="10.00">UI_PanelOpacity</text>
<polyline fill="none" stroke="black" points="2140,-270 2255,-270 "/>
<text text-anchor="middle" x="2197.5" y="-258" font-family="Helvetica,sans-Serif" font-size="10.00"> </text>
<polyline fill="none" stroke="black" points="2140,-251 2255,-251 "/>
<text text-anchor="start" x="2148" y="-239" font-family="Helvetica,sans-Serif" font-size="10.00">+ void FadePanel(bool</text>
<text text-anchor="start" x="2148" y="-228" font-family="Helvetica,sans-Serif" font-size="10.00"> fadeMode)</text>
<text text-anchor="start" x="2148" y="-217" font-family="Helvetica,sans-Serif" font-size="10.00">+ IEnumerator DoFade</text>
<text text-anchor="start" x="2148" y="-206" font-family="Helvetica,sans-Serif" font-size="10.00">(CanvasGroup cg, float</text>
<text text-anchor="start" x="2148" y="-195" font-family="Helvetica,sans-Serif" font-size="10.00"> start, float end, float</text>
<text text-anchor="start" x="2148" y="-184" font-family="Helvetica,sans-Serif" font-size="10.00"> duration)</text>
</a>
</g>
</g>
<!-- Node1&#45;&gt;Node17 -->
<g id="edge16" class="edge">
<title>Node1&#45;&gt;Node17</title>
<path fill="none" stroke="midnightblue" d="M1150.27,-435.81C1348.01,-434.69 2048.64,-426.85 2130.5,-372 2158.71,-353.1 2175.44,-318.79 2185.13,-289.12"/>
<polygon fill="none" stroke="midnightblue" points="1150.13,-432.31 1140.15,-435.87 1150.17,-439.31 1150.13,-432.31"/>
</g>
<!-- Node5 -->
<g id="node5" class="node">
<title>Node5</title>
<g id="a_node5"><a xlink:href="class_controllers_1_1_dummy_controller.html" target="_top" xlink:title=" ">
<polygon fill="none" stroke="black" points="279,-0.5 279,-57.5 420,-57.5 420,-0.5 279,-0.5"/>
<text text-anchor="middle" x="349.5" y="-45.5" font-family="Helvetica,sans-Serif" font-size="10.00">Controllers.DummyController</text>
<polyline fill="none" stroke="black" points="279,-38.5 420,-38.5 "/>
<text text-anchor="middle" x="349.5" y="-26.5" font-family="Helvetica,sans-Serif" font-size="10.00"> </text>
<polyline fill="none" stroke="black" points="279,-19.5 420,-19.5 "/>
<text text-anchor="start" x="287" y="-7.5" font-family="Helvetica,sans-Serif" font-size="10.00"># override void OnStart()</text>
</a>
</g>
</g>
<!-- Node4&#45;&gt;Node5 -->
<g id="edge4" class="edge">
<title>Node4&#45;&gt;Node5</title>
<path fill="none" stroke="midnightblue" d="M349.5,-84.41C349.5,-74.59 349.5,-65.52 349.5,-57.71"/>
<polygon fill="none" stroke="midnightblue" points="346,-84.47 349.5,-94.47 353,-84.47 346,-84.47"/>
</g>
</g>
</svg>
