<?xml version="1.0" encoding="UTF-8" standalone="no"?>
<!DOCTYPE svg PUBLIC "-//W3C//DTD SVG 1.1//EN"
 "http://www.w3.org/Graphics/SVG/1.1/DTD/svg11.dtd">
<!-- Generated by graphviz version 2.48.0 (20210717.1556)
 -->
<!-- Title: Controllers.DummyController Pages: 1 -->
<svg width="1359pt" height="945pt"
 viewBox="0.00 0.00 1359.00 945.00" xmlns="http://www.w3.org/2000/svg" xmlns:xlink="http://www.w3.org/1999/xlink">
<g id="graph0" class="graph" transform="scale(1 1) rotate(0) translate(4 941)">
<title>Controllers.DummyController</title>
<!-- Node1 -->
<g id="node1" class="node">
<title>Node1</title>
<g id="a_node1"><a xlink:title=" ">
<polygon fill="#bfbfbf" stroke="black" points="581.5,-0.5 581.5,-57.5 722.5,-57.5 722.5,-0.5 581.5,-0.5"/>
<text text-anchor="middle" x="652" y="-45.5" font-family="Helvetica,sans-Serif" font-size="10.00">Controllers.DummyController</text>
<polyline fill="none" stroke="black" points="581.5,-38.5 722.5,-38.5 "/>
<text text-anchor="middle" x="652" y="-26.5" font-family="Helvetica,sans-Serif" font-size="10.00"> </text>
<polyline fill="none" stroke="black" points="581.5,-19.5 722.5,-19.5 "/>
<text text-anchor="start" x="589.5" y="-7.5" font-family="Helvetica,sans-Serif" font-size="10.00"># override void OnStart()</text>
</a>
</g>
</g>
<!-- Node2 -->
<g id="node2" class="node">
<title>Node2</title>
<g id="a_node2"><a xlink:href="class_controllers_1_1_base_controller.html" target="_top" xlink:title=" ">
<polygon fill="none" stroke="black" points="565.5,-95.5 565.5,-251.5 738.5,-251.5 738.5,-95.5 565.5,-95.5"/>
<text text-anchor="middle" x="652" y="-239.5" font-family="Helvetica,sans-Serif" font-size="10.00">BaseController</text>
<polyline fill="none" stroke="black" points="565.5,-232.5 738.5,-232.5 "/>
<text text-anchor="middle" x="652" y="-220.5" font-family="Helvetica,sans-Serif" font-size="10.00"> </text>
<polyline fill="none" stroke="black" points="565.5,-213.5 738.5,-213.5 "/>
<text text-anchor="start" x="573.5" y="-201.5" font-family="Helvetica,sans-Serif" font-size="10.00">+ T GetMovementController</text>
<text text-anchor="start" x="573.5" y="-190.5" font-family="Helvetica,sans-Serif" font-size="10.00">&lt; T &gt;()</text>
<text text-anchor="start" x="573.5" y="-179.5" font-family="Helvetica,sans-Serif" font-size="10.00">+ Animator GetAnimator()</text>
<text text-anchor="start" x="573.5" y="-168.5" font-family="Helvetica,sans-Serif" font-size="10.00">+ GameObject GetDialogueBubble()</text>
<text text-anchor="start" x="573.5" y="-157.5" font-family="Helvetica,sans-Serif" font-size="10.00">+ virtual void Damage</text>
<text text-anchor="start" x="573.5" y="-146.5" font-family="Helvetica,sans-Serif" font-size="10.00">(float amount, int attackN)</text>
<text text-anchor="start" x="573.5" y="-135.5" font-family="Helvetica,sans-Serif" font-size="10.00"># virtual void OnStart()</text>
<text text-anchor="start" x="573.5" y="-124.5" font-family="Helvetica,sans-Serif" font-size="10.00"># virtual void OnUpdate()</text>
<text text-anchor="start" x="573.5" y="-113.5" font-family="Helvetica,sans-Serif" font-size="10.00"># virtual void OnFixedUpdate()</text>
<text text-anchor="start" x="573.5" y="-102.5" font-family="Helvetica,sans-Serif" font-size="10.00"># virtual void DrawGizmos()</text>
</a>
</g>
</g>
<!-- Node2&#45;&gt;Node1 -->
<g id="edge1" class="edge">
<title>Node2&#45;&gt;Node1</title>
<path fill="none" stroke="midnightblue" d="M652,-85.36C652,-75.43 652,-65.93 652,-57.69"/>
<polygon fill="none" stroke="midnightblue" points="648.5,-85.41 652,-95.41 655.5,-85.41 648.5,-85.41"/>
</g>
<!-- Node3 -->
<g id="node3" class="node">
<title>Node3</title>
<g id="a_node3"><a xlink:href="interface_controllers_1_1_i_damageable.html" target="_top" xlink:title="Interfaz para todos los NPCs/Enemigos/Objetos que pueden ser daniados.">
<polygon fill="none" stroke="black" points="0,-349 0,-417 140,-417 140,-349 0,-349"/>
<text text-anchor="middle" x="70" y="-405" font-family="Helvetica,sans-Serif" font-size="10.00">IDamageable</text>
<polyline fill="none" stroke="black" points="0,-398 140,-398 "/>
<text text-anchor="middle" x="70" y="-386" font-family="Helvetica,sans-Serif" font-size="10.00"> </text>
<polyline fill="none" stroke="black" points="0,-379 140,-379 "/>
<text text-anchor="start" x="8" y="-367" font-family="Helvetica,sans-Serif" font-size="10.00">+ void Damage(float amount,</text>
<text text-anchor="start" x="8" y="-356" font-family="Helvetica,sans-Serif" font-size="10.00"> int attackN)</text>
</a>
</g>
</g>
<!-- Node3&#45;&gt;Node2 -->
<g id="edge2" class="edge">
<title>Node3&#45;&gt;Node2</title>
<path fill="none" stroke="midnightblue" d="M110.37,-341.9C122.33,-330.96 135.77,-319.5 149,-310 178.73,-288.64 186.77,-282.98 221,-270 336.19,-226.3 476.66,-199.83 565.24,-186.18"/>
<polygon fill="none" stroke="midnightblue" points="107.68,-339.62 102.75,-349 112.45,-344.75 107.68,-339.62"/>
</g>
<!-- Node4 -->
<g id="node4" class="node">
<title>Node4</title>
<g id="a_node4"><a xlink:title=" ">
<polygon fill="none" stroke="#bfbfbf" points="158.5,-354.5 158.5,-411.5 243.5,-411.5 243.5,-354.5 158.5,-354.5"/>
<text text-anchor="middle" x="201" y="-399.5" font-family="Helvetica,sans-Serif" font-size="10.00">ECharacterKind</text>
<polyline fill="none" stroke="#bfbfbf" points="158.5,-392.5 243.5,-392.5 "/>
<text text-anchor="middle" x="201" y="-380.5" font-family="Helvetica,sans-Serif" font-size="10.00"> </text>
<polyline fill="none" stroke="#bfbfbf" points="158.5,-373.5 243.5,-373.5 "/>
<text text-anchor="middle" x="201" y="-361.5" font-family="Helvetica,sans-Serif" font-size="10.00"> </text>
</a>
</g>
</g>
<!-- Node4&#45;&gt;Node2 -->
<g id="edge3" class="edge">
<title>Node4&#45;&gt;Node2</title>
<path fill="none" stroke="#404040" d="M203.73,-354.37C207.75,-328.79 217.65,-291.54 242,-270 287.52,-229.72 446.99,-201.47 553.1,-186.62"/>
<polygon fill="none" stroke="#404040" points="553.24,-186.6 558.63,-181.81 565.12,-184.96 559.73,-189.74 553.24,-186.6"/>
<text text-anchor="middle" x="276.5" y="-278.5" font-family="Helvetica,sans-Serif" font-size="10.00"> #characterKind</text>
</g>
<!-- Node5 -->
<g id="node5" class="node">
<title>Node5</title>
<g id="a_node5"><a xlink:title=" ">
<polygon fill="none" stroke="#bfbfbf" points="261.5,-354.5 261.5,-411.5 332.5,-411.5 332.5,-354.5 261.5,-354.5"/>
<text text-anchor="middle" x="297" y="-399.5" font-family="Helvetica,sans-Serif" font-size="10.00">Rigidbody2D</text>
<polyline fill="none" stroke="#bfbfbf" points="261.5,-392.5 332.5,-392.5 "/>
<text text-anchor="middle" x="297" y="-380.5" font-family="Helvetica,sans-Serif" font-size="10.00"> </text>
<polyline fill="none" stroke="#bfbfbf" points="261.5,-373.5 332.5,-373.5 "/>
<text text-anchor="middle" x="297" y="-361.5" font-family="Helvetica,sans-Serif" font-size="10.00"> </text>
</a>
</g>
</g>
<!-- Node5&#45;&gt;Node2 -->
<g id="edge4" class="edge">
<title>Node5&#45;&gt;Node2</title>
<path fill="none" stroke="#404040" d="M297.95,-354.33C300.29,-329.07 307.66,-292.38 330,-270 388.8,-211.09 482.14,-188.19 553.22,-179.45"/>
<polygon fill="none" stroke="#404040" points="553.4,-179.43 558.91,-174.77 565.32,-178.07 559.81,-182.72 553.4,-179.43"/>
<text text-anchor="middle" x="354" y="-278.5" font-family="Helvetica,sans-Serif" font-size="10.00"> #RigidBdy</text>
</g>
<!-- Node6 -->
<g id="node6" class="node">
<title>Node6</title>
<g id="a_node6"><a xlink:title=" ">
<polygon fill="none" stroke="#bfbfbf" points="351,-354.5 351,-411.5 407,-411.5 407,-354.5 351,-354.5"/>
<text text-anchor="middle" x="379" y="-399.5" font-family="Helvetica,sans-Serif" font-size="10.00">Animator</text>
<polyline fill="none" stroke="#bfbfbf" points="351,-392.5 407,-392.5 "/>
<text text-anchor="middle" x="379" y="-380.5" font-family="Helvetica,sans-Serif" font-size="10.00"> </text>
<polyline fill="none" stroke="#bfbfbf" points="351,-373.5 407,-373.5 "/>
<text text-anchor="middle" x="379" y="-361.5" font-family="Helvetica,sans-Serif" font-size="10.00"> </text>
</a>
</g>
</g>
<!-- Node6&#45;&gt;Node2 -->
<g id="edge5" class="edge">
<title>Node6&#45;&gt;Node2</title>
<path fill="none" stroke="#404040" d="M375.26,-354.06C373.53,-329.33 375.13,-293.59 394,-270 432.57,-221.79 497.97,-197.92 553.27,-186.09"/>
<polygon fill="none" stroke="#404040" points="553.5,-186.05 558.59,-180.94 565.26,-183.68 560.17,-188.79 553.5,-186.05"/>
<text text-anchor="middle" x="438" y="-278.5" font-family="Helvetica,sans-Serif" font-size="10.00"> #characterAnimator</text>
</g>
<!-- Node7 -->
<g id="node7" class="node">
<title>Node7</title>
<g id="a_node7"><a xlink:title=" ">
<polygon fill="none" stroke="#bfbfbf" points="425.5,-354.5 425.5,-411.5 496.5,-411.5 496.5,-354.5 425.5,-354.5"/>
<text text-anchor="middle" x="461" y="-399.5" font-family="Helvetica,sans-Serif" font-size="10.00">GameObject</text>
<polyline fill="none" stroke="#bfbfbf" points="425.5,-392.5 496.5,-392.5 "/>
<text text-anchor="middle" x="461" y="-380.5" font-family="Helvetica,sans-Serif" font-size="10.00"> </text>
<polyline fill="none" stroke="#bfbfbf" points="425.5,-373.5 496.5,-373.5 "/>
<text text-anchor="middle" x="461" y="-361.5" font-family="Helvetica,sans-Serif" font-size="10.00"> </text>
</a>
</g>
</g>
<!-- Node7&#45;&gt;Node2 -->
<g id="edge6" class="edge">
<title>Node7&#45;&gt;Node2</title>
<path fill="none" stroke="#404040" d="M465.33,-354.17C470.28,-329.84 480.38,-294.64 500,-270 514.95,-251.23 534.65,-235.11 554.9,-221.75"/>
<polygon fill="none" stroke="#404040" points="555.06,-221.65 557.98,-215.05 565.19,-215.21 562.27,-221.8 555.06,-221.65"/>
<text text-anchor="middle" x="537.5" y="-284" font-family="Helvetica,sans-Serif" font-size="10.00"> #dialogueBubble</text>
<text text-anchor="middle" x="537.5" y="-273" font-family="Helvetica,sans-Serif" font-size="10.00">#hitParticles</text>
</g>
<!-- Node8 -->
<g id="node8" class="node">
<title>Node8</title>
<g id="a_node8"><a xlink:href="class_controllers_1_1_movement_1_1_base_movement_controller.html" target="_top" xlink:title=" ">
<polygon fill="none" stroke="black" points="515,-349 515,-417 651,-417 651,-349 515,-349"/>
<text text-anchor="start" x="523" y="-405" font-family="Helvetica,sans-Serif" font-size="10.00">Controllers.Movement.Base</text>
<text text-anchor="middle" x="583" y="-394" font-family="Helvetica,sans-Serif" font-size="10.00">MovementController</text>
<polyline fill="none" stroke="black" points="515,-387 651,-387 "/>
<text text-anchor="middle" x="583" y="-375" font-family="Helvetica,sans-Serif" font-size="10.00"> </text>
<polyline fill="none" stroke="black" points="515,-368 651,-368 "/>
<text text-anchor="middle" x="583" y="-356" font-family="Helvetica,sans-Serif" font-size="10.00"> </text>
</a>
</g>
</g>
<!-- Node8&#45;&gt;Node2 -->
<g id="edge7" class="edge">
<title>Node8&#45;&gt;Node2</title>
<path fill="none" stroke="#404040" d="M578.16,-348.82C576.07,-326.08 575.72,-295.52 584,-270 584.79,-267.58 585.66,-265.17 586.6,-262.77"/>
<polygon fill="none" stroke="#404040" points="586.66,-262.63 585.45,-255.52 591.54,-251.67 592.76,-258.78 586.66,-262.63"/>
<text text-anchor="middle" x="641.5" y="-278.5" font-family="Helvetica,sans-Serif" font-size="10.00"> #baseMovementController</text>
</g>
<!-- Node9 -->
<g id="node9" class="node">
<title>Node9</title>
<g id="a_node9"><a xlink:title=" ">
<polygon fill="none" stroke="#bfbfbf" points="881.5,-779 881.5,-836 916.5,-836 916.5,-779 881.5,-779"/>
<text text-anchor="middle" x="899" y="-824" font-family="Helvetica,sans-Serif" font-size="10.00">float</text>
<polyline fill="none" stroke="#bfbfbf" points="881.5,-817 916.5,-817 "/>
<text text-anchor="middle" x="899" y="-805" font-family="Helvetica,sans-Serif" font-size="10.00"> </text>
<polyline fill="none" stroke="#bfbfbf" points="881.5,-798 916.5,-798 "/>
<text text-anchor="middle" x="899" y="-786" font-family="Helvetica,sans-Serif" font-size="10.00"> </text>
</a>
</g>
</g>
<!-- Node9&#45;&gt;Node2 -->
<g id="edge8" class="edge">
<title>Node9&#45;&gt;Node2</title>
<path fill="none" stroke="#404040" d="M916.55,-804.35C942.61,-800.11 990.77,-788 1012,-755 1020.73,-741.43 1080.77,-377.41 996,-270 965.59,-231.47 841.13,-204.06 750.64,-188.76"/>
<polygon fill="none" stroke="#404040" points="750.5,-188.74 743.93,-191.7 738.66,-186.77 745.24,-183.81 750.5,-188.74"/>
<text text-anchor="middle" x="1082" y="-493.5" font-family="Helvetica,sans-Serif" font-size="10.00"> #interactionRadius</text>
<text text-anchor="middle" x="1082" y="-482.5" font-family="Helvetica,sans-Serif" font-size="10.00">#maxHealth</text>
</g>
<!-- Node14 -->
<g id="node14" class="node">
<title>Node14</title>
<g id="a_node14"><a xlink:href="class_player_1_1_player_controller.html" target="_top" xlink:title=" ">
<polygon fill="none" stroke="black" points="669.5,-310.5 669.5,-455.5 810.5,-455.5 810.5,-310.5 669.5,-310.5"/>
<text text-anchor="middle" x="740" y="-443.5" font-family="Helvetica,sans-Serif" font-size="10.00">Player.PlayerController</text>
<polyline fill="none" stroke="black" points="669.5,-436.5 810.5,-436.5 "/>
<text text-anchor="middle" x="740" y="-424.5" font-family="Helvetica,sans-Serif" font-size="10.00"> </text>
<polyline fill="none" stroke="black" points="669.5,-417.5 810.5,-417.5 "/>
<text text-anchor="start" x="677.5" y="-405.5" font-family="Helvetica,sans-Serif" font-size="10.00">+ void LandEvt()</text>
<text text-anchor="start" x="677.5" y="-394.5" font-family="Helvetica,sans-Serif" font-size="10.00">+ void OnAirEvt()</text>
<text text-anchor="start" x="677.5" y="-383.5" font-family="Helvetica,sans-Serif" font-size="10.00">+ bool IsFacingRight()</text>
<text text-anchor="start" x="677.5" y="-372.5" font-family="Helvetica,sans-Serif" font-size="10.00">+ void AnimStartPrayingEvt()</text>
<text text-anchor="start" x="677.5" y="-361.5" font-family="Helvetica,sans-Serif" font-size="10.00">+ void AnimRollEndEvt()</text>
<text text-anchor="start" x="677.5" y="-350.5" font-family="Helvetica,sans-Serif" font-size="10.00">+ void AnimFootStep1Evt()</text>
<text text-anchor="start" x="677.5" y="-339.5" font-family="Helvetica,sans-Serif" font-size="10.00">+ void AnimFootStep2Evt()</text>
<text text-anchor="start" x="677.5" y="-328.5" font-family="Helvetica,sans-Serif" font-size="10.00">~ void OnEnable()</text>
<text text-anchor="start" x="677.5" y="-317.5" font-family="Helvetica,sans-Serif" font-size="10.00">~ void OnDisable()</text>
</a>
</g>
</g>
<!-- Node9&#45;&gt;Node14 -->
<g id="edge23" class="edge">
<title>Node9&#45;&gt;Node14</title>
<path fill="none" stroke="#404040" d="M898.57,-778.76C896.52,-719.2 885.6,-576.17 829,-474 825.81,-468.23 822.14,-462.58 818.15,-457.1"/>
<polygon fill="none" stroke="#404040" points="818.01,-456.91 811.17,-454.61 810.66,-447.42 817.5,-449.72 818.01,-456.91"/>
<text text-anchor="middle" x="940" y="-606.5" font-family="Helvetica,sans-Serif" font-size="10.00"> +NextAttackMaxTime</text>
</g>
<!-- Node16 -->
<g id="node16" class="node">
<title>Node16</title>
<g id="a_node16"><a xlink:href="class_player_1_1_player_movement_controller.html" target="_top" xlink:title=" ">
<polygon fill="none" stroke="black" points="638.5,-525.5 638.5,-692.5 799.5,-692.5 799.5,-525.5 638.5,-525.5"/>
<text text-anchor="middle" x="719" y="-680.5" font-family="Helvetica,sans-Serif" font-size="10.00">Player.PlayerMovementController</text>
<polyline fill="none" stroke="black" points="638.5,-673.5 799.5,-673.5 "/>
<text text-anchor="middle" x="719" y="-661.5" font-family="Helvetica,sans-Serif" font-size="10.00"> </text>
<polyline fill="none" stroke="black" points="638.5,-654.5 799.5,-654.5 "/>
<text text-anchor="start" x="646.5" y="-642.5" font-family="Helvetica,sans-Serif" font-size="10.00">+ void Move(float moveH,</text>
<text text-anchor="start" x="646.5" y="-631.5" font-family="Helvetica,sans-Serif" font-size="10.00"> float moveV, bool crouch,</text>
<text text-anchor="start" x="646.5" y="-620.5" font-family="Helvetica,sans-Serif" font-size="10.00"> bool jump, bool roll, bool</text>
<text text-anchor="start" x="646.5" y="-609.5" font-family="Helvetica,sans-Serif" font-size="10.00"> attacking)</text>
<text text-anchor="start" x="646.5" y="-598.5" font-family="Helvetica,sans-Serif" font-size="10.00">+ bool IsFacingRight()</text>
<text text-anchor="start" x="646.5" y="-587.5" font-family="Helvetica,sans-Serif" font-size="10.00">+ void EnableFlip()</text>
<text text-anchor="start" x="646.5" y="-576.5" font-family="Helvetica,sans-Serif" font-size="10.00">+ void DisableFlip()</text>
<text text-anchor="start" x="646.5" y="-565.5" font-family="Helvetica,sans-Serif" font-size="10.00">~ void AttackMovement</text>
<text text-anchor="start" x="646.5" y="-554.5" font-family="Helvetica,sans-Serif" font-size="10.00">(int power)</text>
<text text-anchor="start" x="646.5" y="-543.5" font-family="Helvetica,sans-Serif" font-size="10.00">~ void PrepareRespawn</text>
<text text-anchor="start" x="646.5" y="-532.5" font-family="Helvetica,sans-Serif" font-size="10.00">(Transform SpawnPoint)</text>
</a>
</g>
</g>
<!-- Node9&#45;&gt;Node16 -->
<g id="edge20" class="edge">
<title>Node9&#45;&gt;Node16</title>
<path fill="none" stroke="#404040" d="M881.45,-802.37C857.55,-795.95 814.72,-781.46 788,-755 785.54,-752.56 774.6,-730.2 762.14,-703.73"/>
<polygon fill="none" stroke="#404040" points="762.01,-703.46 755.84,-699.72 756.92,-692.59 763.09,-696.33 762.01,-703.46"/>
<text text-anchor="middle" x="836.5" y="-747" font-family="Helvetica,sans-Serif" font-size="10.00"> +LedgeClimbXOffset1</text>
<text text-anchor="middle" x="836.5" y="-736" font-family="Helvetica,sans-Serif" font-size="10.00">+LedgeClimbXOffset2</text>
<text text-anchor="middle" x="836.5" y="-725" font-family="Helvetica,sans-Serif" font-size="10.00">+LedgeClimbYOffset1</text>
<text text-anchor="middle" x="836.5" y="-714" font-family="Helvetica,sans-Serif" font-size="10.00">+LedgeClimbYOffset2</text>
</g>
<!-- Node10 -->
<g id="node10" class="node">
<title>Node10</title>
<g id="a_node10"><a xlink:title=" ">
<polygon fill="none" stroke="#bfbfbf" points="829,-354.5 829,-411.5 879,-411.5 879,-354.5 829,-354.5"/>
<text text-anchor="middle" x="854" y="-399.5" font-family="Helvetica,sans-Serif" font-size="10.00">Vector2</text>
<polyline fill="none" stroke="#bfbfbf" points="829,-392.5 879,-392.5 "/>
<text text-anchor="middle" x="854" y="-380.5" font-family="Helvetica,sans-Serif" font-size="10.00"> </text>
<polyline fill="none" stroke="#bfbfbf" points="829,-373.5 879,-373.5 "/>
<text text-anchor="middle" x="854" y="-361.5" font-family="Helvetica,sans-Serif" font-size="10.00"> </text>
</a>
</g>
</g>
<!-- Node10&#45;&gt;Node2 -->
<g id="edge9" class="edge">
<title>Node10&#45;&gt;Node2</title>
<path fill="none" stroke="#404040" d="M842.93,-354.49C836.91,-340.7 828.89,-324.01 820,-310 801.67,-281.12 775.05,-255.6 748.38,-234.73"/>
<polygon fill="none" stroke="#404040" points="748.12,-234.52 740.92,-234.07 738.57,-227.25 745.77,-227.71 748.12,-234.52"/>
<text text-anchor="middle" x="856" y="-278.5" font-family="Helvetica,sans-Serif" font-size="10.00"> #moveOnAttackSpeed</text>
</g>
<!-- Node11 -->
<g id="node11" class="node">
<title>Node11</title>
<g id="a_node11"><a xlink:title=" ">
<polygon fill="none" stroke="#bfbfbf" points="901,-354.5 901,-411.5 985,-411.5 985,-354.5 901,-354.5"/>
<text text-anchor="middle" x="943" y="-399.5" font-family="Helvetica,sans-Serif" font-size="10.00">EControllerKind</text>
<polyline fill="none" stroke="#bfbfbf" points="901,-392.5 985,-392.5 "/>
<text text-anchor="middle" x="943" y="-380.5" font-family="Helvetica,sans-Serif" font-size="10.00"> </text>
<polyline fill="none" stroke="#bfbfbf" points="901,-373.5 985,-373.5 "/>
<text text-anchor="middle" x="943" y="-361.5" font-family="Helvetica,sans-Serif" font-size="10.00"> </text>
</a>
</g>
</g>
<!-- Node11&#45;&gt;Node2 -->
<g id="edge10" class="edge">
<title>Node11&#45;&gt;Node2</title>
<path fill="none" stroke="#404040" d="M941.66,-354.18C939.02,-329.17 931.45,-292.96 910,-270 868.55,-225.63 804.64,-201.78 750.8,-189"/>
<polygon fill="none" stroke="#404040" points="750.47,-188.93 743.74,-191.51 738.77,-186.29 745.5,-183.71 750.47,-188.93"/>
<text text-anchor="middle" x="958" y="-278.5" font-family="Helvetica,sans-Serif" font-size="10.00"> #controllerKind</text>
</g>
<!-- Node12 -->
<g id="node12" class="node">
<title>Node12</title>
<g id="a_node12"><a xlink:title=" ">
<polygon fill="none" stroke="#bfbfbf" points="1107.5,-779 1107.5,-836 1142.5,-836 1142.5,-779 1107.5,-779"/>
<text text-anchor="middle" x="1125" y="-824" font-family="Helvetica,sans-Serif" font-size="10.00">bool</text>
<polyline fill="none" stroke="#bfbfbf" points="1107.5,-817 1142.5,-817 "/>
<text text-anchor="middle" x="1125" y="-805" font-family="Helvetica,sans-Serif" font-size="10.00"> </text>
<polyline fill="none" stroke="#bfbfbf" points="1107.5,-798 1142.5,-798 "/>
<text text-anchor="middle" x="1125" y="-786" font-family="Helvetica,sans-Serif" font-size="10.00"> </text>
</a>
</g>
</g>
<!-- Node12&#45;&gt;Node2 -->
<g id="edge11" class="edge">
<title>Node12&#45;&gt;Node2</title>
<path fill="none" stroke="#404040" d="M1142.52,-790.92C1163.73,-770.78 1198.28,-733.44 1212,-693 1273.46,-511.81 1274.37,-397.82 1132,-270 1076.93,-220.56 874.55,-194.18 750.84,-182.38"/>
<polygon fill="none" stroke="#404040" points="750.7,-182.36 744.35,-185.79 738.75,-181.25 745.1,-177.82 750.7,-182.36"/>
<text text-anchor="middle" x="1301" y="-499" font-family="Helvetica,sans-Serif" font-size="10.00"> #isInvencible</text>
<text text-anchor="middle" x="1301" y="-488" font-family="Helvetica,sans-Serif" font-size="10.00">#playerFacingDirection</text>
<text text-anchor="middle" x="1301" y="-477" font-family="Helvetica,sans-Serif" font-size="10.00">#playerOnLeft</text>
</g>
<!-- Node12&#45;&gt;Node14 -->
<g id="edge24" class="edge">
<title>Node12&#45;&gt;Node14</title>
<path fill="none" stroke="#404040" d="M1128.32,-778.79C1136.26,-706.82 1152.76,-516.6 1111,-474 1090,-452.59 884.08,-466.14 822.45,-454.73"/>
<polygon fill="none" stroke="#404040" points="822.15,-454.65 815.3,-456.92 810.58,-451.47 817.42,-449.2 822.15,-454.65"/>
<text text-anchor="middle" x="1174.5" y="-623" font-family="Helvetica,sans-Serif" font-size="10.00"> ~awaitingAttack</text>
<text text-anchor="middle" x="1174.5" y="-612" font-family="Helvetica,sans-Serif" font-size="10.00">~praying</text>
<text text-anchor="middle" x="1174.5" y="-601" font-family="Helvetica,sans-Serif" font-size="10.00">~respawning</text>
<text text-anchor="middle" x="1174.5" y="-590" font-family="Helvetica,sans-Serif" font-size="10.00">~roll</text>
</g>
<!-- Node12&#45;&gt;Node16 -->
<g id="edge22" class="edge">
<title>Node12&#45;&gt;Node16</title>
<path fill="none" stroke="#404040" d="M1107.41,-798.84C1066.59,-780.99 962.43,-734.95 877,-693 855.35,-682.37 832.25,-670.53 810.6,-659.2"/>
<polygon fill="none" stroke="#404040" points="810.38,-659.08 803.21,-659.84 799.76,-653.5 806.93,-652.75 810.38,-659.08"/>
<text text-anchor="middle" x="1043.5" y="-741.5" font-family="Helvetica,sans-Serif" font-size="10.00"> ~Grounded</text>
<text text-anchor="middle" x="1043.5" y="-730.5" font-family="Helvetica,sans-Serif" font-size="10.00">~IsTouchingLedge</text>
<text text-anchor="middle" x="1043.5" y="-719.5" font-family="Helvetica,sans-Serif" font-size="10.00">~IsTouchingWall</text>
</g>
<!-- Node13 -->
<g id="node13" class="node">
<title>Node13</title>
<g id="a_node13"><a xlink:title=" ">
<polygon fill="none" stroke="#bfbfbf" points="1054,-354.5 1054,-411.5 1126,-411.5 1126,-354.5 1054,-354.5"/>
<text text-anchor="middle" x="1090" y="-399.5" font-family="Helvetica,sans-Serif" font-size="10.00">AudioSource</text>
<polyline fill="none" stroke="#bfbfbf" points="1054,-392.5 1126,-392.5 "/>
<text text-anchor="middle" x="1090" y="-380.5" font-family="Helvetica,sans-Serif" font-size="10.00"> </text>
<polyline fill="none" stroke="#bfbfbf" points="1054,-373.5 1126,-373.5 "/>
<text text-anchor="middle" x="1090" y="-361.5" font-family="Helvetica,sans-Serif" font-size="10.00"> </text>
</a>
</g>
</g>
<!-- Node13&#45;&gt;Node2 -->
<g id="edge12" class="edge">
<title>Node13&#45;&gt;Node2</title>
<path fill="none" stroke="#404040" d="M1084.86,-354.32C1078.65,-328.71 1065.65,-291.44 1040,-270 996.52,-233.67 850.54,-204.81 750.58,-188.69"/>
<polygon fill="none" stroke="#404040" points="750.47,-188.68 743.92,-191.68 738.62,-186.79 745.18,-183.78 750.47,-188.68"/>
<text text-anchor="middle" x="1092.5" y="-284" font-family="Helvetica,sans-Serif" font-size="10.00"> #hitAttackSFX1</text>
<text text-anchor="middle" x="1092.5" y="-273" font-family="Helvetica,sans-Serif" font-size="10.00">#hitAttackSFX2</text>
</g>
<!-- Node14&#45;&gt;Node2 -->
<g id="edge13" class="edge">
<title>Node14&#45;&gt;Node2</title>
<path fill="none" stroke="#404040" d="M715.1,-310.45C710.02,-296.92 704.54,-282.95 699,-270 697.95,-267.55 696.87,-265.07 695.77,-262.58"/>
<polygon fill="none" stroke="#404040" points="695.74,-262.51 689.62,-258.69 690.8,-251.58 696.91,-255.4 695.74,-262.51"/>
<text text-anchor="middle" x="745" y="-278.5" font-family="Helvetica,sans-Serif" font-size="10.00"> #playerController</text>
</g>
<!-- Node15 -->
<g id="node15" class="node">
<title>Node15</title>
<g id="a_node15"><a xlink:title=" ">
<polygon fill="none" stroke="#bfbfbf" points="328.5,-779 328.5,-836 411.5,-836 411.5,-779 328.5,-779"/>
<text text-anchor="middle" x="370" y="-824" font-family="Helvetica,sans-Serif" font-size="10.00">MonoBehaviour</text>
<polyline fill="none" stroke="#bfbfbf" points="328.5,-817 411.5,-817 "/>
<text text-anchor="middle" x="370" y="-805" font-family="Helvetica,sans-Serif" font-size="10.00"> </text>
<polyline fill="none" stroke="#bfbfbf" points="328.5,-798 411.5,-798 "/>
<text text-anchor="middle" x="370" y="-786" font-family="Helvetica,sans-Serif" font-size="10.00"> </text>
</a>
</g>
</g>
<!-- Node15&#45;&gt;Node14 -->
<g id="edge14" class="edge">
<title>Node15&#45;&gt;Node14</title>
<path fill="none" stroke="midnightblue" d="M398.65,-770.67C413.23,-752.62 431.36,-730.48 448,-711 524.25,-621.73 614.62,-521.32 674.42,-455.6"/>
<polygon fill="none" stroke="midnightblue" points="395.76,-768.67 392.21,-778.65 401.21,-773.06 395.76,-768.67"/>
</g>
<!-- Node15&#45;&gt;Node16 -->
<g id="edge16" class="edge">
<title>Node15&#45;&gt;Node16</title>
<path fill="none" stroke="midnightblue" d="M420.14,-773.53C420.42,-773.36 420.71,-773.18 421,-773 492.88,-728.62 577.62,-682.87 638.33,-651.18"/>
<polygon fill="none" stroke="midnightblue" points="418.23,-770.6 411.63,-778.88 421.95,-776.53 418.23,-770.6"/>
</g>
<!-- Node16&#45;&gt;Node14 -->
<g id="edge15" class="edge">
<title>Node16&#45;&gt;Node14</title>
<path fill="none" stroke="#404040" d="M726.76,-525.23C728.51,-506.52 730.38,-486.64 732.14,-467.89"/>
<polygon fill="none" stroke="#404040" points="732.15,-467.7 728.73,-461.35 733.27,-455.75 736.7,-462.09 732.15,-467.7"/>
<text text-anchor="middle" x="778" y="-488" font-family="Helvetica,sans-Serif" font-size="10.00"> #playerMovementCtrl</text>
</g>
<!-- Node17 -->
<g id="node17" class="node">
<title>Node17</title>
<g id="a_node17"><a xlink:href="class_player_1_1_player_movement_controller_1_1_bool_event.html" target="_top" xlink:title=" ">
<polygon fill="none" stroke="black" points="430,-773.5 430,-841.5 594,-841.5 594,-773.5 430,-773.5"/>
<text text-anchor="start" x="438" y="-829.5" font-family="Helvetica,sans-Serif" font-size="10.00">Player.PlayerMovementController.</text>
<text text-anchor="middle" x="512" y="-818.5" font-family="Helvetica,sans-Serif" font-size="10.00">BoolEvent</text>
<polyline fill="none" stroke="black" points="430,-811.5 594,-811.5 "/>
<text text-anchor="middle" x="512" y="-799.5" font-family="Helvetica,sans-Serif" font-size="10.00"> </text>
<polyline fill="none" stroke="black" points="430,-792.5 594,-792.5 "/>
<text text-anchor="middle" x="512" y="-780.5" font-family="Helvetica,sans-Serif" font-size="10.00"> </text>
</a>
</g>
</g>
<!-- Node17&#45;&gt;Node16 -->
<g id="edge17" class="edge">
<title>Node17&#45;&gt;Node16</title>
<path fill="none" stroke="#404040" d="M523.89,-773.35C532.13,-753.64 544.57,-729.06 561,-711 579.99,-690.12 604.23,-671.81 627.99,-656.71"/>
<polygon fill="none" stroke="#404040" points="628.28,-656.53 631.28,-649.97 638.49,-650.22 635.49,-656.78 628.28,-656.53"/>
<text text-anchor="middle" x="599.5" y="-730.5" font-family="Helvetica,sans-Serif" font-size="10.00"> +OnCrouchEvent</text>
</g>
<!-- Node18 -->
<g id="node18" class="node">
<title>Node18</title>
<g id="a_node18"><a xlink:title=" ">
<polygon fill="none" stroke="#bfbfbf" points="462.5,-879.5 462.5,-936.5 561.5,-936.5 561.5,-879.5 462.5,-879.5"/>
<text text-anchor="middle" x="512" y="-924.5" font-family="Helvetica,sans-Serif" font-size="10.00">UnityEvent&lt; bool &gt;</text>
<polyline fill="none" stroke="#bfbfbf" points="462.5,-917.5 561.5,-917.5 "/>
<text text-anchor="middle" x="512" y="-905.5" font-family="Helvetica,sans-Serif" font-size="10.00"> </text>
<polyline fill="none" stroke="#bfbfbf" points="462.5,-898.5 561.5,-898.5 "/>
<text text-anchor="middle" x="512" y="-886.5" font-family="Helvetica,sans-Serif" font-size="10.00"> </text>
</a>
</g>
</g>
<!-- Node18&#45;&gt;Node17 -->
<g id="edge18" class="edge">
<title>Node18&#45;&gt;Node17</title>
<path fill="none" stroke="midnightblue" d="M512,-869.01C512,-859.96 512,-850.38 512,-841.58"/>
<polygon fill="none" stroke="midnightblue" points="508.5,-869.3 512,-879.3 515.5,-869.3 508.5,-869.3"/>
</g>
<!-- Node19 -->
<g id="node19" class="node">
<title>Node19</title>
<g id="a_node19"><a xlink:title=" ">
<polygon fill="none" stroke="#bfbfbf" points="612.5,-779 612.5,-836 675.5,-836 675.5,-779 612.5,-779"/>
<text text-anchor="middle" x="644" y="-824" font-family="Helvetica,sans-Serif" font-size="10.00">UnityEvent</text>
<polyline fill="none" stroke="#bfbfbf" points="612.5,-817 675.5,-817 "/>
<text text-anchor="middle" x="644" y="-805" font-family="Helvetica,sans-Serif" font-size="10.00"> </text>
<polyline fill="none" stroke="#bfbfbf" points="612.5,-798 675.5,-798 "/>
<text text-anchor="middle" x="644" y="-786" font-family="Helvetica,sans-Serif" font-size="10.00"> </text>
</a>
</g>
</g>
<!-- Node19&#45;&gt;Node16 -->
<g id="edge19" class="edge">
<title>Node19&#45;&gt;Node16</title>
<path fill="none" stroke="#404040" d="M642.32,-778.99C642.01,-759.5 643.4,-733 651,-711 651.84,-708.58 652.75,-706.16 653.72,-703.76"/>
<polygon fill="none" stroke="#404040" points="653.82,-703.52 652.61,-696.41 658.71,-692.56 659.92,-699.67 653.82,-703.52"/>
<text text-anchor="middle" x="683" y="-736" font-family="Helvetica,sans-Serif" font-size="10.00"> +OnAirEvent</text>
<text text-anchor="middle" x="683" y="-725" font-family="Helvetica,sans-Serif" font-size="10.00">+OnLandEvent</text>
</g>
<!-- Node20 -->
<g id="node20" class="node">
<title>Node20</title>
<g id="a_node20"><a xlink:title=" ">
<polygon fill="none" stroke="#bfbfbf" points="694,-779 694,-836 744,-836 744,-779 694,-779"/>
<text text-anchor="middle" x="719" y="-824" font-family="Helvetica,sans-Serif" font-size="10.00">Vector3</text>
<polyline fill="none" stroke="#bfbfbf" points="694,-817 744,-817 "/>
<text text-anchor="middle" x="719" y="-805" font-family="Helvetica,sans-Serif" font-size="10.00"> </text>
<polyline fill="none" stroke="#bfbfbf" points="694,-798 744,-798 "/>
<text text-anchor="middle" x="719" y="-786" font-family="Helvetica,sans-Serif" font-size="10.00"> </text>
</a>
</g>
</g>
<!-- Node20&#45;&gt;Node16 -->
<g id="edge21" class="edge">
<title>Node20&#45;&gt;Node16</title>
<path fill="none" stroke="#404040" d="M719,-778.76C719,-759.31 719,-732.07 719,-705.14"/>
<polygon fill="none" stroke="#404040" points="719,-704.82 715,-698.82 719,-692.82 723,-698.82 719,-704.82"/>
<text text-anchor="middle" x="741.5" y="-730.5" font-family="Helvetica,sans-Serif" font-size="10.00"> ~Velocity</text>
</g>
</g>
</svg>
