<?xml version="1.0" encoding="UTF-8" standalone="no"?>
<!DOCTYPE svg PUBLIC "-//W3C//DTD SVG 1.1//EN"
 "http://www.w3.org/Graphics/SVG/1.1/DTD/svg11.dtd">
<!-- Generated by graphviz version 2.48.0 (20210717.1556)
 -->
<!-- Title: GameManager Pages: 1 -->
<svg width="386pt" height="446pt"
 viewBox="0.00 0.00 386.00 446.00" xmlns="http://www.w3.org/2000/svg" xmlns:xlink="http://www.w3.org/1999/xlink">
<g id="graph0" class="graph" transform="scale(1 1) rotate(0) translate(4 442)">
<title>GameManager</title>
<!-- Node1 -->
<g id="node1" class="node">
<title>Node1</title>
<g id="a_node1"><a xlink:title=" ">
<polygon fill="#bfbfbf" stroke="black" points="84.5,-0.5 84.5,-321.5 233.5,-321.5 233.5,-0.5 84.5,-0.5"/>
<text text-anchor="middle" x="159" y="-309.5" font-family="Helvetica,sans-Serif" font-size="10.00">GameManager</text>
<polyline fill="none" stroke="black" points="84.5,-302.5 233.5,-302.5 "/>
<text text-anchor="start" x="92.5" y="-290.5" font-family="Helvetica,sans-Serif" font-size="10.00">+ bool IsPlayerAlive</text>
<text text-anchor="start" x="92.5" y="-279.5" font-family="Helvetica,sans-Serif" font-size="10.00">+ Vector3 LastDeathPosition</text>
<text text-anchor="start" x="92.5" y="-268.5" font-family="Helvetica,sans-Serif" font-size="10.00">+ static GameManager</text>
<text text-anchor="start" x="92.5" y="-257.5" font-family="Helvetica,sans-Serif" font-size="10.00"> Instance</text>
<polyline fill="none" stroke="black" points="84.5,-250.5 233.5,-250.5 "/>
<text text-anchor="start" x="92.5" y="-238.5" font-family="Helvetica,sans-Serif" font-size="10.00">+ void KillPlayer(Transform</text>
<text text-anchor="start" x="92.5" y="-227.5" font-family="Helvetica,sans-Serif" font-size="10.00"> deathTransf)</text>
<text text-anchor="start" x="92.5" y="-216.5" font-family="Helvetica,sans-Serif" font-size="10.00">+ void RespawnPlayer</text>
<text text-anchor="start" x="92.5" y="-205.5" font-family="Helvetica,sans-Serif" font-size="10.00">(bool isFirstRespawn</text>
<text text-anchor="start" x="92.5" y="-194.5" font-family="Helvetica,sans-Serif" font-size="10.00">=false)</text>
<text text-anchor="start" x="92.5" y="-183.5" font-family="Helvetica,sans-Serif" font-size="10.00">+ void SetInputEnabled</text>
<text text-anchor="start" x="92.5" y="-172.5" font-family="Helvetica,sans-Serif" font-size="10.00">(bool isEnabled)</text>
<text text-anchor="start" x="92.5" y="-161.5" font-family="Helvetica,sans-Serif" font-size="10.00">+ void SetInputEnabledUI</text>
<text text-anchor="start" x="92.5" y="-150.5" font-family="Helvetica,sans-Serif" font-size="10.00">(bool isEnabled)</text>
<text text-anchor="start" x="92.5" y="-139.5" font-family="Helvetica,sans-Serif" font-size="10.00">+ void SetCameraTarget</text>
<text text-anchor="start" x="92.5" y="-128.5" font-family="Helvetica,sans-Serif" font-size="10.00">(Transform target)</text>
<text text-anchor="start" x="92.5" y="-117.5" font-family="Helvetica,sans-Serif" font-size="10.00">+ void SetCameraOffset</text>
<text text-anchor="start" x="92.5" y="-106.5" font-family="Helvetica,sans-Serif" font-size="10.00">(Vector2 offset)</text>
<text text-anchor="start" x="92.5" y="-95.5" font-family="Helvetica,sans-Serif" font-size="10.00">+ void SetCameraOffsetX</text>
<text text-anchor="start" x="92.5" y="-84.5" font-family="Helvetica,sans-Serif" font-size="10.00">(float offsetX)</text>
<text text-anchor="start" x="92.5" y="-73.5" font-family="Helvetica,sans-Serif" font-size="10.00">+ void SetCameraOffsetY</text>
<text text-anchor="start" x="92.5" y="-62.5" font-family="Helvetica,sans-Serif" font-size="10.00">(float offsetY)</text>
<text text-anchor="start" x="92.5" y="-51.5" font-family="Helvetica,sans-Serif" font-size="10.00">+ void SetCameraSize</text>
<text text-anchor="start" x="92.5" y="-40.5" font-family="Helvetica,sans-Serif" font-size="10.00">(float size)</text>
<text text-anchor="start" x="92.5" y="-29.5" font-family="Helvetica,sans-Serif" font-size="10.00">+ Vector2 GetCameraOffset()</text>
<text text-anchor="start" x="92.5" y="-18.5" font-family="Helvetica,sans-Serif" font-size="10.00">+ void SetCameraFollowTarget</text>
<text text-anchor="start" x="92.5" y="-7.5" font-family="Helvetica,sans-Serif" font-size="10.00">(bool follow)</text>
</a>
</g>
</g>
<!-- Node2 -->
<g id="node2" class="node">
<title>Node2</title>
<g id="a_node2"><a xlink:title=" ">
<polygon fill="none" stroke="#bfbfbf" points="0,-380.5 0,-437.5 50,-437.5 50,-380.5 0,-380.5"/>
<text text-anchor="middle" x="25" y="-425.5" font-family="Helvetica,sans-Serif" font-size="10.00">Camera</text>
<polyline fill="none" stroke="#bfbfbf" points="0,-418.5 50,-418.5 "/>
<text text-anchor="middle" x="25" y="-406.5" font-family="Helvetica,sans-Serif" font-size="10.00"> </text>
<polyline fill="none" stroke="#bfbfbf" points="0,-399.5 50,-399.5 "/>
<text text-anchor="middle" x="25" y="-387.5" font-family="Helvetica,sans-Serif" font-size="10.00"> </text>
</a>
</g>
</g>
<!-- Node2&#45;&gt;Node1 -->
<g id="edge1" class="edge">
<title>Node2&#45;&gt;Node1</title>
<path fill="none" stroke="#404040" d="M30.25,-380.19C33.16,-367.6 37.35,-352.72 43,-340 52.78,-317.98 65.12,-295.62 78.08,-274.51"/>
<polygon fill="none" stroke="#404040" points="78.13,-274.43 77.91,-267.23 84.48,-264.26 84.7,-271.46 78.13,-274.43"/>
<text text-anchor="middle" x="75" y="-348.5" font-family="Helvetica,sans-Serif" font-size="10.00"> +CameraMain</text>
</g>
<!-- Node3 -->
<g id="node3" class="node">
<title>Node3</title>
<g id="a_node3"><a xlink:title=" ">
<polygon fill="none" stroke="#bfbfbf" points="72,-380.5 72,-437.5 152,-437.5 152,-380.5 72,-380.5"/>
<text text-anchor="middle" x="112" y="-425.5" font-family="Helvetica,sans-Serif" font-size="10.00">PlayerControls</text>
<polyline fill="none" stroke="#bfbfbf" points="72,-418.5 152,-418.5 "/>
<text text-anchor="middle" x="112" y="-406.5" font-family="Helvetica,sans-Serif" font-size="10.00"> </text>
<polyline fill="none" stroke="#bfbfbf" points="72,-399.5 152,-399.5 "/>
<text text-anchor="middle" x="112" y="-387.5" font-family="Helvetica,sans-Serif" font-size="10.00"> </text>
</a>
</g>
</g>
<!-- Node3&#45;&gt;Node1 -->
<g id="edge2" class="edge">
<title>Node3&#45;&gt;Node1</title>
<path fill="none" stroke="#404040" d="M110.92,-380.43C110.82,-368.02 111.22,-353.22 113,-340 113.28,-337.93 113.57,-335.86 113.88,-333.77"/>
<polygon fill="none" stroke="#404040" points="113.91,-333.6 110.91,-327.04 115.8,-321.75 118.81,-328.31 113.91,-333.6"/>
<text text-anchor="middle" x="149" y="-348.5" font-family="Helvetica,sans-Serif" font-size="10.00"> +playerControls</text>
</g>
<!-- Node4 -->
<g id="node4" class="node">
<title>Node4</title>
<g id="a_node4"><a xlink:title=" ">
<polygon fill="none" stroke="#bfbfbf" points="192.5,-380.5 192.5,-437.5 221.5,-437.5 221.5,-380.5 192.5,-380.5"/>
<text text-anchor="middle" x="207" y="-425.5" font-family="Helvetica,sans-Serif" font-size="10.00">int</text>
<polyline fill="none" stroke="#bfbfbf" points="192.5,-418.5 221.5,-418.5 "/>
<text text-anchor="middle" x="207" y="-406.5" font-family="Helvetica,sans-Serif" font-size="10.00"> </text>
<polyline fill="none" stroke="#bfbfbf" points="192.5,-399.5 221.5,-399.5 "/>
<text text-anchor="middle" x="207" y="-387.5" font-family="Helvetica,sans-Serif" font-size="10.00"> </text>
</a>
</g>
</g>
<!-- Node4&#45;&gt;Node1 -->
<g id="edge3" class="edge">
<title>Node4&#45;&gt;Node1</title>
<path fill="none" stroke="#404040" d="M201.59,-380.26C199.11,-367.58 195.96,-351.42 192.49,-333.65"/>
<polygon fill="none" stroke="#404040" points="192.47,-333.54 187.4,-328.41 190.17,-321.76 195.25,-326.88 192.47,-333.54"/>
<text text-anchor="middle" x="241" y="-348.5" font-family="Helvetica,sans-Serif" font-size="10.00"> +PlayerDeathCount</text>
</g>
<!-- Node5 -->
<g id="node5" class="node">
<title>Node5</title>
<g id="a_node5"><a xlink:title=" ">
<polygon fill="none" stroke="#bfbfbf" points="300.5,-380.5 300.5,-437.5 335.5,-437.5 335.5,-380.5 300.5,-380.5"/>
<text text-anchor="middle" x="318" y="-425.5" font-family="Helvetica,sans-Serif" font-size="10.00">bool</text>
<polyline fill="none" stroke="#bfbfbf" points="300.5,-418.5 335.5,-418.5 "/>
<text text-anchor="middle" x="318" y="-406.5" font-family="Helvetica,sans-Serif" font-size="10.00"> </text>
<polyline fill="none" stroke="#bfbfbf" points="300.5,-399.5 335.5,-399.5 "/>
<text text-anchor="middle" x="318" y="-387.5" font-family="Helvetica,sans-Serif" font-size="10.00"> </text>
</a>
</g>
</g>
<!-- Node5&#45;&gt;Node1 -->
<g id="edge4" class="edge">
<title>Node5&#45;&gt;Node1</title>
<path fill="none" stroke="#404040" d="M307.81,-380.18C302.77,-367.6 296.23,-352.72 289,-340 274.85,-315.11 257.87,-289.57 240.92,-265.88"/>
<polygon fill="none" stroke="#404040" points="240.7,-265.57 233.94,-263.05 233.66,-255.85 240.42,-258.37 240.7,-265.57"/>
<text text-anchor="middle" x="338.5" y="-354" font-family="Helvetica,sans-Serif" font-size="10.00"> +isInputEnabled</text>
<text text-anchor="middle" x="338.5" y="-343" font-family="Helvetica,sans-Serif" font-size="10.00">+isInputEnabledUI</text>
</g>
</g>
</svg>
