<?xml version="1.0" encoding="UTF-8" standalone="no"?>
<!DOCTYPE svg PUBLIC "-//W3C//DTD SVG 1.1//EN"
 "http://www.w3.org/Graphics/SVG/1.1/DTD/svg11.dtd">
<!-- Generated by graphviz version 2.48.0 (20210717.1556)
 -->
<!-- Title: Representaci칩n gr치fica de la clase Pages: 1 -->
<svg width="288pt" height="458pt"
 viewBox="0.00 0.00 288.00 458.00" xmlns="http://www.w3.org/2000/svg" xmlns:xlink="http://www.w3.org/1999/xlink">
<g id="graph0" class="graph" transform="scale(1 1) rotate(0) translate(4 454)">
<title>Representaci칩n gr치fica de la clase</title>
<!-- Node17 -->
<g id="node1" class="node">
<title>Node17</title>
<g id="a_node1"><a xlink:title=" ">
<polygon fill="none" stroke="#bfbfbf" points="0,-218.5 0,-237.5 83,-237.5 83,-218.5 0,-218.5"/>
<text text-anchor="middle" x="41.5" y="-225.5" font-family="Helvetica,sans-Serif" font-size="10.00">MonoBehaviour</text>
</a>
</g>
</g>
<!-- Node0 -->
<g id="node2" class="node">
<title>Node0</title>
<g id="a_node2"><a xlink:href="class_camera_trigger.html" target="_top" xlink:title=" ">
<polygon fill="none" stroke="black" points="159.5,-430.5 159.5,-449.5 239.5,-449.5 239.5,-430.5 159.5,-430.5"/>
<text text-anchor="middle" x="199.5" y="-437.5" font-family="Helvetica,sans-Serif" font-size="10.00">CameraTrigger</text>
</a>
</g>
</g>
<!-- Node17&#45;&gt;Node0 -->
<g id="edge1" class="edge">
<title>Node17&#45;&gt;Node0</title>
<path fill="none" stroke="midnightblue" d="M44.43,-247.95C49.34,-287.29 65.94,-375.03 119,-421 130.15,-430.66 145.37,-435.61 159.5,-438.08"/>
<polygon fill="midnightblue" stroke="midnightblue" points="47.88,-247.35 43.29,-237.8 40.93,-248.13 47.88,-247.35"/>
</g>
<!-- Node19 -->
<g id="node3" class="node">
<title>Node19</title>
<g id="a_node3"><a xlink:href="class_death_bounds_component.html" target="_top" xlink:title=" ">
<polygon fill="none" stroke="black" points="137,-392.5 137,-411.5 262,-411.5 262,-392.5 137,-392.5"/>
<text text-anchor="middle" x="199.5" y="-399.5" font-family="Helvetica,sans-Serif" font-size="10.00">DeathBoundsComponent</text>
</a>
</g>
</g>
<!-- Node17&#45;&gt;Node19 -->
<g id="edge2" class="edge">
<title>Node17&#45;&gt;Node19</title>
<path fill="none" stroke="midnightblue" d="M46.52,-247.67C54.37,-280.88 74.95,-347.86 119,-383 124.32,-387.25 130.45,-390.57 136.88,-393.17"/>
<polygon fill="midnightblue" stroke="midnightblue" points="49.91,-246.81 44.33,-237.8 43.08,-248.32 49.91,-246.81"/>
</g>
<!-- Node20 -->
<g id="node4" class="node">
<title>Node20</title>
<g id="a_node4"><a xlink:href="class_image_animation.html" target="_top" xlink:title=" ">
<polygon fill="none" stroke="black" points="156.5,-354.5 156.5,-373.5 242.5,-373.5 242.5,-354.5 156.5,-354.5"/>
<text text-anchor="middle" x="199.5" y="-361.5" font-family="Helvetica,sans-Serif" font-size="10.00">ImageAnimation</text>
</a>
</g>
</g>
<!-- Node17&#45;&gt;Node20 -->
<g id="edge3" class="edge">
<title>Node17&#45;&gt;Node20</title>
<path fill="none" stroke="midnightblue" d="M49.72,-247.25C60.61,-273.53 83.76,-320.21 119,-345 129.91,-352.68 143.53,-357.28 156.39,-360.03"/>
<polygon fill="midnightblue" stroke="midnightblue" points="52.86,-245.66 45.92,-237.66 46.35,-248.24 52.86,-245.66"/>
</g>
<!-- Node21 -->
<g id="node5" class="node">
<title>Node21</title>
<g id="a_node5"><a xlink:href="class_main_menu.html" target="_top" xlink:title="Script para el menu principal">
<polygon fill="none" stroke="black" points="168.5,-316.5 168.5,-335.5 230.5,-335.5 230.5,-316.5 168.5,-316.5"/>
<text text-anchor="middle" x="199.5" y="-323.5" font-family="Helvetica,sans-Serif" font-size="10.00">MainMenu</text>
</a>
</g>
</g>
<!-- Node17&#45;&gt;Node21 -->
<g id="edge4" class="edge">
<title>Node17&#45;&gt;Node21</title>
<path fill="none" stroke="midnightblue" d="M55.27,-246.29C68.94,-264.48 92.3,-291.78 119,-307 134.04,-315.57 152.8,-320.29 168.32,-322.88"/>
<polygon fill="midnightblue" stroke="midnightblue" points="57.75,-243.76 49.04,-237.73 52.09,-247.87 57.75,-243.76"/>
</g>
<!-- Node22 -->
<g id="node6" class="node">
<title>Node22</title>
<g id="a_node6"><a xlink:href="class_misc_1_1_lapida.html" target="_top" xlink:title=" ">
<polygon fill="none" stroke="black" points="165,-278.5 165,-297.5 234,-297.5 234,-278.5 165,-278.5"/>
<text text-anchor="middle" x="199.5" y="-285.5" font-family="Helvetica,sans-Serif" font-size="10.00">Misc.Lapida</text>
</a>
</g>
</g>
<!-- Node17&#45;&gt;Node22 -->
<g id="edge5" class="edge">
<title>Node17&#45;&gt;Node22</title>
<path fill="none" stroke="midnightblue" d="M66.4,-242.88C81.12,-251.51 100.63,-262.02 119,-269 133.59,-274.55 150.32,-278.84 164.66,-281.92"/>
<polygon fill="midnightblue" stroke="midnightblue" points="67.86,-239.67 57.48,-237.53 64.26,-245.67 67.86,-239.67"/>
</g>
<!-- Node23 -->
<g id="node7" class="node">
<title>Node23</title>
<g id="a_node7"><a xlink:href="class_player_1_1_player_combat_controller.html" target="_top" xlink:title=" ">
<polygon fill="none" stroke="black" points="124.5,-240.5 124.5,-259.5 274.5,-259.5 274.5,-240.5 124.5,-240.5"/>
<text text-anchor="middle" x="199.5" y="-247.5" font-family="Helvetica,sans-Serif" font-size="10.00">Player.PlayerCombatController</text>
</a>
</g>
</g>
<!-- Node17&#45;&gt;Node23 -->
<g id="edge6" class="edge">
<title>Node17&#45;&gt;Node23</title>
<path fill="none" stroke="midnightblue" d="M93.34,-235.17C105.34,-236.86 118.32,-238.69 130.94,-240.47"/>
<polygon fill="midnightblue" stroke="midnightblue" points="93.47,-231.65 83.08,-233.72 92.49,-238.59 93.47,-231.65"/>
</g>
<!-- Node24 -->
<g id="node8" class="node">
<title>Node24</title>
<g id="a_node8"><a xlink:href="class_player_1_1_player_ladder_climbing_controller.html" target="_top" xlink:title=" ">
<polygon fill="none" stroke="black" points="128.5,-191 128.5,-221 270.5,-221 270.5,-191 128.5,-191"/>
<text text-anchor="start" x="136.5" y="-209" font-family="Helvetica,sans-Serif" font-size="10.00">Player.PlayerLadderClimbing</text>
<text text-anchor="middle" x="199.5" y="-198" font-family="Helvetica,sans-Serif" font-size="10.00">Controller</text>
</a>
</g>
</g>
<!-- Node17&#45;&gt;Node24 -->
<g id="edge7" class="edge">
<title>Node17&#45;&gt;Node24</title>
<path fill="none" stroke="midnightblue" d="M93.1,-220.86C104.31,-219.28 116.38,-217.58 128.21,-215.91"/>
<polygon fill="midnightblue" stroke="midnightblue" points="92.49,-217.41 83.08,-222.28 93.47,-224.35 92.49,-217.41"/>
</g>
<!-- Node25 -->
<g id="node9" class="node">
<title>Node25</title>
<g id="a_node9"><a xlink:href="class_player_1_1_player_movement_controller.html" target="_top" xlink:title=" ">
<polygon fill="none" stroke="black" points="119,-152.5 119,-171.5 280,-171.5 280,-152.5 119,-152.5"/>
<text text-anchor="middle" x="199.5" y="-159.5" font-family="Helvetica,sans-Serif" font-size="10.00">Player.PlayerMovementController</text>
</a>
</g>
</g>
<!-- Node17&#45;&gt;Node25 -->
<g id="edge8" class="edge">
<title>Node17&#45;&gt;Node25</title>
<path fill="none" stroke="midnightblue" d="M64.13,-212.63C78.97,-202.68 99.45,-190.13 119,-182 128.99,-177.85 140.05,-174.4 150.67,-171.6"/>
<polygon fill="midnightblue" stroke="midnightblue" points="61.95,-209.88 55.68,-218.42 65.9,-215.65 61.95,-209.88"/>
</g>
<!-- Node26 -->
<g id="node10" class="node">
<title>Node26</title>
<g id="a_node10"><a xlink:href="class_screen_opts.html" target="_top" xlink:title=" ">
<polygon fill="none" stroke="black" points="165.5,-114.5 165.5,-133.5 233.5,-133.5 233.5,-114.5 165.5,-114.5"/>
<text text-anchor="middle" x="199.5" y="-121.5" font-family="Helvetica,sans-Serif" font-size="10.00">ScreenOpts</text>
</a>
</g>
</g>
<!-- Node17&#45;&gt;Node26 -->
<g id="edge9" class="edge">
<title>Node17&#45;&gt;Node26</title>
<path fill="none" stroke="midnightblue" d="M53.95,-209.76C67.2,-190.21 90.84,-159.74 119,-143 133.03,-134.66 150.5,-129.98 165.48,-127.35"/>
<polygon fill="midnightblue" stroke="midnightblue" points="50.86,-208.09 48.31,-218.37 56.72,-211.93 50.86,-208.09"/>
</g>
<!-- Node27 -->
<g id="node11" class="node">
<title>Node27</title>
<g id="a_node11"><a xlink:href="class_u_i___joystick_controller.html" target="_top" xlink:title=" ">
<polygon fill="none" stroke="black" points="145.5,-76.5 145.5,-95.5 253.5,-95.5 253.5,-76.5 145.5,-76.5"/>
<text text-anchor="middle" x="199.5" y="-83.5" font-family="Helvetica,sans-Serif" font-size="10.00">UI_JoystickController</text>
</a>
</g>
</g>
<!-- Node17&#45;&gt;Node27 -->
<g id="edge10" class="edge">
<title>Node17&#45;&gt;Node27</title>
<path fill="none" stroke="midnightblue" d="M49.15,-208.55C59.58,-181.09 82.44,-131.35 119,-105 126.71,-99.44 135.83,-95.49 145.1,-92.69"/>
<polygon fill="midnightblue" stroke="midnightblue" points="45.77,-207.61 45.65,-218.2 52.35,-210 45.77,-207.61"/>
</g>
<!-- Node28 -->
<g id="node12" class="node">
<title>Node28</title>
<g id="a_node12"><a xlink:href="class_u_i___panel_opacity.html" target="_top" xlink:title=" ">
<polygon fill="none" stroke="black" points="155,-38.5 155,-57.5 244,-57.5 244,-38.5 155,-38.5"/>
<text text-anchor="middle" x="199.5" y="-45.5" font-family="Helvetica,sans-Serif" font-size="10.00">UI_PanelOpacity</text>
</a>
</g>
</g>
<!-- Node17&#45;&gt;Node28 -->
<g id="edge11" class="edge">
<title>Node17&#45;&gt;Node28</title>
<path fill="none" stroke="midnightblue" d="M46.18,-208.08C53.58,-173.78 73.63,-103.75 119,-67 129.14,-58.78 142.26,-54.02 154.91,-51.28"/>
<polygon fill="midnightblue" stroke="midnightblue" points="42.67,-207.74 44.13,-218.24 49.54,-209.12 42.67,-207.74"/>
</g>
<!-- Node29 -->
<g id="node13" class="node">
<title>Node29</title>
<g id="a_node13"><a xlink:href="class_u_i___pause_menu_manager.html" target="_top" xlink:title=" ">
<polygon fill="none" stroke="black" points="139.5,-0.5 139.5,-19.5 259.5,-19.5 259.5,-0.5 139.5,-0.5"/>
<text text-anchor="middle" x="199.5" y="-7.5" font-family="Helvetica,sans-Serif" font-size="10.00">UI_PauseMenuManager</text>
</a>
</g>
</g>
<!-- Node17&#45;&gt;Node29 -->
<g id="edge12" class="edge">
<title>Node17&#45;&gt;Node29</title>
<path fill="none" stroke="midnightblue" d="M44.14,-208.27C48.56,-168.15 64.39,-76.82 119,-29 124.87,-23.86 131.89,-20.05 139.29,-17.24"/>
<polygon fill="midnightblue" stroke="midnightblue" points="40.64,-208.06 43.15,-218.36 47.61,-208.74 40.64,-208.06"/>
</g>
</g>
</svg>
