<?xml version="1.0" encoding="UTF-8" standalone="no"?>
<!DOCTYPE svg PUBLIC "-//W3C//DTD SVG 1.1//EN"
 "http://www.w3.org/Graphics/SVG/1.1/DTD/svg11.dtd">
<!-- Generated by graphviz version 2.48.0 (20210717.1556)
 -->
<!-- Title: Representaci칩n gr치fica de la clase Pages: 1 -->
<svg width="473pt" height="116pt"
 viewBox="0.00 0.00 473.00 116.00" xmlns="http://www.w3.org/2000/svg" xmlns:xlink="http://www.w3.org/1999/xlink">
<g id="graph0" class="graph" transform="scale(1 1) rotate(0) translate(4 112)">
<title>Representaci칩n gr치fica de la clase</title>
<!-- Node0 -->
<g id="node1" class="node">
<title>Node0</title>
<g id="a_node1"><a xlink:href="interface_controllers_1_1_i_damageable.html" target="_top" xlink:title="Interfaz para todos los NPCs/Enemigos/Objetos que pueden ser daniados.">
<polygon fill="none" stroke="black" points="0,-66.5 0,-85.5 122,-85.5 122,-66.5 0,-66.5"/>
<text text-anchor="middle" x="61" y="-73.5" font-family="Helvetica,sans-Serif" font-size="10.00">Controllers.IDamageable</text>
</a>
</g>
</g>
<!-- Node1 -->
<g id="node2" class="node">
<title>Node1</title>
<g id="a_node2"><a xlink:href="class_controllers_1_1_base_controller.html" target="_top" xlink:title=" ">
<polygon fill="none" stroke="black" points="158,-44.5 158,-63.5 288,-63.5 288,-44.5 158,-44.5"/>
<text text-anchor="middle" x="223" y="-51.5" font-family="Helvetica,sans-Serif" font-size="10.00">Controllers.BaseController</text>
</a>
</g>
</g>
<!-- Node0&#45;&gt;Node1 -->
<g id="edge1" class="edge">
<title>Node0&#45;&gt;Node1</title>
<path fill="none" stroke="midnightblue" d="M132.03,-66.37C140.63,-65.19 149.38,-63.99 157.88,-62.82"/>
<polygon fill="midnightblue" stroke="midnightblue" points="131.46,-62.92 122.03,-67.75 132.42,-69.85 131.46,-62.92"/>
</g>
<!-- Node2 -->
<g id="node3" class="node">
<title>Node2</title>
<g id="a_node3"><a xlink:href="class_controllers_1_1_dummy_controller.html" target="_top" xlink:title=" ">
<polygon fill="none" stroke="black" points="324,-88.5 324,-107.5 465,-107.5 465,-88.5 324,-88.5"/>
<text text-anchor="middle" x="394.5" y="-95.5" font-family="Helvetica,sans-Serif" font-size="10.00">Controllers.DummyController</text>
</a>
</g>
</g>
<!-- Node1&#45;&gt;Node2 -->
<g id="edge2" class="edge">
<title>Node1&#45;&gt;Node2</title>
<path fill="none" stroke="midnightblue" d="M270.47,-66.06C297.65,-73.12 331.49,-81.9 356.79,-88.47"/>
<polygon fill="midnightblue" stroke="midnightblue" points="271.34,-62.67 260.78,-63.55 269.58,-69.45 271.34,-62.67"/>
</g>
<!-- Node3 -->
<g id="node4" class="node">
<title>Node3</title>
<g id="a_node4"><a xlink:href="class_controllers_1_1_froggy_1_1_froggy_controller.html" target="_top" xlink:title=" ">
<polygon fill="none" stroke="black" points="330,-39 330,-69 459,-69 459,-39 330,-39"/>
<text text-anchor="start" x="338" y="-57" font-family="Helvetica,sans-Serif" font-size="10.00">Controllers.Froggy.Froggy</text>
<text text-anchor="middle" x="394.5" y="-46" font-family="Helvetica,sans-Serif" font-size="10.00">Controller</text>
</a>
</g>
</g>
<!-- Node1&#45;&gt;Node3 -->
<g id="edge3" class="edge">
<title>Node1&#45;&gt;Node3</title>
<path fill="none" stroke="midnightblue" d="M298.14,-54C308.72,-54 319.53,-54 329.89,-54"/>
<polygon fill="midnightblue" stroke="midnightblue" points="298.08,-50.5 288.08,-54 298.08,-57.5 298.08,-50.5"/>
</g>
<!-- Node4 -->
<g id="node5" class="node">
<title>Node4</title>
<g id="a_node5"><a xlink:href="class_controllers_1_1_njord_controller.html" target="_top" xlink:title=" ">
<polygon fill="none" stroke="black" points="329.5,-0.5 329.5,-19.5 459.5,-19.5 459.5,-0.5 329.5,-0.5"/>
<text text-anchor="middle" x="394.5" y="-7.5" font-family="Helvetica,sans-Serif" font-size="10.00">Controllers.NjordController</text>
</a>
</g>
</g>
<!-- Node1&#45;&gt;Node4 -->
<g id="edge4" class="edge">
<title>Node1&#45;&gt;Node4</title>
<path fill="none" stroke="midnightblue" d="M270.47,-41.94C297.65,-34.88 331.49,-26.1 356.79,-19.53"/>
<polygon fill="midnightblue" stroke="midnightblue" points="269.58,-38.55 260.78,-44.45 271.34,-45.33 269.58,-38.55"/>
</g>
<!-- Node10 -->
<g id="node6" class="node">
<title>Node10</title>
<g id="a_node6"><a xlink:href="interface_interactions_1_1_interfaces_1_1_i_interactive.html" target="_top" xlink:title=" ">
<polygon fill="none" stroke="black" points="3.5,-17 3.5,-47 118.5,-47 118.5,-17 3.5,-17"/>
<text text-anchor="start" x="11.5" y="-35" font-family="Helvetica,sans-Serif" font-size="10.00">Interactions.Interfaces.</text>
<text text-anchor="middle" x="61" y="-24" font-family="Helvetica,sans-Serif" font-size="10.00">IInteractive</text>
</a>
</g>
</g>
<!-- Node10&#45;&gt;Node1 -->
<g id="edge5" class="edge">
<title>Node10&#45;&gt;Node1</title>
<path fill="none" stroke="midnightblue" d="M128.8,-41.19C138.45,-42.51 148.37,-43.88 157.97,-45.2"/>
<polygon fill="midnightblue" stroke="midnightblue" points="129.24,-37.71 118.86,-39.82 128.29,-44.65 129.24,-37.71"/>
</g>
</g>
</svg>
