<?xml version="1.0" encoding="UTF-8" standalone="no"?>
<!DOCTYPE svg PUBLIC "-//W3C//DTD SVG 1.1//EN"
 "http://www.w3.org/Graphics/SVG/1.1/DTD/svg11.dtd">
<!-- Generated by graphviz version 2.48.0 (20210717.1556)
 -->
<!-- Title: Representaci칩n gr치fica de la clase Pages: 1 -->
<svg width="472pt" height="186pt"
 viewBox="0.00 0.00 472.00 186.00" xmlns="http://www.w3.org/2000/svg" xmlns:xlink="http://www.w3.org/1999/xlink">
<g id="graph0" class="graph" transform="scale(1 1) rotate(0) translate(4 182)">
<title>Representaci칩n gr치fica de la clase</title>
<!-- Node0 -->
<g id="node1" class="node">
<title>Node0</title>
<g id="a_node1"><a xlink:href="class_controllers_1_1_state_machine_1_1_state.html" target="_top" xlink:title="Clase base para los estados de cada personaje. Controla el ciclo de vida de cada estado (Enter,...">
<polygon fill="none" stroke="black" points="0,-73.5 0,-103.5 129,-103.5 129,-73.5 0,-73.5"/>
<text text-anchor="start" x="8" y="-91.5" font-family="Helvetica,sans-Serif" font-size="10.00">Controllers.StateMachine.</text>
<text text-anchor="middle" x="64.5" y="-80.5" font-family="Helvetica,sans-Serif" font-size="10.00">State</text>
</a>
</g>
</g>
<!-- Node1 -->
<g id="node2" class="node">
<title>Node1</title>
<g id="a_node2"><a xlink:href="class_controllers_1_1_state_machine_1_1_states_1_1_attack_state.html" target="_top" xlink:title=" ">
<polygon fill="none" stroke="black" points="167.5,-147.5 167.5,-177.5 296.5,-177.5 296.5,-147.5 167.5,-147.5"/>
<text text-anchor="start" x="175.5" y="-165.5" font-family="Helvetica,sans-Serif" font-size="10.00">Controllers.StateMachine.</text>
<text text-anchor="middle" x="232" y="-154.5" font-family="Helvetica,sans-Serif" font-size="10.00">States.AttackState</text>
</a>
</g>
</g>
<!-- Node0&#45;&gt;Node1 -->
<g id="edge1" class="edge">
<title>Node0&#45;&gt;Node1</title>
<path fill="none" stroke="midnightblue" d="M102.38,-108.33C120.92,-117.96 143.89,-129.4 165,-138.5 172.17,-141.59 179.87,-144.64 187.4,-147.47"/>
<polygon fill="midnightblue" stroke="midnightblue" points="103.87,-105.16 93.39,-103.62 100.62,-111.36 103.87,-105.16"/>
</g>
<!-- Node3 -->
<g id="node4" class="node">
<title>Node3</title>
<g id="a_node4"><a xlink:href="class_controllers_1_1_state_machine_1_1_states_1_1_idle_state.html" target="_top" xlink:title=" ">
<polygon fill="none" stroke="black" points="167.5,-98.5 167.5,-128.5 296.5,-128.5 296.5,-98.5 167.5,-98.5"/>
<text text-anchor="start" x="175.5" y="-116.5" font-family="Helvetica,sans-Serif" font-size="10.00">Controllers.StateMachine.</text>
<text text-anchor="middle" x="232" y="-105.5" font-family="Helvetica,sans-Serif" font-size="10.00">States.IdleState</text>
</a>
</g>
</g>
<!-- Node0&#45;&gt;Node3 -->
<g id="edge3" class="edge">
<title>Node0&#45;&gt;Node3</title>
<path fill="none" stroke="midnightblue" d="M139.15,-99.62C148.57,-101.05 158.14,-102.49 167.38,-103.89"/>
<polygon fill="midnightblue" stroke="midnightblue" points="139.42,-96.13 129.01,-98.09 138.38,-103.05 139.42,-96.13"/>
</g>
<!-- Node5 -->
<g id="node6" class="node">
<title>Node5</title>
<g id="a_node6"><a xlink:href="class_controllers_1_1_state_machine_1_1_states_1_1_jump_state.html" target="_top" xlink:title=" ">
<polygon fill="none" stroke="black" points="167.5,-49.5 167.5,-79.5 296.5,-79.5 296.5,-49.5 167.5,-49.5"/>
<text text-anchor="start" x="175.5" y="-67.5" font-family="Helvetica,sans-Serif" font-size="10.00">Controllers.StateMachine.</text>
<text text-anchor="middle" x="232" y="-56.5" font-family="Helvetica,sans-Serif" font-size="10.00">States.JumpState</text>
</a>
</g>
</g>
<!-- Node0&#45;&gt;Node5 -->
<g id="edge5" class="edge">
<title>Node0&#45;&gt;Node5</title>
<path fill="none" stroke="midnightblue" d="M139.15,-77.82C148.57,-76.45 158.14,-75.07 167.38,-73.73"/>
<polygon fill="midnightblue" stroke="midnightblue" points="138.41,-74.39 129.01,-79.29 139.41,-81.32 138.41,-74.39"/>
</g>
<!-- Node6 -->
<g id="node7" class="node">
<title>Node6</title>
<g id="a_node7"><a xlink:href="class_controllers_1_1_state_machine_1_1_states_1_1_prepare_attack_state.html" target="_top" xlink:title=" ">
<polygon fill="none" stroke="black" points="165,-0.5 165,-30.5 299,-30.5 299,-0.5 165,-0.5"/>
<text text-anchor="start" x="173" y="-18.5" font-family="Helvetica,sans-Serif" font-size="10.00">Controllers.StateMachine.</text>
<text text-anchor="middle" x="232" y="-7.5" font-family="Helvetica,sans-Serif" font-size="10.00">States.PrepareAttackState</text>
</a>
</g>
</g>
<!-- Node0&#45;&gt;Node6 -->
<g id="edge6" class="edge">
<title>Node0&#45;&gt;Node6</title>
<path fill="none" stroke="midnightblue" d="M103.23,-68.72C121.64,-59.37 144.24,-48.35 165,-39.5 172.18,-36.44 179.89,-33.41 187.42,-30.58"/>
<polygon fill="midnightblue" stroke="midnightblue" points="101.59,-65.62 94.28,-73.29 104.78,-71.85 101.59,-65.62"/>
</g>
<!-- Node2 -->
<g id="node3" class="node">
<title>Node2</title>
<g id="a_node3"><a xlink:href="class_controllers_1_1_froggy_1_1_froggy___attack_state.html" target="_top" xlink:title=" ">
<polygon fill="none" stroke="black" points="335,-147.5 335,-177.5 464,-177.5 464,-147.5 335,-147.5"/>
<text text-anchor="start" x="343" y="-165.5" font-family="Helvetica,sans-Serif" font-size="10.00">Controllers.Froggy.Froggy</text>
<text text-anchor="middle" x="399.5" y="-154.5" font-family="Helvetica,sans-Serif" font-size="10.00">_AttackState</text>
</a>
</g>
</g>
<!-- Node1&#45;&gt;Node2 -->
<g id="edge2" class="edge">
<title>Node1&#45;&gt;Node2</title>
<path fill="none" stroke="midnightblue" d="M306.65,-162.5C316.07,-162.5 325.64,-162.5 334.88,-162.5"/>
<polygon fill="midnightblue" stroke="midnightblue" points="306.51,-159 296.51,-162.5 306.51,-166 306.51,-159"/>
</g>
<!-- Node4 -->
<g id="node5" class="node">
<title>Node4</title>
<g id="a_node5"><a xlink:href="class_froggy___idle_state.html" target="_top" xlink:title=" ">
<polygon fill="none" stroke="black" points="354.5,-104 354.5,-123 444.5,-123 444.5,-104 354.5,-104"/>
<text text-anchor="middle" x="399.5" y="-111" font-family="Helvetica,sans-Serif" font-size="10.00">Froggy_IdleState</text>
</a>
</g>
</g>
<!-- Node3&#45;&gt;Node4 -->
<g id="edge4" class="edge">
<title>Node3&#45;&gt;Node4</title>
<path fill="none" stroke="midnightblue" d="M306.59,-113.5C322.9,-113.5 339.7,-113.5 354.39,-113.5"/>
<polygon fill="midnightblue" stroke="midnightblue" points="306.51,-110 296.51,-113.5 306.51,-117 306.51,-110"/>
</g>
<!-- Node7 -->
<g id="node8" class="node">
<title>Node7</title>
<g id="a_node8"><a xlink:href="class_controllers_1_1_froggy_1_1_froggy___prepare_attack_state.html" target="_top" xlink:title=" ">
<polygon fill="none" stroke="black" points="335,-0.5 335,-30.5 464,-30.5 464,-0.5 335,-0.5"/>
<text text-anchor="start" x="343" y="-18.5" font-family="Helvetica,sans-Serif" font-size="10.00">Controllers.Froggy.Froggy</text>
<text text-anchor="middle" x="399.5" y="-7.5" font-family="Helvetica,sans-Serif" font-size="10.00">_PrepareAttackState</text>
</a>
</g>
</g>
<!-- Node6&#45;&gt;Node7 -->
<g id="edge7" class="edge">
<title>Node6&#45;&gt;Node7</title>
<path fill="none" stroke="midnightblue" d="M309.59,-15.5C318.03,-15.5 326.56,-15.5 334.81,-15.5"/>
<polygon fill="midnightblue" stroke="midnightblue" points="309.36,-12 299.36,-15.5 309.36,-19 309.36,-12"/>
</g>
</g>
</svg>
