<?xml version="1.0" encoding="UTF-8" standalone="no"?>
<!DOCTYPE svg PUBLIC "-//W3C//DTD SVG 1.1//EN"
 "http://www.w3.org/Graphics/SVG/1.1/DTD/svg11.dtd">
<!-- Generated by graphviz version 2.48.0 (20210717.1556)
 -->
<!-- Title: Representaci칩n gr치fica de la clase Pages: 1 -->
<svg width="288pt" height="382pt"
 viewBox="0.00 0.00 288.00 382.00" xmlns="http://www.w3.org/2000/svg" xmlns:xlink="http://www.w3.org/1999/xlink">
<g id="graph0" class="graph" transform="scale(1 1) rotate(0) translate(4 378)">
<title>Representaci칩n gr치fica de la clase</title>
<!-- Node11 -->
<g id="node1" class="node">
<title>Node11</title>
<g id="a_node1"><a xlink:title=" ">
<polygon fill="none" stroke="#bfbfbf" points="0,-183.5 0,-202.5 83,-202.5 83,-183.5 0,-183.5"/>
<text text-anchor="middle" x="41.5" y="-190.5" font-family="Helvetica,sans-Serif" font-size="10.00">MonoBehaviour</text>
</a>
</g>
</g>
<!-- Node0 -->
<g id="node2" class="node">
<title>Node0</title>
<g id="a_node2"><a xlink:href="class_camera_trigger.html" target="_top" xlink:title=" ">
<polygon fill="none" stroke="black" points="159.5,-354.5 159.5,-373.5 239.5,-373.5 239.5,-354.5 159.5,-354.5"/>
<text text-anchor="middle" x="199.5" y="-361.5" font-family="Helvetica,sans-Serif" font-size="10.00">CameraTrigger</text>
</a>
</g>
</g>
<!-- Node11&#45;&gt;Node0 -->
<g id="edge1" class="edge">
<title>Node11&#45;&gt;Node0</title>
<path fill="none" stroke="midnightblue" d="M46.74,-212.72C54.84,-245.44 75.69,-310.72 119,-345 130.35,-353.98 145.28,-358.82 159.13,-361.4"/>
<polygon fill="midnightblue" stroke="midnightblue" points="50.07,-211.56 44.39,-202.61 43.25,-213.15 50.07,-211.56"/>
</g>
<!-- Node13 -->
<g id="node3" class="node">
<title>Node13</title>
<g id="a_node3"><a xlink:href="class_death_bounds_component.html" target="_top" xlink:title=" ">
<polygon fill="none" stroke="black" points="137,-316.5 137,-335.5 262,-335.5 262,-316.5 137,-316.5"/>
<text text-anchor="middle" x="199.5" y="-323.5" font-family="Helvetica,sans-Serif" font-size="10.00">DeathBoundsComponent</text>
</a>
</g>
</g>
<!-- Node11&#45;&gt;Node13 -->
<g id="edge2" class="edge">
<title>Node11&#45;&gt;Node13</title>
<path fill="none" stroke="midnightblue" d="M50.02,-212.14C61.14,-237.82 84.42,-282.98 119,-307 124.59,-310.89 130.89,-313.98 137.42,-316.45"/>
<polygon fill="midnightblue" stroke="midnightblue" points="53.19,-210.64 46.13,-202.74 46.72,-213.32 53.19,-210.64"/>
</g>
<!-- Node14 -->
<g id="node4" class="node">
<title>Node14</title>
<g id="a_node4"><a xlink:href="class_image_animation.html" target="_top" xlink:title=" ">
<polygon fill="none" stroke="black" points="156.5,-278.5 156.5,-297.5 242.5,-297.5 242.5,-278.5 156.5,-278.5"/>
<text text-anchor="middle" x="199.5" y="-285.5" font-family="Helvetica,sans-Serif" font-size="10.00">ImageAnimation</text>
</a>
</g>
</g>
<!-- Node11&#45;&gt;Node14 -->
<g id="edge3" class="edge">
<title>Node11&#45;&gt;Node14</title>
<path fill="none" stroke="midnightblue" d="M55.64,-210.87C69.47,-228.35 92.82,-254.41 119,-269 130.4,-275.35 143.88,-279.6 156.46,-282.42"/>
<polygon fill="midnightblue" stroke="midnightblue" points="58.18,-208.42 49.32,-202.61 52.62,-212.68 58.18,-208.42"/>
</g>
<!-- Node15 -->
<g id="node5" class="node">
<title>Node15</title>
<g id="a_node5"><a xlink:href="class_main_menu.html" target="_top" xlink:title="Script para el menu principal">
<polygon fill="none" stroke="black" points="168.5,-240.5 168.5,-259.5 230.5,-259.5 230.5,-240.5 168.5,-240.5"/>
<text text-anchor="middle" x="199.5" y="-247.5" font-family="Helvetica,sans-Serif" font-size="10.00">MainMenu</text>
</a>
</g>
</g>
<!-- Node11&#45;&gt;Node15 -->
<g id="edge4" class="edge">
<title>Node11&#45;&gt;Node15</title>
<path fill="none" stroke="midnightblue" d="M67.94,-207.46C82.53,-215.28 101.39,-224.61 119,-231 134.88,-236.76 153.17,-241.27 168.2,-244.44"/>
<polygon fill="midnightblue" stroke="midnightblue" points="69.48,-204.31 59.03,-202.58 66.13,-210.45 69.48,-204.31"/>
</g>
<!-- Node16 -->
<g id="node6" class="node">
<title>Node16</title>
<g id="a_node6"><a xlink:href="class_player_1_1_player_combat_controller.html" target="_top" xlink:title=" ">
<polygon fill="none" stroke="black" points="124.5,-202.5 124.5,-221.5 274.5,-221.5 274.5,-202.5 124.5,-202.5"/>
<text text-anchor="middle" x="199.5" y="-209.5" font-family="Helvetica,sans-Serif" font-size="10.00">Player.PlayerCombatController</text>
</a>
</g>
</g>
<!-- Node11&#45;&gt;Node16 -->
<g id="edge5" class="edge">
<title>Node11&#45;&gt;Node16</title>
<path fill="none" stroke="midnightblue" d="M93.17,-199.17C103.11,-200.38 113.73,-201.68 124.27,-202.96"/>
<polygon fill="midnightblue" stroke="midnightblue" points="93.43,-195.68 83.08,-197.94 92.58,-202.63 93.43,-195.68"/>
</g>
<!-- Node17 -->
<g id="node7" class="node">
<title>Node17</title>
<g id="a_node7"><a xlink:href="class_player_1_1_player_controller.html" target="_top" xlink:title=" ">
<polygon fill="none" stroke="black" points="141.5,-164.5 141.5,-183.5 257.5,-183.5 257.5,-164.5 141.5,-164.5"/>
<text text-anchor="middle" x="199.5" y="-171.5" font-family="Helvetica,sans-Serif" font-size="10.00">Player.PlayerController</text>
</a>
</g>
</g>
<!-- Node11&#45;&gt;Node17 -->
<g id="edge6" class="edge">
<title>Node11&#45;&gt;Node17</title>
<path fill="none" stroke="midnightblue" d="M93.41,-186.8C108.74,-184.93 125.68,-182.87 141.39,-180.96"/>
<polygon fill="midnightblue" stroke="midnightblue" points="92.58,-183.37 83.08,-188.06 93.43,-190.32 92.58,-183.37"/>
</g>
<!-- Node18 -->
<g id="node8" class="node">
<title>Node18</title>
<g id="a_node8"><a xlink:href="class_player_1_1_player_ladder_climbing_controller.html" target="_top" xlink:title=" ">
<polygon fill="none" stroke="black" points="128.5,-115 128.5,-145 270.5,-145 270.5,-115 128.5,-115"/>
<text text-anchor="start" x="136.5" y="-133" font-family="Helvetica,sans-Serif" font-size="10.00">Player.PlayerLadderClimbing</text>
<text text-anchor="middle" x="199.5" y="-122" font-family="Helvetica,sans-Serif" font-size="10.00">Controller</text>
</a>
</g>
</g>
<!-- Node11&#45;&gt;Node18 -->
<g id="edge7" class="edge">
<title>Node11&#45;&gt;Node18</title>
<path fill="none" stroke="midnightblue" d="M68.7,-178.71C83.26,-171.1 101.85,-161.91 119,-155 127.72,-151.49 137.14,-148.15 146.34,-145.12"/>
<polygon fill="midnightblue" stroke="midnightblue" points="66.96,-175.67 59.77,-183.45 70.24,-181.86 66.96,-175.67"/>
</g>
<!-- Node19 -->
<g id="node9" class="node">
<title>Node19</title>
<g id="a_node9"><a xlink:href="class_player_1_1_player_movement_controller.html" target="_top" xlink:title=" ">
<polygon fill="none" stroke="black" points="119,-76.5 119,-95.5 280,-95.5 280,-76.5 119,-76.5"/>
<text text-anchor="middle" x="199.5" y="-83.5" font-family="Helvetica,sans-Serif" font-size="10.00">Player.PlayerMovementController</text>
</a>
</g>
</g>
<!-- Node11&#45;&gt;Node19 -->
<g id="edge8" class="edge">
<title>Node11&#45;&gt;Node19</title>
<path fill="none" stroke="midnightblue" d="M53.51,-174.97C66.62,-155.04 90.4,-123.46 119,-106 126.17,-101.63 134.25,-98.2 142.45,-95.53"/>
<polygon fill="midnightblue" stroke="midnightblue" points="50.52,-173.15 48.1,-183.46 56.42,-176.91 50.52,-173.15"/>
</g>
<!-- Node20 -->
<g id="node10" class="node">
<title>Node20</title>
<g id="a_node10"><a xlink:href="class_screen_opts.html" target="_top" xlink:title=" ">
<polygon fill="none" stroke="black" points="165.5,-38.5 165.5,-57.5 233.5,-57.5 233.5,-38.5 165.5,-38.5"/>
<text text-anchor="middle" x="199.5" y="-45.5" font-family="Helvetica,sans-Serif" font-size="10.00">ScreenOpts</text>
</a>
</g>
</g>
<!-- Node11&#45;&gt;Node20 -->
<g id="edge9" class="edge">
<title>Node11&#45;&gt;Node20</title>
<path fill="none" stroke="midnightblue" d="M48.73,-173.87C58.85,-145.91 81.59,-94.27 119,-67 132.3,-57.3 149.87,-52.49 165.11,-50.13"/>
<polygon fill="midnightblue" stroke="midnightblue" points="45.42,-172.73 45.46,-183.32 52.04,-175.01 45.42,-172.73"/>
</g>
<!-- Node21 -->
<g id="node11" class="node">
<title>Node21</title>
<g id="a_node11"><a xlink:href="class_u_i___panel_opacity.html" target="_top" xlink:title=" ">
<polygon fill="none" stroke="black" points="155,-0.5 155,-19.5 244,-19.5 244,-0.5 155,-0.5"/>
<text text-anchor="middle" x="199.5" y="-7.5" font-family="Helvetica,sans-Serif" font-size="10.00">UI_PanelOpacity</text>
</a>
</g>
</g>
<!-- Node11&#45;&gt;Node21 -->
<g id="edge10" class="edge">
<title>Node11&#45;&gt;Node21</title>
<path fill="none" stroke="midnightblue" d="M45.96,-173.21C53.1,-138.47 72.86,-66.66 119,-29 129.11,-20.75 142.23,-15.97 154.88,-13.24"/>
<polygon fill="midnightblue" stroke="midnightblue" points="42.44,-172.99 44,-183.46 49.31,-174.3 42.44,-172.99"/>
</g>
</g>
</svg>
