<?xml version="1.0" encoding="UTF-8" standalone="no"?>
<!DOCTYPE svg PUBLIC "-//W3C//DTD SVG 1.1//EN"
 "http://www.w3.org/Graphics/SVG/1.1/DTD/svg11.dtd">
<!-- Generated by graphviz version 2.48.0 (20210717.1556)
 -->
<!-- Title: Representaci칩n gr치fica de la clase Pages: 1 -->
<svg width="288pt" height="420pt"
 viewBox="0.00 0.00 288.00 420.00" xmlns="http://www.w3.org/2000/svg" xmlns:xlink="http://www.w3.org/1999/xlink">
<g id="graph0" class="graph" transform="scale(1 1) rotate(0) translate(4 416)">
<title>Representaci칩n gr치fica de la clase</title>
<!-- Node14 -->
<g id="node1" class="node">
<title>Node14</title>
<g id="a_node1"><a xlink:title=" ">
<polygon fill="none" stroke="#bfbfbf" points="0,-196.5 0,-215.5 83,-215.5 83,-196.5 0,-196.5"/>
<text text-anchor="middle" x="41.5" y="-203.5" font-family="Helvetica,sans-Serif" font-size="10.00">MonoBehaviour</text>
</a>
</g>
</g>
<!-- Node0 -->
<g id="node2" class="node">
<title>Node0</title>
<g id="a_node2"><a xlink:href="class_camera_trigger.html" target="_top" xlink:title=" ">
<polygon fill="none" stroke="black" points="159.5,-392.5 159.5,-411.5 239.5,-411.5 239.5,-392.5 159.5,-392.5"/>
<text text-anchor="middle" x="199.5" y="-399.5" font-family="Helvetica,sans-Serif" font-size="10.00">CameraTrigger</text>
</a>
</g>
</g>
<!-- Node14&#45;&gt;Node0 -->
<g id="edge1" class="edge">
<title>Node14&#45;&gt;Node0</title>
<path fill="none" stroke="midnightblue" d="M45.21,-225.83C51.34,-262.66 69.75,-341.63 119,-383 130.19,-392.4 145.25,-397.31 159.25,-399.83"/>
<polygon fill="midnightblue" stroke="midnightblue" points="48.66,-225.2 43.69,-215.84 41.74,-226.26 48.66,-225.2"/>
</g>
<!-- Node16 -->
<g id="node3" class="node">
<title>Node16</title>
<g id="a_node3"><a xlink:href="class_death_bounds_component.html" target="_top" xlink:title=" ">
<polygon fill="none" stroke="black" points="137,-354.5 137,-373.5 262,-373.5 262,-354.5 137,-354.5"/>
<text text-anchor="middle" x="199.5" y="-361.5" font-family="Helvetica,sans-Serif" font-size="10.00">DeathBoundsComponent</text>
</a>
</g>
</g>
<!-- Node14&#45;&gt;Node16 -->
<g id="edge2" class="edge">
<title>Node14&#45;&gt;Node16</title>
<path fill="none" stroke="midnightblue" d="M47.63,-225.33C56.72,-255.69 78.61,-314.22 119,-345 124.31,-349.04 130.34,-352.24 136.66,-354.77"/>
<polygon fill="midnightblue" stroke="midnightblue" points="50.95,-224.2 44.85,-215.53 44.21,-226.11 50.95,-224.2"/>
</g>
<!-- Node17 -->
<g id="node4" class="node">
<title>Node17</title>
<g id="a_node4"><a xlink:href="class_image_animation.html" target="_top" xlink:title=" ">
<polygon fill="none" stroke="black" points="156.5,-316.5 156.5,-335.5 242.5,-335.5 242.5,-316.5 156.5,-316.5"/>
<text text-anchor="middle" x="199.5" y="-323.5" font-family="Helvetica,sans-Serif" font-size="10.00">ImageAnimation</text>
</a>
</g>
</g>
<!-- Node14&#45;&gt;Node17 -->
<g id="edge3" class="edge">
<title>Node14&#45;&gt;Node17</title>
<path fill="none" stroke="midnightblue" d="M51.47,-224.61C63.55,-247.62 87.24,-286.25 119,-307 130.05,-314.22 143.56,-318.7 156.29,-321.48"/>
<polygon fill="midnightblue" stroke="midnightblue" points="54.52,-222.88 46.89,-215.54 48.27,-226.04 54.52,-222.88"/>
</g>
<!-- Node18 -->
<g id="node5" class="node">
<title>Node18</title>
<g id="a_node5"><a xlink:href="class_main_menu.html" target="_top" xlink:title="Script para el menu principal">
<polygon fill="none" stroke="black" points="168.5,-278.5 168.5,-297.5 230.5,-297.5 230.5,-278.5 168.5,-278.5"/>
<text text-anchor="middle" x="199.5" y="-285.5" font-family="Helvetica,sans-Serif" font-size="10.00">MainMenu</text>
</a>
</g>
</g>
<!-- Node14&#45;&gt;Node18 -->
<g id="edge4" class="edge">
<title>Node14&#45;&gt;Node18</title>
<path fill="none" stroke="midnightblue" d="M58.56,-223.01C73.04,-237.36 95.61,-257.36 119,-269 134.37,-276.65 152.97,-281.31 168.32,-284.1"/>
<polygon fill="midnightblue" stroke="midnightblue" points="60.9,-220.39 51.39,-215.71 55.9,-225.3 60.9,-220.39"/>
</g>
<!-- Node19 -->
<g id="node6" class="node">
<title>Node19</title>
<g id="a_node6"><a xlink:href="class_player_1_1_player_combat_controller.html" target="_top" xlink:title=" ">
<polygon fill="none" stroke="black" points="124.5,-240.5 124.5,-259.5 274.5,-259.5 274.5,-240.5 124.5,-240.5"/>
<text text-anchor="middle" x="199.5" y="-247.5" font-family="Helvetica,sans-Serif" font-size="10.00">Player.PlayerCombatController</text>
</a>
</g>
</g>
<!-- Node14&#45;&gt;Node19 -->
<g id="edge5" class="edge">
<title>Node14&#45;&gt;Node19</title>
<path fill="none" stroke="midnightblue" d="M79.56,-218.78C92.03,-222.9 106.06,-227.34 119,-231 130.88,-234.36 143.87,-237.62 155.84,-240.48"/>
<polygon fill="midnightblue" stroke="midnightblue" points="80.55,-215.42 69.95,-215.57 78.33,-222.06 80.55,-215.42"/>
</g>
<!-- Node20 -->
<g id="node7" class="node">
<title>Node20</title>
<g id="a_node7"><a xlink:href="class_player_1_1_player_ladder_climbing_controller.html" target="_top" xlink:title=" ">
<polygon fill="none" stroke="black" points="128.5,-191 128.5,-221 270.5,-221 270.5,-191 128.5,-191"/>
<text text-anchor="start" x="136.5" y="-209" font-family="Helvetica,sans-Serif" font-size="10.00">Player.PlayerLadderClimbing</text>
<text text-anchor="middle" x="199.5" y="-198" font-family="Helvetica,sans-Serif" font-size="10.00">Controller</text>
</a>
</g>
</g>
<!-- Node14&#45;&gt;Node20 -->
<g id="edge6" class="edge">
<title>Node14&#45;&gt;Node20</title>
<path fill="none" stroke="midnightblue" d="M93.1,-206C104.31,-206 116.38,-206 128.21,-206"/>
<polygon fill="midnightblue" stroke="midnightblue" points="93.08,-202.5 83.08,-206 93.08,-209.5 93.08,-202.5"/>
</g>
<!-- Node21 -->
<g id="node8" class="node">
<title>Node21</title>
<g id="a_node8"><a xlink:href="class_player_1_1_player_movement_controller.html" target="_top" xlink:title=" ">
<polygon fill="none" stroke="black" points="119,-152.5 119,-171.5 280,-171.5 280,-152.5 119,-152.5"/>
<text text-anchor="middle" x="199.5" y="-159.5" font-family="Helvetica,sans-Serif" font-size="10.00">Player.PlayerMovementController</text>
</a>
</g>
</g>
<!-- Node14&#45;&gt;Node21 -->
<g id="edge7" class="edge">
<title>Node14&#45;&gt;Node21</title>
<path fill="none" stroke="midnightblue" d="M81.21,-193.38C93.28,-189.58 106.65,-185.49 119,-182 131.87,-178.36 146.01,-174.7 158.75,-171.52"/>
<polygon fill="midnightblue" stroke="midnightblue" points="79.91,-190.12 71.44,-196.49 82.03,-196.79 79.91,-190.12"/>
</g>
<!-- Node22 -->
<g id="node9" class="node">
<title>Node22</title>
<g id="a_node9"><a xlink:href="class_screen_opts.html" target="_top" xlink:title=" ">
<polygon fill="none" stroke="black" points="165.5,-114.5 165.5,-133.5 233.5,-133.5 233.5,-114.5 165.5,-114.5"/>
<text text-anchor="middle" x="199.5" y="-121.5" font-family="Helvetica,sans-Serif" font-size="10.00">ScreenOpts</text>
</a>
</g>
</g>
<!-- Node14&#45;&gt;Node22 -->
<g id="edge8" class="edge">
<title>Node14&#45;&gt;Node22</title>
<path fill="none" stroke="midnightblue" d="M58.56,-188.99C73.04,-174.64 95.61,-154.64 119,-143 133.36,-135.86 150.53,-131.32 165.23,-128.47"/>
<polygon fill="midnightblue" stroke="midnightblue" points="55.9,-186.7 51.39,-196.29 60.9,-191.61 55.9,-186.7"/>
</g>
<!-- Node23 -->
<g id="node10" class="node">
<title>Node23</title>
<g id="a_node10"><a xlink:href="class_u_i___joystick_controller.html" target="_top" xlink:title=" ">
<polygon fill="none" stroke="black" points="145.5,-76.5 145.5,-95.5 253.5,-95.5 253.5,-76.5 145.5,-76.5"/>
<text text-anchor="middle" x="199.5" y="-83.5" font-family="Helvetica,sans-Serif" font-size="10.00">UI_JoystickController</text>
</a>
</g>
</g>
<!-- Node14&#45;&gt;Node23 -->
<g id="edge9" class="edge">
<title>Node14&#45;&gt;Node23</title>
<path fill="none" stroke="midnightblue" d="M51.47,-187.39C63.55,-164.38 87.24,-125.75 119,-105 126.84,-99.88 135.92,-96.13 145.09,-93.4"/>
<polygon fill="midnightblue" stroke="midnightblue" points="48.27,-185.96 46.89,-196.46 54.52,-189.12 48.27,-185.96"/>
</g>
<!-- Node24 -->
<g id="node11" class="node">
<title>Node24</title>
<g id="a_node11"><a xlink:href="class_u_i___panel_opacity.html" target="_top" xlink:title=" ">
<polygon fill="none" stroke="black" points="155,-38.5 155,-57.5 244,-57.5 244,-38.5 155,-38.5"/>
<text text-anchor="middle" x="199.5" y="-45.5" font-family="Helvetica,sans-Serif" font-size="10.00">UI_PanelOpacity</text>
</a>
</g>
</g>
<!-- Node14&#45;&gt;Node24 -->
<g id="edge10" class="edge">
<title>Node14&#45;&gt;Node24</title>
<path fill="none" stroke="midnightblue" d="M47.63,-186.67C56.72,-156.31 78.61,-97.78 119,-67 129.27,-59.17 142.29,-54.51 154.8,-51.75"/>
<polygon fill="midnightblue" stroke="midnightblue" points="44.21,-185.89 44.85,-196.47 50.95,-187.8 44.21,-185.89"/>
</g>
<!-- Node25 -->
<g id="node12" class="node">
<title>Node25</title>
<g id="a_node12"><a xlink:href="class_u_i___pause_menu_manager.html" target="_top" xlink:title=" ">
<polygon fill="none" stroke="black" points="139.5,-0.5 139.5,-19.5 259.5,-19.5 259.5,-0.5 139.5,-0.5"/>
<text text-anchor="middle" x="199.5" y="-7.5" font-family="Helvetica,sans-Serif" font-size="10.00">UI_PauseMenuManager</text>
</a>
</g>
</g>
<!-- Node14&#45;&gt;Node25 -->
<g id="edge11" class="edge">
<title>Node14&#45;&gt;Node25</title>
<path fill="none" stroke="midnightblue" d="M45.21,-186.17C51.34,-149.34 69.75,-70.37 119,-29 124.98,-23.98 132.05,-20.24 139.48,-17.46"/>
<polygon fill="midnightblue" stroke="midnightblue" points="41.74,-185.74 43.69,-196.16 48.66,-186.8 41.74,-185.74"/>
</g>
</g>
</svg>
