<?xml version="1.0" encoding="UTF-8" standalone="no"?>
<!DOCTYPE svg PUBLIC "-//W3C//DTD SVG 1.1//EN"
 "http://www.w3.org/Graphics/SVG/1.1/DTD/svg11.dtd">
<!-- Generated by graphviz version 2.48.0 (20210717.1556)
 -->
<!-- Title: Representaci칩n gr치fica de la clase Pages: 1 -->
<svg width="310pt" height="235pt"
 viewBox="0.00 0.00 310.00 235.00" xmlns="http://www.w3.org/2000/svg" xmlns:xlink="http://www.w3.org/1999/xlink">
<g id="graph0" class="graph" transform="scale(1 1) rotate(0) translate(4 231)">
<title>Representaci칩n gr치fica de la clase</title>
<!-- Node0 -->
<g id="node1" class="node">
<title>Node0</title>
<g id="a_node1"><a xlink:href="class_scriptable_object.html" target="_top" xlink:title=" ">
<polygon fill="none" stroke="black" points="0,-104 0,-123 89,-123 89,-104 0,-104"/>
<text text-anchor="middle" x="44.5" y="-111" font-family="Helvetica,sans-Serif" font-size="10.00">ScriptableObject</text>
</a>
</g>
</g>
<!-- Node1 -->
<g id="node2" class="node">
<title>Node1</title>
<g id="a_node2"><a xlink:href="class_controllers_1_1_state_machine_1_1_states_1_1_data_1_1_attack_state_data.html" target="_top" xlink:title=" ">
<polygon fill="none" stroke="black" points="142,-196.5 142,-226.5 285,-226.5 285,-196.5 142,-196.5"/>
<text text-anchor="start" x="150" y="-214.5" font-family="Helvetica,sans-Serif" font-size="10.00">Controllers.StateMachine.</text>
<text text-anchor="middle" x="213.5" y="-203.5" font-family="Helvetica,sans-Serif" font-size="10.00">States.Data.AttackStateData</text>
</a>
</g>
</g>
<!-- Node0&#45;&gt;Node1 -->
<g id="edge1" class="edge">
<title>Node0&#45;&gt;Node1</title>
<path fill="none" stroke="midnightblue" d="M59.98,-131.23C74.67,-148.08 98.91,-172.96 125,-187.5 131.19,-190.95 137.91,-193.93 144.78,-196.5"/>
<polygon fill="midnightblue" stroke="midnightblue" points="62.35,-128.6 53.21,-123.24 57.01,-133.13 62.35,-128.6"/>
</g>
<!-- Node2 -->
<g id="node3" class="node">
<title>Node2</title>
<g id="a_node3"><a xlink:href="class_controllers_1_1_state_machine_1_1_states_1_1_data_1_1_controller_data.html" target="_top" xlink:title=" ">
<polygon fill="none" stroke="black" points="147,-147.5 147,-177.5 280,-177.5 280,-147.5 147,-147.5"/>
<text text-anchor="start" x="155" y="-165.5" font-family="Helvetica,sans-Serif" font-size="10.00">Controllers.StateMachine.</text>
<text text-anchor="middle" x="213.5" y="-154.5" font-family="Helvetica,sans-Serif" font-size="10.00">States.Data.ControllerData</text>
</a>
</g>
</g>
<!-- Node0&#45;&gt;Node2 -->
<g id="edge2" class="edge">
<title>Node0&#45;&gt;Node2</title>
<path fill="none" stroke="midnightblue" d="M84.76,-126.16C97.56,-130.21 111.86,-134.63 125,-138.5 135.12,-141.48 145.94,-144.54 156.4,-147.44"/>
<polygon fill="midnightblue" stroke="midnightblue" points="85.46,-122.71 74.87,-123.02 83.34,-129.38 85.46,-122.71"/>
</g>
<!-- Node3 -->
<g id="node4" class="node">
<title>Node3</title>
<g id="a_node4"><a xlink:href="class_controllers_1_1_state_machine_1_1_states_1_1_data_1_1_idle_state_data.html" target="_top" xlink:title=" ">
<polygon fill="none" stroke="black" points="148.5,-98.5 148.5,-128.5 278.5,-128.5 278.5,-98.5 148.5,-98.5"/>
<text text-anchor="start" x="156.5" y="-116.5" font-family="Helvetica,sans-Serif" font-size="10.00">Controllers.StateMachine.</text>
<text text-anchor="middle" x="213.5" y="-105.5" font-family="Helvetica,sans-Serif" font-size="10.00">States.Data.IdleStateData</text>
</a>
</g>
</g>
<!-- Node0&#45;&gt;Node3 -->
<g id="edge3" class="edge">
<title>Node0&#45;&gt;Node3</title>
<path fill="none" stroke="midnightblue" d="M99.4,-113.5C115.05,-113.5 132.29,-113.5 148.5,-113.5"/>
<polygon fill="midnightblue" stroke="midnightblue" points="99.38,-110 89.38,-113.5 99.38,-117 99.38,-110"/>
</g>
<!-- Node4 -->
<g id="node5" class="node">
<title>Node4</title>
<g id="a_node5"><a xlink:href="class_controllers_1_1_state_machine_1_1_states_1_1_data_1_1_jump_state_data.html" target="_top" xlink:title=" ">
<polygon fill="none" stroke="black" points="144.5,-49.5 144.5,-79.5 282.5,-79.5 282.5,-49.5 144.5,-49.5"/>
<text text-anchor="start" x="152.5" y="-67.5" font-family="Helvetica,sans-Serif" font-size="10.00">Controllers.StateMachine.</text>
<text text-anchor="middle" x="213.5" y="-56.5" font-family="Helvetica,sans-Serif" font-size="10.00">States.Data.JumpStateData</text>
</a>
</g>
</g>
<!-- Node0&#45;&gt;Node4 -->
<g id="edge4" class="edge">
<title>Node0&#45;&gt;Node4</title>
<path fill="none" stroke="midnightblue" d="M86.42,-101.02C98.81,-97.28 112.45,-93.19 125,-89.5 136.07,-86.25 147.94,-82.82 159.25,-79.58"/>
<polygon fill="midnightblue" stroke="midnightblue" points="85.36,-97.68 76.81,-103.93 87.39,-104.38 85.36,-97.68"/>
</g>
<!-- Node5 -->
<g id="node6" class="node">
<title>Node5</title>
<g id="a_node6"><a xlink:href="class_controllers_1_1_state_machine_1_1_states_1_1_data_1_1_prepare_attack_state_data.html" target="_top" xlink:title=" ">
<polygon fill="none" stroke="black" points="125,-0.5 125,-30.5 302,-30.5 302,-0.5 125,-0.5"/>
<text text-anchor="start" x="133" y="-18.5" font-family="Helvetica,sans-Serif" font-size="10.00">Controllers.StateMachine.</text>
<text text-anchor="middle" x="213.5" y="-7.5" font-family="Helvetica,sans-Serif" font-size="10.00">States.Data.PrepareAttackStateData</text>
</a>
</g>
</g>
<!-- Node0&#45;&gt;Node5 -->
<g id="edge5" class="edge">
<title>Node0&#45;&gt;Node5</title>
<path fill="none" stroke="midnightblue" d="M60.07,-96.08C74.82,-79.5 99.11,-55 125,-40.5 131.89,-36.64 139.43,-33.33 147.1,-30.51"/>
<polygon fill="midnightblue" stroke="midnightblue" points="57.17,-94.08 53.26,-103.93 62.46,-98.67 57.17,-94.08"/>
</g>
</g>
</svg>
