<?xml version="1.0" encoding="UTF-8" standalone="no"?>
<!DOCTYPE svg PUBLIC "-//W3C//DTD SVG 1.1//EN"
 "http://www.w3.org/Graphics/SVG/1.1/DTD/svg11.dtd">
<!-- Generated by graphviz version 2.48.0 (20210717.1556)
 -->
<!-- Title: Graphical Class Hierarchy Pages: 1 -->
<svg width="504pt" height="596pt"
 viewBox="0.00 0.00 504.00 596.00" xmlns="http://www.w3.org/2000/svg" xmlns:xlink="http://www.w3.org/1999/xlink">
<g id="graph0" class="graph" transform="scale(1 1) rotate(0) translate(4 592)">
<title>Graphical Class Hierarchy</title>
<!-- Node0 -->
<g id="node1" class="node">
<title>Node0</title>
<g id="a_node1"><a xlink:href="interface_controllers_1_1_i_damageable.html" target="_top" xlink:title=" ">
<polygon fill="none" stroke="black" points="0,-568.5 0,-587.5 122,-587.5 122,-568.5 0,-568.5"/>
<text text-anchor="middle" x="61" y="-575.5" font-family="Helvetica,sans-Serif" font-size="10.00">Controllers.IDamageable</text>
</a>
</g>
</g>
<!-- Node1 -->
<g id="node2" class="node">
<title>Node1</title>
<g id="a_node2"><a xlink:href="class_controllers_1_1_base_controller.html" target="_top" xlink:title=" ">
<polygon fill="none" stroke="black" points="173.5,-568.5 173.5,-587.5 303.5,-587.5 303.5,-568.5 173.5,-568.5"/>
<text text-anchor="middle" x="238.5" y="-575.5" font-family="Helvetica,sans-Serif" font-size="10.00">Controllers.BaseController</text>
</a>
</g>
</g>
<!-- Node0&#45;&gt;Node1 -->
<g id="edge1" class="edge">
<title>Node0&#45;&gt;Node1</title>
<path fill="none" stroke="midnightblue" d="M132.58,-578C146.07,-578 160.13,-578 173.4,-578"/>
<polygon fill="midnightblue" stroke="midnightblue" points="132.4,-574.5 122.4,-578 132.4,-581.5 132.4,-574.5"/>
</g>
<!-- Node2 -->
<g id="node3" class="node">
<title>Node2</title>
<g id="a_node3"><a xlink:href="class_controllers_1_1_dummy_controller.html" target="_top" xlink:title=" ">
<polygon fill="none" stroke="black" points="355,-568.5 355,-587.5 496,-587.5 496,-568.5 355,-568.5"/>
<text text-anchor="middle" x="425.5" y="-575.5" font-family="Helvetica,sans-Serif" font-size="10.00">Controllers.DummyController</text>
</a>
</g>
</g>
<!-- Node1&#45;&gt;Node2 -->
<g id="edge2" class="edge">
<title>Node1&#45;&gt;Node2</title>
<path fill="none" stroke="midnightblue" d="M313.88,-578C327.37,-578 341.39,-578 354.75,-578"/>
<polygon fill="midnightblue" stroke="midnightblue" points="313.68,-574.5 303.68,-578 313.68,-581.5 313.68,-574.5"/>
</g>
<!-- Node5 -->
<g id="node4" class="node">
<title>Node5</title>
<g id="a_node4"><a xlink:href="class_mono_behaviour.html" target="_top" xlink:title=" ">
<polygon fill="none" stroke="black" points="19.5,-278.5 19.5,-297.5 102.5,-297.5 102.5,-278.5 19.5,-278.5"/>
<text text-anchor="middle" x="61" y="-285.5" font-family="Helvetica,sans-Serif" font-size="10.00">MonoBehaviour</text>
</a>
</g>
</g>
<!-- Node5&#45;&gt;Node1 -->
<g id="edge5" class="edge">
<title>Node5&#45;&gt;Node1</title>
<path fill="none" stroke="midnightblue" d="M62.93,-307.69C66.37,-357.49 82.53,-489.39 158,-558 162.74,-562.31 168.27,-565.72 174.16,-568.42"/>
<polygon fill="midnightblue" stroke="midnightblue" points="66.41,-307.39 62.33,-297.61 59.43,-307.8 66.41,-307.39"/>
</g>
<!-- Node6 -->
<g id="node5" class="node">
<title>Node6</title>
<g id="a_node5"><a xlink:href="class_camera_management_1_1_dynamic_camera.html" target="_top" xlink:title=" ">
<polygon fill="none" stroke="black" points="164.5,-519 164.5,-549 312.5,-549 312.5,-519 164.5,-519"/>
<text text-anchor="start" x="172.5" y="-537" font-family="Helvetica,sans-Serif" font-size="10.00">CameraManagement.Dynamic</text>
<text text-anchor="middle" x="238.5" y="-526" font-family="Helvetica,sans-Serif" font-size="10.00">Camera</text>
</a>
</g>
</g>
<!-- Node5&#45;&gt;Node6 -->
<g id="edge3" class="edge">
<title>Node5&#45;&gt;Node6</title>
<path fill="none" stroke="midnightblue" d="M64.93,-307.58C72.39,-350.45 96.06,-453.25 158,-509 162.3,-512.87 167.2,-516.14 172.4,-518.91"/>
<polygon fill="midnightblue" stroke="midnightblue" points="68.37,-306.9 63.31,-297.6 61.46,-308.03 68.37,-306.9"/>
</g>
<!-- Node7 -->
<g id="node6" class="node">
<title>Node7</title>
<g id="a_node6"><a xlink:href="class_camera_trigger.html" target="_top" xlink:title=" ">
<polygon fill="none" stroke="black" points="198.5,-480.5 198.5,-499.5 278.5,-499.5 278.5,-480.5 198.5,-480.5"/>
<text text-anchor="middle" x="238.5" y="-487.5" font-family="Helvetica,sans-Serif" font-size="10.00">CameraTrigger</text>
</a>
</g>
</g>
<!-- Node5&#45;&gt;Node7 -->
<g id="edge4" class="edge">
<title>Node5&#45;&gt;Node7</title>
<path fill="none" stroke="midnightblue" d="M66.6,-307.4C76.51,-344.86 103.54,-427.21 158,-470 169.42,-478.97 184.35,-483.97 198.2,-486.73"/>
<polygon fill="midnightblue" stroke="midnightblue" points="69.99,-306.54 64.15,-297.7 63.2,-308.25 69.99,-306.54"/>
</g>
<!-- Node8 -->
<g id="node7" class="node">
<title>Node8</title>
<g id="a_node7"><a xlink:href="class_controllers_1_1_movement_1_1_base_movement_controller.html" target="_top" xlink:title=" ">
<polygon fill="none" stroke="black" points="170.5,-431 170.5,-461 306.5,-461 306.5,-431 170.5,-431"/>
<text text-anchor="start" x="178.5" y="-449" font-family="Helvetica,sans-Serif" font-size="10.00">Controllers.Movement.Base</text>
<text text-anchor="middle" x="238.5" y="-438" font-family="Helvetica,sans-Serif" font-size="10.00">MovementController</text>
</a>
</g>
</g>
<!-- Node5&#45;&gt;Node8 -->
<g id="edge6" class="edge">
<title>Node5&#45;&gt;Node8</title>
<path fill="none" stroke="midnightblue" d="M70.76,-307.04C84.99,-335.9 115.84,-390.57 158,-421 163.4,-424.89 169.42,-428.2 175.67,-430.99"/>
<polygon fill="midnightblue" stroke="midnightblue" points="73.75,-305.18 66.28,-297.66 67.43,-308.2 73.75,-305.18"/>
</g>
<!-- Node9 -->
<g id="node8" class="node">
<title>Node9</title>
<g id="a_node8"><a xlink:href="class_death_bounds_component.html" target="_top" xlink:title=" ">
<polygon fill="none" stroke="black" points="176,-392.5 176,-411.5 301,-411.5 301,-392.5 176,-392.5"/>
<text text-anchor="middle" x="238.5" y="-399.5" font-family="Helvetica,sans-Serif" font-size="10.00">DeathBoundsComponent</text>
</a>
</g>
</g>
<!-- Node5&#45;&gt;Node9 -->
<g id="edge7" class="edge">
<title>Node5&#45;&gt;Node9</title>
<path fill="none" stroke="midnightblue" d="M74.76,-305.54C91.44,-327.14 122.7,-363.37 158,-383 164.95,-386.86 172.66,-389.94 180.47,-392.4"/>
<polygon fill="midnightblue" stroke="midnightblue" points="77.54,-303.41 68.73,-297.53 71.95,-307.62 77.54,-303.41"/>
</g>
<!-- Node10 -->
<g id="node9" class="node">
<title>Node10</title>
<g id="a_node9"><a xlink:href="class_image_animation.html" target="_top" xlink:title=" ">
<polygon fill="none" stroke="black" points="195.5,-354.5 195.5,-373.5 281.5,-373.5 281.5,-354.5 195.5,-354.5"/>
<text text-anchor="middle" x="238.5" y="-361.5" font-family="Helvetica,sans-Serif" font-size="10.00">ImageAnimation</text>
</a>
</g>
</g>
<!-- Node5&#45;&gt;Node10 -->
<g id="edge8" class="edge">
<title>Node5&#45;&gt;Node10</title>
<path fill="none" stroke="midnightblue" d="M83.74,-303.51C102.58,-316.29 130.99,-334.05 158,-345 169.84,-349.8 183.18,-353.57 195.5,-356.45"/>
<polygon fill="midnightblue" stroke="midnightblue" points="85.53,-300.49 75.31,-297.68 81.55,-306.24 85.53,-300.49"/>
</g>
<!-- Node11 -->
<g id="node10" class="node">
<title>Node11</title>
<g id="a_node10"><a xlink:href="class_main_menu.html" target="_top" xlink:title=" ">
<polygon fill="none" stroke="black" points="207.5,-316.5 207.5,-335.5 269.5,-335.5 269.5,-316.5 207.5,-316.5"/>
<text text-anchor="middle" x="238.5" y="-323.5" font-family="Helvetica,sans-Serif" font-size="10.00">MainMenu</text>
</a>
</g>
</g>
<!-- Node5&#45;&gt;Node11 -->
<g id="edge9" class="edge">
<title>Node5&#45;&gt;Node11</title>
<path fill="none" stroke="midnightblue" d="M112.79,-299C143.45,-305.64 181.48,-313.87 207.43,-319.49"/>
<polygon fill="midnightblue" stroke="midnightblue" points="113.22,-295.51 102.7,-296.81 111.74,-302.35 113.22,-295.51"/>
</g>
<!-- Node12 -->
<g id="node11" class="node">
<title>Node12</title>
<g id="a_node11"><a xlink:href="class_particle_controller.html" target="_top" xlink:title=" ">
<polygon fill="none" stroke="black" points="193,-278.5 193,-297.5 284,-297.5 284,-278.5 193,-278.5"/>
<text text-anchor="middle" x="238.5" y="-285.5" font-family="Helvetica,sans-Serif" font-size="10.00">ParticleController</text>
</a>
</g>
</g>
<!-- Node5&#45;&gt;Node12 -->
<g id="edge10" class="edge">
<title>Node5&#45;&gt;Node12</title>
<path fill="none" stroke="midnightblue" d="M112.83,-288C138.08,-288 168.33,-288 192.7,-288"/>
<polygon fill="midnightblue" stroke="midnightblue" points="112.7,-284.5 102.7,-288 112.7,-291.5 112.7,-284.5"/>
</g>
<!-- Node13 -->
<g id="node12" class="node">
<title>Node13</title>
<g id="a_node12"><a xlink:href="class_player_1_1_player_combat_controller.html" target="_top" xlink:title=" ">
<polygon fill="none" stroke="black" points="163.5,-240.5 163.5,-259.5 313.5,-259.5 313.5,-240.5 163.5,-240.5"/>
<text text-anchor="middle" x="238.5" y="-247.5" font-family="Helvetica,sans-Serif" font-size="10.00">Player.PlayerCombatController</text>
</a>
</g>
</g>
<!-- Node5&#45;&gt;Node13 -->
<g id="edge11" class="edge">
<title>Node5&#45;&gt;Node13</title>
<path fill="none" stroke="midnightblue" d="M112.57,-277.05C138.09,-271.52 168.76,-264.88 193.33,-259.56"/>
<polygon fill="midnightblue" stroke="midnightblue" points="111.74,-273.65 102.7,-279.19 113.22,-280.49 111.74,-273.65"/>
</g>
<!-- Node14 -->
<g id="node13" class="node">
<title>Node14</title>
<g id="a_node13"><a xlink:href="class_player_1_1_player_controller.html" target="_top" xlink:title=" ">
<polygon fill="none" stroke="black" points="180.5,-202.5 180.5,-221.5 296.5,-221.5 296.5,-202.5 180.5,-202.5"/>
<text text-anchor="middle" x="238.5" y="-209.5" font-family="Helvetica,sans-Serif" font-size="10.00">Player.PlayerController</text>
</a>
</g>
</g>
<!-- Node5&#45;&gt;Node14 -->
<g id="edge12" class="edge">
<title>Node5&#45;&gt;Node14</title>
<path fill="none" stroke="midnightblue" d="M83.74,-272.49C102.58,-259.71 130.99,-241.95 158,-231 167.21,-227.27 177.32,-224.16 187.16,-221.6"/>
<polygon fill="midnightblue" stroke="midnightblue" points="81.55,-269.76 75.31,-278.32 85.53,-275.51 81.55,-269.76"/>
</g>
<!-- Node15 -->
<g id="node14" class="node">
<title>Node15</title>
<g id="a_node14"><a xlink:href="class_player_1_1_player_ladder_climbing_controller.html" target="_top" xlink:title=" ">
<polygon fill="none" stroke="black" points="167.5,-153 167.5,-183 309.5,-183 309.5,-153 167.5,-153"/>
<text text-anchor="start" x="175.5" y="-171" font-family="Helvetica,sans-Serif" font-size="10.00">Player.PlayerLadderClimbing</text>
<text text-anchor="middle" x="238.5" y="-160" font-family="Helvetica,sans-Serif" font-size="10.00">Controller</text>
</a>
</g>
</g>
<!-- Node5&#45;&gt;Node15 -->
<g id="edge13" class="edge">
<title>Node5&#45;&gt;Node15</title>
<path fill="none" stroke="midnightblue" d="M75.25,-270.52C92.22,-249.29 123.58,-213.74 158,-193 164.32,-189.19 171.28,-185.91 178.37,-183.09"/>
<polygon fill="midnightblue" stroke="midnightblue" points="72.49,-268.38 69.08,-278.41 78,-272.69 72.49,-268.38"/>
</g>
<!-- Node16 -->
<g id="node15" class="node">
<title>Node16</title>
<g id="a_node15"><a xlink:href="class_player_1_1_player_movement_controller.html" target="_top" xlink:title=" ">
<polygon fill="none" stroke="black" points="158,-114.5 158,-133.5 319,-133.5 319,-114.5 158,-114.5"/>
<text text-anchor="middle" x="238.5" y="-121.5" font-family="Helvetica,sans-Serif" font-size="10.00">Player.PlayerMovementController</text>
</a>
</g>
</g>
<!-- Node5&#45;&gt;Node16 -->
<g id="edge14" class="edge">
<title>Node5&#45;&gt;Node16</title>
<path fill="none" stroke="midnightblue" d="M69.11,-269.07C81.88,-237.73 111.77,-175.33 158,-143 163.58,-139.1 169.87,-135.99 176.39,-133.52"/>
<polygon fill="midnightblue" stroke="midnightblue" points="65.83,-267.83 65.43,-278.41 72.35,-270.39 65.83,-267.83"/>
</g>
<!-- Node17 -->
<g id="node16" class="node">
<title>Node17</title>
<g id="a_node16"><a xlink:href="class_screen_opts.html" target="_top" xlink:title=" ">
<polygon fill="none" stroke="black" points="204.5,-76.5 204.5,-95.5 272.5,-95.5 272.5,-76.5 204.5,-76.5"/>
<text text-anchor="middle" x="238.5" y="-83.5" font-family="Helvetica,sans-Serif" font-size="10.00">ScreenOpts</text>
</a>
</g>
</g>
<!-- Node5&#45;&gt;Node17 -->
<g id="edge15" class="edge">
<title>Node5&#45;&gt;Node17</title>
<path fill="none" stroke="midnightblue" d="M66.52,-268.44C76.3,-230.68 103.1,-147.71 158,-105 171.1,-94.81 188.84,-89.96 204.23,-87.71"/>
<polygon fill="midnightblue" stroke="midnightblue" points="63.1,-267.67 64.11,-278.22 69.9,-269.34 63.1,-267.67"/>
</g>
<!-- Node18 -->
<g id="node17" class="node">
<title>Node18</title>
<g id="a_node17"><a xlink:href="class_torch_component.html" target="_top" xlink:title=" ">
<polygon fill="none" stroke="black" points="193.5,-38.5 193.5,-57.5 283.5,-57.5 283.5,-38.5 193.5,-38.5"/>
<text text-anchor="middle" x="238.5" y="-45.5" font-family="Helvetica,sans-Serif" font-size="10.00">TorchComponent</text>
</a>
</g>
</g>
<!-- Node5&#45;&gt;Node18 -->
<g id="edge16" class="edge">
<title>Node5&#45;&gt;Node18</title>
<path fill="none" stroke="midnightblue" d="M64.65,-268.1C71.54,-224.57 94.15,-120.54 158,-67 167.9,-58.7 180.8,-53.9 193.33,-51.16"/>
<polygon fill="midnightblue" stroke="midnightblue" points="61.15,-267.83 63.16,-278.24 68.08,-268.85 61.15,-267.83"/>
</g>
<!-- Node19 -->
<g id="node18" class="node">
<title>Node19</title>
<g id="a_node18"><a xlink:href="class_u_i___panel_opacity.html" target="_top" xlink:title=" ">
<polygon fill="none" stroke="black" points="194,-0.5 194,-19.5 283,-19.5 283,-0.5 194,-0.5"/>
<text text-anchor="middle" x="238.5" y="-7.5" font-family="Helvetica,sans-Serif" font-size="10.00">UI_PanelOpacity</text>
</a>
</g>
</g>
<!-- Node5&#45;&gt;Node19 -->
<g id="edge17" class="edge">
<title>Node5&#45;&gt;Node19</title>
<path fill="none" stroke="midnightblue" d="M63.2,-268.41C67.27,-220 84.74,-93.93 158,-29 167.88,-20.25 181.07,-15.35 193.86,-12.65"/>
<polygon fill="midnightblue" stroke="midnightblue" points="59.71,-268.26 62.46,-278.49 66.69,-268.77 59.71,-268.26"/>
</g>
</g>
</svg>
